<svg width="491" height="367" viewBox="0 0 491 367" fill="none" xmlns="http://www.w3.org/2000/svg">
<rect width="491" height="367" fill="white"/>
<path d="M79 7H51C47.6863 7 45 9.68629 45 13V20C45 23.3137 47.6863 26 51 26H79C82.3137 26 85 23.3137 85 20V13C85 9.68629 82.3137 7 79 7Z" fill="#CC79A7" fill-opacity="0.3"/>
<path d="M39 81H11C7.68629 81 5 83.6863 5 87V94C5 97.3137 7.68629 100 11 100H39C42.3137 100 45 97.3137 45 94V87C45 83.6863 42.3137 81 39 81Z" fill="#CC79A7" fill-opacity="0.3"/>
<path d="M54.0908 15.1484H55.1436C55.6449 15.1484 56.0163 15.0231 56.2578 14.7725C56.4993 14.5218 56.6201 14.1891 56.6201 13.7744C56.6201 13.3734 56.4993 13.0612 56.2578 12.8379C56.0208 12.6146 55.6927 12.5029 55.2734 12.5029C54.8952 12.5029 54.5785 12.6077 54.3232 12.8174C54.068 13.0225 53.9404 13.2913 53.9404 13.624H51.9648C51.9648 13.1045 52.1038 12.6396 52.3818 12.2295C52.6644 11.8148 53.0563 11.4912 53.5576 11.2588C54.0635 11.0264 54.6195 10.9102 55.2256 10.9102C56.2783 10.9102 57.1032 11.1631 57.7002 11.6689C58.2972 12.1702 58.5957 12.863 58.5957 13.7471C58.5957 14.2028 58.4567 14.6221 58.1787 15.0049C57.9007 15.3877 57.5361 15.6816 57.085 15.8867C57.6455 16.0872 58.0625 16.388 58.3359 16.7891C58.6139 17.1901 58.7529 17.6641 58.7529 18.2109C58.7529 19.0951 58.4294 19.8037 57.7822 20.3369C57.1396 20.8701 56.2874 21.1367 55.2256 21.1367C54.2321 21.1367 53.4186 20.8747 52.7852 20.3506C52.1562 19.8265 51.8418 19.1338 51.8418 18.2725H53.8174C53.8174 18.6462 53.9564 18.9515 54.2344 19.1885C54.5169 19.4255 54.8633 19.5439 55.2734 19.5439C55.7428 19.5439 56.1097 19.4209 56.374 19.1748C56.6429 18.9242 56.7773 18.5938 56.7773 18.1836C56.7773 17.1901 56.2305 16.6934 55.1367 16.6934H54.0908V15.1484ZM60.3047 20.0293C60.3047 19.7148 60.4095 19.4596 60.6191 19.2637C60.8333 19.0677 61.0999 18.9697 61.4189 18.9697C61.7425 18.9697 62.0091 19.0677 62.2188 19.2637C62.4329 19.4596 62.54 19.7148 62.54 20.0293C62.54 20.3392 62.4352 20.5921 62.2256 20.7881C62.016 20.9795 61.7471 21.0752 61.4189 21.0752C61.0954 21.0752 60.8288 20.9795 60.6191 20.7881C60.4095 20.5921 60.3047 20.3392 60.3047 20.0293ZM68.8154 17.0215C68.3005 17.5273 67.6989 17.7803 67.0107 17.7803C66.1312 17.7803 65.4271 17.4795 64.8984 16.8779C64.3698 16.2718 64.1055 15.4561 64.1055 14.4307C64.1055 13.779 64.2467 13.182 64.5293 12.6396C64.8164 12.0928 65.2152 11.6689 65.7256 11.3682C66.236 11.0628 66.8102 10.9102 67.4482 10.9102C68.1045 10.9102 68.6878 11.0742 69.1982 11.4023C69.7087 11.7305 70.1051 12.2021 70.3877 12.8174C70.6702 13.4326 70.8138 14.1367 70.8184 14.9297V15.6611C70.8184 17.32 70.4059 18.6234 69.5811 19.5713C68.7562 20.5192 67.5872 21.0251 66.0742 21.0889L65.5889 21.0957V19.4482L66.0264 19.4414C67.7445 19.3639 68.6742 18.5573 68.8154 17.0215ZM67.4961 16.2695C67.8151 16.2695 68.0885 16.1875 68.3164 16.0234C68.5488 15.8594 68.7243 15.6611 68.8428 15.4287V14.6152C68.8428 13.9453 68.7152 13.4258 68.46 13.0566C68.2048 12.6875 67.863 12.5029 67.4346 12.5029C67.0381 12.5029 66.7122 12.6852 66.457 13.0498C66.2018 13.4098 66.0742 13.8633 66.0742 14.4102C66.0742 14.9525 66.1973 15.3991 66.4434 15.75C66.694 16.0964 67.0449 16.2695 67.4961 16.2695ZM78.7207 13.6924C78.7207 14.1755 78.5999 14.6038 78.3584 14.9775C78.1169 15.3512 77.7842 15.6497 77.3604 15.873C77.8434 16.1055 78.2262 16.4268 78.5088 16.8369C78.7913 17.2425 78.9326 17.721 78.9326 18.2725C78.9326 19.1566 78.6318 19.8561 78.0303 20.3711C77.4287 20.8815 76.6107 21.1367 75.5762 21.1367C74.5417 21.1367 73.7214 20.8792 73.1152 20.3643C72.5091 19.8493 72.2061 19.152 72.2061 18.2725C72.2061 17.721 72.3473 17.2402 72.6299 16.8301C72.9124 16.4199 73.293 16.1009 73.7715 15.873C73.3477 15.6497 73.015 15.3512 72.7734 14.9775C72.5365 14.6038 72.418 14.1755 72.418 13.6924C72.418 12.8447 72.7005 12.1702 73.2656 11.6689C73.8307 11.1631 74.5986 10.9102 75.5693 10.9102C76.5355 10.9102 77.3011 11.1608 77.8662 11.6621C78.4359 12.1589 78.7207 12.8356 78.7207 13.6924ZM76.9502 18.1289C76.9502 17.696 76.8249 17.3496 76.5742 17.0898C76.3236 16.8301 75.9863 16.7002 75.5625 16.7002C75.1432 16.7002 74.8083 16.8301 74.5576 17.0898C74.307 17.3451 74.1816 17.6914 74.1816 18.1289C74.1816 18.5527 74.3047 18.8945 74.5508 19.1543C74.7969 19.4141 75.1387 19.5439 75.5762 19.5439C76.0046 19.5439 76.3395 19.4186 76.5811 19.168C76.8271 18.9173 76.9502 18.571 76.9502 18.1289ZM76.7451 13.7881C76.7451 13.4007 76.6426 13.0908 76.4375 12.8584C76.2324 12.6214 75.943 12.5029 75.5693 12.5029C75.2002 12.5029 74.9131 12.6169 74.708 12.8447C74.5029 13.0726 74.4004 13.387 74.4004 13.7881C74.4004 14.1846 74.5029 14.5036 74.708 14.7451C74.9131 14.9867 75.2025 15.1074 75.5762 15.1074C75.9499 15.1074 76.237 14.9867 76.4375 14.7451C76.6426 14.5036 76.7451 14.1846 76.7451 13.7881Z" fill="#C74E4E"/>
<path d="M14.0908 89.1484H15.1436C15.6449 89.1484 16.0163 89.0231 16.2578 88.7725C16.4993 88.5218 16.6201 88.1891 16.6201 87.7744C16.6201 87.3734 16.4993 87.0612 16.2578 86.8379C16.0208 86.6146 15.6927 86.5029 15.2734 86.5029C14.8952 86.5029 14.5785 86.6077 14.3232 86.8174C14.068 87.0225 13.9404 87.2913 13.9404 87.624H11.9648C11.9648 87.1045 12.1038 86.6396 12.3818 86.2295C12.6644 85.8148 13.0563 85.4912 13.5576 85.2588C14.0635 85.0264 14.6195 84.9102 15.2256 84.9102C16.2783 84.9102 17.1032 85.1631 17.7002 85.6689C18.2972 86.1702 18.5957 86.863 18.5957 87.7471C18.5957 88.2028 18.4567 88.6221 18.1787 89.0049C17.9007 89.3877 17.5361 89.6816 17.085 89.8867C17.6455 90.0872 18.0625 90.388 18.3359 90.7891C18.6139 91.1901 18.7529 91.6641 18.7529 92.2109C18.7529 93.0951 18.4294 93.8037 17.7822 94.3369C17.1396 94.8701 16.2874 95.1367 15.2256 95.1367C14.2321 95.1367 13.4186 94.8747 12.7852 94.3506C12.1562 93.8265 11.8418 93.1338 11.8418 92.2725H13.8174C13.8174 92.6462 13.9564 92.9515 14.2344 93.1885C14.5169 93.4255 14.8633 93.5439 15.2734 93.5439C15.7428 93.5439 16.1097 93.4209 16.374 93.1748C16.6429 92.9242 16.7773 92.5938 16.7773 92.1836C16.7773 91.1901 16.2305 90.6934 15.1367 90.6934H14.0908V89.1484ZM20.3047 94.0293C20.3047 93.7148 20.4095 93.4596 20.6191 93.2637C20.8333 93.0677 21.0999 92.9697 21.4189 92.9697C21.7425 92.9697 22.0091 93.0677 22.2188 93.2637C22.4329 93.4596 22.54 93.7148 22.54 94.0293C22.54 94.3392 22.4352 94.5921 22.2256 94.7881C22.016 94.9795 21.7471 95.0752 21.4189 95.0752C21.0954 95.0752 20.8288 94.9795 20.6191 94.7881C20.4095 94.5921 20.3047 94.3392 20.3047 94.0293ZM28.8154 91.0215C28.3005 91.5273 27.6989 91.7803 27.0107 91.7803C26.1312 91.7803 25.4271 91.4795 24.8984 90.8779C24.3698 90.2718 24.1055 89.4561 24.1055 88.4307C24.1055 87.779 24.2467 87.182 24.5293 86.6396C24.8164 86.0928 25.2152 85.6689 25.7256 85.3682C26.236 85.0628 26.8102 84.9102 27.4482 84.9102C28.1045 84.9102 28.6878 85.0742 29.1982 85.4023C29.7087 85.7305 30.1051 86.2021 30.3877 86.8174C30.6702 87.4326 30.8138 88.1367 30.8184 88.9297V89.6611C30.8184 91.32 30.4059 92.6234 29.5811 93.5713C28.7562 94.5192 27.5872 95.0251 26.0742 95.0889L25.5889 95.0957V93.4482L26.0264 93.4414C27.7445 93.3639 28.6742 92.5573 28.8154 91.0215ZM27.4961 90.2695C27.8151 90.2695 28.0885 90.1875 28.3164 90.0234C28.5488 89.8594 28.7243 89.6611 28.8428 89.4287V88.6152C28.8428 87.9453 28.7152 87.4258 28.46 87.0566C28.2048 86.6875 27.863 86.5029 27.4346 86.5029C27.0381 86.5029 26.7122 86.6852 26.457 87.0498C26.2018 87.4098 26.0742 87.8633 26.0742 88.4102C26.0742 88.9525 26.1973 89.3991 26.4434 89.75C26.694 90.0964 27.0449 90.2695 27.4961 90.2695ZM38.7207 87.6924C38.7207 88.1755 38.5999 88.6038 38.3584 88.9775C38.1169 89.3512 37.7842 89.6497 37.3604 89.873C37.8434 90.1055 38.2262 90.4268 38.5088 90.8369C38.7913 91.2425 38.9326 91.721 38.9326 92.2725C38.9326 93.1566 38.6318 93.8561 38.0303 94.3711C37.4287 94.8815 36.6107 95.1367 35.5762 95.1367C34.5417 95.1367 33.7214 94.8792 33.1152 94.3643C32.5091 93.8493 32.2061 93.152 32.2061 92.2725C32.2061 91.721 32.3473 91.2402 32.6299 90.8301C32.9124 90.4199 33.293 90.1009 33.7715 89.873C33.3477 89.6497 33.015 89.3512 32.7734 88.9775C32.5365 88.6038 32.418 88.1755 32.418 87.6924C32.418 86.8447 32.7005 86.1702 33.2656 85.6689C33.8307 85.1631 34.5986 84.9102 35.5693 84.9102C36.5355 84.9102 37.3011 85.1608 37.8662 85.6621C38.4359 86.1589 38.7207 86.8356 38.7207 87.6924ZM36.9502 92.1289C36.9502 91.696 36.8249 91.3496 36.5742 91.0898C36.3236 90.8301 35.9863 90.7002 35.5625 90.7002C35.1432 90.7002 34.8083 90.8301 34.5576 91.0898C34.307 91.3451 34.1816 91.6914 34.1816 92.1289C34.1816 92.5527 34.3047 92.8945 34.5508 93.1543C34.7969 93.4141 35.1387 93.5439 35.5762 93.5439C36.0046 93.5439 36.3395 93.4186 36.5811 93.168C36.8271 92.9173 36.9502 92.571 36.9502 92.1289ZM36.7451 87.7881C36.7451 87.4007 36.6426 87.0908 36.4375 86.8584C36.2324 86.6214 35.943 86.5029 35.5693 86.5029C35.2002 86.5029 34.9131 86.6169 34.708 86.8447C34.5029 87.0726 34.4004 87.387 34.4004 87.7881C34.4004 88.1846 34.5029 88.5036 34.708 88.7451C34.9131 88.9867 35.2025 89.1074 35.5762 89.1074C35.9499 89.1074 36.237 88.9867 36.4375 88.7451C36.6426 88.5036 36.7451 88.1846 36.7451 87.7881Z" fill="#C74E4E"/>
<path d="M49.5 72.5H0.5V121.5H49.5V72.5Z" stroke="#009E73"/>
<path d="M98.5 72.5H49.5V121.5H98.5V72.5Z" stroke="#009E73"/>
<path d="M49.5 121.5H0.5V170.5H49.5V121.5Z" stroke="#009E73"/>
<path d="M98.5 121.5H49.5V170.5H98.5V121.5Z" stroke="#009E73"/>
<path d="M147.5 72.5H98.5V121.5H147.5V72.5Z" stroke="#009E73"/>
<path d="M196.5 72.5H147.5V121.5H196.5V72.5Z" stroke="#009E73"/>
<path d="M147.5 121.5H98.5V170.5H147.5V121.5Z" stroke="#009E73"/>
<path d="M196.5 121.5H147.5V170.5H196.5V121.5Z" stroke="#009E73"/>
<path d="M245.5 72.5H196.5V121.5H245.5V72.5Z" stroke="#009E73"/>
<path d="M294.5 72.5H245.5V121.5H294.5V72.5Z" stroke="#009E73"/>
<path d="M245.5 121.5H196.5V170.5H245.5V121.5Z" stroke="#009E73"/>
<path d="M294.5 121.5H245.5V170.5H294.5V121.5Z" stroke="#009E73"/>
<path d="M343.5 72.5H294.5V121.5H343.5V72.5Z" stroke="#009E73"/>
<path d="M392.5 72.5H343.5V121.5H392.5V72.5Z" stroke="#009E73"/>
<path d="M343.5 121.5H294.5V170.5H343.5V121.5Z" stroke="#009E73"/>
<path d="M392.5 121.5H343.5V170.5H392.5V121.5Z" stroke="#009E73"/>
<path d="M441.5 72.5H392.5V121.5H441.5V72.5Z" stroke="#009E73"/>
<path d="M490.5 72.5H441.5V121.5H490.5V72.5Z" stroke="#009E73"/>
<path d="M441.5 121.5H392.5V170.5H441.5V121.5Z" stroke="#009E73"/>
<path d="M490.5 121.5H441.5V170.5H490.5V121.5Z" stroke="#009E73"/>
<path d="M49.5 170.5H0.5V219.5H49.5V170.5Z" stroke="#009E73"/>
<path d="M98.5 170.5H49.5V219.5H98.5V170.5Z" stroke="#009E73"/>
<path d="M49.5 219.5H0.5V268.5H49.5V219.5Z" stroke="#009E73"/>
<path d="M98.5 219.5H49.5V268.5H98.5V219.5Z" stroke="#009E73"/>
<path d="M147.5 170.5H98.5V219.5H147.5V170.5Z" stroke="#009E73"/>
<path d="M196.5 170.5H147.5V219.5H196.5V170.5Z" stroke="#009E73"/>
<path d="M147.5 219.5H98.5V268.5H147.5V219.5Z" stroke="#009E73"/>
<path d="M196.5 219.5H147.5V268.5H196.5V219.5Z" stroke="#009E73"/>
<path d="M245.5 170.5H196.5V219.5H245.5V170.5Z" stroke="#009E73"/>
<path d="M294.5 170.5H245.5V219.5H294.5V170.5Z" stroke="#009E73"/>
<path d="M245.5 219.5H196.5V268.5H245.5V219.5Z" stroke="#009E73"/>
<path d="M294.5 219.5H245.5V268.5H294.5V219.5Z" stroke="#009E73"/>
<path d="M343.5 170.5H294.5V219.5H343.5V170.5Z" stroke="#009E73"/>
<path d="M392.5 170.5H343.5V219.5H392.5V170.5Z" stroke="#009E73"/>
<path d="M343.5 219.5H294.5V268.5H343.5V219.5Z" stroke="#009E73"/>
<path d="M392.5 219.5H343.5V268.5H392.5V219.5Z" stroke="#009E73"/>
<path d="M441.5 170.5H392.5V219.5H441.5V170.5Z" stroke="#009E73"/>
<path d="M490.5 170.5H441.5V219.5H490.5V170.5Z" stroke="#009E73"/>
<path d="M441.5 219.5H392.5V268.5H441.5V219.5Z" stroke="#009E73"/>
<path d="M490.5 219.5H441.5V268.5H490.5V219.5Z" stroke="#009E73"/>
<path d="M49.5 268.5H0.5V317.5H49.5V268.5Z" stroke="#009E73"/>
<path d="M98.5 268.5H49.5V317.5H98.5V268.5Z" stroke="#009E73"/>
<path d="M49.5 317.5H0.5V366.5H49.5V317.5Z" stroke="#009E73"/>
<path d="M98.5 317.5H49.5V366.5H98.5V317.5Z" stroke="#009E73"/>
<path d="M147.5 268.5H98.5V317.5H147.5V268.5Z" stroke="#009E73"/>
<path d="M196.5 268.5H147.5V317.5H196.5V268.5Z" stroke="#009E73"/>
<path d="M147.5 317.5H98.5V366.5H147.5V317.5Z" stroke="#009E73"/>
<path d="M196.5 317.5H147.5V366.5H196.5V317.5Z" stroke="#009E73"/>
<path d="M245.5 268.5H196.5V317.5H245.5V268.5Z" stroke="#009E73"/>
<path d="M294.5 268.5H245.5V317.5H294.5V268.5Z" stroke="#009E73"/>
<path d="M245.5 317.5H196.5V366.5H245.5V317.5Z" stroke="#009E73"/>
<path d="M294.5 317.5H245.5V366.5H294.5V317.5Z" stroke="#009E73"/>
<path d="M343.5 268.5H294.5V317.5H343.5V268.5Z" stroke="#009E73"/>
<path d="M392.5 268.5H343.5V317.5H392.5V268.5Z" stroke="#009E73"/>
<path d="M343.5 317.5H294.5V366.5H343.5V317.5Z" stroke="#009E73"/>
<path d="M392.5 317.5H343.5V366.5H392.5V317.5Z" stroke="#009E73"/>
<path d="M441.5 268.5H392.5V317.5H441.5V268.5Z" stroke="#009E73"/>
<path d="M490.5 268.5H441.5V317.5H490.5V268.5Z" stroke="#009E73"/>
<path d="M441.5 317.5H392.5V366.5H441.5V317.5Z" stroke="#009E73"/>
<path d="M490.5 317.5H441.5V366.5H490.5V317.5Z" stroke="#009E73"/>
<path d="M453 204H38V233H453V204Z" fill="white"/>
<path d="M55.1562 222.484H48.9922L47.8203 226H44.082L50.4336 208.937H53.6914L60.0781 226H56.3398L55.1562 222.484ZM49.9414 219.637H54.207L52.0625 213.25L49.9414 219.637ZM74.293 222.496C74.293 222.082 74.0859 221.758 73.6719 221.523C73.2656 221.281 72.6094 221.066 71.7031 220.879C68.6875 220.246 67.1797 218.965 67.1797 217.035C67.1797 215.91 67.6445 214.973 68.5742 214.223C69.5117 213.465 70.7344 213.086 72.2422 213.086C73.8516 213.086 75.1367 213.465 76.0977 214.223C77.0664 214.98 77.5508 215.965 77.5508 217.176H74.1641C74.1641 216.691 74.0078 216.293 73.6953 215.98C73.3828 215.66 72.8945 215.5 72.2305 215.5C71.6602 215.5 71.2188 215.629 70.9062 215.887C70.5938 216.144 70.4375 216.473 70.4375 216.871C70.4375 217.246 70.6133 217.551 70.9648 217.785C71.3242 218.012 71.9258 218.211 72.7695 218.383C73.6133 218.547 74.3242 218.734 74.9023 218.945C76.6914 219.602 77.5859 220.738 77.5859 222.355C77.5859 223.512 77.0898 224.449 76.0977 225.168C75.1055 225.879 73.8242 226.234 72.2539 226.234C71.1914 226.234 70.2461 226.047 69.418 225.672C68.5977 225.289 67.9531 224.769 67.4844 224.113C67.0156 223.449 66.7812 222.734 66.7812 221.969H69.9922C70.0234 222.57 70.2461 223.031 70.6602 223.352C71.0742 223.672 71.6289 223.832 72.3242 223.832C72.9727 223.832 73.4609 223.711 73.7891 223.469C74.125 223.219 74.293 222.894 74.293 222.496ZM82.9531 213.32L83.0586 214.738C83.957 213.637 85.1719 213.086 86.7031 213.086C88.3359 213.086 89.457 213.73 90.0664 215.019C90.957 213.73 92.2266 213.086 93.875 213.086C95.25 213.086 96.2734 213.488 96.9453 214.293C97.6172 215.09 97.9531 216.293 97.9531 217.902V226H94.5547V217.914C94.5547 217.195 94.4141 216.672 94.1328 216.344C93.8516 216.008 93.3555 215.84 92.6445 215.84C91.6289 215.84 90.9258 216.324 90.5352 217.293L90.5469 226H87.1602V217.926C87.1602 217.191 87.0156 216.66 86.7266 216.332C86.4375 216.004 85.9453 215.84 85.25 215.84C84.2891 215.84 83.5938 216.238 83.1641 217.035V226H79.7773V213.32H82.9531ZM107.914 226C107.758 225.695 107.644 225.316 107.574 224.863C106.754 225.777 105.688 226.234 104.375 226.234C103.133 226.234 102.102 225.875 101.281 225.156C100.469 224.437 100.062 223.531 100.062 222.437C100.062 221.094 100.559 220.062 101.551 219.344C102.551 218.625 103.992 218.262 105.875 218.254H107.434V217.527C107.434 216.941 107.281 216.473 106.977 216.121C106.68 215.769 106.207 215.594 105.559 215.594C104.988 215.594 104.539 215.73 104.211 216.004C103.891 216.277 103.73 216.652 103.73 217.129H100.344C100.344 216.394 100.57 215.715 101.023 215.09C101.477 214.465 102.117 213.977 102.945 213.625C103.773 213.266 104.703 213.086 105.734 213.086C107.297 213.086 108.535 213.48 109.449 214.269C110.371 215.051 110.832 216.152 110.832 217.574V223.07C110.84 224.273 111.008 225.184 111.336 225.801V226H107.914ZM105.113 223.644C105.613 223.644 106.074 223.535 106.496 223.316C106.918 223.09 107.231 222.789 107.434 222.414V220.234H106.168C104.473 220.234 103.57 220.82 103.461 221.992L103.449 222.191C103.449 222.613 103.598 222.961 103.895 223.234C104.191 223.508 104.598 223.644 105.113 223.644ZM117.008 226H113.609V208H117.008V226ZM123.383 226H119.984V208H123.383V226ZM143.574 219.777C143.574 221.73 143.129 223.297 142.238 224.477C141.355 225.648 140.16 226.234 138.652 226.234C137.371 226.234 136.336 225.789 135.547 224.898V230.875H132.16V213.32H135.301L135.418 214.562C136.238 213.578 137.309 213.086 138.629 213.086C140.191 213.086 141.406 213.664 142.273 214.82C143.141 215.977 143.574 217.57 143.574 219.602V219.777ZM140.188 219.531C140.188 218.352 139.977 217.441 139.555 216.801C139.141 216.16 138.535 215.84 137.738 215.84C136.676 215.84 135.945 216.246 135.547 217.059V222.25C135.961 223.086 136.699 223.504 137.762 223.504C139.379 223.504 140.188 222.18 140.188 219.531ZM153.031 226C152.875 225.695 152.762 225.316 152.691 224.863C151.871 225.777 150.805 226.234 149.492 226.234C148.25 226.234 147.219 225.875 146.398 225.156C145.586 224.437 145.18 223.531 145.18 222.437C145.18 221.094 145.676 220.062 146.668 219.344C147.668 218.625 149.109 218.262 150.992 218.254H152.551V217.527C152.551 216.941 152.398 216.473 152.094 216.121C151.797 215.769 151.324 215.594 150.676 215.594C150.105 215.594 149.656 215.73 149.328 216.004C149.008 216.277 148.848 216.652 148.848 217.129H145.461C145.461 216.394 145.688 215.715 146.141 215.09C146.594 214.465 147.234 213.977 148.062 213.625C148.891 213.266 149.82 213.086 150.852 213.086C152.414 213.086 153.652 213.48 154.566 214.269C155.488 215.051 155.949 216.152 155.949 217.574V223.07C155.957 224.273 156.125 225.184 156.453 225.801V226H153.031ZM150.23 223.644C150.73 223.644 151.191 223.535 151.613 223.316C152.035 223.09 152.348 222.789 152.551 222.414V220.234H151.285C149.59 220.234 148.688 220.82 148.578 221.992L148.566 222.191C148.566 222.613 148.715 222.961 149.012 223.234C149.309 223.508 149.715 223.644 150.23 223.644ZM165.676 216.496C165.215 216.434 164.809 216.402 164.457 216.402C163.176 216.402 162.336 216.836 161.938 217.703V226H158.551V213.32H161.75L161.844 214.832C162.523 213.668 163.465 213.086 164.668 213.086C165.043 213.086 165.395 213.137 165.723 213.238L165.676 216.496ZM171.957 210.203V213.32H174.125V215.805H171.957V222.133C171.957 222.602 172.047 222.937 172.227 223.141C172.406 223.344 172.75 223.445 173.258 223.445C173.633 223.445 173.965 223.418 174.254 223.363V225.93C173.59 226.133 172.906 226.234 172.203 226.234C169.828 226.234 168.617 225.035 168.57 222.637V215.805H166.719V213.32H168.57V210.203H171.957ZM181.461 219.543C181.461 218.285 181.703 217.164 182.188 216.18C182.672 215.195 183.367 214.434 184.273 213.895C185.188 213.355 186.246 213.086 187.449 213.086C189.16 213.086 190.555 213.609 191.633 214.656C192.719 215.703 193.324 217.125 193.449 218.922L193.473 219.789C193.473 221.734 192.93 223.297 191.844 224.477C190.758 225.648 189.301 226.234 187.473 226.234C185.645 226.234 184.184 225.648 183.09 224.477C182.004 223.305 181.461 221.711 181.461 219.695V219.543ZM184.848 219.789C184.848 220.992 185.074 221.914 185.527 222.555C185.98 223.187 186.629 223.504 187.473 223.504C188.293 223.504 188.934 223.191 189.395 222.566C189.855 221.934 190.086 220.926 190.086 219.543C190.086 218.363 189.855 217.449 189.395 216.801C188.934 216.152 188.285 215.828 187.449 215.828C186.621 215.828 185.98 216.152 185.527 216.801C185.074 217.441 184.848 218.437 184.848 219.789ZM196.484 226V215.805H194.598V213.32H196.484V212.242C196.484 210.82 196.891 209.719 197.703 208.937C198.523 208.148 199.668 207.754 201.137 207.754C201.605 207.754 202.18 207.832 202.859 207.988L202.824 210.613C202.543 210.543 202.199 210.508 201.793 210.508C200.52 210.508 199.883 211.105 199.883 212.301V213.32H202.402V215.805H199.883V226H196.484ZM214.191 210.203V213.32H216.359V215.805H214.191V222.133C214.191 222.602 214.281 222.937 214.461 223.141C214.641 223.344 214.984 223.445 215.492 223.445C215.867 223.445 216.199 223.418 216.488 223.363V225.93C215.824 226.133 215.141 226.234 214.438 226.234C212.062 226.234 210.852 225.035 210.805 222.637V215.805H208.953V213.32H210.805V210.203H214.191ZM221.551 214.703C222.449 213.625 223.578 213.086 224.938 213.086C227.688 213.086 229.082 214.684 229.121 217.879V226H225.734V217.973C225.734 217.246 225.578 216.711 225.266 216.367C224.953 216.016 224.434 215.84 223.707 215.84C222.715 215.84 221.996 216.223 221.551 216.988V226H218.164V208H221.551V214.703ZM237.512 226.234C235.652 226.234 234.137 225.664 232.965 224.523C231.801 223.383 231.219 221.863 231.219 219.965V219.637C231.219 218.363 231.465 217.227 231.957 216.227C232.449 215.219 233.145 214.445 234.043 213.906C234.949 213.359 235.98 213.086 237.137 213.086C238.871 213.086 240.234 213.633 241.227 214.727C242.227 215.82 242.727 217.371 242.727 219.379V220.762H234.652C234.762 221.59 235.09 222.254 235.637 222.754C236.191 223.254 236.891 223.504 237.734 223.504C239.039 223.504 240.059 223.031 240.793 222.086L242.457 223.949C241.949 224.668 241.262 225.23 240.395 225.637C239.527 226.035 238.566 226.234 237.512 226.234ZM237.125 215.828C236.453 215.828 235.906 216.055 235.484 216.508C235.07 216.961 234.805 217.609 234.688 218.453H239.398V218.184C239.383 217.434 239.18 216.855 238.789 216.449C238.398 216.035 237.844 215.828 237.125 215.828ZM255.91 223.504C256.535 223.504 257.043 223.332 257.434 222.988C257.824 222.644 258.027 222.187 258.043 221.617H261.219C261.211 222.477 260.977 223.266 260.516 223.984C260.055 224.695 259.422 225.25 258.617 225.648C257.82 226.039 256.938 226.234 255.969 226.234C254.156 226.234 252.727 225.66 251.68 224.512C250.633 223.355 250.109 221.762 250.109 219.73V219.508C250.109 217.555 250.629 215.996 251.668 214.832C252.707 213.668 254.133 213.086 255.945 213.086C257.531 213.086 258.801 213.539 259.754 214.445C260.715 215.344 261.203 216.543 261.219 218.043H258.043C258.027 217.387 257.824 216.855 257.434 216.449C257.043 216.035 256.527 215.828 255.887 215.828C255.098 215.828 254.5 216.117 254.094 216.695C253.695 217.266 253.496 218.195 253.496 219.484V219.836C253.496 221.141 253.695 222.078 254.094 222.648C254.492 223.219 255.098 223.504 255.91 223.504ZM262.625 219.543C262.625 218.285 262.867 217.164 263.352 216.18C263.836 215.195 264.531 214.434 265.438 213.895C266.352 213.355 267.41 213.086 268.613 213.086C270.324 213.086 271.719 213.609 272.797 214.656C273.883 215.703 274.488 217.125 274.613 218.922L274.637 219.789C274.637 221.734 274.094 223.297 273.008 224.477C271.922 225.648 270.465 226.234 268.637 226.234C266.809 226.234 265.348 225.648 264.254 224.477C263.168 223.305 262.625 221.711 262.625 219.695V219.543ZM266.012 219.789C266.012 220.992 266.238 221.914 266.691 222.555C267.145 223.187 267.793 223.504 268.637 223.504C269.457 223.504 270.098 223.191 270.559 222.566C271.02 221.934 271.25 220.926 271.25 219.543C271.25 218.363 271.02 217.449 270.559 216.801C270.098 216.152 269.449 215.828 268.613 215.828C267.785 215.828 267.145 216.152 266.691 216.801C266.238 217.441 266.012 218.437 266.012 219.789ZM279.898 213.32L280.004 214.738C280.902 213.637 282.117 213.086 283.648 213.086C285.281 213.086 286.402 213.73 287.012 215.019C287.902 213.73 289.172 213.086 290.82 213.086C292.195 213.086 293.219 213.488 293.891 214.293C294.562 215.09 294.898 216.293 294.898 217.902V226H291.5V217.914C291.5 217.195 291.359 216.672 291.078 216.344C290.797 216.008 290.301 215.84 289.59 215.84C288.574 215.84 287.871 216.324 287.48 217.293L287.492 226H284.105V217.926C284.105 217.191 283.961 216.66 283.672 216.332C283.383 216.004 282.891 215.84 282.195 215.84C281.234 215.84 280.539 216.238 280.109 217.035V226H276.723V213.32H279.898ZM308.926 219.777C308.926 221.73 308.48 223.297 307.59 224.477C306.707 225.648 305.512 226.234 304.004 226.234C302.723 226.234 301.688 225.789 300.898 224.898V230.875H297.512V213.32H300.652L300.77 214.562C301.59 213.578 302.66 213.086 303.98 213.086C305.543 213.086 306.758 213.664 307.625 214.82C308.492 215.977 308.926 217.57 308.926 219.602V219.777ZM305.539 219.531C305.539 218.352 305.328 217.441 304.906 216.801C304.492 216.16 303.887 215.84 303.09 215.84C302.027 215.84 301.297 216.246 300.898 217.059V222.25C301.312 223.086 302.051 223.504 303.113 223.504C304.73 223.504 305.539 222.18 305.539 219.531ZM318.629 224.711C317.793 225.727 316.637 226.234 315.16 226.234C313.801 226.234 312.762 225.844 312.043 225.062C311.332 224.281 310.969 223.137 310.953 221.629V213.32H314.34V221.512C314.34 222.832 314.941 223.492 316.145 223.492C317.293 223.492 318.082 223.094 318.512 222.297V213.32H321.91V226H318.723L318.629 224.711ZM328.52 210.203V213.32H330.688V215.805H328.52V222.133C328.52 222.602 328.609 222.937 328.789 223.141C328.969 223.344 329.312 223.445 329.82 223.445C330.195 223.445 330.527 223.418 330.816 223.363V225.93C330.152 226.133 329.469 226.234 328.766 226.234C326.391 226.234 325.18 225.035 325.133 222.637V215.805H323.281V213.32H325.133V210.203H328.52ZM338.41 226.234C336.551 226.234 335.035 225.664 333.863 224.523C332.699 223.383 332.117 221.863 332.117 219.965V219.637C332.117 218.363 332.363 217.227 332.855 216.227C333.348 215.219 334.043 214.445 334.941 213.906C335.848 213.359 336.879 213.086 338.035 213.086C339.77 213.086 341.133 213.633 342.125 214.727C343.125 215.82 343.625 217.371 343.625 219.379V220.762H335.551C335.66 221.59 335.988 222.254 336.535 222.754C337.09 223.254 337.789 223.504 338.633 223.504C339.938 223.504 340.957 223.031 341.691 222.086L343.355 223.949C342.848 224.668 342.16 225.23 341.293 225.637C340.426 226.035 339.465 226.234 338.41 226.234ZM338.023 215.828C337.352 215.828 336.805 216.055 336.383 216.508C335.969 216.961 335.703 217.609 335.586 218.453H340.297V218.184C340.281 217.434 340.078 216.855 339.688 216.449C339.297 216.035 338.742 215.828 338.023 215.828ZM352.684 216.496C352.223 216.434 351.816 216.402 351.465 216.402C350.184 216.402 349.344 216.836 348.945 217.703V226H345.559V213.32H348.758L348.852 214.832C349.531 213.668 350.473 213.086 351.676 213.086C352.051 213.086 352.402 213.137 352.73 213.238L352.684 216.496ZM363.477 213.32L363.582 214.738C364.48 213.637 365.695 213.086 367.227 213.086C368.859 213.086 369.98 213.73 370.59 215.019C371.48 213.73 372.75 213.086 374.398 213.086C375.773 213.086 376.797 213.488 377.469 214.293C378.141 215.09 378.477 216.293 378.477 217.902V226H375.078V217.914C375.078 217.195 374.938 216.672 374.656 216.344C374.375 216.008 373.879 215.84 373.168 215.84C372.152 215.84 371.449 216.324 371.059 217.293L371.07 226H367.684V217.926C367.684 217.191 367.539 216.66 367.25 216.332C366.961 216.004 366.469 215.84 365.773 215.84C364.812 215.84 364.117 216.238 363.688 217.035V226H360.301V213.32H363.477ZM386.926 226.234C385.066 226.234 383.551 225.664 382.379 224.523C381.215 223.383 380.633 221.863 380.633 219.965V219.637C380.633 218.363 380.879 217.227 381.371 216.227C381.863 215.219 382.559 214.445 383.457 213.906C384.363 213.359 385.395 213.086 386.551 213.086C388.285 213.086 389.648 213.633 390.641 214.727C391.641 215.82 392.141 217.371 392.141 219.379V220.762H384.066C384.176 221.59 384.504 222.254 385.051 222.754C385.605 223.254 386.305 223.504 387.148 223.504C388.453 223.504 389.473 223.031 390.207 222.086L391.871 223.949C391.363 224.668 390.676 225.23 389.809 225.637C388.941 226.035 387.98 226.234 386.926 226.234ZM386.539 215.828C385.867 215.828 385.32 216.055 384.898 216.508C384.484 216.961 384.219 217.609 384.102 218.453H388.812V218.184C388.797 217.434 388.594 216.855 388.203 216.449C387.812 216.035 387.258 215.828 386.539 215.828ZM397.25 213.32L397.355 214.738C398.254 213.637 399.469 213.086 401 213.086C402.633 213.086 403.754 213.73 404.363 215.019C405.254 213.73 406.523 213.086 408.172 213.086C409.547 213.086 410.57 213.488 411.242 214.293C411.914 215.09 412.25 216.293 412.25 217.902V226H408.852V217.914C408.852 217.195 408.711 216.672 408.43 216.344C408.148 216.008 407.652 215.84 406.941 215.84C405.926 215.84 405.223 216.324 404.832 217.293L404.844 226H401.457V217.926C401.457 217.191 401.312 216.66 401.023 216.332C400.734 216.004 400.242 215.84 399.547 215.84C398.586 215.84 397.891 216.238 397.461 217.035V226H394.074V213.32H397.25ZM414.336 219.543C414.336 218.285 414.578 217.164 415.062 216.18C415.547 215.195 416.242 214.434 417.148 213.895C418.062 213.355 419.121 213.086 420.324 213.086C422.035 213.086 423.43 213.609 424.508 214.656C425.594 215.703 426.199 217.125 426.324 218.922L426.348 219.789C426.348 221.734 425.805 223.297 424.719 224.477C423.633 225.648 422.176 226.234 420.348 226.234C418.52 226.234 417.059 225.648 415.965 224.477C414.879 223.305 414.336 221.711 414.336 219.695V219.543ZM417.723 219.789C417.723 220.992 417.949 221.914 418.402 222.555C418.855 223.187 419.504 223.504 420.348 223.504C421.168 223.504 421.809 223.191 422.27 222.566C422.73 221.934 422.961 220.926 422.961 219.543C422.961 218.363 422.73 217.449 422.27 216.801C421.809 216.152 421.16 215.828 420.324 215.828C419.496 215.828 418.855 216.152 418.402 216.801C417.949 217.441 417.723 218.437 417.723 219.789ZM435.559 216.496C435.098 216.434 434.691 216.402 434.34 216.402C433.059 216.402 432.219 216.836 431.82 217.703V226H428.434V213.32H431.633L431.727 214.832C432.406 213.668 433.348 213.086 434.551 213.086C434.926 213.086 435.277 213.137 435.605 213.238L435.559 216.496ZM442.145 221.207L444.488 213.32H448.121L443.023 227.969L442.742 228.637C441.984 230.293 440.734 231.121 438.992 231.121C438.5 231.121 438 231.047 437.492 230.898V228.332L438.008 228.344C438.648 228.344 439.125 228.246 439.438 228.051C439.758 227.855 440.008 227.531 440.188 227.078L440.586 226.035L436.145 213.32H439.789L442.145 221.207Z" fill="black"/>
<path d="M318.112 106.461C318.367 106.951 318.971 107.142 319.461 106.887L327.446 102.735C327.936 102.48 328.126 101.876 327.872 101.386C327.617 100.896 327.013 100.706 326.523 100.961L319.425 104.651L315.735 97.5535C315.48 97.0635 314.876 96.8728 314.386 97.1277C313.896 97.3824 313.705 97.9862 313.96 98.4762L318.112 106.461ZM342.046 29.6989L318.046 105.699L319.953 106.301L343.954 30.3011L342.046 29.6989Z" fill="#009E73"/>
<path d="M367.456 146.839C367.92 147.14 368.539 147.007 368.839 146.544L373.733 138.99C374.033 138.527 373.901 137.908 373.437 137.607C372.974 137.308 372.355 137.44 372.054 137.903L367.704 144.617L360.99 140.267C360.527 139.967 359.908 140.1 359.607 140.563C359.307 141.026 359.439 141.646 359.903 141.945L367.456 146.839ZM342.022 29.209L367.022 146.209L368.978 145.791L343.978 28.791L342.022 29.209Z" fill="#009E73"/>
<path d="M466.23 106.973C466.767 106.846 467.1 106.307 466.974 105.77L464.905 97.0111C464.777 96.4734 464.239 96.1407 463.702 96.2679C463.164 96.3946 462.831 96.9332 462.959 97.471L464.797 105.256L457.012 107.096C456.474 107.222 456.141 107.761 456.268 108.299C456.395 108.836 456.933 109.169 457.471 109.042L466.23 106.973ZM342.474 30.8507L465.475 106.851L466.526 105.149L343.526 29.1493L342.474 30.8507Z" fill="#009E73"/>
<path d="M287.914 18.0156C287.914 17.5729 287.758 17.2344 287.445 17C287.133 16.7604 286.57 16.5104 285.758 16.25C284.945 15.9844 284.302 15.724 283.828 15.4688C282.536 14.7708 281.891 13.8307 281.891 12.6484C281.891 12.0338 282.063 11.487 282.406 11.0078C282.755 10.5234 283.253 10.1458 283.898 9.875C284.549 9.60417 285.279 9.46875 286.086 9.46875C286.898 9.46875 287.622 9.61719 288.258 9.91406C288.893 10.2057 289.385 10.6198 289.734 11.1562C290.089 11.6927 290.266 12.3021 290.266 12.9844H287.922C287.922 12.4635 287.758 12.0599 287.43 11.7734C287.102 11.4818 286.641 11.3359 286.047 11.3359C285.474 11.3359 285.029 11.4583 284.711 11.7031C284.393 11.9427 284.234 12.2604 284.234 12.6562C284.234 13.026 284.419 13.3359 284.789 13.5859C285.164 13.8359 285.714 14.0703 286.438 14.2891C287.771 14.6901 288.742 15.1875 289.352 15.7812C289.961 16.375 290.266 17.1146 290.266 18C290.266 18.9844 289.893 19.7578 289.148 20.3203C288.404 20.8776 287.401 21.1562 286.141 21.1562C285.266 21.1562 284.469 20.9974 283.75 20.6797C283.031 20.3568 282.482 19.9167 282.102 19.3594C281.727 18.8021 281.539 18.1562 281.539 17.4219H283.891C283.891 18.6771 284.641 19.3047 286.141 19.3047C286.698 19.3047 287.133 19.1927 287.445 18.9688C287.758 18.7396 287.914 18.4219 287.914 18.0156ZM294.414 10.4688V12.5469H295.859V14.2031H294.414V18.4219C294.414 18.7344 294.474 18.9583 294.594 19.0938C294.713 19.2292 294.943 19.2969 295.281 19.2969C295.531 19.2969 295.753 19.2786 295.945 19.2422V20.9531C295.503 21.0885 295.047 21.1562 294.578 21.1562C292.995 21.1562 292.188 20.3568 292.156 18.7578V14.2031H290.922V12.5469H292.156V10.4688H294.414ZM296.531 16.6953C296.531 15.8568 296.693 15.1094 297.016 14.4531C297.339 13.7969 297.802 13.2891 298.406 12.9297C299.016 12.5703 299.721 12.3906 300.523 12.3906C301.664 12.3906 302.594 12.7396 303.312 13.4375C304.036 14.1354 304.44 15.0833 304.523 16.2812L304.539 16.8594C304.539 18.1562 304.177 19.1979 303.453 19.9844C302.729 20.7656 301.758 21.1562 300.539 21.1562C299.32 21.1562 298.346 20.7656 297.617 19.9844C296.893 19.2031 296.531 18.1406 296.531 16.7969V16.6953ZM298.789 16.8594C298.789 17.6615 298.94 18.276 299.242 18.7031C299.544 19.125 299.977 19.3359 300.539 19.3359C301.086 19.3359 301.513 19.1276 301.82 18.7109C302.128 18.2891 302.281 17.6172 302.281 16.6953C302.281 15.9089 302.128 15.2995 301.82 14.8672C301.513 14.4349 301.081 14.2188 300.523 14.2188C299.971 14.2188 299.544 14.4349 299.242 14.8672C298.94 15.2943 298.789 15.9583 298.789 16.8594ZM310.68 14.6641C310.372 14.6224 310.102 14.6016 309.867 14.6016C309.013 14.6016 308.453 14.8906 308.188 15.4688V21H305.93V12.5469H308.062L308.125 13.5547C308.578 12.7786 309.206 12.3906 310.008 12.3906C310.258 12.3906 310.492 12.4245 310.711 12.4922L310.68 14.6641ZM316.438 21C316.333 20.7969 316.258 20.5443 316.211 20.2422C315.664 20.8516 314.953 21.1562 314.078 21.1562C313.25 21.1562 312.563 20.9167 312.016 20.4375C311.474 19.9583 311.203 19.3542 311.203 18.625C311.203 17.7292 311.534 17.0417 312.195 16.5625C312.862 16.0833 313.823 15.8412 315.078 15.8359H316.117V15.3516C316.117 14.9609 316.016 14.6484 315.812 14.4141C315.615 14.1797 315.299 14.0625 314.867 14.0625C314.487 14.0625 314.187 14.1537 313.969 14.3359C313.755 14.5182 313.648 14.7682 313.648 15.0859H311.391C311.391 14.5964 311.542 14.1432 311.844 13.7266C312.146 13.3099 312.573 12.9844 313.125 12.75C313.677 12.5104 314.297 12.3906 314.984 12.3906C316.026 12.3906 316.852 12.6536 317.461 13.1797C318.075 13.7005 318.383 14.4349 318.383 15.3828V19.0469C318.388 19.849 318.5 20.4557 318.719 20.8672V21H316.438ZM314.57 19.4297C314.904 19.4297 315.211 19.3568 315.492 19.2109C315.773 19.0599 315.982 18.8594 316.117 18.6094V17.1562H315.273C314.143 17.1562 313.542 17.5469 313.469 18.3281L313.461 18.4609C313.461 18.7422 313.56 18.974 313.758 19.1562C313.956 19.3385 314.227 19.4297 314.57 19.4297ZM319.789 16.7109C319.789 15.4141 320.096 14.3698 320.711 13.5781C321.331 12.7865 322.164 12.3906 323.211 12.3906C324.138 12.3906 324.859 12.7083 325.375 13.3438L325.469 12.5469H327.516V20.7188C327.516 21.4583 327.346 22.1016 327.008 22.6484C326.675 23.1953 326.203 23.612 325.594 23.8984C324.984 24.1849 324.271 24.3281 323.453 24.3281C322.833 24.3281 322.229 24.2031 321.641 23.9531C321.052 23.7083 320.607 23.3906 320.305 23L321.305 21.625C321.867 22.2552 322.55 22.5703 323.352 22.5703C323.951 22.5703 324.417 22.4089 324.75 22.0859C325.083 21.7682 325.25 21.3151 325.25 20.7266V20.2734C324.729 20.862 324.044 21.1562 323.195 21.1562C322.18 21.1562 321.357 20.7604 320.727 19.9688C320.102 19.1719 319.789 18.1172 319.789 16.8047V16.7109ZM322.047 16.875C322.047 17.6406 322.201 18.2422 322.508 18.6797C322.815 19.112 323.237 19.3281 323.773 19.3281C324.461 19.3281 324.953 19.0703 325.25 18.5547V15C324.948 14.4844 324.461 14.2266 323.789 14.2266C323.247 14.2266 322.82 14.4479 322.508 14.8906C322.201 15.3333 322.047 15.9948 322.047 16.875ZM333.148 21.1562C331.909 21.1562 330.898 20.776 330.117 20.0156C329.341 19.2552 328.953 18.2422 328.953 16.9766V16.7578C328.953 15.9089 329.117 15.151 329.445 14.4844C329.773 13.8125 330.237 13.2969 330.836 12.9375C331.44 12.5729 332.128 12.3906 332.898 12.3906C334.055 12.3906 334.964 12.7552 335.625 13.4844C336.292 14.2135 336.625 15.2474 336.625 16.5859V17.5078H331.242C331.315 18.0599 331.534 18.5026 331.898 18.8359C332.268 19.1693 332.734 19.3359 333.297 19.3359C334.167 19.3359 334.846 19.0208 335.336 18.3906L336.445 19.6328C336.107 20.112 335.648 20.487 335.07 20.7578C334.492 21.0234 333.852 21.1562 333.148 21.1562ZM332.891 14.2188C332.443 14.2188 332.078 14.3698 331.797 14.6719C331.521 14.974 331.344 15.4062 331.266 15.9688H334.406V15.7891C334.396 15.2891 334.26 14.9036 334 14.6328C333.74 14.3568 333.37 14.2188 332.891 14.2188ZM344.281 21H342.016V9H344.281V21ZM345.797 16.6953C345.797 15.8568 345.958 15.1094 346.281 14.4531C346.604 13.7969 347.068 13.2891 347.672 12.9297C348.281 12.5703 348.987 12.3906 349.789 12.3906C350.93 12.3906 351.859 12.7396 352.578 13.4375C353.302 14.1354 353.706 15.0833 353.789 16.2812L353.805 16.8594C353.805 18.1562 353.443 19.1979 352.719 19.9844C351.995 20.7656 351.023 21.1562 349.805 21.1562C348.586 21.1562 347.612 20.7656 346.883 19.9844C346.159 19.2031 345.797 18.1406 345.797 16.7969V16.6953ZM348.055 16.8594C348.055 17.6615 348.206 18.276 348.508 18.7031C348.81 19.125 349.242 19.3359 349.805 19.3359C350.352 19.3359 350.779 19.1276 351.086 18.7109C351.393 18.2891 351.547 17.6172 351.547 16.6953C351.547 15.9089 351.393 15.2995 351.086 14.8672C350.779 14.4349 350.346 14.2188 349.789 14.2188C349.237 14.2188 348.81 14.4349 348.508 14.8672C348.206 15.2943 348.055 15.9583 348.055 16.8594ZM358.711 19.3359C359.128 19.3359 359.466 19.2214 359.727 18.9922C359.987 18.763 360.122 18.4583 360.133 18.0781H362.25C362.245 18.651 362.088 19.1771 361.781 19.6562C361.474 20.1302 361.052 20.5 360.516 20.7656C359.984 21.026 359.396 21.1562 358.75 21.1562C357.542 21.1562 356.589 20.7734 355.891 20.0078C355.193 19.237 354.844 18.1745 354.844 16.8203V16.6719C354.844 15.3698 355.19 14.3307 355.883 13.5547C356.575 12.7786 357.526 12.3906 358.734 12.3906C359.792 12.3906 360.638 12.6927 361.273 13.2969C361.914 13.8958 362.24 14.6953 362.25 15.6953H360.133C360.122 15.2578 359.987 14.9036 359.727 14.6328C359.466 14.3568 359.122 14.2188 358.695 14.2188C358.169 14.2188 357.771 14.4115 357.5 14.7969C357.234 15.1771 357.102 15.7969 357.102 16.6562V16.8906C357.102 17.7604 357.234 18.3854 357.5 18.7656C357.766 19.1458 358.169 19.3359 358.711 19.3359ZM368.438 21C368.333 20.7969 368.258 20.5443 368.211 20.2422C367.664 20.8516 366.953 21.1562 366.078 21.1562C365.25 21.1562 364.563 20.9167 364.016 20.4375C363.474 19.9583 363.203 19.3542 363.203 18.625C363.203 17.7292 363.534 17.0417 364.195 16.5625C364.862 16.0833 365.823 15.8412 367.078 15.8359H368.117V15.3516C368.117 14.9609 368.016 14.6484 367.812 14.4141C367.615 14.1797 367.3 14.0625 366.867 14.0625C366.487 14.0625 366.188 14.1537 365.969 14.3359C365.755 14.5182 365.648 14.7682 365.648 15.0859H363.391C363.391 14.5964 363.542 14.1432 363.844 13.7266C364.146 13.3099 364.573 12.9844 365.125 12.75C365.677 12.5104 366.297 12.3906 366.984 12.3906C368.026 12.3906 368.852 12.6536 369.461 13.1797C370.075 13.7005 370.383 14.4349 370.383 15.3828V19.0469C370.388 19.849 370.5 20.4557 370.719 20.8672V21H368.438ZM366.57 19.4297C366.904 19.4297 367.211 19.3568 367.492 19.2109C367.773 19.0599 367.982 18.8594 368.117 18.6094V17.1562H367.273C366.143 17.1562 365.542 17.5469 365.469 18.3281L365.461 18.4609C365.461 18.7422 365.56 18.974 365.758 19.1562C365.956 19.3385 366.227 19.4297 366.57 19.4297ZM374.82 10.4688V12.5469H376.266V14.2031H374.82V18.4219C374.82 18.7344 374.88 18.9583 375 19.0938C375.12 19.2292 375.349 19.2969 375.688 19.2969C375.938 19.2969 376.159 19.2786 376.352 19.2422V20.9531C375.909 21.0885 375.453 21.1562 374.984 21.1562C373.401 21.1562 372.594 20.3568 372.562 18.7578V14.2031H371.328V12.5469H372.562V10.4688H374.82ZM379.906 21H377.641V12.5469H379.906V21ZM377.508 10.3594C377.508 10.0208 377.62 9.74219 377.844 9.52344C378.073 9.30469 378.383 9.19531 378.773 9.19531C379.159 9.19531 379.466 9.30469 379.695 9.52344C379.924 9.74219 380.039 10.0208 380.039 10.3594C380.039 10.7031 379.922 10.9844 379.688 11.2031C379.458 11.4219 379.154 11.5312 378.773 11.5312C378.393 11.5312 378.086 11.4219 377.852 11.2031C377.622 10.9844 377.508 10.7031 377.508 10.3594ZM381.422 16.6953C381.422 15.8568 381.583 15.1094 381.906 14.4531C382.229 13.7969 382.693 13.2891 383.297 12.9297C383.906 12.5703 384.612 12.3906 385.414 12.3906C386.555 12.3906 387.484 12.7396 388.203 13.4375C388.927 14.1354 389.331 15.0833 389.414 16.2812L389.43 16.8594C389.43 18.1562 389.068 19.1979 388.344 19.9844C387.62 20.7656 386.648 21.1562 385.43 21.1562C384.211 21.1562 383.237 20.7656 382.508 19.9844C381.784 19.2031 381.422 18.1406 381.422 16.7969V16.6953ZM383.68 16.8594C383.68 17.6615 383.831 18.276 384.133 18.7031C384.435 19.125 384.867 19.3359 385.43 19.3359C385.977 19.3359 386.404 19.1276 386.711 18.7109C387.018 18.2891 387.172 17.6172 387.172 16.6953C387.172 15.9089 387.018 15.2995 386.711 14.8672C386.404 14.4349 385.971 14.2188 385.414 14.2188C384.862 14.2188 384.435 14.4349 384.133 14.8672C383.831 15.2943 383.68 15.9583 383.68 16.8594ZM392.898 12.5469L392.969 13.5234C393.573 12.7682 394.383 12.3906 395.398 12.3906C396.294 12.3906 396.961 12.6536 397.398 13.1797C397.836 13.7057 398.06 14.4922 398.07 15.5391V21H395.812V15.5938C395.812 15.1146 395.708 14.7682 395.5 14.5547C395.292 14.3359 394.945 14.2266 394.461 14.2266C393.826 14.2266 393.349 14.4974 393.031 15.0391V21H390.773V12.5469H392.898ZM404.367 18.6641C404.367 18.388 404.229 18.1719 403.953 18.0156C403.682 17.8542 403.245 17.7109 402.641 17.5859C400.63 17.1641 399.625 16.3099 399.625 15.0234C399.625 14.2734 399.935 13.6484 400.555 13.1484C401.18 12.6432 401.995 12.3906 403 12.3906C404.073 12.3906 404.93 12.6432 405.57 13.1484C406.216 13.6536 406.539 14.3099 406.539 15.1172H404.281C404.281 14.7943 404.177 14.5286 403.969 14.3203C403.76 14.1068 403.435 14 402.992 14C402.612 14 402.318 14.0859 402.109 14.2578C401.901 14.4297 401.797 14.6484 401.797 14.9141C401.797 15.1641 401.914 15.3672 402.148 15.5234C402.388 15.6745 402.789 15.8073 403.352 15.9219C403.914 16.0312 404.388 16.1562 404.773 16.2969C405.966 16.7344 406.562 17.4922 406.562 18.5703C406.562 19.3411 406.232 19.9661 405.57 20.4453C404.909 20.9193 404.055 21.1562 403.008 21.1562C402.299 21.1562 401.669 21.0312 401.117 20.7812C400.57 20.526 400.141 20.1797 399.828 19.7422C399.516 19.2995 399.359 18.8229 399.359 18.3125H401.5C401.521 18.7135 401.669 19.0208 401.945 19.2344C402.221 19.4479 402.591 19.5547 403.055 19.5547C403.487 19.5547 403.812 19.474 404.031 19.3125C404.255 19.1458 404.367 18.9297 404.367 18.6641Z" fill="#009E73"/>
<path d="M11.915 108.456C11.6462 108.42 11.4092 108.401 11.2041 108.401C10.4567 108.401 9.9668 108.654 9.73438 109.16V114H7.75879V106.604H9.625L9.67969 107.485C10.0762 106.806 10.6253 106.467 11.3271 106.467C11.5459 106.467 11.751 106.496 11.9424 106.556L11.915 108.456ZM16.1397 114.137C15.055 114.137 14.1709 113.804 13.4873 113.139C12.8083 112.473 12.4688 111.587 12.4688 110.479V110.288C12.4688 109.545 12.6123 108.882 12.8994 108.299C13.1865 107.711 13.5921 107.26 14.1162 106.945C14.6449 106.626 15.2464 106.467 15.9209 106.467C16.9326 106.467 17.7279 106.786 18.3066 107.424C18.89 108.062 19.1816 108.966 19.1816 110.138V110.944H14.4717C14.5355 111.427 14.7269 111.815 15.0459 112.106C15.3695 112.398 15.7773 112.544 16.2695 112.544C17.0306 112.544 17.6253 112.268 18.0537 111.717L19.0244 112.804C18.7282 113.223 18.3271 113.551 17.8213 113.788C17.3154 114.021 16.7549 114.137 16.1397 114.137ZM15.9141 108.066C15.5221 108.066 15.2031 108.199 14.957 108.463C14.7155 108.727 14.5605 109.105 14.4922 109.598H17.2402V109.44C17.2311 109.003 17.1126 108.666 16.8848 108.429C16.6569 108.187 16.3333 108.066 15.9141 108.066ZM24.3154 111.956C24.3154 111.715 24.1947 111.525 23.9531 111.389C23.7161 111.247 23.3333 111.122 22.8047 111.013C21.0456 110.644 20.166 109.896 20.166 108.771C20.166 108.114 20.4372 107.567 20.9795 107.13C21.5264 106.688 22.2396 106.467 23.1191 106.467C24.0579 106.467 24.8076 106.688 25.3682 107.13C25.9333 107.572 26.2158 108.146 26.2158 108.853H24.2402C24.2402 108.57 24.1491 108.338 23.9668 108.155C23.7845 107.968 23.4997 107.875 23.1123 107.875C22.7796 107.875 22.5221 107.95 22.3398 108.101C22.1576 108.251 22.0664 108.442 22.0664 108.675C22.0664 108.894 22.1689 109.071 22.374 109.208C22.5837 109.34 22.9346 109.456 23.4268 109.557C23.9189 109.652 24.3337 109.762 24.6709 109.885C25.7145 110.268 26.2363 110.931 26.2363 111.874C26.2363 112.548 25.9469 113.095 25.3682 113.515C24.7894 113.929 24.042 114.137 23.126 114.137C22.5062 114.137 21.9548 114.027 21.4717 113.809C20.9932 113.585 20.6172 113.282 20.3438 112.899C20.0703 112.512 19.9336 112.095 19.9336 111.648H21.8066C21.8249 111.999 21.9548 112.268 22.1963 112.455C22.4378 112.642 22.7614 112.735 23.167 112.735C23.5452 112.735 23.8301 112.665 24.0215 112.523C24.2174 112.378 24.3154 112.189 24.3154 111.956ZM31.9443 113.248C31.4567 113.841 30.7822 114.137 29.9209 114.137C29.1279 114.137 28.5218 113.909 28.1025 113.453C27.6878 112.997 27.4759 112.33 27.4668 111.45V106.604H29.4424V111.382C29.4424 112.152 29.7933 112.537 30.4951 112.537C31.165 112.537 31.6253 112.305 31.876 111.84V106.604H33.8584V114H31.999L31.9443 113.248ZM37.4336 114H35.4512V103.5H37.4336V114ZM41.4326 104.785V106.604H42.6973V108.053H41.4326V111.744C41.4326 112.018 41.485 112.213 41.5898 112.332C41.6947 112.45 41.8952 112.51 42.1914 112.51C42.4102 112.51 42.6038 112.494 42.7725 112.462V113.959C42.3851 114.077 41.9863 114.137 41.5762 114.137C40.1908 114.137 39.4844 113.437 39.457 112.038V108.053H38.377V106.604H39.457V104.785H41.4326Z" fill="#C74E4E"/>
<path d="M43.0774 79.0286C43.0978 79.5805 43.5618 80.0113 44.1137 79.9909L53.1075 79.6578C53.6594 79.6373 54.0902 79.1734 54.0698 78.6215C54.0494 78.0696 53.5854 77.6387 53.0335 77.6592L45.039 77.9553L44.7429 69.9608C44.7225 69.4088 44.2585 68.978 43.7065 68.9985C43.1546 69.0189 42.7239 69.4828 42.7442 70.0348L43.0774 79.0286ZM75.6112 43.1308L43.3439 78.3111L44.8095 79.672L77.0767 44.4917L75.6112 43.1308Z" fill="black"/>
<path d="M95.0469 17.9297L96.1562 12.5469H98.3359L96.1797 21H94.2891L92.6875 15.6797L91.0859 21H89.2031L87.0469 12.5469H89.2266L90.3281 17.9219L91.875 12.5469H93.5078L95.0469 17.9297ZM104.359 21C104.255 20.7969 104.18 20.5443 104.133 20.2422C103.586 20.8516 102.875 21.1562 102 21.1562C101.172 21.1562 100.484 20.9167 99.9375 20.4375C99.3958 19.9583 99.125 19.3542 99.125 18.625C99.125 17.7292 99.4557 17.0417 100.117 16.5625C100.784 16.0833 101.745 15.8412 103 15.8359H104.039V15.3516C104.039 14.9609 103.938 14.6484 103.734 14.4141C103.537 14.1797 103.221 14.0625 102.789 14.0625C102.409 14.0625 102.109 14.1537 101.891 14.3359C101.677 14.5182 101.57 14.7682 101.57 15.0859H99.3125C99.3125 14.5964 99.4635 14.1432 99.7656 13.7266C100.068 13.3099 100.495 12.9844 101.047 12.75C101.599 12.5104 102.219 12.3906 102.906 12.3906C103.948 12.3906 104.773 12.6536 105.383 13.1797C105.997 13.7005 106.305 14.4349 106.305 15.3828V19.0469C106.31 19.849 106.422 20.4557 106.641 20.8672V21H104.359ZM102.492 19.4297C102.826 19.4297 103.133 19.3568 103.414 19.2109C103.695 19.0599 103.904 18.8594 104.039 18.6094V17.1562H103.195C102.065 17.1562 101.464 17.5469 101.391 18.3281L101.383 18.4609C101.383 18.7422 101.482 18.974 101.68 19.1562C101.878 19.3385 102.148 19.4297 102.492 19.4297ZM112.617 18.6641C112.617 18.388 112.479 18.1719 112.203 18.0156C111.932 17.8542 111.495 17.7109 110.891 17.5859C108.88 17.1641 107.875 16.3099 107.875 15.0234C107.875 14.2734 108.185 13.6484 108.805 13.1484C109.43 12.6432 110.245 12.3906 111.25 12.3906C112.323 12.3906 113.18 12.6432 113.82 13.1484C114.466 13.6536 114.789 14.3099 114.789 15.1172H112.531C112.531 14.7943 112.427 14.5286 112.219 14.3203C112.01 14.1068 111.685 14 111.242 14C110.862 14 110.568 14.0859 110.359 14.2578C110.151 14.4297 110.047 14.6484 110.047 14.9141C110.047 15.1641 110.164 15.3672 110.398 15.5234C110.638 15.6745 111.039 15.8073 111.602 15.9219C112.164 16.0312 112.638 16.1562 113.023 16.2969C114.216 16.7344 114.813 17.4922 114.813 18.5703C114.813 19.3411 114.482 19.9661 113.82 20.4453C113.159 20.9193 112.305 21.1562 111.258 21.1562C110.55 21.1562 109.919 21.0312 109.367 20.7812C108.82 20.526 108.391 20.1797 108.078 19.7422C107.766 19.2995 107.609 18.8229 107.609 18.3125H109.75C109.771 18.7135 109.919 19.0208 110.195 19.2344C110.471 19.4479 110.841 19.5547 111.305 19.5547C111.737 19.5547 112.063 19.474 112.281 19.3125C112.505 19.1458 112.617 18.9297 112.617 18.6641ZM124.836 18.6641C124.836 18.388 124.698 18.1719 124.422 18.0156C124.151 17.8542 123.714 17.7109 123.109 17.5859C121.099 17.1641 120.094 16.3099 120.094 15.0234C120.094 14.2734 120.404 13.6484 121.023 13.1484C121.648 12.6432 122.464 12.3906 123.469 12.3906C124.542 12.3906 125.398 12.6432 126.039 13.1484C126.685 13.6536 127.008 14.3099 127.008 15.1172H124.75C124.75 14.7943 124.646 14.5286 124.438 14.3203C124.229 14.1068 123.904 14 123.461 14C123.081 14 122.787 14.0859 122.578 14.2578C122.37 14.4297 122.266 14.6484 122.266 14.9141C122.266 15.1641 122.383 15.3672 122.617 15.5234C122.857 15.6745 123.258 15.8073 123.82 15.9219C124.383 16.0312 124.857 16.1562 125.242 16.2969C126.435 16.7344 127.031 17.4922 127.031 18.5703C127.031 19.3411 126.701 19.9661 126.039 20.4453C125.378 20.9193 124.523 21.1562 123.477 21.1562C122.768 21.1562 122.138 21.0312 121.586 20.7812C121.039 20.526 120.609 20.1797 120.297 19.7422C119.984 19.2995 119.828 18.8229 119.828 18.3125H121.969C121.99 18.7135 122.138 19.0208 122.414 19.2344C122.69 19.4479 123.06 19.5547 123.523 19.5547C123.956 19.5547 124.281 19.474 124.5 19.3125C124.724 19.1458 124.836 18.9297 124.836 18.6641ZM133.391 21C133.287 20.7969 133.211 20.5443 133.164 20.2422C132.617 20.8516 131.906 21.1562 131.031 21.1562C130.203 21.1562 129.516 20.9167 128.969 20.4375C128.427 19.9583 128.156 19.3542 128.156 18.625C128.156 17.7292 128.487 17.0417 129.148 16.5625C129.815 16.0833 130.776 15.8412 132.031 15.8359H133.07V15.3516C133.07 14.9609 132.969 14.6484 132.766 14.4141C132.568 14.1797 132.253 14.0625 131.82 14.0625C131.44 14.0625 131.141 14.1537 130.922 14.3359C130.708 14.5182 130.602 14.7682 130.602 15.0859H128.344C128.344 14.5964 128.495 14.1432 128.797 13.7266C129.099 13.3099 129.526 12.9844 130.078 12.75C130.63 12.5104 131.25 12.3906 131.938 12.3906C132.979 12.3906 133.805 12.6536 134.414 13.1797C135.029 13.7005 135.336 14.4349 135.336 15.3828V19.0469C135.341 19.849 135.453 20.4557 135.672 20.8672V21H133.391ZM131.523 19.4297C131.857 19.4297 132.164 19.3568 132.445 19.2109C132.727 19.0599 132.935 18.8594 133.07 18.6094V17.1562H132.227C131.096 17.1562 130.495 17.5469 130.422 18.3281L130.414 18.4609C130.414 18.7422 130.513 18.974 130.711 19.1562C130.909 19.3385 131.18 19.4297 131.523 19.4297ZM140.109 18.2422L141.68 12.5469H144.039L141.188 21H139.031L136.18 12.5469H138.539L140.109 18.2422ZM148.82 21.1562C147.581 21.1562 146.57 20.776 145.789 20.0156C145.013 19.2552 144.625 18.2422 144.625 16.9766V16.7578C144.625 15.9089 144.789 15.151 145.117 14.4844C145.445 13.8125 145.909 13.2969 146.508 12.9375C147.112 12.5729 147.799 12.3906 148.57 12.3906C149.727 12.3906 150.635 12.7552 151.297 13.4844C151.964 14.2135 152.297 15.2474 152.297 16.5859V17.5078H146.914C146.987 18.0599 147.206 18.5026 147.57 18.8359C147.94 19.1693 148.406 19.3359 148.969 19.3359C149.839 19.3359 150.518 19.0208 151.008 18.3906L152.117 19.6328C151.779 20.112 151.32 20.487 150.742 20.7578C150.164 21.0234 149.523 21.1562 148.82 21.1562ZM148.562 14.2188C148.115 14.2188 147.75 14.3698 147.469 14.6719C147.193 14.974 147.016 15.4062 146.938 15.9688H150.078V15.7891C150.068 15.2891 149.932 14.9036 149.672 14.6328C149.412 14.3568 149.042 14.2188 148.562 14.2188ZM153.234 16.7109C153.234 15.3932 153.529 14.3438 154.117 13.5625C154.711 12.7812 155.521 12.3906 156.547 12.3906C157.37 12.3906 158.05 12.6979 158.586 13.3125V9H160.852V21H158.812L158.703 20.1016C158.141 20.8047 157.417 21.1562 156.531 21.1562C155.537 21.1562 154.737 20.7656 154.133 19.9844C153.534 19.1979 153.234 18.1068 153.234 16.7109ZM155.492 16.875C155.492 17.6667 155.63 18.2734 155.906 18.6953C156.182 19.1172 156.583 19.3281 157.109 19.3281C157.807 19.3281 158.3 19.0339 158.586 18.4453V15.1094C158.305 14.5208 157.818 14.2266 157.125 14.2266C156.036 14.2266 155.492 15.1094 155.492 16.875ZM171.484 21C171.38 20.7969 171.305 20.5443 171.258 20.2422C170.711 20.8516 170 21.1562 169.125 21.1562C168.297 21.1562 167.609 20.9167 167.062 20.4375C166.521 19.9583 166.25 19.3542 166.25 18.625C166.25 17.7292 166.581 17.0417 167.242 16.5625C167.909 16.0833 168.87 15.8412 170.125 15.8359H171.164V15.3516C171.164 14.9609 171.062 14.6484 170.859 14.4141C170.661 14.1797 170.346 14.0625 169.914 14.0625C169.534 14.0625 169.234 14.1537 169.016 14.3359C168.802 14.5182 168.695 14.7682 168.695 15.0859H166.438C166.438 14.5964 166.589 14.1432 166.891 13.7266C167.193 13.3099 167.62 12.9844 168.172 12.75C168.724 12.5104 169.344 12.3906 170.031 12.3906C171.073 12.3906 171.898 12.6536 172.508 13.1797C173.122 13.7005 173.43 14.4349 173.43 15.3828V19.0469C173.435 19.849 173.547 20.4557 173.766 20.8672V21H171.484ZM169.617 19.4297C169.951 19.4297 170.258 19.3568 170.539 19.2109C170.82 19.0599 171.029 18.8594 171.164 18.6094V17.1562H170.32C169.19 17.1562 168.589 17.5469 168.516 18.3281L168.508 18.4609C168.508 18.7422 168.607 18.974 168.805 19.1562C169.003 19.3385 169.273 19.4297 169.617 19.4297ZM177.867 10.4688V12.5469H179.312V14.2031H177.867V18.4219C177.867 18.7344 177.927 18.9583 178.047 19.0938C178.167 19.2292 178.396 19.2969 178.734 19.2969C178.984 19.2969 179.206 19.2786 179.398 19.2422V20.9531C178.956 21.0885 178.5 21.1562 178.031 21.1562C176.448 21.1562 175.641 20.3568 175.609 18.7578V14.2031H174.375V12.5469H175.609V10.4688H177.867ZM187.258 10.4688V12.5469H188.703V14.2031H187.258V18.4219C187.258 18.7344 187.318 18.9583 187.438 19.0938C187.557 19.2292 187.786 19.2969 188.125 19.2969C188.375 19.2969 188.596 19.2786 188.789 19.2422V20.9531C188.346 21.0885 187.891 21.1562 187.422 21.1562C185.839 21.1562 185.031 20.3568 185 18.7578V14.2031H183.766V12.5469H185V10.4688H187.258ZM192.164 13.4688C192.763 12.75 193.516 12.3906 194.422 12.3906C196.255 12.3906 197.185 13.4557 197.211 15.5859V21H194.953V15.6484C194.953 15.1641 194.849 14.8073 194.641 14.5781C194.432 14.3438 194.086 14.2266 193.602 14.2266C192.94 14.2266 192.461 14.4818 192.164 14.9922V21H189.906V9H192.164V13.4688ZM201.297 21H199.031V12.5469H201.297V21ZM198.898 10.3594C198.898 10.0208 199.01 9.74219 199.234 9.52344C199.464 9.30469 199.773 9.19531 200.164 9.19531C200.549 9.19531 200.857 9.30469 201.086 9.52344C201.315 9.74219 201.43 10.0208 201.43 10.3594C201.43 10.7031 201.312 10.9844 201.078 11.2031C200.849 11.4219 200.544 11.5312 200.164 11.5312C199.784 11.5312 199.477 11.4219 199.242 11.2031C199.013 10.9844 198.898 10.7031 198.898 10.3594ZM207.742 18.6641C207.742 18.388 207.604 18.1719 207.328 18.0156C207.057 17.8542 206.62 17.7109 206.016 17.5859C204.005 17.1641 203 16.3099 203 15.0234C203 14.2734 203.31 13.6484 203.93 13.1484C204.555 12.6432 205.37 12.3906 206.375 12.3906C207.448 12.3906 208.305 12.6432 208.945 13.1484C209.591 13.6536 209.914 14.3099 209.914 15.1172H207.656C207.656 14.7943 207.552 14.5286 207.344 14.3203C207.135 14.1068 206.81 14 206.367 14C205.987 14 205.693 14.0859 205.484 14.2578C205.276 14.4297 205.172 14.6484 205.172 14.9141C205.172 15.1641 205.289 15.3672 205.523 15.5234C205.763 15.6745 206.164 15.8073 206.727 15.9219C207.289 16.0312 207.763 16.1562 208.148 16.2969C209.341 16.7344 209.938 17.4922 209.938 18.5703C209.938 19.3411 209.607 19.9661 208.945 20.4453C208.284 20.9193 207.43 21.1562 206.383 21.1562C205.674 21.1562 205.044 21.0312 204.492 20.7812C203.945 20.526 203.516 20.1797 203.203 19.7422C202.891 19.2995 202.734 18.8229 202.734 18.3125H204.875C204.896 18.7135 205.044 19.0208 205.32 19.2344C205.596 19.4479 205.966 19.5547 206.43 19.5547C206.862 19.5547 207.188 19.474 207.406 19.3125C207.63 19.1458 207.742 18.9297 207.742 18.6641ZM84.7891 37.6641C84.7891 37.388 84.651 37.1719 84.375 37.0156C84.1042 36.8542 83.6667 36.7109 83.0625 36.5859C81.0521 36.1641 80.0469 35.3099 80.0469 34.0234C80.0469 33.2734 80.3568 32.6484 80.9766 32.1484C81.6016 31.6432 82.4167 31.3906 83.4219 31.3906C84.4948 31.3906 85.3516 31.6432 85.9922 32.1484C86.638 32.6536 86.9609 33.3099 86.9609 34.1172H84.7031C84.7031 33.7943 84.599 33.5286 84.3906 33.3203C84.1823 33.1068 83.8568 33 83.4141 33C83.0339 33 82.7396 33.0859 82.5312 33.2578C82.3229 33.4297 82.2188 33.6484 82.2188 33.9141C82.2188 34.1641 82.3359 34.3672 82.5703 34.5234C82.8099 34.6745 83.2109 34.8073 83.7734 34.9219C84.3359 35.0312 84.8099 35.1562 85.1953 35.2969C86.388 35.7344 86.9844 36.4922 86.9844 37.5703C86.9844 38.3411 86.6536 38.9661 85.9922 39.4453C85.3307 39.9193 84.4766 40.1562 83.4297 40.1562C82.7214 40.1562 82.0911 40.0312 81.5391 39.7812C80.9922 39.526 80.5625 39.1797 80.25 38.7422C79.9375 38.2995 79.7812 37.8229 79.7812 37.3125H81.9219C81.9427 37.7135 82.0911 38.0208 82.3672 38.2344C82.6432 38.4479 83.013 38.5547 83.4766 38.5547C83.9089 38.5547 84.2344 38.474 84.4531 38.3125C84.6771 38.1458 84.7891 37.9297 84.7891 37.6641ZM91.1484 29.4688V31.5469H92.5938V33.2031H91.1484V37.4219C91.1484 37.7344 91.2083 37.9583 91.3281 38.0938C91.4479 38.2292 91.6771 38.2969 92.0156 38.2969C92.2656 38.2969 92.487 38.2786 92.6797 38.2422V39.9531C92.237 40.0885 91.7812 40.1562 91.3125 40.1562C89.7292 40.1562 88.9219 39.3568 88.8906 37.7578V33.2031H87.6562V31.5469H88.8906V29.4688H91.1484ZM93.2656 35.6953C93.2656 34.8568 93.4271 34.1094 93.75 33.4531C94.0729 32.7969 94.5365 32.2891 95.1406 31.9297C95.75 31.5703 96.4557 31.3906 97.2578 31.3906C98.3984 31.3906 99.3281 31.7396 100.047 32.4375C100.771 33.1354 101.175 34.0833 101.258 35.2812L101.273 35.8594C101.273 37.1562 100.912 38.1979 100.188 38.9844C99.4635 39.7656 98.4922 40.1562 97.2734 40.1562C96.0547 40.1562 95.0807 39.7656 94.3516 38.9844C93.6276 38.2031 93.2656 37.1406 93.2656 35.7969V35.6953ZM95.5234 35.8594C95.5234 36.6615 95.6745 37.276 95.9766 37.7031C96.2786 38.125 96.7109 38.3359 97.2734 38.3359C97.8203 38.3359 98.2474 38.1276 98.5547 37.7109C98.862 37.2891 99.0156 36.6172 99.0156 35.6953C99.0156 34.9089 98.862 34.2995 98.5547 33.8672C98.2474 33.4349 97.8151 33.2188 97.2578 33.2188C96.7057 33.2188 96.2786 33.4349 95.9766 33.8672C95.6745 34.2943 95.5234 34.9583 95.5234 35.8594ZM107.414 33.6641C107.107 33.6224 106.836 33.6016 106.602 33.6016C105.747 33.6016 105.188 33.8906 104.922 34.4688V40H102.664V31.5469H104.797L104.859 32.5547C105.313 31.7786 105.94 31.3906 106.742 31.3906C106.992 31.3906 107.227 31.4245 107.445 31.4922L107.414 33.6641ZM113.172 40C113.068 39.7969 112.992 39.5443 112.945 39.2422C112.398 39.8516 111.688 40.1562 110.813 40.1562C109.984 40.1562 109.297 39.9167 108.75 39.4375C108.208 38.9583 107.938 38.3542 107.938 37.625C107.938 36.7292 108.268 36.0417 108.93 35.5625C109.596 35.0833 110.557 34.8411 111.813 34.8359H112.852V34.3516C112.852 33.9609 112.75 33.6484 112.547 33.4141C112.349 33.1797 112.034 33.0625 111.602 33.0625C111.221 33.0625 110.922 33.1536 110.703 33.3359C110.49 33.5182 110.383 33.7682 110.383 34.0859H108.125C108.125 33.5964 108.276 33.1432 108.578 32.7266C108.88 32.3099 109.307 31.9844 109.859 31.75C110.412 31.5104 111.031 31.3906 111.719 31.3906C112.76 31.3906 113.586 31.6536 114.195 32.1797C114.81 32.7005 115.117 33.4349 115.117 34.3828V38.0469C115.122 38.849 115.234 39.4557 115.453 39.8672V40H113.172ZM111.305 38.4297C111.638 38.4297 111.945 38.3568 112.227 38.2109C112.508 38.0599 112.716 37.8594 112.852 37.6094V36.1562H112.008C110.878 36.1562 110.276 36.5469 110.203 37.3281L110.195 37.4609C110.195 37.7422 110.294 37.974 110.492 38.1562C110.69 38.3385 110.961 38.4297 111.305 38.4297ZM116.523 35.7109C116.523 34.4141 116.831 33.3698 117.445 32.5781C118.065 31.7865 118.898 31.3906 119.945 31.3906C120.872 31.3906 121.594 31.7083 122.109 32.3438L122.203 31.5469H124.25V39.7188C124.25 40.4583 124.081 41.1016 123.742 41.6484C123.409 42.1953 122.938 42.612 122.328 42.8984C121.719 43.1849 121.005 43.3281 120.188 43.3281C119.568 43.3281 118.964 43.2031 118.375 42.9531C117.787 42.7083 117.341 42.3906 117.039 42L118.039 40.625C118.602 41.2552 119.284 41.5703 120.086 41.5703C120.685 41.5703 121.151 41.4089 121.484 41.0859C121.818 40.7682 121.984 40.3151 121.984 39.7266V39.2734C121.464 39.862 120.779 40.1562 119.93 40.1562C118.914 40.1562 118.091 39.7604 117.461 38.9688C116.836 38.1719 116.523 37.1172 116.523 35.8047V35.7109ZM118.781 35.875C118.781 36.6406 118.935 37.2422 119.242 37.6797C119.55 38.112 119.971 38.3281 120.508 38.3281C121.195 38.3281 121.688 38.0703 121.984 37.5547V34C121.682 33.4844 121.195 33.2266 120.523 33.2266C119.982 33.2266 119.555 33.4479 119.242 33.8906C118.935 34.3333 118.781 34.9948 118.781 35.875ZM129.883 40.1562C128.643 40.1562 127.633 39.776 126.852 39.0156C126.076 38.2552 125.688 37.2422 125.688 35.9766V35.7578C125.688 34.9089 125.852 34.151 126.18 33.4844C126.508 32.8125 126.971 32.2969 127.57 31.9375C128.175 31.5729 128.862 31.3906 129.633 31.3906C130.789 31.3906 131.698 31.7552 132.359 32.4844C133.026 33.2135 133.359 34.2474 133.359 35.5859V36.5078H127.977C128.05 37.0599 128.268 37.5026 128.633 37.8359C129.003 38.1693 129.469 38.3359 130.031 38.3359C130.901 38.3359 131.581 38.0208 132.07 37.3906L133.18 38.6328C132.841 39.112 132.383 39.487 131.805 39.7578C131.227 40.0234 130.586 40.1562 129.883 40.1562ZM129.625 33.2188C129.177 33.2188 128.813 33.3698 128.531 33.6719C128.255 33.974 128.078 34.4062 128 34.9688H131.141V34.7891C131.13 34.2891 130.995 33.9036 130.734 33.6328C130.474 33.3568 130.104 33.2188 129.625 33.2188ZM141.016 40H138.75V28H141.016V40ZM142.531 35.6953C142.531 34.8568 142.693 34.1094 143.016 33.4531C143.339 32.7969 143.802 32.2891 144.406 31.9297C145.016 31.5703 145.721 31.3906 146.523 31.3906C147.664 31.3906 148.594 31.7396 149.312 32.4375C150.036 33.1354 150.44 34.0833 150.523 35.2812L150.539 35.8594C150.539 37.1562 150.177 38.1979 149.453 38.9844C148.729 39.7656 147.758 40.1562 146.539 40.1562C145.32 40.1562 144.346 39.7656 143.617 38.9844C142.893 38.2031 142.531 37.1406 142.531 35.7969V35.6953ZM144.789 35.8594C144.789 36.6615 144.94 37.276 145.242 37.7031C145.544 38.125 145.977 38.3359 146.539 38.3359C147.086 38.3359 147.513 38.1276 147.82 37.7109C148.128 37.2891 148.281 36.6172 148.281 35.6953C148.281 34.9089 148.128 34.2995 147.82 33.8672C147.513 33.4349 147.081 33.2188 146.523 33.2188C145.971 33.2188 145.544 33.4349 145.242 33.8672C144.94 34.2943 144.789 34.9583 144.789 35.8594ZM155.445 38.3359C155.862 38.3359 156.201 38.2214 156.461 37.9922C156.721 37.763 156.857 37.4583 156.867 37.0781H158.984C158.979 37.651 158.823 38.1771 158.516 38.6562C158.208 39.1302 157.786 39.5 157.25 39.7656C156.719 40.026 156.13 40.1562 155.484 40.1562C154.276 40.1562 153.323 39.7734 152.625 39.0078C151.927 38.237 151.578 37.1745 151.578 35.8203V35.6719C151.578 34.3698 151.925 33.3307 152.617 32.5547C153.31 31.7786 154.26 31.3906 155.469 31.3906C156.526 31.3906 157.372 31.6927 158.008 32.2969C158.648 32.8958 158.974 33.6953 158.984 34.6953H156.867C156.857 34.2578 156.721 33.9036 156.461 33.6328C156.201 33.3568 155.857 33.2188 155.43 33.2188C154.904 33.2188 154.505 33.4115 154.234 33.7969C153.969 34.1771 153.836 34.7969 153.836 35.6562V35.8906C153.836 36.7604 153.969 37.3854 154.234 37.7656C154.5 38.1458 154.904 38.3359 155.445 38.3359ZM165.172 40C165.068 39.7969 164.992 39.5443 164.945 39.2422C164.398 39.8516 163.688 40.1562 162.812 40.1562C161.984 40.1562 161.297 39.9167 160.75 39.4375C160.208 38.9583 159.938 38.3542 159.938 37.625C159.938 36.7292 160.268 36.0417 160.93 35.5625C161.596 35.0833 162.557 34.8411 163.812 34.8359H164.852V34.3516C164.852 33.9609 164.75 33.6484 164.547 33.4141C164.349 33.1797 164.034 33.0625 163.602 33.0625C163.221 33.0625 162.922 33.1536 162.703 33.3359C162.49 33.5182 162.383 33.7682 162.383 34.0859H160.125C160.125 33.5964 160.276 33.1432 160.578 32.7266C160.88 32.3099 161.307 31.9844 161.859 31.75C162.412 31.5104 163.031 31.3906 163.719 31.3906C164.76 31.3906 165.586 31.6536 166.195 32.1797C166.81 32.7005 167.117 33.4349 167.117 34.3828V38.0469C167.122 38.849 167.234 39.4557 167.453 39.8672V40H165.172ZM163.305 38.4297C163.638 38.4297 163.945 38.3568 164.227 38.2109C164.508 38.0599 164.716 37.8594 164.852 37.6094V36.1562H164.008C162.878 36.1562 162.276 36.5469 162.203 37.3281L162.195 37.4609C162.195 37.7422 162.294 37.974 162.492 38.1562C162.69 38.3385 162.961 38.4297 163.305 38.4297ZM171.555 29.4688V31.5469H173V33.2031H171.555V37.4219C171.555 37.7344 171.615 37.9583 171.734 38.0938C171.854 38.2292 172.083 38.2969 172.422 38.2969C172.672 38.2969 172.893 38.2786 173.086 38.2422V39.9531C172.643 40.0885 172.188 40.1562 171.719 40.1562C170.135 40.1562 169.328 39.3568 169.297 37.7578V33.2031H168.062V31.5469H169.297V29.4688H171.555ZM176.641 40H174.375V31.5469H176.641V40ZM174.242 29.3594C174.242 29.0208 174.354 28.7422 174.578 28.5234C174.807 28.3047 175.117 28.1953 175.508 28.1953C175.893 28.1953 176.201 28.3047 176.43 28.5234C176.659 28.7422 176.773 29.0208 176.773 29.3594C176.773 29.7031 176.656 29.9844 176.422 30.2031C176.193 30.4219 175.888 30.5312 175.508 30.5312C175.128 30.5312 174.82 30.4219 174.586 30.2031C174.357 29.9844 174.242 29.7031 174.242 29.3594ZM178.156 35.6953C178.156 34.8568 178.318 34.1094 178.641 33.4531C178.964 32.7969 179.427 32.2891 180.031 31.9297C180.641 31.5703 181.346 31.3906 182.148 31.3906C183.289 31.3906 184.219 31.7396 184.938 32.4375C185.661 33.1354 186.065 34.0833 186.148 35.2812L186.164 35.8594C186.164 37.1562 185.802 38.1979 185.078 38.9844C184.354 39.7656 183.383 40.1562 182.164 40.1562C180.945 40.1562 179.971 39.7656 179.242 38.9844C178.518 38.2031 178.156 37.1406 178.156 35.7969V35.6953ZM180.414 35.8594C180.414 36.6615 180.565 37.276 180.867 37.7031C181.169 38.125 181.602 38.3359 182.164 38.3359C182.711 38.3359 183.138 38.1276 183.445 37.7109C183.753 37.2891 183.906 36.6172 183.906 35.6953C183.906 34.9089 183.753 34.2995 183.445 33.8672C183.138 33.4349 182.706 33.2188 182.148 33.2188C181.596 33.2188 181.169 33.4349 180.867 33.8672C180.565 34.2943 180.414 34.9583 180.414 35.8594ZM189.633 31.5469L189.703 32.5234C190.307 31.7682 191.117 31.3906 192.133 31.3906C193.029 31.3906 193.695 31.6536 194.133 32.1797C194.57 32.7057 194.794 33.4922 194.805 34.5391V40H192.547V34.5938C192.547 34.1146 192.443 33.7682 192.234 33.5547C192.026 33.3359 191.68 33.2266 191.195 33.2266C190.56 33.2266 190.083 33.4974 189.766 34.0391V40H187.508V31.5469H189.633Z" fill="black"/>
</svg>
