<svg width="573" height="394" viewBox="0 0 573 394" fill="none" xmlns="http://www.w3.org/2000/svg">
<rect width="573" height="394" fill="white"/>
<rect opacity="0.6" x="6" y="33" width="560" height="159" rx="4" fill="#EFF1F6"/>
<rect opacity="0.25" x="55" y="105" width="58" height="21" rx="4" fill="#C74E4E"/>
<rect opacity="0.25" x="144" y="105" width="62" height="21" rx="4" fill="#C74E4E"/>
<rect opacity="0.25" x="55" y="133" width="162" height="47" rx="4" fill="#C74E4E"/>
<rect opacity="0.6" x="6" y="241" width="560" height="146" rx="4" fill="#EFF1F6"/>
<path d="M22.93 228.14C22.35 228.14 21.815 228.025 21.325 227.795C20.845 227.555 20.43 227.215 20.08 226.775C19.74 226.335 19.475 225.8 19.285 225.17C19.095 224.54 19 223.825 19 223.025C19 222.225 19.095 221.515 19.285 220.895C19.475 220.265 19.74 219.74 20.08 219.32C20.43 218.89 20.845 218.565 21.325 218.345C21.815 218.115 22.35 218 22.93 218C23.51 218 24.04 218.115 24.52 218.345C25.01 218.565 25.425 218.89 25.765 219.32C26.115 219.75 26.385 220.28 26.575 220.91C26.765 221.53 26.86 222.235 26.86 223.025C26.86 223.825 26.765 224.54 26.575 225.17C26.385 225.8 26.115 226.335 25.765 226.775C25.425 227.215 25.01 227.555 24.52 227.795C24.04 228.025 23.51 228.14 22.93 228.14ZM22.93 226.235C23.44 226.235 23.845 225.95 24.145 225.38C24.445 224.8 24.595 224.015 24.595 223.025C24.595 222.045 24.445 221.28 24.145 220.73C23.845 220.18 23.44 219.905 22.93 219.905C22.42 219.905 22.015 220.18 21.715 220.73C21.415 221.28 21.265 222.045 21.265 223.025C21.265 224.015 21.415 224.8 21.715 225.38C22.015 225.95 22.42 226.235 22.93 226.235ZM35.2991 227.96H33.4991L33.3341 226.895H33.2741C32.9441 227.275 32.5791 227.58 32.1791 227.81C31.7791 228.03 31.3091 228.14 30.7691 228.14C29.9191 228.14 29.3041 227.87 28.9241 227.33C28.5441 226.79 28.3541 226.05 28.3541 225.11V220.52H30.5591V224.825C30.5591 225.325 30.6341 225.69 30.7841 225.92C30.9341 226.15 31.2191 226.265 31.6391 226.265C31.9191 226.265 32.1641 226.205 32.3741 226.085C32.5941 225.965 32.8341 225.74 33.0941 225.41V220.52H35.2991V227.96ZM39.0283 222.245H37.1533V220.61L39.1333 220.52L39.4183 218.54H41.2333V220.52H44.3833V222.245H41.2333V224.855C41.2333 225.425 41.3583 225.83 41.6083 226.07C41.8583 226.3 42.2533 226.415 42.7933 226.415C43.0833 226.415 43.3483 226.39 43.5883 226.34C43.8283 226.29 44.0583 226.225 44.2783 226.145L44.6683 227.735C44.3383 227.835 43.9683 227.925 43.5583 228.005C43.1583 228.095 42.7183 228.14 42.2383 228.14C41.6483 228.14 41.1483 228.06 40.7383 227.9C40.3283 227.74 39.9933 227.52 39.7333 227.24C39.4833 226.95 39.3033 226.605 39.1933 226.205C39.0833 225.805 39.0283 225.36 39.0283 224.87V222.245ZM48.6974 228.545V230.72H46.4924V220.52H48.2924L48.4574 221.27H48.5024C48.8024 221 49.1474 220.78 49.5374 220.61C49.9274 220.43 50.3224 220.34 50.7224 220.34C51.1824 220.34 51.5974 220.43 51.9674 220.61C52.3374 220.79 52.6524 221.045 52.9124 221.375C53.1724 221.705 53.3674 222.105 53.4974 222.575C53.6374 223.035 53.7074 223.55 53.7074 224.12C53.7074 224.76 53.6174 225.33 53.4374 225.83C53.2574 226.32 53.0174 226.74 52.7174 227.09C52.4174 227.43 52.0724 227.69 51.6824 227.87C51.3024 228.05 50.9024 228.14 50.4824 228.14C49.8024 228.14 49.1824 227.87 48.6224 227.33L48.6974 228.545ZM48.6974 225.845C48.9074 226.025 49.1224 226.155 49.3424 226.235C49.5724 226.305 49.7824 226.34 49.9724 226.34C50.3924 226.34 50.7424 226.17 51.0224 225.83C51.3024 225.48 51.4424 224.92 51.4424 224.15C51.4424 222.81 50.9874 222.14 50.0774 222.14C49.6074 222.14 49.1474 222.37 48.6974 222.83V225.845ZM62.2816 227.96H60.4816L60.3166 226.895H60.2566C59.9266 227.275 59.5616 227.58 59.1616 227.81C58.7616 228.03 58.2916 228.14 57.7516 228.14C56.9016 228.14 56.2866 227.87 55.9066 227.33C55.5266 226.79 55.3366 226.05 55.3366 225.11V220.52H57.5416V224.825C57.5416 225.325 57.6166 225.69 57.7666 225.92C57.9166 226.15 58.2016 226.265 58.6216 226.265C58.9016 226.265 59.1466 226.205 59.3566 226.085C59.5766 225.965 59.8166 225.74 60.0766 225.41V220.52H62.2816V227.96ZM66.0107 222.245H64.1357V220.61L66.1157 220.52L66.4007 218.54H68.2157V220.52H71.3657V222.245H68.2157V224.855C68.2157 225.425 68.3407 225.83 68.5907 226.07C68.8407 226.3 69.2357 226.415 69.7757 226.415C70.0657 226.415 70.3307 226.39 70.5707 226.34C70.8107 226.29 71.0407 226.225 71.2607 226.145L71.6507 227.735C71.3207 227.835 70.9507 227.925 70.5407 228.005C70.1407 228.095 69.7007 228.14 69.2207 228.14C68.6307 228.14 68.1307 228.06 67.7207 227.9C67.3107 227.74 66.9757 227.52 66.7157 227.24C66.4657 226.95 66.2857 226.605 66.1757 226.205C66.0657 225.805 66.0107 225.36 66.0107 224.87V222.245Z" fill="#232A3D"/>
<path d="M25.19 60.192C24.806 60.192 24.454 60.1333 24.134 60.016C23.814 59.9093 23.5367 59.7547 23.302 59.552C23.0673 59.3493 22.886 59.1093 22.758 58.832C22.63 58.544 22.566 58.2293 22.566 57.888C22.566 57.4507 22.6673 57.0667 22.87 56.736C23.0727 56.3947 23.3927 56.1067 23.83 55.872C24.2673 55.6373 24.8273 55.4453 25.51 55.296C26.1927 55.1467 27.0193 55.04 27.99 54.976C27.958 54.528 27.798 54.16 27.51 53.872C27.222 53.584 26.758 53.44 26.118 53.44C25.67 53.44 25.2273 53.5253 24.79 53.696C24.3633 53.856 23.9473 54.048 23.542 54.272L22.87 53.04C23.35 52.7627 23.8993 52.512 24.518 52.288C25.1367 52.064 25.782 51.952 26.454 51.952C27.5527 51.952 28.39 52.2453 28.966 52.832C29.542 53.408 29.83 54.2453 29.83 55.344V60H28.326L28.182 59.024H28.134C27.718 59.344 27.254 59.6213 26.742 59.856C26.2407 60.08 25.7233 60.192 25.19 60.192ZM25.75 58.752C26.1447 58.752 26.5233 58.6667 26.886 58.496C27.2593 58.3147 27.6273 58.08 27.99 57.792V56.128C27.286 56.1813 26.6993 56.256 26.23 56.352C25.7607 56.4373 25.3873 56.5493 25.11 56.688C24.8327 56.8267 24.6353 56.9867 24.518 57.168C24.4007 57.3387 24.342 57.5307 24.342 57.744C24.342 58.096 24.4753 58.352 24.742 58.512C25.0193 58.672 25.3553 58.752 25.75 58.752ZM31.9837 62.432V60.992H39.6637V62.432H31.9837ZM47.0335 60.192C46.1162 60.192 45.4175 59.9253 44.9375 59.392C44.4682 58.8587 44.2335 58.1067 44.2335 57.136V50.16H41.6095V48.704H46.0735V57.232C46.0735 57.7653 46.2068 58.144 46.4735 58.368C46.7508 58.5813 47.0868 58.688 47.4815 58.688C47.8975 58.688 48.3455 58.5867 48.8255 58.384L49.2575 59.744C48.8735 59.8933 48.5215 60.0053 48.2015 60.08C47.8815 60.1547 47.4922 60.192 47.0335 60.192ZM54.9632 60V53.6H51.5552V52.144H56.8032V60H54.9632ZM55.7632 50.704C55.3899 50.704 55.0752 50.592 54.8192 50.368C54.5739 50.144 54.4512 49.8453 54.4512 49.472C54.4512 49.0987 54.5739 48.8 54.8192 48.576C55.0752 48.3413 55.3899 48.224 55.7632 48.224C56.1366 48.224 56.4459 48.3413 56.6912 48.576C56.9472 48.8 57.0752 49.0987 57.0752 49.472C57.0752 49.8453 56.9472 50.144 56.6912 50.368C56.4459 50.592 56.1366 50.704 55.7632 50.704ZM64.653 60.192C63.917 60.192 63.213 60.0747 62.541 59.84C61.869 59.5947 61.2877 59.3067 60.797 58.976L61.597 57.808C62.077 58.1173 62.5837 58.3627 63.117 58.544C63.661 58.7147 64.253 58.8 64.893 58.8C65.437 58.8 65.837 58.7093 66.093 58.528C66.3597 58.3467 66.493 58.1227 66.493 57.856C66.493 57.728 66.4663 57.616 66.413 57.52C66.3597 57.4133 66.253 57.312 66.093 57.216C65.933 57.12 65.709 57.0293 65.421 56.944C65.1437 56.8587 64.7757 56.768 64.317 56.672C63.261 56.4587 62.4877 56.16 61.997 55.776C61.517 55.392 61.277 54.9013 61.277 54.304C61.277 53.6107 61.5757 53.0453 62.173 52.608C62.7703 52.1707 63.6237 51.952 64.733 51.952C65.3837 51.952 65.9917 52.0587 66.557 52.272C67.1223 52.4853 67.6077 52.7253 68.013 52.992L67.165 54.128C66.781 53.8827 66.3703 53.6907 65.933 53.552C65.4957 53.4133 65.0423 53.344 64.573 53.344C64.0503 53.344 63.677 53.4293 63.453 53.6C63.229 53.76 63.117 53.9627 63.117 54.208C63.117 54.4853 63.277 54.6933 63.597 54.832C63.917 54.9707 64.4397 55.12 65.165 55.28C65.7943 55.4187 66.3117 55.568 66.717 55.728C67.1223 55.888 67.4423 56.0693 67.677 56.272C67.9223 56.464 68.093 56.6827 68.189 56.928C68.285 57.1733 68.333 57.4507 68.333 57.76C68.333 58.1013 68.253 58.4213 68.093 58.72C67.933 59.008 67.6983 59.264 67.389 59.488C67.0797 59.7013 66.6957 59.872 66.237 60C65.7783 60.128 65.2503 60.192 64.653 60.192ZM75.6547 60.192C75.0574 60.192 74.5507 60.112 74.1347 59.952C73.7294 59.792 73.3987 59.568 73.1427 59.28C72.8974 58.9813 72.7161 58.624 72.5987 58.208C72.4921 57.792 72.4387 57.3333 72.4387 56.832V53.6H70.3427V52.224L72.5187 52.144L72.7587 49.68H74.2787V52.144H77.8627V53.6H74.2787V56.832C74.2787 57.4827 74.4121 57.9627 74.6787 58.272C74.9561 58.5707 75.4307 58.72 76.1027 58.72C76.4334 58.72 76.7374 58.6933 77.0147 58.64C77.2921 58.576 77.5587 58.496 77.8147 58.4L78.1667 59.744C77.8147 59.8613 77.4361 59.9627 77.0307 60.048C76.6254 60.144 76.1667 60.192 75.6547 60.192ZM89.8342 53.6V52.256H96.9382V53.6H89.8342ZM89.8342 57.168V55.824H96.9382V57.168H89.8342ZM111.166 62.432V48.672H115.758V49.68H112.606V61.424H115.758V62.432H111.166ZM130.465 63.44L129.985 62.336C131.319 61.792 132.001 60.9707 132.033 59.872C131.98 59.8827 131.905 59.888 131.809 59.888C131.404 59.888 131.052 59.7707 130.753 59.536C130.455 59.2907 130.305 58.9333 130.305 58.464C130.305 58.016 130.455 57.6693 130.753 57.424C131.063 57.168 131.425 57.04 131.841 57.04C132.417 57.04 132.849 57.2533 133.137 57.68C133.425 58.1067 133.569 58.6933 133.569 59.44C133.569 60.4213 133.303 61.248 132.769 61.92C132.236 62.6027 131.468 63.1093 130.465 63.44ZM159.246 63.44L158.766 62.336C160.1 61.792 160.782 60.9707 160.814 59.872C160.761 59.8827 160.686 59.888 160.59 59.888C160.185 59.888 159.833 59.7707 159.534 59.536C159.236 59.2907 159.086 58.9333 159.086 58.464C159.086 58.016 159.236 57.6693 159.534 57.424C159.844 57.168 160.206 57.04 160.622 57.04C161.198 57.04 161.63 57.2533 161.918 57.68C162.206 58.1067 162.35 58.6933 162.35 59.44C162.35 60.4213 162.084 61.248 161.55 61.92C161.017 62.6027 160.249 63.1093 159.246 63.44ZM186.14 62.432V61.424H189.292V49.68H186.14V48.672H190.732V62.432H186.14ZM63.597 120L60.461 112.144H62.317L63.837 116.224C63.9863 116.619 64.1197 117.013 64.237 117.408C64.365 117.792 64.493 118.187 64.621 118.592H64.685C64.813 118.187 64.9357 117.792 65.053 117.408C65.181 117.013 65.3197 116.619 65.469 116.224L66.989 112.144H68.749L65.693 120H63.597ZM73.1587 120.192C72.7747 120.192 72.4227 120.133 72.1027 120.016C71.7827 119.909 71.5054 119.755 71.2707 119.552C71.0361 119.349 70.8547 119.109 70.7267 118.832C70.5987 118.544 70.5347 118.229 70.5347 117.888C70.5347 117.451 70.6361 117.067 70.8387 116.736C71.0414 116.395 71.3614 116.107 71.7987 115.872C72.2361 115.637 72.7961 115.445 73.4787 115.296C74.1614 115.147 74.9881 115.04 75.9587 114.976C75.9267 114.528 75.7667 114.16 75.4787 113.872C75.1907 113.584 74.7267 113.44 74.0867 113.44C73.6387 113.44 73.1961 113.525 72.7587 113.696C72.3321 113.856 71.9161 114.048 71.5107 114.272L70.8387 113.04C71.3187 112.763 71.8681 112.512 72.4867 112.288C73.1054 112.064 73.7507 111.952 74.4227 111.952C75.5214 111.952 76.3587 112.245 76.9347 112.832C77.5107 113.408 77.7987 114.245 77.7987 115.344V120H76.2947L76.1507 119.024H76.1027C75.6867 119.344 75.2227 119.621 74.7107 119.856C74.2094 120.08 73.6921 120.192 73.1587 120.192ZM73.7187 118.752C74.1134 118.752 74.4921 118.667 74.8547 118.496C75.2281 118.315 75.5961 118.08 75.9587 117.792V116.128C75.2547 116.181 74.6681 116.256 74.1987 116.352C73.7294 116.437 73.3561 116.549 73.0787 116.688C72.8014 116.827 72.6041 116.987 72.4867 117.168C72.3694 117.339 72.3107 117.531 72.3107 117.744C72.3107 118.096 72.4441 118.352 72.7107 118.512C72.9881 118.672 73.3241 118.752 73.7187 118.752ZM85.4085 120.192C84.4912 120.192 83.7925 119.925 83.3125 119.392C82.8432 118.859 82.6085 118.107 82.6085 117.136V110.16H79.9845V108.704H84.4485V117.232C84.4485 117.765 84.5818 118.144 84.8485 118.368C85.1258 118.581 85.4618 118.688 85.8565 118.688C86.2725 118.688 86.7205 118.587 87.2005 118.384L87.6325 119.744C87.2485 119.893 86.8965 120.005 86.5765 120.08C86.2565 120.155 85.8672 120.192 85.4085 120.192ZM92.3302 120.192C91.4129 120.192 90.7462 119.92 90.3302 119.376C89.9142 118.821 89.7062 118.032 89.7062 117.008V112.144H91.5462V116.768C91.5462 117.408 91.6529 117.877 91.8662 118.176C92.0902 118.464 92.4742 118.608 93.0182 118.608C93.3916 118.608 93.7222 118.523 94.0102 118.352C94.3089 118.181 94.6342 117.877 94.9862 117.44V112.144H96.8262V120H95.3222L95.1782 118.752H95.1142C94.7409 119.189 94.3302 119.541 93.8822 119.808C93.4342 120.064 92.9169 120.192 92.3302 120.192ZM103.46 120.192C102.863 120.192 102.303 120.101 101.78 119.92C101.257 119.728 100.799 119.456 100.404 119.104C100.02 118.752 99.716 118.32 99.492 117.808C99.268 117.296 99.156 116.715 99.156 116.064C99.156 115.424 99.268 114.853 99.492 114.352C99.716 113.84 100.015 113.408 100.388 113.056C100.772 112.693 101.204 112.421 101.684 112.24C102.175 112.048 102.687 111.952 103.22 111.952C103.807 111.952 104.324 112.048 104.772 112.24C105.22 112.421 105.599 112.677 105.908 113.008C106.217 113.328 106.452 113.717 106.612 114.176C106.772 114.635 106.852 115.136 106.852 115.68C106.852 115.861 106.841 116.037 106.82 116.208C106.809 116.368 106.793 116.501 106.772 116.608H100.996C101.103 117.344 101.396 117.888 101.876 118.24C102.356 118.592 102.964 118.768 103.7 118.768C104.116 118.768 104.5 118.709 104.852 118.592C105.204 118.475 105.556 118.315 105.908 118.112L106.532 119.264C106.116 119.541 105.641 119.765 105.108 119.936C104.585 120.107 104.036 120.192 103.46 120.192ZM103.268 113.376C102.724 113.376 102.244 113.536 101.828 113.856C101.423 114.176 101.161 114.656 101.044 115.296H105.22C105.156 114.656 104.953 114.176 104.612 113.856C104.281 113.536 103.833 113.376 103.268 113.376ZM149.909 120.192C149.525 120.192 149.173 120.133 148.853 120.016C148.533 119.909 148.255 119.755 148.021 119.552C147.786 119.349 147.605 119.109 147.477 118.832C147.349 118.544 147.285 118.229 147.285 117.888C147.285 117.451 147.386 117.067 147.589 116.736C147.791 116.395 148.111 116.107 148.549 115.872C148.986 115.637 149.546 115.445 150.229 115.296C150.911 115.147 151.738 115.04 152.709 114.976C152.677 114.528 152.517 114.16 152.229 113.872C151.941 113.584 151.477 113.44 150.837 113.44C150.389 113.44 149.946 113.525 149.509 113.696C149.082 113.856 148.666 114.048 148.261 114.272L147.589 113.04C148.069 112.763 148.618 112.512 149.237 112.288C149.855 112.064 150.501 111.952 151.173 111.952C152.271 111.952 153.109 112.245 153.685 112.832C154.261 113.408 154.549 114.245 154.549 115.344V120H153.045L152.901 119.024H152.853C152.437 119.344 151.973 119.621 151.461 119.856C150.959 120.08 150.442 120.192 149.909 120.192ZM150.469 118.752C150.863 118.752 151.242 118.667 151.605 118.496C151.978 118.315 152.346 118.08 152.709 117.792V116.128C152.005 116.181 151.418 116.256 150.949 116.352C150.479 116.437 150.106 116.549 149.829 116.688C149.551 116.827 149.354 116.987 149.237 117.168C149.119 117.339 149.061 117.531 149.061 117.744C149.061 118.096 149.194 118.352 149.461 118.512C149.738 118.672 150.074 118.752 150.469 118.752ZM156.702 122.432V120.992H164.382V122.432H156.702ZM171.752 120.192C170.835 120.192 170.136 119.925 169.656 119.392C169.187 118.859 168.952 118.107 168.952 117.136V110.16H166.328V108.704H170.792V117.232C170.792 117.765 170.926 118.144 171.192 118.368C171.47 118.581 171.806 118.688 172.2 118.688C172.616 118.688 173.064 118.587 173.544 118.384L173.976 119.744C173.592 119.893 173.24 120.005 172.92 120.08C172.6 120.155 172.211 120.192 171.752 120.192ZM179.682 120V113.6H176.274V112.144H181.522V120H179.682ZM180.482 110.704C180.109 110.704 179.794 110.592 179.538 110.368C179.293 110.144 179.17 109.845 179.17 109.472C179.17 109.099 179.293 108.8 179.538 108.576C179.794 108.341 180.109 108.224 180.482 108.224C180.855 108.224 181.165 108.341 181.41 108.576C181.666 108.8 181.794 109.099 181.794 109.472C181.794 109.845 181.666 110.144 181.41 110.368C181.165 110.592 180.855 110.704 180.482 110.704ZM189.372 120.192C188.636 120.192 187.932 120.075 187.26 119.84C186.588 119.595 186.006 119.307 185.516 118.976L186.316 117.808C186.796 118.117 187.302 118.363 187.836 118.544C188.38 118.715 188.972 118.8 189.612 118.8C190.156 118.8 190.556 118.709 190.812 118.528C191.078 118.347 191.212 118.123 191.212 117.856C191.212 117.728 191.185 117.616 191.132 117.52C191.078 117.413 190.972 117.312 190.812 117.216C190.652 117.12 190.428 117.029 190.14 116.944C189.862 116.859 189.494 116.768 189.036 116.672C187.98 116.459 187.206 116.16 186.716 115.776C186.236 115.392 185.996 114.901 185.996 114.304C185.996 113.611 186.294 113.045 186.892 112.608C187.489 112.171 188.342 111.952 189.452 111.952C190.102 111.952 190.71 112.059 191.276 112.272C191.841 112.485 192.326 112.725 192.732 112.992L191.884 114.128C191.5 113.883 191.089 113.691 190.652 113.552C190.214 113.413 189.761 113.344 189.292 113.344C188.769 113.344 188.396 113.429 188.172 113.6C187.948 113.76 187.836 113.963 187.836 114.208C187.836 114.485 187.996 114.693 188.316 114.832C188.636 114.971 189.158 115.12 189.884 115.28C190.513 115.419 191.03 115.568 191.436 115.728C191.841 115.888 192.161 116.069 192.396 116.272C192.641 116.464 192.812 116.683 192.908 116.928C193.004 117.173 193.052 117.451 193.052 117.76C193.052 118.101 192.972 118.421 192.812 118.72C192.652 119.008 192.417 119.264 192.108 119.488C191.798 119.701 191.414 119.872 190.956 120C190.497 120.128 189.969 120.192 189.372 120.192ZM200.373 120.192C199.776 120.192 199.269 120.112 198.853 119.952C198.448 119.792 198.117 119.568 197.861 119.28C197.616 118.981 197.435 118.624 197.317 118.208C197.211 117.792 197.157 117.333 197.157 116.832V113.6H195.061V112.224L197.237 112.144L197.477 109.68H198.997V112.144H202.581V113.6H198.997V116.832C198.997 117.483 199.131 117.963 199.397 118.272C199.675 118.571 200.149 118.72 200.821 118.72C201.152 118.72 201.456 118.693 201.733 118.64C202.011 118.576 202.277 118.496 202.533 118.4L202.885 119.744C202.533 119.861 202.155 119.963 201.749 120.048C201.344 120.144 200.885 120.192 200.373 120.192ZM208.511 114.752C208.053 114.752 207.674 114.603 207.375 114.304C207.077 113.995 206.927 113.605 206.927 113.136C206.927 112.667 207.077 112.283 207.375 111.984C207.674 111.675 208.053 111.52 208.511 111.52C208.97 111.52 209.349 111.675 209.647 111.984C209.946 112.283 210.095 112.667 210.095 113.136C210.095 113.605 209.946 113.995 209.647 114.304C209.349 114.603 208.97 114.752 208.511 114.752ZM208.511 120.192C208.053 120.192 207.674 120.043 207.375 119.744C207.077 119.435 206.927 119.045 206.927 118.576C206.927 118.107 207.077 117.723 207.375 117.424C207.674 117.115 208.053 116.96 208.511 116.96C208.97 116.96 209.349 117.115 209.647 117.424C209.946 117.723 210.095 118.107 210.095 118.576C210.095 119.045 209.946 119.435 209.647 119.744C209.349 120.043 208.97 120.192 208.511 120.192Z" fill="#30384E"/>
<path d="M118.775 60V58.496H121.607V51.808H119.351V50.656C119.671 50.6133 119.959 50.5653 120.215 50.512C120.471 50.448 120.706 50.384 120.919 50.32C121.143 50.256 121.351 50.1813 121.543 50.096C121.735 50.0107 121.922 49.92 122.103 49.824H123.447V58.496H125.943V60H118.775ZM150.677 60.192C149.802 60.192 149.055 60.0533 148.437 59.776C147.818 59.4987 147.322 59.1573 146.949 58.752L147.813 57.568C148.154 57.8773 148.549 58.144 148.997 58.368C149.455 58.5813 149.962 58.688 150.517 58.688C151.146 58.688 151.663 58.5547 152.069 58.288C152.485 58.0107 152.693 57.632 152.693 57.152C152.693 56.8853 152.634 56.6453 152.517 56.432C152.399 56.2187 152.207 56.0373 151.941 55.888C151.685 55.7387 151.338 55.6267 150.901 55.552C150.474 55.4667 149.946 55.424 149.317 55.424V54.08C149.861 54.08 150.325 54.0427 150.709 53.968C151.093 53.8827 151.402 53.7707 151.637 53.632C151.882 53.4827 152.058 53.3067 152.165 53.104C152.282 52.9013 152.341 52.6827 152.341 52.448C152.341 52.0213 152.175 51.6907 151.845 51.456C151.525 51.2107 151.093 51.088 150.549 51.088C150.101 51.088 149.685 51.1787 149.301 51.36C148.927 51.5307 148.57 51.76 148.229 52.048L147.269 50.912C147.738 50.528 148.25 50.2187 148.805 49.984C149.359 49.7493 149.967 49.632 150.629 49.632C151.151 49.632 151.631 49.6907 152.069 49.808C152.506 49.9253 152.879 50.1013 153.189 50.336C153.509 50.56 153.754 50.8427 153.925 51.184C154.106 51.5147 154.197 51.8933 154.197 52.32C154.197 52.896 154.01 53.376 153.637 53.76C153.263 54.144 152.762 54.4427 152.133 54.656V54.72C152.463 54.8053 152.773 54.9227 153.061 55.072C153.359 55.2107 153.615 55.3867 153.829 55.6C154.053 55.8133 154.229 56.0587 154.357 56.336C154.485 56.6133 154.549 56.9173 154.549 57.248C154.549 57.7173 154.442 58.1333 154.229 58.496C154.026 58.8587 153.749 59.168 153.397 59.424C153.045 59.6693 152.634 59.8613 152.165 60C151.695 60.128 151.199 60.192 150.677 60.192ZM179.474 60.192C178.578 60.192 177.831 60.0533 177.234 59.776C176.647 59.488 176.151 59.1573 175.746 58.784L176.594 57.6C176.935 57.888 177.314 58.144 177.73 58.368C178.157 58.5813 178.663 58.688 179.25 58.688C179.89 58.688 180.423 58.5173 180.85 58.176C181.287 57.8347 181.506 57.3547 181.506 56.736C181.506 56.128 181.303 55.6587 180.898 55.328C180.503 54.9973 179.981 54.832 179.33 54.832C178.957 54.832 178.637 54.88 178.37 54.976C178.103 55.0613 177.794 55.2053 177.442 55.408L176.562 54.848L176.882 49.824H182.882V51.376H178.482L178.258 53.84C178.525 53.7333 178.781 53.6533 179.026 53.6C179.271 53.536 179.549 53.504 179.858 53.504C180.338 53.504 180.791 53.568 181.218 53.696C181.645 53.824 182.013 54.0213 182.322 54.288C182.642 54.544 182.893 54.8747 183.074 55.28C183.266 55.6747 183.362 56.144 183.362 56.688C183.362 57.2427 183.255 57.7387 183.042 58.176C182.829 58.6133 182.541 58.9813 182.178 59.28C181.815 59.5787 181.399 59.808 180.93 59.968C180.471 60.1173 179.986 60.192 179.474 60.192Z" fill="#232A3D"/>
<path d="M25.078 120V113.6H22.902V112.224L25.078 112.144V111.712C25.078 111.253 25.142 110.827 25.27 110.432C25.398 110.037 25.5953 109.701 25.862 109.424C26.1393 109.136 26.486 108.912 26.902 108.752C27.3287 108.592 27.83 108.512 28.406 108.512C28.8327 108.512 29.238 108.549 29.622 108.624C30.0167 108.699 30.39 108.805 30.742 108.944L30.358 110.304C30.07 110.187 29.7873 110.101 29.51 110.048C29.2433 109.995 28.95 109.968 28.63 109.968C28.022 109.968 27.5793 110.117 27.302 110.416C27.0353 110.704 26.902 111.125 26.902 111.68V112.144H29.894V113.6H26.902V120H25.078ZM35.8237 120.192C35.3117 120.192 34.8157 120.101 34.3357 119.92C33.8557 119.739 33.4344 119.472 33.0717 119.12C32.7091 118.768 32.4157 118.336 32.1917 117.824C31.9784 117.312 31.8717 116.731 31.8717 116.08C31.8717 115.429 31.9784 114.848 32.1917 114.336C32.4157 113.824 32.7091 113.392 33.0717 113.04C33.4344 112.688 33.8557 112.421 34.3357 112.24C34.8157 112.048 35.3117 111.952 35.8237 111.952C36.3357 111.952 36.8317 112.048 37.3117 112.24C37.7917 112.421 38.2131 112.688 38.5757 113.04C38.9384 113.392 39.2264 113.824 39.4397 114.336C39.6637 114.848 39.7757 115.429 39.7757 116.08C39.7757 116.731 39.6637 117.312 39.4397 117.824C39.2264 118.336 38.9384 118.768 38.5757 119.12C38.2131 119.472 37.7917 119.739 37.3117 119.92C36.8317 120.101 36.3357 120.192 35.8237 120.192ZM35.8237 118.688C36.4637 118.688 36.9651 118.453 37.3277 117.984C37.6904 117.504 37.8717 116.869 37.8717 116.08C37.8717 115.28 37.6904 114.645 37.3277 114.176C36.9651 113.696 36.4637 113.456 35.8237 113.456C35.1837 113.456 34.6824 113.696 34.3197 114.176C33.9571 114.645 33.7757 115.28 33.7757 116.08C33.7757 116.869 33.9571 117.504 34.3197 117.984C34.6824 118.453 35.1837 118.688 35.8237 118.688ZM42.6975 120V112.144H44.2175L44.3775 113.92H44.4255C44.8308 113.28 45.3162 112.795 45.8815 112.464C46.4575 112.123 47.0868 111.952 47.7695 111.952C48.0895 111.952 48.3615 111.979 48.5855 112.032C48.8202 112.075 49.0548 112.155 49.2895 112.272L48.9055 113.824C48.6495 113.739 48.4202 113.68 48.2175 113.648C48.0255 113.605 47.7802 113.584 47.4815 113.584C46.9375 113.584 46.4148 113.739 45.9135 114.048C45.4122 114.357 44.9588 114.896 44.5535 115.664V120H42.6975ZM122.119 120V113.6H118.711V112.144H123.959V120H122.119ZM122.919 110.704C122.546 110.704 122.231 110.592 121.975 110.368C121.73 110.144 121.607 109.845 121.607 109.472C121.607 109.099 121.73 108.8 121.975 108.576C122.231 108.341 122.546 108.224 122.919 108.224C123.293 108.224 123.602 108.341 123.847 108.576C124.103 108.8 124.231 109.099 124.231 109.472C124.231 109.845 124.103 110.144 123.847 110.368C123.602 110.592 123.293 110.704 122.919 110.704ZM128.273 120V112.144H129.793L129.937 113.328H130.001C130.375 112.955 130.785 112.635 131.233 112.368C131.692 112.091 132.225 111.952 132.833 111.952C133.74 111.952 134.407 112.229 134.833 112.784C135.26 113.328 135.473 114.112 135.473 115.136V120H133.617V115.376C133.617 114.736 133.505 114.272 133.281 113.984C133.068 113.685 132.689 113.536 132.145 113.536C131.761 113.536 131.42 113.627 131.121 113.808C130.823 113.989 130.492 114.267 130.129 114.64V120H128.273Z" fill="#EFA460"/>
<path d="M114.366 152.832C113.288 151.936 112.435 150.88 111.806 149.664C111.187 148.448 110.878 147.077 110.878 145.552C110.878 144.027 111.187 142.656 111.806 141.44C112.435 140.224 113.288 139.168 114.366 138.272L115.39 139.12C114.376 140.037 113.635 141.013 113.166 142.048C112.696 143.083 112.462 144.251 112.462 145.552C112.462 146.853 112.696 148.021 113.166 149.056C113.635 150.091 114.376 151.067 115.39 151.984L114.366 152.832ZM121.159 150L118.023 142.144H119.879L121.399 146.224C121.549 146.619 121.682 147.013 121.799 147.408C121.927 147.792 122.055 148.187 122.183 148.592H122.247C122.375 148.187 122.498 147.792 122.615 147.408C122.743 147.013 122.882 146.619 123.031 146.224L124.551 142.144H126.311L123.255 150H121.159ZM130.721 150.192C130.337 150.192 129.985 150.133 129.665 150.016C129.345 149.909 129.068 149.755 128.833 149.552C128.599 149.349 128.417 149.109 128.289 148.832C128.161 148.544 128.097 148.229 128.097 147.888C128.097 147.451 128.199 147.067 128.401 146.736C128.604 146.395 128.924 146.107 129.361 145.872C129.799 145.637 130.359 145.445 131.041 145.296C131.724 145.147 132.551 145.04 133.521 144.976C133.489 144.528 133.329 144.16 133.041 143.872C132.753 143.584 132.289 143.44 131.649 143.44C131.201 143.44 130.759 143.525 130.321 143.696C129.895 143.856 129.479 144.048 129.073 144.272L128.401 143.04C128.881 142.763 129.431 142.512 130.049 142.288C130.668 142.064 131.313 141.952 131.985 141.952C133.084 141.952 133.921 142.245 134.497 142.832C135.073 143.408 135.361 144.245 135.361 145.344V150H133.857L133.713 149.024H133.665C133.249 149.344 132.785 149.621 132.273 149.856C131.772 150.08 131.255 150.192 130.721 150.192ZM131.281 148.752C131.676 148.752 132.055 148.667 132.417 148.496C132.791 148.315 133.159 148.08 133.521 147.792V146.128C132.817 146.181 132.231 146.256 131.761 146.352C131.292 146.437 130.919 146.549 130.641 146.688C130.364 146.827 130.167 146.987 130.049 147.168C129.932 147.339 129.873 147.531 129.873 147.744C129.873 148.096 130.007 148.352 130.273 148.512C130.551 148.672 130.887 148.752 131.281 148.752ZM142.971 150.192C142.054 150.192 141.355 149.925 140.875 149.392C140.406 148.859 140.171 148.107 140.171 147.136V140.16H137.547V138.704H142.011V147.232C142.011 147.765 142.144 148.144 142.411 148.368C142.688 148.581 143.024 148.688 143.419 148.688C143.835 148.688 144.283 148.587 144.763 148.384L145.195 149.744C144.811 149.893 144.459 150.005 144.139 150.08C143.819 150.155 143.43 150.192 142.971 150.192ZM149.893 150.192C148.975 150.192 148.309 149.92 147.893 149.376C147.477 148.821 147.269 148.032 147.269 147.008V142.144H149.109V146.768C149.109 147.408 149.215 147.877 149.429 148.176C149.653 148.464 150.037 148.608 150.581 148.608C150.954 148.608 151.285 148.523 151.573 148.352C151.871 148.181 152.197 147.877 152.549 147.44V142.144H154.389V150H152.885L152.741 148.752H152.677C152.303 149.189 151.893 149.541 151.445 149.808C150.997 150.064 150.479 150.192 149.893 150.192ZM161.022 150.192C160.425 150.192 159.865 150.101 159.342 149.92C158.82 149.728 158.361 149.456 157.966 149.104C157.582 148.752 157.278 148.32 157.054 147.808C156.83 147.296 156.718 146.715 156.718 146.064C156.718 145.424 156.83 144.853 157.054 144.352C157.278 143.84 157.577 143.408 157.95 143.056C158.334 142.693 158.766 142.421 159.246 142.24C159.737 142.048 160.249 141.952 160.782 141.952C161.369 141.952 161.886 142.048 162.334 142.24C162.782 142.421 163.161 142.677 163.47 143.008C163.78 143.328 164.014 143.717 164.174 144.176C164.334 144.635 164.414 145.136 164.414 145.68C164.414 145.861 164.404 146.037 164.382 146.208C164.372 146.368 164.356 146.501 164.334 146.608H158.558C158.665 147.344 158.958 147.888 159.438 148.24C159.918 148.592 160.526 148.768 161.262 148.768C161.678 148.768 162.062 148.709 162.414 148.592C162.766 148.475 163.118 148.315 163.47 148.112L164.094 149.264C163.678 149.541 163.204 149.765 162.67 149.936C162.148 150.107 161.598 150.192 161.022 150.192ZM160.83 143.376C160.286 143.376 159.806 143.536 159.39 143.856C158.985 144.176 158.724 144.656 158.606 145.296H162.782C162.718 144.656 162.516 144.176 162.174 143.856C161.844 143.536 161.396 143.376 160.83 143.376ZM168.344 152.832L167.32 151.984C168.334 151.067 169.075 150.091 169.544 149.056C170.014 148.021 170.248 146.853 170.248 145.552C170.248 144.251 170.014 143.083 169.544 142.048C169.075 141.013 168.334 140.037 167.32 139.12L168.344 138.272C169.422 139.168 170.27 140.224 170.888 141.44C171.518 142.656 171.832 144.027 171.832 145.552C171.832 147.077 171.518 148.448 170.888 149.664C170.27 150.88 169.422 151.936 168.344 152.832ZM114.366 172.832C113.288 171.936 112.435 170.88 111.806 169.664C111.187 168.448 110.878 167.077 110.878 165.552C110.878 164.027 111.187 162.656 111.806 161.44C112.435 160.224 113.288 159.168 114.366 158.272L115.39 159.12C114.376 160.037 113.635 161.013 113.166 162.048C112.696 163.083 112.462 164.251 112.462 165.552C112.462 166.853 112.696 168.021 113.166 169.056C113.635 170.091 114.376 171.067 115.39 171.984L114.366 172.832ZM121.159 170L118.023 162.144H119.879L121.399 166.224C121.549 166.619 121.682 167.013 121.799 167.408C121.927 167.792 122.055 168.187 122.183 168.592H122.247C122.375 168.187 122.498 167.792 122.615 167.408C122.743 167.013 122.882 166.619 123.031 166.224L124.551 162.144H126.311L123.255 170H121.159ZM130.721 170.192C130.337 170.192 129.985 170.133 129.665 170.016C129.345 169.909 129.068 169.755 128.833 169.552C128.599 169.349 128.417 169.109 128.289 168.832C128.161 168.544 128.097 168.229 128.097 167.888C128.097 167.451 128.199 167.067 128.401 166.736C128.604 166.395 128.924 166.107 129.361 165.872C129.799 165.637 130.359 165.445 131.041 165.296C131.724 165.147 132.551 165.04 133.521 164.976C133.489 164.528 133.329 164.16 133.041 163.872C132.753 163.584 132.289 163.44 131.649 163.44C131.201 163.44 130.759 163.525 130.321 163.696C129.895 163.856 129.479 164.048 129.073 164.272L128.401 163.04C128.881 162.763 129.431 162.512 130.049 162.288C130.668 162.064 131.313 161.952 131.985 161.952C133.084 161.952 133.921 162.245 134.497 162.832C135.073 163.408 135.361 164.245 135.361 165.344V170H133.857L133.713 169.024H133.665C133.249 169.344 132.785 169.621 132.273 169.856C131.772 170.08 131.255 170.192 130.721 170.192ZM131.281 168.752C131.676 168.752 132.055 168.667 132.417 168.496C132.791 168.315 133.159 168.08 133.521 167.792V166.128C132.817 166.181 132.231 166.256 131.761 166.352C131.292 166.437 130.919 166.549 130.641 166.688C130.364 166.827 130.167 166.987 130.049 167.168C129.932 167.339 129.873 167.531 129.873 167.744C129.873 168.096 130.007 168.352 130.273 168.512C130.551 168.672 130.887 168.752 131.281 168.752ZM142.971 170.192C142.054 170.192 141.355 169.925 140.875 169.392C140.406 168.859 140.171 168.107 140.171 167.136V160.16H137.547V158.704H142.011V167.232C142.011 167.765 142.144 168.144 142.411 168.368C142.688 168.581 143.024 168.688 143.419 168.688C143.835 168.688 144.283 168.587 144.763 168.384L145.195 169.744C144.811 169.893 144.459 170.005 144.139 170.08C143.819 170.155 143.43 170.192 142.971 170.192ZM149.893 170.192C148.975 170.192 148.309 169.92 147.893 169.376C147.477 168.821 147.269 168.032 147.269 167.008V162.144H149.109V166.768C149.109 167.408 149.215 167.877 149.429 168.176C149.653 168.464 150.037 168.608 150.581 168.608C150.954 168.608 151.285 168.523 151.573 168.352C151.871 168.181 152.197 167.877 152.549 167.44V162.144H154.389V170H152.885L152.741 168.752H152.677C152.303 169.189 151.893 169.541 151.445 169.808C150.997 170.064 150.479 170.192 149.893 170.192ZM161.022 170.192C160.425 170.192 159.865 170.101 159.342 169.92C158.82 169.728 158.361 169.456 157.966 169.104C157.582 168.752 157.278 168.32 157.054 167.808C156.83 167.296 156.718 166.715 156.718 166.064C156.718 165.424 156.83 164.853 157.054 164.352C157.278 163.84 157.577 163.408 157.95 163.056C158.334 162.693 158.766 162.421 159.246 162.24C159.737 162.048 160.249 161.952 160.782 161.952C161.369 161.952 161.886 162.048 162.334 162.24C162.782 162.421 163.161 162.677 163.47 163.008C163.78 163.328 164.014 163.717 164.174 164.176C164.334 164.635 164.414 165.136 164.414 165.68C164.414 165.861 164.404 166.037 164.382 166.208C164.372 166.368 164.356 166.501 164.334 166.608H158.558C158.665 167.344 158.958 167.888 159.438 168.24C159.918 168.592 160.526 168.768 161.262 168.768C161.678 168.768 162.062 168.709 162.414 168.592C162.766 168.475 163.118 168.315 163.47 168.112L164.094 169.264C163.678 169.541 163.204 169.765 162.67 169.936C162.148 170.107 161.598 170.192 161.022 170.192ZM160.83 163.376C160.286 163.376 159.806 163.536 159.39 163.856C158.985 164.176 158.724 164.656 158.606 165.296H162.782C162.718 164.656 162.516 164.176 162.174 163.856C161.844 163.536 161.396 163.376 160.83 163.376ZM176.178 165.392V164.048H183.282V165.392H176.178ZM206.719 172.832L205.695 171.984C206.709 171.067 207.45 170.091 207.919 169.056C208.389 168.021 208.623 166.853 208.623 165.552C208.623 164.251 208.389 163.083 207.919 162.048C207.45 161.013 206.709 160.037 205.695 159.12L206.719 158.272C207.797 159.168 208.645 160.224 209.263 161.44C209.893 162.656 210.207 164.027 210.207 165.552C210.207 167.077 209.893 168.448 209.263 169.664C208.645 170.88 207.797 171.936 206.719 172.832Z" fill="#30384E"/>
<path d="M61.117 153.104V142.144H62.637L62.781 143.04H62.829C63.1703 142.731 63.5597 142.475 63.997 142.272C64.445 142.059 64.893 141.952 65.341 141.952C65.853 141.952 66.3063 142.048 66.701 142.24C67.1063 142.421 67.4423 142.688 67.709 143.04C67.9863 143.392 68.1943 143.813 68.333 144.304C68.4823 144.795 68.557 145.344 68.557 145.952C68.557 146.624 68.461 147.227 68.269 147.76C68.077 148.283 67.8157 148.725 67.485 149.088C67.165 149.44 66.7917 149.712 66.365 149.904C65.949 150.096 65.517 150.192 65.069 150.192C64.7063 150.192 64.333 150.112 63.949 149.952C63.5757 149.792 63.2343 149.563 62.925 149.264H62.877L62.973 150.64V153.104H61.117ZM64.685 148.672C65.2503 148.672 65.7197 148.448 66.093 148C66.4663 147.541 66.653 146.864 66.653 145.968C66.653 145.179 66.509 144.565 66.221 144.128C65.933 143.691 65.469 143.472 64.829 143.472C64.5303 143.472 64.2263 143.547 63.917 143.696C63.6077 143.845 63.293 144.085 62.973 144.416V147.952C63.261 148.219 63.5543 148.405 63.853 148.512C64.1623 148.619 64.4397 148.672 64.685 148.672ZM71.4787 150V142.144H72.9987L73.1587 143.92H73.2067C73.6121 143.28 74.0974 142.795 74.6627 142.464C75.2387 142.123 75.8681 141.952 76.5507 141.952C76.8707 141.952 77.1427 141.979 77.3667 142.032C77.6014 142.075 77.8361 142.155 78.0707 142.272L77.6867 143.824C77.4307 143.739 77.2014 143.68 76.9987 143.648C76.8067 143.605 76.5614 143.584 76.2627 143.584C75.7187 143.584 75.1961 143.739 74.6947 144.048C74.1934 144.357 73.7401 144.896 73.3347 145.664V150H71.4787ZM83.7445 150V143.6H80.3365V142.144H85.5845V150H83.7445ZM84.5445 140.704C84.1712 140.704 83.8565 140.592 83.6005 140.368C83.3552 140.144 83.2325 139.845 83.2325 139.472C83.2325 139.099 83.3552 138.8 83.6005 138.576C83.8565 138.341 84.1712 138.224 84.5445 138.224C84.9178 138.224 85.2272 138.341 85.4725 138.576C85.7285 138.8 85.8565 139.099 85.8565 139.472C85.8565 139.845 85.7285 140.144 85.4725 140.368C85.2272 140.592 84.9178 140.704 84.5445 140.704ZM89.8982 150V142.144H91.4182L91.5622 143.328H91.6262C91.9996 142.955 92.4102 142.635 92.8582 142.368C93.3169 142.091 93.8502 141.952 94.4582 141.952C95.3649 141.952 96.0316 142.229 96.4582 142.784C96.8849 143.328 97.0982 144.112 97.0982 145.136V150H95.2422V145.376C95.2422 144.736 95.1302 144.272 94.9062 143.984C94.6929 143.685 94.3142 143.536 93.7702 143.536C93.3862 143.536 93.0449 143.627 92.7462 143.808C92.4476 143.989 92.1169 144.267 91.7542 144.64V150H89.8982ZM104.436 150.192C103.839 150.192 103.332 150.112 102.916 149.952C102.511 149.792 102.18 149.568 101.924 149.28C101.679 148.981 101.497 148.624 101.38 148.208C101.273 147.792 101.22 147.333 101.22 146.832V143.6H99.124V142.224L101.3 142.144L101.54 139.68H103.06V142.144H106.644V143.6H103.06V146.832C103.06 147.483 103.193 147.963 103.46 148.272C103.737 148.571 104.212 148.72 104.884 148.72C105.215 148.72 105.519 148.693 105.796 148.64C106.073 148.576 106.34 148.496 106.596 148.4L106.948 149.744C106.596 149.861 106.217 149.963 105.812 150.048C105.407 150.144 104.948 150.192 104.436 150.192ZM61.117 173.104V162.144H62.637L62.781 163.04H62.829C63.1703 162.731 63.5597 162.475 63.997 162.272C64.445 162.059 64.893 161.952 65.341 161.952C65.853 161.952 66.3063 162.048 66.701 162.24C67.1063 162.421 67.4423 162.688 67.709 163.04C67.9863 163.392 68.1943 163.813 68.333 164.304C68.4823 164.795 68.557 165.344 68.557 165.952C68.557 166.624 68.461 167.227 68.269 167.76C68.077 168.283 67.8157 168.725 67.485 169.088C67.165 169.44 66.7917 169.712 66.365 169.904C65.949 170.096 65.517 170.192 65.069 170.192C64.7063 170.192 64.333 170.112 63.949 169.952C63.5757 169.792 63.2343 169.563 62.925 169.264H62.877L62.973 170.64V173.104H61.117ZM64.685 168.672C65.2503 168.672 65.7197 168.448 66.093 168C66.4663 167.541 66.653 166.864 66.653 165.968C66.653 165.179 66.509 164.565 66.221 164.128C65.933 163.691 65.469 163.472 64.829 163.472C64.5303 163.472 64.2263 163.547 63.917 163.696C63.6077 163.845 63.293 164.085 62.973 164.416V167.952C63.261 168.219 63.5543 168.405 63.853 168.512C64.1623 168.619 64.4397 168.672 64.685 168.672ZM71.4787 170V162.144H72.9987L73.1587 163.92H73.2067C73.6121 163.28 74.0974 162.795 74.6627 162.464C75.2387 162.123 75.8681 161.952 76.5507 161.952C76.8707 161.952 77.1427 161.979 77.3667 162.032C77.6014 162.075 77.8361 162.155 78.0707 162.272L77.6867 163.824C77.4307 163.739 77.2014 163.68 76.9987 163.648C76.8067 163.605 76.5614 163.584 76.2627 163.584C75.7187 163.584 75.1961 163.739 74.6947 164.048C74.1934 164.357 73.7401 164.896 73.3347 165.664V170H71.4787ZM83.7445 170V163.6H80.3365V162.144H85.5845V170H83.7445ZM84.5445 160.704C84.1712 160.704 83.8565 160.592 83.6005 160.368C83.3552 160.144 83.2325 159.845 83.2325 159.472C83.2325 159.099 83.3552 158.8 83.6005 158.576C83.8565 158.341 84.1712 158.224 84.5445 158.224C84.9178 158.224 85.2272 158.341 85.4725 158.576C85.7285 158.8 85.8565 159.099 85.8565 159.472C85.8565 159.845 85.7285 160.144 85.4725 160.368C85.2272 160.592 84.9178 160.704 84.5445 160.704ZM89.8982 170V162.144H91.4182L91.5622 163.328H91.6262C91.9996 162.955 92.4102 162.635 92.8582 162.368C93.3169 162.091 93.8502 161.952 94.4582 161.952C95.3649 161.952 96.0316 162.229 96.4582 162.784C96.8849 163.328 97.0982 164.112 97.0982 165.136V170H95.2422V165.376C95.2422 164.736 95.1302 164.272 94.9062 163.984C94.6929 163.685 94.3142 163.536 93.7702 163.536C93.3862 163.536 93.0449 163.627 92.7462 163.808C92.4476 163.989 92.1169 164.267 91.7542 164.64V170H89.8982ZM104.436 170.192C103.839 170.192 103.332 170.112 102.916 169.952C102.511 169.792 102.18 169.568 101.924 169.28C101.679 168.981 101.497 168.624 101.38 168.208C101.273 167.792 101.22 167.333 101.22 166.832V163.6H99.124V162.224L101.3 162.144L101.54 159.68H103.06V162.144H106.644V163.6H103.06V166.832C103.06 167.483 103.193 167.963 103.46 168.272C103.737 168.571 104.212 168.72 104.884 168.72C105.215 168.72 105.519 168.693 105.796 168.64C106.073 168.576 106.34 168.496 106.596 168.4L106.948 169.744C106.596 169.861 106.217 169.963 105.812 170.048C105.407 170.144 104.948 170.192 104.436 170.192Z" fill="#29A1F8"/>
<path d="M195.525 170V168.496H198.357V161.808H196.101V160.656C196.421 160.613 196.709 160.565 196.965 160.512C197.221 160.448 197.456 160.384 197.669 160.32C197.893 160.256 198.101 160.181 198.293 160.096C198.485 160.011 198.672 159.92 198.853 159.824H200.197V168.496H202.693V170H195.525Z" fill="#232A3D"/>
<path d="M26.166 21.192C25.4513 21.192 24.7527 21.0747 24.07 20.84C23.3873 20.6053 22.79 20.3173 22.278 19.976L23.286 18.504C23.7767 18.8133 24.2887 19.048 24.822 19.208C25.3553 19.368 25.91 19.448 26.486 19.448C26.9233 19.448 27.2433 19.384 27.446 19.256C27.6487 19.128 27.75 18.968 27.75 18.776C27.75 18.6693 27.718 18.5733 27.654 18.488C27.6007 18.4027 27.4993 18.328 27.35 18.264C27.2113 18.1893 27.014 18.12 26.758 18.056C26.502 17.992 26.182 17.9173 25.798 17.832C24.7207 17.5973 23.9473 17.2827 23.478 16.888C23.0087 16.4827 22.774 15.9707 22.774 15.352C22.774 14.9893 22.8593 14.6533 23.03 14.344C23.2007 14.0347 23.4407 13.7733 23.75 13.56C24.07 13.3467 24.454 13.1813 24.902 13.064C25.35 12.936 25.8567 12.872 26.422 12.872C27.1367 12.872 27.782 12.9893 28.358 13.224C28.9447 13.448 29.446 13.6933 29.862 13.96L28.806 15.368C28.4007 15.1227 27.9793 14.936 27.542 14.808C27.1047 14.68 26.662 14.616 26.214 14.616C25.8407 14.616 25.5633 14.6747 25.382 14.792C25.2007 14.9093 25.11 15.0587 25.11 15.24C25.11 15.464 25.2487 15.624 25.526 15.72C25.8033 15.816 26.278 15.9387 26.95 16.088C27.558 16.2267 28.0647 16.376 28.47 16.536C28.8753 16.696 29.1953 16.8773 29.43 17.08C29.6647 17.2827 29.83 17.512 29.926 17.768C30.022 18.024 30.07 18.312 30.07 18.632C30.07 18.9947 29.9847 19.3307 29.814 19.64C29.6433 19.9493 29.3927 20.2213 29.062 20.456C28.742 20.68 28.3367 20.8613 27.846 21C27.366 21.128 26.806 21.192 26.166 21.192ZM36.5117 21.192C35.8824 21.192 35.3011 21.1013 34.7677 20.92C34.2344 20.728 33.7651 20.456 33.3597 20.104C32.9651 19.752 32.6557 19.32 32.4317 18.808C32.2077 18.2853 32.0957 17.6933 32.0957 17.032C32.0957 16.3707 32.2184 15.784 32.4637 15.272C32.7197 14.7493 33.0557 14.312 33.4717 13.96C33.8984 13.608 34.3891 13.3413 34.9437 13.16C35.4984 12.968 36.0797 12.872 36.6877 12.872C37.3171 12.872 37.8824 12.9733 38.3837 13.176C38.8957 13.3787 39.3224 13.6347 39.6637 13.944L38.5757 15.4C37.9891 14.984 37.4024 14.776 36.8157 14.776C36.1331 14.776 35.5784 14.9787 35.1517 15.384C34.7251 15.7893 34.5117 16.3387 34.5117 17.032C34.5117 17.7253 34.7144 18.2747 35.1197 18.68C35.5357 19.0853 36.0744 19.288 36.7357 19.288C37.1517 19.288 37.5304 19.2133 37.8717 19.064C38.2237 18.9147 38.5437 18.7387 38.8317 18.536L39.7757 20.024C39.2957 20.4293 38.7677 20.728 38.1917 20.92C37.6157 21.1013 37.0557 21.192 36.5117 21.192ZM42.4735 21V13.064H44.3935L44.5855 14.792H44.6335C45.0282 14.1413 45.5028 13.6613 46.0575 13.352C46.6122 13.032 47.2095 12.872 47.8495 12.872C48.2015 12.872 48.4842 12.8987 48.6975 12.952C48.9215 13.0053 49.1508 13.0853 49.3855 13.192L48.9055 15.16C48.6602 15.0853 48.4362 15.032 48.2335 15C48.0415 14.9573 47.7962 14.936 47.4975 14.936C47.0068 14.936 46.5215 15.08 46.0415 15.368C45.5722 15.656 45.1668 16.1573 44.8255 16.872V21H42.4735ZM54.6592 21V14.904H51.4752V13.064H57.0112V21H54.6592ZM55.7312 11.816C55.2726 11.816 54.8939 11.688 54.5952 11.432C54.3072 11.176 54.1632 10.8293 54.1632 10.392C54.1632 9.95467 54.3072 9.60267 54.5952 9.336C54.8939 9.05867 55.2726 8.92 55.7312 8.92C56.1899 8.92 56.5632 9.05867 56.8512 9.336C57.1499 9.60267 57.2992 9.95467 57.2992 10.392C57.2992 10.8293 57.1499 11.176 56.8512 11.432C56.5632 11.688 56.1899 11.816 55.7312 11.816ZM60.957 23.944V13.064H62.877L63.053 13.864H63.101C63.421 13.576 63.789 13.3413 64.205 13.16C64.621 12.968 65.0423 12.872 65.469 12.872C65.9597 12.872 66.4023 12.968 66.797 13.16C67.1917 13.352 67.5277 13.624 67.805 13.976C68.0823 14.328 68.2903 14.7547 68.429 15.256C68.5783 15.7467 68.653 16.296 68.653 16.904C68.653 17.5867 68.557 18.1947 68.365 18.728C68.173 19.2507 67.917 19.6987 67.597 20.072C67.277 20.4347 66.909 20.712 66.493 20.904C66.0877 21.096 65.661 21.192 65.213 21.192C64.4877 21.192 63.837 20.904 63.261 20.328H63.197L63.309 21.624V23.944H60.957ZM64.669 19.272C65.117 19.272 65.4903 19.0907 65.789 18.728C66.0877 18.3547 66.237 17.7573 66.237 16.936C66.237 15.5067 65.7517 14.792 64.781 14.792C64.2797 14.792 63.789 15.0373 63.309 15.528V18.744C63.533 18.936 63.7623 19.0747 63.997 19.16C64.2423 19.2347 64.4663 19.272 64.669 19.272ZM75.6067 21.192C74.9774 21.192 74.4441 21.1067 74.0067 20.936C73.5694 20.7653 73.2121 20.5307 72.9347 20.232C72.6681 19.9227 72.4761 19.5547 72.3587 19.128C72.2414 18.7013 72.1827 18.2267 72.1827 17.704V14.904H70.1827V13.16L72.2947 13.064L72.5987 10.632H74.5347V13.064H77.8947V14.904H74.5347V17.688C74.5347 18.296 74.6681 18.728 74.9347 18.984C75.2014 19.2293 75.6281 19.352 76.2147 19.352C76.5134 19.352 76.7854 19.3253 77.0307 19.272C77.2867 19.2187 77.5374 19.1493 77.7827 19.064L78.1987 20.76C77.8467 20.8667 77.4574 20.9627 77.0307 21.048C76.6147 21.144 76.1401 21.192 75.6067 21.192Z" fill="#232A3D"/>
<path d="M20.408 268V266.496H23.24V259.808H20.984V258.656C21.304 258.613 21.592 258.565 21.848 258.512C22.104 258.448 22.3387 258.384 22.552 258.32C22.776 258.256 22.984 258.181 23.176 258.096C23.368 258.011 23.5547 257.92 23.736 257.824H25.08V266.496H27.576V268H20.408ZM23.8 288.192C22.6373 288.192 21.7147 287.733 21.032 286.816C20.36 285.899 20.024 284.581 20.024 282.864C20.024 281.136 20.36 279.835 21.032 278.96C21.7147 278.075 22.6373 277.632 23.8 277.632C24.9627 277.632 25.88 278.075 26.552 278.96C27.2347 279.835 27.576 281.136 27.576 282.864C27.576 284.581 27.2347 285.899 26.552 286.816C25.88 287.733 24.9627 288.192 23.8 288.192ZM23.8 286.752C24.0987 286.752 24.376 286.683 24.632 286.544C24.8987 286.395 25.1227 286.165 25.304 285.856C25.496 285.547 25.6453 285.147 25.752 284.656C25.8587 284.155 25.912 283.557 25.912 282.864C25.912 282.171 25.8587 281.584 25.752 281.104C25.6453 280.613 25.496 280.219 25.304 279.92C25.1227 279.621 24.8987 279.408 24.632 279.28C24.376 279.141 24.0987 279.072 23.8 279.072C23.4907 279.072 23.208 279.141 22.952 279.28C22.696 279.408 22.472 279.621 22.28 279.92C22.0987 280.219 21.9547 280.613 21.848 281.104C21.7413 281.584 21.688 282.171 21.688 282.864C21.688 283.557 21.7413 284.155 21.848 284.656C21.9547 285.147 22.0987 285.547 22.28 285.856C22.472 286.165 22.696 286.395 22.952 286.544C23.208 286.683 23.4907 286.752 23.8 286.752ZM23.8 283.936C23.4907 283.936 23.2293 283.835 23.016 283.632C22.8027 283.429 22.696 283.152 22.696 282.8C22.696 282.448 22.8027 282.171 23.016 281.968C23.2293 281.765 23.4907 281.664 23.8 281.664C24.1093 281.664 24.3707 281.765 24.584 281.968C24.7973 282.171 24.904 282.448 24.904 282.8C24.904 283.152 24.7973 283.429 24.584 283.632C24.3707 283.835 24.1093 283.936 23.8 283.936ZM23.528 308.192C22.6533 308.192 21.9067 308.053 21.288 307.776C20.6693 307.499 20.1733 307.157 19.8 306.752L20.664 305.568C21.0053 305.877 21.4 306.144 21.848 306.368C22.3067 306.581 22.8133 306.688 23.368 306.688C23.9973 306.688 24.5147 306.555 24.92 306.288C25.336 306.011 25.544 305.632 25.544 305.152C25.544 304.885 25.4853 304.645 25.368 304.432C25.2507 304.219 25.0587 304.037 24.792 303.888C24.536 303.739 24.1893 303.627 23.752 303.552C23.3253 303.467 22.7973 303.424 22.168 303.424V302.08C22.712 302.08 23.176 302.043 23.56 301.968C23.944 301.883 24.2533 301.771 24.488 301.632C24.7333 301.483 24.9093 301.307 25.016 301.104C25.1333 300.901 25.192 300.683 25.192 300.448C25.192 300.021 25.0267 299.691 24.696 299.456C24.376 299.211 23.944 299.088 23.4 299.088C22.952 299.088 22.536 299.179 22.152 299.36C21.7787 299.531 21.4213 299.76 21.08 300.048L20.12 298.912C20.5893 298.528 21.1013 298.219 21.656 297.984C22.2107 297.749 22.8187 297.632 23.48 297.632C24.0027 297.632 24.4827 297.691 24.92 297.808C25.3573 297.925 25.7307 298.101 26.04 298.336C26.36 298.56 26.6053 298.843 26.776 299.184C26.9573 299.515 27.048 299.893 27.048 300.32C27.048 300.896 26.8613 301.376 26.488 301.76C26.1147 302.144 25.6133 302.443 24.984 302.656V302.72C25.3147 302.805 25.624 302.923 25.912 303.072C26.2107 303.211 26.4667 303.387 26.68 303.6C26.904 303.813 27.08 304.059 27.208 304.336C27.336 304.613 27.4 304.917 27.4 305.248C27.4 305.717 27.2933 306.133 27.08 306.496C26.8773 306.859 26.6 307.168 26.248 307.424C25.896 307.669 25.4853 307.861 25.016 308C24.5467 308.128 24.0507 308.192 23.528 308.192ZM20.04 328V326.928C20.84 326.245 21.5547 325.621 22.184 325.056C22.8133 324.48 23.3467 323.947 23.784 323.456C24.232 322.965 24.5733 322.507 24.808 322.08C25.0427 321.653 25.16 321.243 25.16 320.848C25.16 320.304 24.9947 319.877 24.664 319.568C24.3333 319.248 23.848 319.088 23.208 319.088C22.76 319.088 22.3493 319.2 21.976 319.424C21.6133 319.648 21.2773 319.915 20.968 320.224L19.96 319.2C20.4507 318.699 20.968 318.315 21.512 318.048C22.056 317.771 22.7013 317.632 23.448 317.632C23.9707 317.632 24.4453 317.707 24.872 317.856C25.2987 318.005 25.6613 318.219 25.96 318.496C26.2693 318.763 26.504 319.088 26.664 319.472C26.8347 319.856 26.92 320.283 26.92 320.752C26.92 321.2 26.808 321.659 26.584 322.128C26.3707 322.587 26.0773 323.056 25.704 323.536C25.3307 324.005 24.8827 324.491 24.36 324.992C23.848 325.493 23.2987 326.011 22.712 326.544C23.0107 326.523 23.3253 326.501 23.656 326.48C23.9867 326.448 24.2907 326.432 24.568 326.432H27.448V328H20.04ZM23.544 348.192C22.648 348.192 21.9013 348.053 21.304 347.776C20.7173 347.488 20.2213 347.157 19.816 346.784L20.664 345.6C21.0053 345.888 21.384 346.144 21.8 346.368C22.2267 346.581 22.7333 346.688 23.32 346.688C23.96 346.688 24.4933 346.517 24.92 346.176C25.3573 345.835 25.576 345.355 25.576 344.736C25.576 344.128 25.3733 343.659 24.968 343.328C24.5733 342.997 24.0507 342.832 23.4 342.832C23.0267 342.832 22.7067 342.88 22.44 342.976C22.1733 343.061 21.864 343.205 21.512 343.408L20.632 342.848L20.952 337.824H26.952V339.376H22.552L22.328 341.84C22.5947 341.733 22.8507 341.653 23.096 341.6C23.3413 341.536 23.6187 341.504 23.928 341.504C24.408 341.504 24.8613 341.568 25.288 341.696C25.7147 341.824 26.0827 342.021 26.392 342.288C26.712 342.544 26.9627 342.875 27.144 343.28C27.336 343.675 27.432 344.144 27.432 344.688C27.432 345.243 27.3253 345.739 27.112 346.176C26.8987 346.613 26.6107 346.981 26.248 347.28C25.8853 347.579 25.4693 347.808 25 347.968C24.5413 348.117 24.056 348.192 23.544 348.192ZM24.664 368V365.376H19.592V364.128L24.264 357.808H26.392V363.952H27.832V365.376H26.392V368H24.664ZM21.464 363.952H24.664V361.52C24.6747 361.211 24.6853 360.875 24.696 360.512C24.7173 360.149 24.7387 359.813 24.76 359.504H24.68C24.5093 359.771 24.3333 360.037 24.152 360.304C23.9707 360.571 23.7893 360.843 23.608 361.12L21.464 363.952Z" fill="black"/>
<path d="M267.216 80H269.584V69.568H267.216V80ZM272.157 77.12C272.157 78.96 272.925 80.192 274.893 80.192C275.661 80.192 276.237 80.032 276.653 79.904L276.285 78.192C276.077 78.272 275.789 78.352 275.533 78.352C274.909 78.352 274.509 77.984 274.509 77.088V73.904H276.413V72.064H274.509V69.952H272.557L272.285 72.064L271.069 72.16V73.904H272.157V77.12ZM277.342 76.032C277.342 78.656 279.086 80.192 281.358 80.192C282.302 80.192 283.358 79.856 284.174 79.296L283.39 77.872C282.814 78.224 282.27 78.4 281.678 78.4C280.622 78.4 279.822 77.872 279.614 76.672H284.366C284.414 76.48 284.462 76.096 284.462 75.68C284.462 73.52 283.342 71.872 281.086 71.872C279.182 71.872 277.342 73.456 277.342 76.032ZM279.598 75.216C279.758 74.16 280.398 73.664 281.134 73.664C282.078 73.664 282.462 74.304 282.462 75.216H279.598ZM286.087 80H288.439V75.392C288.855 74.32 289.591 73.936 290.183 73.936C290.519 73.936 290.759 73.984 291.047 74.064L291.431 72.032C291.207 71.936 290.935 71.872 290.487 71.872C289.671 71.872 288.807 72.384 288.231 73.456H288.167L288.007 72.064H286.087V80ZM291.705 77.792C291.705 79.136 292.617 80.192 294.057 80.192C294.953 80.192 295.705 79.776 296.377 79.184H296.425L296.601 80H298.521V75.456C298.521 73.024 297.401 71.872 295.369 71.872C294.121 71.872 292.985 72.304 291.977 72.912L292.809 74.464C293.577 74.016 294.249 73.744 294.921 73.744C295.769 73.744 296.121 74.192 296.169 74.896C293.033 75.216 291.705 76.128 291.705 77.792ZM293.945 77.616C293.945 77.008 294.489 76.528 296.169 76.304V77.696C295.753 78.112 295.401 78.368 294.857 78.368C294.297 78.368 293.945 78.128 293.945 77.616ZM300.86 77.12C300.86 78.96 301.628 80.192 303.596 80.192C304.364 80.192 304.94 80.032 305.356 79.904L304.988 78.192C304.78 78.272 304.492 78.352 304.236 78.352C303.612 78.352 303.212 77.984 303.212 77.088V73.904H305.116V72.064H303.212V69.952H301.26L300.988 72.064L299.772 72.16V73.904H300.86V77.12ZM307.833 70.896C308.633 70.896 309.193 70.384 309.193 69.664C309.193 68.944 308.633 68.448 307.833 68.448C307.049 68.448 306.473 68.944 306.473 69.664C306.473 70.384 307.049 70.896 307.833 70.896ZM306.665 80H309.017V72.064H306.665V80ZM310.623 76.032C310.623 78.672 312.479 80.192 314.495 80.192C316.495 80.192 318.351 78.672 318.351 76.032C318.351 73.392 316.495 71.872 314.495 71.872C312.479 71.872 310.623 73.392 310.623 76.032ZM313.039 76.032C313.039 74.656 313.519 73.776 314.495 73.776C315.455 73.776 315.951 74.656 315.951 76.032C315.951 77.408 315.455 78.288 314.495 78.288C313.519 78.288 313.039 77.408 313.039 76.032ZM319.962 80H322.314V74.64C322.826 74.144 323.194 73.872 323.786 73.872C324.458 73.872 324.762 74.224 324.762 75.376V80H327.114V75.072C327.114 73.088 326.378 71.872 324.65 71.872C323.578 71.872 322.778 72.432 322.106 73.072H322.042L321.882 72.064H319.962V80ZM334.305 80H335.841L338.593 72.224H337.297L335.825 76.64C335.601 77.408 335.345 78.192 335.121 78.928H335.057C334.817 78.192 334.561 77.408 334.337 76.64L332.865 72.224H331.505L334.305 80ZM339.397 77.984C339.397 79.376 340.373 80.192 341.685 80.192C342.645 80.192 343.509 79.68 344.261 79.072H344.293L344.405 80H345.493V75.232C345.493 73.296 344.693 72.032 342.789 72.032C341.541 72.032 340.453 72.576 339.733 73.04L340.261 73.952C340.869 73.536 341.669 73.12 342.581 73.12C343.845 73.12 344.181 74.08 344.181 75.072C340.869 75.44 339.397 76.288 339.397 77.984ZM340.693 77.888C340.693 76.896 341.573 76.256 344.181 75.936V78.096C343.429 78.768 342.805 79.136 342.053 79.136C341.285 79.136 340.693 78.768 340.693 77.888ZM347.968 80H349.28V75.008C349.808 73.696 350.592 73.216 351.248 73.216C351.568 73.216 351.744 73.264 352 73.344L352.256 72.192C352 72.08 351.76 72.032 351.424 72.032C350.544 72.032 349.744 72.656 349.216 73.632H349.168L349.056 72.224H347.968V80ZM354.187 70.624C354.699 70.624 355.099 70.272 355.099 69.776C355.099 69.264 354.699 68.928 354.187 68.928C353.675 68.928 353.275 69.264 353.275 69.776C353.275 70.272 353.675 70.624 354.187 70.624ZM353.515 80H354.827V72.224H353.515V80ZM357.069 77.984C357.069 79.376 358.045 80.192 359.357 80.192C360.317 80.192 361.181 79.68 361.933 79.072H361.965L362.077 80H363.165V75.232C363.165 73.296 362.365 72.032 360.461 72.032C359.213 72.032 358.125 72.576 357.405 73.04L357.933 73.952C358.541 73.536 359.341 73.12 360.253 73.12C361.517 73.12 361.853 74.08 361.853 75.072C358.541 75.44 357.069 76.288 357.069 77.984ZM358.365 77.888C358.365 76.896 359.245 76.256 361.853 75.936V78.096C361.101 78.768 360.477 79.136 359.725 79.136C358.957 79.136 358.365 78.768 358.365 77.888ZM365.64 80H366.696L366.808 79.232H366.856C367.544 79.84 368.36 80.192 369.08 80.192C370.856 80.192 372.44 78.64 372.44 75.984C372.44 73.584 371.368 72.032 369.352 72.032C368.488 72.032 367.624 72.496 366.92 73.12L366.952 71.712V68.608H365.64V80ZM366.952 78.272V74.192C367.688 73.504 368.376 73.136 369.032 73.136C370.504 73.136 371.08 74.288 371.08 76C371.08 77.92 370.136 79.088 368.856 79.088C368.344 79.088 367.64 78.864 366.952 78.272ZM374.515 78.432C374.515 79.568 374.915 80.192 375.907 80.192C376.259 80.192 376.483 80.144 376.659 80.064L376.483 79.072C376.339 79.104 376.275 79.104 376.195 79.104C376.003 79.104 375.827 78.944 375.827 78.528V68.608H374.515V78.432ZM378.017 76.128C378.017 78.672 379.665 80.192 381.745 80.192C382.801 80.192 383.633 79.824 384.305 79.392L383.841 78.528C383.265 78.896 382.641 79.136 381.905 79.136C380.417 79.136 379.409 78.08 379.313 76.4H384.561C384.593 76.208 384.609 75.952 384.609 75.68C384.609 73.456 383.489 72.032 381.505 72.032C379.729 72.032 378.017 73.584 378.017 76.128ZM379.297 75.536C379.457 73.968 380.449 73.072 381.537 73.072C382.753 73.072 383.457 73.952 383.457 75.536H379.297Z" fill="#C74E4E"/>
<path d="M267.216 122H269.584V111.568H267.216V122ZM272.157 119.12C272.157 120.96 272.925 122.192 274.893 122.192C275.661 122.192 276.237 122.032 276.653 121.904L276.285 120.192C276.077 120.272 275.789 120.352 275.533 120.352C274.909 120.352 274.509 119.984 274.509 119.088V115.904H276.413V114.064H274.509V111.952H272.557L272.285 114.064L271.069 114.16V115.904H272.157V119.12ZM277.342 118.032C277.342 120.656 279.086 122.192 281.358 122.192C282.302 122.192 283.358 121.856 284.174 121.296L283.39 119.872C282.814 120.224 282.27 120.4 281.678 120.4C280.622 120.4 279.822 119.872 279.614 118.672H284.366C284.414 118.48 284.462 118.096 284.462 117.68C284.462 115.52 283.342 113.872 281.086 113.872C279.182 113.872 277.342 115.456 277.342 118.032ZM279.598 117.216C279.758 116.16 280.398 115.664 281.134 115.664C282.078 115.664 282.462 116.304 282.462 117.216H279.598ZM286.087 122H288.439V117.392C288.855 116.32 289.591 115.936 290.183 115.936C290.519 115.936 290.759 115.984 291.047 116.064L291.431 114.032C291.207 113.936 290.935 113.872 290.487 113.872C289.671 113.872 288.807 114.384 288.231 115.456H288.167L288.007 114.064H286.087V122ZM291.705 119.792C291.705 121.136 292.617 122.192 294.057 122.192C294.953 122.192 295.705 121.776 296.377 121.184H296.425L296.601 122H298.521V117.456C298.521 115.024 297.401 113.872 295.369 113.872C294.121 113.872 292.985 114.304 291.977 114.912L292.809 116.464C293.577 116.016 294.249 115.744 294.921 115.744C295.769 115.744 296.121 116.192 296.169 116.896C293.033 117.216 291.705 118.128 291.705 119.792ZM293.945 119.616C293.945 119.008 294.489 118.528 296.169 118.304V119.696C295.753 120.112 295.401 120.368 294.857 120.368C294.297 120.368 293.945 120.128 293.945 119.616ZM300.54 122H302.38L302.572 121.168H302.636C303.26 121.84 303.996 122.192 304.7 122.192C306.412 122.192 308.044 120.624 308.044 117.888C308.044 115.456 306.844 113.872 304.924 113.872C304.188 113.872 303.436 114.208 302.828 114.752L302.892 113.536V110.784H300.54V122ZM302.892 119.76V116.512C303.34 116.016 303.772 115.792 304.252 115.792C305.196 115.792 305.628 116.512 305.628 117.936C305.628 119.568 304.972 120.272 304.156 120.272C303.756 120.272 303.308 120.144 302.892 119.76ZM309.712 119.536C309.712 121.136 310.256 122.192 311.872 122.192C312.4 122.192 312.8 122.112 313.056 122L312.768 120.256C312.64 120.288 312.576 120.288 312.48 120.288C312.288 120.288 312.064 120.128 312.064 119.632V110.784H309.712V119.536ZM313.826 118.032C313.826 120.656 315.57 122.192 317.842 122.192C318.786 122.192 319.842 121.856 320.658 121.296L319.874 119.872C319.298 120.224 318.754 120.4 318.162 120.4C317.106 120.4 316.306 119.872 316.098 118.672H320.85C320.898 118.48 320.946 118.096 320.946 117.68C320.946 115.52 319.826 113.872 317.57 113.872C315.666 113.872 313.826 115.456 313.826 118.032ZM316.082 117.216C316.242 116.16 316.882 115.664 317.618 115.664C318.562 115.664 318.946 116.304 318.946 117.216H316.082ZM327.851 122H329.387L332.139 114.224H330.843L329.371 118.64C329.147 119.408 328.891 120.192 328.667 120.928H328.603C328.363 120.192 328.107 119.408 327.883 118.64L326.411 114.224H325.051L327.851 122ZM332.944 119.984C332.944 121.376 333.92 122.192 335.232 122.192C336.192 122.192 337.056 121.68 337.808 121.072H337.84L337.952 122H339.04V117.232C339.04 115.296 338.24 114.032 336.336 114.032C335.088 114.032 334 114.576 333.28 115.04L333.808 115.952C334.416 115.536 335.216 115.12 336.128 115.12C337.392 115.12 337.728 116.08 337.728 117.072C334.416 117.44 332.944 118.288 332.944 119.984ZM334.24 119.888C334.24 118.896 335.12 118.256 337.728 117.936V120.096C336.976 120.768 336.352 121.136 335.6 121.136C334.832 121.136 334.24 120.768 334.24 119.888ZM341.515 122H342.827V117.008C343.355 115.696 344.139 115.216 344.795 115.216C345.115 115.216 345.291 115.264 345.547 115.344L345.803 114.192C345.547 114.08 345.307 114.032 344.971 114.032C344.091 114.032 343.291 114.656 342.763 115.632H342.715L342.603 114.224H341.515V122ZM347.734 112.624C348.246 112.624 348.646 112.272 348.646 111.776C348.646 111.264 348.246 110.928 347.734 110.928C347.222 110.928 346.822 111.264 346.822 111.776C346.822 112.272 347.222 112.624 347.734 112.624ZM347.062 122H348.374V114.224H347.062V122ZM350.616 119.984C350.616 121.376 351.592 122.192 352.904 122.192C353.864 122.192 354.728 121.68 355.48 121.072H355.512L355.624 122H356.712V117.232C356.712 115.296 355.912 114.032 354.008 114.032C352.76 114.032 351.672 114.576 350.952 115.04L351.48 115.952C352.088 115.536 352.888 115.12 353.799 115.12C355.064 115.12 355.4 116.08 355.4 117.072C352.088 117.44 350.616 118.288 350.616 119.984ZM351.912 119.888C351.912 118.896 352.792 118.256 355.4 117.936V120.096C354.648 120.768 354.024 121.136 353.272 121.136C352.504 121.136 351.912 120.768 351.912 119.888ZM359.187 122H360.243L360.355 121.232H360.403C361.091 121.84 361.907 122.192 362.627 122.192C364.403 122.192 365.987 120.64 365.987 117.984C365.987 115.584 364.915 114.032 362.899 114.032C362.035 114.032 361.171 114.496 360.467 115.12L360.499 113.712V110.608H359.187V122ZM360.499 120.272V116.192C361.235 115.504 361.923 115.136 362.579 115.136C364.051 115.136 364.627 116.288 364.627 118C364.627 119.92 363.683 121.088 362.403 121.088C361.891 121.088 361.187 120.864 360.499 120.272ZM368.062 120.432C368.062 121.568 368.462 122.192 369.454 122.192C369.806 122.192 370.03 122.144 370.206 122.064L370.03 121.072C369.886 121.104 369.822 121.104 369.742 121.104C369.55 121.104 369.374 120.944 369.374 120.528V110.608H368.062V120.432ZM371.564 118.128C371.564 120.672 373.212 122.192 375.292 122.192C376.348 122.192 377.18 121.824 377.852 121.392L377.388 120.528C376.812 120.896 376.188 121.136 375.452 121.136C373.964 121.136 372.956 120.08 372.86 118.4H378.108C378.14 118.208 378.156 117.952 378.156 117.68C378.156 115.456 377.036 114.032 375.052 114.032C373.276 114.032 371.564 115.584 371.564 118.128ZM372.844 117.536C373.004 115.968 373.996 115.072 375.084 115.072C376.3 115.072 377.004 115.952 377.004 117.536H372.844Z" fill="#C74E4E"/>
<path d="M267.216 160H271.088C273.36 160 275.152 159.056 275.152 156.928C275.152 155.536 274.368 154.752 272.88 154.48V154.416C274.096 154.096 274.64 153.088 274.64 152.16C274.64 150.16 272.96 149.568 270.784 149.568H267.216V160ZM269.584 153.776V151.392H270.704C271.792 151.392 272.336 151.712 272.336 152.496C272.336 153.28 271.824 153.776 270.672 153.776H269.584ZM269.584 158.176V155.44H270.896C272.192 155.44 272.848 155.84 272.848 156.752C272.848 157.696 272.176 158.176 270.896 158.176H269.584ZM276.232 156.032C276.232 158.672 278.088 160.192 280.104 160.192C282.104 160.192 283.96 158.672 283.96 156.032C283.96 153.392 282.104 151.872 280.104 151.872C278.088 151.872 276.232 153.392 276.232 156.032ZM278.648 156.032C278.648 154.656 279.128 153.776 280.104 153.776C281.064 153.776 281.56 154.656 281.56 156.032C281.56 157.408 281.064 158.288 280.104 158.288C279.128 158.288 278.648 157.408 278.648 156.032ZM285.155 156.032C285.155 158.624 286.435 160.192 288.403 160.192C289.171 160.192 289.955 159.776 290.515 159.216H290.579L290.739 160H292.659V148.784H290.307V151.488L290.403 152.704C289.859 152.192 289.331 151.872 288.451 151.872C286.771 151.872 285.155 153.44 285.155 156.032ZM287.571 156C287.571 154.496 288.243 153.792 288.995 153.792C289.427 153.792 289.891 153.92 290.307 154.304V157.552C289.923 158.08 289.523 158.272 289.011 158.272C288.099 158.272 287.571 157.568 287.571 156ZM294.919 161.152L294.503 162.944C294.823 163.04 295.143 163.104 295.623 163.104C297.495 163.104 298.343 162.08 299.095 160.08L301.847 152.064H299.591L298.631 155.472C298.439 156.224 298.263 156.976 298.087 157.728H298.023C297.815 156.944 297.623 156.192 297.399 155.472L296.263 152.064H293.895L296.951 159.792L296.839 160.208C296.631 160.832 296.231 161.248 295.447 161.248C295.271 161.248 295.063 161.184 294.919 161.152ZM306.111 156.128C306.111 158.704 307.807 160.192 309.711 160.192C311.615 160.192 313.311 158.704 313.311 156.128C313.311 153.52 311.615 152.032 309.711 152.032C307.807 152.032 306.111 153.52 306.111 156.128ZM307.471 156.128C307.471 154.336 308.383 153.12 309.711 153.12C311.055 153.12 311.951 154.336 311.951 156.128C311.951 157.904 311.055 159.104 309.711 159.104C308.383 159.104 307.471 157.904 307.471 156.128ZM319.151 148.672C318.799 148.528 318.335 148.416 317.855 148.416C316.303 148.416 315.583 149.408 315.583 150.992V152.224L314.527 152.304V153.296H315.583V160H316.895V153.296H318.543V152.224H316.895V150.992C316.895 150 317.247 149.488 317.983 149.488C318.271 149.488 318.575 149.552 318.863 149.68L319.151 148.672ZM323.489 157.6C323.489 159.136 324.049 160.192 325.713 160.192C326.193 160.192 326.721 160.048 327.153 159.904L326.897 158.912C326.641 159.008 326.289 159.12 326.017 159.12C325.121 159.12 324.817 158.576 324.817 157.616V153.296H326.913V152.224H324.817V150.048H323.713L323.553 152.224L322.337 152.304V153.296H323.489V157.6ZM328.671 160H329.983V154.368C330.767 153.584 331.311 153.168 332.111 153.168C333.135 153.168 333.583 153.792 333.583 155.248V160H334.895V155.072C334.895 153.088 334.159 152.032 332.527 152.032C331.455 152.032 330.671 152.608 329.935 153.312L329.983 151.712V148.608H328.671V160ZM336.799 156.128C336.799 158.672 338.447 160.192 340.527 160.192C341.583 160.192 342.415 159.824 343.087 159.392L342.623 158.528C342.047 158.896 341.423 159.136 340.687 159.136C339.199 159.136 338.191 158.08 338.095 156.4H343.343C343.375 156.208 343.391 155.952 343.391 155.68C343.391 153.456 342.271 152.032 340.286 152.032C338.511 152.032 336.799 153.584 336.799 156.128ZM338.079 155.536C338.239 153.968 339.231 153.072 340.319 153.072C341.535 153.072 342.239 153.952 342.239 155.536H338.079ZM348.546 158.432C348.546 159.568 348.946 160.192 349.938 160.192C350.29 160.192 350.514 160.144 350.69 160.064L350.514 159.072C350.37 159.104 350.306 159.104 350.226 159.104C350.034 159.104 349.858 158.944 349.858 158.528V148.608H348.546V158.432ZM352.049 156.128C352.049 158.704 353.745 160.192 355.649 160.192C357.553 160.192 359.249 158.704 359.249 156.128C359.249 153.52 357.553 152.032 355.649 152.032C353.745 152.032 352.049 153.52 352.049 156.128ZM353.409 156.128C353.409 154.336 354.321 153.12 355.649 153.12C356.993 153.12 357.889 154.336 357.889 156.128C357.889 157.904 356.993 159.104 355.649 159.104C354.321 159.104 353.409 157.904 353.409 156.128ZM360.72 156.128C360.72 158.704 362.416 160.192 364.32 160.192C366.224 160.192 367.92 158.704 367.92 156.128C367.92 153.52 366.224 152.032 364.32 152.032C362.416 152.032 360.72 153.52 360.72 156.128ZM362.08 156.128C362.08 154.336 362.992 153.12 364.32 153.12C365.664 153.12 366.56 154.336 366.56 156.128C366.56 157.904 365.664 159.104 364.32 159.104C362.992 159.104 362.08 157.904 362.08 156.128ZM371.248 159.296C371.968 159.856 372.688 160.192 373.408 160.192C375.184 160.192 376.768 158.64 376.768 156C376.768 153.584 375.696 152.032 373.696 152.032C372.784 152.032 371.92 152.528 371.216 153.12H371.168L371.056 152.224H369.968V163.28H371.28V160.656L371.248 159.296ZM371.28 158.272V154.192C372.048 153.504 372.704 153.136 373.36 153.136C374.832 153.136 375.408 154.288 375.408 156C375.408 157.92 374.464 159.088 373.184 159.088C372.672 159.088 371.984 158.864 371.28 158.272Z" fill="#C74E4E"/>
<path d="M224.793 155.293C224.402 155.683 224.402 156.317 224.793 156.707L231.157 163.071C231.547 163.462 232.181 163.462 232.571 163.071C232.962 162.681 232.962 162.047 232.571 161.657L226.914 156L232.571 150.343C232.962 149.953 232.962 149.319 232.571 148.929C232.181 148.538 231.547 148.538 231.157 148.929L224.793 155.293ZM258.5 155H225.5V157H258.5V155Z" fill="url(#paint0_linear_6:30)"/>
<path d="M224.793 115.293C224.402 115.683 224.402 116.317 224.793 116.707L231.157 123.071C231.547 123.462 232.181 123.462 232.571 123.071C232.962 122.681 232.962 122.047 232.571 121.657L226.914 116L232.571 110.343C232.962 109.953 232.962 109.319 232.571 108.929C232.181 108.538 231.547 108.538 231.157 108.929L224.793 115.293ZM258.5 115H225.5V117H258.5V115Z" fill="url(#paint1_linear_6:30)"/>
<path d="M96.5602 100.342C96.7489 100.861 97.3227 101.129 97.8417 100.94L106.3 97.8642C106.819 97.6754 107.087 97.1017 106.898 96.5826C106.709 96.0636 106.135 95.7958 105.616 95.9846L98.098 98.7185L95.3641 91.2002C95.1754 90.6811 94.6016 90.4134 94.0826 90.6021C93.5635 90.7909 93.2958 91.3646 93.4845 91.8837L96.5602 100.342ZM255.804 74.0194C222.208 80.7386 188.058 75.7561 159.35 74.6882C145.051 74.1563 132.074 74.6005 121.327 78.0558C110.523 81.5292 101.975 88.0461 96.5938 99.5772L98.4062 100.423C103.525 89.454 111.602 83.2834 121.939 79.9598C132.332 76.6183 145.011 76.1562 159.275 76.6868C187.692 77.7439 222.292 82.7614 256.196 75.9806L255.804 74.0194Z" fill="url(#paint2_linear_6:30)"/>
<defs>
<linearGradient id="paint0_linear_6:30" x1="258.6" y1="156.018" x2="240.558" y2="173.008" gradientUnits="userSpaceOnUse">
<stop stop-color="#E05959" stop-opacity="0.1"/>
<stop offset="1" stop-color="#E05959"/>
</linearGradient>
<linearGradient id="paint1_linear_6:30" x1="258.6" y1="116.018" x2="240.558" y2="133.008" gradientUnits="userSpaceOnUse">
<stop stop-color="#E05959" stop-opacity="0.1"/>
<stop offset="1" stop-color="#E05959"/>
</linearGradient>
<linearGradient id="paint2_linear_6:30" x1="256.518" y1="70.5429" x2="84.5133" y2="99.5962" gradientUnits="userSpaceOnUse">
<stop stop-color="#E05959" stop-opacity="0.1"/>
<stop offset="1" stop-color="#E05959"/>
</linearGradient>
</defs>
</svg>
