<svg width="432" height="250" viewBox="0 0 432 250" fill="none" xmlns="http://www.w3.org/2000/svg">
<rect width="432" height="250" fill="white"/>
<rect y="24" width="166" height="66" rx="4" fill="#EFF1F6"/>
<rect y="130" width="166" height="55" rx="4" fill="#EFF1F6"/>
<g style="mix-blend-mode:multiply" opacity="0.4">
<rect x="8" y="138" width="52" height="20" rx="10" fill="#31CB8A"/>
</g>
<g style="mix-blend-mode:multiply" opacity="0.4">
<rect x="8" y="158" width="61" height="20" rx="10" fill="#C74E4E"/>
</g>
<path d="M19.39 145.08H16.465V143.22H24.535V145.08H21.61V153H19.39V145.08ZM26.7341 145.56H28.5341L28.7141 147.18H28.7591C29.1291 146.57 29.5741 146.12 30.0941 145.83C30.6141 145.53 31.1741 145.38 31.7741 145.38C32.1041 145.38 32.3691 145.405 32.5691 145.455C32.7791 145.505 32.9941 145.58 33.2141 145.68L32.7641 147.525C32.5341 147.455 32.3241 147.405 32.1341 147.375C31.9541 147.335 31.7241 147.315 31.4441 147.315C30.9841 147.315 30.5291 147.45 30.0791 147.72C29.6391 147.99 29.2591 148.46 28.9391 149.13V153H26.7341V145.56ZM41.8633 153H40.0633L39.8983 151.935H39.8383C39.5083 152.315 39.1433 152.62 38.7433 152.85C38.3433 153.07 37.8733 153.18 37.3333 153.18C36.4833 153.18 35.8683 152.91 35.4883 152.37C35.1083 151.83 34.9183 151.09 34.9183 150.15V145.56H37.1233V149.865C37.1233 150.365 37.1983 150.73 37.3483 150.96C37.4983 151.19 37.7833 151.305 38.2033 151.305C38.4833 151.305 38.7283 151.245 38.9383 151.125C39.1583 151.005 39.3983 150.78 39.6583 150.45V145.56H41.8633V153ZM43.8074 149.28C43.8074 148.67 43.9124 148.125 44.1224 147.645C44.3424 147.165 44.6324 146.76 44.9924 146.43C45.3524 146.09 45.7624 145.83 46.2224 145.65C46.6924 145.47 47.1774 145.38 47.6774 145.38C48.2474 145.38 48.7524 145.47 49.1924 145.65C49.6324 145.83 49.9974 146.08 50.2874 146.4C50.5774 146.72 50.7974 147.1 50.9474 147.54C51.0974 147.97 51.1724 148.44 51.1724 148.95C51.1724 149.15 51.1624 149.34 51.1424 149.52C51.1224 149.7 51.1024 149.835 51.0824 149.925H46.0724C46.1524 150.485 46.3924 150.89 46.7924 151.14C47.2024 151.38 47.6824 151.5 48.2324 151.5C48.5724 151.5 48.8924 151.46 49.1924 151.38C49.5024 151.29 49.8224 151.16 50.1524 150.99L50.8724 152.31C50.4524 152.58 49.9824 152.795 49.4624 152.955C48.9424 153.105 48.4324 153.18 47.9324 153.18C47.3524 153.18 46.8124 153.095 46.3124 152.925C45.8124 152.745 45.3774 152.49 45.0074 152.16C44.6374 151.82 44.3424 151.41 44.1224 150.93C43.9124 150.45 43.8074 149.9 43.8074 149.28ZM49.1774 148.47C49.1774 148.05 49.0624 147.71 48.8324 147.45C48.6024 147.19 48.2324 147.06 47.7224 147.06C47.3224 147.06 46.9674 147.175 46.6574 147.405C46.3474 147.635 46.1424 147.99 46.0424 148.47H49.1774ZM17.62 162.22H24.07V164.08H19.825V166.345H23.44V168.205H19.825V172H17.62V162.22ZM25.9091 169.93C25.9091 169.51 25.9991 169.145 26.1791 168.835C26.3591 168.515 26.6441 168.245 27.0341 168.025C27.4341 167.805 27.9441 167.63 28.5641 167.5C29.1841 167.36 29.9341 167.265 30.8141 167.215C30.7741 166.875 30.6241 166.61 30.3641 166.42C30.1141 166.23 29.7341 166.135 29.2241 166.135C28.8641 166.135 28.4991 166.2 28.1291 166.33C27.7691 166.45 27.3791 166.615 26.9591 166.825L26.1791 165.385C26.6891 165.095 27.2341 164.855 27.8141 164.665C28.4041 164.475 29.0191 164.38 29.6591 164.38C30.6991 164.38 31.5191 164.655 32.1191 165.205C32.7191 165.755 33.0191 166.6 33.0191 167.74V172H31.2191L31.0541 171.16H30.9941C30.6141 171.45 30.1991 171.695 29.7491 171.895C29.2991 172.085 28.8341 172.18 28.3541 172.18C27.9741 172.18 27.6341 172.12 27.3341 172C27.0341 171.89 26.7791 171.735 26.5691 171.535C26.3591 171.325 26.1941 171.085 26.0741 170.815C25.9641 170.545 25.9091 170.25 25.9091 169.93ZM28.0241 169.765C28.0241 170.005 28.1141 170.185 28.2941 170.305C28.4841 170.415 28.7391 170.47 29.0591 170.47C29.3891 170.47 29.6991 170.405 29.9891 170.275C30.2791 170.135 30.5541 169.965 30.8141 169.765V168.535C30.2641 168.565 29.8091 168.615 29.4491 168.685C29.0891 168.755 28.8041 168.845 28.5941 168.955C28.3841 169.055 28.2341 169.175 28.1441 169.315C28.0641 169.455 28.0241 169.605 28.0241 169.765ZM34.9183 161.485H39.2833V169.18C39.2833 169.41 39.3133 169.605 39.3733 169.765C39.4433 169.915 39.5333 170.04 39.6433 170.14C39.7633 170.23 39.8933 170.295 40.0333 170.335C40.1833 170.375 40.3333 170.395 40.4833 170.395C40.6533 170.395 40.8333 170.38 41.0233 170.35C41.2133 170.31 41.4233 170.245 41.6533 170.155L42.1483 171.775C41.9483 171.835 41.7633 171.89 41.5933 171.94C41.4233 171.99 41.2533 172.03 41.0833 172.06C40.9133 172.1 40.7333 172.13 40.5433 172.15C40.3533 172.17 40.1433 172.18 39.9133 172.18C38.9733 172.18 38.2633 171.905 37.7833 171.355C37.3133 170.795 37.0783 170.04 37.0783 169.09V163.225H34.9183V161.485ZM44.7674 169.66C45.1974 169.93 45.6274 170.145 46.0574 170.305C46.4974 170.465 46.9674 170.545 47.4674 170.545C47.9774 170.545 48.3424 170.49 48.5624 170.38C48.7824 170.27 48.8924 170.115 48.8924 169.915C48.8924 169.685 48.7074 169.5 48.3374 169.36C47.9774 169.21 47.4974 169.05 46.8974 168.88C46.5674 168.79 46.2424 168.685 45.9224 168.565C45.6124 168.435 45.3324 168.285 45.0824 168.115C44.8324 167.935 44.6274 167.73 44.4674 167.5C44.3174 167.27 44.2424 167.005 44.2424 166.705C44.2424 166.365 44.3224 166.05 44.4824 165.76C44.6424 165.47 44.8674 165.225 45.1574 165.025C45.4574 164.825 45.8174 164.67 46.2374 164.56C46.6674 164.44 47.1474 164.38 47.6774 164.38C48.3374 164.38 48.9374 164.49 49.4774 164.71C50.0274 164.92 50.4974 165.15 50.8874 165.4L49.8974 166.72C49.5574 166.52 49.2074 166.355 48.8474 166.225C48.4874 166.085 48.1124 166.015 47.7224 166.015C47.2524 166.015 46.9174 166.065 46.7174 166.165C46.5274 166.265 46.4324 166.41 46.4324 166.6C46.4324 166.71 46.4824 166.81 46.5824 166.9C46.6824 166.99 46.8174 167.07 46.9874 167.14C47.1574 167.21 47.3574 167.28 47.5874 167.35C47.8274 167.41 48.0774 167.475 48.3374 167.545C48.7074 167.645 49.0574 167.76 49.3874 167.89C49.7174 168.01 50.0074 168.155 50.2574 168.325C50.5074 168.495 50.7074 168.7 50.8574 168.94C51.0074 169.18 51.0824 169.46 51.0824 169.78C51.0824 170.12 51.0024 170.435 50.8424 170.725C50.6824 171.015 50.4474 171.27 50.1374 171.49C49.8374 171.7 49.4574 171.87 48.9974 172C48.5474 172.12 48.0224 172.18 47.4224 172.18C46.7524 172.18 46.0974 172.07 45.4574 171.85C44.8174 171.63 44.2574 171.36 43.7774 171.04L44.7674 169.66ZM52.8016 168.28C52.8016 167.67 52.9066 167.125 53.1166 166.645C53.3366 166.165 53.6266 165.76 53.9866 165.43C54.3466 165.09 54.7566 164.83 55.2166 164.65C55.6866 164.47 56.1716 164.38 56.6716 164.38C57.2416 164.38 57.7466 164.47 58.1866 164.65C58.6266 164.83 58.9916 165.08 59.2816 165.4C59.5716 165.72 59.7916 166.1 59.9416 166.54C60.0916 166.97 60.1666 167.44 60.1666 167.95C60.1666 168.15 60.1566 168.34 60.1366 168.52C60.1166 168.7 60.0966 168.835 60.0766 168.925H55.0666C55.1466 169.485 55.3866 169.89 55.7866 170.14C56.1966 170.38 56.6766 170.5 57.2266 170.5C57.5666 170.5 57.8866 170.46 58.1866 170.38C58.4966 170.29 58.8166 170.16 59.1466 169.99L59.8666 171.31C59.4466 171.58 58.9766 171.795 58.4566 171.955C57.9366 172.105 57.4266 172.18 56.9266 172.18C56.3466 172.18 55.8066 172.095 55.3066 171.925C54.8066 171.745 54.3716 171.49 54.0016 171.16C53.6316 170.82 53.3366 170.41 53.1166 169.93C52.9066 169.45 52.8016 168.9 52.8016 168.28ZM58.1716 167.47C58.1716 167.05 58.0566 166.71 57.8266 166.45C57.5966 166.19 57.2266 166.06 56.7166 166.06C56.3166 166.06 55.9616 166.175 55.6516 166.405C55.3416 166.635 55.1366 166.99 55.0366 167.47H58.1716Z" fill="#232A3D"/>
<path d="M18.2957 52.585V54.76H16.0907V44.56H17.8907L18.0557 45.31H18.1007C18.4007 45.04 18.7457 44.82 19.1357 44.65C19.5257 44.47 19.9207 44.38 20.3207 44.38C20.7807 44.38 21.1957 44.47 21.5657 44.65C21.9357 44.83 22.2507 45.085 22.5107 45.415C22.7707 45.745 22.9657 46.145 23.0957 46.615C23.2357 47.075 23.3057 47.59 23.3057 48.16C23.3057 48.8 23.2157 49.37 23.0357 49.87C22.8557 50.36 22.6157 50.78 22.3157 51.13C22.0157 51.47 21.6707 51.73 21.2807 51.91C20.9007 52.09 20.5007 52.18 20.0807 52.18C19.4007 52.18 18.7807 51.91 18.2207 51.37L18.2957 52.585ZM18.2957 49.885C18.5057 50.065 18.7207 50.195 18.9407 50.275C19.1707 50.345 19.3807 50.38 19.5707 50.38C19.9907 50.38 20.3407 50.21 20.6207 49.87C20.9007 49.52 21.0407 48.96 21.0407 48.19C21.0407 46.85 20.5857 46.18 19.6757 46.18C19.2057 46.18 18.7457 46.41 18.2957 46.87V49.885ZM25.7449 44.56H27.5449L27.7249 46.18H27.7699C28.1399 45.57 28.5849 45.12 29.1049 44.83C29.6249 44.53 30.1849 44.38 30.7849 44.38C31.1149 44.38 31.3799 44.405 31.5799 44.455C31.7899 44.505 32.0049 44.58 32.2249 44.68L31.7749 46.525C31.5449 46.455 31.3349 46.405 31.1449 46.375C30.9649 46.335 30.7349 46.315 30.4549 46.315C29.9949 46.315 29.5399 46.45 29.0899 46.72C28.6499 46.99 28.2699 47.46 27.9499 48.13V52H25.7449V44.56ZM34.184 44.56H39.374V52H37.169V46.285H34.184V44.56ZM38.174 43.465C37.744 43.465 37.389 43.345 37.109 43.105C36.839 42.865 36.704 42.54 36.704 42.13C36.704 41.72 36.839 41.39 37.109 41.14C37.389 40.88 37.744 40.75 38.174 40.75C38.604 40.75 38.954 40.88 39.224 41.14C39.504 41.39 39.644 41.72 39.644 42.13C39.644 42.54 39.504 42.865 39.224 43.105C38.954 43.345 38.604 43.465 38.174 43.465ZM43.0731 44.56H44.8731L45.0381 45.55H45.0981C45.4181 45.23 45.7831 44.955 46.1931 44.725C46.6131 44.495 47.1031 44.38 47.6631 44.38C48.5031 44.38 49.1181 44.65 49.5081 45.19C49.8981 45.73 50.0931 46.47 50.0931 47.41V52H47.8881V47.695C47.8881 47.195 47.8081 46.83 47.6481 46.6C47.4881 46.37 47.2031 46.255 46.7931 46.255C46.4931 46.255 46.2281 46.32 45.9981 46.45C45.7781 46.58 45.5381 46.775 45.2781 47.035V52H43.0731V44.56ZM53.5973 46.285H51.7223V44.65L53.7023 44.56L53.9873 42.58H55.8023V44.56H58.9523V46.285H55.8023V48.895C55.8023 49.465 55.9273 49.87 56.1773 50.11C56.4273 50.34 56.8223 50.455 57.3623 50.455C57.6523 50.455 57.9173 50.43 58.1573 50.38C58.3973 50.33 58.6273 50.265 58.8473 50.185L59.2373 51.775C58.9073 51.875 58.5373 51.965 58.1273 52.045C57.7273 52.135 57.2873 52.18 56.8073 52.18C56.2173 52.18 55.7173 52.1 55.3073 51.94C54.8973 51.78 54.5623 51.56 54.3023 51.28C54.0523 50.99 53.8723 50.645 53.7623 50.245C53.6523 49.845 53.5973 49.4 53.5973 48.91V46.285ZM18.2957 71.585V73.76H16.0907V63.56H17.8907L18.0557 64.31H18.1007C18.4007 64.04 18.7457 63.82 19.1357 63.65C19.5257 63.47 19.9207 63.38 20.3207 63.38C20.7807 63.38 21.1957 63.47 21.5657 63.65C21.9357 63.83 22.2507 64.085 22.5107 64.415C22.7707 64.745 22.9657 65.145 23.0957 65.615C23.2357 66.075 23.3057 66.59 23.3057 67.16C23.3057 67.8 23.2157 68.37 23.0357 68.87C22.8557 69.36 22.6157 69.78 22.3157 70.13C22.0157 70.47 21.6707 70.73 21.2807 70.91C20.9007 71.09 20.5007 71.18 20.0807 71.18C19.4007 71.18 18.7807 70.91 18.2207 70.37L18.2957 71.585ZM18.2957 68.885C18.5057 69.065 18.7207 69.195 18.9407 69.275C19.1707 69.345 19.3807 69.38 19.5707 69.38C19.9907 69.38 20.3407 69.21 20.6207 68.87C20.9007 68.52 21.0407 67.96 21.0407 67.19C21.0407 65.85 20.5857 65.18 19.6757 65.18C19.2057 65.18 18.7457 65.41 18.2957 65.87V68.885ZM25.7449 63.56H27.5449L27.7249 65.18H27.7699C28.1399 64.57 28.5849 64.12 29.1049 63.83C29.6249 63.53 30.1849 63.38 30.7849 63.38C31.1149 63.38 31.3799 63.405 31.5799 63.455C31.7899 63.505 32.0049 63.58 32.2249 63.68L31.7749 65.525C31.5449 65.455 31.3349 65.405 31.1449 65.375C30.9649 65.335 30.7349 65.315 30.4549 65.315C29.9949 65.315 29.5399 65.45 29.0899 65.72C28.6499 65.99 28.2699 66.46 27.9499 67.13V71H25.7449V63.56ZM34.184 63.56H39.374V71H37.169V65.285H34.184V63.56ZM38.174 62.465C37.744 62.465 37.389 62.345 37.109 62.105C36.839 61.865 36.704 61.54 36.704 61.13C36.704 60.72 36.839 60.39 37.109 60.14C37.389 59.88 37.744 59.75 38.174 59.75C38.604 59.75 38.954 59.88 39.224 60.14C39.504 60.39 39.644 60.72 39.644 61.13C39.644 61.54 39.504 61.865 39.224 62.105C38.954 62.345 38.604 62.465 38.174 62.465ZM43.0731 63.56H44.8731L45.0381 64.55H45.0981C45.4181 64.23 45.7831 63.955 46.1931 63.725C46.6131 63.495 47.1031 63.38 47.6631 63.38C48.5031 63.38 49.1181 63.65 49.5081 64.19C49.8981 64.73 50.0931 65.47 50.0931 66.41V71H47.8881V66.695C47.8881 66.195 47.8081 65.83 47.6481 65.6C47.4881 65.37 47.2031 65.255 46.7931 65.255C46.4931 65.255 46.2281 65.32 45.9981 65.45C45.7781 65.58 45.5381 65.775 45.2781 66.035V71H43.0731V63.56ZM53.5973 65.285H51.7223V63.65L53.7023 63.56L53.9873 61.58H55.8023V63.56H58.9523V65.285H55.8023V67.895C55.8023 68.465 55.9273 68.87 56.1773 69.11C56.4273 69.34 56.8223 69.455 57.3623 69.455C57.6523 69.455 57.9173 69.43 58.1573 69.38C58.3973 69.33 58.6273 69.265 58.8473 69.185L59.2373 70.775C58.9073 70.875 58.5373 70.965 58.1273 71.045C57.7273 71.135 57.2873 71.18 56.8073 71.18C56.2173 71.18 55.7173 71.1 55.3073 70.94C54.8973 70.78 54.5623 70.56 54.3023 70.28C54.0523 69.99 53.8723 69.645 53.7623 69.245C53.6523 68.845 53.5973 68.4 53.5973 67.91V65.285Z" fill="#56B4E9"/>
<path d="M65.8614 54.685C64.8814 53.815 64.1064 52.81 63.5364 51.67C62.9764 50.53 62.6964 49.25 62.6964 47.83C62.6964 46.41 62.9764 45.13 63.5364 43.99C64.1064 42.85 64.8814 41.845 65.8614 40.975L67.0914 41.95C66.2014 42.82 65.5514 43.725 65.1414 44.665C64.7414 45.595 64.5414 46.65 64.5414 47.83C64.5414 48.42 64.5914 48.98 64.6914 49.51C64.7914 50.03 64.9414 50.53 65.1414 51.01C65.3514 51.49 65.6164 51.95 65.9364 52.39C66.2564 52.84 66.6414 53.28 67.0914 53.71L65.8614 54.685ZM90.4438 43.945L90.3688 41.95H92.5588L92.4838 43.945L92.1838 48.175H90.7438L90.4438 43.945ZM89.9638 50.65C89.9638 50.2 90.1038 49.84 90.3838 49.57C90.6738 49.29 91.0338 49.15 91.4638 49.15C91.8938 49.15 92.2488 49.29 92.5288 49.57C92.8188 49.84 92.9638 50.2 92.9638 50.65C92.9638 51.1 92.8188 51.47 92.5288 51.76C92.2488 52.04 91.8938 52.18 91.4638 52.18C91.0338 52.18 90.6738 52.04 90.3838 51.76C90.1038 51.47 89.9638 51.1 89.9638 50.65ZM97.008 44.53H103.908V46.09H97.008V44.53ZM97.008 47.995H103.908V49.555H97.008V47.995ZM124.83 53.71C125.28 53.28 125.665 52.84 125.985 52.39C126.305 51.95 126.565 51.49 126.765 51.01C126.975 50.53 127.13 50.03 127.23 49.51C127.33 48.98 127.38 48.42 127.38 47.83C127.38 46.65 127.175 45.595 126.765 44.665C126.365 43.725 125.72 42.82 124.83 41.95L126.06 40.975C127.04 41.845 127.81 42.85 128.37 43.99C128.94 45.13 129.225 46.41 129.225 47.83C129.225 49.25 128.94 50.53 128.37 51.67C127.81 52.81 127.04 53.815 126.06 54.685L124.83 53.71ZM65.8614 73.685C64.8814 72.815 64.1064 71.81 63.5364 70.67C62.9764 69.53 62.6964 68.25 62.6964 66.83C62.6964 65.41 62.9764 64.13 63.5364 62.99C64.1064 61.85 64.8814 60.845 65.8614 59.975L67.0914 60.95C66.2014 61.82 65.5514 62.725 65.1414 63.665C64.7414 64.595 64.5414 65.65 64.5414 66.83C64.5414 67.42 64.5914 67.98 64.6914 68.51C64.7914 69.03 64.9414 69.53 65.1414 70.01C65.3514 70.49 65.6164 70.95 65.9364 71.39C66.2564 71.84 66.6414 72.28 67.0914 72.71L65.8614 73.685ZM90.4438 62.945L90.3688 60.95H92.5588L92.4838 62.945L92.1838 67.175H90.7438L90.4438 62.945ZM89.9638 69.65C89.9638 69.2 90.1038 68.84 90.3838 68.57C90.6738 68.29 91.0338 68.15 91.4638 68.15C91.8938 68.15 92.2488 68.29 92.5288 68.57C92.8188 68.84 92.9638 69.2 92.9638 69.65C92.9638 70.1 92.8188 70.47 92.5288 70.76C92.2488 71.04 91.8938 71.18 91.4638 71.18C91.0338 71.18 90.6738 71.04 90.3838 70.76C90.1038 70.47 89.9638 70.1 89.9638 69.65ZM97.008 63.53H103.908V65.09H97.008V63.53ZM97.008 66.995H103.908V68.555H97.008V66.995ZM124.83 72.71C125.28 72.28 125.665 71.84 125.985 71.39C126.305 70.95 126.565 70.49 126.765 70.01C126.975 69.53 127.13 69.03 127.23 68.51C127.33 67.98 127.38 67.42 127.38 66.83C127.38 65.65 127.175 64.595 126.765 63.665C126.365 62.725 125.72 61.82 124.83 60.95L126.06 59.975C127.04 60.845 127.81 61.85 128.37 62.99C128.94 64.13 129.225 65.41 129.225 66.83C129.225 68.25 128.94 69.53 128.37 70.67C127.81 71.81 127.04 72.815 126.06 73.685L124.83 72.71Z" fill="#232A3D"/>
<path d="M69.8456 50.74C70.5256 50.17 71.1456 49.64 71.7056 49.15C72.2656 48.65 72.7456 48.185 73.1456 47.755C73.5456 47.325 73.8556 46.92 74.0756 46.54C74.2956 46.16 74.4056 45.8 74.4056 45.46C74.4056 44.99 74.2706 44.635 74.0006 44.395C73.7306 44.145 73.3456 44.02 72.8456 44.02C72.4656 44.02 72.1156 44.12 71.7956 44.32C71.4856 44.51 71.1956 44.735 70.9256 44.995L69.7406 43.81C69.9906 43.56 70.2356 43.34 70.4756 43.15C70.7256 42.96 70.9856 42.805 71.2556 42.685C71.5356 42.555 71.8256 42.46 72.1256 42.4C72.4356 42.33 72.7756 42.295 73.1456 42.295C73.6456 42.295 74.1006 42.37 74.5106 42.52C74.9206 42.66 75.2706 42.865 75.5606 43.135C75.8606 43.395 76.0906 43.71 76.2506 44.08C76.4206 44.45 76.5056 44.865 76.5056 45.325C76.5056 45.725 76.4106 46.135 76.2206 46.555C76.0306 46.965 75.7706 47.38 75.4406 47.8C75.1206 48.21 74.7506 48.625 74.3306 49.045C73.9106 49.455 73.4706 49.86 73.0106 50.26C73.2806 50.23 73.5706 50.205 73.8806 50.185C74.2006 50.155 74.4856 50.14 74.7356 50.14H77.0006V52H69.8456V50.74ZM118.446 52.18C117.896 52.18 117.396 52.075 116.946 51.865C116.496 51.645 116.111 51.325 115.791 50.905C115.471 50.485 115.221 49.965 115.041 49.345C114.871 48.725 114.786 48.01 114.786 47.2C114.786 46.39 114.871 45.68 115.041 45.07C115.221 44.46 115.471 43.95 115.791 43.54C116.111 43.12 116.496 42.81 116.946 42.61C117.396 42.4 117.896 42.295 118.446 42.295C118.996 42.295 119.496 42.4 119.946 42.61C120.396 42.81 120.781 43.12 121.101 43.54C121.421 43.95 121.666 44.46 121.836 45.07C122.016 45.68 122.106 46.39 122.106 47.2C122.106 48.01 122.016 48.725 121.836 49.345C121.666 49.965 121.421 50.485 121.101 50.905C120.781 51.325 120.396 51.645 119.946 51.865C119.496 52.075 118.996 52.18 118.446 52.18ZM118.446 44.005C118.206 44.005 117.981 44.055 117.771 44.155C117.571 44.255 117.396 44.43 117.246 44.68C117.096 44.92 116.976 45.245 116.886 45.655C116.796 46.065 116.751 46.58 116.751 47.2C116.751 47.82 116.796 48.34 116.886 48.76C116.976 49.17 117.096 49.505 117.246 49.765C117.396 50.015 117.571 50.195 117.771 50.305C117.981 50.415 118.206 50.47 118.446 50.47C118.686 50.47 118.906 50.415 119.106 50.305C119.316 50.195 119.496 50.015 119.646 49.765C119.796 49.505 119.916 49.17 120.006 48.76C120.096 48.34 120.141 47.82 120.141 47.2C120.141 46.58 120.096 46.065 120.006 45.655C119.916 45.245 119.796 44.92 119.646 44.68C119.496 44.43 119.316 44.255 119.106 44.155C118.906 44.055 118.686 44.005 118.446 44.005ZM118.446 48.31C118.126 48.31 117.856 48.21 117.636 48.01C117.426 47.8 117.321 47.52 117.321 47.17C117.321 46.82 117.426 46.545 117.636 46.345C117.856 46.135 118.126 46.03 118.446 46.03C118.766 46.03 119.031 46.135 119.241 46.345C119.461 46.545 119.571 46.82 119.571 47.17C119.571 47.52 119.461 47.8 119.241 48.01C119.031 48.21 118.766 48.31 118.446 48.31ZM69.8456 69.74C70.5256 69.17 71.1456 68.64 71.7056 68.15C72.2656 67.65 72.7456 67.185 73.1456 66.755C73.5456 66.325 73.8556 65.92 74.0756 65.54C74.2956 65.16 74.4056 64.8 74.4056 64.46C74.4056 63.99 74.2706 63.635 74.0006 63.395C73.7306 63.145 73.3456 63.02 72.8456 63.02C72.4656 63.02 72.1156 63.12 71.7956 63.32C71.4856 63.51 71.1956 63.735 70.9256 63.995L69.7406 62.81C69.9906 62.56 70.2356 62.34 70.4756 62.15C70.7256 61.96 70.9856 61.805 71.2556 61.685C71.5356 61.555 71.8256 61.46 72.1256 61.4C72.4356 61.33 72.7756 61.295 73.1456 61.295C73.6456 61.295 74.1006 61.37 74.5106 61.52C74.9206 61.66 75.2706 61.865 75.5606 62.135C75.8606 62.395 76.0906 62.71 76.2506 63.08C76.4206 63.45 76.5056 63.865 76.5056 64.325C76.5056 64.725 76.4106 65.135 76.2206 65.555C76.0306 65.965 75.7706 66.38 75.4406 66.8C75.1206 67.21 74.7506 67.625 74.3306 68.045C73.9106 68.455 73.4706 68.86 73.0106 69.26C73.2806 69.23 73.5706 69.205 73.8806 69.185C74.2006 69.155 74.4856 69.14 74.7356 69.14H77.0006V71H69.8456V69.74ZM114.816 69.74C115.496 69.17 116.116 68.64 116.676 68.15C117.236 67.65 117.716 67.185 118.116 66.755C118.516 66.325 118.826 65.92 119.046 65.54C119.266 65.16 119.376 64.8 119.376 64.46C119.376 63.99 119.241 63.635 118.971 63.395C118.701 63.145 118.316 63.02 117.816 63.02C117.436 63.02 117.086 63.12 116.766 63.32C116.456 63.51 116.166 63.735 115.896 63.995L114.711 62.81C114.961 62.56 115.206 62.34 115.446 62.15C115.696 61.96 115.956 61.805 116.226 61.685C116.506 61.555 116.796 61.46 117.096 61.4C117.406 61.33 117.746 61.295 118.116 61.295C118.616 61.295 119.071 61.37 119.481 61.52C119.891 61.66 120.241 61.865 120.531 62.135C120.831 62.395 121.061 62.71 121.221 63.08C121.391 63.45 121.476 63.865 121.476 64.325C121.476 64.725 121.381 65.135 121.191 65.555C121.001 65.965 120.741 66.38 120.411 66.8C120.091 67.21 119.721 67.625 119.301 68.045C118.881 68.455 118.441 68.86 117.981 69.26C118.251 69.23 118.541 69.205 118.851 69.185C119.171 69.155 119.456 69.14 119.706 69.14H121.971V71H114.816V69.74Z" fill="#EFA460"/>
<path d="M19.02 15.18C18.35 15.18 17.72 15.06 17.13 14.82C16.55 14.58 16.07 14.25 15.69 13.83L16.605 12.81C16.975 13.21 17.39 13.505 17.85 13.695C18.32 13.875 18.8 13.965 19.29 13.965C19.72 13.965 20.065 13.895 20.325 13.755C20.595 13.605 20.73 13.38 20.73 13.08C20.73 12.79 20.595 12.57 20.325 12.42C20.055 12.26 19.63 12.085 19.05 11.895C18.29 11.645 17.72 11.35 17.34 11.01C16.97 10.67 16.785 10.23 16.785 9.69C16.785 9.32 16.865 8.995 17.025 8.715C17.185 8.435 17.4 8.205 17.67 8.025C17.94 7.835 18.25 7.695 18.6 7.605C18.96 7.505 19.335 7.455 19.725 7.455C20.445 7.455 21.06 7.575 21.57 7.815C22.08 8.055 22.5 8.335 22.83 8.655L21.93 9.615C21.63 9.355 21.28 9.135 20.88 8.955C20.48 8.765 20.04 8.67 19.56 8.67C19.17 8.67 18.86 8.745 18.63 8.895C18.41 9.035 18.3 9.235 18.3 9.495C18.3 9.765 18.435 9.98 18.705 10.14C18.975 10.3 19.4 10.48 19.98 10.68C20.32 10.79 20.63 10.91 20.91 11.04C21.19 11.17 21.43 11.32 21.63 11.49C21.83 11.66 21.985 11.86 22.095 12.09C22.205 12.31 22.26 12.57 22.26 12.87C22.26 13.28 22.175 13.63 22.005 13.92C21.835 14.21 21.605 14.45 21.315 14.64C21.025 14.82 20.68 14.955 20.28 15.045C19.89 15.135 19.47 15.18 19.02 15.18ZM28.4041 15.18C27.9241 15.18 27.4741 15.115 27.0541 14.985C26.6341 14.845 26.2691 14.64 25.9591 14.37C25.6491 14.1 25.4041 13.765 25.2241 13.365C25.0441 12.955 24.9541 12.48 24.9541 11.94C24.9541 11.27 25.0741 10.66 25.3141 10.11C25.5641 9.56 25.8941 9.09 26.3041 8.7C26.7141 8.3 27.1891 7.995 27.7291 7.785C28.2691 7.565 28.8341 7.455 29.4241 7.455C30.0741 7.455 30.6341 7.59 31.1041 7.86C31.5841 8.13 31.9541 8.44 32.2141 8.79L31.2241 9.69C30.7141 9.08 30.0641 8.775 29.2741 8.775C28.9441 8.775 28.6141 8.855 28.2841 9.015C27.9641 9.165 27.6741 9.375 27.4141 9.645C27.1641 9.915 26.9591 10.235 26.7991 10.605C26.6491 10.975 26.5741 11.37 26.5741 11.79C26.5741 12.14 26.6241 12.445 26.7241 12.705C26.8341 12.965 26.9791 13.18 27.1591 13.35C27.3491 13.52 27.5691 13.65 27.8191 13.74C28.0791 13.82 28.3541 13.86 28.6441 13.86C29.0441 13.86 29.4141 13.775 29.7541 13.605C30.0941 13.425 30.4191 13.2 30.7291 12.93L31.3291 14.025C30.9491 14.375 30.5091 14.655 30.0091 14.865C29.5091 15.075 28.9741 15.18 28.4041 15.18ZM34.2633 15L35.7183 7.62L37.0383 7.635L36.7683 9.66H36.8283C37.0283 9.34 37.2483 9.045 37.4883 8.775C37.7383 8.505 37.9983 8.275 38.2683 8.085C38.5383 7.885 38.8183 7.73 39.1083 7.62C39.3983 7.51 39.6933 7.455 39.9933 7.455C40.3133 7.455 40.5983 7.485 40.8483 7.545C41.0983 7.605 41.3033 7.69 41.4633 7.8L40.8633 9.18C40.5233 8.99 40.1333 8.895 39.6933 8.895C39.1533 8.895 38.6183 9.13 38.0883 9.6C37.5583 10.06 37.0583 10.68 36.5883 11.46L35.8683 15H34.2633ZM47.1424 15.18C46.4924 15.18 45.9674 15.01 45.5674 14.67C45.1774 14.32 44.9824 13.83 44.9824 13.2C44.9824 13.06 44.9924 12.925 45.0124 12.795C45.0324 12.655 45.0624 12.505 45.1024 12.345L45.9124 8.91H43.3624L43.6324 7.635H47.7874L46.6924 12.45C46.6524 12.58 46.6324 12.725 46.6324 12.885C46.6324 13.235 46.7224 13.485 46.9024 13.635C47.0924 13.785 47.3324 13.86 47.6224 13.86C47.8324 13.86 48.0374 13.83 48.2374 13.77C48.4374 13.71 48.6624 13.625 48.9124 13.515L49.2574 14.73C48.9374 14.87 48.6124 14.98 48.2824 15.06C47.9624 15.14 47.5824 15.18 47.1424 15.18ZM47.1424 6.27C46.8524 6.27 46.5974 6.19 46.3774 6.03C46.1674 5.86 46.0624 5.61 46.0624 5.28C46.0624 5.12 46.0924 4.965 46.1524 4.815C46.2224 4.665 46.3124 4.535 46.4224 4.425C46.5424 4.305 46.6774 4.215 46.8274 4.155C46.9874 4.085 47.1574 4.05 47.3374 4.05C47.6574 4.05 47.9174 4.135 48.1174 4.305C48.3274 4.475 48.4324 4.72 48.4324 5.04C48.4324 5.21 48.3974 5.37 48.3274 5.52C48.2574 5.67 48.1624 5.8 48.0424 5.91C47.9324 6.02 47.7974 6.11 47.6374 6.18C47.4874 6.24 47.3224 6.27 47.1424 6.27ZM50.7666 17.91L52.8366 7.635H54.1566L54.0816 8.73H54.1266C54.5066 8.36 54.9066 8.055 55.3266 7.815C55.7566 7.575 56.2166 7.455 56.7066 7.455C57.4566 7.455 58.0516 7.705 58.4916 8.205C58.9416 8.695 59.1666 9.41 59.1666 10.35C59.1666 11.02 59.0666 11.65 58.8666 12.24C58.6766 12.83 58.4066 13.345 58.0566 13.785C57.7066 14.215 57.2866 14.555 56.7966 14.805C56.3066 15.055 55.7616 15.18 55.1616 15.18C54.7316 15.18 54.3316 15.095 53.9616 14.925C53.6016 14.745 53.3066 14.51 53.0766 14.22H53.0466L52.8066 15.72L52.3866 17.91H50.7666ZM55.0116 13.86C55.3616 13.86 55.6866 13.775 55.9866 13.605C56.2966 13.435 56.5616 13.2 56.7816 12.9C57.0116 12.6 57.1866 12.25 57.3066 11.85C57.4366 11.45 57.5016 11.02 57.5016 10.56C57.5016 9.95 57.3716 9.5 57.1116 9.21C56.8516 8.92 56.5116 8.775 56.0916 8.775C55.7716 8.775 55.4216 8.885 55.0416 9.105C54.6716 9.325 54.3166 9.65 53.9766 10.08L53.3766 12.99C53.5766 13.31 53.8216 13.535 54.1116 13.665C54.4116 13.795 54.7116 13.86 55.0116 13.86ZM64.5907 15.18C63.7607 15.18 63.1557 14.985 62.7757 14.595C62.4057 14.195 62.2207 13.67 62.2207 13.02C62.2207 12.86 62.2307 12.705 62.2507 12.555C62.2707 12.405 62.3007 12.235 62.3407 12.045L62.9857 8.91H60.9457L61.1857 7.71L63.3007 7.635L64.0057 5.325H65.3257L64.8457 7.635H68.2207L67.9657 8.91H64.5757L63.9157 12.03C63.8857 12.17 63.8657 12.285 63.8557 12.375C63.8457 12.465 63.8407 12.555 63.8407 12.645C63.8407 13.065 63.9507 13.375 64.1707 13.575C64.4007 13.765 64.6957 13.86 65.0557 13.86C65.3957 13.86 65.7157 13.805 66.0157 13.695C66.3157 13.585 66.5857 13.46 66.8257 13.32L67.3207 14.46C67.0007 14.67 66.6007 14.845 66.1207 14.985C65.6407 15.115 65.1307 15.18 64.5907 15.18ZM72.5648 15.18C72.2148 15.18 71.9348 15.065 71.7248 14.835C71.5248 14.595 71.4248 14.3 71.4248 13.95C71.4248 13.73 71.4648 13.52 71.5448 13.32C71.6248 13.11 71.7348 12.93 71.8748 12.78C72.0148 12.63 72.1848 12.51 72.3848 12.42C72.5848 12.33 72.7998 12.285 73.0298 12.285C73.3798 12.285 73.6598 12.405 73.8698 12.645C74.0798 12.875 74.1848 13.165 74.1848 13.515C74.1848 13.745 74.1448 13.96 74.0648 14.16C73.9848 14.36 73.8698 14.535 73.7198 14.685C73.5798 14.835 73.4098 14.955 73.2098 15.045C73.0098 15.135 72.7948 15.18 72.5648 15.18ZM77.749 17.91L79.819 7.635H81.139L81.064 8.73H81.109C81.489 8.36 81.889 8.055 82.309 7.815C82.739 7.575 83.199 7.455 83.689 7.455C84.439 7.455 85.034 7.705 85.474 8.205C85.924 8.695 86.149 9.41 86.149 10.35C86.149 11.02 86.049 11.65 85.849 12.24C85.659 12.83 85.389 13.345 85.039 13.785C84.689 14.215 84.269 14.555 83.779 14.805C83.289 15.055 82.744 15.18 82.144 15.18C81.714 15.18 81.314 15.095 80.944 14.925C80.584 14.745 80.289 14.51 80.059 14.22H80.029L79.789 15.72L79.369 17.91H77.749ZM81.994 13.86C82.344 13.86 82.669 13.775 82.969 13.605C83.279 13.435 83.544 13.2 83.764 12.9C83.994 12.6 84.169 12.25 84.289 11.85C84.419 11.45 84.484 11.02 84.484 10.56C84.484 9.95 84.354 9.5 84.094 9.21C83.834 8.92 83.494 8.775 83.074 8.775C82.754 8.775 82.404 8.885 82.024 9.105C81.654 9.325 81.299 9.65 80.959 10.08L80.359 12.99C80.559 13.31 80.804 13.535 81.094 13.665C81.394 13.795 81.694 13.86 81.994 13.86ZM87.5231 18.03C87.2731 18.03 87.0381 18 86.8181 17.94C86.5981 17.88 86.4131 17.8 86.2631 17.7L86.7281 16.59C86.8481 16.65 86.9881 16.7 87.1481 16.74C87.3081 16.78 87.4681 16.8 87.6281 16.8C88.0581 16.8 88.4081 16.705 88.6781 16.515C88.9581 16.325 89.2381 16.01 89.5181 15.57L89.8781 15L88.1231 7.635H89.6831L90.4631 11.28C90.5331 11.63 90.6031 12.02 90.6731 12.45C90.7431 12.87 90.8031 13.24 90.8531 13.56H90.9131C91.0731 13.24 91.2631 12.87 91.4831 12.45C91.7031 12.02 91.9131 11.63 92.1131 11.28L94.2131 7.635H95.8631L91.1531 15.495C90.6431 16.355 90.1131 16.99 89.5631 17.4C89.0131 17.82 88.3331 18.03 87.5231 18.03Z" fill="#232A3D"/>
<path d="M18.78 121.18C18.28 121.18 17.83 121.09 17.43 120.91C17.03 120.72 16.69 120.455 16.41 120.115C16.13 119.775 15.915 119.365 15.765 118.885C15.615 118.395 15.54 117.85 15.54 117.25C15.54 116.44 15.65 115.66 15.87 114.91C16.1 114.15 16.425 113.485 16.845 112.915C17.265 112.335 17.77 111.875 18.36 111.535C18.95 111.185 19.61 111.01 20.34 111.01C20.84 111.01 21.29 111.105 21.69 111.295C22.09 111.475 22.43 111.735 22.71 112.075C22.99 112.415 23.205 112.83 23.355 113.32C23.505 113.8 23.58 114.34 23.58 114.94C23.58 115.75 23.465 116.535 23.235 117.295C23.015 118.045 22.695 118.71 22.275 119.29C21.855 119.86 21.35 120.32 20.76 120.67C20.17 121.01 19.51 121.18 18.78 121.18ZM18.945 119.785C19.405 119.785 19.815 119.645 20.175 119.365C20.545 119.085 20.86 118.715 21.12 118.255C21.38 117.785 21.58 117.255 21.72 116.665C21.86 116.065 21.93 115.45 21.93 114.82C21.93 114.05 21.79 113.455 21.51 113.035C21.23 112.615 20.79 112.405 20.19 112.405C19.73 112.405 19.315 112.545 18.945 112.825C18.575 113.105 18.26 113.48 18 113.95C17.74 114.41 17.54 114.94 17.4 115.54C17.26 116.13 17.19 116.74 17.19 117.37C17.19 118.14 17.33 118.735 17.61 119.155C17.9 119.575 18.345 119.785 18.945 119.785ZM26.6041 121.18C25.9741 121.18 25.4991 121.02 25.1791 120.7C24.8591 120.37 24.6991 119.91 24.6991 119.32C24.6991 119.12 24.7091 118.925 24.7291 118.735C24.7591 118.545 24.7941 118.355 24.8341 118.165L25.7341 113.635H27.3541L26.4841 117.97C26.4441 118.14 26.4091 118.295 26.3791 118.435C26.3591 118.575 26.3491 118.715 26.3491 118.855C26.3491 119.485 26.6691 119.8 27.3091 119.8C27.7191 119.8 28.1341 119.67 28.5541 119.41C28.9741 119.14 29.3941 118.755 29.8141 118.255L30.7291 113.635H32.3341L30.8791 121H29.5741L29.7091 119.62H29.6491C29.4491 119.82 29.2291 120.015 28.9891 120.205C28.7591 120.385 28.5141 120.55 28.2541 120.7C28.0041 120.84 27.7391 120.955 27.4591 121.045C27.1791 121.135 26.8941 121.18 26.6041 121.18ZM37.6083 121.18C36.7783 121.18 36.1733 120.985 35.7933 120.595C35.4233 120.195 35.2383 119.67 35.2383 119.02C35.2383 118.86 35.2483 118.705 35.2683 118.555C35.2883 118.405 35.3183 118.235 35.3583 118.045L36.0033 114.91H33.9633L34.2033 113.71L36.3183 113.635L37.0233 111.325H38.3433L37.8633 113.635H41.2383L40.9833 114.91H37.5933L36.9333 118.03C36.9033 118.17 36.8833 118.285 36.8733 118.375C36.8633 118.465 36.8583 118.555 36.8583 118.645C36.8583 119.065 36.9683 119.375 37.1883 119.575C37.4183 119.765 37.7133 119.86 38.0733 119.86C38.4133 119.86 38.7333 119.805 39.0333 119.695C39.3333 119.585 39.6033 119.46 39.8433 119.32L40.3383 120.46C40.0183 120.67 39.6183 120.845 39.1383 120.985C38.6583 121.115 38.1483 121.18 37.6083 121.18ZM41.7724 123.91L43.8424 113.635H45.1624L45.0874 114.73H45.1324C45.5124 114.36 45.9124 114.055 46.3324 113.815C46.7624 113.575 47.2224 113.455 47.7124 113.455C48.4624 113.455 49.0574 113.705 49.4974 114.205C49.9474 114.695 50.1724 115.41 50.1724 116.35C50.1724 117.02 50.0724 117.65 49.8724 118.24C49.6824 118.83 49.4124 119.345 49.0624 119.785C48.7124 120.215 48.2924 120.555 47.8024 120.805C47.3124 121.055 46.7674 121.18 46.1674 121.18C45.7374 121.18 45.3374 121.095 44.9674 120.925C44.6074 120.745 44.3124 120.51 44.0824 120.22H44.0524L43.8124 121.72L43.3924 123.91H41.7724ZM46.0174 119.86C46.3674 119.86 46.6924 119.775 46.9924 119.605C47.3024 119.435 47.5674 119.2 47.7874 118.9C48.0174 118.6 48.1924 118.25 48.3124 117.85C48.4424 117.45 48.5074 117.02 48.5074 116.56C48.5074 115.95 48.3774 115.5 48.1174 115.21C47.8574 114.92 47.5174 114.775 47.0974 114.775C46.7774 114.775 46.4274 114.885 46.0474 115.105C45.6774 115.325 45.3224 115.65 44.9824 116.08L44.3824 118.99C44.5824 119.31 44.8274 119.535 45.1174 119.665C45.4174 119.795 45.7174 119.86 46.0174 119.86ZM53.5866 121.18C52.9566 121.18 52.4816 121.02 52.1616 120.7C51.8416 120.37 51.6816 119.91 51.6816 119.32C51.6816 119.12 51.6916 118.925 51.7116 118.735C51.7416 118.545 51.7766 118.355 51.8166 118.165L52.7166 113.635H54.3366L53.4666 117.97C53.4266 118.14 53.3916 118.295 53.3616 118.435C53.3416 118.575 53.3316 118.715 53.3316 118.855C53.3316 119.485 53.6516 119.8 54.2916 119.8C54.7016 119.8 55.1166 119.67 55.5366 119.41C55.9566 119.14 56.3766 118.755 56.7966 118.255L57.7116 113.635H59.3166L57.8616 121H56.5566L56.6916 119.62H56.6316C56.4316 119.82 56.2116 120.015 55.9716 120.205C55.7416 120.385 55.4966 120.55 55.2366 120.7C54.9866 120.84 54.7216 120.955 54.4416 121.045C54.1616 121.135 53.8766 121.18 53.5866 121.18ZM64.5907 121.18C63.7607 121.18 63.1557 120.985 62.7757 120.595C62.4057 120.195 62.2207 119.67 62.2207 119.02C62.2207 118.86 62.2307 118.705 62.2507 118.555C62.2707 118.405 62.3007 118.235 62.3407 118.045L62.9857 114.91H60.9457L61.1857 113.71L63.3007 113.635L64.0057 111.325H65.3257L64.8457 113.635H68.2207L67.9657 114.91H64.5757L63.9157 118.03C63.8857 118.17 63.8657 118.285 63.8557 118.375C63.8457 118.465 63.8407 118.555 63.8407 118.645C63.8407 119.065 63.9507 119.375 64.1707 119.575C64.4007 119.765 64.6957 119.86 65.0557 119.86C65.3957 119.86 65.7157 119.805 66.0157 119.695C66.3157 119.585 66.5857 119.46 66.8257 119.32L67.3207 120.46C67.0007 120.67 66.6007 120.845 66.1207 120.985C65.6407 121.115 65.1307 121.18 64.5907 121.18Z" fill="#232A3D"/>
<rect opacity="0.1" x="204" y="130" width="228" height="40" rx="4" fill="#31CB8A"/>
<path d="M216.44 154V143.504H217.768V154H216.44ZM222.963 154.192C222.131 154.192 221.55 153.952 221.219 153.472C220.899 152.992 220.739 152.368 220.739 151.6V147.296H219.587V146.304L220.803 146.224L220.963 144.048H222.067V146.224H224.163V147.296H222.067V151.616C222.067 152.096 222.152 152.469 222.323 152.736C222.504 152.992 222.819 153.12 223.267 153.12C223.406 153.12 223.555 153.099 223.715 153.056C223.875 153.003 224.019 152.955 224.147 152.912L224.403 153.904C224.19 153.979 223.955 154.043 223.699 154.096C223.454 154.16 223.208 154.192 222.963 154.192ZM225.985 147.104L225.617 146.496C226.023 146.229 226.321 145.947 226.513 145.648C226.716 145.339 226.817 144.955 226.817 144.496C226.785 144.507 226.743 144.512 226.689 144.512C226.465 144.512 226.268 144.443 226.097 144.304C225.927 144.165 225.841 143.968 225.841 143.712C225.841 143.435 225.921 143.216 226.081 143.056C226.241 142.896 226.444 142.816 226.689 142.816C226.999 142.816 227.244 142.944 227.425 143.2C227.607 143.445 227.697 143.803 227.697 144.272C227.697 144.912 227.548 145.467 227.249 145.936C226.961 146.395 226.54 146.784 225.985 147.104ZM231.157 154.192C230.602 154.192 230.074 154.091 229.573 153.888C229.071 153.675 228.634 153.419 228.261 153.12L228.917 152.24C229.258 152.507 229.61 152.731 229.973 152.912C230.335 153.083 230.746 153.168 231.205 153.168C231.717 153.168 232.101 153.051 232.357 152.816C232.613 152.571 232.741 152.283 232.741 151.952C232.741 151.685 232.65 151.461 232.469 151.28C232.298 151.099 232.074 150.949 231.797 150.832C231.53 150.704 231.253 150.587 230.965 150.48C230.602 150.341 230.245 150.187 229.893 150.016C229.541 149.835 229.253 149.605 229.029 149.328C228.805 149.04 228.693 148.677 228.693 148.24C228.693 147.611 228.927 147.088 229.397 146.672C229.877 146.245 230.538 146.032 231.381 146.032C231.861 146.032 232.309 146.117 232.725 146.288C233.141 146.459 233.498 146.667 233.797 146.912L233.157 147.744C232.89 147.541 232.613 147.376 232.325 147.248C232.037 147.12 231.722 147.056 231.381 147.056C230.89 147.056 230.527 147.168 230.293 147.392C230.069 147.616 229.957 147.877 229.957 148.176C229.957 148.421 230.037 148.624 230.197 148.784C230.357 148.933 230.565 149.067 230.821 149.184C231.077 149.291 231.349 149.403 231.637 149.52C232.01 149.659 232.378 149.819 232.741 150C233.103 150.171 233.402 150.405 233.637 150.704C233.882 150.992 234.005 151.381 234.005 151.872C234.005 152.288 233.893 152.672 233.669 153.024C233.455 153.376 233.135 153.659 232.709 153.872C232.293 154.085 231.775 154.192 231.157 154.192ZM241.479 154.192C240.647 154.192 240.065 153.952 239.735 153.472C239.415 152.992 239.255 152.368 239.255 151.6V147.296H238.103V146.304L239.319 146.224L239.479 144.048H240.583V146.224H242.679V147.296H240.583V151.616C240.583 152.096 240.668 152.469 240.839 152.736C241.02 152.992 241.335 153.12 241.783 153.12C241.921 153.12 242.071 153.099 242.231 153.056C242.391 153.003 242.535 152.955 242.663 152.912L242.919 153.904C242.705 153.979 242.471 154.043 242.215 154.096C241.969 154.16 241.724 154.192 241.479 154.192ZM244.437 154V146.224H245.525L245.637 147.632H245.685C245.952 147.141 246.277 146.752 246.661 146.464C247.045 146.176 247.456 146.032 247.893 146.032C248.202 146.032 248.48 146.085 248.725 146.192L248.469 147.344C248.341 147.301 248.224 147.269 248.117 147.248C248.01 147.227 247.877 147.216 247.717 147.216C247.386 147.216 247.04 147.349 246.677 147.616C246.325 147.883 246.016 148.347 245.749 149.008V154H244.437ZM252.256 154.192C251.435 154.192 250.832 153.936 250.448 153.424C250.064 152.901 249.872 152.144 249.872 151.152V146.224H251.2V150.976C251.2 151.701 251.312 152.229 251.536 152.56C251.771 152.891 252.144 153.056 252.656 153.056C253.061 153.056 253.419 152.955 253.728 152.752C254.048 152.539 254.389 152.203 254.752 151.744V146.224H256.064V154H254.976L254.864 152.784H254.816C254.453 153.211 254.069 153.552 253.664 153.808C253.259 154.064 252.789 154.192 252.256 154.192ZM261.839 154.192C261.146 154.192 260.516 154.032 259.951 153.712C259.386 153.381 258.938 152.912 258.607 152.304C258.276 151.696 258.111 150.971 258.111 150.128C258.111 149.275 258.276 148.544 258.607 147.936C258.948 147.328 259.386 146.859 259.919 146.528C260.452 146.197 261.012 146.032 261.599 146.032C262.591 146.032 263.354 146.363 263.887 147.024C264.431 147.685 264.703 148.571 264.703 149.68C264.703 149.819 264.698 149.957 264.687 150.096C264.687 150.224 264.676 150.336 264.655 150.432H259.407C259.46 151.253 259.716 151.909 260.175 152.4C260.644 152.891 261.252 153.136 261.999 153.136C262.372 153.136 262.714 153.083 263.023 152.976C263.343 152.859 263.647 152.709 263.935 152.528L264.399 153.392C264.068 153.605 263.69 153.792 263.263 153.952C262.847 154.112 262.372 154.192 261.839 154.192ZM259.391 149.488H263.551C263.551 148.699 263.38 148.101 263.039 147.696C262.708 147.28 262.239 147.072 261.631 147.072C261.087 147.072 260.596 147.285 260.159 147.712C259.732 148.128 259.476 148.72 259.391 149.488ZM272.276 154.192C271.444 154.192 270.862 153.952 270.532 153.472C270.212 152.992 270.052 152.368 270.052 151.6V147.296H268.9V146.304L270.116 146.224L270.276 144.048H271.38V146.224H273.476V147.296H271.38V151.616C271.38 152.096 271.465 152.469 271.636 152.736C271.817 152.992 272.132 153.12 272.58 153.12C272.718 153.12 272.868 153.099 273.028 153.056C273.188 153.003 273.332 152.955 273.46 152.912L273.716 153.904C273.502 153.979 273.268 154.043 273.012 154.096C272.766 154.16 272.521 154.192 272.276 154.192ZM275.234 154V142.608H276.546V145.712L276.498 147.312C276.871 146.96 277.261 146.661 277.666 146.416C278.082 146.16 278.557 146.032 279.09 146.032C279.911 146.032 280.509 146.293 280.882 146.816C281.266 147.328 281.458 148.08 281.458 149.072V154H280.146V149.248C280.146 148.523 280.029 147.995 279.794 147.664C279.559 147.333 279.186 147.168 278.674 147.168C278.279 147.168 277.922 147.269 277.602 147.472C277.293 147.675 276.941 147.973 276.546 148.368V154H275.234ZM285.729 154.192C285.078 154.192 284.534 154 284.097 153.616C283.67 153.221 283.457 152.677 283.457 151.984C283.457 151.131 283.836 150.48 284.593 150.032C285.361 149.573 286.572 149.253 288.225 149.072C288.225 148.741 288.177 148.427 288.081 148.128C287.996 147.829 287.836 147.589 287.601 147.408C287.377 147.216 287.052 147.12 286.625 147.12C286.177 147.12 285.756 147.205 285.361 147.376C284.966 147.547 284.614 147.739 284.305 147.952L283.793 147.04C284.156 146.805 284.598 146.581 285.121 146.368C285.654 146.144 286.23 146.032 286.849 146.032C287.798 146.032 288.486 146.325 288.913 146.912C289.34 147.488 289.553 148.261 289.553 149.232V154H288.465L288.353 153.072H288.305C287.942 153.371 287.542 153.632 287.105 153.856C286.678 154.08 286.22 154.192 285.729 154.192ZM286.113 153.136C286.486 153.136 286.838 153.045 287.169 152.864C287.5 152.683 287.852 152.427 288.225 152.096V149.936C286.934 150.096 286.028 150.336 285.505 150.656C284.993 150.976 284.737 151.387 284.737 151.888C284.737 152.325 284.87 152.645 285.137 152.848C285.404 153.04 285.729 153.136 286.113 153.136ZM294.229 154.192C293.397 154.192 292.815 153.952 292.485 153.472C292.165 152.992 292.005 152.368 292.005 151.6V147.296H290.853V146.304L292.069 146.224L292.229 144.048H293.333V146.224H295.429V147.296H293.333V151.616C293.333 152.096 293.418 152.469 293.589 152.736C293.77 152.992 294.085 153.12 294.533 153.12C294.671 153.12 294.821 153.099 294.981 153.056C295.141 153.003 295.285 152.955 295.413 152.912L295.669 153.904C295.455 153.979 295.221 154.043 294.965 154.096C294.719 154.16 294.474 154.192 294.229 154.192ZM299.718 154V153.216C300.742 152.192 301.611 151.296 302.326 150.528C303.041 149.749 303.585 149.051 303.958 148.432C304.331 147.803 304.518 147.216 304.518 146.672C304.518 146.085 304.358 145.605 304.038 145.232C303.718 144.859 303.233 144.672 302.582 144.672C302.155 144.672 301.761 144.795 301.398 145.04C301.035 145.275 300.705 145.563 300.406 145.904L299.654 145.152C300.081 144.683 300.534 144.309 301.014 144.032C301.505 143.744 302.081 143.6 302.742 143.6C303.691 143.6 304.438 143.877 304.982 144.432C305.526 144.976 305.798 145.701 305.798 146.608C305.798 147.248 305.617 147.899 305.254 148.56C304.902 149.211 304.411 149.899 303.782 150.624C303.163 151.339 302.449 152.117 301.638 152.96C301.915 152.939 302.203 152.917 302.502 152.896C302.801 152.875 303.083 152.864 303.35 152.864H306.31V154H299.718ZM311.546 154V146.224H312.858V154H311.546ZM312.218 144.624C311.962 144.624 311.749 144.549 311.578 144.4C311.418 144.24 311.338 144.027 311.338 143.76C311.338 143.504 311.418 143.296 311.578 143.136C311.749 142.976 311.962 142.896 312.218 142.896C312.474 142.896 312.682 142.976 312.842 143.136C313.013 143.296 313.098 143.504 313.098 143.76C313.098 144.027 313.013 144.24 312.842 144.4C312.682 144.549 312.474 144.624 312.218 144.624ZM317.516 154.192C316.961 154.192 316.433 154.091 315.932 153.888C315.431 153.675 314.993 153.419 314.62 153.12L315.276 152.24C315.617 152.507 315.969 152.731 316.332 152.912C316.695 153.083 317.105 153.168 317.564 153.168C318.076 153.168 318.46 153.051 318.716 152.816C318.972 152.571 319.1 152.283 319.1 151.952C319.1 151.685 319.009 151.461 318.828 151.28C318.657 151.099 318.433 150.949 318.156 150.832C317.889 150.704 317.612 150.587 317.324 150.48C316.961 150.341 316.604 150.187 316.252 150.016C315.9 149.835 315.612 149.605 315.388 149.328C315.164 149.04 315.052 148.677 315.052 148.24C315.052 147.611 315.287 147.088 315.756 146.672C316.236 146.245 316.897 146.032 317.74 146.032C318.22 146.032 318.668 146.117 319.084 146.288C319.5 146.459 319.857 146.667 320.156 146.912L319.516 147.744C319.249 147.541 318.972 147.376 318.684 147.248C318.396 147.12 318.081 147.056 317.74 147.056C317.249 147.056 316.887 147.168 316.652 147.392C316.428 147.616 316.316 147.877 316.316 148.176C316.316 148.421 316.396 148.624 316.556 148.784C316.716 148.933 316.924 149.067 317.18 149.184C317.436 149.291 317.708 149.403 317.996 149.52C318.369 149.659 318.737 149.819 319.1 150C319.463 150.171 319.761 150.405 319.996 150.704C320.241 150.992 320.364 151.381 320.364 151.872C320.364 152.288 320.252 152.672 320.028 153.024C319.815 153.376 319.495 153.659 319.068 153.872C318.652 154.085 318.135 154.192 317.516 154.192ZM325.39 154V146.224H326.478L326.59 147.344H326.638C327.011 146.971 327.406 146.661 327.822 146.416C328.238 146.16 328.713 146.032 329.246 146.032C330.067 146.032 330.665 146.293 331.038 146.816C331.422 147.328 331.614 148.08 331.614 149.072V154H330.302V149.248C330.302 148.523 330.185 147.995 329.95 147.664C329.715 147.333 329.342 147.168 328.83 147.168C328.435 147.168 328.078 147.269 327.758 147.472C327.449 147.675 327.097 147.973 326.702 148.368V154H325.39ZM337.164 154.192C336.535 154.192 335.943 154.032 335.388 153.712C334.844 153.392 334.401 152.928 334.06 152.32C333.729 151.712 333.564 150.981 333.564 150.128C333.564 149.253 333.729 148.512 334.06 147.904C334.401 147.296 334.844 146.832 335.388 146.512C335.943 146.192 336.535 146.032 337.164 146.032C337.804 146.032 338.396 146.192 338.94 146.512C339.484 146.832 339.921 147.296 340.252 147.904C340.593 148.512 340.764 149.253 340.764 150.128C340.764 150.981 340.593 151.712 340.252 152.32C339.921 152.928 339.484 153.392 338.94 153.712C338.396 154.032 337.804 154.192 337.164 154.192ZM337.164 153.104C337.836 153.104 338.375 152.832 338.78 152.288C339.196 151.733 339.404 151.013 339.404 150.128C339.404 149.232 339.196 148.507 338.78 147.952C338.375 147.397 337.836 147.12 337.164 147.12C336.503 147.12 335.964 147.397 335.548 147.952C335.132 148.507 334.924 149.232 334.924 150.128C334.924 151.013 335.132 151.733 335.548 152.288C335.964 152.832 336.503 153.104 337.164 153.104ZM344.994 154.192C344.162 154.192 343.581 153.952 343.25 153.472C342.93 152.992 342.77 152.368 342.77 151.6V147.296H341.618V146.304L342.834 146.224L342.994 144.048H344.098V146.224H346.194V147.296H344.098V151.616C344.098 152.096 344.184 152.469 344.354 152.736C344.536 152.992 344.85 153.12 345.298 153.12C345.437 153.12 345.586 153.099 345.746 153.056C345.906 153.003 346.05 152.955 346.178 152.912L346.434 153.904C346.221 153.979 345.986 154.043 345.73 154.096C345.485 154.16 345.24 154.192 344.994 154.192ZM354.308 154.192C353.614 154.192 352.985 154.032 352.42 153.712C351.854 153.381 351.406 152.912 351.076 152.304C350.745 151.696 350.58 150.971 350.58 150.128C350.58 149.275 350.745 148.544 351.076 147.936C351.417 147.328 351.854 146.859 352.388 146.528C352.921 146.197 353.481 146.032 354.068 146.032C355.06 146.032 355.822 146.363 356.356 147.024C356.9 147.685 357.172 148.571 357.172 149.68C357.172 149.819 357.166 149.957 357.156 150.096C357.156 150.224 357.145 150.336 357.124 150.432H351.876C351.929 151.253 352.185 151.909 352.644 152.4C353.113 152.891 353.721 153.136 354.468 153.136C354.841 153.136 355.182 153.083 355.492 152.976C355.812 152.859 356.116 152.709 356.404 152.528L356.868 153.392C356.537 153.605 356.158 153.792 355.732 153.952C355.316 154.112 354.841 154.192 354.308 154.192ZM351.86 149.488H356.02C356.02 148.699 355.849 148.101 355.508 147.696C355.177 147.28 354.708 147.072 354.1 147.072C353.556 147.072 353.065 147.285 352.628 147.712C352.201 148.128 351.945 148.72 351.86 149.488ZM364.021 157.28V154.512L364.085 153.104C363.776 153.403 363.419 153.659 363.013 153.872C362.619 154.085 362.197 154.192 361.749 154.192C360.779 154.192 360 153.84 359.413 153.136C358.827 152.421 358.533 151.419 358.533 150.128C358.533 149.285 358.688 148.56 358.997 147.952C359.317 147.333 359.733 146.859 360.245 146.528C360.768 146.197 361.323 146.032 361.909 146.032C362.357 146.032 362.752 146.112 363.093 146.272C363.435 146.421 363.781 146.651 364.133 146.96H364.165L364.293 146.224H365.349V157.28H364.021ZM362.037 153.088C362.72 153.088 363.381 152.731 364.021 152.016V147.952C363.691 147.653 363.371 147.445 363.061 147.328C362.763 147.2 362.453 147.136 362.133 147.136C361.717 147.136 361.339 147.264 360.997 147.52C360.667 147.765 360.4 148.112 360.197 148.56C359.995 148.997 359.893 149.515 359.893 150.112C359.893 151.04 360.08 151.771 360.453 152.304C360.827 152.827 361.355 153.088 362.037 153.088ZM370.24 154.192C369.419 154.192 368.816 153.936 368.432 153.424C368.048 152.901 367.856 152.144 367.856 151.152V146.224H369.184V150.976C369.184 151.701 369.296 152.229 369.52 152.56C369.755 152.891 370.128 153.056 370.64 153.056C371.046 153.056 371.403 152.955 371.712 152.752C372.032 152.539 372.374 152.203 372.736 151.744V146.224H374.048V154H372.96L372.848 152.784H372.8C372.438 153.211 372.054 153.552 371.648 153.808C371.243 154.064 370.774 154.192 370.24 154.192ZM378.463 154.192C377.813 154.192 377.269 154 376.831 153.616C376.405 153.221 376.191 152.677 376.191 151.984C376.191 151.131 376.57 150.48 377.327 150.032C378.095 149.573 379.306 149.253 380.959 149.072C380.959 148.741 380.911 148.427 380.815 148.128C380.73 147.829 380.57 147.589 380.335 147.408C380.111 147.216 379.786 147.12 379.359 147.12C378.911 147.12 378.49 147.205 378.095 147.376C377.701 147.547 377.349 147.739 377.039 147.952L376.527 147.04C376.89 146.805 377.333 146.581 377.855 146.368C378.389 146.144 378.965 146.032 379.583 146.032C380.533 146.032 381.221 146.325 381.647 146.912C382.074 147.488 382.287 148.261 382.287 149.232V154H381.199L381.087 153.072H381.039C380.677 153.371 380.277 153.632 379.839 153.856C379.413 154.08 378.954 154.192 378.463 154.192ZM378.847 153.136C379.221 153.136 379.573 153.045 379.903 152.864C380.234 152.683 380.586 152.427 380.959 152.096V149.936C379.669 150.096 378.762 150.336 378.239 150.656C377.727 150.976 377.471 151.387 377.471 151.888C377.471 152.325 377.605 152.645 377.871 152.848C378.138 153.04 378.463 153.136 378.847 153.136ZM386.126 154.192C385.635 154.192 385.278 154.043 385.054 153.744C384.841 153.435 384.734 152.997 384.734 152.432V142.608H386.046V152.528C386.046 152.731 386.083 152.88 386.158 152.976C386.233 153.061 386.318 153.104 386.414 153.104C386.457 153.104 386.494 153.104 386.526 153.104C386.569 153.093 386.627 153.083 386.702 153.072L386.878 154.064C386.793 154.107 386.691 154.139 386.574 154.16C386.457 154.181 386.307 154.192 386.126 154.192ZM394.463 154.192C393.631 154.192 393.05 153.952 392.719 153.472C392.399 152.992 392.239 152.368 392.239 151.6V147.296H391.087V146.304L392.303 146.224L392.463 144.048H393.567V146.224H395.663V147.296H393.567V151.616C393.567 152.096 393.652 152.469 393.823 152.736C394.004 152.992 394.319 153.12 394.767 153.12C394.906 153.12 395.055 153.099 395.215 153.056C395.375 153.003 395.519 152.955 395.647 152.912L395.903 153.904C395.69 153.979 395.455 154.043 395.199 154.096C394.954 154.16 394.708 154.192 394.463 154.192ZM400.227 154.192C399.597 154.192 399.005 154.032 398.451 153.712C397.907 153.392 397.464 152.928 397.123 152.32C396.792 151.712 396.627 150.981 396.627 150.128C396.627 149.253 396.792 148.512 397.123 147.904C397.464 147.296 397.907 146.832 398.451 146.512C399.005 146.192 399.597 146.032 400.227 146.032C400.867 146.032 401.459 146.192 402.003 146.512C402.547 146.832 402.984 147.296 403.315 147.904C403.656 148.512 403.827 149.253 403.827 150.128C403.827 150.981 403.656 151.712 403.315 152.32C402.984 152.928 402.547 153.392 402.003 153.712C401.459 154.032 400.867 154.192 400.227 154.192ZM400.227 153.104C400.899 153.104 401.437 152.832 401.843 152.288C402.259 151.733 402.467 151.013 402.467 150.128C402.467 149.232 402.259 148.507 401.843 147.952C401.437 147.397 400.899 147.12 400.227 147.12C399.565 147.12 399.027 147.397 398.611 147.952C398.195 148.507 397.987 149.232 397.987 150.128C397.987 151.013 398.195 151.733 398.611 152.288C399.027 152.832 399.565 153.104 400.227 153.104ZM411.75 154.192C410.726 154.192 409.92 153.733 409.334 152.816C408.758 151.888 408.47 150.571 408.47 148.864C408.47 147.147 408.758 145.84 409.334 144.944C409.92 144.048 410.726 143.6 411.75 143.6C412.763 143.6 413.558 144.048 414.134 144.944C414.72 145.84 415.014 147.147 415.014 148.864C415.014 150.571 414.72 151.888 414.134 152.816C413.558 153.733 412.763 154.192 411.75 154.192ZM411.75 153.136C412.347 153.136 412.827 152.8 413.19 152.128C413.552 151.445 413.734 150.357 413.734 148.864C413.734 147.371 413.552 146.299 413.19 145.648C412.827 144.987 412.347 144.656 411.75 144.656C411.152 144.656 410.667 144.987 410.294 145.648C409.931 146.299 409.75 147.371 409.75 148.864C409.75 150.357 409.931 151.445 410.294 152.128C410.667 152.8 411.152 153.136 411.75 153.136Z" fill="#232A3D"/>
<path d="M62.2929 147.793C61.9024 148.183 61.9024 148.817 62.2929 149.207L68.6569 155.571C69.0474 155.962 69.6805 155.962 70.0711 155.571C70.4616 155.181 70.4616 154.547 70.0711 154.157L64.4142 148.5L70.0711 142.843C70.4616 142.453 70.4616 141.819 70.0711 141.429C69.6805 141.038 69.0474 141.038 68.6569 141.429L62.2929 147.793ZM63 149.5H204V147.5H63V149.5Z" fill="#31CB8A"/>
<path d="M35 209H34V210H35V209ZM35.7071 178.293C35.3166 177.902 34.6834 177.902 34.2929 178.293L27.9289 184.657C27.5384 185.047 27.5384 185.681 27.9289 186.071C28.3195 186.462 28.9526 186.462 29.3431 186.071L35 180.414L40.6569 186.071C41.0474 186.462 41.6805 186.462 42.0711 186.071C42.4616 185.681 42.4616 185.047 42.0711 184.657L35.7071 178.293ZM204 208H35V210H204V208ZM36 209V179H34V209H36Z" fill="#C74E4E"/>
<rect opacity="0.1" x="204" y="190" width="228" height="60" rx="4" fill="#C74E4E"/>
<path d="M216.44 214V203.504H217.768V214H216.44ZM222.963 214.192C222.131 214.192 221.55 213.952 221.219 213.472C220.899 212.992 220.739 212.368 220.739 211.6V207.296H219.587V206.304L220.803 206.224L220.963 204.048H222.067V206.224H224.163V207.296H222.067V211.616C222.067 212.096 222.152 212.469 222.323 212.736C222.504 212.992 222.819 213.12 223.267 213.12C223.406 213.12 223.555 213.099 223.715 213.056C223.875 213.003 224.019 212.955 224.147 212.912L224.403 213.904C224.19 213.979 223.955 214.043 223.699 214.096C223.454 214.16 223.208 214.192 222.963 214.192ZM225.985 207.104L225.617 206.496C226.023 206.229 226.321 205.947 226.513 205.648C226.716 205.339 226.817 204.955 226.817 204.496C226.785 204.507 226.743 204.512 226.689 204.512C226.465 204.512 226.268 204.443 226.097 204.304C225.927 204.165 225.841 203.968 225.841 203.712C225.841 203.435 225.921 203.216 226.081 203.056C226.241 202.896 226.444 202.816 226.689 202.816C226.999 202.816 227.244 202.944 227.425 203.2C227.607 203.445 227.697 203.803 227.697 204.272C227.697 204.912 227.548 205.467 227.249 205.936C226.961 206.395 226.54 206.784 225.985 207.104ZM231.157 214.192C230.602 214.192 230.074 214.091 229.573 213.888C229.071 213.675 228.634 213.419 228.261 213.12L228.917 212.24C229.258 212.507 229.61 212.731 229.973 212.912C230.335 213.083 230.746 213.168 231.205 213.168C231.717 213.168 232.101 213.051 232.357 212.816C232.613 212.571 232.741 212.283 232.741 211.952C232.741 211.685 232.65 211.461 232.469 211.28C232.298 211.099 232.074 210.949 231.797 210.832C231.53 210.704 231.253 210.587 230.965 210.48C230.602 210.341 230.245 210.187 229.893 210.016C229.541 209.835 229.253 209.605 229.029 209.328C228.805 209.04 228.693 208.677 228.693 208.24C228.693 207.611 228.927 207.088 229.397 206.672C229.877 206.245 230.538 206.032 231.381 206.032C231.861 206.032 232.309 206.117 232.725 206.288C233.141 206.459 233.498 206.667 233.797 206.912L233.157 207.744C232.89 207.541 232.613 207.376 232.325 207.248C232.037 207.12 231.722 207.056 231.381 207.056C230.89 207.056 230.527 207.168 230.293 207.392C230.069 207.616 229.957 207.877 229.957 208.176C229.957 208.421 230.037 208.624 230.197 208.784C230.357 208.933 230.565 209.067 230.821 209.184C231.077 209.291 231.349 209.403 231.637 209.52C232.01 209.659 232.378 209.819 232.741 210C233.103 210.171 233.402 210.405 233.637 210.704C233.882 210.992 234.005 211.381 234.005 211.872C234.005 212.288 233.893 212.672 233.669 213.024C233.455 213.376 233.135 213.659 232.709 213.872C232.293 214.085 231.775 214.192 231.157 214.192ZM239.255 214V207.296H238.199V206.304L239.255 206.224V204.992C239.255 204.203 239.436 203.579 239.799 203.12C240.172 202.651 240.748 202.416 241.527 202.416C241.772 202.416 242.007 202.443 242.231 202.496C242.455 202.539 242.652 202.597 242.823 202.672L242.535 203.68C242.247 203.552 241.953 203.488 241.655 203.488C240.929 203.488 240.567 203.989 240.567 204.992V206.224H242.215V207.296H240.567V214H239.255ZM245.182 214.192C244.531 214.192 243.987 214 243.55 213.616C243.123 213.221 242.91 212.677 242.91 211.984C242.91 211.131 243.289 210.48 244.046 210.032C244.814 209.573 246.025 209.253 247.678 209.072C247.678 208.741 247.63 208.427 247.534 208.128C247.449 207.829 247.289 207.589 247.054 207.408C246.83 207.216 246.505 207.12 246.078 207.12C245.63 207.12 245.209 207.205 244.814 207.376C244.419 207.547 244.067 207.739 243.758 207.952L243.246 207.04C243.609 206.805 244.051 206.581 244.574 206.368C245.107 206.144 245.683 206.032 246.302 206.032C247.251 206.032 247.939 206.325 248.366 206.912C248.793 207.488 249.006 208.261 249.006 209.232V214H247.918L247.806 213.072H247.758C247.395 213.371 246.995 213.632 246.558 213.856C246.131 214.08 245.673 214.192 245.182 214.192ZM245.566 213.136C245.939 213.136 246.291 213.045 246.622 212.864C246.953 212.683 247.305 212.427 247.678 212.096V209.936C246.387 210.096 245.481 210.336 244.958 210.656C244.446 210.976 244.19 211.387 244.19 211.888C244.19 212.325 244.323 212.645 244.59 212.848C244.857 213.04 245.182 213.136 245.566 213.136ZM252.845 214.192C252.354 214.192 251.997 214.043 251.773 213.744C251.559 213.435 251.453 212.997 251.453 212.432V202.608H252.765V212.528C252.765 212.731 252.802 212.88 252.877 212.976C252.951 213.061 253.037 213.104 253.133 213.104C253.175 213.104 253.213 213.104 253.245 213.104C253.287 213.093 253.346 213.083 253.421 213.072L253.597 214.064C253.511 214.107 253.41 214.139 253.293 214.16C253.175 214.181 253.026 214.192 252.845 214.192ZM257.563 214.192C257.008 214.192 256.48 214.091 255.979 213.888C255.477 213.675 255.04 213.419 254.667 213.12L255.323 212.24C255.664 212.507 256.016 212.731 256.379 212.912C256.741 213.083 257.152 213.168 257.611 213.168C258.123 213.168 258.507 213.051 258.763 212.816C259.019 212.571 259.147 212.283 259.147 211.952C259.147 211.685 259.056 211.461 258.875 211.28C258.704 211.099 258.48 210.949 258.203 210.832C257.936 210.704 257.659 210.587 257.371 210.48C257.008 210.341 256.651 210.187 256.299 210.016C255.947 209.835 255.659 209.605 255.435 209.328C255.211 209.04 255.099 208.677 255.099 208.24C255.099 207.611 255.333 207.088 255.803 206.672C256.283 206.245 256.944 206.032 257.787 206.032C258.267 206.032 258.715 206.117 259.131 206.288C259.547 206.459 259.904 206.667 260.203 206.912L259.563 207.744C259.296 207.541 259.019 207.376 258.731 207.248C258.443 207.12 258.128 207.056 257.787 207.056C257.296 207.056 256.933 207.168 256.699 207.392C256.475 207.616 256.363 207.877 256.363 208.176C256.363 208.421 256.443 208.624 256.603 208.784C256.763 208.933 256.971 209.067 257.227 209.184C257.483 209.291 257.755 209.403 258.043 209.52C258.416 209.659 258.784 209.819 259.147 210C259.509 210.171 259.808 210.405 260.043 210.704C260.288 210.992 260.411 211.381 260.411 211.872C260.411 212.288 260.299 212.672 260.075 213.024C259.861 213.376 259.541 213.659 259.115 213.872C258.699 214.085 258.181 214.192 257.563 214.192ZM265.386 214.192C264.693 214.192 264.063 214.032 263.498 213.712C262.933 213.381 262.485 212.912 262.154 212.304C261.823 211.696 261.658 210.971 261.658 210.128C261.658 209.275 261.823 208.544 262.154 207.936C262.495 207.328 262.933 206.859 263.466 206.528C263.999 206.197 264.559 206.032 265.146 206.032C266.138 206.032 266.901 206.363 267.434 207.024C267.978 207.685 268.25 208.571 268.25 209.68C268.25 209.819 268.245 209.957 268.234 210.096C268.234 210.224 268.223 210.336 268.202 210.432H262.954C263.007 211.253 263.263 211.909 263.722 212.4C264.191 212.891 264.799 213.136 265.546 213.136C265.919 213.136 266.261 213.083 266.57 212.976C266.89 212.859 267.194 212.709 267.482 212.528L267.946 213.392C267.615 213.605 267.237 213.792 266.81 213.952C266.394 214.112 265.919 214.192 265.386 214.192ZM262.938 209.488H267.098C267.098 208.699 266.927 208.101 266.586 207.696C266.255 207.28 265.786 207.072 265.178 207.072C264.634 207.072 264.143 207.285 263.706 207.712C263.279 208.128 263.023 208.72 262.938 209.488ZM275.823 214.192C274.991 214.192 274.409 213.952 274.079 213.472C273.759 212.992 273.599 212.368 273.599 211.6V207.296H272.447V206.304L273.663 206.224L273.823 204.048H274.927V206.224H277.023V207.296H274.927V211.616C274.927 212.096 275.012 212.469 275.183 212.736C275.364 212.992 275.679 213.12 276.127 213.12C276.265 213.12 276.415 213.099 276.575 213.056C276.735 213.003 276.879 212.955 277.007 212.912L277.263 213.904C277.049 213.979 276.815 214.043 276.559 214.096C276.313 214.16 276.068 214.192 275.823 214.192ZM278.781 214V202.608H280.093V205.712L280.045 207.312C280.418 206.96 280.807 206.661 281.213 206.416C281.629 206.16 282.103 206.032 282.637 206.032C283.458 206.032 284.055 206.293 284.429 206.816C284.813 207.328 285.005 208.08 285.005 209.072V214H283.693V209.248C283.693 208.523 283.575 207.995 283.341 207.664C283.106 207.333 282.733 207.168 282.221 207.168C281.826 207.168 281.469 207.269 281.149 207.472C280.839 207.675 280.487 207.973 280.093 208.368V214H278.781ZM289.276 214.192C288.625 214.192 288.081 214 287.644 213.616C287.217 213.221 287.004 212.677 287.004 211.984C287.004 211.131 287.383 210.48 288.14 210.032C288.908 209.573 290.119 209.253 291.772 209.072C291.772 208.741 291.724 208.427 291.628 208.128C291.543 207.829 291.383 207.589 291.148 207.408C290.924 207.216 290.599 207.12 290.172 207.12C289.724 207.12 289.303 207.205 288.908 207.376C288.513 207.547 288.161 207.739 287.852 207.952L287.34 207.04C287.703 206.805 288.145 206.581 288.668 206.368C289.201 206.144 289.777 206.032 290.396 206.032C291.345 206.032 292.033 206.325 292.46 206.912C292.887 207.488 293.1 208.261 293.1 209.232V214H292.012L291.9 213.072H291.852C291.489 213.371 291.089 213.632 290.652 213.856C290.225 214.08 289.767 214.192 289.276 214.192ZM289.66 213.136C290.033 213.136 290.385 213.045 290.716 212.864C291.047 212.683 291.399 212.427 291.772 212.096V209.936C290.481 210.096 289.575 210.336 289.052 210.656C288.54 210.976 288.284 211.387 288.284 211.888C288.284 212.325 288.417 212.645 288.684 212.848C288.951 213.04 289.276 213.136 289.66 213.136ZM297.776 214.192C296.944 214.192 296.362 213.952 296.032 213.472C295.712 212.992 295.552 212.368 295.552 211.6V207.296H294.4V206.304L295.616 206.224L295.776 204.048H296.88V206.224H298.976V207.296H296.88V211.616C296.88 212.096 296.965 212.469 297.136 212.736C297.317 212.992 297.632 213.12 298.08 213.12C298.218 213.12 298.368 213.099 298.528 213.056C298.688 213.003 298.832 212.955 298.96 212.912L299.216 213.904C299.002 213.979 298.768 214.043 298.512 214.096C298.266 214.16 298.021 214.192 297.776 214.192ZM303.265 214V213.216C304.289 212.192 305.158 211.296 305.873 210.528C306.588 209.749 307.132 209.051 307.505 208.432C307.878 207.803 308.065 207.216 308.065 206.672C308.065 206.085 307.905 205.605 307.585 205.232C307.265 204.859 306.78 204.672 306.129 204.672C305.702 204.672 305.308 204.795 304.945 205.04C304.582 205.275 304.252 205.563 303.953 205.904L303.201 205.152C303.628 204.683 304.081 204.309 304.561 204.032C305.052 203.744 305.628 203.6 306.289 203.6C307.238 203.6 307.985 203.877 308.529 204.432C309.073 204.976 309.345 205.701 309.345 206.608C309.345 207.248 309.164 207.899 308.801 208.56C308.449 209.211 307.958 209.899 307.329 210.624C306.71 211.339 305.996 212.117 305.185 212.96C305.462 212.939 305.75 212.917 306.049 212.896C306.348 212.875 306.63 212.864 306.897 212.864H309.857V214H303.265ZM315.093 214V206.224H316.405V214H315.093ZM315.765 204.624C315.509 204.624 315.296 204.549 315.125 204.4C314.965 204.24 314.885 204.027 314.885 203.76C314.885 203.504 314.965 203.296 315.125 203.136C315.296 202.976 315.509 202.896 315.765 202.896C316.021 202.896 316.229 202.976 316.389 203.136C316.56 203.296 316.645 203.504 316.645 203.76C316.645 204.027 316.56 204.24 316.389 204.4C316.229 204.549 316.021 204.624 315.765 204.624ZM321.063 214.192C320.508 214.192 319.98 214.091 319.479 213.888C318.977 213.675 318.54 213.419 318.167 213.12L318.823 212.24C319.164 212.507 319.516 212.731 319.879 212.912C320.241 213.083 320.652 213.168 321.111 213.168C321.623 213.168 322.007 213.051 322.263 212.816C322.519 212.571 322.647 212.283 322.647 211.952C322.647 211.685 322.556 211.461 322.375 211.28C322.204 211.099 321.98 210.949 321.703 210.832C321.436 210.704 321.159 210.587 320.871 210.48C320.508 210.341 320.151 210.187 319.799 210.016C319.447 209.835 319.159 209.605 318.935 209.328C318.711 209.04 318.599 208.677 318.599 208.24C318.599 207.611 318.833 207.088 319.303 206.672C319.783 206.245 320.444 206.032 321.287 206.032C321.767 206.032 322.215 206.117 322.631 206.288C323.047 206.459 323.404 206.667 323.703 206.912L323.063 207.744C322.796 207.541 322.519 207.376 322.231 207.248C321.943 207.12 321.628 207.056 321.287 207.056C320.796 207.056 320.433 207.168 320.199 207.392C319.975 207.616 319.863 207.877 319.863 208.176C319.863 208.421 319.943 208.624 320.103 208.784C320.263 208.933 320.471 209.067 320.727 209.184C320.983 209.291 321.255 209.403 321.543 209.52C321.916 209.659 322.284 209.819 322.647 210C323.009 210.171 323.308 210.405 323.543 210.704C323.788 210.992 323.911 211.381 323.911 211.872C323.911 212.288 323.799 212.672 323.575 213.024C323.361 213.376 323.041 213.659 322.615 213.872C322.199 214.085 321.681 214.192 321.063 214.192ZM328.937 214V206.224H330.025L330.137 207.344H330.185C330.558 206.971 330.953 206.661 331.369 206.416C331.785 206.16 332.26 206.032 332.793 206.032C333.614 206.032 334.212 206.293 334.585 206.816C334.969 207.328 335.161 208.08 335.161 209.072V214H333.849V209.248C333.849 208.523 333.732 207.995 333.497 207.664C333.262 207.333 332.889 207.168 332.377 207.168C331.982 207.168 331.625 207.269 331.305 207.472C330.996 207.675 330.644 207.973 330.249 208.368V214H328.937ZM340.711 214.192C340.082 214.192 339.49 214.032 338.935 213.712C338.391 213.392 337.948 212.928 337.607 212.32C337.276 211.712 337.111 210.981 337.111 210.128C337.111 209.253 337.276 208.512 337.607 207.904C337.948 207.296 338.391 206.832 338.935 206.512C339.49 206.192 340.082 206.032 340.711 206.032C341.351 206.032 341.943 206.192 342.487 206.512C343.031 206.832 343.468 207.296 343.799 207.904C344.14 208.512 344.311 209.253 344.311 210.128C344.311 210.981 344.14 211.712 343.799 212.32C343.468 212.928 343.031 213.392 342.487 213.712C341.943 214.032 341.351 214.192 340.711 214.192ZM340.711 213.104C341.383 213.104 341.922 212.832 342.327 212.288C342.743 211.733 342.951 211.013 342.951 210.128C342.951 209.232 342.743 208.507 342.327 207.952C341.922 207.397 341.383 207.12 340.711 207.12C340.05 207.12 339.511 207.397 339.095 207.952C338.679 208.507 338.471 209.232 338.471 210.128C338.471 211.013 338.679 211.733 339.095 212.288C339.511 212.832 340.05 213.104 340.711 213.104ZM348.541 214.192C347.709 214.192 347.128 213.952 346.797 213.472C346.477 212.992 346.317 212.368 346.317 211.6V207.296H345.165V206.304L346.381 206.224L346.541 204.048H347.645V206.224H349.741V207.296H347.645V211.616C347.645 212.096 347.731 212.469 347.901 212.736C348.083 212.992 348.397 213.12 348.845 213.12C348.984 213.12 349.133 213.099 349.293 213.056C349.453 213.003 349.597 212.955 349.725 212.912L349.981 213.904C349.768 213.979 349.533 214.043 349.277 214.096C349.032 214.16 348.787 214.192 348.541 214.192ZM357.855 214.192C357.161 214.192 356.532 214.032 355.967 213.712C355.401 213.381 354.953 212.912 354.623 212.304C354.292 211.696 354.127 210.971 354.127 210.128C354.127 209.275 354.292 208.544 354.623 207.936C354.964 207.328 355.401 206.859 355.935 206.528C356.468 206.197 357.028 206.032 357.615 206.032C358.607 206.032 359.369 206.363 359.903 207.024C360.447 207.685 360.719 208.571 360.719 209.68C360.719 209.819 360.713 209.957 360.703 210.096C360.703 210.224 360.692 210.336 360.671 210.432H355.423C355.476 211.253 355.732 211.909 356.191 212.4C356.66 212.891 357.268 213.136 358.015 213.136C358.388 213.136 358.729 213.083 359.039 212.976C359.359 212.859 359.663 212.709 359.951 212.528L360.415 213.392C360.084 213.605 359.705 213.792 359.279 213.952C358.863 214.112 358.388 214.192 357.855 214.192ZM355.407 209.488H359.567C359.567 208.699 359.396 208.101 359.055 207.696C358.724 207.28 358.255 207.072 357.647 207.072C357.103 207.072 356.612 207.285 356.175 207.712C355.748 208.128 355.492 208.72 355.407 209.488ZM367.568 217.28V214.512L367.632 213.104C367.323 213.403 366.965 213.659 366.56 213.872C366.165 214.085 365.744 214.192 365.296 214.192C364.325 214.192 363.547 213.84 362.96 213.136C362.373 212.421 362.08 211.419 362.08 210.128C362.08 209.285 362.235 208.56 362.544 207.952C362.864 207.333 363.28 206.859 363.792 206.528C364.315 206.197 364.869 206.032 365.456 206.032C365.904 206.032 366.299 206.112 366.64 206.272C366.981 206.421 367.328 206.651 367.68 206.96H367.712L367.84 206.224H368.896V217.28H367.568ZM365.584 213.088C366.267 213.088 366.928 212.731 367.568 212.016V207.952C367.237 207.653 366.917 207.445 366.608 207.328C366.309 207.2 366 207.136 365.68 207.136C365.264 207.136 364.885 207.264 364.544 207.52C364.213 207.765 363.947 208.112 363.744 208.56C363.541 208.997 363.44 209.515 363.44 210.112C363.44 211.04 363.627 211.771 364 212.304C364.373 212.827 364.901 213.088 365.584 213.088ZM373.787 214.192C372.966 214.192 372.363 213.936 371.979 213.424C371.595 212.901 371.403 212.144 371.403 211.152V206.224H372.731V210.976C372.731 211.701 372.843 212.229 373.067 212.56C373.302 212.891 373.675 213.056 374.187 213.056C374.592 213.056 374.95 212.955 375.259 212.752C375.579 212.539 375.92 212.203 376.283 211.744V206.224H377.595V214H376.507L376.395 212.784H376.347C375.984 213.211 375.6 213.552 375.195 213.808C374.79 214.064 374.32 214.192 373.787 214.192ZM382.01 214.192C381.36 214.192 380.816 214 380.378 213.616C379.952 213.221 379.738 212.677 379.738 211.984C379.738 211.131 380.117 210.48 380.874 210.032C381.642 209.573 382.853 209.253 384.506 209.072C384.506 208.741 384.458 208.427 384.362 208.128C384.277 207.829 384.117 207.589 383.882 207.408C383.658 207.216 383.333 207.12 382.906 207.12C382.458 207.12 382.037 207.205 381.642 207.376C381.248 207.547 380.896 207.739 380.586 207.952L380.074 207.04C380.437 206.805 380.88 206.581 381.402 206.368C381.936 206.144 382.512 206.032 383.13 206.032C384.08 206.032 384.768 206.325 385.194 206.912C385.621 207.488 385.834 208.261 385.834 209.232V214H384.746L384.634 213.072H384.586C384.224 213.371 383.824 213.632 383.386 213.856C382.96 214.08 382.501 214.192 382.01 214.192ZM382.394 213.136C382.768 213.136 383.12 213.045 383.45 212.864C383.781 212.683 384.133 212.427 384.506 212.096V209.936C383.216 210.096 382.309 210.336 381.786 210.656C381.274 210.976 381.018 211.387 381.018 211.888C381.018 212.325 381.152 212.645 381.418 212.848C381.685 213.04 382.01 213.136 382.394 213.136ZM389.673 214.192C389.182 214.192 388.825 214.043 388.601 213.744C388.387 213.435 388.281 212.997 388.281 212.432V202.608H389.593V212.528C389.593 212.731 389.63 212.88 389.705 212.976C389.779 213.061 389.865 213.104 389.961 213.104C390.003 213.104 390.041 213.104 390.073 213.104C390.115 213.093 390.174 213.083 390.249 213.072L390.425 214.064C390.339 214.107 390.238 214.139 390.121 214.16C390.003 214.181 389.854 214.192 389.673 214.192ZM398.01 214.192C397.178 214.192 396.597 213.952 396.266 213.472C395.946 212.992 395.786 212.368 395.786 211.6V207.296H394.634V206.304L395.85 206.224L396.01 204.048H397.114V206.224H399.21V207.296H397.114V211.616C397.114 212.096 397.199 212.469 397.37 212.736C397.551 212.992 397.866 213.12 398.314 213.12C398.453 213.12 398.602 213.099 398.762 213.056C398.922 213.003 399.066 212.955 399.194 212.912L399.45 213.904C399.237 213.979 399.002 214.043 398.746 214.096C398.501 214.16 398.255 214.192 398.01 214.192ZM403.774 214.192C403.144 214.192 402.552 214.032 401.998 213.712C401.454 213.392 401.011 212.928 400.67 212.32C400.339 211.712 400.174 210.981 400.174 210.128C400.174 209.253 400.339 208.512 400.67 207.904C401.011 207.296 401.454 206.832 401.998 206.512C402.552 206.192 403.144 206.032 403.774 206.032C404.414 206.032 405.006 206.192 405.55 206.512C406.094 206.832 406.531 207.296 406.862 207.904C407.203 208.512 407.374 209.253 407.374 210.128C407.374 210.981 407.203 211.712 406.862 212.32C406.531 212.928 406.094 213.392 405.55 213.712C405.006 214.032 404.414 214.192 403.774 214.192ZM403.774 213.104C404.446 213.104 404.984 212.832 405.39 212.288C405.806 211.733 406.014 211.013 406.014 210.128C406.014 209.232 405.806 208.507 405.39 207.952C404.984 207.397 404.446 207.12 403.774 207.12C403.112 207.12 402.574 207.397 402.158 207.952C401.742 208.507 401.534 209.232 401.534 210.128C401.534 211.013 401.742 211.733 402.158 212.288C402.574 212.832 403.112 213.104 403.774 213.104ZM411.953 214V213.216C412.977 212.192 413.846 211.296 414.561 210.528C415.275 209.749 415.819 209.051 416.193 208.432C416.566 207.803 416.753 207.216 416.753 206.672C416.753 206.085 416.593 205.605 416.273 205.232C415.953 204.859 415.467 204.672 414.817 204.672C414.39 204.672 413.995 204.795 413.633 205.04C413.27 205.275 412.939 205.563 412.641 205.904L411.889 205.152C412.315 204.683 412.769 204.309 413.249 204.032C413.739 203.744 414.315 203.6 414.977 203.6C415.926 203.6 416.673 203.877 417.217 204.432C417.761 204.976 418.033 205.701 418.033 206.608C418.033 207.248 417.851 207.899 417.489 208.56C417.137 209.211 416.646 209.899 416.016 210.624C415.398 211.339 414.683 212.117 413.873 212.96C414.15 212.939 414.438 212.917 414.737 212.896C415.035 212.875 415.318 212.864 415.585 212.864H418.545V214H411.953ZM218.424 240.816C217.763 239.739 217.245 238.613 216.872 237.44C216.499 236.256 216.312 234.96 216.312 233.552C216.312 232.144 216.499 230.848 216.872 229.664C217.245 228.48 217.763 227.355 218.424 226.288L219.24 226.672C218.621 227.685 218.157 228.784 217.848 229.968C217.549 231.141 217.4 232.336 217.4 233.552C217.4 234.768 217.549 235.968 217.848 237.152C218.157 238.325 218.621 239.419 219.24 240.432L218.424 240.816ZM224.596 238.192C224.233 238.192 223.854 238.107 223.46 237.936C223.076 237.755 222.713 237.509 222.372 237.2H222.324L222.212 238H221.156V226.608H222.468V229.712L222.436 231.12C222.788 230.811 223.172 230.555 223.588 230.352C224.014 230.139 224.441 230.032 224.868 230.032C225.881 230.032 226.649 230.389 227.172 231.104C227.694 231.819 227.956 232.779 227.956 233.984C227.956 234.869 227.796 235.627 227.476 236.256C227.166 236.885 226.756 237.365 226.244 237.696C225.742 238.027 225.193 238.192 224.596 238.192ZM224.372 237.088C225.012 237.088 225.54 236.816 225.956 236.272C226.382 235.717 226.596 234.96 226.596 234C226.596 233.147 226.436 232.459 226.116 231.936C225.806 231.403 225.284 231.136 224.548 231.136C224.217 231.136 223.881 231.227 223.54 231.408C223.198 231.589 222.841 231.851 222.468 232.192V236.272C222.809 236.571 223.145 236.784 223.476 236.912C223.817 237.029 224.116 237.088 224.372 237.088ZM233.152 238.192C232.458 238.192 231.829 238.032 231.264 237.712C230.698 237.381 230.25 236.912 229.92 236.304C229.589 235.696 229.424 234.971 229.424 234.128C229.424 233.275 229.589 232.544 229.92 231.936C230.261 231.328 230.698 230.859 231.232 230.528C231.765 230.197 232.325 230.032 232.911 230.032C233.904 230.032 234.666 230.363 235.2 231.024C235.744 231.685 236.016 232.571 236.016 233.68C236.016 233.819 236.01 233.957 236 234.096C236 234.224 235.989 234.336 235.968 234.432H230.72C230.773 235.253 231.029 235.909 231.488 236.4C231.957 236.891 232.565 237.136 233.312 237.136C233.685 237.136 234.026 237.083 234.336 236.976C234.656 236.859 234.96 236.709 235.248 236.528L235.712 237.392C235.381 237.605 235.002 237.792 234.576 237.952C234.16 238.112 233.685 238.192 233.152 238.192ZM230.704 233.488H234.864C234.864 232.699 234.693 232.101 234.352 231.696C234.021 231.28 233.552 231.072 232.944 231.072C232.4 231.072 231.909 231.285 231.472 231.712C231.045 232.128 230.789 232.72 230.704 233.488ZM241.009 238.192C240.326 238.192 239.708 238.032 239.153 237.712C238.598 237.392 238.161 236.928 237.841 236.32C237.521 235.712 237.361 234.981 237.361 234.128C237.361 233.253 237.532 232.512 237.873 231.904C238.225 231.296 238.684 230.832 239.249 230.512C239.825 230.192 240.444 230.032 241.105 230.032C241.617 230.032 242.054 230.123 242.417 230.304C242.79 230.485 243.11 230.699 243.377 230.944L242.705 231.808C242.481 231.605 242.241 231.44 241.985 231.312C241.74 231.184 241.462 231.12 241.153 231.12C240.684 231.12 240.262 231.248 239.889 231.504C239.526 231.749 239.238 232.101 239.025 232.56C238.822 233.008 238.721 233.531 238.721 234.128C238.721 235.013 238.94 235.733 239.377 236.288C239.825 236.832 240.406 237.104 241.121 237.104C241.484 237.104 241.82 237.029 242.129 236.88C242.438 236.72 242.71 236.533 242.945 236.32L243.521 237.2C243.169 237.509 242.78 237.755 242.353 237.936C241.926 238.107 241.478 238.192 241.009 238.192ZM246.87 238.192C246.219 238.192 245.675 238 245.238 237.616C244.811 237.221 244.598 236.677 244.598 235.984C244.598 235.131 244.976 234.48 245.734 234.032C246.502 233.573 247.712 233.253 249.366 233.072C249.366 232.741 249.318 232.427 249.222 232.128C249.136 231.829 248.976 231.589 248.742 231.408C248.518 231.216 248.192 231.12 247.766 231.12C247.318 231.12 246.896 231.205 246.502 231.376C246.107 231.547 245.755 231.739 245.446 231.952L244.934 231.04C245.296 230.805 245.739 230.581 246.262 230.368C246.795 230.144 247.371 230.032 247.99 230.032C248.939 230.032 249.627 230.325 250.054 230.912C250.48 231.488 250.694 232.261 250.694 233.232V238H249.606L249.494 237.072H249.446C249.083 237.371 248.683 237.632 248.246 237.856C247.819 238.08 247.36 238.192 246.87 238.192ZM247.254 237.136C247.627 237.136 247.979 237.045 248.31 236.864C248.64 236.683 248.992 236.427 249.366 236.096V233.936C248.075 234.096 247.168 234.336 246.646 234.656C246.134 234.976 245.878 235.387 245.878 235.888C245.878 236.325 246.011 236.645 246.278 236.848C246.544 237.04 246.87 237.136 247.254 237.136ZM255.412 238.192C254.591 238.192 253.988 237.936 253.604 237.424C253.22 236.901 253.028 236.144 253.028 235.152V230.224H254.356V234.976C254.356 235.701 254.468 236.229 254.692 236.56C254.927 236.891 255.3 237.056 255.812 237.056C256.217 237.056 256.575 236.955 256.884 236.752C257.204 236.539 257.545 236.203 257.908 235.744V230.224H259.22V238H258.132L258.02 236.784H257.972C257.609 237.211 257.225 237.552 256.82 237.808C256.415 238.064 255.945 238.192 255.412 238.192ZM263.875 238.192C263.321 238.192 262.793 238.091 262.291 237.888C261.79 237.675 261.353 237.419 260.979 237.12L261.635 236.24C261.977 236.507 262.329 236.731 262.691 236.912C263.054 237.083 263.465 237.168 263.923 237.168C264.435 237.168 264.819 237.051 265.075 236.816C265.331 236.571 265.459 236.283 265.459 235.952C265.459 235.685 265.369 235.461 265.187 235.28C265.017 235.099 264.793 234.949 264.515 234.832C264.249 234.704 263.971 234.587 263.683 234.48C263.321 234.341 262.963 234.187 262.611 234.016C262.259 233.835 261.971 233.605 261.747 233.328C261.523 233.04 261.411 232.677 261.411 232.24C261.411 231.611 261.646 231.088 262.115 230.672C262.595 230.245 263.257 230.032 264.099 230.032C264.579 230.032 265.027 230.117 265.443 230.288C265.859 230.459 266.217 230.667 266.515 230.912L265.875 231.744C265.609 231.541 265.331 231.376 265.043 231.248C264.755 231.12 264.441 231.056 264.099 231.056C263.609 231.056 263.246 231.168 263.011 231.392C262.787 231.616 262.675 231.877 262.675 232.176C262.675 232.421 262.755 232.624 262.915 232.784C263.075 232.933 263.283 233.067 263.539 233.184C263.795 233.291 264.067 233.403 264.355 233.52C264.729 233.659 265.097 233.819 265.459 234C265.822 234.171 266.121 234.405 266.355 234.704C266.601 234.992 266.723 235.381 266.723 235.872C266.723 236.288 266.611 236.672 266.387 237.024C266.174 237.376 265.854 237.659 265.427 237.872C265.011 238.085 264.494 238.192 263.875 238.192ZM271.698 238.192C271.005 238.192 270.376 238.032 269.81 237.712C269.245 237.381 268.797 236.912 268.466 236.304C268.136 235.696 267.97 234.971 267.97 234.128C267.97 233.275 268.136 232.544 268.466 231.936C268.808 231.328 269.245 230.859 269.778 230.528C270.312 230.197 270.872 230.032 271.458 230.032C272.45 230.032 273.213 230.363 273.746 231.024C274.29 231.685 274.562 232.571 274.562 233.68C274.562 233.819 274.557 233.957 274.546 234.096C274.546 234.224 274.536 234.336 274.514 234.432H269.266C269.32 235.253 269.576 235.909 270.034 236.4C270.504 236.891 271.112 237.136 271.858 237.136C272.232 237.136 272.573 237.083 272.882 236.976C273.202 236.859 273.506 236.709 273.794 236.528L274.258 237.392C273.928 237.605 273.549 237.792 273.122 237.952C272.706 238.112 272.232 238.192 271.698 238.192ZM269.25 233.488H273.41C273.41 232.699 273.24 232.101 272.898 231.696C272.568 231.28 272.098 231.072 271.49 231.072C270.946 231.072 270.456 231.285 270.018 231.712C269.592 232.128 269.336 232.72 269.25 233.488ZM279.015 238V237.216C280.039 236.192 280.908 235.296 281.623 234.528C282.338 233.749 282.882 233.051 283.255 232.432C283.628 231.803 283.815 231.216 283.815 230.672C283.815 230.085 283.655 229.605 283.335 229.232C283.015 228.859 282.53 228.672 281.879 228.672C281.452 228.672 281.058 228.795 280.695 229.04C280.332 229.275 280.002 229.563 279.703 229.904L278.951 229.152C279.378 228.683 279.831 228.309 280.311 228.032C280.802 227.744 281.378 227.6 282.039 227.6C282.988 227.6 283.735 227.877 284.279 228.432C284.823 228.976 285.095 229.701 285.095 230.608C285.095 231.248 284.914 231.899 284.551 232.56C284.199 233.211 283.708 233.899 283.079 234.624C282.46 235.339 281.746 236.117 280.935 236.96C281.212 236.939 281.5 236.917 281.799 236.896C282.098 236.875 282.38 236.864 282.647 236.864H285.607V238H279.015ZM290.843 238V230.224H292.155V238H290.843ZM291.515 228.624C291.259 228.624 291.046 228.549 290.875 228.4C290.715 228.24 290.635 228.027 290.635 227.76C290.635 227.504 290.715 227.296 290.875 227.136C291.046 226.976 291.259 226.896 291.515 226.896C291.771 226.896 291.979 226.976 292.139 227.136C292.31 227.296 292.395 227.504 292.395 227.76C292.395 228.027 292.31 228.24 292.139 228.4C291.979 228.549 291.771 228.624 291.515 228.624ZM296.813 238.192C296.258 238.192 295.73 238.091 295.229 237.888C294.727 237.675 294.29 237.419 293.917 237.12L294.573 236.24C294.914 236.507 295.266 236.731 295.629 236.912C295.991 237.083 296.402 237.168 296.861 237.168C297.373 237.168 297.757 237.051 298.013 236.816C298.269 236.571 298.397 236.283 298.397 235.952C298.397 235.685 298.306 235.461 298.125 235.28C297.954 235.099 297.73 234.949 297.453 234.832C297.186 234.704 296.909 234.587 296.621 234.48C296.258 234.341 295.901 234.187 295.549 234.016C295.197 233.835 294.909 233.605 294.685 233.328C294.461 233.04 294.349 232.677 294.349 232.24C294.349 231.611 294.583 231.088 295.053 230.672C295.533 230.245 296.194 230.032 297.037 230.032C297.517 230.032 297.965 230.117 298.381 230.288C298.797 230.459 299.154 230.667 299.453 230.912L298.813 231.744C298.546 231.541 298.269 231.376 297.981 231.248C297.693 231.12 297.378 231.056 297.037 231.056C296.546 231.056 296.183 231.168 295.949 231.392C295.725 231.616 295.613 231.877 295.613 232.176C295.613 232.421 295.693 232.624 295.853 232.784C296.013 232.933 296.221 233.067 296.477 233.184C296.733 233.291 297.005 233.403 297.293 233.52C297.666 233.659 298.034 233.819 298.397 234C298.759 234.171 299.058 234.405 299.293 234.704C299.538 234.992 299.661 235.381 299.661 235.872C299.661 236.288 299.549 236.672 299.325 237.024C299.111 237.376 298.791 237.659 298.365 237.872C297.949 238.085 297.431 238.192 296.813 238.192ZM307.839 238.192C307.146 238.192 306.516 238.032 305.951 237.712C305.386 237.381 304.938 236.912 304.607 236.304C304.276 235.696 304.111 234.971 304.111 234.128C304.111 233.275 304.276 232.544 304.607 231.936C304.948 231.328 305.386 230.859 305.919 230.528C306.452 230.197 307.012 230.032 307.599 230.032C308.591 230.032 309.354 230.363 309.887 231.024C310.431 231.685 310.703 232.571 310.703 233.68C310.703 233.819 310.698 233.957 310.687 234.096C310.687 234.224 310.676 234.336 310.655 234.432H305.407C305.46 235.253 305.716 235.909 306.175 236.4C306.644 236.891 307.252 237.136 307.999 237.136C308.372 237.136 308.714 237.083 309.023 236.976C309.343 236.859 309.647 236.709 309.935 236.528L310.399 237.392C310.068 237.605 309.69 237.792 309.263 237.952C308.847 238.112 308.372 238.192 307.839 238.192ZM305.391 233.488H309.551C309.551 232.699 309.38 232.101 309.039 231.696C308.708 231.28 308.239 231.072 307.631 231.072C307.087 231.072 306.596 231.285 306.159 231.712C305.732 232.128 305.476 232.72 305.391 233.488ZM317.553 241.28V238.512L317.617 237.104C317.307 237.403 316.95 237.659 316.545 237.872C316.15 238.085 315.729 238.192 315.281 238.192C314.31 238.192 313.531 237.84 312.945 237.136C312.358 236.421 312.065 235.419 312.065 234.128C312.065 233.285 312.219 232.56 312.529 231.952C312.849 231.333 313.265 230.859 313.777 230.528C314.299 230.197 314.854 230.032 315.441 230.032C315.889 230.032 316.283 230.112 316.625 230.272C316.966 230.421 317.313 230.651 317.665 230.96H317.697L317.825 230.224H318.881V241.28H317.553ZM315.569 237.088C316.251 237.088 316.913 236.731 317.553 236.016V231.952C317.222 231.653 316.902 231.445 316.593 231.328C316.294 231.2 315.985 231.136 315.665 231.136C315.249 231.136 314.87 231.264 314.529 231.52C314.198 231.765 313.931 232.112 313.729 232.56C313.526 232.997 313.424 233.515 313.424 234.112C313.424 235.04 313.611 235.771 313.985 236.304C314.358 236.827 314.886 237.088 315.569 237.088ZM323.772 238.192C322.95 238.192 322.348 237.936 321.964 237.424C321.58 236.901 321.388 236.144 321.388 235.152V230.224H322.716V234.976C322.716 235.701 322.828 236.229 323.052 236.56C323.286 236.891 323.66 237.056 324.172 237.056C324.577 237.056 324.934 236.955 325.244 236.752C325.564 236.539 325.905 236.203 326.268 235.744V230.224H327.58V238H326.492L326.38 236.784H326.332C325.969 237.211 325.585 237.552 325.18 237.808C324.774 238.064 324.305 238.192 323.772 238.192ZM331.995 238.192C331.344 238.192 330.8 238 330.363 237.616C329.936 237.221 329.723 236.677 329.723 235.984C329.723 235.131 330.101 234.48 330.859 234.032C331.627 233.573 332.837 233.253 334.491 233.072C334.491 232.741 334.443 232.427 334.347 232.128C334.261 231.829 334.101 231.589 333.867 231.408C333.643 231.216 333.317 231.12 332.891 231.12C332.443 231.12 332.021 231.205 331.627 231.376C331.232 231.547 330.88 231.739 330.571 231.952L330.059 231.04C330.421 230.805 330.864 230.581 331.387 230.368C331.92 230.144 332.496 230.032 333.115 230.032C334.064 230.032 334.752 230.325 335.179 230.912C335.605 231.488 335.819 232.261 335.819 233.232V238H334.731L334.619 237.072H334.571C334.208 237.371 333.808 237.632 333.371 237.856C332.944 238.08 332.485 238.192 331.995 238.192ZM332.379 237.136C332.752 237.136 333.104 237.045 333.435 236.864C333.765 236.683 334.117 236.427 334.491 236.096V233.936C333.2 234.096 332.293 234.336 331.771 234.656C331.259 234.976 331.003 235.387 331.003 235.888C331.003 236.325 331.136 236.645 331.403 236.848C331.669 237.04 331.995 237.136 332.379 237.136ZM339.657 238.192C339.166 238.192 338.809 238.043 338.585 237.744C338.372 237.435 338.265 236.997 338.265 236.432V226.608H339.577V236.528C339.577 236.731 339.614 236.88 339.689 236.976C339.764 237.061 339.849 237.104 339.945 237.104C339.988 237.104 340.025 237.104 340.057 237.104C340.1 237.093 340.158 237.083 340.233 237.072L340.409 238.064C340.324 238.107 340.222 238.139 340.105 238.16C339.988 238.181 339.838 238.192 339.657 238.192ZM347.994 238.192C347.162 238.192 346.581 237.952 346.25 237.472C345.93 236.992 345.77 236.368 345.77 235.6V231.296H344.618V230.304L345.834 230.224L345.994 228.048H347.098V230.224H349.194V231.296H347.098V235.616C347.098 236.096 347.184 236.469 347.354 236.736C347.536 236.992 347.85 237.12 348.298 237.12C348.437 237.12 348.586 237.099 348.746 237.056C348.906 237.003 349.05 236.955 349.178 236.912L349.434 237.904C349.221 237.979 348.986 238.043 348.73 238.096C348.485 238.16 348.24 238.192 347.994 238.192ZM353.758 238.192C353.129 238.192 352.537 238.032 351.982 237.712C351.438 237.392 350.995 236.928 350.654 236.32C350.323 235.712 350.158 234.981 350.158 234.128C350.158 233.253 350.323 232.512 350.654 231.904C350.995 231.296 351.438 230.832 351.982 230.512C352.537 230.192 353.129 230.032 353.758 230.032C354.398 230.032 354.99 230.192 355.534 230.512C356.078 230.832 356.515 231.296 356.846 231.904C357.187 232.512 357.358 233.253 357.358 234.128C357.358 234.981 357.187 235.712 356.846 236.32C356.515 236.928 356.078 237.392 355.534 237.712C354.99 238.032 354.398 238.192 353.758 238.192ZM353.758 237.104C354.43 237.104 354.969 236.832 355.374 236.288C355.79 235.733 355.998 235.013 355.998 234.128C355.998 233.232 355.79 232.507 355.374 231.952C354.969 231.397 354.43 231.12 353.758 231.12C353.097 231.12 352.558 231.397 352.142 231.952C351.726 232.507 351.518 233.232 351.518 234.128C351.518 235.013 351.726 235.733 352.142 236.288C352.558 236.832 353.097 237.104 353.758 237.104ZM361.937 238V237.216C362.961 236.192 363.83 235.296 364.545 234.528C365.26 233.749 365.804 233.051 366.177 232.432C366.55 231.803 366.737 231.216 366.737 230.672C366.737 230.085 366.577 229.605 366.257 229.232C365.937 228.859 365.452 228.672 364.801 228.672C364.374 228.672 363.98 228.795 363.617 229.04C363.254 229.275 362.924 229.563 362.625 229.904L361.873 229.152C362.3 228.683 362.753 228.309 363.233 228.032C363.724 227.744 364.3 227.6 364.961 227.6C365.91 227.6 366.657 227.877 367.201 228.432C367.745 228.976 368.017 229.701 368.017 230.608C368.017 231.248 367.836 231.899 367.473 232.56C367.121 233.211 366.63 233.899 366.001 234.624C365.382 235.339 364.668 236.117 363.857 236.96C364.134 236.939 364.422 236.917 364.721 236.896C365.02 236.875 365.302 236.864 365.569 236.864H368.529V238H361.937ZM370.674 240.816L369.858 240.432C370.477 239.419 370.935 238.325 371.234 237.152C371.543 235.968 371.698 234.768 371.698 233.552C371.698 232.336 371.543 231.141 371.234 229.968C370.935 228.784 370.477 227.685 369.858 226.672L370.674 226.288C371.335 227.355 371.853 228.48 372.226 229.664C372.599 230.848 372.786 232.144 372.786 233.552C372.786 234.96 372.599 236.256 372.226 237.44C371.853 238.613 371.335 239.739 370.674 240.816Z" fill="#232A3D"/>
</svg>
