<svg width="398" height="162" viewBox="0 0 398 162" fill="none" xmlns="http://www.w3.org/2000/svg">
<rect width="398" height="162" fill="white"/>
<rect width="398" height="42" rx="4" fill="#EFF1F6"/>
<rect x="143" y="126" width="64" height="36" rx="18" fill="#E9F6F1"/>
<path d="M60.264 88V79.552H57.4V77.568H65.496V79.552H62.632V88H60.264ZM66.2588 88V80.064H68.1788L68.3388 81.456H68.4028C68.6908 80.912 69.0374 80.512 69.4427 80.256C69.8481 80 70.2534 79.872 70.6588 79.872C70.8828 79.872 71.0641 79.888 71.2028 79.92C71.3521 79.9413 71.4854 79.9787 71.6028 80.032L71.2188 82.064C71.0694 82.0213 70.9308 81.9893 70.8028 81.968C70.6748 81.9467 70.5254 81.936 70.3548 81.936C70.0561 81.936 69.7414 82.0427 69.4108 82.256C69.0908 82.4693 68.8241 82.848 68.6108 83.392V88H66.2588ZM75.0178 88.192C74.1538 88.192 73.5244 87.9093 73.1298 87.344C72.7458 86.7787 72.5538 85.9947 72.5538 84.992V80.064H74.9058V84.688C74.9058 85.264 74.9858 85.6587 75.1458 85.872C75.3058 86.0853 75.5564 86.192 75.8978 86.192C76.1964 86.192 76.4471 86.1227 76.6498 85.984C76.8524 85.8453 77.0711 85.6213 77.3058 85.312V80.064H79.6578V88H77.7378L77.5618 86.896H77.5138C77.1724 87.3013 76.8044 87.6213 76.4098 87.856C76.0258 88.08 75.5618 88.192 75.0178 88.192ZM85.2795 88.192C84.7142 88.192 84.1862 88.1013 83.6955 87.92C83.2048 87.728 82.7782 87.456 82.4155 87.104C82.0528 86.7413 81.7702 86.304 81.5675 85.792C81.3648 85.28 81.2635 84.6933 81.2635 84.032C81.2635 83.392 81.3702 82.816 81.5835 82.304C81.7968 81.7813 82.0742 81.344 82.4155 80.992C82.7675 80.6293 83.1675 80.352 83.6155 80.16C84.0635 79.968 84.5275 79.872 85.0075 79.872C85.5728 79.872 86.0635 79.968 86.4795 80.16C86.9062 80.352 87.2582 80.6187 87.5355 80.96C87.8235 81.3013 88.0368 81.7067 88.1755 82.176C88.3142 82.6347 88.3835 83.136 88.3835 83.68C88.3835 83.8933 88.3728 84.096 88.3515 84.288C88.3302 84.48 88.3088 84.624 88.2875 84.72H83.5355C83.6422 85.296 83.8768 85.7227 84.2395 86C84.6128 86.2667 85.0662 86.4 85.5995 86.4C86.1648 86.4 86.7355 86.224 87.3115 85.872L88.0955 87.296C87.6902 87.5733 87.2368 87.792 86.7355 87.952C86.2448 88.112 85.7595 88.192 85.2795 88.192ZM83.5195 83.168H86.3835C86.3835 82.72 86.2822 82.3573 86.0795 82.08C85.8768 81.8027 85.5355 81.664 85.0555 81.664C84.6822 81.664 84.3515 81.7867 84.0635 82.032C83.7862 82.2773 83.6048 82.656 83.5195 83.168Z" fill="#24A871"/>
<path d="M159.08 151V140.44H155.5V137.96H165.62V140.44H162.04V151H159.08ZM166.573 151V141.08H168.973L169.173 142.82H169.253C169.613 142.14 170.047 141.64 170.553 141.32C171.06 141 171.567 140.84 172.073 140.84C172.353 140.84 172.58 140.86 172.753 140.9C172.94 140.927 173.107 140.973 173.253 141.04L172.773 143.58C172.587 143.527 172.413 143.487 172.253 143.46C172.093 143.433 171.907 143.42 171.693 143.42C171.32 143.42 170.927 143.553 170.513 143.82C170.113 144.087 169.78 144.56 169.513 145.24V151H166.573ZM177.522 151.24C176.442 151.24 175.656 150.887 175.162 150.18C174.682 149.473 174.442 148.493 174.442 147.24V141.08H177.382V146.86C177.382 147.58 177.482 148.073 177.682 148.34C177.882 148.607 178.196 148.74 178.622 148.74C178.996 148.74 179.309 148.653 179.562 148.48C179.816 148.307 180.089 148.027 180.382 147.64V141.08H183.322V151H180.922L180.702 149.62H180.642C180.216 150.127 179.756 150.527 179.262 150.82C178.782 151.1 178.202 151.24 177.522 151.24ZM190.349 151.24C189.643 151.24 188.983 151.127 188.369 150.9C187.756 150.66 187.223 150.32 186.769 149.88C186.316 149.427 185.963 148.88 185.709 148.24C185.456 147.6 185.329 146.867 185.329 146.04C185.329 145.24 185.463 144.52 185.729 143.88C185.996 143.227 186.343 142.68 186.769 142.24C187.209 141.787 187.709 141.44 188.269 141.2C188.829 140.96 189.409 140.84 190.009 140.84C190.716 140.84 191.329 140.96 191.849 141.2C192.383 141.44 192.823 141.773 193.169 142.2C193.529 142.627 193.796 143.133 193.969 143.72C194.143 144.293 194.229 144.92 194.229 145.6C194.229 145.867 194.216 146.12 194.189 146.36C194.163 146.6 194.136 146.78 194.109 146.9H188.169C188.303 147.62 188.596 148.153 189.049 148.5C189.516 148.833 190.083 149 190.749 149C191.456 149 192.169 148.78 192.889 148.34L193.869 150.12C193.363 150.467 192.796 150.74 192.169 150.94C191.556 151.14 190.949 151.24 190.349 151.24ZM188.149 144.96H191.729C191.729 144.4 191.603 143.947 191.349 143.6C191.096 143.253 190.669 143.08 190.069 143.08C189.603 143.08 189.189 143.233 188.829 143.54C188.483 143.847 188.256 144.32 188.149 144.96Z" fill="#24A871"/>
<path d="M292.264 88V79.552H289.4V77.568H297.496V79.552H294.632V88H292.264ZM298.259 88V80.064H300.179L300.339 81.456H300.403C300.691 80.912 301.037 80.512 301.443 80.256C301.848 80 302.253 79.872 302.659 79.872C302.883 79.872 303.064 79.888 303.203 79.92C303.352 79.9413 303.485 79.9787 303.603 80.032L303.219 82.064C303.069 82.0213 302.931 81.9893 302.803 81.968C302.675 81.9467 302.525 81.936 302.355 81.936C302.056 81.936 301.741 82.0427 301.411 82.256C301.091 82.4693 300.824 82.848 300.611 83.392V88H298.259ZM307.018 88.192C306.154 88.192 305.524 87.9093 305.13 87.344C304.746 86.7787 304.554 85.9947 304.554 84.992V80.064H306.906V84.688C306.906 85.264 306.986 85.6587 307.146 85.872C307.306 86.0853 307.556 86.192 307.898 86.192C308.196 86.192 308.447 86.1227 308.65 85.984C308.852 85.8453 309.071 85.6213 309.306 85.312V80.064H311.658V88H309.738L309.562 86.896H309.514C309.172 87.3013 308.804 87.6213 308.41 87.856C308.026 88.08 307.562 88.192 307.018 88.192ZM317.28 88.192C316.714 88.192 316.186 88.1013 315.696 87.92C315.205 87.728 314.778 87.456 314.416 87.104C314.053 86.7413 313.77 86.304 313.568 85.792C313.365 85.28 313.264 84.6933 313.264 84.032C313.264 83.392 313.37 82.816 313.584 82.304C313.797 81.7813 314.074 81.344 314.416 80.992C314.768 80.6293 315.168 80.352 315.616 80.16C316.064 79.968 316.528 79.872 317.008 79.872C317.573 79.872 318.064 79.968 318.48 80.16C318.906 80.352 319.258 80.6187 319.536 80.96C319.824 81.3013 320.037 81.7067 320.176 82.176C320.314 82.6347 320.384 83.136 320.384 83.68C320.384 83.8933 320.373 84.096 320.352 84.288C320.33 84.48 320.309 84.624 320.288 84.72H315.536C315.642 85.296 315.877 85.7227 316.24 86C316.613 86.2667 317.066 86.4 317.6 86.4C318.165 86.4 318.736 86.224 319.312 85.872L320.096 87.296C319.69 87.5733 319.237 87.792 318.736 87.952C318.245 88.112 317.76 88.192 317.28 88.192ZM315.52 83.168H318.384C318.384 82.72 318.282 82.3573 318.08 82.08C317.877 81.8027 317.536 81.664 317.056 81.664C316.682 81.664 316.352 81.7867 316.064 82.032C315.786 82.2773 315.605 82.656 315.52 83.168Z" fill="#24A871"/>
<path d="M163.584 88.192C163.179 88.192 162.816 88.128 162.496 88C162.176 87.8827 161.904 87.7173 161.68 87.504C161.456 87.28 161.28 87.024 161.152 86.736C161.035 86.448 160.976 86.1333 160.976 85.792C160.976 85.344 161.072 84.9547 161.264 84.624C161.456 84.2827 161.76 83.9947 162.176 83.76C162.603 83.5253 163.147 83.3387 163.808 83.2C164.469 83.0507 165.269 82.9493 166.208 82.896C166.165 82.5333 166.005 82.2507 165.728 82.048C165.461 81.8453 165.056 81.744 164.512 81.744C164.128 81.744 163.739 81.8133 163.344 81.952C162.96 82.08 162.544 82.256 162.096 82.48L161.264 80.944C161.808 80.6347 162.389 80.3787 163.008 80.176C163.637 79.9733 164.293 79.872 164.976 79.872C166.085 79.872 166.96 80.1653 167.6 80.752C168.24 81.3387 168.56 82.24 168.56 83.456V88H166.64L166.464 87.104H166.4C165.995 87.4133 165.552 87.6747 165.072 87.888C164.592 88.0907 164.096 88.192 163.584 88.192ZM164.336 86.368C164.688 86.368 165.019 86.2987 165.328 86.16C165.637 86.0107 165.931 85.8293 166.208 85.616V84.304C165.621 84.336 165.136 84.3893 164.752 84.464C164.368 84.5387 164.064 84.6347 163.84 84.752C163.616 84.8587 163.456 84.9867 163.36 85.136C163.275 85.2853 163.232 85.4453 163.232 85.616C163.232 85.872 163.328 86.064 163.52 86.192C163.723 86.3093 163.995 86.368 164.336 86.368ZM170.746 88V80.064H172.666L172.842 81.12H172.906C173.247 80.7787 173.636 80.4853 174.074 80.24C174.522 79.9947 175.044 79.872 175.642 79.872C176.538 79.872 177.194 80.16 177.61 80.736C178.026 81.312 178.234 82.1013 178.234 83.104V88H175.882V83.408C175.882 82.8747 175.796 82.4853 175.626 82.24C175.455 81.9947 175.151 81.872 174.714 81.872C174.394 81.872 174.111 81.9413 173.866 82.08C173.631 82.2187 173.375 82.4267 173.098 82.704V88H170.746ZM183.284 88.192C182.782 88.192 182.324 88.096 181.908 87.904C181.502 87.712 181.15 87.44 180.852 87.088C180.564 86.7253 180.34 86.288 180.18 85.776C180.02 85.264 179.94 84.6827 179.94 84.032C179.94 83.3813 180.036 82.8 180.228 82.288C180.42 81.776 180.67 81.344 180.98 80.992C181.3 80.6293 181.662 80.352 182.068 80.16C182.473 79.968 182.894 79.872 183.332 79.872C183.78 79.872 184.158 79.9467 184.468 80.096C184.777 80.2347 185.065 80.4427 185.332 80.72H185.396L185.284 79.488V76.784H187.635V88H185.716L185.54 87.184H185.492C185.193 87.472 184.852 87.712 184.468 87.904C184.084 88.096 183.689 88.192 183.284 88.192ZM183.891 86.272C184.158 86.272 184.404 86.2187 184.628 86.112C184.852 85.9947 185.07 85.8027 185.284 85.536V82.32C185.07 82.128 184.852 81.9947 184.628 81.92C184.414 81.8347 184.19 81.792 183.956 81.792C183.518 81.792 183.14 81.9733 182.82 82.336C182.51 82.6987 182.356 83.2533 182.356 84C182.356 84.7893 182.489 85.3653 182.756 85.728C183.022 86.0907 183.401 86.272 183.891 86.272Z" fill="#B5743D"/>
<path d="M72.2929 66.7071C72.6834 67.0976 73.3166 67.0976 73.7071 66.7071L80.0711 60.3431C80.4616 59.9526 80.4616 59.3195 80.0711 58.9289C79.6805 58.5384 79.0474 58.5384 78.6569 58.9289L73 64.5858L67.3431 58.9289C66.9526 58.5384 66.3195 58.5384 65.9289 58.9289C65.5384 59.3195 65.5384 59.9526 65.9289 60.3431L72.2929 66.7071ZM72 38L72 66L74 66L74 38L72 38Z" fill="#24A871"/>
<path d="M304.293 66.7071C304.683 67.0976 305.317 67.0976 305.707 66.7071L312.071 60.3431C312.462 59.9526 312.462 59.3195 312.071 58.9289C311.681 58.5384 311.047 58.5384 310.657 58.9289L305 64.5858L299.343 58.9289C298.953 58.5384 298.319 58.5384 297.929 58.9289C297.538 59.3195 297.538 59.9526 297.929 60.3431L304.293 66.7071ZM304 38L304 66L306 66L306 38L304 38Z" fill="#24A871"/>
<path d="M174.293 66.7071C174.683 67.0976 175.317 67.0976 175.707 66.7071L182.071 60.3431C182.462 59.9526 182.462 59.3195 182.071 58.9289C181.681 58.5384 181.047 58.5384 180.657 58.9289L175 64.5858L169.343 58.9289C168.953 58.5384 168.319 58.5384 167.929 58.9289C167.538 59.3195 167.538 59.9526 167.929 60.3431L174.293 66.7071ZM174 38L174 66L176 66L176 38L174 38Z" fill="#B5743D"/>
<path d="M40.5 89V103.5H175M337 89V103.5H175M175 103.5V125.5" stroke="#9CA9BC"/>
<path d="M120.985 17.53H127.886V19.09H120.985V17.53ZM120.985 20.995H127.886V22.555H120.985V20.995ZM129.98 17.53H136.88V19.09H129.98V17.53ZM129.98 20.995H136.88V22.555H129.98V20.995ZM302.868 17.53H309.768V19.09H302.868V17.53ZM302.868 20.995H309.768V22.555H302.868V20.995ZM311.863 17.53H318.763V19.09H311.863V17.53ZM311.863 20.995H318.763V22.555H311.863V20.995Z" fill="#232A3D"/>
<path d="M146.418 25.18C145.868 25.18 145.368 25.075 144.918 24.865C144.468 24.645 144.083 24.325 143.763 23.905C143.443 23.485 143.193 22.965 143.013 22.345C142.843 21.725 142.758 21.01 142.758 20.2C142.758 19.39 142.843 18.68 143.013 18.07C143.193 17.46 143.443 16.95 143.763 16.54C144.083 16.12 144.468 15.81 144.918 15.61C145.368 15.4 145.868 15.295 146.418 15.295C146.968 15.295 147.468 15.4 147.918 15.61C148.368 15.81 148.753 16.12 149.073 16.54C149.393 16.95 149.638 17.46 149.808 18.07C149.988 18.68 150.078 19.39 150.078 20.2C150.078 21.01 149.988 21.725 149.808 22.345C149.638 22.965 149.393 23.485 149.073 23.905C148.753 24.325 148.368 24.645 147.918 24.865C147.468 25.075 146.968 25.18 146.418 25.18ZM146.418 17.005C146.178 17.005 145.953 17.055 145.743 17.155C145.543 17.255 145.368 17.43 145.218 17.68C145.068 17.92 144.948 18.245 144.858 18.655C144.768 19.065 144.723 19.58 144.723 20.2C144.723 20.82 144.768 21.34 144.858 21.76C144.948 22.17 145.068 22.505 145.218 22.765C145.368 23.015 145.543 23.195 145.743 23.305C145.953 23.415 146.178 23.47 146.418 23.47C146.658 23.47 146.878 23.415 147.078 23.305C147.288 23.195 147.468 23.015 147.618 22.765C147.768 22.505 147.888 22.17 147.978 21.76C148.068 21.34 148.113 20.82 148.113 20.2C148.113 19.58 148.068 19.065 147.978 18.655C147.888 18.245 147.768 17.92 147.618 17.68C147.468 17.43 147.288 17.255 147.078 17.155C146.878 17.055 146.658 17.005 146.418 17.005ZM146.418 21.31C146.098 21.31 145.828 21.21 145.608 21.01C145.398 20.8 145.293 20.52 145.293 20.17C145.293 19.82 145.398 19.545 145.608 19.345C145.828 19.135 146.098 19.03 146.418 19.03C146.738 19.03 147.003 19.135 147.213 19.345C147.433 19.545 147.543 19.82 147.543 20.17C147.543 20.52 147.433 20.8 147.213 21.01C147.003 21.21 146.738 21.31 146.418 21.31Z" fill="#29A1F8"/>
<path d="M160.821 22.93C160.821 22.51 160.911 22.145 161.091 21.835C161.271 21.515 161.556 21.245 161.946 21.025C162.346 20.805 162.856 20.63 163.476 20.5C164.096 20.36 164.846 20.265 165.726 20.215C165.686 19.875 165.536 19.61 165.276 19.42C165.026 19.23 164.646 19.135 164.136 19.135C163.776 19.135 163.411 19.2 163.041 19.33C162.681 19.45 162.291 19.615 161.871 19.825L161.091 18.385C161.601 18.095 162.146 17.855 162.726 17.665C163.316 17.475 163.931 17.38 164.571 17.38C165.611 17.38 166.431 17.655 167.031 18.205C167.631 18.755 167.931 19.6 167.931 20.74V25H166.131L165.966 24.16H165.906C165.526 24.45 165.111 24.695 164.661 24.895C164.211 25.085 163.746 25.18 163.266 25.18C162.886 25.18 162.546 25.12 162.246 25C161.946 24.89 161.691 24.735 161.481 24.535C161.271 24.325 161.106 24.085 160.986 23.815C160.876 23.545 160.821 23.25 160.821 22.93ZM162.936 22.765C162.936 23.005 163.026 23.185 163.206 23.305C163.396 23.415 163.651 23.47 163.971 23.47C164.301 23.47 164.611 23.405 164.901 23.275C165.191 23.135 165.466 22.965 165.726 22.765V21.535C165.176 21.565 164.721 21.615 164.361 21.685C164.001 21.755 163.716 21.845 163.506 21.955C163.296 22.055 163.146 22.175 163.056 22.315C162.976 22.455 162.936 22.605 162.936 22.765ZM169.98 17.56H171.78L171.945 18.55H172.005C172.325 18.23 172.69 17.955 173.1 17.725C173.52 17.495 174.01 17.38 174.57 17.38C175.41 17.38 176.025 17.65 176.415 18.19C176.805 18.73 177 19.47 177 20.41V25H174.795V20.695C174.795 20.195 174.715 19.83 174.555 19.6C174.395 19.37 174.11 19.255 173.7 19.255C173.4 19.255 173.135 19.32 172.905 19.45C172.685 19.58 172.445 19.775 172.185 20.035V25H169.98V17.56ZM178.6 21.28C178.6 20.67 178.69 20.125 178.87 19.645C179.05 19.165 179.285 18.76 179.575 18.43C179.875 18.09 180.215 17.83 180.595 17.65C180.975 17.47 181.37 17.38 181.78 17.38C182.21 17.38 182.57 17.455 182.86 17.605C183.15 17.745 183.425 17.935 183.685 18.175L183.61 17.02V14.485H185.815V25H184.015L183.85 24.235H183.805C183.525 24.505 183.205 24.73 182.845 24.91C182.485 25.09 182.115 25.18 181.735 25.18C181.265 25.18 180.835 25.09 180.445 24.91C180.065 24.73 179.735 24.475 179.455 24.145C179.185 23.805 178.975 23.395 178.825 22.915C178.675 22.435 178.6 21.89 178.6 21.28ZM180.865 21.25C180.865 21.99 180.99 22.53 181.24 22.87C181.49 23.21 181.845 23.38 182.305 23.38C182.555 23.38 182.785 23.33 182.995 23.23C183.205 23.12 183.41 22.94 183.61 22.69V19.675C183.41 19.495 183.205 19.37 182.995 19.3C182.795 19.22 182.585 19.18 182.365 19.18C181.955 19.18 181.6 19.35 181.3 19.69C181.01 20.03 180.865 20.55 180.865 21.25Z" fill="#E69F00"/>
<path d="M325.101 16.9L325.026 14.725H327.576L327.501 16.9L326.976 20.455H325.626L325.101 16.9ZM331.455 20.17C331.455 19.35 331.57 18.625 331.8 17.995C332.04 17.355 332.36 16.82 332.76 16.39C333.17 15.95 333.65 15.615 334.2 15.385C334.75 15.155 335.34 15.04 335.97 15.04C336.63 15.04 337.19 15.17 337.65 15.43C338.12 15.68 338.515 15.965 338.835 16.285L337.62 17.65C337.41 17.44 337.18 17.27 336.93 17.14C336.68 17.01 336.36 16.945 335.97 16.945C335.65 16.945 335.355 17.02 335.085 17.17C334.815 17.31 334.58 17.515 334.38 17.785C334.18 18.055 334.02 18.385 333.9 18.775C333.79 19.165 333.735 19.605 333.735 20.095C333.735 21.105 333.925 21.89 334.305 22.45C334.695 23 335.28 23.275 336.06 23.275C336.25 23.275 336.43 23.25 336.6 23.2C336.77 23.15 336.91 23.075 337.02 22.975V21.295H335.595V19.495H339V23.995C338.67 24.305 338.235 24.58 337.695 24.82C337.155 25.06 336.57 25.18 335.94 25.18C335.31 25.18 334.72 25.075 334.17 24.865C333.63 24.645 333.155 24.325 332.745 23.905C332.345 23.485 332.03 22.965 331.8 22.345C331.57 21.715 331.455 20.99 331.455 20.17ZM340.704 22.93C340.704 22.51 340.794 22.145 340.974 21.835C341.154 21.515 341.439 21.245 341.829 21.025C342.229 20.805 342.739 20.63 343.359 20.5C343.979 20.36 344.729 20.265 345.609 20.215C345.569 19.875 345.419 19.61 345.159 19.42C344.909 19.23 344.529 19.135 344.019 19.135C343.659 19.135 343.294 19.2 342.924 19.33C342.564 19.45 342.174 19.615 341.754 19.825L340.974 18.385C341.484 18.095 342.029 17.855 342.609 17.665C343.199 17.475 343.814 17.38 344.454 17.38C345.494 17.38 346.314 17.655 346.914 18.205C347.514 18.755 347.814 19.6 347.814 20.74V25H346.014L345.849 24.16H345.789C345.409 24.45 344.994 24.695 344.544 24.895C344.094 25.085 343.629 25.18 343.149 25.18C342.769 25.18 342.429 25.12 342.129 25C341.829 24.89 341.574 24.735 341.364 24.535C341.154 24.325 340.989 24.085 340.869 23.815C340.759 23.545 340.704 23.25 340.704 22.93ZM342.819 22.765C342.819 23.005 342.909 23.185 343.089 23.305C343.279 23.415 343.534 23.47 343.854 23.47C344.184 23.47 344.494 23.405 344.784 23.275C345.074 23.135 345.349 22.965 345.609 22.765V21.535C345.059 21.565 344.604 21.615 344.244 21.685C343.884 21.755 343.599 21.845 343.389 21.955C343.179 22.055 343.029 22.175 342.939 22.315C342.859 22.455 342.819 22.605 342.819 22.765ZM349.323 17.56H350.973L351.138 18.49H351.198C351.338 18.18 351.528 17.92 351.768 17.71C352.018 17.49 352.358 17.38 352.788 17.38C353.118 17.38 353.393 17.485 353.613 17.695C353.843 17.895 354.003 18.195 354.093 18.595C354.233 18.255 354.433 17.97 354.693 17.74C354.963 17.5 355.308 17.38 355.728 17.38C356.248 17.38 356.653 17.595 356.943 18.025C357.233 18.445 357.378 19.03 357.378 19.78V25H355.308V19.945C355.308 19.485 355.168 19.255 354.888 19.255C354.618 19.255 354.388 19.495 354.198 19.975V25H352.503V19.945C352.503 19.485 352.358 19.255 352.068 19.255C351.928 19.255 351.808 19.315 351.708 19.435C351.608 19.555 351.503 19.735 351.393 19.975V25H349.323V17.56ZM358.602 21.28C358.602 20.67 358.707 20.125 358.917 19.645C359.137 19.165 359.427 18.76 359.787 18.43C360.147 18.09 360.557 17.83 361.017 17.65C361.487 17.47 361.972 17.38 362.472 17.38C363.042 17.38 363.547 17.47 363.987 17.65C364.427 17.83 364.792 18.08 365.082 18.4C365.372 18.72 365.592 19.1 365.742 19.54C365.892 19.97 365.967 20.44 365.967 20.95C365.967 21.15 365.957 21.34 365.937 21.52C365.917 21.7 365.897 21.835 365.877 21.925H360.867C360.947 22.485 361.187 22.89 361.587 23.14C361.997 23.38 362.477 23.5 363.027 23.5C363.367 23.5 363.687 23.46 363.987 23.38C364.297 23.29 364.617 23.16 364.947 22.99L365.667 24.31C365.247 24.58 364.777 24.795 364.257 24.955C363.737 25.105 363.227 25.18 362.727 25.18C362.147 25.18 361.607 25.095 361.107 24.925C360.607 24.745 360.172 24.49 359.802 24.16C359.432 23.82 359.137 23.41 358.917 22.93C358.707 22.45 358.602 21.9 358.602 21.28ZM363.972 20.47C363.972 20.05 363.857 19.71 363.627 19.45C363.397 19.19 363.027 19.06 362.517 19.06C362.117 19.06 361.762 19.175 361.452 19.405C361.142 19.635 360.937 19.99 360.837 20.47H363.972ZM368.556 22.66C368.986 22.93 369.416 23.145 369.846 23.305C370.286 23.465 370.756 23.545 371.256 23.545C371.766 23.545 372.131 23.49 372.351 23.38C372.571 23.27 372.681 23.115 372.681 22.915C372.681 22.685 372.496 22.5 372.126 22.36C371.766 22.21 371.286 22.05 370.686 21.88C370.356 21.79 370.031 21.685 369.711 21.565C369.401 21.435 369.121 21.285 368.871 21.115C368.621 20.935 368.416 20.73 368.256 20.5C368.106 20.27 368.031 20.005 368.031 19.705C368.031 19.365 368.111 19.05 368.271 18.76C368.431 18.47 368.656 18.225 368.946 18.025C369.246 17.825 369.606 17.67 370.026 17.56C370.456 17.44 370.936 17.38 371.466 17.38C372.126 17.38 372.726 17.49 373.266 17.71C373.816 17.92 374.286 18.15 374.676 18.4L373.686 19.72C373.346 19.52 372.996 19.355 372.636 19.225C372.276 19.085 371.901 19.015 371.511 19.015C371.041 19.015 370.706 19.065 370.506 19.165C370.316 19.265 370.221 19.41 370.221 19.6C370.221 19.71 370.271 19.81 370.371 19.9C370.471 19.99 370.606 20.07 370.776 20.14C370.946 20.21 371.146 20.28 371.376 20.35C371.616 20.41 371.866 20.475 372.126 20.545C372.496 20.645 372.846 20.76 373.176 20.89C373.506 21.01 373.796 21.155 374.046 21.325C374.296 21.495 374.496 21.7 374.646 21.94C374.796 22.18 374.871 22.46 374.871 22.78C374.871 23.12 374.791 23.435 374.631 23.725C374.471 24.015 374.236 24.27 373.926 24.49C373.626 24.7 373.246 24.87 372.786 25C372.336 25.12 371.811 25.18 371.211 25.18C370.541 25.18 369.886 25.07 369.246 24.85C368.606 24.63 368.046 24.36 367.566 24.04L368.556 22.66ZM379.066 16.9L378.991 14.725H381.541L381.466 16.9L380.941 20.455H379.591L379.066 16.9Z" fill="#009E73"/>
<g style="mix-blend-mode:multiply" opacity="0.4">
<rect x="10.5077" y="11" width="144.631" height="20" rx="10" fill="#31CB8A"/>
</g>
<g style="mix-blend-mode:multiply" opacity="0.4">
<rect x="191.523" y="11" width="196.892" height="20" rx="10" fill="#31CB8A"/>
</g>
<path d="M19.36 25.18C18.98 25.18 18.64 25.12 18.34 25C18.04 24.89 17.785 24.735 17.575 24.535C17.365 24.325 17.2 24.085 17.08 23.815C16.97 23.545 16.915 23.25 16.915 22.93C16.915 22.51 17.005 22.145 17.185 21.835C17.365 21.515 17.65 21.245 18.04 21.025C18.44 20.805 18.95 20.63 19.57 20.5C20.19 20.36 20.94 20.265 21.82 20.215C21.78 19.875 21.63 19.61 21.37 19.42C21.12 19.23 20.74 19.135 20.23 19.135C19.87 19.135 19.505 19.2 19.135 19.33C18.775 19.45 18.385 19.615 17.965 19.825L17.185 18.385C17.695 18.095 18.24 17.855 18.82 17.665C19.41 17.475 20.025 17.38 20.665 17.38C21.705 17.38 22.525 17.655 23.125 18.205C23.725 18.755 24.025 19.6 24.025 20.74V25H22.225L22.06 24.16H22C21.62 24.45 21.205 24.695 20.755 24.895C20.305 25.085 19.84 25.18 19.36 25.18ZM20.065 23.47C20.395 23.47 20.705 23.405 20.995 23.275C21.285 23.135 21.56 22.965 21.82 22.765V21.535C21.27 21.565 20.815 21.615 20.455 21.685C20.095 21.755 19.81 21.845 19.6 21.955C19.39 22.055 19.24 22.175 19.15 22.315C19.07 22.455 19.03 22.605 19.03 22.765C19.03 23.005 19.12 23.185 19.3 23.305C19.49 23.415 19.745 23.47 20.065 23.47ZM26.0741 27.76V17.56H27.8741L28.0391 18.31H28.0841C28.3841 18.04 28.7291 17.82 29.1191 17.65C29.5091 17.47 29.9041 17.38 30.3041 17.38C30.7641 17.38 31.1791 17.47 31.5491 17.65C31.9191 17.83 32.2341 18.085 32.4941 18.415C32.7541 18.745 32.9491 19.145 33.0791 19.615C33.2191 20.075 33.2891 20.59 33.2891 21.16C33.2891 21.8 33.1991 22.37 33.0191 22.87C32.8391 23.36 32.5991 23.78 32.2991 24.13C31.9991 24.47 31.6541 24.73 31.2641 24.91C30.8841 25.09 30.4841 25.18 30.0641 25.18C29.3841 25.18 28.7741 24.91 28.2341 24.37H28.1741L28.2791 25.585V27.76H26.0741ZM29.5541 23.38C29.9741 23.38 30.3241 23.21 30.6041 22.87C30.8841 22.52 31.0241 21.96 31.0241 21.19C31.0241 19.85 30.5691 19.18 29.6591 19.18C29.1891 19.18 28.7291 19.41 28.2791 19.87V22.885C28.4891 23.065 28.7041 23.195 28.9241 23.275C29.1541 23.345 29.3641 23.38 29.5541 23.38ZM35.0683 27.76V17.56H36.8683L37.0333 18.31H37.0783C37.3783 18.04 37.7233 17.82 38.1133 17.65C38.5033 17.47 38.8983 17.38 39.2983 17.38C39.7583 17.38 40.1733 17.47 40.5433 17.65C40.9133 17.83 41.2283 18.085 41.4883 18.415C41.7483 18.745 41.9433 19.145 42.0733 19.615C42.2133 20.075 42.2833 20.59 42.2833 21.16C42.2833 21.8 42.1933 22.37 42.0133 22.87C41.8333 23.36 41.5933 23.78 41.2933 24.13C40.9933 24.47 40.6483 24.73 40.2583 24.91C39.8783 25.09 39.4783 25.18 39.0583 25.18C38.3783 25.18 37.7683 24.91 37.2283 24.37H37.1683L37.2733 25.585V27.76H35.0683ZM38.5483 23.38C38.9683 23.38 39.3183 23.21 39.5983 22.87C39.8783 22.52 40.0183 21.96 40.0183 21.19C40.0183 19.85 39.5633 19.18 38.6533 19.18C38.1833 19.18 37.7233 19.41 37.2733 19.87V22.885C37.4833 23.065 37.6983 23.195 37.9183 23.275C38.1483 23.345 38.3583 23.38 38.5483 23.38ZM43.8824 27.46V25.81H51.0824V27.46H43.8824ZM53.1616 25V23.215H55.7266V17.71H53.6116V16.345C53.9316 16.295 54.2166 16.245 54.4666 16.195C54.7266 16.135 54.9616 16.07 55.1716 16C55.3816 15.93 55.5766 15.855 55.7566 15.775C55.9466 15.685 56.1316 15.585 56.3116 15.475H57.9316V23.215H60.0916V25H53.1616ZM61.8707 27.46V25.81H69.0707V27.46H61.8707ZM71.0448 27.76V17.56H72.8448L73.0098 18.31H73.0548C73.3548 18.04 73.6998 17.82 74.0898 17.65C74.4798 17.47 74.8748 17.38 75.2748 17.38C75.7348 17.38 76.1498 17.47 76.5198 17.65C76.8898 17.83 77.2048 18.085 77.4648 18.415C77.7248 18.745 77.9198 19.145 78.0498 19.615C78.1898 20.075 78.2598 20.59 78.2598 21.16C78.2598 21.8 78.1698 22.37 77.9898 22.87C77.8098 23.36 77.5698 23.78 77.2698 24.13C76.9698 24.47 76.6248 24.73 76.2348 24.91C75.8548 25.09 75.4548 25.18 75.0348 25.18C74.3548 25.18 73.7448 24.91 73.2048 24.37H73.1448L73.2498 25.585V27.76H71.0448ZM74.5248 23.38C74.9448 23.38 75.2948 23.21 75.5748 22.87C75.8548 22.52 75.9948 21.96 75.9948 21.19C75.9948 19.85 75.5398 19.18 74.6298 19.18C74.1598 19.18 73.6998 19.41 73.2498 19.87V22.885C73.4598 23.065 73.6748 23.195 73.8948 23.275C74.1248 23.345 74.3348 23.38 74.5248 23.38ZM80.699 25V17.56H82.499L82.679 19.18H82.724C83.094 18.57 83.539 18.12 84.059 17.83C84.579 17.53 85.139 17.38 85.739 17.38C86.069 17.38 86.334 17.405 86.534 17.455C86.744 17.505 86.959 17.58 87.179 17.68L86.729 19.525C86.499 19.455 86.289 19.405 86.099 19.375C85.919 19.335 85.689 19.315 85.409 19.315C84.949 19.315 84.494 19.45 84.044 19.72C83.604 19.99 83.224 20.46 82.904 21.13V25H80.699ZM92.1231 25V19.285H89.1381V17.56H94.3281V25H92.1231ZM93.1281 16.39C92.6981 16.39 92.3431 16.27 92.0631 16.03C91.7931 15.79 91.6581 15.465 91.6581 15.055C91.6581 14.645 91.7931 14.315 92.0631 14.065C92.3431 13.805 92.6981 13.675 93.1281 13.675C93.5581 13.675 93.9081 13.805 94.1781 14.065C94.4581 14.315 94.5981 14.645 94.5981 15.055C94.5981 15.465 94.4581 15.79 94.1781 16.03C93.9081 16.27 93.5581 16.39 93.1281 16.39ZM102.092 25.18C101.502 25.18 100.957 25.095 100.457 24.925C99.9573 24.745 99.5173 24.49 99.1373 24.16C98.7673 23.83 98.4773 23.425 98.2673 22.945C98.0573 22.455 97.9523 21.9 97.9523 21.28C97.9523 20.66 98.0673 20.11 98.2973 19.63C98.5373 19.14 98.8523 18.73 99.2423 18.4C99.6423 18.07 100.102 17.82 100.622 17.65C101.142 17.47 101.687 17.38 102.257 17.38C102.847 17.38 103.377 17.475 103.847 17.665C104.327 17.855 104.727 18.095 105.047 18.385L104.027 19.75C103.477 19.36 102.927 19.165 102.377 19.165C101.737 19.165 101.217 19.355 100.817 19.735C100.417 20.115 100.217 20.63 100.217 21.28C100.217 21.93 100.407 22.445 100.787 22.825C101.177 23.205 101.682 23.395 102.302 23.395C102.692 23.395 103.047 23.325 103.367 23.185C103.697 23.045 103.997 22.88 104.267 22.69L105.152 24.085C104.702 24.465 104.207 24.745 103.667 24.925C103.127 25.095 102.602 25.18 102.092 25.18ZM110.891 25.18C110.311 25.18 109.766 25.095 109.256 24.925C108.756 24.745 108.321 24.49 107.951 24.16C107.581 23.83 107.291 23.425 107.081 22.945C106.871 22.455 106.766 21.9 106.766 21.28C106.766 20.67 106.871 20.125 107.081 19.645C107.301 19.155 107.591 18.745 107.951 18.415C108.311 18.075 108.721 17.82 109.181 17.65C109.651 17.47 110.136 17.38 110.636 17.38C111.206 17.38 111.711 17.47 112.151 17.65C112.591 17.83 112.956 18.08 113.246 18.4C113.546 18.72 113.771 19.1 113.921 19.54C114.071 19.97 114.146 20.44 114.146 20.95C114.146 21.15 114.131 21.345 114.101 21.535C114.081 21.715 114.061 21.85 114.041 21.94H108.971C109.081 22.48 109.326 22.875 109.706 23.125C110.086 23.375 110.581 23.5 111.191 23.5C111.531 23.5 111.851 23.455 112.151 23.365C112.461 23.275 112.781 23.145 113.111 22.975L113.846 24.31C113.416 24.58 112.941 24.795 112.421 24.955C111.901 25.105 111.391 25.18 110.891 25.18ZM110.711 19.06C110.271 19.06 109.901 19.175 109.601 19.405C109.311 19.635 109.111 19.985 109.001 20.455H112.181C112.071 19.525 111.581 19.06 110.711 19.06Z" fill="black"/>
<path d="M200.36 25.18C199.98 25.18 199.64 25.12 199.34 25C199.04 24.89 198.785 24.735 198.575 24.535C198.365 24.325 198.2 24.085 198.08 23.815C197.97 23.545 197.915 23.25 197.915 22.93C197.915 22.51 198.005 22.145 198.185 21.835C198.365 21.515 198.65 21.245 199.04 21.025C199.44 20.805 199.95 20.63 200.57 20.5C201.19 20.36 201.94 20.265 202.82 20.215C202.78 19.875 202.63 19.61 202.37 19.42C202.12 19.23 201.74 19.135 201.23 19.135C200.87 19.135 200.505 19.2 200.135 19.33C199.775 19.45 199.385 19.615 198.965 19.825L198.185 18.385C198.695 18.095 199.24 17.855 199.82 17.665C200.41 17.475 201.025 17.38 201.665 17.38C202.705 17.38 203.525 17.655 204.125 18.205C204.725 18.755 205.025 19.6 205.025 20.74V25H203.225L203.06 24.16H203C202.62 24.45 202.205 24.695 201.755 24.895C201.305 25.085 200.84 25.18 200.36 25.18ZM201.065 23.47C201.395 23.47 201.705 23.405 201.995 23.275C202.285 23.135 202.56 22.965 202.82 22.765V21.535C202.27 21.565 201.815 21.615 201.455 21.685C201.095 21.755 200.81 21.845 200.6 21.955C200.39 22.055 200.24 22.175 200.15 22.315C200.07 22.455 200.03 22.605 200.03 22.765C200.03 23.005 200.12 23.185 200.3 23.305C200.49 23.415 200.745 23.47 201.065 23.47ZM207.074 27.76V17.56H208.874L209.039 18.31H209.084C209.384 18.04 209.729 17.82 210.119 17.65C210.509 17.47 210.904 17.38 211.304 17.38C211.764 17.38 212.179 17.47 212.549 17.65C212.919 17.83 213.234 18.085 213.494 18.415C213.754 18.745 213.949 19.145 214.079 19.615C214.219 20.075 214.289 20.59 214.289 21.16C214.289 21.8 214.199 22.37 214.019 22.87C213.839 23.36 213.599 23.78 213.299 24.13C212.999 24.47 212.654 24.73 212.264 24.91C211.884 25.09 211.484 25.18 211.064 25.18C210.384 25.18 209.774 24.91 209.234 24.37H209.174L209.279 25.585V27.76H207.074ZM210.554 23.38C210.974 23.38 211.324 23.21 211.604 22.87C211.884 22.52 212.024 21.96 212.024 21.19C212.024 19.85 211.569 19.18 210.659 19.18C210.189 19.18 209.729 19.41 209.279 19.87V22.885C209.489 23.065 209.704 23.195 209.924 23.275C210.154 23.345 210.364 23.38 210.554 23.38ZM216.068 27.76V17.56H217.868L218.033 18.31H218.078C218.378 18.04 218.723 17.82 219.113 17.65C219.503 17.47 219.898 17.38 220.298 17.38C220.758 17.38 221.173 17.47 221.543 17.65C221.913 17.83 222.228 18.085 222.488 18.415C222.748 18.745 222.943 19.145 223.073 19.615C223.213 20.075 223.283 20.59 223.283 21.16C223.283 21.8 223.193 22.37 223.013 22.87C222.833 23.36 222.593 23.78 222.293 24.13C221.993 24.47 221.648 24.73 221.258 24.91C220.878 25.09 220.478 25.18 220.058 25.18C219.378 25.18 218.768 24.91 218.228 24.37H218.168L218.273 25.585V27.76H216.068ZM219.548 23.38C219.968 23.38 220.318 23.21 220.598 22.87C220.878 22.52 221.018 21.96 221.018 21.19C221.018 19.85 220.563 19.18 219.653 19.18C219.183 19.18 218.723 19.41 218.273 19.87V22.885C218.483 23.065 218.698 23.195 218.918 23.275C219.148 23.345 219.358 23.38 219.548 23.38ZM224.882 27.46V25.81H232.082V27.46H224.882ZM234.162 25V23.215H236.727V17.71H234.612V16.345C234.932 16.295 235.217 16.245 235.467 16.195C235.727 16.135 235.962 16.07 236.172 16C236.382 15.93 236.577 15.855 236.757 15.775C236.947 15.685 237.132 15.585 237.312 15.475H238.932V23.215H241.092V25H234.162ZM242.871 27.46V25.81H250.071V27.46H242.871ZM255.12 28.165C254.64 28.165 254.19 28.125 253.77 28.045C253.36 27.975 253.005 27.86 252.705 27.7C252.405 27.55 252.17 27.355 252 27.115C251.83 26.875 251.745 26.59 251.745 26.26C251.745 25.65 252.13 25.155 252.9 24.775V24.715C252.69 24.585 252.51 24.42 252.36 24.22C252.22 24.02 252.15 23.76 252.15 23.44C252.15 23.19 252.23 22.94 252.39 22.69C252.56 22.44 252.775 22.225 253.035 22.045V21.985C252.765 21.805 252.535 21.555 252.345 21.235C252.155 20.905 252.06 20.52 252.06 20.08C252.06 19.63 252.145 19.24 252.315 18.91C252.495 18.57 252.73 18.29 253.02 18.07C253.31 17.84 253.645 17.67 254.025 17.56C254.415 17.44 254.82 17.38 255.24 17.38C255.7 17.38 256.11 17.44 256.47 17.56H259.485V19.18H257.985C258.065 19.29 258.14 19.435 258.21 19.615C258.28 19.785 258.315 19.965 258.315 20.155C258.315 20.585 258.235 20.955 258.075 21.265C257.915 21.575 257.695 21.835 257.415 22.045C257.145 22.245 256.82 22.395 256.44 22.495C256.07 22.595 255.67 22.645 255.24 22.645C254.92 22.645 254.58 22.595 254.22 22.495C254.11 22.575 254.025 22.655 253.965 22.735C253.915 22.815 253.89 22.92 253.89 23.05C253.89 23.25 253.99 23.395 254.19 23.485C254.39 23.565 254.71 23.605 255.15 23.605H256.53C257.51 23.605 258.255 23.75 258.765 24.04C259.285 24.33 259.545 24.81 259.545 25.48C259.545 25.87 259.44 26.23 259.23 26.56C259.02 26.89 258.725 27.17 258.345 27.4C257.965 27.64 257.5 27.825 256.95 27.955C256.4 28.095 255.79 28.165 255.12 28.165ZM255.24 21.31C255.55 21.31 255.815 21.21 256.035 21.01C256.255 20.8 256.365 20.49 256.365 20.08C256.365 19.69 256.255 19.39 256.035 19.18C255.815 18.97 255.55 18.865 255.24 18.865C254.93 18.865 254.665 18.97 254.445 19.18C254.235 19.39 254.13 19.69 254.13 20.08C254.13 20.49 254.235 20.8 254.445 21.01C254.665 21.21 254.93 21.31 255.24 21.31ZM255.435 26.77C256.035 26.77 256.52 26.685 256.89 26.515C257.26 26.345 257.445 26.13 257.445 25.87C257.445 25.63 257.335 25.475 257.115 25.405C256.895 25.335 256.57 25.3 256.14 25.3H255.21C254.94 25.3 254.715 25.29 254.535 25.27C254.365 25.26 254.21 25.235 254.07 25.195C253.88 25.315 253.745 25.43 253.665 25.54C253.585 25.66 253.545 25.79 253.545 25.93C253.545 26.21 253.71 26.42 254.04 26.56C254.38 26.7 254.845 26.77 255.435 26.77ZM264.909 25.18C264.329 25.18 263.784 25.095 263.274 24.925C262.774 24.745 262.339 24.49 261.969 24.16C261.599 23.83 261.309 23.425 261.099 22.945C260.889 22.455 260.784 21.9 260.784 21.28C260.784 20.67 260.889 20.125 261.099 19.645C261.319 19.155 261.609 18.745 261.969 18.415C262.329 18.075 262.739 17.82 263.199 17.65C263.669 17.47 264.154 17.38 264.654 17.38C265.224 17.38 265.729 17.47 266.169 17.65C266.609 17.83 266.974 18.08 267.264 18.4C267.564 18.72 267.789 19.1 267.939 19.54C268.089 19.97 268.164 20.44 268.164 20.95C268.164 21.15 268.149 21.345 268.119 21.535C268.099 21.715 268.079 21.85 268.059 21.94H262.989C263.099 22.48 263.344 22.875 263.724 23.125C264.104 23.375 264.599 23.5 265.209 23.5C265.549 23.5 265.869 23.455 266.169 23.365C266.479 23.275 266.799 23.145 267.129 22.975L267.864 24.31C267.434 24.58 266.959 24.795 266.439 24.955C265.919 25.105 265.409 25.18 264.909 25.18ZM264.729 19.06C264.289 19.06 263.919 19.175 263.619 19.405C263.329 19.635 263.129 19.985 263.019 20.455H266.199C266.089 19.525 265.599 19.06 264.729 19.06ZM270.033 25V17.56H271.833L271.998 18.55H272.058C272.378 18.23 272.743 17.955 273.153 17.725C273.573 17.495 274.063 17.38 274.623 17.38C275.463 17.38 276.078 17.65 276.468 18.19C276.858 18.73 277.053 19.47 277.053 20.41V25H274.848V20.695C274.848 20.195 274.768 19.83 274.608 19.6C274.448 19.37 274.163 19.255 273.753 19.255C273.453 19.255 273.188 19.32 272.958 19.45C272.738 19.58 272.498 19.775 272.238 20.035V25H270.033ZM279.687 25V17.56H281.487L281.667 19.18H281.712C282.082 18.57 282.527 18.12 283.047 17.83C283.567 17.53 284.127 17.38 284.727 17.38C285.057 17.38 285.322 17.405 285.522 17.455C285.732 17.505 285.947 17.58 286.167 17.68L285.717 19.525C285.487 19.455 285.277 19.405 285.087 19.375C284.907 19.335 284.677 19.315 284.397 19.315C283.937 19.315 283.482 19.45 283.032 19.72C282.592 19.99 282.212 20.46 281.892 21.13V25H279.687ZM291.891 25.18C291.311 25.18 290.766 25.095 290.256 24.925C289.756 24.745 289.321 24.49 288.951 24.16C288.581 23.83 288.291 23.425 288.081 22.945C287.871 22.455 287.766 21.9 287.766 21.28C287.766 20.67 287.871 20.125 288.081 19.645C288.301 19.155 288.591 18.745 288.951 18.415C289.311 18.075 289.721 17.82 290.181 17.65C290.651 17.47 291.136 17.38 291.636 17.38C292.206 17.38 292.711 17.47 293.151 17.65C293.591 17.83 293.956 18.08 294.246 18.4C294.546 18.72 294.771 19.1 294.921 19.54C295.071 19.97 295.146 20.44 295.146 20.95C295.146 21.15 295.131 21.345 295.101 21.535C295.081 21.715 295.061 21.85 295.041 21.94H289.971C290.081 22.48 290.326 22.875 290.706 23.125C291.086 23.375 291.581 23.5 292.191 23.5C292.531 23.5 292.851 23.455 293.151 23.365C293.461 23.275 293.781 23.145 294.111 22.975L294.846 24.31C294.416 24.58 293.941 24.795 293.421 24.955C292.901 25.105 292.391 25.18 291.891 25.18ZM291.711 19.06C291.271 19.06 290.901 19.175 290.601 19.405C290.311 19.635 290.111 19.985 290.001 20.455H293.181C293.071 19.525 292.581 19.06 291.711 19.06Z" fill="black"/>
</svg>
