<svg width="461" height="138" viewBox="0 0 461 138" fill="none" xmlns="http://www.w3.org/2000/svg">
<rect width="461" height="138" fill="white"/>
<path d="M190.447 29.9104C190.447 27.9981 191.998 26.4478 193.91 26.4478H270.09C272.003 26.4478 273.553 27.9981 273.553 29.9104V106.09C273.553 108.002 272.003 109.552 270.09 109.552H193.91C191.998 109.552 190.447 108.002 190.447 106.09V29.9104Z" fill="#30394B"/>
<path fill-rule="evenodd" clip-rule="evenodd" d="M195.65 16.9254V10H192.17V16.9254L186.119 16.9254C183.25 16.9254 180.925 19.2508 180.925 22.1194V29.9018H174V33.3818H180.925V36.8272H174V40.3072H180.925V43.7525H174V47.2325H180.925V50.6779H174V54.1579H180.925V57.6033H174V61.0833H180.925V64.5287H174V68.0087H180.925V71.454H174V74.934H180.925V78.3794H174V81.8594H180.925V85.3048H174V88.7848H180.925V92.2301H174V95.7101H180.925V99.1555H174V102.636H180.925V106.081H174V109.561H180.925V113.881C180.925 116.749 183.25 119.075 186.119 119.075H192.17V126H195.65V119.075H199.095V126H202.575V119.075H206.021V126H209.501V119.075H212.946V126H216.426V119.075H219.872V126H223.352V119.075H226.797V126H230.277V119.075H233.723V126H237.203V119.075H240.648V126H244.128V119.075H247.574V126H251.054V119.075H254.499V126H257.979V119.075H261.425V126H264.905V119.075H268.35V126H271.83V119.075H277.881C280.75 119.075 283.075 116.749 283.075 113.881V109.561H290V106.081H283.075V102.636H290V99.1555H283.075V95.7101H290V92.2301H283.075V88.7848H290V85.3048H283.075V81.8594H290V78.3794H283.075V74.934H290V71.454H283.075V68.0087H290V64.5287H283.075V61.0833H290V57.6033H283.075V54.1579H290V50.6779H283.075V47.2325H290V43.7525H283.075V40.3072H290V36.8272H283.075V33.3818H290V29.9018H283.075V22.1194C283.075 19.2508 280.75 16.9254 277.881 16.9254L271.83 16.9254V10H268.35V16.9254H264.905V10H261.425V16.9254H257.979V10H254.499V16.9254H251.054V10H247.574V16.9254H244.128V10H240.648V16.9254H237.203V10H233.723V16.9254H230.277V10H226.797V16.9254H223.352V10H219.872V16.9254H216.426V10H212.946V16.9254H209.501V10H206.021V16.9254H202.575V10H199.095V16.9254H195.65ZM189.582 22.1194C187.669 22.1194 186.119 23.6697 186.119 25.5821V110.418C186.119 112.33 187.669 113.881 189.582 113.881H274.419C276.331 113.881 277.881 112.33 277.881 110.418V25.5821C277.881 23.6697 276.331 22.1194 274.419 22.1194H189.582Z" fill="#30394B"/>
<path d="M8.5 49.5H125.5V86.5H8.5V49.5Z" stroke="#29A1F8" stroke-width="3"/>
<path d="M24.5696 74V71.264H19.0616V69.446L23.8316 62.57H27.0356V69.248H28.4756V71.264H27.0356V74H24.5696ZM21.6176 69.248H24.5696V67.322C24.5696 66.962 24.5756 66.548 24.5876 66.08C24.6116 65.6 24.6356 65.18 24.6596 64.82H24.5876C24.3956 65.144 24.1916 65.468 23.9756 65.792C23.7596 66.116 23.5496 66.44 23.3456 66.764L21.6176 69.248ZM34.6246 74.216C34.0006 74.216 33.4966 74.018 33.1126 73.622C32.7286 73.214 32.5366 72.71 32.5366 72.11C32.5366 71.81 32.5846 71.534 32.6806 71.282C32.7886 71.018 32.9326 70.79 33.1126 70.598C33.2926 70.406 33.5086 70.256 33.7606 70.148C34.0246 70.04 34.3126 69.986 34.6246 69.986C34.9366 69.986 35.2186 70.04 35.4706 70.148C35.7346 70.256 35.9566 70.406 36.1366 70.598C36.3166 70.79 36.4546 71.018 36.5506 71.282C36.6586 71.534 36.7126 71.81 36.7126 72.11C36.7126 72.71 36.5206 73.214 36.1366 73.622C35.7526 74.018 35.2486 74.216 34.6246 74.216ZM45.1116 74.216C44.1156 74.216 43.2696 74.066 42.5736 73.766C41.8896 73.454 41.3136 73.07 40.8456 72.614L42.0336 70.94C42.4176 71.252 42.8256 71.522 43.2576 71.75C43.7016 71.966 44.1936 72.074 44.7336 72.074C45.3816 72.074 45.9096 71.924 46.3176 71.624C46.7376 71.324 46.9476 70.88 46.9476 70.292C46.9476 69.716 46.7496 69.278 46.3536 68.978C45.9696 68.678 45.4716 68.528 44.8596 68.528C44.6676 68.528 44.4936 68.54 44.3376 68.564C44.1936 68.576 44.0496 68.606 43.9056 68.654C43.7616 68.702 43.6116 68.762 43.4556 68.834C43.2996 68.906 43.1256 68.996 42.9336 69.104L41.7636 68.348L42.0696 62.57H49.0716V64.802H44.3556L44.1576 66.944C44.4216 66.848 44.6676 66.782 44.8956 66.746C45.1236 66.698 45.3816 66.674 45.6696 66.674C46.1976 66.674 46.6956 66.746 47.1636 66.89C47.6436 67.034 48.0636 67.25 48.4236 67.538C48.7836 67.826 49.0656 68.192 49.2696 68.636C49.4856 69.08 49.5936 69.608 49.5936 70.22C49.5936 70.856 49.4676 71.42 49.2156 71.912C48.9756 72.404 48.6456 72.824 48.2256 73.172C47.8176 73.508 47.3436 73.766 46.8036 73.946C46.2636 74.126 45.6996 74.216 45.1116 74.216ZM62.8635 68.996V67.124H71.1435V68.996H62.8635ZM88.2115 74.216C87.2275 74.216 86.3815 74.072 85.6735 73.784C84.9655 73.484 84.3895 73.088 83.9455 72.596L85.1695 70.922C85.5535 71.258 85.9795 71.534 86.4475 71.75C86.9275 71.966 87.4315 72.074 87.9595 72.074C88.5835 72.074 89.0935 71.96 89.4895 71.732C89.8975 71.492 90.1015 71.156 90.1015 70.724C90.1015 70.472 90.0475 70.244 89.9395 70.04C89.8315 69.836 89.6455 69.668 89.3815 69.536C89.1175 69.392 88.7635 69.284 88.3195 69.212C87.8755 69.128 87.3175 69.086 86.6455 69.086V67.214C87.7735 67.214 88.5655 67.076 89.0215 66.8C89.4895 66.512 89.7235 66.14 89.7235 65.684C89.7235 65.288 89.5735 64.982 89.2735 64.766C88.9735 64.538 88.5595 64.424 88.0315 64.424C87.5755 64.424 87.1555 64.514 86.7715 64.694C86.3875 64.874 85.9975 65.12 85.6015 65.432L84.2695 63.812C84.8335 63.356 85.4335 63.002 86.0695 62.75C86.7175 62.486 87.4135 62.354 88.1575 62.354C88.7815 62.354 89.3515 62.426 89.8675 62.57C90.3835 62.702 90.8275 62.906 91.1995 63.182C91.5715 63.446 91.8595 63.77 92.0635 64.154C92.2675 64.538 92.3695 64.982 92.3695 65.486C92.3695 66.086 92.1775 66.596 91.7935 67.016C91.4095 67.424 90.8755 67.76 90.1915 68.024V68.096C90.9115 68.288 91.5175 68.618 92.0095 69.086C92.5015 69.542 92.7475 70.142 92.7475 70.886C92.7475 71.414 92.6215 71.888 92.3695 72.308C92.1295 72.716 91.7995 73.064 91.3795 73.352C90.9715 73.628 90.4915 73.844 89.9395 74C89.3875 74.144 88.8115 74.216 88.2115 74.216ZM99.3824 74.216C98.7584 74.216 98.2544 74.018 97.8704 73.622C97.4864 73.214 97.2944 72.71 97.2944 72.11C97.2944 71.81 97.3424 71.534 97.4384 71.282C97.5464 71.018 97.6904 70.79 97.8704 70.598C98.0504 70.406 98.2664 70.256 98.5184 70.148C98.7824 70.04 99.0704 69.986 99.3824 69.986C99.6944 69.986 99.9764 70.04 100.228 70.148C100.492 70.256 100.714 70.406 100.894 70.598C101.074 70.79 101.212 71.018 101.308 71.282C101.416 71.534 101.47 71.81 101.47 72.11C101.47 72.71 101.278 73.214 100.894 73.622C100.51 74.018 100.006 74.216 99.3824 74.216ZM109.869 74.216C108.873 74.216 108.027 74.066 107.331 73.766C106.647 73.454 106.071 73.07 105.603 72.614L106.791 70.94C107.175 71.252 107.583 71.522 108.015 71.75C108.459 71.966 108.951 72.074 109.491 72.074C110.139 72.074 110.667 71.924 111.075 71.624C111.495 71.324 111.705 70.88 111.705 70.292C111.705 69.716 111.507 69.278 111.111 68.978C110.727 68.678 110.229 68.528 109.617 68.528C109.425 68.528 109.251 68.54 109.095 68.564C108.951 68.576 108.807 68.606 108.663 68.654C108.519 68.702 108.369 68.762 108.213 68.834C108.057 68.906 107.883 68.996 107.691 69.104L106.521 68.348L106.827 62.57H113.829V64.802H109.113L108.915 66.944C109.179 66.848 109.425 66.782 109.653 66.746C109.881 66.698 110.139 66.674 110.427 66.674C110.955 66.674 111.453 66.746 111.921 66.89C112.401 67.034 112.821 67.25 113.181 67.538C113.541 67.826 113.823 68.192 114.027 68.636C114.243 69.08 114.351 69.608 114.351 70.22C114.351 70.856 114.225 71.42 113.973 71.912C113.733 72.404 113.403 72.824 112.983 73.172C112.575 73.508 112.101 73.766 111.561 73.946C111.021 74.126 110.457 74.216 109.869 74.216Z" fill="#29A1F8"/>
<path d="M349.5 49.5H402.5V86.5H349.5V49.5Z" stroke="#24A871" stroke-width="3"/>
<path d="M362.233 74V71.858H365.311V65.252H362.773V63.614C363.157 63.554 363.499 63.494 363.799 63.434C364.111 63.362 364.393 63.284 364.645 63.2C364.897 63.116 365.131 63.026 365.347 62.93C365.575 62.822 365.797 62.702 366.013 62.57H367.957V71.858H370.549V74H362.233ZM377.004 74.216C376.38 74.216 375.876 74.018 375.492 73.622C375.108 73.214 374.916 72.71 374.916 72.11C374.916 71.81 374.964 71.534 375.06 71.282C375.168 71.018 375.312 70.79 375.492 70.598C375.672 70.406 375.888 70.256 376.14 70.148C376.404 70.04 376.692 69.986 377.004 69.986C377.316 69.986 377.598 70.04 377.85 70.148C378.114 70.256 378.336 70.406 378.516 70.598C378.696 70.79 378.834 71.018 378.93 71.282C379.038 71.534 379.092 71.81 379.092 72.11C379.092 72.71 378.9 73.214 378.516 73.622C378.132 74.018 377.628 74.216 377.004 74.216ZM387.796 74.216C387.136 74.216 386.536 74.09 385.996 73.838C385.456 73.574 384.994 73.19 384.61 72.686C384.226 72.182 383.926 71.558 383.71 70.814C383.506 70.07 383.404 69.212 383.404 68.24C383.404 67.268 383.506 66.416 383.71 65.684C383.926 64.952 384.226 64.34 384.61 63.848C384.994 63.344 385.456 62.972 385.996 62.732C386.536 62.48 387.136 62.354 387.796 62.354C388.456 62.354 389.056 62.48 389.596 62.732C390.136 62.972 390.598 63.344 390.982 63.848C391.366 64.34 391.66 64.952 391.864 65.684C392.08 66.416 392.188 67.268 392.188 68.24C392.188 69.212 392.08 70.07 391.864 70.814C391.66 71.558 391.366 72.182 390.982 72.686C390.598 73.19 390.136 73.574 389.596 73.838C389.056 74.09 388.456 74.216 387.796 74.216ZM387.796 72.164C388.084 72.164 388.348 72.098 388.588 71.966C388.84 71.834 389.056 71.618 389.236 71.318C389.416 71.006 389.56 70.604 389.668 70.112C389.776 69.608 389.83 68.984 389.83 68.24C389.83 67.496 389.776 66.878 389.668 66.386C389.56 65.894 389.416 65.504 389.236 65.216C389.056 64.916 388.84 64.706 388.588 64.586C388.348 64.466 388.084 64.406 387.796 64.406C387.508 64.406 387.238 64.466 386.986 64.586C386.746 64.706 386.536 64.916 386.356 65.216C386.176 65.504 386.032 65.894 385.924 66.386C385.816 66.878 385.762 67.496 385.762 68.24C385.762 68.984 385.816 69.608 385.924 70.112C386.032 70.604 386.176 71.006 386.356 71.318C386.536 71.618 386.746 71.834 386.986 71.966C387.238 72.098 387.508 72.164 387.796 72.164ZM387.796 69.572C387.412 69.572 387.088 69.452 386.824 69.212C386.572 68.96 386.446 68.624 386.446 68.204C386.446 67.784 386.572 67.454 386.824 67.214C387.088 66.962 387.412 66.836 387.796 66.836C388.18 66.836 388.498 66.962 388.75 67.214C389.014 67.454 389.146 67.784 389.146 68.204C389.146 68.624 389.014 68.96 388.75 69.212C388.498 69.452 388.18 69.572 387.796 69.572Z" fill="#24A871"/>
<path d="M207.491 64.144C207.003 64.144 206.539 64.06 206.099 63.892C205.667 63.716 205.283 63.46 204.947 63.124C204.619 62.788 204.355 62.372 204.155 61.876C203.963 61.372 203.867 60.792 203.867 60.136C203.867 59.488 203.963 58.912 204.155 58.408C204.347 57.896 204.611 57.464 204.947 57.112C205.283 56.76 205.679 56.492 206.135 56.308C206.591 56.124 207.079 56.032 207.599 56.032C208.095 56.032 208.543 56.136 208.943 56.344C209.343 56.544 209.675 56.772 209.939 57.028L208.967 58.12C208.783 57.952 208.579 57.816 208.355 57.712C208.139 57.608 207.887 57.556 207.599 57.556C207.319 57.556 207.063 57.616 206.831 57.736C206.599 57.848 206.395 58.012 206.219 58.228C206.051 58.444 205.919 58.708 205.823 59.02C205.727 59.332 205.679 59.684 205.679 60.076C205.679 60.884 205.863 61.512 206.231 61.96C206.599 62.4 207.079 62.62 207.671 62.62C207.951 62.62 208.207 62.556 208.439 62.428C208.679 62.3 208.895 62.132 209.087 61.924L210.059 62.992C209.411 63.76 208.555 64.144 207.491 64.144ZM214.014 64.144C213.622 64.144 213.242 64.076 212.874 63.94C212.514 63.796 212.19 63.592 211.902 63.328C211.622 63.064 211.398 62.74 211.23 62.356C211.062 61.964 210.978 61.52 210.978 61.024C210.978 60.528 211.062 60.088 211.23 59.704C211.398 59.312 211.622 58.984 211.902 58.72C212.19 58.456 212.514 58.256 212.874 58.12C213.242 57.976 213.622 57.904 214.014 57.904C214.406 57.904 214.782 57.976 215.142 58.12C215.51 58.256 215.834 58.456 216.114 58.72C216.402 58.984 216.63 59.312 216.798 59.704C216.966 60.088 217.05 60.528 217.05 61.024C217.05 61.52 216.966 61.964 216.798 62.356C216.63 62.74 216.402 63.064 216.114 63.328C215.834 63.592 215.51 63.796 215.142 63.94C214.782 64.076 214.406 64.144 214.014 64.144ZM214.014 62.716C214.422 62.716 214.726 62.564 214.926 62.26C215.134 61.956 215.238 61.544 215.238 61.024C215.238 60.504 215.134 60.092 214.926 59.788C214.726 59.484 214.422 59.332 214.014 59.332C213.606 59.332 213.298 59.484 213.09 59.788C212.89 60.092 212.79 60.504 212.79 61.024C212.79 61.544 212.89 61.956 213.09 62.26C213.298 62.564 213.606 62.716 214.014 62.716ZM218.029 64V58.048H219.361L219.481 58.78H219.529C219.641 58.54 219.797 58.336 219.997 58.168C220.197 57.992 220.469 57.904 220.813 57.904C221.069 57.904 221.285 57.988 221.461 58.156C221.645 58.316 221.773 58.556 221.845 58.876C221.957 58.604 222.117 58.376 222.325 58.192C222.541 58 222.821 57.904 223.165 57.904C223.597 57.904 223.925 58.076 224.149 58.42C224.381 58.756 224.497 59.224 224.497 59.824V64H222.817V59.944C222.817 59.76 222.793 59.624 222.745 59.536C222.697 59.448 222.613 59.404 222.493 59.404C222.381 59.404 222.285 59.452 222.205 59.548C222.125 59.644 222.041 59.788 221.953 59.98V64H220.573V59.944C220.573 59.584 220.461 59.404 220.237 59.404C220.125 59.404 220.029 59.452 219.949 59.548C219.869 59.644 219.789 59.788 219.709 59.98V64H218.029ZM225.669 66.208V58.048H227.109L227.241 58.648H227.277C227.517 58.432 227.793 58.256 228.105 58.12C228.417 57.976 228.733 57.904 229.053 57.904C229.421 57.904 229.753 57.976 230.049 58.12C230.345 58.264 230.597 58.468 230.805 58.732C231.013 58.996 231.169 59.316 231.273 59.692C231.385 60.06 231.441 60.472 231.441 60.928C231.441 61.44 231.369 61.896 231.225 62.296C231.081 62.688 230.889 63.024 230.649 63.304C230.409 63.576 230.133 63.784 229.821 63.928C229.517 64.072 229.197 64.144 228.861 64.144C228.317 64.144 227.829 63.928 227.397 63.496H227.349L227.433 64.468V66.208H225.669ZM228.453 62.704C228.789 62.704 229.069 62.568 229.293 62.296C229.517 62.016 229.629 61.568 229.629 60.952C229.629 59.88 229.265 59.344 228.537 59.344C228.161 59.344 227.793 59.528 227.433 59.896V62.308C227.601 62.452 227.773 62.556 227.949 62.62C228.133 62.676 228.301 62.704 228.453 62.704ZM234.676 64.144C233.996 64.144 233.504 63.928 233.2 63.496C232.896 63.064 232.744 62.472 232.744 61.72V58.048H234.508V61.492C234.508 61.892 234.568 62.184 234.688 62.368C234.808 62.552 235.036 62.644 235.372 62.644C235.596 62.644 235.792 62.596 235.96 62.5C236.136 62.404 236.328 62.224 236.536 61.96V58.048H238.3V64H236.86L236.728 63.148H236.68C236.416 63.452 236.124 63.696 235.804 63.88C235.484 64.056 235.108 64.144 234.676 64.144ZM243.851 64.144C243.379 64.144 242.979 64.08 242.651 63.952C242.323 63.824 242.055 63.648 241.847 63.424C241.647 63.192 241.503 62.916 241.415 62.596C241.327 62.276 241.283 61.92 241.283 61.528V59.428H239.783V58.12L241.367 58.048L241.595 56.224H243.047V58.048H245.567V59.428H243.047V61.516C243.047 61.972 243.147 62.296 243.347 62.488C243.547 62.672 243.867 62.764 244.307 62.764C244.531 62.764 244.735 62.744 244.919 62.704C245.111 62.664 245.299 62.612 245.483 62.548L245.795 63.82C245.531 63.9 245.239 63.972 244.919 64.036C244.607 64.108 244.251 64.144 243.851 64.144ZM250.351 64.144C249.887 64.144 249.451 64.076 249.043 63.94C248.643 63.796 248.295 63.592 247.999 63.328C247.703 63.064 247.471 62.74 247.303 62.356C247.135 61.964 247.051 61.52 247.051 61.024C247.051 60.536 247.135 60.1 247.303 59.716C247.479 59.324 247.711 58.996 247.999 58.732C248.287 58.46 248.615 58.256 248.983 58.12C249.359 57.976 249.747 57.904 250.147 57.904C250.603 57.904 251.007 57.976 251.359 58.12C251.711 58.264 252.003 58.464 252.235 58.72C252.475 58.976 252.655 59.28 252.775 59.632C252.895 59.976 252.955 60.352 252.955 60.76C252.955 60.92 252.943 61.076 252.919 61.228C252.903 61.372 252.887 61.48 252.871 61.552H248.815C248.903 61.984 249.099 62.3 249.403 62.5C249.707 62.7 250.103 62.8 250.591 62.8C250.863 62.8 251.119 62.764 251.359 62.692C251.607 62.62 251.863 62.516 252.127 62.38L252.715 63.448C252.371 63.664 251.991 63.836 251.575 63.964C251.159 64.084 250.751 64.144 250.351 64.144ZM250.207 59.248C249.855 59.248 249.559 59.34 249.319 59.524C249.087 59.708 248.927 59.988 248.839 60.364H251.383C251.295 59.62 250.903 59.248 250.207 59.248ZM254.978 64V58.048H256.418L256.562 59.344H256.598C256.894 58.856 257.25 58.496 257.666 58.264C258.082 58.024 258.53 57.904 259.01 57.904C259.274 57.904 259.486 57.924 259.646 57.964C259.814 58.004 259.986 58.064 260.162 58.144L259.802 59.62C259.618 59.564 259.45 59.524 259.298 59.5C259.154 59.468 258.97 59.452 258.746 59.452C258.378 59.452 258.014 59.56 257.654 59.776C257.302 59.992 256.998 60.368 256.742 60.904V64H254.978ZM225.479 79.144C224.991 79.144 224.527 79.06 224.087 78.892C223.655 78.716 223.271 78.46 222.935 78.124C222.607 77.788 222.343 77.372 222.143 76.876C221.951 76.372 221.855 75.792 221.855 75.136C221.855 74.488 221.951 73.912 222.143 73.408C222.335 72.896 222.599 72.464 222.935 72.112C223.271 71.76 223.667 71.492 224.123 71.308C224.579 71.124 225.067 71.032 225.587 71.032C226.083 71.032 226.531 71.136 226.931 71.344C227.331 71.544 227.663 71.772 227.927 72.028L226.955 73.12C226.771 72.952 226.567 72.816 226.343 72.712C226.127 72.608 225.875 72.556 225.587 72.556C225.307 72.556 225.051 72.616 224.819 72.736C224.587 72.848 224.383 73.012 224.207 73.228C224.039 73.444 223.907 73.708 223.811 74.02C223.715 74.332 223.667 74.684 223.667 75.076C223.667 75.884 223.851 76.512 224.219 76.96C224.587 77.4 225.067 77.62 225.659 77.62C225.939 77.62 226.195 77.556 226.427 77.428C226.667 77.3 226.883 77.132 227.075 76.924L228.047 77.992C227.399 78.76 226.543 79.144 225.479 79.144ZM229.302 79V71.176H232.074C232.498 71.176 232.894 71.22 233.262 71.308C233.638 71.388 233.962 71.528 234.234 71.728C234.514 71.92 234.734 72.18 234.894 72.508C235.054 72.828 235.134 73.224 235.134 73.696C235.134 74.152 235.05 74.548 234.882 74.884C234.722 75.22 234.502 75.496 234.222 75.712C233.942 75.928 233.618 76.088 233.25 76.192C232.882 76.296 232.49 76.348 232.074 76.348H231.066V79H229.302ZM231.066 74.944H231.966C232.926 74.944 233.406 74.528 233.406 73.696C233.406 73.288 233.282 73 233.034 72.832C232.794 72.664 232.438 72.58 231.966 72.58H231.066V74.944ZM239.222 79.144C238.262 79.144 237.546 78.876 237.074 78.34C236.602 77.796 236.366 77.012 236.366 75.988V71.176H238.13V76.168C238.13 76.64 238.218 77 238.394 77.248C238.57 77.496 238.846 77.62 239.222 77.62C239.598 77.62 239.874 77.496 240.05 77.248C240.234 77 240.326 76.64 240.326 76.168V71.176H242.03V75.988C242.03 77.012 241.798 77.796 241.334 78.34C240.878 78.876 240.174 79.144 239.222 79.144Z" fill="white"/>
<path d="M47.0497 33V31.264H49.1777V25.608H47.0497V23.872H53.3777V25.608H51.2497V31.264H53.3777V33H47.0497ZM55.4162 33V26.056H57.0962L57.2502 26.98H57.3062C57.6049 26.6813 57.9455 26.4247 58.3282 26.21C58.7202 25.9953 59.1775 25.888 59.7002 25.888C60.4842 25.888 61.0582 26.14 61.4222 26.644C61.7862 27.148 61.9682 27.8387 61.9682 28.716V33H59.9102V28.982C59.9102 28.5153 59.8355 28.1747 59.6862 27.96C59.5369 27.7453 59.2709 27.638 58.8882 27.638C58.6082 27.638 58.3609 27.6987 58.1462 27.82C57.9409 27.9413 57.7169 28.1233 57.4742 28.366V33H55.4162ZM63.8107 35.576V26.056H65.4907L65.6447 26.756H65.6867C65.9667 26.504 66.2887 26.2987 66.6527 26.14C67.0167 25.972 67.3854 25.888 67.7587 25.888C68.1881 25.888 68.5754 25.972 68.9207 26.14C69.2661 26.308 69.5601 26.546 69.8027 26.854C70.0454 27.162 70.2274 27.5353 70.3487 27.974C70.4794 28.4033 70.5447 28.884 70.5447 29.416C70.5447 30.0133 70.4607 30.5453 70.2927 31.012C70.1247 31.4693 69.9007 31.8613 69.6207 32.188C69.3407 32.5053 69.0187 32.748 68.6547 32.916C68.3001 33.084 67.9267 33.168 67.5347 33.168C66.9001 33.168 66.3307 32.916 65.8267 32.412H65.7707L65.8687 33.546V35.576H63.8107ZM67.0587 31.488C67.4507 31.488 67.7774 31.3293 68.0387 31.012C68.3001 30.6853 68.4307 30.1627 68.4307 29.444C68.4307 28.1933 68.0061 27.568 67.1567 27.568C66.7181 27.568 66.2887 27.7827 65.8687 28.212V31.026C66.0647 31.194 66.2654 31.3153 66.4707 31.39C66.6854 31.4553 66.8814 31.488 67.0587 31.488ZM74.3193 33.168C73.5259 33.168 72.9519 32.916 72.5973 32.412C72.2426 31.908 72.0653 31.2173 72.0653 30.34V26.056H74.1233V30.074C74.1233 30.5407 74.1933 30.8813 74.3333 31.096C74.4733 31.3107 74.7393 31.418 75.1313 31.418C75.3926 31.418 75.6213 31.362 75.8173 31.25C76.0226 31.138 76.2466 30.928 76.4893 30.62V26.056H78.5473V33H76.8673L76.7133 32.006H76.6573C76.3493 32.3607 76.0086 32.6453 75.6353 32.86C75.2619 33.0653 74.8233 33.168 74.3193 33.168ZM85.0238 33.168C84.4731 33.168 84.0065 33.0933 83.6238 32.944C83.2411 32.7947 82.9285 32.5893 82.6858 32.328C82.4525 32.0573 82.2845 31.7353 82.1818 31.362C82.0791 30.9887 82.0278 30.5733 82.0278 30.116V27.666H80.2778V26.14L82.1258 26.056L82.3918 23.928H84.0858V26.056H87.0258V27.666H84.0858V30.102C84.0858 30.634 84.2025 31.012 84.4358 31.236C84.6691 31.4507 85.0425 31.558 85.5558 31.558C85.8171 31.558 86.0551 31.5347 86.2698 31.488C86.4938 31.4413 86.7131 31.3807 86.9278 31.306L87.2918 32.79C86.9838 32.8833 86.6431 32.9673 86.2698 33.042C85.9058 33.126 85.4905 33.168 85.0238 33.168Z" fill="#232A3D"/>
<path d="M354.516 33.168C353.975 33.168 353.476 33.0653 353.018 32.86C352.57 32.6547 352.183 32.3513 351.856 31.95C351.539 31.5487 351.292 31.054 351.114 30.466C350.937 29.8687 350.848 29.178 350.848 28.394C350.848 27.6287 350.937 26.9567 351.114 26.378C351.292 25.79 351.539 25.3 351.856 24.908C352.183 24.5067 352.57 24.208 353.018 24.012C353.476 23.8067 353.975 23.704 354.516 23.704C355.058 23.704 355.552 23.8067 356 24.012C356.458 24.208 356.845 24.5067 357.162 24.908C357.489 25.3 357.741 25.79 357.918 26.378C358.096 26.9567 358.184 27.6287 358.184 28.394C358.184 29.178 358.096 29.8687 357.918 30.466C357.741 31.054 357.489 31.5487 357.162 31.95C356.845 32.3513 356.458 32.6547 356 32.86C355.552 33.0653 355.058 33.168 354.516 33.168ZM354.516 31.39C354.992 31.39 355.37 31.138 355.65 30.634C355.93 30.13 356.07 29.3833 356.07 28.394C356.07 27.442 355.93 26.7187 355.65 26.224C355.37 25.7293 354.992 25.482 354.516 25.482C354.04 25.482 353.662 25.7293 353.382 26.224C353.102 26.7187 352.962 27.442 352.962 28.394C352.962 29.3833 353.102 30.13 353.382 30.634C353.662 31.138 354.04 31.39 354.516 31.39ZM361.833 33.168C361.04 33.168 360.466 32.916 360.111 32.412C359.756 31.908 359.579 31.2173 359.579 30.34V26.056H361.637V30.074C361.637 30.5407 361.707 30.8813 361.847 31.096C361.987 31.3107 362.253 31.418 362.645 31.418C362.906 31.418 363.135 31.362 363.331 31.25C363.536 31.138 363.76 30.928 364.003 30.62V26.056H366.061V33H364.381L364.227 32.006H364.171C363.863 32.3607 363.522 32.6453 363.149 32.86C362.776 33.0653 362.337 33.168 361.833 33.168ZM372.537 33.168C371.987 33.168 371.52 33.0933 371.137 32.944C370.755 32.7947 370.442 32.5893 370.199 32.328C369.966 32.0573 369.798 31.7353 369.695 31.362C369.593 30.9887 369.541 30.5733 369.541 30.116V27.666H367.791V26.14L369.639 26.056L369.905 23.928H371.599V26.056H374.539V27.666H371.599V30.102C371.599 30.634 371.716 31.012 371.949 31.236C372.183 31.4507 372.556 31.558 373.069 31.558C373.331 31.558 373.569 31.5347 373.783 31.488C374.007 31.4413 374.227 31.3807 374.441 31.306L374.805 32.79C374.497 32.8833 374.157 32.9673 373.783 33.042C373.419 33.126 373.004 33.168 372.537 33.168ZM376.508 35.576V26.056H378.188L378.342 26.756H378.384C378.664 26.504 378.986 26.2987 379.35 26.14C379.714 25.972 380.083 25.888 380.456 25.888C380.885 25.888 381.273 25.972 381.618 26.14C381.963 26.308 382.257 26.546 382.5 26.854C382.743 27.162 382.925 27.5353 383.046 27.974C383.177 28.4033 383.242 28.884 383.242 29.416C383.242 30.0133 383.158 30.5453 382.99 31.012C382.822 31.4693 382.598 31.8613 382.318 32.188C382.038 32.5053 381.716 32.748 381.352 32.916C380.997 33.084 380.624 33.168 380.232 33.168C379.597 33.168 379.028 32.916 378.524 32.412H378.468L378.566 33.546V35.576H376.508ZM379.756 31.488C380.148 31.488 380.475 31.3293 380.736 31.012C380.997 30.6853 381.128 30.1627 381.128 29.444C381.128 28.1933 380.703 27.568 379.854 27.568C379.415 27.568 378.986 27.7827 378.566 28.212V31.026C378.762 31.194 378.963 31.3153 379.168 31.39C379.383 31.4553 379.579 31.488 379.756 31.488ZM387.017 33.168C386.223 33.168 385.649 32.916 385.295 32.412C384.94 31.908 384.763 31.2173 384.763 30.34V26.056H386.821V30.074C386.821 30.5407 386.891 30.8813 387.031 31.096C387.171 31.3107 387.437 31.418 387.829 31.418C388.09 31.418 388.319 31.362 388.515 31.25C388.72 31.138 388.944 30.928 389.187 30.62V26.056H391.245V33H389.565L389.411 32.006H389.355C389.047 32.3607 388.706 32.6453 388.333 32.86C387.959 33.0653 387.521 33.168 387.017 33.168ZM397.721 33.168C397.17 33.168 396.704 33.0933 396.321 32.944C395.938 32.7947 395.626 32.5893 395.383 32.328C395.15 32.0573 394.982 31.7353 394.879 31.362C394.776 30.9887 394.725 30.5733 394.725 30.116V27.666H392.975V26.14L394.823 26.056L395.089 23.928H396.783V26.056H399.723V27.666H396.783V30.102C396.783 30.634 396.9 31.012 397.133 31.236C397.366 31.4507 397.74 31.558 398.253 31.558C398.514 31.558 398.752 31.5347 398.967 31.488C399.191 31.4413 399.41 31.3807 399.625 31.306L399.989 32.79C399.681 32.8833 399.34 32.9673 398.967 33.042C398.603 33.126 398.188 33.168 397.721 33.168Z" fill="#232A3D"/>
<path d="M163.707 68.7071C164.098 68.3166 164.098 67.6834 163.707 67.2929L157.343 60.9289C156.953 60.5384 156.319 60.5384 155.929 60.9289C155.538 61.3195 155.538 61.9526 155.929 62.3431L161.586 68L155.929 73.6569C155.538 74.0474 155.538 74.6805 155.929 75.0711C156.319 75.4616 156.953 75.4616 157.343 75.0711L163.707 68.7071ZM137 69H163V67H137V69Z" fill="#232A3D"/>
<path d="M332.707 68.7071C333.098 68.3166 333.098 67.6834 332.707 67.2929L326.343 60.9289C325.953 60.5384 325.319 60.5384 324.929 60.9289C324.538 61.3195 324.538 61.9526 324.929 62.3431L330.586 68L324.929 73.6569C324.538 74.0474 324.538 74.6805 324.929 75.0711C325.319 75.4616 325.953 75.4616 326.343 75.0711L332.707 68.7071ZM306 69H332V67H306V69Z" fill="#232A3D"/>
</svg>
