<svg width="317" height="126" viewBox="0 0 317 126" fill="none" xmlns="http://www.w3.org/2000/svg">
<rect width="317" height="126" fill="white"/>
<rect y="24" width="317" height="56" rx="4" fill="#EFF1F6"/>
<path d="M132.5 71.18C131.95 71.18 131.45 71.075 131 70.865C130.55 70.645 130.165 70.325 129.845 69.905C129.525 69.485 129.275 68.965 129.095 68.345C128.925 67.725 128.84 67.01 128.84 66.2C128.84 65.39 128.925 64.68 129.095 64.07C129.275 63.46 129.525 62.95 129.845 62.54C130.165 62.12 130.55 61.81 131 61.61C131.45 61.4 131.95 61.295 132.5 61.295C133.05 61.295 133.55 61.4 134 61.61C134.45 61.81 134.835 62.12 135.155 62.54C135.475 62.95 135.72 63.46 135.89 64.07C136.07 64.68 136.16 65.39 136.16 66.2C136.16 67.01 136.07 67.725 135.89 68.345C135.72 68.965 135.475 69.485 135.155 69.905C134.835 70.325 134.45 70.645 134 70.865C133.55 71.075 133.05 71.18 132.5 71.18ZM132.5 63.005C132.26 63.005 132.035 63.055 131.825 63.155C131.625 63.255 131.45 63.43 131.3 63.68C131.15 63.92 131.03 64.245 130.94 64.655C130.85 65.065 130.805 65.58 130.805 66.2C130.805 66.82 130.85 67.34 130.94 67.76C131.03 68.17 131.15 68.505 131.3 68.765C131.45 69.015 131.625 69.195 131.825 69.305C132.035 69.415 132.26 69.47 132.5 69.47C132.74 69.47 132.96 69.415 133.16 69.305C133.37 69.195 133.55 69.015 133.7 68.765C133.85 68.505 133.97 68.17 134.06 67.76C134.15 67.34 134.195 66.82 134.195 66.2C134.195 65.58 134.15 65.065 134.06 64.655C133.97 64.245 133.85 63.92 133.7 63.68C133.55 63.43 133.37 63.255 133.16 63.155C132.96 63.055 132.74 63.005 132.5 63.005ZM132.5 67.31C132.18 67.31 131.91 67.21 131.69 67.01C131.48 66.8 131.375 66.52 131.375 66.17C131.375 65.82 131.48 65.545 131.69 65.345C131.91 65.135 132.18 65.03 132.5 65.03C132.82 65.03 133.085 65.135 133.295 65.345C133.515 65.545 133.625 65.82 133.625 66.17C133.625 66.52 133.515 66.8 133.295 67.01C133.085 67.21 132.82 67.31 132.5 67.31Z" fill="#C74E4E"/>
<path d="M117.3 116.9L117.225 114.725H119.775L119.7 116.9L119.175 120.455H117.825L117.3 116.9ZM128.109 121.04V119.435C128.109 119.135 128.114 118.79 128.124 118.4C128.144 118 128.164 117.65 128.184 117.35H128.124C127.964 117.62 127.794 117.89 127.614 118.16C127.434 118.43 127.259 118.7 127.089 118.97L125.649 121.04H128.109ZM131.364 122.72H130.164V125H128.109V122.72H123.519V121.205L127.494 115.475H130.164V121.04H131.364V122.72ZM135.678 120.83H133.038V119.27H135.678V116.51H137.298V119.27H139.938V120.83H137.298V123.59H135.678V120.83ZM144.282 116.9L144.207 114.725H146.757L146.682 116.9L146.157 120.455H144.807L144.282 116.9Z" fill="#C74E4E"/>
<path d="M166.3 116.9L166.225 114.725H168.775L168.7 116.9L168.175 120.455H166.825L166.3 116.9ZM176.224 119.87C176.504 119.87 176.794 119.8 177.094 119.66C177.394 119.52 177.689 119.275 177.979 118.925C177.919 118.555 177.829 118.245 177.709 117.995C177.599 117.735 177.464 117.53 177.304 117.38C177.154 117.22 176.989 117.11 176.809 117.05C176.629 116.98 176.444 116.945 176.254 116.945C176.064 116.945 175.879 116.975 175.699 117.035C175.529 117.095 175.374 117.19 175.234 117.32C175.104 117.44 174.999 117.6 174.919 117.8C174.839 117.99 174.799 118.22 174.799 118.49C174.799 118.98 174.929 119.335 175.189 119.555C175.449 119.765 175.794 119.87 176.224 119.87ZM174.094 122.72C174.294 122.9 174.544 123.06 174.844 123.2C175.144 123.33 175.454 123.395 175.774 123.395C176.064 123.395 176.339 123.345 176.599 123.245C176.869 123.135 177.104 122.965 177.304 122.735C177.514 122.495 177.684 122.185 177.814 121.805C177.944 121.415 178.019 120.94 178.039 120.38C177.689 120.71 177.304 120.97 176.884 121.16C176.474 121.34 176.094 121.43 175.744 121.43C175.324 121.43 174.934 121.37 174.574 121.25C174.214 121.13 173.899 120.95 173.629 120.71C173.369 120.47 173.164 120.165 173.014 119.795C172.864 119.425 172.789 118.99 172.789 118.49C172.789 118 172.879 117.56 173.059 117.17C173.249 116.77 173.499 116.43 173.809 116.15C174.129 115.87 174.494 115.66 174.904 115.52C175.314 115.37 175.749 115.295 176.209 115.295C176.699 115.295 177.174 115.385 177.634 115.565C178.104 115.745 178.519 116.025 178.879 116.405C179.239 116.785 179.524 117.275 179.734 117.875C179.954 118.465 180.064 119.18 180.064 120.02C180.064 120.91 179.949 121.68 179.719 122.33C179.489 122.98 179.184 123.515 178.804 123.935C178.424 124.355 177.984 124.67 177.484 124.88C176.994 125.08 176.489 125.18 175.969 125.18C175.289 125.18 174.694 125.065 174.184 124.835C173.674 124.605 173.254 124.34 172.924 124.04L174.094 122.72ZM184.678 120.83H182.038V119.27H184.678V116.51H186.298V119.27H188.938V120.83H186.298V123.59H184.678V120.83ZM193.282 116.9L193.207 114.725H195.757L195.682 116.9L195.157 120.455H193.807L193.282 116.9Z" fill="#C74E4E"/>
<path d="M211.3 116.9L211.225 114.725H213.775L213.7 116.9L213.175 120.455H211.825L211.3 116.9ZM225.049 123.215V125H218.224V123.215H220.684V117.71H218.719V116.345C219.279 116.245 219.754 116.125 220.144 115.985C220.544 115.845 220.919 115.675 221.269 115.475H222.889V123.215H225.049ZM226.858 123.74C227.538 123.17 228.158 122.64 228.718 122.15C229.278 121.65 229.758 121.185 230.158 120.755C230.558 120.325 230.868 119.92 231.088 119.54C231.308 119.16 231.418 118.8 231.418 118.46C231.418 117.99 231.283 117.635 231.013 117.395C230.743 117.145 230.358 117.02 229.858 117.02C229.478 117.02 229.128 117.12 228.808 117.32C228.498 117.51 228.208 117.735 227.938 117.995L226.753 116.81C227.003 116.56 227.248 116.34 227.488 116.15C227.738 115.96 227.998 115.805 228.268 115.685C228.548 115.555 228.838 115.46 229.138 115.4C229.448 115.33 229.788 115.295 230.158 115.295C230.658 115.295 231.113 115.37 231.523 115.52C231.933 115.66 232.283 115.865 232.573 116.135C232.873 116.395 233.103 116.71 233.263 117.08C233.433 117.45 233.518 117.865 233.518 118.325C233.518 118.725 233.423 119.135 233.233 119.555C233.043 119.965 232.783 120.38 232.453 120.8C232.133 121.21 231.763 121.625 231.343 122.045C230.923 122.455 230.483 122.86 230.023 123.26C230.293 123.23 230.583 123.205 230.893 123.185C231.213 123.155 231.498 123.14 231.748 123.14H234.013V125H226.858V123.74ZM238.672 120.83H236.032V119.27H238.672V116.51H240.292V119.27H242.932V120.83H240.292V123.59H238.672V120.83ZM247.277 116.9L247.202 114.725H249.752L249.677 116.9L249.152 120.455H247.802L247.277 116.9Z" fill="#C74E4E"/>
<path d="M262.3 116.9L262.225 114.725H264.775L264.7 116.9L264.175 120.455H262.825L262.3 116.9ZM276.049 123.215V125H269.224V123.215H271.684V117.71H269.719V116.345C270.279 116.245 270.754 116.125 271.144 115.985C271.544 115.845 271.919 115.675 272.269 115.475H273.889V123.215H276.049ZM279.883 125C279.923 124.21 279.998 123.485 280.108 122.825C280.228 122.155 280.393 121.52 280.603 120.92C280.823 120.31 281.103 119.72 281.443 119.15C281.783 118.57 282.203 117.965 282.703 117.335H277.918V115.475H285.073V116.825C284.473 117.495 283.988 118.125 283.618 118.715C283.248 119.295 282.958 119.9 282.748 120.53C282.538 121.15 282.388 121.82 282.298 122.54C282.208 123.25 282.143 124.07 282.103 125H279.883ZM289.672 120.83H287.032V119.27H289.672V116.51H291.292V119.27H293.932V120.83H291.292V123.59H289.672V120.83ZM298.277 116.9L298.202 114.725H300.752L300.677 116.9L300.152 120.455H298.802L298.277 116.9Z" fill="#C74E4E"/>
<path d="M185.055 69.215V71H178.23V69.215H180.69V63.71H178.725V62.345C179.285 62.245 179.76 62.125 180.15 61.985C180.55 61.845 180.925 61.675 181.275 61.475H182.895V69.215H185.055Z" fill="#C74E4E"/>
<path d="M226.87 69.74C227.55 69.17 228.17 68.64 228.73 68.15C229.29 67.65 229.77 67.185 230.17 66.755C230.57 66.325 230.88 65.92 231.1 65.54C231.32 65.16 231.43 64.8 231.43 64.46C231.43 63.99 231.295 63.635 231.025 63.395C230.755 63.145 230.37 63.02 229.87 63.02C229.49 63.02 229.14 63.12 228.82 63.32C228.51 63.51 228.22 63.735 227.95 63.995L226.765 62.81C227.015 62.56 227.26 62.34 227.5 62.15C227.75 61.96 228.01 61.805 228.28 61.685C228.56 61.555 228.85 61.46 229.15 61.4C229.46 61.33 229.8 61.295 230.17 61.295C230.67 61.295 231.125 61.37 231.535 61.52C231.945 61.66 232.295 61.865 232.585 62.135C232.885 62.395 233.115 62.71 233.275 63.08C233.445 63.45 233.53 63.865 233.53 64.325C233.53 64.725 233.435 65.135 233.245 65.555C233.055 65.965 232.795 66.38 232.465 66.8C232.145 67.21 231.775 67.625 231.355 68.045C230.935 68.455 230.495 68.86 230.035 69.26C230.305 69.23 230.595 69.205 230.905 69.185C231.225 69.155 231.51 69.14 231.76 69.14H234.025V71H226.87V69.74Z" fill="#C74E4E"/>
<path d="M278.65 68.435C278.97 68.715 279.325 68.945 279.715 69.125C280.115 69.305 280.535 69.395 280.975 69.395C281.495 69.395 281.92 69.3 282.25 69.11C282.59 68.91 282.76 68.63 282.76 68.27C282.76 68.06 282.715 67.87 282.625 67.7C282.535 67.53 282.38 67.39 282.16 67.28C281.94 67.16 281.645 67.07 281.275 67.01C280.905 66.94 280.44 66.905 279.88 66.905V65.345C280.82 65.345 281.48 65.23 281.86 65C282.25 64.76 282.445 64.45 282.445 64.07C282.445 63.74 282.32 63.485 282.07 63.305C281.82 63.115 281.475 63.02 281.035 63.02C280.655 63.02 280.305 63.095 279.985 63.245C279.665 63.395 279.34 63.6 279.01 63.86L277.9 62.51C278.37 62.13 278.87 61.835 279.4 61.625C279.94 61.405 280.52 61.295 281.14 61.295C281.66 61.295 282.135 61.355 282.565 61.475C282.995 61.585 283.365 61.755 283.675 61.985C283.985 62.205 284.225 62.475 284.395 62.795C284.565 63.115 284.65 63.485 284.65 63.905C284.65 64.405 284.49 64.83 284.17 65.18C283.85 65.52 283.405 65.8 282.835 66.02V66.08C283.435 66.24 283.94 66.515 284.35 66.905C284.76 67.285 284.965 67.785 284.965 68.405C284.965 68.845 284.86 69.24 284.65 69.59C284.45 69.93 284.175 70.22 283.825 70.46C283.485 70.69 283.085 70.87 282.625 71C282.165 71.12 281.685 71.18 281.185 71.18C280.365 71.18 279.66 71.06 279.07 70.82C278.48 70.57 278 70.24 277.63 69.83L278.65 68.435Z" fill="#C74E4E"/>
<path d="M16.08 43.56H17.88L18.045 44.55H18.105C18.425 44.23 18.79 43.955 19.2 43.725C19.62 43.495 20.11 43.38 20.67 43.38C21.51 43.38 22.125 43.65 22.515 44.19C22.905 44.73 23.1 45.47 23.1 46.41V51H20.895V46.695C20.895 46.195 20.815 45.83 20.655 45.6C20.495 45.37 20.21 45.255 19.8 45.255C19.5 45.255 19.235 45.32 19.005 45.45C18.785 45.58 18.545 45.775 18.285 46.035V51H16.08V43.56ZM31.8691 51H30.0691L29.9041 49.935H29.8441C29.5141 50.315 29.1491 50.62 28.7491 50.85C28.3491 51.07 27.8791 51.18 27.3391 51.18C26.4891 51.18 25.8741 50.91 25.4941 50.37C25.1141 49.83 24.9241 49.09 24.9241 48.15V43.56H27.1291V47.865C27.1291 48.365 27.2041 48.73 27.3541 48.96C27.5041 49.19 27.7891 49.305 28.2091 49.305C28.4891 49.305 28.7341 49.245 28.9441 49.125C29.1641 49.005 29.4041 48.78 29.6641 48.45V43.56H31.8691V51ZM33.5283 43.56H35.1783L35.3433 44.49H35.4033C35.5433 44.18 35.7333 43.92 35.9733 43.71C36.2233 43.49 36.5633 43.38 36.9933 43.38C37.3233 43.38 37.5983 43.485 37.8183 43.695C38.0483 43.895 38.2083 44.195 38.2983 44.595C38.4383 44.255 38.6383 43.97 38.8983 43.74C39.1683 43.5 39.5133 43.38 39.9333 43.38C40.4533 43.38 40.8583 43.595 41.1483 44.025C41.4383 44.445 41.5833 45.03 41.5833 45.78V51H39.5133V45.945C39.5133 45.485 39.3733 45.255 39.0933 45.255C38.8233 45.255 38.5933 45.495 38.4033 45.975V51H36.7083V45.945C36.7083 45.485 36.5633 45.255 36.2733 45.255C36.1333 45.255 36.0133 45.315 35.9133 45.435C35.8133 45.555 35.7083 45.735 35.5983 45.975V51H33.5283V43.56ZM43.0624 40.485H45.2674V43.065L45.2074 44.235C45.4974 43.965 45.8224 43.755 46.1824 43.605C46.5524 43.455 46.9174 43.38 47.2774 43.38C47.7374 43.38 48.1524 43.47 48.5224 43.65C48.9024 43.83 49.2174 44.085 49.4674 44.415C49.7274 44.735 49.9274 45.13 50.0674 45.6C50.2074 46.06 50.2774 46.575 50.2774 47.145C50.2774 47.785 50.1874 48.355 50.0074 48.855C49.8274 49.355 49.5874 49.78 49.2874 50.13C48.9874 50.47 48.6424 50.73 48.2524 50.91C47.8724 51.09 47.4724 51.18 47.0524 51.18C46.7024 51.18 46.3524 51.095 46.0024 50.925C45.6624 50.755 45.3374 50.51 45.0274 50.19H44.9674L44.7874 51H43.0624V40.485ZM45.2674 48.885C45.4774 49.065 45.6924 49.195 45.9124 49.275C46.1424 49.345 46.3574 49.38 46.5574 49.38C46.9674 49.38 47.3124 49.21 47.5924 48.87C47.8724 48.52 48.0124 47.96 48.0124 47.19C48.0124 45.85 47.5574 45.18 46.6474 45.18C46.1774 45.18 45.7174 45.41 45.2674 45.87V48.885ZM51.8016 47.28C51.8016 46.67 51.9066 46.125 52.1166 45.645C52.3366 45.165 52.6266 44.76 52.9866 44.43C53.3466 44.09 53.7566 43.83 54.2166 43.65C54.6866 43.47 55.1716 43.38 55.6716 43.38C56.2416 43.38 56.7466 43.47 57.1866 43.65C57.6266 43.83 57.9916 44.08 58.2816 44.4C58.5716 44.72 58.7916 45.1 58.9416 45.54C59.0916 45.97 59.1666 46.44 59.1666 46.95C59.1666 47.15 59.1566 47.34 59.1366 47.52C59.1166 47.7 59.0966 47.835 59.0766 47.925H54.0666C54.1466 48.485 54.3866 48.89 54.7866 49.14C55.1966 49.38 55.6766 49.5 56.2266 49.5C56.5666 49.5 56.8866 49.46 57.1866 49.38C57.4966 49.29 57.8166 49.16 58.1466 48.99L58.8666 50.31C58.4466 50.58 57.9766 50.795 57.4566 50.955C56.9366 51.105 56.4266 51.18 55.9266 51.18C55.3466 51.18 54.8066 51.095 54.3066 50.925C53.8066 50.745 53.3716 50.49 53.0016 50.16C52.6316 49.82 52.3366 49.41 52.1166 48.93C51.9066 48.45 51.8016 47.9 51.8016 47.28ZM57.1716 46.47C57.1716 46.05 57.0566 45.71 56.8266 45.45C56.5966 45.19 56.2266 45.06 55.7166 45.06C55.3166 45.06 54.9616 45.175 54.6516 45.405C54.3416 45.635 54.1366 45.99 54.0366 46.47H57.1716ZM61.7107 43.56H63.5107L63.6907 45.18H63.7357C64.1057 44.57 64.5507 44.12 65.0707 43.83C65.5907 43.53 66.1507 43.38 66.7507 43.38C67.0807 43.38 67.3457 43.405 67.5457 43.455C67.7557 43.505 67.9707 43.58 68.1907 43.68L67.7407 45.525C67.5107 45.455 67.3007 45.405 67.1107 45.375C66.9307 45.335 66.7007 45.315 66.4207 45.315C65.9607 45.315 65.5057 45.45 65.0557 45.72C64.6157 45.99 64.2357 46.46 63.9157 47.13V51H61.7107V43.56ZM70.7498 48.66C71.1798 48.93 71.6098 49.145 72.0398 49.305C72.4798 49.465 72.9498 49.545 73.4498 49.545C73.9598 49.545 74.3248 49.49 74.5448 49.38C74.7648 49.27 74.8748 49.115 74.8748 48.915C74.8748 48.685 74.6898 48.5 74.3198 48.36C73.9598 48.21 73.4798 48.05 72.8798 47.88C72.5498 47.79 72.2248 47.685 71.9048 47.565C71.5948 47.435 71.3148 47.285 71.0648 47.115C70.8148 46.935 70.6098 46.73 70.4498 46.5C70.2998 46.27 70.2248 46.005 70.2248 45.705C70.2248 45.365 70.3048 45.05 70.4648 44.76C70.6248 44.47 70.8498 44.225 71.1398 44.025C71.4398 43.825 71.7998 43.67 72.2198 43.56C72.6498 43.44 73.1298 43.38 73.6598 43.38C74.3198 43.38 74.9198 43.49 75.4598 43.71C76.0098 43.92 76.4798 44.15 76.8698 44.4L75.8798 45.72C75.5398 45.52 75.1898 45.355 74.8298 45.225C74.4698 45.085 74.0948 45.015 73.7048 45.015C73.2348 45.015 72.8998 45.065 72.6998 45.165C72.5098 45.265 72.4148 45.41 72.4148 45.6C72.4148 45.71 72.4648 45.81 72.5648 45.9C72.6648 45.99 72.7998 46.07 72.9698 46.14C73.1398 46.21 73.3398 46.28 73.5698 46.35C73.8098 46.41 74.0598 46.475 74.3198 46.545C74.6898 46.645 75.0398 46.76 75.3698 46.89C75.6998 47.01 75.9898 47.155 76.2398 47.325C76.4898 47.495 76.6898 47.7 76.8398 47.94C76.9898 48.18 77.0648 48.46 77.0648 48.78C77.0648 49.12 76.9848 49.435 76.8248 49.725C76.6648 50.015 76.4298 50.27 76.1198 50.49C75.8198 50.7 75.4398 50.87 74.9798 51C74.5298 51.12 74.0048 51.18 73.4048 51.18C72.7348 51.18 72.0798 51.07 71.4398 50.85C70.7998 50.63 70.2398 50.36 69.7598 50.04L70.7498 48.66ZM88.0031 43.53H94.9031V45.09H88.0031V43.53ZM88.0031 46.995H94.9031V48.555H88.0031V46.995ZM107.956 40.38H112.381V41.55H109.636V52.11H112.381V53.28H107.956V40.38ZM152.642 52.965C153.942 52.515 154.592 51.805 154.592 50.835C154.552 50.845 154.497 50.85 154.427 50.85C154.217 50.85 154.012 50.82 153.812 50.76C153.622 50.69 153.452 50.59 153.302 50.46C153.152 50.33 153.032 50.17 152.942 49.98C152.852 49.79 152.807 49.57 152.807 49.32C152.807 48.85 152.967 48.475 153.287 48.195C153.617 47.915 154.017 47.775 154.487 47.775C155.107 47.775 155.572 48.005 155.882 48.465C156.192 48.915 156.347 49.545 156.347 50.355C156.347 51.315 156.082 52.125 155.552 52.785C155.022 53.445 154.237 53.935 153.197 54.255L152.642 52.965ZM197.613 52.965C198.913 52.515 199.563 51.805 199.563 50.835C199.523 50.845 199.468 50.85 199.398 50.85C199.188 50.85 198.983 50.82 198.783 50.76C198.593 50.69 198.423 50.59 198.273 50.46C198.123 50.33 198.003 50.17 197.913 49.98C197.823 49.79 197.778 49.57 197.778 49.32C197.778 48.85 197.938 48.475 198.258 48.195C198.588 47.915 198.988 47.775 199.458 47.775C200.078 47.775 200.543 48.005 200.853 48.465C201.163 48.915 201.318 49.545 201.318 50.355C201.318 51.315 201.053 52.125 200.523 52.785C199.993 53.445 199.208 53.935 198.168 54.255L197.613 52.965ZM251.578 52.965C252.878 52.515 253.528 51.805 253.528 50.835C253.488 50.845 253.433 50.85 253.363 50.85C253.153 50.85 252.948 50.82 252.748 50.76C252.558 50.69 252.388 50.59 252.238 50.46C252.088 50.33 251.968 50.17 251.878 49.98C251.788 49.79 251.743 49.57 251.743 49.32C251.743 48.85 251.903 48.475 252.223 48.195C252.553 47.915 252.953 47.775 253.423 47.775C254.043 47.775 254.508 48.005 254.818 48.465C255.128 48.915 255.283 49.545 255.283 50.355C255.283 51.315 255.018 52.125 254.488 52.785C253.958 53.445 253.173 53.935 252.133 54.255L251.578 52.965ZM298.123 52.11V41.55H295.393V40.38H299.818V53.28H295.393V52.11H298.123Z" fill="#232A3D"/>
<path d="M119.051 47.04V45.435C119.051 45.135 119.056 44.79 119.066 44.4C119.086 44 119.106 43.65 119.126 43.35H119.066C118.906 43.62 118.736 43.89 118.556 44.16C118.376 44.43 118.201 44.7 118.031 44.97L116.591 47.04H119.051ZM122.306 48.72H121.106V51H119.051V48.72H114.461V47.205L118.436 41.475H121.106V47.04H122.306V48.72ZM128.045 47.04V45.435C128.045 45.135 128.05 44.79 128.06 44.4C128.08 44 128.1 43.65 128.12 43.35H128.06C127.9 43.62 127.73 43.89 127.55 44.16C127.37 44.43 127.195 44.7 127.025 44.97L125.585 47.04H128.045ZM131.3 48.72H130.1V51H128.045V48.72H123.455V47.205L127.43 41.475H130.1V47.04H131.3V48.72ZM133.574 48.435C133.894 48.715 134.249 48.945 134.639 49.125C135.039 49.305 135.459 49.395 135.899 49.395C136.419 49.395 136.844 49.3 137.174 49.11C137.514 48.91 137.684 48.63 137.684 48.27C137.684 48.06 137.639 47.87 137.549 47.7C137.459 47.53 137.304 47.39 137.084 47.28C136.864 47.16 136.569 47.07 136.199 47.01C135.829 46.94 135.364 46.905 134.804 46.905V45.345C135.744 45.345 136.404 45.23 136.784 45C137.174 44.76 137.369 44.45 137.369 44.07C137.369 43.74 137.244 43.485 136.994 43.305C136.744 43.115 136.399 43.02 135.959 43.02C135.579 43.02 135.229 43.095 134.909 43.245C134.589 43.395 134.264 43.6 133.934 43.86L132.824 42.51C133.294 42.13 133.794 41.835 134.324 41.625C134.864 41.405 135.444 41.295 136.064 41.295C136.584 41.295 137.059 41.355 137.489 41.475C137.919 41.585 138.289 41.755 138.599 41.985C138.909 42.205 139.149 42.475 139.319 42.795C139.489 43.115 139.574 43.485 139.574 43.905C139.574 44.405 139.414 44.83 139.094 45.18C138.774 45.52 138.329 45.8 137.759 46.02V46.08C138.359 46.24 138.864 46.515 139.274 46.905C139.684 47.285 139.889 47.785 139.889 48.405C139.889 48.845 139.784 49.24 139.574 49.59C139.374 49.93 139.099 50.22 138.749 50.46C138.409 50.69 138.009 50.87 137.549 51C137.089 51.12 136.609 51.18 136.109 51.18C135.289 51.18 134.584 51.06 133.994 50.82C133.404 50.57 132.924 50.24 132.554 49.83L133.574 48.435ZM142.568 48.435C142.888 48.715 143.243 48.945 143.633 49.125C144.033 49.305 144.453 49.395 144.893 49.395C145.413 49.395 145.838 49.3 146.168 49.11C146.508 48.91 146.678 48.63 146.678 48.27C146.678 48.06 146.633 47.87 146.543 47.7C146.453 47.53 146.298 47.39 146.078 47.28C145.858 47.16 145.563 47.07 145.193 47.01C144.823 46.94 144.358 46.905 143.798 46.905V45.345C144.738 45.345 145.398 45.23 145.778 45C146.168 44.76 146.363 44.45 146.363 44.07C146.363 43.74 146.238 43.485 145.988 43.305C145.738 43.115 145.393 43.02 144.953 43.02C144.573 43.02 144.223 43.095 143.903 43.245C143.583 43.395 143.258 43.6 142.928 43.86L141.818 42.51C142.288 42.13 142.788 41.835 143.318 41.625C143.858 41.405 144.438 41.295 145.058 41.295C145.578 41.295 146.053 41.355 146.483 41.475C146.913 41.585 147.283 41.755 147.593 41.985C147.903 42.205 148.143 42.475 148.313 42.795C148.483 43.115 148.568 43.485 148.568 43.905C148.568 44.405 148.408 44.83 148.088 45.18C147.768 45.52 147.323 45.8 146.753 46.02V46.08C147.353 46.24 147.858 46.515 148.268 46.905C148.678 47.285 148.883 47.785 148.883 48.405C148.883 48.845 148.778 49.24 148.568 49.59C148.368 49.93 148.093 50.22 147.743 50.46C147.403 50.69 147.003 50.87 146.543 51C146.083 51.12 145.603 51.18 145.103 51.18C144.283 51.18 143.578 51.06 142.988 50.82C142.398 50.57 141.918 50.24 141.548 49.83L142.568 48.435ZM172.13 45.87C172.41 45.87 172.7 45.8 173 45.66C173.3 45.52 173.595 45.275 173.885 44.925C173.825 44.555 173.735 44.245 173.615 43.995C173.505 43.735 173.37 43.53 173.21 43.38C173.06 43.22 172.895 43.11 172.715 43.05C172.535 42.98 172.35 42.945 172.16 42.945C171.97 42.945 171.785 42.975 171.605 43.035C171.435 43.095 171.28 43.19 171.14 43.32C171.01 43.44 170.905 43.6 170.825 43.8C170.745 43.99 170.705 44.22 170.705 44.49C170.705 44.98 170.835 45.335 171.095 45.555C171.355 45.765 171.7 45.87 172.13 45.87ZM170 48.72C170.2 48.9 170.45 49.06 170.75 49.2C171.05 49.33 171.36 49.395 171.68 49.395C171.97 49.395 172.245 49.345 172.505 49.245C172.775 49.135 173.01 48.965 173.21 48.735C173.42 48.495 173.59 48.185 173.72 47.805C173.85 47.415 173.925 46.94 173.945 46.38C173.595 46.71 173.21 46.97 172.79 47.16C172.38 47.34 172 47.43 171.65 47.43C171.23 47.43 170.84 47.37 170.48 47.25C170.12 47.13 169.805 46.95 169.535 46.71C169.275 46.47 169.07 46.165 168.92 45.795C168.77 45.425 168.695 44.99 168.695 44.49C168.695 44 168.785 43.56 168.965 43.17C169.155 42.77 169.405 42.43 169.715 42.15C170.035 41.87 170.4 41.66 170.81 41.52C171.22 41.37 171.655 41.295 172.115 41.295C172.605 41.295 173.08 41.385 173.54 41.565C174.01 41.745 174.425 42.025 174.785 42.405C175.145 42.785 175.43 43.275 175.64 43.875C175.86 44.465 175.97 45.18 175.97 46.02C175.97 46.91 175.855 47.68 175.625 48.33C175.395 48.98 175.09 49.515 174.71 49.935C174.33 50.355 173.89 50.67 173.39 50.88C172.9 51.08 172.395 51.18 171.875 51.18C171.195 51.18 170.6 51.065 170.09 50.835C169.58 50.605 169.16 50.34 168.83 50.04L170 48.72ZM179.715 48.315C179.715 48.735 179.88 49.065 180.21 49.305C180.54 49.535 180.95 49.65 181.44 49.65C181.89 49.65 182.25 49.555 182.52 49.365C182.8 49.165 182.94 48.865 182.94 48.465C182.94 48.245 182.885 48.06 182.775 47.91C182.665 47.76 182.505 47.625 182.295 47.505C182.095 47.375 181.855 47.26 181.575 47.16C181.295 47.05 180.985 46.93 180.645 46.8C180.375 47 180.15 47.225 179.97 47.475C179.8 47.725 179.715 48.005 179.715 48.315ZM182.04 45.45C182.52 45.02 182.76 44.555 182.76 44.055C182.76 43.685 182.645 43.39 182.415 43.17C182.185 42.94 181.85 42.825 181.41 42.825C181.06 42.825 180.76 42.915 180.51 43.095C180.27 43.275 180.15 43.55 180.15 43.92C180.15 44.31 180.325 44.615 180.675 44.835C181.025 45.055 181.48 45.26 182.04 45.45ZM177.81 48.57C177.81 48.28 177.855 48.02 177.945 47.79C178.045 47.55 178.175 47.335 178.335 47.145C178.505 46.955 178.695 46.785 178.905 46.635C179.125 46.485 179.36 46.35 179.61 46.23V46.17C179.21 45.89 178.875 45.575 178.605 45.225C178.345 44.865 178.215 44.43 178.215 43.92C178.215 43.52 178.295 43.16 178.455 42.84C178.615 42.51 178.835 42.23 179.115 42C179.405 41.77 179.75 41.595 180.15 41.475C180.55 41.355 180.985 41.295 181.455 41.295C181.935 41.295 182.365 41.36 182.745 41.49C183.135 41.61 183.465 41.785 183.735 42.015C184.005 42.235 184.21 42.51 184.35 42.84C184.5 43.16 184.575 43.515 184.575 43.905C184.575 44.355 184.44 44.755 184.17 45.105C183.91 45.455 183.59 45.75 183.21 45.99V46.05C183.46 46.17 183.695 46.31 183.915 46.47C184.135 46.62 184.325 46.795 184.485 46.995C184.645 47.195 184.77 47.425 184.86 47.685C184.95 47.935 184.995 48.22 184.995 48.54C184.995 48.92 184.915 49.27 184.755 49.59C184.595 49.91 184.36 50.19 184.05 50.43C183.75 50.66 183.375 50.845 182.925 50.985C182.475 51.115 181.96 51.18 181.38 51.18C180.83 51.18 180.335 51.12 179.895 51C179.455 50.87 179.08 50.69 178.77 50.46C178.46 50.23 178.22 49.955 178.05 49.635C177.89 49.315 177.81 48.96 177.81 48.57ZM188.784 51C188.824 50.21 188.899 49.485 189.009 48.825C189.129 48.155 189.294 47.52 189.504 46.92C189.724 46.31 190.004 45.72 190.344 45.15C190.684 44.57 191.104 43.965 191.604 43.335H186.819V41.475H193.974V42.825C193.374 43.495 192.889 44.125 192.519 44.715C192.149 45.295 191.859 45.9 191.649 46.53C191.439 47.15 191.289 47.82 191.199 48.54C191.109 49.25 191.044 50.07 191.004 51H188.784ZM220.926 49.215V51H214.101V49.215H216.561V43.71H214.596V42.345C215.156 42.245 215.631 42.125 216.021 41.985C216.421 41.845 216.796 41.675 217.146 41.475H218.766V49.215H220.926ZM229.92 49.215V51H223.095V49.215H225.555V43.71H223.59V42.345C224.15 42.245 224.625 42.125 225.015 41.985C225.415 41.845 225.79 41.675 226.14 41.475H227.76V49.215H229.92ZM232.539 48.45C232.859 48.71 233.199 48.935 233.559 49.125C233.929 49.305 234.339 49.395 234.789 49.395C235.329 49.395 235.769 49.27 236.109 49.02C236.459 48.77 236.634 48.4 236.634 47.91C236.634 47.43 236.469 47.065 236.139 46.815C235.819 46.565 235.404 46.44 234.894 46.44C234.734 46.44 234.589 46.45 234.459 46.47C234.339 46.48 234.219 46.505 234.099 46.545C233.979 46.585 233.854 46.635 233.724 46.695C233.594 46.755 233.449 46.83 233.289 46.92L232.314 46.29L232.569 41.475H238.404V43.335H234.474L234.309 45.12C234.529 45.04 234.734 44.985 234.924 44.955C235.114 44.915 235.329 44.895 235.569 44.895C236.009 44.895 236.424 44.955 236.814 45.075C237.214 45.195 237.564 45.375 237.864 45.615C238.164 45.855 238.399 46.16 238.569 46.53C238.749 46.9 238.839 47.34 238.839 47.85C238.839 48.38 238.734 48.85 238.524 49.26C238.324 49.67 238.049 50.02 237.699 50.31C237.359 50.59 236.964 50.805 236.514 50.955C236.064 51.105 235.594 51.18 235.104 51.18C234.274 51.18 233.569 51.055 232.989 50.805C232.419 50.545 231.939 50.225 231.549 49.845L232.539 48.45ZM241.534 48.45C241.854 48.71 242.194 48.935 242.554 49.125C242.924 49.305 243.334 49.395 243.784 49.395C244.324 49.395 244.764 49.27 245.104 49.02C245.454 48.77 245.629 48.4 245.629 47.91C245.629 47.43 245.464 47.065 245.134 46.815C244.814 46.565 244.399 46.44 243.889 46.44C243.729 46.44 243.584 46.45 243.454 46.47C243.334 46.48 243.214 46.505 243.094 46.545C242.974 46.585 242.849 46.635 242.719 46.695C242.589 46.755 242.444 46.83 242.284 46.92L241.309 46.29L241.564 41.475H247.399V43.335H243.469L243.304 45.12C243.524 45.04 243.729 44.985 243.919 44.955C244.109 44.915 244.324 44.895 244.564 44.895C245.004 44.895 245.419 44.955 245.809 45.075C246.209 45.195 246.559 45.375 246.859 45.615C247.159 45.855 247.394 46.16 247.564 46.53C247.744 46.9 247.834 47.34 247.834 47.85C247.834 48.38 247.729 48.85 247.519 49.26C247.319 49.67 247.044 50.02 246.694 50.31C246.354 50.59 245.959 50.805 245.509 50.955C245.059 51.105 244.589 51.18 244.099 51.18C243.269 51.18 242.564 51.055 241.984 50.805C241.414 50.545 240.934 50.225 240.544 49.845L241.534 48.45ZM271.546 49.53C271.736 49.53 271.916 49.5 272.086 49.44C272.266 49.38 272.421 49.29 272.551 49.17C272.691 49.04 272.801 48.88 272.881 48.69C272.961 48.49 273.001 48.255 273.001 47.985C273.001 47.495 272.871 47.145 272.611 46.935C272.351 46.715 272.011 46.605 271.591 46.605C271.311 46.605 271.021 46.675 270.721 46.815C270.421 46.955 270.126 47.195 269.836 47.535C269.896 47.915 269.981 48.235 270.091 48.495C270.211 48.745 270.346 48.95 270.496 49.11C270.646 49.26 270.811 49.37 270.991 49.44C271.171 49.5 271.356 49.53 271.546 49.53ZM273.721 43.755C273.521 43.575 273.271 43.42 272.971 43.29C272.671 43.15 272.361 43.08 272.041 43.08C271.751 43.08 271.471 43.135 271.201 43.245C270.941 43.345 270.706 43.515 270.496 43.755C270.296 43.985 270.131 44.29 270.001 44.67C269.871 45.05 269.796 45.52 269.776 46.08C270.116 45.75 270.491 45.495 270.901 45.315C271.321 45.135 271.711 45.045 272.071 45.045C272.491 45.045 272.876 45.105 273.226 45.225C273.586 45.345 273.896 45.525 274.156 45.765C274.426 46.005 274.636 46.31 274.786 46.68C274.936 47.05 275.011 47.485 275.011 47.985C275.011 48.485 274.916 48.93 274.726 49.32C274.546 49.71 274.296 50.045 273.976 50.325C273.666 50.605 273.306 50.82 272.896 50.97C272.486 51.11 272.051 51.18 271.591 51.18C271.101 51.18 270.626 51.09 270.166 50.91C269.706 50.73 269.296 50.45 268.936 50.07C268.576 49.69 268.286 49.205 268.066 48.615C267.846 48.015 267.736 47.295 267.736 46.455C267.736 45.565 267.851 44.795 268.081 44.145C268.311 43.495 268.616 42.96 268.996 42.54C269.386 42.12 269.826 41.81 270.316 41.61C270.806 41.4 271.316 41.295 271.846 41.295C272.526 41.295 273.121 41.41 273.631 41.64C274.141 41.86 274.556 42.125 274.876 42.435L273.721 43.755ZM276.7 49.74C277.38 49.17 278 48.64 278.56 48.15C279.12 47.65 279.6 47.185 280 46.755C280.4 46.325 280.71 45.92 280.93 45.54C281.15 45.16 281.26 44.8 281.26 44.46C281.26 43.99 281.125 43.635 280.855 43.395C280.585 43.145 280.2 43.02 279.7 43.02C279.32 43.02 278.97 43.12 278.65 43.32C278.34 43.51 278.05 43.735 277.78 43.995L276.595 42.81C276.845 42.56 277.09 42.34 277.33 42.15C277.58 41.96 277.84 41.805 278.11 41.685C278.39 41.555 278.68 41.46 278.98 41.4C279.29 41.33 279.63 41.295 280 41.295C280.5 41.295 280.955 41.37 281.365 41.52C281.775 41.66 282.125 41.865 282.415 42.135C282.715 42.395 282.945 42.71 283.105 43.08C283.275 43.45 283.36 43.865 283.36 44.325C283.36 44.725 283.265 45.135 283.075 45.555C282.885 45.965 282.625 46.38 282.295 46.8C281.975 47.21 281.605 47.625 281.185 48.045C280.765 48.455 280.325 48.86 279.865 49.26C280.135 49.23 280.425 49.205 280.735 49.185C281.055 49.155 281.34 49.14 281.59 49.14H283.855V51H276.7V49.74ZM285.694 49.74C286.374 49.17 286.994 48.64 287.554 48.15C288.114 47.65 288.594 47.185 288.994 46.755C289.394 46.325 289.704 45.92 289.924 45.54C290.144 45.16 290.254 44.8 290.254 44.46C290.254 43.99 290.119 43.635 289.849 43.395C289.579 43.145 289.194 43.02 288.694 43.02C288.314 43.02 287.964 43.12 287.644 43.32C287.334 43.51 287.044 43.735 286.774 43.995L285.589 42.81C285.839 42.56 286.084 42.34 286.324 42.15C286.574 41.96 286.834 41.805 287.104 41.685C287.384 41.555 287.674 41.46 287.974 41.4C288.284 41.33 288.624 41.295 288.994 41.295C289.494 41.295 289.949 41.37 290.359 41.52C290.769 41.66 291.119 41.865 291.409 42.135C291.709 42.395 291.939 42.71 292.099 43.08C292.269 43.45 292.354 43.865 292.354 44.325C292.354 44.725 292.259 45.135 292.069 45.555C291.879 45.965 291.619 46.38 291.289 46.8C290.969 47.21 290.599 47.625 290.179 48.045C289.759 48.455 289.319 48.86 288.859 49.26C289.129 49.23 289.419 49.205 289.729 49.185C290.049 49.155 290.334 49.14 290.584 49.14H292.849V51H285.694V49.74Z" fill="#A99800"/>
<path d="M19.02 15.18C18.35 15.18 17.72 15.06 17.13 14.82C16.55 14.58 16.07 14.25 15.69 13.83L16.605 12.81C16.975 13.21 17.39 13.505 17.85 13.695C18.32 13.875 18.8 13.965 19.29 13.965C19.72 13.965 20.065 13.895 20.325 13.755C20.595 13.605 20.73 13.38 20.73 13.08C20.73 12.79 20.595 12.57 20.325 12.42C20.055 12.26 19.63 12.085 19.05 11.895C18.29 11.645 17.72 11.35 17.34 11.01C16.97 10.67 16.785 10.23 16.785 9.69C16.785 9.32 16.865 8.995 17.025 8.715C17.185 8.435 17.4 8.205 17.67 8.025C17.94 7.835 18.25 7.695 18.6 7.605C18.96 7.505 19.335 7.455 19.725 7.455C20.445 7.455 21.06 7.575 21.57 7.815C22.08 8.055 22.5 8.335 22.83 8.655L21.93 9.615C21.63 9.355 21.28 9.135 20.88 8.955C20.48 8.765 20.04 8.67 19.56 8.67C19.17 8.67 18.86 8.745 18.63 8.895C18.41 9.035 18.3 9.235 18.3 9.495C18.3 9.765 18.435 9.98 18.705 10.14C18.975 10.3 19.4 10.48 19.98 10.68C20.32 10.79 20.63 10.91 20.91 11.04C21.19 11.17 21.43 11.32 21.63 11.49C21.83 11.66 21.985 11.86 22.095 12.09C22.205 12.31 22.26 12.57 22.26 12.87C22.26 13.28 22.175 13.63 22.005 13.92C21.835 14.21 21.605 14.45 21.315 14.64C21.025 14.82 20.68 14.955 20.28 15.045C19.89 15.135 19.47 15.18 19.02 15.18ZM28.4041 15.18C27.9241 15.18 27.4741 15.115 27.0541 14.985C26.6341 14.845 26.2691 14.64 25.9591 14.37C25.6491 14.1 25.4041 13.765 25.2241 13.365C25.0441 12.955 24.9541 12.48 24.9541 11.94C24.9541 11.27 25.0741 10.66 25.3141 10.11C25.5641 9.56 25.8941 9.09 26.3041 8.7C26.7141 8.3 27.1891 7.995 27.7291 7.785C28.2691 7.565 28.8341 7.455 29.4241 7.455C30.0741 7.455 30.6341 7.59 31.1041 7.86C31.5841 8.13 31.9541 8.44 32.2141 8.79L31.2241 9.69C30.7141 9.08 30.0641 8.775 29.2741 8.775C28.9441 8.775 28.6141 8.855 28.2841 9.015C27.9641 9.165 27.6741 9.375 27.4141 9.645C27.1641 9.915 26.9591 10.235 26.7991 10.605C26.6491 10.975 26.5741 11.37 26.5741 11.79C26.5741 12.14 26.6241 12.445 26.7241 12.705C26.8341 12.965 26.9791 13.18 27.1591 13.35C27.3491 13.52 27.5691 13.65 27.8191 13.74C28.0791 13.82 28.3541 13.86 28.6441 13.86C29.0441 13.86 29.4141 13.775 29.7541 13.605C30.0941 13.425 30.4191 13.2 30.7291 12.93L31.3291 14.025C30.9491 14.375 30.5091 14.655 30.0091 14.865C29.5091 15.075 28.9741 15.18 28.4041 15.18ZM34.2633 15L35.7183 7.62L37.0383 7.635L36.7683 9.66H36.8283C37.0283 9.34 37.2483 9.045 37.4883 8.775C37.7383 8.505 37.9983 8.275 38.2683 8.085C38.5383 7.885 38.8183 7.73 39.1083 7.62C39.3983 7.51 39.6933 7.455 39.9933 7.455C40.3133 7.455 40.5983 7.485 40.8483 7.545C41.0983 7.605 41.3033 7.69 41.4633 7.8L40.8633 9.18C40.5233 8.99 40.1333 8.895 39.6933 8.895C39.1533 8.895 38.6183 9.13 38.0883 9.6C37.5583 10.06 37.0583 10.68 36.5883 11.46L35.8683 15H34.2633ZM47.1424 15.18C46.4924 15.18 45.9674 15.01 45.5674 14.67C45.1774 14.32 44.9824 13.83 44.9824 13.2C44.9824 13.06 44.9924 12.925 45.0124 12.795C45.0324 12.655 45.0624 12.505 45.1024 12.345L45.9124 8.91H43.3624L43.6324 7.635H47.7874L46.6924 12.45C46.6524 12.58 46.6324 12.725 46.6324 12.885C46.6324 13.235 46.7224 13.485 46.9024 13.635C47.0924 13.785 47.3324 13.86 47.6224 13.86C47.8324 13.86 48.0374 13.83 48.2374 13.77C48.4374 13.71 48.6624 13.625 48.9124 13.515L49.2574 14.73C48.9374 14.87 48.6124 14.98 48.2824 15.06C47.9624 15.14 47.5824 15.18 47.1424 15.18ZM47.1424 6.27C46.8524 6.27 46.5974 6.19 46.3774 6.03C46.1674 5.86 46.0624 5.61 46.0624 5.28C46.0624 5.12 46.0924 4.965 46.1524 4.815C46.2224 4.665 46.3124 4.535 46.4224 4.425C46.5424 4.305 46.6774 4.215 46.8274 4.155C46.9874 4.085 47.1574 4.05 47.3374 4.05C47.6574 4.05 47.9174 4.135 48.1174 4.305C48.3274 4.475 48.4324 4.72 48.4324 5.04C48.4324 5.21 48.3974 5.37 48.3274 5.52C48.2574 5.67 48.1624 5.8 48.0424 5.91C47.9324 6.02 47.7974 6.11 47.6374 6.18C47.4874 6.24 47.3224 6.27 47.1424 6.27ZM50.7666 17.91L52.8366 7.635H54.1566L54.0816 8.73H54.1266C54.5066 8.36 54.9066 8.055 55.3266 7.815C55.7566 7.575 56.2166 7.455 56.7066 7.455C57.4566 7.455 58.0516 7.705 58.4916 8.205C58.9416 8.695 59.1666 9.41 59.1666 10.35C59.1666 11.02 59.0666 11.65 58.8666 12.24C58.6766 12.83 58.4066 13.345 58.0566 13.785C57.7066 14.215 57.2866 14.555 56.7966 14.805C56.3066 15.055 55.7616 15.18 55.1616 15.18C54.7316 15.18 54.3316 15.095 53.9616 14.925C53.6016 14.745 53.3066 14.51 53.0766 14.22H53.0466L52.8066 15.72L52.3866 17.91H50.7666ZM55.0116 13.86C55.3616 13.86 55.6866 13.775 55.9866 13.605C56.2966 13.435 56.5616 13.2 56.7816 12.9C57.0116 12.6 57.1866 12.25 57.3066 11.85C57.4366 11.45 57.5016 11.02 57.5016 10.56C57.5016 9.95 57.3716 9.5 57.1116 9.21C56.8516 8.92 56.5116 8.775 56.0916 8.775C55.7716 8.775 55.4216 8.885 55.0416 9.105C54.6716 9.325 54.3166 9.65 53.9766 10.08L53.3766 12.99C53.5766 13.31 53.8216 13.535 54.1116 13.665C54.4116 13.795 54.7116 13.86 55.0116 13.86ZM64.5907 15.18C63.7607 15.18 63.1557 14.985 62.7757 14.595C62.4057 14.195 62.2207 13.67 62.2207 13.02C62.2207 12.86 62.2307 12.705 62.2507 12.555C62.2707 12.405 62.3007 12.235 62.3407 12.045L62.9857 8.91H60.9457L61.1857 7.71L63.3007 7.635L64.0057 5.325H65.3257L64.8457 7.635H68.2207L67.9657 8.91H64.5757L63.9157 12.03C63.8857 12.17 63.8657 12.285 63.8557 12.375C63.8457 12.465 63.8407 12.555 63.8407 12.645C63.8407 13.065 63.9507 13.375 64.1707 13.575C64.4007 13.765 64.6957 13.86 65.0557 13.86C65.3957 13.86 65.7157 13.805 66.0157 13.695C66.3157 13.585 66.5857 13.46 66.8257 13.32L67.3207 14.46C67.0007 14.67 66.6007 14.845 66.1207 14.985C65.6407 15.115 65.1307 15.18 64.5907 15.18ZM72.5648 15.18C72.2148 15.18 71.9348 15.065 71.7248 14.835C71.5248 14.595 71.4248 14.3 71.4248 13.95C71.4248 13.73 71.4648 13.52 71.5448 13.32C71.6248 13.11 71.7348 12.93 71.8748 12.78C72.0148 12.63 72.1848 12.51 72.3848 12.42C72.5848 12.33 72.7998 12.285 73.0298 12.285C73.3798 12.285 73.6598 12.405 73.8698 12.645C74.0798 12.875 74.1848 13.165 74.1848 13.515C74.1848 13.745 74.1448 13.96 74.0648 14.16C73.9848 14.36 73.8698 14.535 73.7198 14.685C73.5798 14.835 73.4098 14.955 73.2098 15.045C73.0098 15.135 72.7948 15.18 72.5648 15.18ZM77.749 17.91L79.819 7.635H81.139L81.064 8.73H81.109C81.489 8.36 81.889 8.055 82.309 7.815C82.739 7.575 83.199 7.455 83.689 7.455C84.439 7.455 85.034 7.705 85.474 8.205C85.924 8.695 86.149 9.41 86.149 10.35C86.149 11.02 86.049 11.65 85.849 12.24C85.659 12.83 85.389 13.345 85.039 13.785C84.689 14.215 84.269 14.555 83.779 14.805C83.289 15.055 82.744 15.18 82.144 15.18C81.714 15.18 81.314 15.095 80.944 14.925C80.584 14.745 80.289 14.51 80.059 14.22H80.029L79.789 15.72L79.369 17.91H77.749ZM81.994 13.86C82.344 13.86 82.669 13.775 82.969 13.605C83.279 13.435 83.544 13.2 83.764 12.9C83.994 12.6 84.169 12.25 84.289 11.85C84.419 11.45 84.484 11.02 84.484 10.56C84.484 9.95 84.354 9.5 84.094 9.21C83.834 8.92 83.494 8.775 83.074 8.775C82.754 8.775 82.404 8.885 82.024 9.105C81.654 9.325 81.299 9.65 80.959 10.08L80.359 12.99C80.559 13.31 80.804 13.535 81.094 13.665C81.394 13.795 81.694 13.86 81.994 13.86ZM87.5231 18.03C87.2731 18.03 87.0381 18 86.8181 17.94C86.5981 17.88 86.4131 17.8 86.2631 17.7L86.7281 16.59C86.8481 16.65 86.9881 16.7 87.1481 16.74C87.3081 16.78 87.4681 16.8 87.6281 16.8C88.0581 16.8 88.4081 16.705 88.6781 16.515C88.9581 16.325 89.2381 16.01 89.5181 15.57L89.8781 15L88.1231 7.635H89.6831L90.4631 11.28C90.5331 11.63 90.6031 12.02 90.6731 12.45C90.7431 12.87 90.8031 13.24 90.8531 13.56H90.9131C91.0731 13.24 91.2631 12.87 91.4831 12.45C91.7031 12.02 91.9131 11.63 92.1131 11.28L94.2131 7.635H95.8631L91.1531 15.495C90.6431 16.355 90.1131 16.99 89.5631 17.4C89.0131 17.82 88.3331 18.03 87.5231 18.03Z" fill="#232A3D"/>
<path d="M133.707 76.2929C133.317 75.9024 132.683 75.9024 132.293 76.2929L125.929 82.6569C125.538 83.0474 125.538 83.6805 125.929 84.0711C126.319 84.4616 126.953 84.4616 127.343 84.0711L133 78.4142L138.657 84.0711C139.047 84.4616 139.681 84.4616 140.071 84.0711C140.462 83.6805 140.462 83.0474 140.071 82.6569L133.707 76.2929ZM132 77V109H134V77H132Z" fill="#C74E4E"/>
<path d="M181.707 76.2929C181.317 75.9024 180.683 75.9024 180.293 76.2929L173.929 82.6569C173.538 83.0474 173.538 83.6805 173.929 84.0711C174.319 84.4616 174.953 84.4616 175.343 84.0711L181 78.4142L186.657 84.0711C187.047 84.4616 187.681 84.4616 188.071 84.0711C188.462 83.6805 188.462 83.0474 188.071 82.6569L181.707 76.2929ZM180 77V109H182V77H180Z" fill="#C74E4E"/>
<path d="M230.707 76.2929C230.317 75.9024 229.683 75.9024 229.293 76.2929L222.929 82.6569C222.538 83.0474 222.538 83.6805 222.929 84.0711C223.319 84.4616 223.953 84.4616 224.343 84.0711L230 78.4142L235.657 84.0711C236.047 84.4616 236.681 84.4616 237.071 84.0711C237.462 83.6805 237.462 83.0474 237.071 82.6569L230.707 76.2929ZM229 77V109H231V77H229Z" fill="#C74E4E"/>
<path d="M282.707 76.2929C282.317 75.9024 281.683 75.9024 281.293 76.2929L274.929 82.6569C274.538 83.0474 274.538 83.6805 274.929 84.0711C275.319 84.4616 275.953 84.4616 276.343 84.0711L282 78.4142L287.657 84.0711C288.047 84.4616 288.681 84.4616 289.071 84.0711C289.462 83.6805 289.462 83.0474 289.071 82.6569L282.707 76.2929ZM281 77V109H283V77H281Z" fill="#C74E4E"/>
</svg>
