<svg width="620" height="137" viewBox="0 0 620 137" fill="none" xmlns="http://www.w3.org/2000/svg">
<rect width="620" height="137" fill="white"/>
<path d="M19.02 15.18C18.35 15.18 17.72 15.06 17.13 14.82C16.55 14.58 16.07 14.25 15.69 13.83L16.605 12.81C16.975 13.21 17.39 13.505 17.85 13.695C18.32 13.875 18.8 13.965 19.29 13.965C19.72 13.965 20.065 13.895 20.325 13.755C20.595 13.605 20.73 13.38 20.73 13.08C20.73 12.79 20.595 12.57 20.325 12.42C20.055 12.26 19.63 12.085 19.05 11.895C18.29 11.645 17.72 11.35 17.34 11.01C16.97 10.67 16.785 10.23 16.785 9.69C16.785 9.32 16.865 8.995 17.025 8.715C17.185 8.435 17.4 8.205 17.67 8.025C17.94 7.835 18.25 7.695 18.6 7.605C18.96 7.505 19.335 7.455 19.725 7.455C20.445 7.455 21.06 7.575 21.57 7.815C22.08 8.055 22.5 8.335 22.83 8.655L21.93 9.615C21.63 9.355 21.28 9.135 20.88 8.955C20.48 8.765 20.04 8.67 19.56 8.67C19.17 8.67 18.86 8.745 18.63 8.895C18.41 9.035 18.3 9.235 18.3 9.495C18.3 9.765 18.435 9.98 18.705 10.14C18.975 10.3 19.4 10.48 19.98 10.68C20.32 10.79 20.63 10.91 20.91 11.04C21.19 11.17 21.43 11.32 21.63 11.49C21.83 11.66 21.985 11.86 22.095 12.09C22.205 12.31 22.26 12.57 22.26 12.87C22.26 13.28 22.175 13.63 22.005 13.92C21.835 14.21 21.605 14.45 21.315 14.64C21.025 14.82 20.68 14.955 20.28 15.045C19.89 15.135 19.47 15.18 19.02 15.18ZM28.4041 15.18C27.9241 15.18 27.4741 15.115 27.0541 14.985C26.6341 14.845 26.2691 14.64 25.9591 14.37C25.6491 14.1 25.4041 13.765 25.2241 13.365C25.0441 12.955 24.9541 12.48 24.9541 11.94C24.9541 11.27 25.0741 10.66 25.3141 10.11C25.5641 9.56 25.8941 9.09 26.3041 8.7C26.7141 8.3 27.1891 7.995 27.7291 7.785C28.2691 7.565 28.8341 7.455 29.4241 7.455C30.0741 7.455 30.6341 7.59 31.1041 7.86C31.5841 8.13 31.9541 8.44 32.2141 8.79L31.2241 9.69C30.7141 9.08 30.0641 8.775 29.2741 8.775C28.9441 8.775 28.6141 8.855 28.2841 9.015C27.9641 9.165 27.6741 9.375 27.4141 9.645C27.1641 9.915 26.9591 10.235 26.7991 10.605C26.6491 10.975 26.5741 11.37 26.5741 11.79C26.5741 12.14 26.6241 12.445 26.7241 12.705C26.8341 12.965 26.9791 13.18 27.1591 13.35C27.3491 13.52 27.5691 13.65 27.8191 13.74C28.0791 13.82 28.3541 13.86 28.6441 13.86C29.0441 13.86 29.4141 13.775 29.7541 13.605C30.0941 13.425 30.4191 13.2 30.7291 12.93L31.3291 14.025C30.9491 14.375 30.5091 14.655 30.0091 14.865C29.5091 15.075 28.9741 15.18 28.4041 15.18ZM34.2633 15L35.7183 7.62L37.0383 7.635L36.7683 9.66H36.8283C37.0283 9.34 37.2483 9.045 37.4883 8.775C37.7383 8.505 37.9983 8.275 38.2683 8.085C38.5383 7.885 38.8183 7.73 39.1083 7.62C39.3983 7.51 39.6933 7.455 39.9933 7.455C40.3133 7.455 40.5983 7.485 40.8483 7.545C41.0983 7.605 41.3033 7.69 41.4633 7.8L40.8633 9.18C40.5233 8.99 40.1333 8.895 39.6933 8.895C39.1533 8.895 38.6183 9.13 38.0883 9.6C37.5583 10.06 37.0583 10.68 36.5883 11.46L35.8683 15H34.2633ZM47.1424 15.18C46.4924 15.18 45.9674 15.01 45.5674 14.67C45.1774 14.32 44.9824 13.83 44.9824 13.2C44.9824 13.06 44.9924 12.925 45.0124 12.795C45.0324 12.655 45.0624 12.505 45.1024 12.345L45.9124 8.91H43.3624L43.6324 7.635H47.7874L46.6924 12.45C46.6524 12.58 46.6324 12.725 46.6324 12.885C46.6324 13.235 46.7224 13.485 46.9024 13.635C47.0924 13.785 47.3324 13.86 47.6224 13.86C47.8324 13.86 48.0374 13.83 48.2374 13.77C48.4374 13.71 48.6624 13.625 48.9124 13.515L49.2574 14.73C48.9374 14.87 48.6124 14.98 48.2824 15.06C47.9624 15.14 47.5824 15.18 47.1424 15.18ZM47.1424 6.27C46.8524 6.27 46.5974 6.19 46.3774 6.03C46.1674 5.86 46.0624 5.61 46.0624 5.28C46.0624 5.12 46.0924 4.965 46.1524 4.815C46.2224 4.665 46.3124 4.535 46.4224 4.425C46.5424 4.305 46.6774 4.215 46.8274 4.155C46.9874 4.085 47.1574 4.05 47.3374 4.05C47.6574 4.05 47.9174 4.135 48.1174 4.305C48.3274 4.475 48.4324 4.72 48.4324 5.04C48.4324 5.21 48.3974 5.37 48.3274 5.52C48.2574 5.67 48.1624 5.8 48.0424 5.91C47.9324 6.02 47.7974 6.11 47.6374 6.18C47.4874 6.24 47.3224 6.27 47.1424 6.27ZM50.7666 17.91L52.8366 7.635H54.1566L54.0816 8.73H54.1266C54.5066 8.36 54.9066 8.055 55.3266 7.815C55.7566 7.575 56.2166 7.455 56.7066 7.455C57.4566 7.455 58.0516 7.705 58.4916 8.205C58.9416 8.695 59.1666 9.41 59.1666 10.35C59.1666 11.02 59.0666 11.65 58.8666 12.24C58.6766 12.83 58.4066 13.345 58.0566 13.785C57.7066 14.215 57.2866 14.555 56.7966 14.805C56.3066 15.055 55.7616 15.18 55.1616 15.18C54.7316 15.18 54.3316 15.095 53.9616 14.925C53.6016 14.745 53.3066 14.51 53.0766 14.22H53.0466L52.8066 15.72L52.3866 17.91H50.7666ZM55.0116 13.86C55.3616 13.86 55.6866 13.775 55.9866 13.605C56.2966 13.435 56.5616 13.2 56.7816 12.9C57.0116 12.6 57.1866 12.25 57.3066 11.85C57.4366 11.45 57.5016 11.02 57.5016 10.56C57.5016 9.95 57.3716 9.5 57.1116 9.21C56.8516 8.92 56.5116 8.775 56.0916 8.775C55.7716 8.775 55.4216 8.885 55.0416 9.105C54.6716 9.325 54.3166 9.65 53.9766 10.08L53.3766 12.99C53.5766 13.31 53.8216 13.535 54.1116 13.665C54.4116 13.795 54.7116 13.86 55.0116 13.86ZM64.5907 15.18C63.7607 15.18 63.1557 14.985 62.7757 14.595C62.4057 14.195 62.2207 13.67 62.2207 13.02C62.2207 12.86 62.2307 12.705 62.2507 12.555C62.2707 12.405 62.3007 12.235 62.3407 12.045L62.9857 8.91H60.9457L61.1857 7.71L63.3007 7.635L64.0057 5.325H65.3257L64.8457 7.635H68.2207L67.9657 8.91H64.5757L63.9157 12.03C63.8857 12.17 63.8657 12.285 63.8557 12.375C63.8457 12.465 63.8407 12.555 63.8407 12.645C63.8407 13.065 63.9507 13.375 64.1707 13.575C64.4007 13.765 64.6957 13.86 65.0557 13.86C65.3957 13.86 65.7157 13.805 66.0157 13.695C66.3157 13.585 66.5857 13.46 66.8257 13.32L67.3207 14.46C67.0007 14.67 66.6007 14.845 66.1207 14.985C65.6407 15.115 65.1307 15.18 64.5907 15.18ZM72.5648 15.18C72.2148 15.18 71.9348 15.065 71.7248 14.835C71.5248 14.595 71.4248 14.3 71.4248 13.95C71.4248 13.73 71.4648 13.52 71.5448 13.32C71.6248 13.11 71.7348 12.93 71.8748 12.78C72.0148 12.63 72.1848 12.51 72.3848 12.42C72.5848 12.33 72.7998 12.285 73.0298 12.285C73.3798 12.285 73.6598 12.405 73.8698 12.645C74.0798 12.875 74.1848 13.165 74.1848 13.515C74.1848 13.745 74.1448 13.96 74.0648 14.16C73.9848 14.36 73.8698 14.535 73.7198 14.685C73.5798 14.835 73.4098 14.955 73.2098 15.045C73.0098 15.135 72.7948 15.18 72.5648 15.18ZM77.749 17.91L79.819 7.635H81.139L81.064 8.73H81.109C81.489 8.36 81.889 8.055 82.309 7.815C82.739 7.575 83.199 7.455 83.689 7.455C84.439 7.455 85.034 7.705 85.474 8.205C85.924 8.695 86.149 9.41 86.149 10.35C86.149 11.02 86.049 11.65 85.849 12.24C85.659 12.83 85.389 13.345 85.039 13.785C84.689 14.215 84.269 14.555 83.779 14.805C83.289 15.055 82.744 15.18 82.144 15.18C81.714 15.18 81.314 15.095 80.944 14.925C80.584 14.745 80.289 14.51 80.059 14.22H80.029L79.789 15.72L79.369 17.91H77.749ZM81.994 13.86C82.344 13.86 82.669 13.775 82.969 13.605C83.279 13.435 83.544 13.2 83.764 12.9C83.994 12.6 84.169 12.25 84.289 11.85C84.419 11.45 84.484 11.02 84.484 10.56C84.484 9.95 84.354 9.5 84.094 9.21C83.834 8.92 83.494 8.775 83.074 8.775C82.754 8.775 82.404 8.885 82.024 9.105C81.654 9.325 81.299 9.65 80.959 10.08L80.359 12.99C80.559 13.31 80.804 13.535 81.094 13.665C81.394 13.795 81.694 13.86 81.994 13.86ZM87.5231 18.03C87.2731 18.03 87.0381 18 86.8181 17.94C86.5981 17.88 86.4131 17.8 86.2631 17.7L86.7281 16.59C86.8481 16.65 86.9881 16.7 87.1481 16.74C87.3081 16.78 87.4681 16.8 87.6281 16.8C88.0581 16.8 88.4081 16.705 88.6781 16.515C88.9581 16.325 89.2381 16.01 89.5181 15.57L89.8781 15L88.1231 7.635H89.6831L90.4631 11.28C90.5331 11.63 90.6031 12.02 90.6731 12.45C90.7431 12.87 90.8031 13.24 90.8531 13.56H90.9131C91.0731 13.24 91.2631 12.87 91.4831 12.45C91.7031 12.02 91.9131 11.63 92.1131 11.28L94.2131 7.635H95.8631L91.1531 15.495C90.6431 16.355 90.1131 16.99 89.5631 17.4C89.0131 17.82 88.3331 18.03 87.5231 18.03Z" fill="#232A3D"/>
<rect y="24" width="620" height="48" rx="4" fill="#EFF1F6"/>
<path d="M16.005 48.28C16.005 47.66 16.12 47.11 16.35 46.63C16.59 46.14 16.905 45.73 17.295 45.4C17.695 45.07 18.155 44.82 18.675 44.65C19.195 44.47 19.74 44.38 20.31 44.38C20.9 44.38 21.43 44.475 21.9 44.665C22.38 44.855 22.78 45.095 23.1 45.385L22.08 46.75C21.53 46.36 20.98 46.165 20.43 46.165C19.79 46.165 19.27 46.355 18.87 46.735C18.47 47.115 18.27 47.63 18.27 48.28C18.27 48.93 18.46 49.445 18.84 49.825C19.23 50.205 19.735 50.395 20.355 50.395C20.745 50.395 21.105 50.325 21.435 50.185C21.765 50.045 22.06 49.88 22.32 49.69L23.22 51.085C22.77 51.465 22.27 51.745 21.72 51.925C21.18 52.095 20.655 52.18 20.145 52.18C19.555 52.18 19.01 52.095 18.51 51.925C18.01 51.745 17.57 51.49 17.19 51.16C16.82 50.83 16.53 50.425 16.32 49.945C16.11 49.455 16.005 48.9 16.005 48.28ZM24.6991 48.28C24.6991 47.66 24.8041 47.11 25.0141 46.63C25.2241 46.14 25.5041 45.73 25.8541 45.4C26.2141 45.07 26.6191 44.82 27.0691 44.65C27.5291 44.47 28.0041 44.38 28.4941 44.38C28.9841 44.38 29.4541 44.47 29.9041 44.65C30.3641 44.82 30.7691 45.07 31.1191 45.4C31.4791 45.73 31.7641 46.14 31.9741 46.63C32.1841 47.11 32.2891 47.66 32.2891 48.28C32.2891 48.9 32.1841 49.455 31.9741 49.945C31.7641 50.425 31.4791 50.83 31.1191 51.16C30.7691 51.49 30.3641 51.745 29.9041 51.925C29.4541 52.095 28.9841 52.18 28.4941 52.18C28.0041 52.18 27.5291 52.095 27.0691 51.925C26.6191 51.745 26.2141 51.49 25.8541 51.16C25.5041 50.83 25.2241 50.425 25.0141 49.945C24.8041 49.455 24.6991 48.9 24.6991 48.28ZM26.9641 48.28C26.9641 48.93 27.0891 49.445 27.3391 49.825C27.5991 50.205 27.9841 50.395 28.4941 50.395C29.0041 50.395 29.3841 50.205 29.6341 49.825C29.8941 49.445 30.0241 48.93 30.0241 48.28C30.0241 47.63 29.8941 47.115 29.6341 46.735C29.3841 46.355 29.0041 46.165 28.4941 46.165C27.9841 46.165 27.5991 46.355 27.3391 46.735C27.0891 47.115 26.9641 47.63 26.9641 48.28ZM34.0683 44.56H35.8683L36.0333 45.55H36.0933C36.4133 45.23 36.7783 44.955 37.1883 44.725C37.6083 44.495 38.0983 44.38 38.6583 44.38C39.4983 44.38 40.1133 44.65 40.5033 45.19C40.8933 45.73 41.0883 46.47 41.0883 47.41V52H38.8833V47.695C38.8833 47.195 38.8033 46.83 38.6433 46.6C38.4833 46.37 38.1983 46.255 37.7883 46.255C37.4883 46.255 37.2233 46.32 36.9933 46.45C36.7733 46.58 36.5333 46.775 36.2733 47.035V52H34.0683V44.56ZM44.5924 46.285H42.7174V44.65L44.6974 44.56L44.9824 42.58H46.7974V44.56H49.9474V46.285H46.7974V48.895C46.7974 49.465 46.9224 49.87 47.1724 50.11C47.4224 50.34 47.8174 50.455 48.3574 50.455C48.6474 50.455 48.9124 50.43 49.1524 50.38C49.3924 50.33 49.6224 50.265 49.8424 50.185L50.2324 51.775C49.9024 51.875 49.5324 51.965 49.1224 52.045C48.7224 52.135 48.2824 52.18 47.8024 52.18C47.2124 52.18 46.7124 52.1 46.3024 51.94C45.8924 51.78 45.5574 51.56 45.2974 51.28C45.0474 50.99 44.8674 50.645 44.7574 50.245C44.6474 49.845 44.5924 49.4 44.5924 48.91V46.285ZM51.8016 48.28C51.8016 47.67 51.9066 47.125 52.1166 46.645C52.3366 46.165 52.6266 45.76 52.9866 45.43C53.3466 45.09 53.7566 44.83 54.2166 44.65C54.6866 44.47 55.1716 44.38 55.6716 44.38C56.2416 44.38 56.7466 44.47 57.1866 44.65C57.6266 44.83 57.9916 45.08 58.2816 45.4C58.5716 45.72 58.7916 46.1 58.9416 46.54C59.0916 46.97 59.1666 47.44 59.1666 47.95C59.1666 48.15 59.1566 48.34 59.1366 48.52C59.1166 48.7 59.0966 48.835 59.0766 48.925H54.0666C54.1466 49.485 54.3866 49.89 54.7866 50.14C55.1966 50.38 55.6766 50.5 56.2266 50.5C56.5666 50.5 56.8866 50.46 57.1866 50.38C57.4966 50.29 57.8166 50.16 58.1466 49.99L58.8666 51.31C58.4466 51.58 57.9766 51.795 57.4566 51.955C56.9366 52.105 56.4266 52.18 55.9266 52.18C55.3466 52.18 54.8066 52.095 54.3066 51.925C53.8066 51.745 53.3716 51.49 53.0016 51.16C52.6316 50.82 52.3366 50.41 52.1166 49.93C51.9066 49.45 51.8016 48.9 51.8016 48.28ZM57.1716 47.47C57.1716 47.05 57.0566 46.71 56.8266 46.45C56.5966 46.19 56.2266 46.06 55.7166 46.06C55.3166 46.06 54.9616 46.175 54.6516 46.405C54.3416 46.635 54.1366 46.99 54.0366 47.47H57.1716ZM61.0507 44.56H62.8507L63.0157 45.55H63.0757C63.3957 45.23 63.7607 44.955 64.1707 44.725C64.5907 44.495 65.0807 44.38 65.6407 44.38C66.4807 44.38 67.0957 44.65 67.4857 45.19C67.8757 45.73 68.0707 46.47 68.0707 47.41V52H65.8657V47.695C65.8657 47.195 65.7857 46.83 65.6257 46.6C65.4657 46.37 65.1807 46.255 64.7707 46.255C64.4707 46.255 64.2057 46.32 63.9757 46.45C63.7557 46.58 63.5157 46.775 63.2557 47.035V52H61.0507V44.56ZM71.5748 46.285H69.6998V44.65L71.6798 44.56L71.9648 42.58H73.7798V44.56H76.9298V46.285H73.7798V48.895C73.7798 49.465 73.9048 49.87 74.1548 50.11C74.4048 50.34 74.7998 50.455 75.3398 50.455C75.6298 50.455 75.8948 50.43 76.1348 50.38C76.3748 50.33 76.6048 50.265 76.8248 50.185L77.2148 51.775C76.8848 51.875 76.5148 51.965 76.1048 52.045C75.7048 52.135 75.2648 52.18 74.7848 52.18C74.1948 52.18 73.6948 52.1 73.2848 51.94C72.8748 51.78 72.5398 51.56 72.2798 51.28C72.0298 50.99 71.8498 50.645 71.7398 50.245C71.6298 49.845 71.5748 49.4 71.5748 48.91V46.285ZM86.059 52.81V54.46H78.859V52.81H86.059ZM88.6931 44.56H90.4931L90.6731 46.18H90.7181C91.0881 45.57 91.5331 45.12 92.0531 44.83C92.5731 44.53 93.1331 44.38 93.7331 44.38C94.0631 44.38 94.3281 44.405 94.5281 44.455C94.7381 44.505 94.9531 44.58 95.1731 44.68L94.7231 46.525C94.4931 46.455 94.2831 46.405 94.0931 46.375C93.9131 46.335 93.6831 46.315 93.4031 46.315C92.9431 46.315 92.4881 46.45 92.0381 46.72C91.5981 46.99 91.2181 47.46 90.8981 48.13V52H88.6931V44.56ZM96.8623 49.93C96.8623 49.51 96.9523 49.145 97.1323 48.835C97.3123 48.515 97.5973 48.245 97.9873 48.025C98.3873 47.805 98.8973 47.63 99.5173 47.5C100.137 47.36 100.887 47.265 101.767 47.215C101.727 46.875 101.577 46.61 101.317 46.42C101.067 46.23 100.687 46.135 100.177 46.135C99.8173 46.135 99.4523 46.2 99.0823 46.33C98.7223 46.45 98.3323 46.615 97.9123 46.825L97.1323 45.385C97.6423 45.095 98.1873 44.855 98.7673 44.665C99.3573 44.475 99.9723 44.38 100.612 44.38C101.652 44.38 102.472 44.655 103.072 45.205C103.672 45.755 103.972 46.6 103.972 47.74V52H102.172L102.007 51.16H101.947C101.567 51.45 101.152 51.695 100.702 51.895C100.252 52.085 99.7873 52.18 99.3073 52.18C98.9273 52.18 98.5873 52.12 98.2873 52C97.9873 51.89 97.7323 51.735 97.5223 51.535C97.3123 51.325 97.1473 51.085 97.0273 50.815C96.9173 50.545 96.8623 50.25 96.8623 49.93ZM98.9773 49.765C98.9773 50.005 99.0673 50.185 99.2473 50.305C99.4373 50.415 99.6923 50.47 100.012 50.47C100.342 50.47 100.652 50.405 100.942 50.275C101.232 50.135 101.507 49.965 101.767 49.765V48.535C101.217 48.565 100.762 48.615 100.402 48.685C100.042 48.755 99.7573 48.845 99.5473 48.955C99.3373 49.055 99.1873 49.175 99.0973 49.315C99.0173 49.455 98.9773 49.605 98.9773 49.765ZM107.551 46.285H105.676V44.65L107.656 44.56L107.941 42.58H109.756V44.56H112.906V46.285H109.756V48.895C109.756 49.465 109.881 49.87 110.131 50.11C110.381 50.34 110.776 50.455 111.316 50.455C111.606 50.455 111.871 50.43 112.111 50.38C112.351 50.33 112.581 50.265 112.801 50.185L113.191 51.775C112.861 51.875 112.491 51.965 112.081 52.045C111.681 52.135 111.241 52.18 110.761 52.18C110.171 52.18 109.671 52.1 109.261 51.94C108.851 51.78 108.516 51.56 108.256 51.28C108.006 50.99 107.826 50.645 107.716 50.245C107.606 49.845 107.551 49.4 107.551 48.91V46.285ZM115.121 44.56H120.311V52H118.106V46.285H115.121V44.56ZM119.111 43.465C118.681 43.465 118.326 43.345 118.046 43.105C117.776 42.865 117.641 42.54 117.641 42.13C117.641 41.72 117.776 41.39 118.046 41.14C118.326 40.88 118.681 40.75 119.111 40.75C119.541 40.75 119.891 40.88 120.161 41.14C120.441 41.39 120.581 41.72 120.581 42.13C120.581 42.54 120.441 42.865 120.161 43.105C119.891 43.345 119.541 43.465 119.111 43.465ZM124.01 44.56H125.81L125.975 45.55H126.035C126.355 45.23 126.72 44.955 127.13 44.725C127.55 44.495 128.04 44.38 128.6 44.38C129.44 44.38 130.055 44.65 130.445 45.19C130.835 45.73 131.03 46.47 131.03 47.41V52H128.825V47.695C128.825 47.195 128.745 46.83 128.585 46.6C128.425 46.37 128.14 46.255 127.73 46.255C127.43 46.255 127.165 46.32 126.935 46.45C126.715 46.58 126.475 46.775 126.215 47.035V52H124.01V44.56ZM134.504 52.93C134.504 53.21 134.669 53.42 134.999 53.56C135.339 53.71 135.804 53.785 136.394 53.785C136.994 53.785 137.479 53.695 137.849 53.515C138.219 53.345 138.404 53.13 138.404 52.87C138.404 52.63 138.294 52.47 138.074 52.39C137.854 52.32 137.529 52.285 137.099 52.285H136.169C135.899 52.285 135.674 52.275 135.494 52.255C135.324 52.245 135.169 52.225 135.029 52.195C134.839 52.315 134.704 52.43 134.624 52.54C134.544 52.66 134.504 52.79 134.504 52.93ZM132.704 53.26C132.704 52.65 133.089 52.155 133.859 51.775V51.715C133.659 51.585 133.484 51.42 133.334 51.22C133.184 51.02 133.109 50.76 133.109 50.44C133.109 50.19 133.189 49.94 133.349 49.69C133.519 49.44 133.734 49.225 133.994 49.045V48.985C133.724 48.805 133.494 48.555 133.304 48.235C133.114 47.905 133.019 47.52 133.019 47.08C133.019 46.63 133.104 46.24 133.274 45.91C133.454 45.57 133.689 45.29 133.979 45.07C134.269 44.84 134.604 44.67 134.984 44.56C135.374 44.44 135.779 44.38 136.199 44.38C136.659 44.38 137.069 44.44 137.429 44.56H140.444V46.165H138.929C139.019 46.275 139.099 46.42 139.169 46.6C139.239 46.77 139.274 46.955 139.274 47.155C139.274 47.585 139.194 47.955 139.034 48.265C138.874 48.575 138.654 48.835 138.374 49.045C138.104 49.245 137.779 49.395 137.399 49.495C137.029 49.595 136.629 49.645 136.199 49.645C135.879 49.645 135.539 49.595 135.179 49.495C135.069 49.575 134.984 49.655 134.924 49.735C134.874 49.815 134.849 49.915 134.849 50.035C134.849 50.235 134.949 50.38 135.149 50.47C135.349 50.56 135.669 50.605 136.109 50.605H137.489C138.469 50.605 139.214 50.75 139.724 51.04C140.244 51.33 140.504 51.81 140.504 52.48C140.504 52.87 140.399 53.23 140.189 53.56C139.979 53.89 139.684 54.17 139.304 54.4C138.924 54.64 138.459 54.825 137.909 54.955C137.359 55.095 136.749 55.165 136.079 55.165C135.599 55.165 135.149 55.125 134.729 55.045C134.319 54.975 133.964 54.86 133.664 54.7C133.364 54.55 133.129 54.355 132.959 54.115C132.789 53.875 132.704 53.59 132.704 53.26ZM136.199 48.31C136.509 48.31 136.774 48.21 136.994 48.01C137.224 47.8 137.339 47.49 137.339 47.08C137.339 46.68 137.224 46.38 136.994 46.18C136.774 45.97 136.509 45.865 136.199 45.865C135.889 45.865 135.624 45.97 135.404 46.18C135.194 46.38 135.089 46.68 135.089 47.08C135.089 47.49 135.194 47.8 135.404 48.01C135.624 48.21 135.889 48.31 136.199 48.31ZM142.703 49.66C143.133 49.93 143.563 50.145 143.993 50.305C144.433 50.465 144.903 50.545 145.403 50.545C145.913 50.545 146.278 50.49 146.498 50.38C146.718 50.27 146.828 50.115 146.828 49.915C146.828 49.685 146.643 49.5 146.273 49.36C145.913 49.21 145.433 49.05 144.833 48.88C144.503 48.79 144.178 48.685 143.858 48.565C143.548 48.435 143.268 48.285 143.018 48.115C142.768 47.935 142.563 47.73 142.403 47.5C142.253 47.27 142.178 47.005 142.178 46.705C142.178 46.365 142.258 46.05 142.418 45.76C142.578 45.47 142.803 45.225 143.093 45.025C143.393 44.825 143.753 44.67 144.173 44.56C144.603 44.44 145.083 44.38 145.613 44.38C146.273 44.38 146.873 44.49 147.413 44.71C147.963 44.92 148.433 45.15 148.823 45.4L147.833 46.72C147.493 46.52 147.143 46.355 146.783 46.225C146.423 46.085 146.048 46.015 145.658 46.015C145.188 46.015 144.853 46.065 144.653 46.165C144.463 46.265 144.368 46.41 144.368 46.6C144.368 46.71 144.418 46.81 144.518 46.9C144.618 46.99 144.753 47.07 144.923 47.14C145.093 47.21 145.293 47.28 145.523 47.35C145.763 47.41 146.013 47.475 146.273 47.545C146.643 47.645 146.993 47.76 147.323 47.89C147.653 48.01 147.943 48.155 148.193 48.325C148.443 48.495 148.643 48.7 148.793 48.94C148.943 49.18 149.018 49.46 149.018 49.78C149.018 50.12 148.938 50.435 148.778 50.725C148.618 51.015 148.383 51.27 148.073 51.49C147.773 51.7 147.393 51.87 146.933 52C146.483 52.12 145.958 52.18 145.358 52.18C144.688 52.18 144.033 52.07 143.393 51.85C142.753 51.63 142.193 51.36 141.713 51.04L142.703 49.66ZM159.956 44.53H166.856V46.09H159.956V44.53ZM159.956 47.995H166.856V49.555H159.956V47.995ZM180.39 52.15C180.39 51.88 180.395 51.64 180.405 51.43C180.425 51.22 180.445 51.02 180.465 50.83C180.485 50.63 180.5 50.435 180.51 50.245C180.53 50.045 180.54 49.825 180.54 49.585C180.54 49.455 180.51 49.325 180.45 49.195C180.39 49.065 180.28 48.95 180.12 48.85C179.96 48.74 179.745 48.655 179.475 48.595C179.215 48.525 178.885 48.485 178.485 48.475V47.185C178.885 47.175 179.215 47.14 179.475 47.08C179.745 47.01 179.96 46.925 180.12 46.825C180.28 46.715 180.39 46.595 180.45 46.465C180.51 46.335 180.54 46.205 180.54 46.075C180.54 45.845 180.53 45.63 180.51 45.43C180.5 45.23 180.485 45.035 180.465 44.845C180.445 44.645 180.425 44.44 180.405 44.23C180.395 44.01 180.39 43.77 180.39 43.51C180.39 42.7 180.615 42.145 181.065 41.845C181.515 41.535 182.22 41.38 183.18 41.38H184.335V42.55H183.72C183.41 42.55 183.155 42.565 182.955 42.595C182.755 42.625 182.6 42.68 182.49 42.76C182.38 42.84 182.3 42.95 182.25 43.09C182.21 43.22 182.19 43.39 182.19 43.6C182.19 44 182.2 44.395 182.22 44.785C182.25 45.175 182.265 45.595 182.265 46.045C182.265 46.615 182.15 47.03 181.92 47.29C181.69 47.54 181.305 47.71 180.765 47.8V47.86C181.305 47.95 181.69 48.125 181.92 48.385C182.15 48.635 182.265 49.045 182.265 49.615C182.265 50.075 182.25 50.495 182.22 50.875C182.2 51.255 182.19 51.65 182.19 52.06C182.19 52.27 182.21 52.44 182.25 52.57C182.3 52.71 182.38 52.82 182.49 52.9C182.6 52.98 182.755 53.035 182.955 53.065C183.155 53.095 183.41 53.11 183.72 53.11H184.335V54.28H183.18C182.22 54.28 181.515 54.125 181.065 53.815C180.615 53.515 180.39 52.96 180.39 52.15ZM224.625 45.58C224.625 45.33 224.665 45.1 224.745 44.89C224.835 44.67 224.955 44.48 225.105 44.32C225.255 44.16 225.435 44.035 225.645 43.945C225.865 43.855 226.105 43.81 226.365 43.81C226.625 43.81 226.86 43.855 227.07 43.945C227.29 44.035 227.475 44.16 227.625 44.32C227.775 44.48 227.89 44.67 227.97 44.89C228.06 45.1 228.105 45.33 228.105 45.58C228.105 46.08 227.945 46.5 227.625 46.84C227.305 47.17 226.885 47.335 226.365 47.335C225.845 47.335 225.425 47.17 225.105 46.84C224.785 46.5 224.625 46.08 224.625 45.58ZM224.625 50.425C224.625 50.175 224.665 49.945 224.745 49.735C224.835 49.515 224.955 49.325 225.105 49.165C225.255 49.005 225.435 48.88 225.645 48.79C225.865 48.7 226.105 48.655 226.365 48.655C226.625 48.655 226.86 48.7 227.07 48.79C227.29 48.88 227.475 49.005 227.625 49.165C227.775 49.325 227.89 49.515 227.97 49.735C228.06 49.945 228.105 50.175 228.105 50.425C228.105 50.925 227.945 51.345 227.625 51.685C227.305 52.015 226.885 52.18 226.365 52.18C225.845 52.18 225.425 52.015 225.105 51.685C224.785 51.345 224.625 50.925 224.625 50.425ZM278.56 53.965C279.86 53.515 280.51 52.805 280.51 51.835C280.47 51.845 280.415 51.85 280.345 51.85C280.135 51.85 279.93 51.82 279.73 51.76C279.54 51.69 279.37 51.59 279.22 51.46C279.07 51.33 278.95 51.17 278.86 50.98C278.77 50.79 278.725 50.57 278.725 50.32C278.725 49.85 278.885 49.475 279.205 49.195C279.535 48.915 279.935 48.775 280.405 48.775C281.025 48.775 281.49 49.005 281.8 49.465C282.11 49.915 282.265 50.545 282.265 51.355C282.265 52.315 282 53.125 281.47 53.785C280.94 54.445 280.155 54.935 279.115 55.255L278.56 53.965ZM332.555 45.58C332.555 45.33 332.595 45.1 332.675 44.89C332.765 44.67 332.885 44.48 333.035 44.32C333.185 44.16 333.365 44.035 333.575 43.945C333.795 43.855 334.035 43.81 334.295 43.81C334.555 43.81 334.79 43.855 335 43.945C335.22 44.035 335.405 44.16 335.555 44.32C335.705 44.48 335.82 44.67 335.9 44.89C335.99 45.1 336.035 45.33 336.035 45.58C336.035 46.08 335.875 46.5 335.555 46.84C335.235 47.17 334.815 47.335 334.295 47.335C333.775 47.335 333.355 47.17 333.035 46.84C332.715 46.5 332.555 46.08 332.555 45.58ZM332.555 50.425C332.555 50.175 332.595 49.945 332.675 49.735C332.765 49.515 332.885 49.325 333.035 49.165C333.185 49.005 333.365 48.88 333.575 48.79C333.795 48.7 334.035 48.655 334.295 48.655C334.555 48.655 334.79 48.7 335 48.79C335.22 48.88 335.405 49.005 335.555 49.165C335.705 49.325 335.82 49.515 335.9 49.735C335.99 49.945 336.035 50.175 336.035 50.425C336.035 50.925 335.875 51.345 335.555 51.685C335.235 52.015 334.815 52.18 334.295 52.18C333.775 52.18 333.355 52.015 333.035 51.685C332.715 51.345 332.555 50.925 332.555 50.425ZM377.496 53.965C378.796 53.515 379.446 52.805 379.446 51.835C379.406 51.845 379.351 51.85 379.281 51.85C379.071 51.85 378.866 51.82 378.666 51.76C378.476 51.69 378.306 51.59 378.156 51.46C378.006 51.33 377.886 51.17 377.796 50.98C377.706 50.79 377.661 50.57 377.661 50.32C377.661 49.85 377.821 49.475 378.141 49.195C378.471 48.915 378.871 48.775 379.341 48.775C379.961 48.775 380.426 49.005 380.736 49.465C381.046 49.915 381.201 50.545 381.201 51.355C381.201 52.315 380.936 53.125 380.406 53.785C379.876 54.445 379.091 54.935 378.051 55.255L377.496 53.965ZM440.485 45.58C440.485 45.33 440.525 45.1 440.605 44.89C440.695 44.67 440.815 44.48 440.965 44.32C441.115 44.16 441.295 44.035 441.505 43.945C441.725 43.855 441.965 43.81 442.225 43.81C442.485 43.81 442.72 43.855 442.93 43.945C443.15 44.035 443.335 44.16 443.485 44.32C443.635 44.48 443.75 44.67 443.83 44.89C443.92 45.1 443.965 45.33 443.965 45.58C443.965 46.08 443.805 46.5 443.485 46.84C443.165 47.17 442.745 47.335 442.225 47.335C441.705 47.335 441.285 47.17 440.965 46.84C440.645 46.5 440.485 46.08 440.485 45.58ZM440.485 50.425C440.485 50.175 440.525 49.945 440.605 49.735C440.695 49.515 440.815 49.325 440.965 49.165C441.115 49.005 441.295 48.88 441.505 48.79C441.725 48.7 441.965 48.655 442.225 48.655C442.485 48.655 442.72 48.7 442.93 48.79C443.15 48.88 443.335 49.005 443.485 49.165C443.635 49.325 443.75 49.515 443.83 49.735C443.92 49.945 443.965 50.175 443.965 50.425C443.965 50.925 443.805 51.345 443.485 51.685C443.165 52.015 442.745 52.18 442.225 52.18C441.705 52.18 441.285 52.015 440.965 51.685C440.645 51.345 440.485 50.925 440.485 50.425ZM494.419 53.965C495.719 53.515 496.369 52.805 496.369 51.835C496.329 51.845 496.274 51.85 496.204 51.85C495.994 51.85 495.789 51.82 495.589 51.76C495.399 51.69 495.229 51.59 495.079 51.46C494.929 51.33 494.809 51.17 494.719 50.98C494.629 50.79 494.584 50.57 494.584 50.32C494.584 49.85 494.744 49.475 495.064 49.195C495.394 48.915 495.794 48.775 496.264 48.775C496.884 48.775 497.349 49.005 497.659 49.465C497.969 49.915 498.124 50.545 498.124 51.355C498.124 52.315 497.859 53.125 497.329 53.785C496.799 54.445 496.014 54.935 494.974 55.255L494.419 53.965ZM557.408 45.58C557.408 45.33 557.448 45.1 557.528 44.89C557.618 44.67 557.738 44.48 557.888 44.32C558.038 44.16 558.218 44.035 558.428 43.945C558.648 43.855 558.888 43.81 559.148 43.81C559.408 43.81 559.643 43.855 559.853 43.945C560.073 44.035 560.258 44.16 560.408 44.32C560.558 44.48 560.673 44.67 560.753 44.89C560.843 45.1 560.888 45.33 560.888 45.58C560.888 46.08 560.728 46.5 560.408 46.84C560.088 47.17 559.668 47.335 559.148 47.335C558.628 47.335 558.208 47.17 557.888 46.84C557.568 46.5 557.408 46.08 557.408 45.58ZM557.408 50.425C557.408 50.175 557.448 49.945 557.528 49.735C557.618 49.515 557.738 49.325 557.888 49.165C558.038 49.005 558.218 48.88 558.428 48.79C558.648 48.7 558.888 48.655 559.148 48.655C559.408 48.655 559.643 48.7 559.853 48.79C560.073 48.88 560.258 49.005 560.408 49.165C560.558 49.325 560.673 49.515 560.753 49.735C560.843 49.945 560.888 50.175 560.888 50.425C560.888 50.925 560.728 51.345 560.408 51.685C560.088 52.015 559.668 52.18 559.148 52.18C558.628 52.18 558.208 52.015 557.888 51.685C557.568 51.345 557.408 50.925 557.408 50.425ZM601.809 53.11C602.119 53.11 602.369 53.095 602.559 53.065C602.759 53.035 602.914 52.98 603.024 52.9C603.134 52.82 603.209 52.71 603.249 52.57C603.299 52.44 603.324 52.27 603.324 52.06C603.324 51.65 603.314 51.255 603.294 50.875C603.274 50.495 603.264 50.075 603.264 49.615C603.264 49.045 603.379 48.635 603.609 48.385C603.839 48.125 604.224 47.95 604.764 47.86V47.8C604.224 47.71 603.839 47.54 603.609 47.29C603.379 47.03 603.264 46.615 603.264 46.045C603.264 45.595 603.274 45.175 603.294 44.785C603.314 44.395 603.324 44 603.324 43.6C603.324 43.39 603.299 43.22 603.249 43.09C603.209 42.95 603.134 42.84 603.024 42.76C602.914 42.68 602.759 42.625 602.559 42.595C602.369 42.565 602.119 42.55 601.809 42.55H601.194V41.38H602.349C603.309 41.38 604.014 41.535 604.464 41.845C604.914 42.145 605.139 42.7 605.139 43.51C605.139 43.77 605.129 44.01 605.109 44.23C605.099 44.44 605.079 44.645 605.049 44.845C605.029 45.035 605.009 45.23 604.989 45.43C604.979 45.63 604.974 45.845 604.974 46.075C604.974 46.205 605.004 46.335 605.064 46.465C605.124 46.595 605.234 46.715 605.394 46.825C605.554 46.925 605.764 47.01 606.024 47.08C606.294 47.14 606.634 47.175 607.044 47.185V48.475C606.634 48.485 606.294 48.525 606.024 48.595C605.764 48.655 605.554 48.74 605.394 48.85C605.234 48.95 605.124 49.065 605.064 49.195C605.004 49.325 604.974 49.455 604.974 49.585C604.974 49.825 604.979 50.045 604.989 50.245C605.009 50.435 605.029 50.63 605.049 50.83C605.079 51.02 605.099 51.22 605.109 51.43C605.129 51.64 605.139 51.88 605.139 52.15C605.139 52.96 604.914 53.515 604.464 53.815C604.014 54.125 603.309 54.28 602.349 54.28H601.194V53.11H601.809Z" fill="#232A3D"/>
<path d="M189.189 43.9L189.114 41.725H191.664L191.589 43.9L191.064 47.455H189.714L189.189 43.9ZM199.998 48.04V46.435C199.998 46.135 200.003 45.79 200.013 45.4C200.033 45 200.053 44.65 200.073 44.35H200.013C199.853 44.62 199.683 44.89 199.503 45.16C199.323 45.43 199.148 45.7 198.978 45.97L197.538 48.04H199.998ZM203.253 49.72H202.053V52H199.998V49.72H195.408V48.205L199.383 42.475H202.053V48.04H203.253V49.72ZM207.567 47.83H204.927V46.27H207.567V43.51H209.187V46.27H211.827V47.83H209.187V50.59H207.567V47.83ZM216.171 43.9L216.096 41.725H218.646L218.571 43.9L218.046 47.455H216.696L216.171 43.9ZM297.118 43.9L297.043 41.725H299.593L299.518 43.9L298.993 47.455H297.643L297.118 43.9ZM307.043 46.87C307.323 46.87 307.613 46.8 307.913 46.66C308.213 46.52 308.508 46.275 308.798 45.925C308.738 45.555 308.648 45.245 308.528 44.995C308.418 44.735 308.283 44.53 308.123 44.38C307.973 44.22 307.808 44.11 307.628 44.05C307.448 43.98 307.263 43.945 307.073 43.945C306.883 43.945 306.698 43.975 306.518 44.035C306.348 44.095 306.193 44.19 306.053 44.32C305.923 44.44 305.818 44.6 305.738 44.8C305.658 44.99 305.618 45.22 305.618 45.49C305.618 45.98 305.748 46.335 306.008 46.555C306.268 46.765 306.613 46.87 307.043 46.87ZM304.913 49.72C305.113 49.9 305.363 50.06 305.663 50.2C305.963 50.33 306.273 50.395 306.593 50.395C306.883 50.395 307.158 50.345 307.418 50.245C307.688 50.135 307.923 49.965 308.123 49.735C308.333 49.495 308.503 49.185 308.633 48.805C308.763 48.415 308.838 47.94 308.858 47.38C308.508 47.71 308.123 47.97 307.703 48.16C307.293 48.34 306.913 48.43 306.562 48.43C306.143 48.43 305.753 48.37 305.393 48.25C305.033 48.13 304.718 47.95 304.448 47.71C304.188 47.47 303.983 47.165 303.833 46.795C303.683 46.425 303.608 45.99 303.608 45.49C303.608 45 303.698 44.56 303.878 44.17C304.068 43.77 304.318 43.43 304.628 43.15C304.948 42.87 305.313 42.66 305.723 42.52C306.133 42.37 306.568 42.295 307.028 42.295C307.518 42.295 307.993 42.385 308.453 42.565C308.923 42.745 309.338 43.025 309.698 43.405C310.058 43.785 310.343 44.275 310.553 44.875C310.773 45.465 310.883 46.18 310.883 47.02C310.883 47.91 310.768 48.68 310.538 49.33C310.308 49.98 310.003 50.515 309.623 50.935C309.243 51.355 308.803 51.67 308.303 51.88C307.813 52.08 307.308 52.18 306.788 52.18C306.108 52.18 305.513 52.065 305.003 51.835C304.493 51.605 304.073 51.34 303.743 51.04L304.913 49.72ZM315.497 47.83H312.857V46.27H315.497V43.51H317.117V46.27H319.757V47.83H317.117V50.59H315.497V47.83ZM324.101 43.9L324.026 41.725H326.576L326.501 43.9L325.976 47.455H324.626L324.101 43.9ZM396.054 43.9L395.979 41.725H398.529L398.454 43.9L397.929 47.455H396.579L396.054 43.9ZM409.803 50.215V52H402.978V50.215H405.438V44.71H403.473V43.345C404.033 43.245 404.508 43.125 404.898 42.985C405.298 42.845 405.673 42.675 406.023 42.475H407.643V50.215H409.803ZM411.612 50.74C412.292 50.17 412.912 49.64 413.472 49.15C414.032 48.65 414.512 48.185 414.912 47.755C415.312 47.325 415.622 46.92 415.842 46.54C416.062 46.16 416.172 45.8 416.172 45.46C416.172 44.99 416.037 44.635 415.767 44.395C415.497 44.145 415.112 44.02 414.612 44.02C414.232 44.02 413.882 44.12 413.562 44.32C413.252 44.51 412.962 44.735 412.692 44.995L411.507 43.81C411.757 43.56 412.002 43.34 412.242 43.15C412.492 42.96 412.752 42.805 413.022 42.685C413.302 42.555 413.592 42.46 413.892 42.4C414.202 42.33 414.542 42.295 414.912 42.295C415.412 42.295 415.867 42.37 416.277 42.52C416.687 42.66 417.037 42.865 417.327 43.135C417.627 43.395 417.857 43.71 418.017 44.08C418.187 44.45 418.272 44.865 418.272 45.325C418.272 45.725 418.177 46.135 417.987 46.555C417.797 46.965 417.537 47.38 417.207 47.8C416.887 48.21 416.517 48.625 416.097 49.045C415.677 49.455 415.237 49.86 414.777 50.26C415.047 50.23 415.337 50.205 415.647 50.185C415.967 50.155 416.252 50.14 416.502 50.14H418.767V52H411.612V50.74ZM423.426 47.83H420.786V46.27H423.426V43.51H425.046V46.27H427.686V47.83H425.046V50.59H423.426V47.83ZM432.03 43.9L431.955 41.725H434.505L434.43 43.9L433.905 47.455H432.555L432.03 43.9ZM512.978 43.9L512.903 41.725H515.453L515.378 43.9L514.853 47.455H513.503L512.978 43.9ZM526.727 50.215V52H519.902V50.215H522.362V44.71H520.397V43.345C520.957 43.245 521.432 43.125 521.822 42.985C522.222 42.845 522.597 42.675 522.947 42.475H524.567V50.215H526.727ZM530.561 52C530.601 51.21 530.676 50.485 530.786 49.825C530.906 49.155 531.071 48.52 531.281 47.92C531.501 47.31 531.781 46.72 532.121 46.15C532.461 45.57 532.881 44.965 533.381 44.335H528.596V42.475H535.751V43.825C535.151 44.495 534.666 45.125 534.296 45.715C533.926 46.295 533.636 46.9 533.426 47.53C533.216 48.15 533.066 48.82 532.976 49.54C532.886 50.25 532.821 51.07 532.781 52H530.561ZM540.35 47.83H537.71V46.27H540.35V43.51H541.97V46.27H544.61V47.83H541.97V50.59H540.35V47.83ZM548.954 43.9L548.879 41.725H551.429L551.354 43.9L550.829 47.455H549.479L548.954 43.9Z" fill="#31CB8A"/>
<path d="M244.969 48.04V46.435C244.969 46.135 244.974 45.79 244.984 45.4C245.004 45 245.024 44.65 245.044 44.35H244.984C244.824 44.62 244.654 44.89 244.474 45.16C244.294 45.43 244.119 45.7 243.949 45.97L242.509 48.04H244.969ZM248.224 49.72H247.024V52H244.969V49.72H240.379V48.205L244.354 42.475H247.024V48.04H248.224V49.72ZM253.963 48.04V46.435C253.963 46.135 253.968 45.79 253.978 45.4C253.998 45 254.018 44.65 254.038 44.35H253.978C253.818 44.62 253.648 44.89 253.468 45.16C253.288 45.43 253.113 45.7 252.943 45.97L251.503 48.04H253.963ZM257.218 49.72H256.018V52H253.963V49.72H249.373V48.205L253.348 42.475H256.018V48.04H257.218V49.72ZM259.492 49.435C259.812 49.715 260.167 49.945 260.557 50.125C260.957 50.305 261.377 50.395 261.817 50.395C262.337 50.395 262.762 50.3 263.092 50.11C263.432 49.91 263.602 49.63 263.602 49.27C263.602 49.06 263.557 48.87 263.467 48.7C263.377 48.53 263.222 48.39 263.002 48.28C262.782 48.16 262.487 48.07 262.117 48.01C261.747 47.94 261.282 47.905 260.722 47.905V46.345C261.662 46.345 262.322 46.23 262.702 46C263.092 45.76 263.287 45.45 263.287 45.07C263.287 44.74 263.162 44.485 262.912 44.305C262.662 44.115 262.317 44.02 261.877 44.02C261.497 44.02 261.147 44.095 260.827 44.245C260.507 44.395 260.182 44.6 259.852 44.86L258.742 43.51C259.212 43.13 259.712 42.835 260.242 42.625C260.782 42.405 261.362 42.295 261.982 42.295C262.502 42.295 262.977 42.355 263.407 42.475C263.837 42.585 264.207 42.755 264.517 42.985C264.827 43.205 265.067 43.475 265.237 43.795C265.407 44.115 265.492 44.485 265.492 44.905C265.492 45.405 265.332 45.83 265.012 46.18C264.692 46.52 264.247 46.8 263.677 47.02V47.08C264.277 47.24 264.782 47.515 265.192 47.905C265.602 48.285 265.807 48.785 265.807 49.405C265.807 49.845 265.702 50.24 265.492 50.59C265.292 50.93 265.017 51.22 264.667 51.46C264.327 51.69 263.927 51.87 263.467 52C263.007 52.12 262.527 52.18 262.027 52.18C261.207 52.18 260.502 52.06 259.912 51.82C259.322 51.57 258.842 51.24 258.472 50.83L259.492 49.435ZM268.486 49.435C268.806 49.715 269.161 49.945 269.551 50.125C269.951 50.305 270.371 50.395 270.811 50.395C271.331 50.395 271.756 50.3 272.086 50.11C272.426 49.91 272.596 49.63 272.596 49.27C272.596 49.06 272.551 48.87 272.461 48.7C272.371 48.53 272.216 48.39 271.996 48.28C271.776 48.16 271.481 48.07 271.111 48.01C270.741 47.94 270.276 47.905 269.716 47.905V46.345C270.656 46.345 271.316 46.23 271.696 46C272.086 45.76 272.281 45.45 272.281 45.07C272.281 44.74 272.156 44.485 271.906 44.305C271.656 44.115 271.311 44.02 270.871 44.02C270.491 44.02 270.141 44.095 269.821 44.245C269.501 44.395 269.176 44.6 268.846 44.86L267.736 43.51C268.206 43.13 268.706 42.835 269.236 42.625C269.776 42.405 270.356 42.295 270.976 42.295C271.496 42.295 271.971 42.355 272.401 42.475C272.831 42.585 273.201 42.755 273.511 42.985C273.821 43.205 274.061 43.475 274.231 43.795C274.401 44.115 274.486 44.485 274.486 44.905C274.486 45.405 274.326 45.83 274.006 46.18C273.686 46.52 273.241 46.8 272.671 47.02V47.08C273.271 47.24 273.776 47.515 274.186 47.905C274.596 48.285 274.801 48.785 274.801 49.405C274.801 49.845 274.696 50.24 274.486 50.59C274.286 50.93 274.011 51.22 273.661 51.46C273.321 51.69 272.921 51.87 272.461 52C272.001 52.12 271.521 52.18 271.021 52.18C270.201 52.18 269.496 52.06 268.906 51.82C268.316 51.57 267.836 51.24 267.466 50.83L268.486 49.435ZM352.013 46.87C352.293 46.87 352.583 46.8 352.883 46.66C353.183 46.52 353.478 46.275 353.768 45.925C353.708 45.555 353.618 45.245 353.498 44.995C353.388 44.735 353.253 44.53 353.093 44.38C352.943 44.22 352.778 44.11 352.598 44.05C352.418 43.98 352.233 43.945 352.043 43.945C351.853 43.945 351.668 43.975 351.488 44.035C351.318 44.095 351.163 44.19 351.023 44.32C350.893 44.44 350.788 44.6 350.708 44.8C350.628 44.99 350.588 45.22 350.588 45.49C350.588 45.98 350.718 46.335 350.978 46.555C351.238 46.765 351.583 46.87 352.013 46.87ZM349.883 49.72C350.083 49.9 350.333 50.06 350.633 50.2C350.933 50.33 351.243 50.395 351.563 50.395C351.853 50.395 352.128 50.345 352.388 50.245C352.658 50.135 352.893 49.965 353.093 49.735C353.303 49.495 353.473 49.185 353.603 48.805C353.733 48.415 353.808 47.94 353.828 47.38C353.478 47.71 353.093 47.97 352.673 48.16C352.263 48.34 351.883 48.43 351.533 48.43C351.113 48.43 350.723 48.37 350.363 48.25C350.003 48.13 349.688 47.95 349.418 47.71C349.158 47.47 348.953 47.165 348.803 46.795C348.653 46.425 348.578 45.99 348.578 45.49C348.578 45 348.668 44.56 348.848 44.17C349.038 43.77 349.288 43.43 349.598 43.15C349.918 42.87 350.283 42.66 350.693 42.52C351.103 42.37 351.538 42.295 351.998 42.295C352.488 42.295 352.963 42.385 353.423 42.565C353.893 42.745 354.308 43.025 354.668 43.405C355.028 43.785 355.313 44.275 355.523 44.875C355.743 45.465 355.853 46.18 355.853 47.02C355.853 47.91 355.738 48.68 355.508 49.33C355.278 49.98 354.973 50.515 354.593 50.935C354.213 51.355 353.773 51.67 353.273 51.88C352.783 52.08 352.278 52.18 351.758 52.18C351.078 52.18 350.483 52.065 349.973 51.835C349.463 51.605 349.043 51.34 348.713 51.04L349.883 49.72ZM359.597 49.315C359.597 49.735 359.762 50.065 360.092 50.305C360.422 50.535 360.832 50.65 361.322 50.65C361.772 50.65 362.132 50.555 362.402 50.365C362.682 50.165 362.822 49.865 362.822 49.465C362.822 49.245 362.767 49.06 362.657 48.91C362.547 48.76 362.387 48.625 362.177 48.505C361.977 48.375 361.737 48.26 361.457 48.16C361.177 48.05 360.867 47.93 360.527 47.8C360.257 48 360.032 48.225 359.852 48.475C359.682 48.725 359.597 49.005 359.597 49.315ZM361.922 46.45C362.402 46.02 362.642 45.555 362.642 45.055C362.642 44.685 362.527 44.39 362.297 44.17C362.067 43.94 361.732 43.825 361.292 43.825C360.942 43.825 360.642 43.915 360.392 44.095C360.152 44.275 360.032 44.55 360.032 44.92C360.032 45.31 360.207 45.615 360.557 45.835C360.907 46.055 361.362 46.26 361.922 46.45ZM357.692 49.57C357.692 49.28 357.737 49.02 357.827 48.79C357.927 48.55 358.057 48.335 358.217 48.145C358.387 47.955 358.577 47.785 358.787 47.635C359.007 47.485 359.242 47.35 359.492 47.23V47.17C359.092 46.89 358.757 46.575 358.487 46.225C358.227 45.865 358.097 45.43 358.097 44.92C358.097 44.52 358.177 44.16 358.337 43.84C358.497 43.51 358.717 43.23 358.997 43C359.287 42.77 359.632 42.595 360.032 42.475C360.432 42.355 360.867 42.295 361.337 42.295C361.817 42.295 362.247 42.36 362.627 42.49C363.017 42.61 363.347 42.785 363.617 43.015C363.887 43.235 364.092 43.51 364.232 43.84C364.382 44.16 364.457 44.515 364.457 44.905C364.457 45.355 364.322 45.755 364.052 46.105C363.792 46.455 363.472 46.75 363.092 46.99V47.05C363.342 47.17 363.577 47.31 363.797 47.47C364.017 47.62 364.207 47.795 364.367 47.995C364.527 48.195 364.652 48.425 364.742 48.685C364.832 48.935 364.877 49.22 364.877 49.54C364.877 49.92 364.797 50.27 364.637 50.59C364.477 50.91 364.242 51.19 363.932 51.43C363.632 51.66 363.257 51.845 362.807 51.985C362.357 52.115 361.842 52.18 361.262 52.18C360.712 52.18 360.217 52.12 359.777 52C359.337 51.87 358.962 51.69 358.652 51.46C358.342 51.23 358.102 50.955 357.932 50.635C357.772 50.315 357.692 49.96 357.692 49.57ZM368.666 52C368.706 51.21 368.781 50.485 368.891 49.825C369.011 49.155 369.176 48.52 369.386 47.92C369.606 47.31 369.886 46.72 370.226 46.15C370.566 45.57 370.986 44.965 371.486 44.335H366.701V42.475H373.856V43.825C373.256 44.495 372.771 45.125 372.401 45.715C372.031 46.295 371.741 46.9 371.531 47.53C371.321 48.15 371.171 48.82 371.081 49.54C370.991 50.25 370.926 51.07 370.886 52H368.666ZM463.768 50.215V52H456.943V50.215H459.403V44.71H457.438V43.345C457.998 43.245 458.473 43.125 458.863 42.985C459.263 42.845 459.638 42.675 459.988 42.475H461.608V50.215H463.768ZM472.762 50.215V52H465.937V50.215H468.397V44.71H466.432V43.345C466.992 43.245 467.467 43.125 467.857 42.985C468.257 42.845 468.632 42.675 468.982 42.475H470.602V50.215H472.762ZM475.381 49.45C475.701 49.71 476.041 49.935 476.401 50.125C476.771 50.305 477.181 50.395 477.631 50.395C478.171 50.395 478.611 50.27 478.951 50.02C479.301 49.77 479.476 49.4 479.476 48.91C479.476 48.43 479.311 48.065 478.981 47.815C478.661 47.565 478.246 47.44 477.736 47.44C477.576 47.44 477.431 47.45 477.301 47.47C477.181 47.48 477.061 47.505 476.941 47.545C476.821 47.585 476.696 47.635 476.566 47.695C476.436 47.755 476.291 47.83 476.131 47.92L475.156 47.29L475.411 42.475H481.246V44.335H477.316L477.151 46.12C477.371 46.04 477.576 45.985 477.766 45.955C477.956 45.915 478.171 45.895 478.411 45.895C478.851 45.895 479.266 45.955 479.656 46.075C480.056 46.195 480.406 46.375 480.706 46.615C481.006 46.855 481.241 47.16 481.411 47.53C481.591 47.9 481.681 48.34 481.681 48.85C481.681 49.38 481.576 49.85 481.366 50.26C481.166 50.67 480.891 51.02 480.541 51.31C480.201 51.59 479.806 51.805 479.356 51.955C478.906 52.105 478.436 52.18 477.946 52.18C477.116 52.18 476.411 52.055 475.831 51.805C475.261 51.545 474.781 51.225 474.391 50.845L475.381 49.45ZM484.375 49.45C484.695 49.71 485.035 49.935 485.395 50.125C485.765 50.305 486.175 50.395 486.625 50.395C487.165 50.395 487.605 50.27 487.945 50.02C488.295 49.77 488.47 49.4 488.47 48.91C488.47 48.43 488.305 48.065 487.975 47.815C487.655 47.565 487.24 47.44 486.73 47.44C486.57 47.44 486.425 47.45 486.295 47.47C486.175 47.48 486.055 47.505 485.935 47.545C485.815 47.585 485.69 47.635 485.56 47.695C485.43 47.755 485.285 47.83 485.125 47.92L484.15 47.29L484.405 42.475H490.24V44.335H486.31L486.145 46.12C486.365 46.04 486.57 45.985 486.76 45.955C486.95 45.915 487.165 45.895 487.405 45.895C487.845 45.895 488.26 45.955 488.65 46.075C489.05 46.195 489.4 46.375 489.7 46.615C490 46.855 490.235 47.16 490.405 47.53C490.585 47.9 490.675 48.34 490.675 48.85C490.675 49.38 490.57 49.85 490.36 50.26C490.16 50.67 489.885 51.02 489.535 51.31C489.195 51.59 488.8 51.805 488.35 51.955C487.9 52.105 487.43 52.18 486.94 52.18C486.11 52.18 485.405 52.055 484.825 51.805C484.255 51.545 483.775 51.225 483.385 50.845L484.375 49.45ZM577.347 50.53C577.537 50.53 577.717 50.5 577.887 50.44C578.067 50.38 578.222 50.29 578.352 50.17C578.492 50.04 578.602 49.88 578.682 49.69C578.762 49.49 578.802 49.255 578.802 48.985C578.802 48.495 578.672 48.145 578.412 47.935C578.152 47.715 577.812 47.605 577.392 47.605C577.112 47.605 576.822 47.675 576.522 47.815C576.222 47.955 575.927 48.195 575.637 48.535C575.697 48.915 575.782 49.235 575.892 49.495C576.012 49.745 576.147 49.95 576.297 50.11C576.447 50.26 576.612 50.37 576.792 50.44C576.972 50.5 577.157 50.53 577.347 50.53ZM579.522 44.755C579.322 44.575 579.072 44.42 578.772 44.29C578.472 44.15 578.162 44.08 577.842 44.08C577.552 44.08 577.272 44.135 577.002 44.245C576.742 44.345 576.507 44.515 576.297 44.755C576.097 44.985 575.932 45.29 575.802 45.67C575.672 46.05 575.597 46.52 575.577 47.08C575.917 46.75 576.292 46.495 576.702 46.315C577.122 46.135 577.512 46.045 577.872 46.045C578.292 46.045 578.677 46.105 579.027 46.225C579.387 46.345 579.697 46.525 579.957 46.765C580.227 47.005 580.437 47.31 580.587 47.68C580.737 48.05 580.812 48.485 580.812 48.985C580.812 49.485 580.717 49.93 580.527 50.32C580.347 50.71 580.097 51.045 579.777 51.325C579.467 51.605 579.107 51.82 578.697 51.97C578.287 52.11 577.852 52.18 577.392 52.18C576.902 52.18 576.427 52.09 575.967 51.91C575.507 51.73 575.097 51.45 574.737 51.07C574.377 50.69 574.087 50.205 573.867 49.615C573.647 49.015 573.537 48.295 573.537 47.455C573.537 46.565 573.652 45.795 573.882 45.145C574.112 44.495 574.417 43.96 574.797 43.54C575.187 43.12 575.627 42.81 576.117 42.61C576.607 42.4 577.117 42.295 577.647 42.295C578.327 42.295 578.922 42.41 579.432 42.64C579.942 42.86 580.357 43.125 580.677 43.435L579.522 44.755ZM582.501 50.74C583.181 50.17 583.801 49.64 584.361 49.15C584.921 48.65 585.401 48.185 585.801 47.755C586.201 47.325 586.511 46.92 586.731 46.54C586.951 46.16 587.061 45.8 587.061 45.46C587.061 44.99 586.926 44.635 586.656 44.395C586.386 44.145 586.001 44.02 585.501 44.02C585.121 44.02 584.771 44.12 584.451 44.32C584.141 44.51 583.851 44.735 583.581 44.995L582.396 43.81C582.646 43.56 582.891 43.34 583.131 43.15C583.381 42.96 583.641 42.805 583.911 42.685C584.191 42.555 584.481 42.46 584.781 42.4C585.091 42.33 585.431 42.295 585.801 42.295C586.301 42.295 586.756 42.37 587.166 42.52C587.576 42.66 587.926 42.865 588.216 43.135C588.516 43.395 588.746 43.71 588.906 44.08C589.076 44.45 589.161 44.865 589.161 45.325C589.161 45.725 589.066 46.135 588.876 46.555C588.686 46.965 588.426 47.38 588.096 47.8C587.776 48.21 587.406 48.625 586.986 49.045C586.566 49.455 586.126 49.86 585.666 50.26C585.936 50.23 586.226 50.205 586.536 50.185C586.856 50.155 587.141 50.14 587.391 50.14H589.656V52H582.501V50.74ZM591.495 50.74C592.175 50.17 592.795 49.64 593.355 49.15C593.915 48.65 594.395 48.185 594.795 47.755C595.195 47.325 595.505 46.92 595.725 46.54C595.945 46.16 596.055 45.8 596.055 45.46C596.055 44.99 595.92 44.635 595.65 44.395C595.38 44.145 594.995 44.02 594.495 44.02C594.115 44.02 593.765 44.12 593.445 44.32C593.135 44.51 592.845 44.735 592.575 44.995L591.39 43.81C591.64 43.56 591.885 43.34 592.125 43.15C592.375 42.96 592.635 42.805 592.905 42.685C593.185 42.555 593.475 42.46 593.775 42.4C594.085 42.33 594.425 42.295 594.795 42.295C595.295 42.295 595.75 42.37 596.16 42.52C596.57 42.66 596.92 42.865 597.21 43.135C597.51 43.395 597.74 43.71 597.9 44.08C598.07 44.45 598.155 44.865 598.155 45.325C598.155 45.725 598.06 46.135 597.87 46.555C597.68 46.965 597.42 47.38 597.09 47.8C596.77 48.21 596.4 48.625 595.98 49.045C595.56 49.455 595.12 49.86 594.66 50.26C594.93 50.23 595.22 50.205 595.53 50.185C595.85 50.155 596.135 50.14 596.385 50.14H598.65V52H591.495V50.74Z" fill="#29A1F8"/>
<g style="mix-blend-mode:multiply" opacity="0.4">
<rect x="183.477" y="37" width="40.1077" height="20" rx="10" fill="#C74E4E"/>
</g>
<g style="mix-blend-mode:multiply" opacity="0.4">
<rect x="235.292" y="37" width="44.9692" height="20" rx="10" fill="#C74E4E"/>
</g>
<path d="M204.707 56.2929C204.317 55.9024 203.683 55.9024 203.293 56.2929L196.929 62.6569C196.538 63.0474 196.538 63.6805 196.929 64.0711C197.319 64.4616 197.953 64.4616 198.343 64.0711L204 58.4142L209.657 64.0711C210.047 64.4616 210.681 64.4616 211.071 64.0711C211.462 63.6805 211.462 63.0474 211.071 62.6569L204.707 56.2929ZM203 57L203 87L205 87L205 57L203 57Z" fill="#C74E4E"/>
<path d="M257.707 56.2929C257.317 55.9024 256.683 55.9024 256.293 56.2929L249.929 62.6569C249.538 63.0474 249.538 63.6805 249.929 64.0711C250.319 64.4616 250.953 64.4616 251.343 64.0711L257 58.4142L262.657 64.0711C263.047 64.4616 263.681 64.4616 264.071 64.0711C264.462 63.6805 264.462 63.0474 264.071 62.6569L257.707 56.2929ZM256 57L256 87L258 87L258 57L256 57Z" fill="#C74E4E"/>
<path d="M335.707 56.2929C335.317 55.9024 334.683 55.9024 334.293 56.2929L327.929 62.6569C327.538 63.0474 327.538 63.6805 327.929 64.0711C328.319 64.4616 328.953 64.4616 329.343 64.0711L335 58.4142L340.657 64.0711C341.047 64.4616 341.681 64.4616 342.071 64.0711C342.462 63.6805 342.462 63.0474 342.071 62.6569L335.707 56.2929ZM334 57L334 87L336 87L336 57L334 57Z" fill="#C74E4E"/>
<g style="mix-blend-mode:multiply" opacity="0.4">
<rect x="289.631" y="37" width="88.7231" height="20" rx="10" fill="#C74E4E"/>
</g>
<path d="M191.232 107V96.568H193.584V100.84H193.648L196.752 96.568H199.344L196.192 100.728L199.92 107H197.344L194.8 102.6L193.584 104.2V107H191.232ZM204.17 107.192C203.413 107.192 202.73 107.027 202.122 106.696C201.514 106.365 201.034 105.891 200.682 105.272C200.33 104.653 200.154 103.907 200.154 103.032C200.154 102.168 200.33 101.427 200.682 100.808C201.045 100.189 201.514 99.7147 202.09 99.384C202.666 99.0427 203.269 98.872 203.898 98.872C204.655 98.872 205.279 99.0427 205.77 99.384C206.271 99.7147 206.645 100.168 206.89 100.744C207.146 101.309 207.274 101.955 207.274 102.68C207.274 102.883 207.263 103.085 207.242 103.288C207.221 103.48 207.199 103.624 207.178 103.72H202.426C202.533 104.296 202.773 104.723 203.146 105C203.519 105.267 203.967 105.4 204.49 105.4C205.055 105.4 205.626 105.224 206.202 104.872L206.986 106.296C206.581 106.573 206.127 106.792 205.626 106.952C205.125 107.112 204.639 107.192 204.17 107.192ZM202.41 102.168H205.274C205.274 101.731 205.167 101.373 204.954 101.096C204.751 100.808 204.415 100.664 203.946 100.664C203.583 100.664 203.258 100.792 202.97 101.048C202.682 101.293 202.495 101.667 202.41 102.168ZM209.686 110.104C209.451 110.104 209.243 110.088 209.062 110.056C208.891 110.024 208.726 109.987 208.566 109.944L208.982 108.152C209.056 108.163 209.142 108.179 209.238 108.2C209.334 108.232 209.424 108.248 209.51 108.248C209.904 108.248 210.208 108.152 210.422 107.96C210.635 107.768 210.795 107.517 210.902 107.208L211.014 106.792L207.958 99.064H210.326L211.462 102.472C211.579 102.835 211.686 103.203 211.782 103.576C211.878 103.949 211.979 104.333 212.086 104.728H212.15C212.235 104.355 212.32 103.981 212.406 103.608C212.502 103.224 212.598 102.845 212.694 102.472L213.654 99.064H215.91L213.158 107.08C212.912 107.741 212.64 108.296 212.342 108.744C212.043 109.203 211.68 109.544 211.254 109.768C210.838 109.992 210.315 110.104 209.686 110.104Z" fill="#C74E4E"/>
<path d="M239.181 107L236.029 96.568H238.525L239.773 101.432C239.933 101.997 240.071 102.552 240.189 103.096C240.317 103.64 240.461 104.2 240.621 104.776H240.685C240.834 104.2 240.973 103.64 241.101 103.096C241.229 102.552 241.367 101.997 241.517 101.432L242.749 96.568H245.149L242.013 107H239.181ZM247.509 107.192C246.783 107.192 246.207 106.963 245.781 106.504C245.354 106.035 245.141 105.464 245.141 104.792C245.141 103.96 245.493 103.309 246.197 102.84C246.901 102.371 248.037 102.056 249.605 101.896C249.583 101.544 249.477 101.267 249.285 101.064C249.103 100.851 248.794 100.744 248.357 100.744C248.026 100.744 247.69 100.808 247.349 100.936C247.007 101.064 246.645 101.24 246.261 101.464L245.413 99.912C245.914 99.6027 246.447 99.352 247.013 99.16C247.589 98.968 248.186 98.872 248.805 98.872C249.818 98.872 250.597 99.1653 251.141 99.752C251.685 100.339 251.957 101.24 251.957 102.456V107H250.037L249.877 106.184H249.813C249.482 106.483 249.125 106.728 248.741 106.92C248.367 107.101 247.957 107.192 247.509 107.192ZM248.309 105.368C248.575 105.368 248.805 105.309 248.997 105.192C249.199 105.064 249.402 104.899 249.605 104.696V103.304C248.773 103.411 248.197 103.581 247.877 103.816C247.557 104.04 247.397 104.307 247.397 104.616C247.397 104.872 247.477 105.064 247.637 105.192C247.807 105.309 248.031 105.368 248.309 105.368ZM256.106 107.192C255.296 107.192 254.73 106.952 254.41 106.472C254.101 105.981 253.946 105.336 253.946 104.536V95.784H256.298V104.632C256.298 104.877 256.341 105.048 256.426 105.144C256.522 105.24 256.618 105.288 256.714 105.288C256.768 105.288 256.81 105.288 256.842 105.288C256.885 105.277 256.938 105.267 257.002 105.256L257.29 107C257.162 107.053 256.997 107.096 256.794 107.128C256.602 107.171 256.373 107.192 256.106 107.192ZM260.908 107.192C260.044 107.192 259.415 106.909 259.02 106.344C258.636 105.768 258.444 104.984 258.444 103.992V99.064H260.796V103.688C260.796 104.253 260.876 104.648 261.036 104.872C261.196 105.085 261.447 105.192 261.788 105.192C262.087 105.192 262.338 105.123 262.54 104.984C262.743 104.845 262.962 104.621 263.196 104.312V99.064H265.548V107H263.628L263.452 105.896H263.404C263.074 106.291 262.711 106.605 262.316 106.84C261.922 107.075 261.452 107.192 260.908 107.192ZM271.17 107.192C270.413 107.192 269.73 107.027 269.122 106.696C268.514 106.365 268.034 105.891 267.682 105.272C267.33 104.653 267.154 103.907 267.154 103.032C267.154 102.168 267.33 101.427 267.682 100.808C268.045 100.189 268.514 99.7147 269.09 99.384C269.666 99.0427 270.269 98.872 270.898 98.872C271.655 98.872 272.279 99.0427 272.77 99.384C273.271 99.7147 273.645 100.168 273.89 100.744C274.146 101.309 274.274 101.955 274.274 102.68C274.274 102.883 274.263 103.085 274.242 103.288C274.221 103.48 274.199 103.624 274.178 103.72H269.426C269.533 104.296 269.773 104.723 270.146 105C270.519 105.267 270.967 105.4 271.49 105.4C272.055 105.4 272.626 105.224 273.202 104.872L273.986 106.296C273.581 106.573 273.127 106.792 272.626 106.952C272.125 107.112 271.639 107.192 271.17 107.192ZM269.41 102.168H272.274C272.274 101.731 272.167 101.373 271.954 101.096C271.751 100.808 271.415 100.664 270.946 100.664C270.583 100.664 270.258 100.792 269.97 101.048C269.682 101.293 269.495 101.667 269.41 102.168Z" fill="#C74E4E"/>
<path d="M296.716 107V96.568H299.068V100.84H299.132L302.236 96.568H304.828L301.676 100.728L305.404 107H302.828L300.284 102.6L299.068 104.2V107H296.716ZM309.655 107.192C308.897 107.192 308.215 107.027 307.607 106.696C306.999 106.365 306.519 105.891 306.167 105.272C305.815 104.653 305.639 103.907 305.639 103.032C305.639 102.168 305.815 101.427 306.167 100.808C306.529 100.189 306.999 99.7147 307.575 99.384C308.151 99.0427 308.753 98.872 309.383 98.872C310.14 98.872 310.764 99.0427 311.255 99.384C311.756 99.7147 312.129 100.168 312.375 100.744C312.631 101.309 312.759 101.955 312.759 102.68C312.759 102.883 312.748 103.085 312.727 103.288C312.705 103.48 312.684 103.624 312.663 103.72H307.911C308.017 104.296 308.257 104.723 308.631 105C309.004 105.267 309.452 105.4 309.975 105.4C310.54 105.4 311.111 105.224 311.687 104.872L312.471 106.296C312.065 106.573 311.612 106.792 311.111 106.952C310.609 107.112 310.124 107.192 309.655 107.192ZM307.895 102.168H310.759C310.759 101.731 310.652 101.373 310.439 101.096C310.236 100.808 309.9 100.664 309.431 100.664C309.068 100.664 308.743 100.792 308.455 101.048C308.167 101.293 307.98 101.667 307.895 102.168ZM315.17 110.104C314.935 110.104 314.727 110.088 314.546 110.056C314.375 110.024 314.21 109.987 314.05 109.944L314.466 108.152C314.541 108.163 314.626 108.179 314.722 108.2C314.818 108.232 314.909 108.248 314.994 108.248C315.389 108.248 315.693 108.152 315.906 107.96C316.119 107.768 316.279 107.517 316.386 107.208L316.498 106.792L313.442 99.064H315.81L316.946 102.472C317.063 102.835 317.17 103.203 317.266 103.576C317.362 103.949 317.463 104.333 317.57 104.728H317.634C317.719 104.355 317.805 103.981 317.89 103.608C317.986 103.224 318.082 102.845 318.178 102.472L319.138 99.064H321.394L318.642 107.08C318.397 107.741 318.125 108.296 317.826 108.744C317.527 109.203 317.165 109.544 316.738 109.768C316.322 109.992 315.799 110.104 315.17 110.104ZM327.197 102.008C326.792 102.008 326.45 101.869 326.173 101.592C325.906 101.304 325.773 100.952 325.773 100.536C325.773 100.109 325.906 99.7573 326.173 99.48C326.45 99.192 326.792 99.048 327.197 99.048C327.602 99.048 327.938 99.192 328.205 99.48C328.482 99.7573 328.621 100.109 328.621 100.536C328.621 100.952 328.482 101.304 328.205 101.592C327.938 101.869 327.602 102.008 327.197 102.008ZM327.197 107.192C326.792 107.192 326.45 107.053 326.173 106.776C325.906 106.488 325.773 106.136 325.773 105.72C325.773 105.293 325.906 104.941 326.173 104.664C326.45 104.376 326.792 104.232 327.197 104.232C327.602 104.232 327.938 104.376 328.205 104.664C328.482 104.941 328.621 105.293 328.621 105.72C328.621 106.136 328.482 106.488 328.205 106.776C327.938 107.053 327.602 107.192 327.197 107.192ZM335.837 107L332.685 96.568H335.181L336.429 101.432C336.589 101.997 336.728 102.552 336.845 103.096C336.973 103.64 337.117 104.2 337.277 104.776H337.341C337.49 104.2 337.629 103.64 337.757 103.096C337.885 102.552 338.024 101.997 338.173 101.432L339.405 96.568H341.805L338.669 107H335.837ZM344.165 107.192C343.44 107.192 342.864 106.963 342.437 106.504C342.01 106.035 341.797 105.464 341.797 104.792C341.797 103.96 342.149 103.309 342.853 102.84C343.557 102.371 344.693 102.056 346.261 101.896C346.24 101.544 346.133 101.267 345.941 101.064C345.76 100.851 345.45 100.744 345.013 100.744C344.682 100.744 344.346 100.808 344.005 100.936C343.664 101.064 343.301 101.24 342.917 101.464L342.069 99.912C342.57 99.6027 343.104 99.352 343.669 99.16C344.245 98.968 344.842 98.872 345.461 98.872C346.474 98.872 347.253 99.1653 347.797 99.752C348.341 100.339 348.613 101.24 348.613 102.456V107H346.693L346.533 106.184H346.469C346.138 106.483 345.781 106.728 345.397 106.92C345.024 107.101 344.613 107.192 344.165 107.192ZM344.965 105.368C345.232 105.368 345.461 105.309 345.653 105.192C345.856 105.064 346.058 104.899 346.261 104.696V103.304C345.429 103.411 344.853 103.581 344.533 103.816C344.213 104.04 344.053 104.307 344.053 104.616C344.053 104.872 344.133 105.064 344.293 105.192C344.464 105.309 344.688 105.368 344.965 105.368ZM352.763 107.192C351.952 107.192 351.387 106.952 351.067 106.472C350.757 105.981 350.603 105.336 350.603 104.536V95.784H352.955V104.632C352.955 104.877 352.997 105.048 353.083 105.144C353.179 105.24 353.275 105.288 353.371 105.288C353.424 105.288 353.467 105.288 353.499 105.288C353.541 105.277 353.595 105.267 353.659 105.256L353.947 107C353.819 107.053 353.653 107.096 353.451 107.128C353.259 107.171 353.029 107.192 352.763 107.192ZM357.565 107.192C356.701 107.192 356.071 106.909 355.677 106.344C355.293 105.768 355.101 104.984 355.101 103.992V99.064H357.453V103.688C357.453 104.253 357.533 104.648 357.693 104.872C357.853 105.085 358.103 105.192 358.445 105.192C358.743 105.192 358.994 105.123 359.197 104.984C359.399 104.845 359.618 104.621 359.853 104.312V99.064H362.205V107H360.285L360.109 105.896H360.061C359.73 106.291 359.367 106.605 358.973 106.84C358.578 107.075 358.109 107.192 357.565 107.192ZM367.826 107.192C367.069 107.192 366.386 107.027 365.778 106.696C365.17 106.365 364.69 105.891 364.338 105.272C363.986 104.653 363.81 103.907 363.81 103.032C363.81 102.168 363.986 101.427 364.338 100.808C364.701 100.189 365.17 99.7147 365.746 99.384C366.322 99.0427 366.925 98.872 367.554 98.872C368.312 98.872 368.936 99.0427 369.426 99.384C369.928 99.7147 370.301 100.168 370.546 100.744C370.802 101.309 370.93 101.955 370.93 102.68C370.93 102.883 370.92 103.085 370.898 103.288C370.877 103.48 370.856 103.624 370.834 103.72H366.082C366.189 104.296 366.429 104.723 366.802 105C367.176 105.267 367.624 105.4 368.146 105.4C368.712 105.4 369.282 105.224 369.858 104.872L370.642 106.296C370.237 106.573 369.784 106.792 369.282 106.952C368.781 107.112 368.296 107.192 367.826 107.192ZM366.066 102.168H368.93C368.93 101.731 368.824 101.373 368.61 101.096C368.408 100.808 368.072 100.664 367.602 100.664C367.24 100.664 366.914 100.792 366.626 101.048C366.338 101.293 366.152 101.667 366.066 102.168ZM320.623 131V120.568H324.207C324.975 120.568 325.668 120.675 326.287 120.888C326.916 121.091 327.417 121.437 327.791 121.928C328.164 122.419 328.351 123.085 328.351 123.928C328.351 124.739 328.164 125.405 327.791 125.928C327.417 126.451 326.921 126.84 326.303 127.096C325.684 127.341 325.007 127.464 324.271 127.464H322.975V131H320.623ZM322.975 125.592H324.127C325.407 125.592 326.047 125.037 326.047 123.928C326.047 123.384 325.876 123 325.535 122.776C325.193 122.552 324.703 122.44 324.063 122.44H322.975V125.592ZM331.415 131.192C330.69 131.192 330.114 130.963 329.687 130.504C329.26 130.035 329.047 129.464 329.047 128.792C329.047 127.96 329.399 127.309 330.103 126.84C330.807 126.371 331.943 126.056 333.511 125.896C333.49 125.544 333.383 125.267 333.191 125.064C333.01 124.851 332.7 124.744 332.263 124.744C331.932 124.744 331.596 124.808 331.255 124.936C330.914 125.064 330.551 125.24 330.167 125.464L329.319 123.912C329.82 123.603 330.354 123.352 330.919 123.16C331.495 122.968 332.092 122.872 332.711 122.872C333.724 122.872 334.503 123.165 335.047 123.752C335.591 124.339 335.863 125.24 335.863 126.456V131H333.943L333.783 130.184H333.719C333.388 130.483 333.031 130.728 332.647 130.92C332.274 131.101 331.863 131.192 331.415 131.192ZM332.215 129.368C332.482 129.368 332.711 129.309 332.903 129.192C333.106 129.064 333.308 128.899 333.511 128.696V127.304C332.679 127.411 332.103 127.581 331.783 127.816C331.463 128.04 331.303 128.307 331.303 128.616C331.303 128.872 331.383 129.064 331.543 129.192C331.714 129.309 331.938 129.368 332.215 129.368ZM337.853 131V123.064H340.205V131H337.853ZM339.021 121.896C338.626 121.896 338.306 121.784 338.061 121.56C337.815 121.336 337.693 121.037 337.693 120.664C337.693 120.291 337.815 119.992 338.061 119.768C338.306 119.544 338.626 119.432 339.021 119.432C339.415 119.432 339.735 119.544 339.981 119.768C340.226 119.992 340.349 120.291 340.349 120.664C340.349 121.037 340.226 121.336 339.981 121.56C339.735 121.784 339.415 121.896 339.021 121.896ZM342.274 131V123.064H344.194L344.354 124.456H344.418C344.706 123.923 345.053 123.528 345.458 123.272C345.864 123.005 346.269 122.872 346.674 122.872C346.898 122.872 347.085 122.888 347.234 122.92C347.384 122.941 347.512 122.979 347.618 123.032L347.234 125.064C347.096 125.021 346.957 124.989 346.818 124.968C346.69 124.947 346.541 124.936 346.37 124.936C346.072 124.936 345.757 125.048 345.426 125.272C345.106 125.485 344.84 125.859 344.626 126.392V131H342.274Z" fill="#C74E4E"/>
</svg>
