<svg width="268" height="283" viewBox="0 0 268 283" fill="none" xmlns="http://www.w3.org/2000/svg">
<rect width="268" height="283" fill="white"/>
<line y1="-0.5" x2="267.002" y2="-0.5" transform="translate(-0.000946045 43.5)" stroke="black"/>
<line y1="-0.5" x2="267" y2="-0.5" transform="translate(0 93)" stroke="black"/>
<line y1="-0.5" x2="267.002" y2="-0.5" transform="translate(0 139)" stroke="black"/>
<line y1="-0.5" x2="267" y2="-0.5" transform="translate(0 185)" stroke="black"/>
<line y1="-0.5" x2="267.002" y2="-0.5" transform="translate(0 234)" stroke="black"/>
<path d="M12.0278 11.2021C12.0278 10.7871 11.8813 10.4697 11.5884 10.25C11.2954 10.0254 10.7681 9.79102 10.0063 9.54688C9.24463 9.29785 8.6416 9.05371 8.19727 8.81445C6.98633 8.16016 6.38086 7.27881 6.38086 6.17041C6.38086 5.59424 6.54199 5.08154 6.86426 4.63232C7.19141 4.17822 7.65771 3.82422 8.26318 3.57031C8.87354 3.31641 9.55713 3.18945 10.314 3.18945C11.0757 3.18945 11.7544 3.32861 12.3501 3.60693C12.9458 3.88037 13.4072 4.26855 13.7344 4.77148C14.0664 5.27441 14.2324 5.8457 14.2324 6.48535H12.0352C12.0352 5.99707 11.8813 5.61865 11.5737 5.3501C11.2661 5.07666 10.834 4.93994 10.2773 4.93994C9.74023 4.93994 9.32275 5.05469 9.0249 5.28418C8.72705 5.50879 8.57812 5.80664 8.57812 6.17773C8.57812 6.52441 8.75146 6.81494 9.09814 7.04932C9.44971 7.28369 9.96484 7.50342 10.6436 7.7085C11.8936 8.08447 12.8042 8.55078 13.3755 9.10742C13.9468 9.66406 14.2324 10.3574 14.2324 11.1875C14.2324 12.1104 13.8833 12.8354 13.1851 13.3628C12.4868 13.8853 11.5469 14.1465 10.3652 14.1465C9.54492 14.1465 8.79785 13.9976 8.12402 13.6997C7.4502 13.397 6.93506 12.9844 6.57861 12.4619C6.22705 11.9395 6.05127 11.334 6.05127 10.6455H8.25586C8.25586 11.8223 8.95898 12.4106 10.3652 12.4106C10.8877 12.4106 11.2954 12.3057 11.5884 12.0957C11.8813 11.8809 12.0278 11.583 12.0278 11.2021ZM18.5464 11.0044L20.0112 6.0752H22.2817L19.0957 15.2305L18.9199 15.6479C18.4463 16.6831 17.665 17.2007 16.5762 17.2007C16.2686 17.2007 15.9561 17.1543 15.6387 17.0615V15.4575L15.9609 15.4648C16.3613 15.4648 16.6592 15.4038 16.8545 15.2817C17.0547 15.1597 17.2109 14.957 17.3232 14.6738L17.5723 14.022L14.7964 6.0752H17.0742L18.5464 11.0044ZM25.0649 6.0752L25.1309 6.99072C25.6973 6.28271 26.4565 5.92871 27.4087 5.92871C28.2485 5.92871 28.8735 6.17529 29.2837 6.66846C29.6938 7.16162 29.9038 7.89893 29.9136 8.88037V14H27.7969V8.93164C27.7969 8.48242 27.6992 8.15771 27.5039 7.95752C27.3086 7.75244 26.9839 7.6499 26.5298 7.6499C25.9341 7.6499 25.4873 7.90381 25.1895 8.41162V14H23.0728V6.0752H25.0649ZM34.0591 4.12695V6.0752H35.4141V7.62793H34.0591V11.583C34.0591 11.876 34.1152 12.0859 34.2275 12.2129C34.3398 12.3398 34.5547 12.4033 34.8721 12.4033C35.1064 12.4033 35.314 12.3862 35.4946 12.3521V13.9561C35.0796 14.083 34.6523 14.1465 34.2129 14.1465C32.7285 14.1465 31.9717 13.397 31.9424 11.8979V7.62793H30.7852V6.0752H31.9424V4.12695H34.0591ZM41.1855 14C41.0879 13.8096 41.0171 13.5728 40.9731 13.2896C40.4604 13.8608 39.7939 14.1465 38.9736 14.1465C38.1973 14.1465 37.5527 13.9219 37.04 13.4727C36.5322 13.0234 36.2783 12.457 36.2783 11.7734C36.2783 10.9336 36.5884 10.2891 37.2085 9.83984C37.8335 9.39062 38.7344 9.16357 39.9111 9.15869H40.8853V8.70459C40.8853 8.33838 40.79 8.04541 40.5996 7.82568C40.4141 7.60596 40.1187 7.49609 39.7134 7.49609C39.3569 7.49609 39.0762 7.58154 38.8711 7.75244C38.6709 7.92334 38.5708 8.15771 38.5708 8.45557H36.4541C36.4541 7.99658 36.5957 7.57178 36.8789 7.18115C37.1621 6.79053 37.5625 6.48535 38.0801 6.26562C38.5977 6.04102 39.1787 5.92871 39.8232 5.92871C40.7998 5.92871 41.5737 6.17529 42.145 6.66846C42.7212 7.15674 43.0093 7.84521 43.0093 8.73389V12.1689C43.0142 12.9209 43.1191 13.4897 43.3242 13.8755V14H41.1855ZM39.4351 12.5278C39.7476 12.5278 40.0356 12.4595 40.2993 12.3228C40.563 12.1812 40.7583 11.9932 40.8853 11.7588V10.3965H40.0942C39.0347 10.3965 38.4707 10.7627 38.4023 11.4951L38.395 11.6196C38.395 11.8833 38.4878 12.1006 38.6733 12.2715C38.8589 12.4424 39.1128 12.5278 39.4351 12.5278ZM47.6528 8.44092L48.9858 6.0752H51.249L48.9932 9.95703L51.3442 14H49.0737L47.6602 11.5098L46.2539 14H43.9761L46.3271 9.95703L44.0786 6.0752H46.3491L47.6528 8.44092ZM5.20898 28.8101C5.20898 28.5513 5.07959 28.3486 4.8208 28.2021C4.56689 28.0508 4.15674 27.9165 3.59033 27.7993C1.70557 27.4038 0.763184 26.603 0.763184 25.397C0.763184 24.6938 1.05371 24.1079 1.63477 23.6392C2.2207 23.1655 2.98486 22.9287 3.92725 22.9287C4.93311 22.9287 5.73633 23.1655 6.33691 23.6392C6.94238 24.1128 7.24512 24.728 7.24512 25.4849H5.12842C5.12842 25.1821 5.03076 24.9331 4.83545 24.7378C4.64014 24.5376 4.33496 24.4375 3.91992 24.4375C3.56348 24.4375 3.2876 24.5181 3.09229 24.6792C2.89697 24.8403 2.79932 25.0454 2.79932 25.2944C2.79932 25.5288 2.90918 25.7192 3.12891 25.8657C3.35352 26.0073 3.72949 26.1318 4.25684 26.2393C4.78418 26.3418 5.22852 26.459 5.58984 26.5908C6.70801 27.001 7.26709 27.7114 7.26709 28.7222C7.26709 29.4448 6.95703 30.0308 6.33691 30.48C5.7168 30.9243 4.91602 31.1465 3.93457 31.1465C3.27051 31.1465 2.67969 31.0293 2.16211 30.7949C1.64941 30.5557 1.24658 30.231 0.953613 29.8208C0.660645 29.4058 0.51416 28.959 0.51416 28.4805H2.521C2.54053 28.8564 2.67969 29.1445 2.93848 29.3447C3.19727 29.5449 3.54395 29.645 3.97852 29.645C4.38379 29.645 4.68896 29.5693 4.89404 29.418C5.104 29.2617 5.20898 29.0591 5.20898 28.8101ZM10.7021 23.9395C11.2637 23.2656 11.9692 22.9287 12.8188 22.9287C14.5376 22.9287 15.4092 23.9272 15.4336 25.9243V31H13.3169V25.9829C13.3169 25.5288 13.2192 25.1943 13.0239 24.9795C12.8286 24.7598 12.5039 24.6499 12.0498 24.6499C11.4297 24.6499 10.9805 24.8892 10.7021 25.3677V31H8.58545V19.75H10.7021V23.9395ZM16.7007 26.9644C16.7007 26.1782 16.8521 25.4775 17.1548 24.8623C17.4575 24.2471 17.8921 23.771 18.4585 23.4341C19.0298 23.0972 19.6914 22.9287 20.4434 22.9287C21.5127 22.9287 22.3843 23.2559 23.0581 23.9102C23.7368 24.5645 24.1152 25.4531 24.1934 26.5762L24.208 27.1182C24.208 28.334 23.8687 29.3105 23.1899 30.0479C22.5112 30.7803 21.6006 31.1465 20.458 31.1465C19.3154 31.1465 18.4023 30.7803 17.7188 30.0479C17.04 29.3154 16.7007 28.3193 16.7007 27.0596V26.9644ZM18.8174 27.1182C18.8174 27.8701 18.959 28.4463 19.2422 28.8467C19.5254 29.2422 19.9307 29.4399 20.458 29.4399C20.9707 29.4399 21.3711 29.2446 21.6592 28.854C21.9473 28.4585 22.0913 27.8286 22.0913 26.9644C22.0913 26.2271 21.9473 25.6558 21.6592 25.2505C21.3711 24.8452 20.9658 24.6426 20.4434 24.6426C19.9258 24.6426 19.5254 24.8452 19.2422 25.2505C18.959 25.6509 18.8174 26.2734 18.8174 27.1182ZM29.9648 25.0601C29.6768 25.021 29.4229 25.0015 29.2031 25.0015C28.4023 25.0015 27.8774 25.2725 27.6284 25.8145V31H25.5117V23.0752H27.5112L27.5698 24.02C27.9946 23.2925 28.583 22.9287 29.335 22.9287C29.5693 22.9287 29.7891 22.9604 29.9941 23.0239L29.9648 25.0601ZM33.8906 21.127V23.0752H35.2456V24.6279H33.8906V28.583C33.8906 28.876 33.9468 29.0859 34.0591 29.2129C34.1714 29.3398 34.3862 29.4033 34.7036 29.4033C34.938 29.4033 35.1455 29.3862 35.3262 29.3521V30.9561C34.9111 31.083 34.4839 31.1465 34.0444 31.1465C32.5601 31.1465 31.8032 30.397 31.7739 28.8979V24.6279H30.6167V23.0752H31.7739V21.127H33.8906ZM39.7207 29.4399C40.1113 29.4399 40.4287 29.3325 40.6729 29.1177C40.917 28.9028 41.0439 28.6172 41.0537 28.2607H43.0386C43.0337 28.7979 42.8872 29.291 42.5991 29.7402C42.311 30.1846 41.9155 30.5312 41.4126 30.7803C40.9146 31.0244 40.3628 31.1465 39.7573 31.1465C38.6245 31.1465 37.731 30.7876 37.0767 30.0698C36.4224 29.3472 36.0952 28.3511 36.0952 27.0815V26.9424C36.0952 25.7217 36.4199 24.7476 37.0693 24.02C37.7188 23.2925 38.6099 22.9287 39.7427 22.9287C40.7339 22.9287 41.5273 23.2119 42.123 23.7783C42.7236 24.3398 43.0288 25.0894 43.0386 26.0269H41.0537C41.0439 25.6167 40.917 25.2847 40.6729 25.0308C40.4287 24.772 40.1064 24.6426 39.7061 24.6426C39.2129 24.6426 38.8394 24.8232 38.5854 25.1846C38.3364 25.541 38.2119 26.1221 38.2119 26.9277V27.1475C38.2119 27.9629 38.3364 28.5488 38.5854 28.9053C38.8345 29.2617 39.2129 29.4399 39.7207 29.4399ZM48.9932 30.1943C48.4707 30.8291 47.748 31.1465 46.8252 31.1465C45.9756 31.1465 45.3262 30.9023 44.877 30.4141C44.4326 29.9258 44.2056 29.2104 44.1958 28.2681V23.0752H46.3125V28.1948C46.3125 29.02 46.6885 29.4326 47.4404 29.4326C48.1582 29.4326 48.6514 29.1836 48.9199 28.6855V23.0752H51.0439V31H49.0518L48.9932 30.1943ZM55.1748 21.127V23.0752H56.5298V24.6279H55.1748V28.583C55.1748 28.876 55.231 29.0859 55.3433 29.2129C55.4556 29.3398 55.6704 29.4033 55.9878 29.4033C56.2222 29.4033 56.4297 29.3862 56.6104 29.3521V30.9561C56.1953 31.083 55.7681 31.1465 55.3286 31.1465C53.8442 31.1465 53.0874 30.397 53.0581 28.8979V24.6279H51.9009V23.0752H53.0581V21.127H55.1748Z" transform="translate(11 1)" fill="#4F4F4F"/>
<path d="M7.54004 9.37842H3.32129V12.2349H8.27246V14H1.12402V3.33594H8.25781V5.11572H3.32129V7.65723H7.54004V9.37842ZM12.4399 8.44092L13.7729 6.0752H16.0361L13.7803 9.95703L16.1313 14H13.8608L12.4473 11.5098L11.041 14H8.76318L11.1143 9.95703L8.86572 6.0752H11.1362L12.4399 8.44092ZM21.6465 14C21.5488 13.8096 21.478 13.5728 21.4341 13.2896C20.9214 13.8608 20.2549 14.1465 19.4346 14.1465C18.6582 14.1465 18.0137 13.9219 17.501 13.4727C16.9932 13.0234 16.7393 12.457 16.7393 11.7734C16.7393 10.9336 17.0493 10.2891 17.6694 9.83984C18.2944 9.39062 19.1953 9.16357 20.3721 9.15869H21.3462V8.70459C21.3462 8.33838 21.251 8.04541 21.0605 7.82568C20.875 7.60596 20.5796 7.49609 20.1743 7.49609C19.8179 7.49609 19.5371 7.58154 19.332 7.75244C19.1318 7.92334 19.0317 8.15771 19.0317 8.45557H16.915C16.915 7.99658 17.0566 7.57178 17.3398 7.18115C17.623 6.79053 18.0234 6.48535 18.541 6.26562C19.0586 6.04102 19.6396 5.92871 20.2842 5.92871C21.2607 5.92871 22.0347 6.17529 22.606 6.66846C23.1821 7.15674 23.4702 7.84521 23.4702 8.73389V12.1689C23.4751 12.9209 23.5801 13.4897 23.7852 13.8755V14H21.6465ZM19.896 12.5278C20.2085 12.5278 20.4966 12.4595 20.7603 12.3228C21.0239 12.1812 21.2192 11.9932 21.3462 11.7588V10.3965H20.5552C19.4956 10.3965 18.9316 10.7627 18.8633 11.4951L18.856 11.6196C18.856 11.8833 18.9487 12.1006 19.1343 12.2715C19.3198 12.4424 19.5737 12.5278 19.896 12.5278ZM27.0811 6.0752L27.147 6.96143C27.7085 6.27295 28.4678 5.92871 29.4248 5.92871C30.4453 5.92871 31.146 6.33154 31.5269 7.13721C32.0835 6.33154 32.877 5.92871 33.9072 5.92871C34.7666 5.92871 35.4062 6.18018 35.8262 6.68311C36.2461 7.18115 36.4561 7.93311 36.4561 8.93896V14H34.332V8.94629C34.332 8.49707 34.2441 8.16992 34.0684 7.96484C33.8926 7.75488 33.5825 7.6499 33.1382 7.6499C32.5034 7.6499 32.064 7.95264 31.8198 8.55811L31.8271 14H29.7104V8.95361C29.7104 8.49463 29.6201 8.1626 29.4395 7.95752C29.2588 7.75244 28.9512 7.6499 28.5166 7.6499C27.916 7.6499 27.4814 7.89893 27.2129 8.39697V14H25.0962V6.0752H27.0811ZM45.2231 10.1108C45.2231 11.3315 44.9448 12.3105 44.3882 13.0479C43.8364 13.7803 43.0894 14.1465 42.147 14.1465C41.3462 14.1465 40.6992 13.8682 40.2061 13.3115V17.0469H38.0894V6.0752H40.0522L40.1255 6.85156C40.6382 6.23633 41.3071 5.92871 42.1323 5.92871C43.1089 5.92871 43.8682 6.29004 44.4102 7.0127C44.9521 7.73535 45.2231 8.73145 45.2231 10.001V10.1108ZM43.1064 9.95703C43.1064 9.21973 42.9746 8.65088 42.7109 8.25049C42.4521 7.8501 42.0737 7.6499 41.5757 7.6499C40.9116 7.6499 40.4551 7.90381 40.2061 8.41162V11.6562C40.4648 12.1787 40.9263 12.4399 41.5903 12.4399C42.6011 12.4399 43.1064 11.6123 43.1064 9.95703ZM48.7754 14H46.6514V2.75H48.7754V14ZM54.1733 14.1465C53.0112 14.1465 52.064 13.79 51.3315 13.0771C50.604 12.3643 50.2402 11.4146 50.2402 10.228V10.0229C50.2402 9.22705 50.394 8.5166 50.7017 7.8916C51.0093 7.26172 51.4438 6.77832 52.0054 6.44141C52.5718 6.09961 53.2163 5.92871 53.939 5.92871C55.0229 5.92871 55.875 6.27051 56.4951 6.9541C57.1201 7.6377 57.4326 8.60693 57.4326 9.86182V10.7261H52.3862C52.4546 11.2437 52.6597 11.6587 53.0015 11.9712C53.3481 12.2837 53.7852 12.4399 54.3125 12.4399C55.1279 12.4399 55.7651 12.1445 56.2241 11.5537L57.2642 12.7183C56.9468 13.1675 56.5171 13.519 55.9751 13.7729C55.4331 14.022 54.8325 14.1465 54.1733 14.1465ZM53.9316 7.64258C53.5117 7.64258 53.1699 7.78418 52.9062 8.06738C52.6475 8.35059 52.4814 8.75586 52.4082 9.2832H55.3525V9.11475C55.3428 8.646 55.2158 8.28467 54.9717 8.03076C54.7275 7.77197 54.3809 7.64258 53.9316 7.64258ZM16.6733 29.4399C17.064 29.4399 17.3813 29.3325 17.6255 29.1177C17.8696 28.9028 17.9966 28.6172 18.0063 28.2607H19.9912C19.9863 28.7979 19.8398 29.291 19.5518 29.7402C19.2637 30.1846 18.8682 30.5312 18.3652 30.7803C17.8672 31.0244 17.3154 31.1465 16.71 31.1465C15.5771 31.1465 14.6836 30.7876 14.0293 30.0698C13.375 29.3472 13.0479 28.3511 13.0479 27.0815V26.9424C13.0479 25.7217 13.3726 24.7476 14.022 24.02C14.6714 23.2925 15.5625 22.9287 16.6953 22.9287C17.6865 22.9287 18.48 23.2119 19.0757 23.7783C19.6763 24.3398 19.9814 25.0894 19.9912 26.0269H18.0063C17.9966 25.6167 17.8696 25.2847 17.6255 25.0308C17.3813 24.772 17.0591 24.6426 16.6587 24.6426C16.1655 24.6426 15.792 24.8232 15.5381 25.1846C15.2891 25.541 15.1646 26.1221 15.1646 26.9277V27.1475C15.1646 27.9629 15.2891 28.5488 15.5381 28.9053C15.7871 29.2617 16.1655 29.4399 16.6733 29.4399ZM20.8701 26.9644C20.8701 26.1782 21.0215 25.4775 21.3242 24.8623C21.627 24.2471 22.0615 23.771 22.6279 23.4341C23.1992 23.0972 23.8608 22.9287 24.6128 22.9287C25.6821 22.9287 26.5537 23.2559 27.2275 23.9102C27.9062 24.5645 28.2847 25.4531 28.3628 26.5762L28.3774 27.1182C28.3774 28.334 28.0381 29.3105 27.3594 30.0479C26.6807 30.7803 25.77 31.1465 24.6274 31.1465C23.4849 31.1465 22.5718 30.7803 21.8882 30.0479C21.2095 29.3154 20.8701 28.3193 20.8701 27.0596V26.9644ZM22.9868 27.1182C22.9868 27.8701 23.1284 28.4463 23.4116 28.8467C23.6948 29.2422 24.1001 29.4399 24.6274 29.4399C25.1401 29.4399 25.5405 29.2446 25.8286 28.854C26.1167 28.4585 26.2607 27.8286 26.2607 26.9644C26.2607 26.2271 26.1167 25.6558 25.8286 25.2505C25.5405 24.8452 25.1353 24.6426 24.6128 24.6426C24.0952 24.6426 23.6948 24.8452 23.4116 25.2505C23.1284 25.6509 22.9868 26.2734 22.9868 27.1182ZM29.3516 26.979C29.3516 25.7437 29.6274 24.7598 30.1792 24.0273C30.7358 23.2949 31.4951 22.9287 32.457 22.9287C33.2285 22.9287 33.8657 23.2168 34.3687 23.793V19.75H36.4927V31H34.5811L34.4785 30.1577C33.9512 30.8169 33.2725 31.1465 32.4424 31.1465C31.5098 31.1465 30.7603 30.7803 30.1938 30.0479C29.6323 29.3105 29.3516 28.2876 29.3516 26.979ZM31.4683 27.1328C31.4683 27.875 31.5977 28.4438 31.8564 28.8394C32.1152 29.2349 32.4912 29.4326 32.9844 29.4326C33.6387 29.4326 34.1001 29.1567 34.3687 28.605V25.4775C34.105 24.9258 33.6484 24.6499 32.999 24.6499C31.9785 24.6499 31.4683 25.4775 31.4683 27.1328ZM41.7808 31.1465C40.6187 31.1465 39.6714 30.79 38.939 30.0771C38.2114 29.3643 37.8477 28.4146 37.8477 27.228V27.0229C37.8477 26.2271 38.0015 25.5166 38.3091 24.8916C38.6167 24.2617 39.0513 23.7783 39.6128 23.4414C40.1792 23.0996 40.8237 22.9287 41.5464 22.9287C42.6304 22.9287 43.4824 23.2705 44.1025 23.9541C44.7275 24.6377 45.04 25.6069 45.04 26.8618V27.7261H39.9937C40.062 28.2437 40.2671 28.6587 40.6089 28.9712C40.9556 29.2837 41.3926 29.4399 41.9199 29.4399C42.7354 29.4399 43.3726 29.1445 43.8315 28.5537L44.8716 29.7183C44.5542 30.1675 44.1245 30.519 43.5825 30.7729C43.0405 31.022 42.4399 31.1465 41.7808 31.1465ZM41.5391 24.6426C41.1191 24.6426 40.7773 24.7842 40.5137 25.0674C40.2549 25.3506 40.0889 25.7559 40.0156 26.2832H42.96V26.1147C42.9502 25.646 42.8232 25.2847 42.5791 25.0308C42.335 24.772 41.9883 24.6426 41.5391 24.6426Z" transform="translate(104 1)" fill="#4F4F4F"/>
<path d="M9.8457 8.90967C9.8457 9.95947 9.66016 10.8799 9.28906 11.6709C8.91797 12.4619 8.38574 13.0723 7.69238 13.502C7.00391 13.9316 6.21289 14.1465 5.31934 14.1465C4.43555 14.1465 3.64697 13.9341 2.95361 13.5093C2.26025 13.0845 1.72314 12.479 1.34229 11.6929C0.961426 10.9019 0.768555 9.99365 0.763672 8.96826V8.44092C0.763672 7.39111 0.95166 6.46826 1.32764 5.67236C1.7085 4.87158 2.24316 4.25879 2.93164 3.83398C3.625 3.4043 4.41602 3.18945 5.30469 3.18945C6.19336 3.18945 6.98193 3.4043 7.67041 3.83398C8.36377 4.25879 8.89844 4.87158 9.27441 5.67236C9.65527 6.46826 9.8457 7.38867 9.8457 8.43359V8.90967ZM7.61914 8.42627C7.61914 7.30811 7.41895 6.4585 7.01855 5.87744C6.61816 5.29639 6.04688 5.00586 5.30469 5.00586C4.56738 5.00586 3.99854 5.29395 3.59814 5.87012C3.19775 6.44141 2.99512 7.28125 2.99023 8.38965V8.90967C2.99023 9.99854 3.19043 10.8433 3.59082 11.4438C3.99121 12.0444 4.56738 12.3447 5.31934 12.3447C6.05664 12.3447 6.62305 12.0566 7.01855 11.4805C7.41406 10.8994 7.61426 10.0547 7.61914 8.94629V8.42627ZM16.0493 13.1943C15.5269 13.8291 14.8042 14.1465 13.8813 14.1465C13.0317 14.1465 12.3823 13.9023 11.9331 13.4141C11.4888 12.9258 11.2617 12.2104 11.252 11.2681V6.0752H13.3687V11.1948C13.3687 12.02 13.7446 12.4326 14.4966 12.4326C15.2144 12.4326 15.7075 12.1836 15.9761 11.6855V6.0752H18.1001V14H16.1079L16.0493 13.1943ZM22.231 4.12695V6.0752H23.5859V7.62793H22.231V11.583C22.231 11.876 22.2871 12.0859 22.3994 12.2129C22.5117 12.3398 22.7266 12.4033 23.0439 12.4033C23.2783 12.4033 23.4858 12.3862 23.6665 12.3521V13.9561C23.2515 14.083 22.8242 14.1465 22.3848 14.1465C20.9004 14.1465 20.1436 13.397 20.1143 11.8979V7.62793H18.957V6.0752H20.1143V4.12695H22.231ZM31.8989 10.1108C31.8989 11.3315 31.6206 12.3105 31.064 13.0479C30.5122 13.7803 29.7651 14.1465 28.8228 14.1465C28.022 14.1465 27.375 13.8682 26.8818 13.3115V17.0469H24.7651V6.0752H26.728L26.8013 6.85156C27.314 6.23633 27.9829 5.92871 28.8081 5.92871C29.7847 5.92871 30.5439 6.29004 31.0859 7.0127C31.6279 7.73535 31.8989 8.73145 31.8989 10.001V10.1108ZM29.7822 9.95703C29.7822 9.21973 29.6504 8.65088 29.3867 8.25049C29.1279 7.8501 28.7495 7.6499 28.2515 7.6499C27.5874 7.6499 27.1309 7.90381 26.8818 8.41162V11.6562C27.1406 12.1787 27.6021 12.4399 28.2661 12.4399C29.2769 12.4399 29.7822 11.6123 29.7822 9.95703ZM37.9634 13.1943C37.4409 13.8291 36.7183 14.1465 35.7954 14.1465C34.9458 14.1465 34.2964 13.9023 33.8472 13.4141C33.4028 12.9258 33.1758 12.2104 33.166 11.2681V6.0752H35.2827V11.1948C35.2827 12.02 35.6587 12.4326 36.4106 12.4326C37.1284 12.4326 37.6216 12.1836 37.8901 11.6855V6.0752H40.0142V14H38.022L37.9634 13.1943ZM44.145 4.12695V6.0752H45.5V7.62793H44.145V11.583C44.145 11.876 44.2012 12.0859 44.3135 12.2129C44.4258 12.3398 44.6406 12.4033 44.958 12.4033C45.1924 12.4033 45.3999 12.3862 45.5806 12.3521V13.9561C45.1655 14.083 44.7383 14.1465 44.2988 14.1465C42.8145 14.1465 42.0576 13.397 42.0283 11.8979V7.62793H40.8711V6.0752H42.0283V4.12695H44.145Z" transform="translate(207 8)" fill="#4F4F4F"/>
<path d="M3.135 11.13L0.72 7.56H3.09L3.855 8.76C3.965 8.97 4.09 9.185 4.23 9.405C4.37 9.615 4.505 9.825 4.635 10.035H4.695C4.795 9.825 4.895 9.61 4.995 9.39C5.105 9.17 5.21 8.96 5.31 8.76L5.97 7.56H8.28L5.85 11.385L8.43 15H6.06L5.205 13.77C5.065 13.56 4.92 13.345 4.77 13.125C4.63 12.905 4.49 12.69 4.35 12.48H4.29C4.18 12.69 4.065 12.905 3.945 13.125C3.825 13.335 3.71 13.55 3.6 13.77L2.865 15H0.555L3.135 11.13ZM19.0383 7.53H25.9383V9.09H19.0383V7.53ZM19.0383 10.995H25.9383V12.555H19.0383V10.995ZM41.0916 11.04V9.435C41.0916 9.135 41.0966 8.79 41.1066 8.4C41.1266 8 41.1466 7.65 41.1666 7.35H41.1066C40.9466 7.62 40.7766 7.89 40.5966 8.16C40.4166 8.43 40.2416 8.7 40.0716 8.97L38.6316 11.04H41.0916ZM44.3466 12.72H43.1466V15H41.0916V12.72H36.5016V11.205L40.4766 5.475H43.1466V11.04H44.3466V12.72ZM3.135 30.13L0.72 26.56H3.09L3.855 27.76C3.965 27.97 4.09 28.185 4.23 28.405C4.37 28.615 4.505 28.825 4.635 29.035H4.695C4.795 28.825 4.895 28.61 4.995 28.39C5.105 28.17 5.21 27.96 5.31 27.76L5.97 26.56H8.28L5.85 30.385L8.43 34H6.06L5.205 32.77C5.065 32.56 4.92 32.345 4.77 32.125C4.63 31.905 4.49 31.69 4.35 31.48H4.29C4.18 31.69 4.065 31.905 3.945 32.125C3.825 32.335 3.71 32.55 3.6 32.77L2.865 34H0.555L3.135 30.13ZM45.8407 32.74C46.5207 32.17 47.1407 31.64 47.7007 31.15C48.2607 30.65 48.7407 30.185 49.1407 29.755C49.5407 29.325 49.8507 28.92 50.0707 28.54C50.2907 28.16 50.4007 27.8 50.4007 27.46C50.4007 26.99 50.2657 26.635 49.9957 26.395C49.7257 26.145 49.3407 26.02 48.8407 26.02C48.4607 26.02 48.1107 26.12 47.7907 26.32C47.4807 26.51 47.1907 26.735 46.9207 26.995L45.7357 25.81C45.9857 25.56 46.2307 25.34 46.4707 25.15C46.7207 24.96 46.9807 24.805 47.2507 24.685C47.5307 24.555 47.8207 24.46 48.1207 24.4C48.4307 24.33 48.7707 24.295 49.1407 24.295C49.6407 24.295 50.0957 24.37 50.5057 24.52C50.9157 24.66 51.2657 24.865 51.5557 25.135C51.8557 25.395 52.0857 25.71 52.2457 26.08C52.4157 26.45 52.5007 26.865 52.5007 27.325C52.5007 27.725 52.4057 28.135 52.2157 28.555C52.0257 28.965 51.7657 29.38 51.4357 29.8C51.1157 30.21 50.7457 30.625 50.3257 31.045C49.9057 31.455 49.4657 31.86 49.0057 32.26C49.2757 32.23 49.5657 32.205 49.8757 32.185C50.1957 32.155 50.4807 32.14 50.7307 32.14H52.9957V34H45.8407V32.74Z" transform="translate(108 47)" fill="black"/>
<path d="M21.6783 29.83H19.0383V28.27H21.6783V25.51H23.2983V28.27H25.9383V29.83H23.2983V32.59H21.6783V29.83ZM28.0324 26.53H34.9324V28.09H28.0324V26.53ZM28.0324 29.995H34.9324V31.555H28.0324V29.995Z" transform="translate(108 47)" fill="#0072B2"/>
<path d="M3.135 11.13L0.72 7.56H3.09L3.855 8.76C3.965 8.97 4.09 9.185 4.23 9.405C4.37 9.615 4.505 9.825 4.635 10.035H4.695C4.795 9.825 4.895 9.61 4.995 9.39C5.105 9.17 5.21 8.96 5.31 8.76L5.97 7.56H8.28L5.85 11.385L8.43 15H6.06L5.205 13.77C5.065 13.56 4.92 13.345 4.77 13.125C4.63 12.905 4.49 12.69 4.35 12.48H4.29C4.18 12.69 4.065 12.905 3.945 13.125C3.825 13.335 3.71 13.55 3.6 13.77L2.865 15H0.555L3.135 11.13ZM19.0383 7.53H25.9383V9.09H19.0383V7.53ZM19.0383 10.995H25.9383V12.555H19.0383V10.995ZM41.0916 11.04V9.435C41.0916 9.135 41.0966 8.79 41.1066 8.4C41.1266 8 41.1466 7.65 41.1666 7.35H41.1066C40.9466 7.62 40.7766 7.89 40.5966 8.16C40.4166 8.43 40.2416 8.7 40.0716 8.97L38.6316 11.04H41.0916ZM44.3466 12.72H43.1466V15H41.0916V12.72H36.5016V11.205L40.4766 5.475H43.1466V11.04H44.3466V12.72ZM3.135 30.13L0.72 26.56H3.09L3.855 27.76C3.965 27.97 4.09 28.185 4.23 28.405C4.37 28.615 4.505 28.825 4.635 29.035H4.695C4.795 28.825 4.895 28.61 4.995 28.39C5.105 28.17 5.21 27.96 5.31 27.76L5.97 26.56H8.28L5.85 30.385L8.43 34H6.06L5.205 32.77C5.065 32.56 4.92 32.345 4.77 32.125C4.63 31.905 4.49 31.69 4.35 31.48H4.29C4.18 31.69 4.065 31.905 3.945 32.125C3.825 32.335 3.71 32.55 3.6 32.77L2.865 34H0.555L3.135 30.13ZM45.8407 32.74C46.5207 32.17 47.1407 31.64 47.7007 31.15C48.2607 30.65 48.7407 30.185 49.1407 29.755C49.5407 29.325 49.8507 28.92 50.0707 28.54C50.2907 28.16 50.4007 27.8 50.4007 27.46C50.4007 26.99 50.2657 26.635 49.9957 26.395C49.7257 26.145 49.3407 26.02 48.8407 26.02C48.4607 26.02 48.1107 26.12 47.7907 26.32C47.4807 26.51 47.1907 26.735 46.9207 26.995L45.7357 25.81C45.9857 25.56 46.2307 25.34 46.4707 25.15C46.7207 24.96 46.9807 24.805 47.2507 24.685C47.5307 24.555 47.8207 24.46 48.1207 24.4C48.4307 24.33 48.7707 24.295 49.1407 24.295C49.6407 24.295 50.0957 24.37 50.5057 24.52C50.9157 24.66 51.2657 24.865 51.5557 25.135C51.8557 25.395 52.0857 25.71 52.2457 26.08C52.4157 26.45 52.5007 26.865 52.5007 27.325C52.5007 27.725 52.4057 28.135 52.2157 28.555C52.0257 28.965 51.7657 29.38 51.4357 29.8C51.1157 30.21 50.7457 30.625 50.3257 31.045C49.9057 31.455 49.4657 31.86 49.0057 32.26C49.2757 32.23 49.5657 32.205 49.8757 32.185C50.1957 32.155 50.4807 32.14 50.7307 32.14H52.9957V34H45.8407V32.74Z" transform="translate(108 95)" fill="black"/>
<path d="M19.0383 28.27H25.9383V29.83H19.0383V28.27ZM28.0324 26.53H34.9324V28.09H28.0324V26.53ZM28.0324 29.995H34.9324V31.555H28.0324V29.995Z" transform="translate(108 95)" fill="#0072B2"/>
<path d="M3.135 11.13L0.72 7.56H3.09L3.855 8.76C3.965 8.97 4.09 9.185 4.23 9.405C4.37 9.615 4.505 9.825 4.635 10.035H4.695C4.795 9.825 4.895 9.61 4.995 9.39C5.105 9.17 5.21 8.96 5.31 8.76L5.97 7.56H8.28L5.85 11.385L8.43 15H6.06L5.205 13.77C5.065 13.56 4.92 13.345 4.77 13.125C4.63 12.905 4.49 12.69 4.35 12.48H4.29C4.18 12.69 4.065 12.905 3.945 13.125C3.825 13.335 3.71 13.55 3.6 13.77L2.865 15H0.555L3.135 11.13ZM19.0383 7.53H25.9383V9.09H19.0383V7.53ZM19.0383 10.995H25.9383V12.555H19.0383V10.995ZM41.0916 11.04V9.435C41.0916 9.135 41.0966 8.79 41.1066 8.4C41.1266 8 41.1466 7.65 41.1666 7.35H41.1066C40.9466 7.62 40.7766 7.89 40.5966 8.16C40.4166 8.43 40.2416 8.7 40.0716 8.97L38.6316 11.04H41.0916ZM44.3466 12.72H43.1466V15H41.0916V12.72H36.5016V11.205L40.4766 5.475H43.1466V11.04H44.3466V12.72ZM3.135 30.13L0.72 26.56H3.09L3.855 27.76C3.965 27.97 4.09 28.185 4.23 28.405C4.37 28.615 4.505 28.825 4.635 29.035H4.695C4.795 28.825 4.895 28.61 4.995 28.39C5.105 28.17 5.21 27.96 5.31 27.76L5.97 26.56H8.28L5.85 30.385L8.43 34H6.06L5.205 32.77C5.065 32.56 4.92 32.345 4.77 32.125C4.63 31.905 4.49 31.69 4.35 31.48H4.29C4.18 31.69 4.065 31.905 3.945 32.125C3.825 32.335 3.71 32.55 3.6 32.77L2.865 34H0.555L3.135 30.13ZM45.8407 32.74C46.5207 32.17 47.1407 31.64 47.7007 31.15C48.2607 30.65 48.7407 30.185 49.1407 29.755C49.5407 29.325 49.8507 28.92 50.0707 28.54C50.2907 28.16 50.4007 27.8 50.4007 27.46C50.4007 26.99 50.2657 26.635 49.9957 26.395C49.7257 26.145 49.3407 26.02 48.8407 26.02C48.4607 26.02 48.1107 26.12 47.7907 26.32C47.4807 26.51 47.1907 26.735 46.9207 26.995L45.7357 25.81C45.9857 25.56 46.2307 25.34 46.4707 25.15C46.7207 24.96 46.9807 24.805 47.2507 24.685C47.5307 24.555 47.8207 24.46 48.1207 24.4C48.4307 24.33 48.7707 24.295 49.1407 24.295C49.6407 24.295 50.0957 24.37 50.5057 24.52C50.9157 24.66 51.2657 24.865 51.5557 25.135C51.8557 25.395 52.0857 25.71 52.2457 26.08C52.4157 26.45 52.5007 26.865 52.5007 27.325C52.5007 27.725 52.4057 28.135 52.2157 28.555C52.0257 28.965 51.7657 29.38 51.4357 29.8C51.1157 30.21 50.7457 30.625 50.3257 31.045C49.9057 31.455 49.4657 31.86 49.0057 32.26C49.2757 32.23 49.5657 32.205 49.8757 32.185C50.1957 32.155 50.4807 32.14 50.7307 32.14H52.9957V34H45.8407V32.74Z" transform="translate(108 140)" fill="black"/>
<path d="M19.7883 31.975L21.2433 29.62L18.9483 28.6L19.2933 27.535L21.7233 28.18L21.9033 25.51H23.0733L23.2533 28.18L25.6833 27.535L26.0283 28.6L23.7333 29.62L25.1883 31.975L24.2283 32.635L22.4883 30.505L20.7483 32.635L19.7883 31.975ZM28.0324 26.53H34.9324V28.09H28.0324V26.53ZM28.0324 29.995H34.9324V31.555H28.0324V29.995Z" transform="translate(108 140)" fill="#0072B2"/>
<path d="M3.135 11.13L0.72 7.56H3.09L3.855 8.76C3.965 8.97 4.09 9.185 4.23 9.405C4.37 9.615 4.505 9.825 4.635 10.035H4.695C4.795 9.825 4.895 9.61 4.995 9.39C5.105 9.17 5.21 8.96 5.31 8.76L5.97 7.56H8.28L5.85 11.385L8.43 15H6.06L5.205 13.77C5.065 13.56 4.92 13.345 4.77 13.125C4.63 12.905 4.49 12.69 4.35 12.48H4.29C4.18 12.69 4.065 12.905 3.945 13.125C3.825 13.335 3.71 13.55 3.6 13.77L2.865 15H0.555L3.135 11.13ZM19.0383 7.53H25.9383V9.09H19.0383V7.53ZM19.0383 10.995H25.9383V12.555H19.0383V10.995ZM41.0916 11.04V9.435C41.0916 9.135 41.0966 8.79 41.1066 8.4C41.1266 8 41.1466 7.65 41.1666 7.35H41.1066C40.9466 7.62 40.7766 7.89 40.5966 8.16C40.4166 8.43 40.2416 8.7 40.0716 8.97L38.6316 11.04H41.0916ZM44.3466 12.72H43.1466V15H41.0916V12.72H36.5016V11.205L40.4766 5.475H43.1466V11.04H44.3466V12.72ZM3.135 30.13L0.72 26.56H3.09L3.855 27.76C3.965 27.97 4.09 28.185 4.23 28.405C4.37 28.615 4.505 28.825 4.635 29.035H4.695C4.795 28.825 4.895 28.61 4.995 28.39C5.105 28.17 5.21 27.96 5.31 27.76L5.97 26.56H8.28L5.85 30.385L8.43 34H6.06L5.205 32.77C5.065 32.56 4.92 32.345 4.77 32.125C4.63 31.905 4.49 31.69 4.35 31.48H4.29C4.18 31.69 4.065 31.905 3.945 32.125C3.825 32.335 3.71 32.55 3.6 32.77L2.865 34H0.555L3.135 30.13ZM45.8407 32.74C46.5207 32.17 47.1407 31.64 47.7007 31.15C48.2607 30.65 48.7407 30.185 49.1407 29.755C49.5407 29.325 49.8507 28.92 50.0707 28.54C50.2907 28.16 50.4007 27.8 50.4007 27.46C50.4007 26.99 50.2657 26.635 49.9957 26.395C49.7257 26.145 49.3407 26.02 48.8407 26.02C48.4607 26.02 48.1107 26.12 47.7907 26.32C47.4807 26.51 47.1907 26.735 46.9207 26.995L45.7357 25.81C45.9857 25.56 46.2307 25.34 46.4707 25.15C46.7207 24.96 46.9807 24.805 47.2507 24.685C47.5307 24.555 47.8207 24.46 48.1207 24.4C48.4307 24.33 48.7707 24.295 49.1407 24.295C49.6407 24.295 50.0957 24.37 50.5057 24.52C50.9157 24.66 51.2657 24.865 51.5557 25.135C51.8557 25.395 52.0857 25.71 52.2457 26.08C52.4157 26.45 52.5007 26.865 52.5007 27.325C52.5007 27.725 52.4057 28.135 52.2157 28.555C52.0257 28.965 51.7657 29.38 51.4357 29.8C51.1157 30.21 50.7457 30.625 50.3257 31.045C49.9057 31.455 49.4657 31.86 49.0057 32.26C49.2757 32.23 49.5657 32.205 49.8757 32.185C50.1957 32.155 50.4807 32.14 50.7307 32.14H52.9957V34H45.8407V32.74Z" transform="translate(108 189)" fill="black"/>
<path d="M20.9433 36.4H19.0983L24.0333 23.35H25.8783L20.9433 36.4ZM28.0324 26.53H34.9324V28.09H28.0324V26.53ZM28.0324 29.995H34.9324V31.555H28.0324V29.995Z" transform="translate(108 189)" fill="#0072B2"/>
<path d="M3.135 11.13L0.72 7.56H3.09L3.855 8.76C3.965 8.97 4.09 9.185 4.23 9.405C4.37 9.615 4.505 9.825 4.635 10.035H4.695C4.795 9.825 4.895 9.61 4.995 9.39C5.105 9.17 5.21 8.96 5.31 8.76L5.97 7.56H8.28L5.85 11.385L8.43 15H6.06L5.205 13.77C5.065 13.56 4.92 13.345 4.77 13.125C4.63 12.905 4.49 12.69 4.35 12.48H4.29C4.18 12.69 4.065 12.905 3.945 13.125C3.825 13.335 3.71 13.55 3.6 13.77L2.865 15H0.555L3.135 11.13ZM19.0383 7.53H25.9383V9.09H19.0383V7.53ZM19.0383 10.995H25.9383V12.555H19.0383V10.995ZM41.0916 11.04V9.435C41.0916 9.135 41.0966 8.79 41.1066 8.4C41.1266 8 41.1466 7.65 41.1666 7.35H41.1066C40.9466 7.62 40.7766 7.89 40.5966 8.16C40.4166 8.43 40.2416 8.7 40.0716 8.97L38.6316 11.04H41.0916ZM44.3466 12.72H43.1466V15H41.0916V12.72H36.5016V11.205L40.4766 5.475H43.1466V11.04H44.3466V12.72ZM3.135 30.13L0.72 26.56H3.09L3.855 27.76C3.965 27.97 4.09 28.185 4.23 28.405C4.37 28.615 4.505 28.825 4.635 29.035H4.695C4.795 28.825 4.895 28.61 4.995 28.39C5.105 28.17 5.21 27.96 5.31 27.76L5.97 26.56H8.28L5.85 30.385L8.43 34H6.06L5.205 32.77C5.065 32.56 4.92 32.345 4.77 32.125C4.63 31.905 4.49 31.69 4.35 31.48H4.29C4.18 31.69 4.065 31.905 3.945 32.125C3.825 32.335 3.71 32.55 3.6 32.77L2.865 34H0.555L3.135 30.13ZM54.8348 32.74C55.5148 32.17 56.1348 31.64 56.6948 31.15C57.2548 30.65 57.7348 30.185 58.1348 29.755C58.5348 29.325 58.8448 28.92 59.0648 28.54C59.2848 28.16 59.3948 27.8 59.3948 27.46C59.3948 26.99 59.2598 26.635 58.9898 26.395C58.7198 26.145 58.3348 26.02 57.8348 26.02C57.4548 26.02 57.1048 26.12 56.7848 26.32C56.4748 26.51 56.1848 26.735 55.9148 26.995L54.7298 25.81C54.9798 25.56 55.2248 25.34 55.4648 25.15C55.7148 24.96 55.9748 24.805 56.2448 24.685C56.5248 24.555 56.8148 24.46 57.1148 24.4C57.4248 24.33 57.7648 24.295 58.1348 24.295C58.6348 24.295 59.0898 24.37 59.4998 24.52C59.9098 24.66 60.2598 24.865 60.5498 25.135C60.8498 25.395 61.0798 25.71 61.2398 26.08C61.4098 26.45 61.4948 26.865 61.4948 27.325C61.4948 27.725 61.3998 28.135 61.2098 28.555C61.0198 28.965 60.7598 29.38 60.4298 29.8C60.1098 30.21 59.7398 30.625 59.3198 31.045C58.8998 31.455 58.4598 31.86 57.9998 32.26C58.2698 32.23 58.5598 32.205 58.8698 32.185C59.1898 32.155 59.4748 32.14 59.7248 32.14H61.9898V34H54.8348V32.74Z" transform="translate(108 240)" fill="black"/>
<path d="M19.7883 31.975L21.2433 29.62L18.9483 28.6L19.2933 27.535L21.7233 28.18L21.9033 25.51H23.0733L23.2533 28.18L25.6833 27.535L26.0283 28.6L23.7333 29.62L25.1883 31.975L24.2283 32.635L22.4883 30.505L20.7483 32.635L19.7883 31.975ZM28.7824 31.975L30.2374 29.62L27.9424 28.6L28.2874 27.535L30.7174 28.18L30.8974 25.51H32.0674L32.2474 28.18L34.6774 27.535L35.0224 28.6L32.7274 29.62L34.1824 31.975L33.2224 32.635L31.4824 30.505L29.7424 32.635L28.7824 31.975ZM37.0266 26.53H43.9266V28.09H37.0266V26.53ZM37.0266 29.995H43.9266V31.555H37.0266V29.995Z" transform="translate(108 240)" fill="#0072B2"/>
<path d="M4.71 13.53C4.9 13.53 5.08 13.5 5.25 13.44C5.43 13.38 5.585 13.29 5.715 13.17C5.855 13.04 5.965 12.88 6.045 12.69C6.125 12.49 6.165 12.255 6.165 11.985C6.165 11.495 6.035 11.145 5.775 10.935C5.515 10.715 5.175 10.605 4.755 10.605C4.475 10.605 4.185 10.675 3.885 10.815C3.585 10.955 3.29 11.195 3 11.535C3.06 11.915 3.145 12.235 3.255 12.495C3.375 12.745 3.51 12.95 3.66 13.11C3.81 13.26 3.975 13.37 4.155 13.44C4.335 13.5 4.52 13.53 4.71 13.53ZM6.885 7.755C6.685 7.575 6.435 7.42 6.135 7.29C5.835 7.15 5.525 7.08 5.205 7.08C4.915 7.08 4.635 7.135 4.365 7.245C4.105 7.345 3.87 7.515 3.66 7.755C3.46 7.985 3.295 8.29 3.165 8.67C3.035 9.05 2.96 9.52 2.94 10.08C3.28 9.75 3.655 9.495 4.065 9.315C4.485 9.135 4.875 9.045 5.235 9.045C5.655 9.045 6.04 9.105 6.39 9.225C6.75 9.345 7.06 9.525 7.32 9.765C7.59 10.005 7.8 10.31 7.95 10.68C8.1 11.05 8.175 11.485 8.175 11.985C8.175 12.485 8.08 12.93 7.89 13.32C7.71 13.71 7.46 14.045 7.14 14.325C6.83 14.605 6.47 14.82 6.06 14.97C5.65 15.11 5.215 15.18 4.755 15.18C4.265 15.18 3.79 15.09 3.33 14.91C2.87 14.73 2.46 14.45 2.1 14.07C1.74 13.69 1.45 13.205 1.23 12.615C1.01 12.015 0.9 11.295 0.9 10.455C0.9 9.565 1.015 8.795 1.245 8.145C1.475 7.495 1.78 6.96 2.16 6.54C2.55 6.12 2.99 5.81 3.48 5.61C3.97 5.4 4.48 5.295 5.01 5.295C5.69 5.295 6.285 5.41 6.795 5.64C7.305 5.86 7.72 6.125 8.04 6.435L6.885 7.755Z" transform="translate(226 57)" fill="black"/>
<path d="M0.87 13.74C1.55 13.17 2.17 12.64 2.73 12.15C3.29 11.65 3.77 11.185 4.17 10.755C4.57 10.325 4.88 9.92 5.1 9.54C5.32 9.16 5.43 8.8 5.43 8.46C5.43 7.99 5.295 7.635 5.025 7.395C4.755 7.145 4.37 7.02 3.87 7.02C3.49 7.02 3.14 7.12 2.82 7.32C2.51 7.51 2.22 7.735 1.95 7.995L0.765 6.81C1.015 6.56 1.26 6.34 1.5 6.15C1.75 5.96 2.01 5.805 2.28 5.685C2.56 5.555 2.85 5.46 3.15 5.4C3.46 5.33 3.8 5.295 4.17 5.295C4.67 5.295 5.125 5.37 5.535 5.52C5.945 5.66 6.295 5.865 6.585 6.135C6.885 6.395 7.115 6.71 7.275 7.08C7.445 7.45 7.53 7.865 7.53 8.325C7.53 8.725 7.435 9.135 7.245 9.555C7.055 9.965 6.795 10.38 6.465 10.8C6.145 11.21 5.775 11.625 5.355 12.045C4.935 12.455 4.495 12.86 4.035 13.26C4.305 13.23 4.595 13.205 4.905 13.185C5.225 13.155 5.51 13.14 5.76 13.14H8.025V15H0.87V13.74Z" transform="translate(226 112)" fill="black"/>
<path d="M2.82 12.315C2.82 12.735 2.985 13.065 3.315 13.305C3.645 13.535 4.055 13.65 4.545 13.65C4.995 13.65 5.355 13.555 5.625 13.365C5.905 13.165 6.045 12.865 6.045 12.465C6.045 12.245 5.99 12.06 5.88 11.91C5.77 11.76 5.61 11.625 5.4 11.505C5.2 11.375 4.96 11.26 4.68 11.16C4.4 11.05 4.09 10.93 3.75 10.8C3.48 11 3.255 11.225 3.075 11.475C2.905 11.725 2.82 12.005 2.82 12.315ZM5.145 9.45C5.625 9.02 5.865 8.555 5.865 8.055C5.865 7.685 5.75 7.39 5.52 7.17C5.29 6.94 4.955 6.825 4.515 6.825C4.165 6.825 3.865 6.915 3.615 7.095C3.375 7.275 3.255 7.55 3.255 7.92C3.255 8.31 3.43 8.615 3.78 8.835C4.13 9.055 4.585 9.26 5.145 9.45ZM0.915 12.57C0.915 12.28 0.96 12.02 1.05 11.79C1.15 11.55 1.28 11.335 1.44 11.145C1.61 10.955 1.8 10.785 2.01 10.635C2.23 10.485 2.465 10.35 2.715 10.23V10.17C2.315 9.89 1.98 9.575 1.71 9.225C1.45 8.865 1.32 8.43 1.32 7.92C1.32 7.52 1.4 7.16 1.56 6.84C1.72 6.51 1.94 6.23 2.22 6C2.51 5.77 2.855 5.595 3.255 5.475C3.655 5.355 4.09 5.295 4.56 5.295C5.04 5.295 5.47 5.36 5.85 5.49C6.24 5.61 6.57 5.785 6.84 6.015C7.11 6.235 7.315 6.51 7.455 6.84C7.605 7.16 7.68 7.515 7.68 7.905C7.68 8.355 7.545 8.755 7.275 9.105C7.015 9.455 6.695 9.75 6.315 9.99V10.05C6.565 10.17 6.8 10.31 7.02 10.47C7.24 10.62 7.43 10.795 7.59 10.995C7.75 11.195 7.875 11.425 7.965 11.685C8.055 11.935 8.1 12.22 8.1 12.54C8.1 12.92 8.02 13.27 7.86 13.59C7.7 13.91 7.465 14.19 7.155 14.43C6.855 14.66 6.48 14.845 6.03 14.985C5.58 15.115 5.065 15.18 4.485 15.18C3.935 15.18 3.44 15.12 3 15C2.56 14.87 2.185 14.69 1.875 14.46C1.565 14.23 1.325 13.955 1.155 13.635C0.995 13.315 0.915 12.96 0.915 12.57Z" transform="translate(226 154)" fill="black"/>
<path d="M0.87 13.74C1.55 13.17 2.17 12.64 2.73 12.15C3.29 11.65 3.77 11.185 4.17 10.755C4.57 10.325 4.88 9.92 5.1 9.54C5.32 9.16 5.43 8.8 5.43 8.46C5.43 7.99 5.295 7.635 5.025 7.395C4.755 7.145 4.37 7.02 3.87 7.02C3.49 7.02 3.14 7.12 2.82 7.32C2.51 7.51 2.22 7.735 1.95 7.995L0.765 6.81C1.015 6.56 1.26 6.34 1.5 6.15C1.75 5.96 2.01 5.805 2.28 5.685C2.56 5.555 2.85 5.46 3.15 5.4C3.46 5.33 3.8 5.295 4.17 5.295C4.67 5.295 5.125 5.37 5.535 5.52C5.945 5.66 6.295 5.865 6.585 6.135C6.885 6.395 7.115 6.71 7.275 7.08C7.445 7.45 7.53 7.865 7.53 8.325C7.53 8.725 7.435 9.135 7.245 9.555C7.055 9.965 6.795 10.38 6.465 10.8C6.145 11.21 5.775 11.625 5.355 12.045C4.935 12.455 4.495 12.86 4.035 13.26C4.305 13.23 4.595 13.205 4.905 13.185C5.225 13.155 5.51 13.14 5.76 13.14H8.025V15H0.87V13.74Z" transform="translate(226 204)" fill="black"/>
<path d="M8.055 13.215V15H1.23V13.215H3.69V7.71H1.725V6.345C2.285 6.245 2.76 6.125 3.15 5.985C3.55 5.845 3.925 5.675 4.275 5.475H5.895V13.215H8.055ZM13.7041 13.53C13.8941 13.53 14.0741 13.5 14.2441 13.44C14.4241 13.38 14.5791 13.29 14.7091 13.17C14.8491 13.04 14.9591 12.88 15.0391 12.69C15.1191 12.49 15.1591 12.255 15.1591 11.985C15.1591 11.495 15.0291 11.145 14.7691 10.935C14.5091 10.715 14.1691 10.605 13.7491 10.605C13.4691 10.605 13.1791 10.675 12.8791 10.815C12.5791 10.955 12.2841 11.195 11.9941 11.535C12.0541 11.915 12.1391 12.235 12.2491 12.495C12.3691 12.745 12.5041 12.95 12.6541 13.11C12.8041 13.26 12.9691 13.37 13.1491 13.44C13.3291 13.5 13.5141 13.53 13.7041 13.53ZM15.8791 7.755C15.6791 7.575 15.4291 7.42 15.1291 7.29C14.8291 7.15 14.5191 7.08 14.1991 7.08C13.9091 7.08 13.6291 7.135 13.3591 7.245C13.0991 7.345 12.8641 7.515 12.6541 7.755C12.4541 7.985 12.2891 8.29 12.1591 8.67C12.0291 9.05 11.9541 9.52 11.9341 10.08C12.2741 9.75 12.6491 9.495 13.0591 9.315C13.4791 9.135 13.8691 9.045 14.2291 9.045C14.6491 9.045 15.0341 9.105 15.3841 9.225C15.7441 9.345 16.0541 9.525 16.3141 9.765C16.5841 10.005 16.7941 10.31 16.9441 10.68C17.0941 11.05 17.1691 11.485 17.1691 11.985C17.1691 12.485 17.0741 12.93 16.8841 13.32C16.7041 13.71 16.4541 14.045 16.1341 14.325C15.8241 14.605 15.4641 14.82 15.0541 14.97C14.6441 15.11 14.2091 15.18 13.7491 15.18C13.2591 15.18 12.7841 15.09 12.3241 14.91C11.8641 14.73 11.4541 14.45 11.0941 14.07C10.7341 13.69 10.4441 13.205 10.2241 12.615C10.0041 12.015 9.89414 11.295 9.89414 10.455C9.89414 9.565 10.0091 8.795 10.2391 8.145C10.4691 7.495 10.7741 6.96 11.1541 6.54C11.5441 6.12 11.9841 5.81 12.4741 5.61C12.9641 5.4 13.4741 5.295 14.0041 5.295C14.6841 5.295 15.2791 5.41 15.7891 5.64C16.2991 5.86 16.7141 6.125 17.0341 6.435L15.8791 7.755Z" transform="translate(221 252)" fill="black"/>
<path d="M3.69 10.83H1.05V9.27H3.69V6.51H5.31V9.27H7.95V10.83H5.31V13.59H3.69V10.83ZM10.0441 7.53H16.9441V9.09H10.0441V7.53ZM10.0441 10.995H16.9441V12.555H10.0441V10.995Z" transform="translate(27 58)" fill="#0072B2"/>
<path d="M1.05 9.27H7.95V10.83H1.05V9.27ZM10.0441 7.53H16.9441V9.09H10.0441V7.53ZM10.0441 10.995H16.9441V12.555H10.0441V10.995Z" transform="translate(27 108)" fill="#0072B2"/>
<path d="M1.8 12.975L3.255 10.62L0.96 9.6L1.305 8.535L3.735 9.18L3.915 6.51H5.085L5.265 9.18L7.695 8.535L8.04 9.6L5.745 10.62L7.2 12.975L6.24 13.635L4.5 11.505L2.76 13.635L1.8 12.975ZM10.0441 7.53H16.9441V9.09H10.0441V7.53ZM10.0441 10.995H16.9441V12.555H10.0441V10.995Z" transform="translate(27 154)" fill="#0072B2"/>
<path d="M2.955 17.4H1.11L6.045 4.35H7.89L2.955 17.4ZM10.0441 7.53H16.9441V9.09H10.0441V7.53ZM10.0441 10.995H16.9441V12.555H10.0441V10.995Z" transform="translate(27 201)" fill="#0072B2"/>
<path d="M1.8 12.975L3.255 10.62L0.96 9.6L1.305 8.535L3.735 9.18L3.915 6.51H5.085L5.265 9.18L7.695 8.535L8.04 9.6L5.745 10.62L7.2 12.975L6.24 13.635L4.5 11.505L2.76 13.635L1.8 12.975ZM10.7941 12.975L12.2491 10.62L9.95414 9.6L10.2991 8.535L12.7291 9.18L12.9091 6.51H14.0791L14.2591 9.18L16.6891 8.535L17.0341 9.6L14.7391 10.62L16.1941 12.975L15.2341 13.635L13.4941 11.505L11.7541 13.635L10.7941 12.975ZM19.0383 7.53H25.9383V9.09H19.0383V7.53ZM19.0383 10.995H25.9383V12.555H19.0383V10.995Z" transform="translate(23 255)" fill="#0072B2"/>
<line y1="-0.5" x2="281.007" y2="-0.5" transform="translate(78.2499 282.006) rotate(-90)" stroke="black"/>
<line y1="-0.5" x2="281.001" y2="-0.5" transform="translate(190.75 282) rotate(-90)" stroke="black"/>
</svg>
