<svg width="491" height="159" viewBox="0 0 491 159" fill="none" xmlns="http://www.w3.org/2000/svg">
<rect width="491" height="159" fill="white"/>
<path d="M15.1056 37V28.072H17.2656L17.4816 30.016H17.5356C17.9796 29.284 18.5136 28.744 19.1376 28.396C19.7616 28.036 20.4336 27.856 21.1536 27.856C21.5496 27.856 21.8676 27.886 22.1076 27.946C22.3596 28.006 22.6176 28.096 22.8816 28.216L22.3416 30.43C22.0656 30.346 21.8136 30.286 21.5856 30.25C21.3696 30.202 21.0936 30.178 20.7576 30.178C20.2056 30.178 19.6596 30.34 19.1196 30.664C18.5916 30.988 18.1356 31.552 17.7516 32.356V37H15.1056ZM29.2105 37.216C28.6225 37.216 28.0525 37.114 27.5005 36.91C26.9605 36.694 26.4745 36.388 26.0425 35.992C25.6225 35.596 25.2865 35.11 25.0345 34.534C24.7825 33.946 24.6565 33.28 24.6565 32.536C24.6565 31.792 24.7825 31.132 25.0345 30.556C25.2865 29.968 25.6225 29.476 26.0425 29.08C26.4745 28.684 26.9605 28.384 27.5005 28.18C28.0525 27.964 28.6225 27.856 29.2105 27.856C29.7985 27.856 30.3625 27.964 30.9025 28.18C31.4545 28.384 31.9405 28.684 32.3605 29.08C32.7925 29.476 33.1345 29.968 33.3865 30.556C33.6385 31.132 33.7645 31.792 33.7645 32.536C33.7645 33.28 33.6385 33.946 33.3865 34.534C33.1345 35.11 32.7925 35.596 32.3605 35.992C31.9405 36.388 31.4545 36.694 30.9025 36.91C30.3625 37.114 29.7985 37.216 29.2105 37.216ZM29.2105 35.074C29.8225 35.074 30.2785 34.846 30.5785 34.39C30.8905 33.934 31.0465 33.316 31.0465 32.536C31.0465 31.756 30.8905 31.138 30.5785 30.682C30.2785 30.226 29.8225 29.998 29.2105 29.998C28.5985 29.998 28.1365 30.226 27.8245 30.682C27.5245 31.138 27.3745 31.756 27.3745 32.536C27.3745 33.316 27.5245 33.934 27.8245 34.39C28.1365 34.846 28.5985 35.074 29.2105 35.074ZM36.1335 37L34.6755 28.072H37.2315L37.7895 32.212C37.8495 32.656 37.8975 33.094 37.9335 33.526C37.9695 33.958 38.0175 34.402 38.0775 34.858H38.1315C38.1915 34.402 38.2515 33.952 38.3115 33.508C38.3715 33.064 38.4495 32.632 38.5455 32.212L39.1035 29.26H41.0295L41.6055 32.212C41.7015 32.656 41.7855 33.094 41.8575 33.526C41.9295 33.958 41.9955 34.402 42.0555 34.858H42.1275C42.1875 34.402 42.2295 33.958 42.2535 33.526C42.2895 33.094 42.3315 32.656 42.3795 32.212L42.8835 28.072H45.3315L43.9635 37H40.8495L40.3635 34.102C40.3035 33.718 40.2495 33.31 40.2015 32.878C40.1535 32.446 40.0995 31.972 40.0395 31.456H39.9675C39.9315 31.84 39.8895 32.236 39.8415 32.644C39.7935 33.052 39.7335 33.538 39.6615 34.102L39.1935 37H36.1335ZM46.4765 39.952V37.972H55.1165V39.952H46.4765ZM57.6115 37V34.858H60.6895V28.252H58.1515V26.614C58.5355 26.554 58.8775 26.494 59.1775 26.434C59.4895 26.362 59.7715 26.284 60.0235 26.2C60.2755 26.116 60.5095 26.026 60.7255 25.93C60.9535 25.822 61.1755 25.702 61.3915 25.57H63.3355V34.858H65.9275V37H57.6115Z" fill="#232A3D"/>
<path d="M227.678 128V125.768H230.414V118.496H227.678V116.264H235.814V118.496H233.078V125.768H235.814V128H227.678ZM238.435 128V119.072H240.595L240.793 120.26H240.865C241.249 119.876 241.687 119.546 242.179 119.27C242.683 118.994 243.271 118.856 243.943 118.856C244.951 118.856 245.689 119.18 246.157 119.828C246.625 120.476 246.859 121.364 246.859 122.492V128H244.213V122.834C244.213 122.234 244.117 121.796 243.925 121.52C243.733 121.244 243.391 121.106 242.899 121.106C242.539 121.106 242.221 121.184 241.945 121.34C241.681 121.496 241.393 121.73 241.081 122.042V128H238.435ZM252.54 128.216C251.976 128.216 251.46 128.108 250.992 127.892C250.536 127.676 250.14 127.37 249.804 126.974C249.48 126.566 249.228 126.074 249.048 125.498C248.868 124.922 248.778 124.268 248.778 123.536C248.778 122.804 248.886 122.15 249.102 121.574C249.318 120.998 249.6 120.512 249.948 120.116C250.308 119.708 250.716 119.396 251.172 119.18C251.628 118.964 252.102 118.856 252.594 118.856C253.098 118.856 253.524 118.94 253.872 119.108C254.22 119.264 254.544 119.498 254.844 119.81H254.916L254.79 118.424V115.382H257.436V128H255.276L255.078 127.082H255.024C254.688 127.406 254.304 127.676 253.872 127.892C253.44 128.108 252.996 128.216 252.54 128.216ZM253.224 126.056C253.524 126.056 253.8 125.996 254.052 125.876C254.304 125.744 254.55 125.528 254.79 125.228V121.61C254.55 121.394 254.304 121.244 254.052 121.16C253.812 121.064 253.56 121.016 253.296 121.016C252.804 121.016 252.378 121.22 252.018 121.628C251.67 122.036 251.496 122.66 251.496 123.5C251.496 124.388 251.646 125.036 251.946 125.444C252.246 125.852 252.672 126.056 253.224 126.056ZM264.665 128.216C263.969 128.216 263.315 128.114 262.703 127.91C262.103 127.694 261.581 127.388 261.137 126.992C260.693 126.596 260.345 126.11 260.093 125.534C259.841 124.946 259.715 124.28 259.715 123.536C259.715 122.804 259.841 122.15 260.093 121.574C260.357 120.986 260.705 120.494 261.137 120.098C261.569 119.69 262.061 119.384 262.613 119.18C263.177 118.964 263.759 118.856 264.359 118.856C265.043 118.856 265.649 118.964 266.177 119.18C266.705 119.396 267.143 119.696 267.491 120.08C267.851 120.464 268.121 120.92 268.301 121.448C268.481 121.964 268.571 122.528 268.571 123.14C268.571 123.38 268.553 123.614 268.517 123.842C268.493 124.058 268.469 124.22 268.445 124.328H262.361C262.493 124.976 262.787 125.45 263.243 125.75C263.699 126.05 264.293 126.2 265.025 126.2C265.433 126.2 265.817 126.146 266.177 126.038C266.549 125.93 266.933 125.774 267.329 125.57L268.211 127.172C267.695 127.496 267.125 127.754 266.501 127.946C265.877 128.126 265.265 128.216 264.665 128.216ZM264.449 120.872C263.921 120.872 263.477 121.01 263.117 121.286C262.769 121.562 262.529 121.982 262.397 122.546H266.213C266.081 121.43 265.493 120.872 264.449 120.872ZM270.184 128L273.28 123.356L270.382 119.072H273.226L274.144 120.512C274.276 120.764 274.426 121.022 274.594 121.286C274.762 121.538 274.924 121.79 275.08 122.042H275.152C275.272 121.79 275.392 121.532 275.512 121.268C275.644 121.004 275.77 120.752 275.89 120.512L276.682 119.072H279.454L276.538 123.662L279.634 128H276.79L275.764 126.524C275.596 126.272 275.422 126.014 275.242 125.75C275.074 125.486 274.906 125.228 274.738 124.976H274.666C274.534 125.228 274.396 125.486 274.252 125.75C274.108 126.002 273.97 126.26 273.838 126.524L272.956 128H270.184ZM292.4 128V119.072H294.56L294.758 120.26H294.83C295.214 119.876 295.652 119.546 296.144 119.27C296.648 118.994 297.236 118.856 297.908 118.856C298.916 118.856 299.654 119.18 300.122 119.828C300.59 120.476 300.824 121.364 300.824 122.492V128H298.178V122.834C298.178 122.234 298.082 121.796 297.89 121.52C297.698 121.244 297.356 121.106 296.864 121.106C296.504 121.106 296.186 121.184 295.91 121.34C295.646 121.496 295.358 121.73 295.046 122.042V128H292.4ZM305.91 128.216C304.89 128.216 304.152 127.892 303.696 127.244C303.24 126.596 303.012 125.708 303.012 124.58V119.072H305.658V124.238C305.658 124.838 305.748 125.276 305.928 125.552C306.108 125.828 306.45 125.966 306.954 125.966C307.29 125.966 307.584 125.894 307.836 125.75C308.1 125.606 308.388 125.336 308.7 124.94V119.072H311.346V128H309.186L308.988 126.722H308.916C308.52 127.178 308.082 127.544 307.602 127.82C307.122 128.084 306.558 128.216 305.91 128.216ZM313.319 128V119.072H315.317L315.497 120.17H315.569C315.737 119.81 315.971 119.504 316.271 119.252C316.571 118.988 316.979 118.856 317.495 118.856C317.879 118.856 318.203 118.982 318.467 119.234C318.743 119.474 318.935 119.834 319.043 120.314C319.211 119.906 319.451 119.564 319.763 119.288C320.087 119 320.507 118.856 321.023 118.856C321.671 118.856 322.163 119.114 322.499 119.63C322.847 120.134 323.021 120.836 323.021 121.736V128H320.501V121.916C320.501 121.64 320.465 121.436 320.393 121.304C320.321 121.172 320.195 121.106 320.015 121.106C319.847 121.106 319.703 121.178 319.583 121.322C319.463 121.466 319.337 121.682 319.205 121.97V128H317.135V121.916C317.135 121.376 316.967 121.106 316.631 121.106C316.463 121.106 316.319 121.178 316.199 121.322C316.079 121.466 315.959 121.682 315.839 121.97V128H313.319ZM329.566 128.216C329.146 128.216 328.726 128.114 328.306 127.91C327.898 127.706 327.508 127.412 327.136 127.028H327.064L326.848 128H324.778V115.382H327.424V118.478L327.334 119.882H327.388C327.724 119.558 328.108 119.306 328.54 119.126C328.972 118.946 329.404 118.856 329.836 118.856C330.388 118.856 330.886 118.964 331.33 119.18C331.786 119.396 332.164 119.702 332.464 120.098C332.776 120.482 333.016 120.956 333.184 121.52C333.352 122.072 333.436 122.69 333.436 123.374C333.436 124.142 333.328 124.826 333.112 125.426C332.896 126.026 332.608 126.536 332.248 126.956C331.888 127.364 331.474 127.676 331.006 127.892C330.55 128.108 330.07 128.216 329.566 128.216ZM328.972 126.056C329.464 126.056 329.878 125.852 330.214 125.444C330.55 125.024 330.718 124.352 330.718 123.428C330.718 121.82 330.172 121.016 329.08 121.016C328.516 121.016 327.964 121.292 327.424 121.844V125.462C327.676 125.678 327.934 125.834 328.198 125.93C328.474 126.014 328.732 126.056 328.972 126.056ZM340.215 128.216C339.519 128.216 338.865 128.114 338.253 127.91C337.653 127.694 337.131 127.388 336.687 126.992C336.243 126.596 335.895 126.11 335.643 125.534C335.391 124.946 335.265 124.28 335.265 123.536C335.265 122.804 335.391 122.15 335.643 121.574C335.907 120.986 336.255 120.494 336.687 120.098C337.119 119.69 337.611 119.384 338.163 119.18C338.727 118.964 339.309 118.856 339.909 118.856C340.593 118.856 341.199 118.964 341.727 119.18C342.255 119.396 342.693 119.696 343.041 120.08C343.401 120.464 343.671 120.92 343.851 121.448C344.031 121.964 344.121 122.528 344.121 123.14C344.121 123.38 344.103 123.614 344.067 123.842C344.043 124.058 344.019 124.22 343.995 124.328H337.911C338.043 124.976 338.337 125.45 338.793 125.75C339.249 126.05 339.843 126.2 340.575 126.2C340.983 126.2 341.367 126.146 341.727 126.038C342.099 125.93 342.483 125.774 342.879 125.57L343.761 127.172C343.245 127.496 342.675 127.754 342.051 127.946C341.427 128.126 340.815 128.216 340.215 128.216ZM339.999 120.872C339.471 120.872 339.027 121.01 338.667 121.286C338.319 121.562 338.079 121.982 337.947 122.546H341.763C341.631 121.43 341.043 120.872 339.999 120.872ZM347.156 128V119.072H349.316L349.532 121.016H349.586C350.03 120.284 350.564 119.744 351.188 119.396C351.812 119.036 352.484 118.856 353.204 118.856C353.6 118.856 353.918 118.886 354.158 118.946C354.41 119.006 354.668 119.096 354.932 119.216L354.392 121.43C354.116 121.346 353.864 121.286 353.636 121.25C353.42 121.202 353.144 121.178 352.808 121.178C352.256 121.178 351.71 121.34 351.17 121.664C350.642 121.988 350.186 122.552 349.802 123.356V128H347.156ZM361.189 128.216C360.385 128.216 359.599 128.084 358.831 127.82C358.063 127.556 357.391 127.232 356.815 126.848L357.949 125.192C358.501 125.54 359.077 125.804 359.677 125.984C360.277 126.164 360.901 126.254 361.549 126.254C362.041 126.254 362.401 126.182 362.629 126.038C362.857 125.894 362.971 125.714 362.971 125.498C362.971 125.378 362.935 125.27 362.863 125.174C362.803 125.078 362.689 124.994 362.521 124.922C362.365 124.838 362.143 124.76 361.855 124.688C361.567 124.616 361.207 124.532 360.775 124.436C359.563 124.172 358.693 123.818 358.165 123.374C357.637 122.918 357.373 122.342 357.373 121.646C357.373 121.238 357.469 120.86 357.661 120.512C357.853 120.164 358.123 119.87 358.471 119.63C358.831 119.39 359.263 119.204 359.767 119.072C360.271 118.928 360.841 118.856 361.477 118.856C362.281 118.856 363.007 118.988 363.655 119.252C364.315 119.504 364.879 119.78 365.347 120.08L364.159 121.664C363.703 121.388 363.229 121.178 362.737 121.034C362.245 120.89 361.747 120.818 361.243 120.818C360.823 120.818 360.511 120.884 360.307 121.016C360.103 121.148 360.001 121.316 360.001 121.52C360.001 121.772 360.157 121.952 360.469 122.06C360.781 122.168 361.315 122.306 362.071 122.474C362.755 122.63 363.325 122.798 363.781 122.978C364.237 123.158 364.597 123.362 364.861 123.59C365.125 123.818 365.311 124.076 365.419 124.364C365.527 124.652 365.581 124.976 365.581 125.336C365.581 125.744 365.485 126.122 365.293 126.47C365.101 126.818 364.819 127.124 364.447 127.388C364.087 127.64 363.631 127.844 363.079 128C362.539 128.144 361.909 128.216 361.189 128.216Z" fill="#29A1F8"/>
<path d="M81.5 14.5H204.5V51.5H81.5V14.5Z" stroke="#30394B" stroke-width="3"/>
<path d="M94.4532 32.78C93.7812 32.78 93.2592 32.528 92.8872 32.024C92.5272 31.52 92.3472 30.812 92.3472 29.9C92.3472 28.916 92.6052 28.052 93.1212 27.308C93.6492 26.552 94.4412 25.934 95.4972 25.454L96.1812 26.858C95.5572 27.146 95.0772 27.494 94.7412 27.902C94.4052 28.31 94.2132 28.802 94.1652 29.378C94.2852 29.342 94.4112 29.324 94.5432 29.324C95.0232 29.324 95.4132 29.474 95.7132 29.774C96.0252 30.062 96.1812 30.458 96.1812 30.962C96.1812 31.514 96.0192 31.958 95.6952 32.294C95.3712 32.618 94.9572 32.78 94.4532 32.78ZM101.718 38V26.264H109.512V28.496H104.364V31.214H108.756V33.446H104.364V38H101.718ZM114.653 38.216C114.197 38.216 113.789 38.144 113.429 38C113.069 37.868 112.763 37.682 112.511 37.442C112.259 37.19 112.061 36.902 111.917 36.578C111.785 36.254 111.719 35.9 111.719 35.516C111.719 35.012 111.827 34.574 112.043 34.202C112.259 33.818 112.601 33.494 113.069 33.23C113.549 32.966 114.161 32.756 114.905 32.6C115.649 32.432 116.549 32.318 117.605 32.258C117.557 31.85 117.377 31.532 117.065 31.304C116.765 31.076 116.309 30.962 115.697 30.962C115.265 30.962 114.827 31.04 114.383 31.196C113.951 31.34 113.483 31.538 112.979 31.79L112.043 30.062C112.655 29.714 113.309 29.426 114.005 29.198C114.713 28.97 115.451 28.856 116.219 28.856C117.467 28.856 118.451 29.186 119.171 29.846C119.891 30.506 120.251 31.52 120.251 32.888V38H118.091L117.893 36.992H117.821C117.365 37.34 116.867 37.634 116.327 37.874C115.787 38.102 115.229 38.216 114.653 38.216ZM115.499 36.164C115.895 36.164 116.267 36.086 116.615 35.93C116.963 35.762 117.293 35.558 117.605 35.318V33.842C116.945 33.878 116.399 33.938 115.967 34.022C115.535 34.106 115.193 34.214 114.941 34.346C114.689 34.466 114.509 34.61 114.401 34.778C114.305 34.946 114.257 35.126 114.257 35.318C114.257 35.606 114.365 35.822 114.581 35.966C114.809 36.098 115.115 36.164 115.499 36.164ZM127.588 38.216C126.88 38.216 126.226 38.114 125.626 37.91C125.026 37.694 124.498 37.388 124.042 36.992C123.598 36.596 123.25 36.11 122.998 35.534C122.746 34.946 122.62 34.28 122.62 33.536C122.62 32.792 122.758 32.132 123.034 31.556C123.322 30.968 123.7 30.476 124.168 30.08C124.648 29.684 125.2 29.384 125.824 29.18C126.448 28.964 127.102 28.856 127.786 28.856C128.494 28.856 129.13 28.97 129.694 29.198C130.27 29.426 130.75 29.714 131.134 30.062L129.91 31.7C129.25 31.232 128.59 30.998 127.93 30.998C127.162 30.998 126.538 31.226 126.058 31.682C125.578 32.138 125.338 32.756 125.338 33.536C125.338 34.316 125.566 34.934 126.022 35.39C126.49 35.846 127.096 36.074 127.84 36.074C128.308 36.074 128.734 35.99 129.118 35.822C129.514 35.654 129.874 35.456 130.198 35.228L131.26 36.902C130.72 37.358 130.126 37.694 129.478 37.91C128.83 38.114 128.2 38.216 127.588 38.216ZM138.147 38.216C137.451 38.216 136.797 38.114 136.185 37.91C135.585 37.694 135.063 37.388 134.619 36.992C134.175 36.596 133.827 36.11 133.575 35.534C133.323 34.946 133.197 34.28 133.197 33.536C133.197 32.804 133.323 32.15 133.575 31.574C133.839 30.986 134.187 30.494 134.619 30.098C135.051 29.69 135.543 29.384 136.095 29.18C136.659 28.964 137.241 28.856 137.841 28.856C138.525 28.856 139.131 28.964 139.659 29.18C140.187 29.396 140.625 29.696 140.973 30.08C141.333 30.464 141.603 30.92 141.783 31.448C141.963 31.964 142.053 32.528 142.053 33.14C142.053 33.38 142.035 33.614 141.999 33.842C141.975 34.058 141.951 34.22 141.927 34.328H135.843C135.975 34.976 136.269 35.45 136.725 35.75C137.181 36.05 137.775 36.2 138.507 36.2C138.915 36.2 139.299 36.146 139.659 36.038C140.031 35.93 140.415 35.774 140.811 35.57L141.693 37.172C141.177 37.496 140.607 37.754 139.983 37.946C139.359 38.126 138.747 38.216 138.147 38.216ZM137.931 30.872C137.403 30.872 136.959 31.01 136.599 31.286C136.251 31.562 136.011 31.982 135.879 32.546H139.695C139.563 31.43 138.975 30.872 137.931 30.872ZM149.084 38.216C148.664 38.216 148.244 38.114 147.824 37.91C147.416 37.706 147.026 37.412 146.654 37.028H146.582L146.366 38H144.296V25.382H146.942V28.478L146.852 29.882H146.906C147.242 29.558 147.626 29.306 148.058 29.126C148.49 28.946 148.922 28.856 149.354 28.856C149.906 28.856 150.404 28.964 150.848 29.18C151.304 29.396 151.682 29.702 151.982 30.098C152.294 30.482 152.534 30.956 152.702 31.52C152.87 32.072 152.954 32.69 152.954 33.374C152.954 34.142 152.846 34.826 152.63 35.426C152.414 36.026 152.126 36.536 151.766 36.956C151.406 37.364 150.992 37.676 150.524 37.892C150.068 38.108 149.588 38.216 149.084 38.216ZM148.49 36.056C148.982 36.056 149.396 35.852 149.732 35.444C150.068 35.024 150.236 34.352 150.236 33.428C150.236 31.82 149.69 31.016 148.598 31.016C148.034 31.016 147.482 31.292 146.942 31.844V35.462C147.194 35.678 147.452 35.834 147.716 35.93C147.992 36.014 148.25 36.056 148.49 36.056ZM159.193 38.216C158.605 38.216 158.035 38.114 157.483 37.91C156.943 37.694 156.457 37.388 156.025 36.992C155.605 36.596 155.269 36.11 155.017 35.534C154.765 34.946 154.639 34.28 154.639 33.536C154.639 32.792 154.765 32.132 155.017 31.556C155.269 30.968 155.605 30.476 156.025 30.08C156.457 29.684 156.943 29.384 157.483 29.18C158.035 28.964 158.605 28.856 159.193 28.856C159.781 28.856 160.345 28.964 160.885 29.18C161.437 29.384 161.923 29.684 162.343 30.08C162.775 30.476 163.117 30.968 163.369 31.556C163.621 32.132 163.747 32.792 163.747 33.536C163.747 34.28 163.621 34.946 163.369 35.534C163.117 36.11 162.775 36.596 162.343 36.992C161.923 37.388 161.437 37.694 160.885 37.91C160.345 38.114 159.781 38.216 159.193 38.216ZM159.193 36.074C159.805 36.074 160.261 35.846 160.561 35.39C160.873 34.934 161.029 34.316 161.029 33.536C161.029 32.756 160.873 32.138 160.561 31.682C160.261 31.226 159.805 30.998 159.193 30.998C158.581 30.998 158.119 31.226 157.807 31.682C157.507 32.138 157.357 32.756 157.357 33.536C157.357 34.316 157.507 34.934 157.807 35.39C158.119 35.846 158.581 36.074 159.193 36.074ZM169.986 38.216C169.398 38.216 168.828 38.114 168.276 37.91C167.736 37.694 167.25 37.388 166.818 36.992C166.398 36.596 166.062 36.11 165.81 35.534C165.558 34.946 165.432 34.28 165.432 33.536C165.432 32.792 165.558 32.132 165.81 31.556C166.062 30.968 166.398 30.476 166.818 30.08C167.25 29.684 167.736 29.384 168.276 29.18C168.828 28.964 169.398 28.856 169.986 28.856C170.574 28.856 171.138 28.964 171.678 29.18C172.23 29.384 172.716 29.684 173.136 30.08C173.568 30.476 173.91 30.968 174.162 31.556C174.414 32.132 174.54 32.792 174.54 33.536C174.54 34.28 174.414 34.946 174.162 35.534C173.91 36.11 173.568 36.596 173.136 36.992C172.716 37.388 172.23 37.694 171.678 37.91C171.138 38.114 170.574 38.216 169.986 38.216ZM169.986 36.074C170.598 36.074 171.054 35.846 171.354 35.39C171.666 34.934 171.822 34.316 171.822 33.536C171.822 32.756 171.666 32.138 171.354 31.682C171.054 31.226 170.598 30.998 169.986 30.998C169.374 30.998 168.912 31.226 168.6 31.682C168.3 32.138 168.15 32.756 168.15 33.536C168.15 34.316 168.3 34.934 168.6 35.39C168.912 35.846 169.374 36.074 169.986 36.074ZM176.747 38V25.382H179.393V32.672H179.465L182.741 29.072H185.639L182.237 32.708L185.909 38H183.047L180.707 34.346L179.393 35.75V38H176.747ZM190.51 32.78L189.808 31.376C191.068 30.812 191.734 29.978 191.806 28.874C191.698 28.91 191.584 28.928 191.464 28.928C190.972 28.928 190.57 28.778 190.258 28.478C189.958 28.178 189.808 27.776 189.808 27.272C189.808 26.72 189.97 26.282 190.294 25.958C190.618 25.622 191.032 25.454 191.536 25.454C192.22 25.454 192.742 25.712 193.102 26.228C193.462 26.732 193.642 27.434 193.642 28.334C193.642 29.318 193.384 30.188 192.868 30.944C192.352 31.688 191.566 32.3 190.51 32.78Z" fill="#232A3D"/>
<path d="M143.004 75.216C142.344 75.216 141.744 75.09 141.204 74.838C140.664 74.574 140.202 74.19 139.818 73.686C139.434 73.182 139.134 72.558 138.918 71.814C138.714 71.07 138.612 70.212 138.612 69.24C138.612 68.268 138.714 67.416 138.918 66.684C139.134 65.952 139.434 65.34 139.818 64.848C140.202 64.344 140.664 63.972 141.204 63.732C141.744 63.48 142.344 63.354 143.004 63.354C143.664 63.354 144.264 63.48 144.804 63.732C145.344 63.972 145.806 64.344 146.19 64.848C146.574 65.34 146.868 65.952 147.072 66.684C147.288 67.416 147.396 68.268 147.396 69.24C147.396 70.212 147.288 71.07 147.072 71.814C146.868 72.558 146.574 73.182 146.19 73.686C145.806 74.19 145.344 74.574 144.804 74.838C144.264 75.09 143.664 75.216 143.004 75.216ZM143.004 73.164C143.292 73.164 143.556 73.098 143.796 72.966C144.048 72.834 144.264 72.618 144.444 72.318C144.624 72.006 144.768 71.604 144.876 71.112C144.984 70.608 145.038 69.984 145.038 69.24C145.038 68.496 144.984 67.878 144.876 67.386C144.768 66.894 144.624 66.504 144.444 66.216C144.264 65.916 144.048 65.706 143.796 65.586C143.556 65.466 143.292 65.406 143.004 65.406C142.716 65.406 142.446 65.466 142.194 65.586C141.954 65.706 141.744 65.916 141.564 66.216C141.384 66.504 141.24 66.894 141.132 67.386C141.024 67.878 140.97 68.496 140.97 69.24C140.97 69.984 141.024 70.608 141.132 71.112C141.24 71.604 141.384 72.006 141.564 72.318C141.744 72.618 141.954 72.834 142.194 72.966C142.446 73.098 142.716 73.164 143.004 73.164ZM143.004 70.572C142.62 70.572 142.296 70.452 142.032 70.212C141.78 69.96 141.654 69.624 141.654 69.204C141.654 68.784 141.78 68.454 142.032 68.214C142.296 67.962 142.62 67.836 143.004 67.836C143.388 67.836 143.706 67.962 143.958 68.214C144.222 68.454 144.354 68.784 144.354 69.204C144.354 69.624 144.222 69.96 143.958 70.212C143.706 70.452 143.388 70.572 143.004 70.572Z" fill="#29A1F8"/>
<path d="M204.5 14.5H263.5V51.5H204.5V14.5Z" stroke="#30394B" stroke-width="3"/>
<path d="M223.211 39.216C222.551 39.216 221.951 39.09 221.411 38.838C220.871 38.574 220.409 38.19 220.025 37.686C219.641 37.182 219.341 36.558 219.125 35.814C218.921 35.07 218.819 34.212 218.819 33.24C218.819 32.268 218.921 31.416 219.125 30.684C219.341 29.952 219.641 29.34 220.025 28.848C220.409 28.344 220.871 27.972 221.411 27.732C221.951 27.48 222.551 27.354 223.211 27.354C223.871 27.354 224.471 27.48 225.011 27.732C225.551 27.972 226.013 28.344 226.397 28.848C226.781 29.34 227.075 29.952 227.279 30.684C227.495 31.416 227.603 32.268 227.603 33.24C227.603 34.212 227.495 35.07 227.279 35.814C227.075 36.558 226.781 37.182 226.397 37.686C226.013 38.19 225.551 38.574 225.011 38.838C224.471 39.09 223.871 39.216 223.211 39.216ZM223.211 37.164C223.499 37.164 223.763 37.098 224.003 36.966C224.255 36.834 224.471 36.618 224.651 36.318C224.831 36.006 224.975 35.604 225.083 35.112C225.191 34.608 225.245 33.984 225.245 33.24C225.245 32.496 225.191 31.878 225.083 31.386C224.975 30.894 224.831 30.504 224.651 30.216C224.471 29.916 224.255 29.706 224.003 29.586C223.763 29.466 223.499 29.406 223.211 29.406C222.923 29.406 222.653 29.466 222.401 29.586C222.161 29.706 221.951 29.916 221.771 30.216C221.591 30.504 221.447 30.894 221.339 31.386C221.231 31.878 221.177 32.496 221.177 33.24C221.177 33.984 221.231 34.608 221.339 35.112C221.447 35.604 221.591 36.006 221.771 36.318C221.951 36.618 222.161 36.834 222.401 36.966C222.653 37.098 222.923 37.164 223.211 37.164ZM223.211 34.572C222.827 34.572 222.503 34.452 222.239 34.212C221.987 33.96 221.861 33.624 221.861 33.204C221.861 32.784 221.987 32.454 222.239 32.214C222.503 31.962 222.827 31.836 223.211 31.836C223.595 31.836 223.913 31.962 224.165 32.214C224.429 32.454 224.561 32.784 224.561 33.204C224.561 33.624 224.429 33.96 224.165 34.212C223.913 34.452 223.595 34.572 223.211 34.572ZM234.004 39.216C233.38 39.216 232.876 39.018 232.492 38.622C232.108 38.214 231.916 37.71 231.916 37.11C231.916 36.81 231.964 36.534 232.06 36.282C232.168 36.018 232.312 35.79 232.492 35.598C232.672 35.406 232.888 35.256 233.14 35.148C233.404 35.04 233.692 34.986 234.004 34.986C234.316 34.986 234.598 35.04 234.85 35.148C235.114 35.256 235.336 35.406 235.516 35.598C235.696 35.79 235.834 36.018 235.93 36.282C236.038 36.534 236.092 36.81 236.092 37.11C236.092 37.71 235.9 38.214 235.516 38.622C235.132 39.018 234.628 39.216 234.004 39.216ZM244.796 39.216C244.136 39.216 243.536 39.09 242.996 38.838C242.456 38.574 241.994 38.19 241.61 37.686C241.226 37.182 240.926 36.558 240.71 35.814C240.506 35.07 240.404 34.212 240.404 33.24C240.404 32.268 240.506 31.416 240.71 30.684C240.926 29.952 241.226 29.34 241.61 28.848C241.994 28.344 242.456 27.972 242.996 27.732C243.536 27.48 244.136 27.354 244.796 27.354C245.456 27.354 246.056 27.48 246.596 27.732C247.136 27.972 247.598 28.344 247.982 28.848C248.366 29.34 248.66 29.952 248.864 30.684C249.08 31.416 249.188 32.268 249.188 33.24C249.188 34.212 249.08 35.07 248.864 35.814C248.66 36.558 248.366 37.182 247.982 37.686C247.598 38.19 247.136 38.574 246.596 38.838C246.056 39.09 245.456 39.216 244.796 39.216ZM244.796 37.164C245.084 37.164 245.348 37.098 245.588 36.966C245.84 36.834 246.056 36.618 246.236 36.318C246.416 36.006 246.56 35.604 246.668 35.112C246.776 34.608 246.83 33.984 246.83 33.24C246.83 32.496 246.776 31.878 246.668 31.386C246.56 30.894 246.416 30.504 246.236 30.216C246.056 29.916 245.84 29.706 245.588 29.586C245.348 29.466 245.084 29.406 244.796 29.406C244.508 29.406 244.238 29.466 243.986 29.586C243.746 29.706 243.536 29.916 243.356 30.216C243.176 30.504 243.032 30.894 242.924 31.386C242.816 31.878 242.762 32.496 242.762 33.24C242.762 33.984 242.816 34.608 242.924 35.112C243.032 35.604 243.176 36.006 243.356 36.318C243.536 36.618 243.746 36.834 243.986 36.966C244.238 37.098 244.508 37.164 244.796 37.164ZM244.796 34.572C244.412 34.572 244.088 34.452 243.824 34.212C243.572 33.96 243.446 33.624 243.446 33.204C243.446 32.784 243.572 32.454 243.824 32.214C244.088 31.962 244.412 31.836 244.796 31.836C245.18 31.836 245.498 31.962 245.75 32.214C246.014 32.454 246.146 32.784 246.146 33.204C246.146 33.624 246.014 33.96 245.75 34.212C245.498 34.452 245.18 34.572 244.796 34.572Z" fill="#232A3D"/>
<path d="M230.476 75V72.858H233.554V66.252H231.016V64.614C231.4 64.554 231.742 64.494 232.042 64.434C232.354 64.362 232.636 64.284 232.888 64.2C233.14 64.116 233.374 64.026 233.59 63.93C233.818 63.822 234.04 63.702 234.256 63.57H236.2V72.858H238.792V75H230.476Z" fill="#29A1F8"/>
<path d="M263.5 14.5H331.5V51.5H263.5V14.5Z" stroke="#30394B" stroke-width="3"/>
<path d="M331.5 14.5H423.5V51.5H331.5V14.5Z" stroke="#30394B" stroke-width="3"/>
<path d="M423.5 14.5H477.5V51.5H423.5V14.5Z" stroke="#30394B" stroke-width="3"/>
<path d="M275.936 33.78C275.264 33.78 274.742 33.528 274.37 33.024C274.01 32.52 273.83 31.812 273.83 30.9C273.83 29.916 274.088 29.052 274.604 28.308C275.132 27.552 275.924 26.934 276.98 26.454L277.664 27.858C277.04 28.146 276.56 28.494 276.224 28.902C275.888 29.31 275.696 29.802 275.648 30.378C275.768 30.342 275.894 30.324 276.026 30.324C276.506 30.324 276.896 30.474 277.196 30.774C277.508 31.062 277.664 31.458 277.664 31.962C277.664 32.514 277.502 32.958 277.178 33.294C276.854 33.618 276.44 33.78 275.936 33.78ZM286.747 39.216C285.307 39.216 284.233 38.814 283.525 38.01C282.817 37.194 282.463 36.018 282.463 34.482V27.264H285.109V34.752C285.109 35.46 285.241 36 285.505 36.372C285.769 36.744 286.183 36.93 286.747 36.93C287.311 36.93 287.725 36.744 287.989 36.372C288.265 36 288.403 35.46 288.403 34.752V27.264H290.959V34.482C290.959 36.018 290.611 37.194 289.915 38.01C289.231 38.814 288.175 39.216 286.747 39.216ZM297.468 39.216C296.676 39.216 295.89 39.078 295.11 38.802C294.342 38.514 293.64 38.088 293.004 37.524L294.534 35.706C294.978 36.066 295.464 36.36 295.992 36.588C296.52 36.816 297.072 36.93 297.648 36.93C298.224 36.93 298.644 36.834 298.908 36.642C299.172 36.45 299.304 36.204 299.304 35.904C299.304 35.7 299.262 35.532 299.178 35.4C299.094 35.256 298.974 35.13 298.818 35.022C298.662 34.914 298.47 34.812 298.242 34.716C298.014 34.62 297.762 34.512 297.486 34.392L295.974 33.744C295.65 33.624 295.332 33.468 295.02 33.276C294.72 33.084 294.456 32.862 294.228 32.61C294 32.346 293.814 32.046 293.67 31.71C293.538 31.362 293.472 30.972 293.472 30.54C293.472 30.06 293.574 29.61 293.778 29.19C293.994 28.758 294.288 28.386 294.66 28.074C295.044 27.75 295.5 27.498 296.028 27.318C296.556 27.138 297.138 27.048 297.774 27.048C298.494 27.048 299.19 27.18 299.862 27.444C300.534 27.708 301.14 28.092 301.68 28.596L300.33 30.27C299.922 29.97 299.514 29.742 299.106 29.586C298.698 29.418 298.206 29.334 297.63 29.334C297.186 29.334 296.826 29.424 296.55 29.604C296.286 29.784 296.154 30.048 296.154 30.396C296.154 30.744 296.328 31.014 296.676 31.206C297.036 31.386 297.504 31.578 298.08 31.782L299.502 32.394C300.282 32.682 300.894 33.078 301.338 33.582C301.794 34.086 302.022 34.752 302.022 35.58C302.022 36.072 301.92 36.54 301.716 36.984C301.512 37.416 301.218 37.8 300.834 38.136C300.45 38.46 299.976 38.724 299.412 38.928C298.848 39.12 298.2 39.216 297.468 39.216ZM304.156 39V27.264H307.396C308.248 27.264 309.022 27.378 309.718 27.606C310.414 27.834 311.008 28.188 311.5 28.668C311.992 29.136 312.37 29.736 312.634 30.468C312.91 31.2 313.048 32.07 313.048 33.078C313.048 34.086 312.916 34.962 312.652 35.706C312.388 36.45 312.01 37.068 311.518 37.56C311.038 38.04 310.462 38.4 309.79 38.64C309.118 38.88 308.374 39 307.558 39H304.156ZM306.82 36.858H307.252C307.708 36.858 308.122 36.792 308.494 36.66C308.878 36.528 309.202 36.318 309.466 36.03C309.742 35.73 309.952 35.34 310.096 34.86C310.252 34.38 310.33 33.786 310.33 33.078C310.33 32.382 310.252 31.8 310.096 31.332C309.952 30.852 309.742 30.474 309.466 30.198C309.202 29.91 308.878 29.706 308.494 29.586C308.122 29.466 307.708 29.406 307.252 29.406H306.82V36.858ZM318.027 33.78L317.325 32.376C318.585 31.812 319.251 30.978 319.323 29.874C319.215 29.91 319.101 29.928 318.981 29.928C318.489 29.928 318.087 29.778 317.775 29.478C317.475 29.178 317.325 28.776 317.325 28.272C317.325 27.72 317.487 27.282 317.811 26.958C318.135 26.622 318.549 26.454 319.053 26.454C319.737 26.454 320.259 26.712 320.619 27.228C320.979 27.732 321.159 28.434 321.159 29.334C321.159 30.318 320.901 31.188 320.385 31.944C319.869 32.688 319.083 33.3 318.027 33.78Z" fill="#232A3D"/>
<path d="M340.769 39V37.488C341.585 36.804 342.329 36.168 343.001 35.58C343.673 34.98 344.249 34.422 344.729 33.906C345.209 33.39 345.581 32.904 345.845 32.448C346.109 31.992 346.241 31.56 346.241 31.152C346.241 30.588 346.079 30.162 345.755 29.874C345.431 29.574 344.969 29.424 344.369 29.424C343.913 29.424 343.493 29.544 343.109 29.784C342.737 30.012 342.389 30.282 342.065 30.594L340.643 29.172C340.943 28.872 341.237 28.608 341.525 28.38C341.825 28.152 342.137 27.966 342.461 27.822C342.797 27.666 343.145 27.552 343.505 27.48C343.877 27.396 344.285 27.354 344.729 27.354C345.329 27.354 345.875 27.444 346.367 27.624C346.859 27.792 347.279 28.038 347.627 28.362C347.987 28.674 348.263 29.052 348.455 29.496C348.659 29.94 348.761 30.438 348.761 30.99C348.761 31.47 348.647 31.962 348.419 32.466C348.191 32.958 347.879 33.456 347.483 33.96C347.099 34.452 346.655 34.95 346.151 35.454C345.647 35.946 345.119 36.432 344.567 36.912C344.891 36.876 345.239 36.846 345.611 36.822C345.995 36.786 346.337 36.768 346.637 36.768H349.355V39H340.769ZM355.594 32.844C355.942 32.844 356.296 32.76 356.656 32.592C357.028 32.412 357.376 32.118 357.7 31.71C357.628 31.266 357.52 30.894 357.376 30.594C357.244 30.282 357.082 30.036 356.89 29.856C356.71 29.664 356.512 29.532 356.296 29.46C356.08 29.376 355.858 29.334 355.63 29.334C355.402 29.334 355.18 29.37 354.964 29.442C354.76 29.514 354.574 29.628 354.406 29.784C354.25 29.928 354.124 30.12 354.028 30.36C353.932 30.588 353.884 30.864 353.884 31.188C353.884 31.776 354.04 32.202 354.352 32.466C354.664 32.718 355.078 32.844 355.594 32.844ZM355.288 39.216C354.472 39.216 353.758 39.078 353.146 38.802C352.534 38.526 352.03 38.208 351.634 37.848L353.038 36.264C353.278 36.48 353.578 36.672 353.938 36.84C354.298 36.996 354.67 37.074 355.054 37.074C355.402 37.074 355.732 37.014 356.044 36.894C356.368 36.762 356.65 36.558 356.89 36.282C357.142 35.994 357.346 35.622 357.502 35.166C357.658 34.698 357.748 34.128 357.772 33.456C357.352 33.852 356.89 34.164 356.386 34.392C355.894 34.608 355.438 34.716 355.018 34.716C354.514 34.716 354.046 34.644 353.614 34.5C353.182 34.356 352.804 34.14 352.48 33.852C352.168 33.564 351.922 33.198 351.742 32.754C351.562 32.31 351.472 31.788 351.472 31.188C351.472 30.6 351.58 30.072 351.796 29.604C352.024 29.124 352.324 28.716 352.696 28.38C353.08 28.044 353.518 27.792 354.01 27.624C354.502 27.444 355.024 27.354 355.576 27.354C356.164 27.354 356.734 27.462 357.286 27.678C357.85 27.894 358.348 28.23 358.78 28.686C359.212 29.142 359.554 29.73 359.806 30.45C360.07 31.158 360.202 32.016 360.202 33.024C360.202 34.092 360.064 35.016 359.788 35.796C359.512 36.576 359.146 37.218 358.69 37.722C358.234 38.226 357.706 38.604 357.106 38.856C356.518 39.096 355.912 39.216 355.288 39.216ZM364.785 39C364.833 38.052 364.923 37.182 365.055 36.39C365.199 35.586 365.397 34.824 365.649 34.104C365.913 33.372 366.249 32.664 366.657 31.98C367.065 31.284 367.569 30.558 368.169 29.802H362.427V27.57H371.013V29.19C370.293 29.994 369.711 30.75 369.267 31.458C368.823 32.154 368.475 32.88 368.223 33.636C367.971 34.38 367.791 35.184 367.683 36.048C367.575 36.9 367.497 37.884 367.449 39H364.785ZM378.242 39V36.264H372.734V34.446L377.504 27.57H380.708V34.248H382.148V36.264H380.708V39H378.242ZM375.29 34.248H378.242V32.322C378.242 31.962 378.248 31.548 378.26 31.08C378.284 30.6 378.308 30.18 378.332 29.82H378.26C378.068 30.144 377.864 30.468 377.648 30.792C377.432 31.116 377.222 31.44 377.018 31.764L375.29 34.248ZM388.602 39.216C388.014 39.216 387.444 39.108 386.892 38.892C386.34 38.676 385.848 38.34 385.416 37.884C384.984 37.428 384.636 36.846 384.372 36.138C384.108 35.418 383.976 34.554 383.976 33.546C383.976 32.478 384.114 31.554 384.39 30.774C384.666 29.994 385.032 29.352 385.488 28.848C385.956 28.344 386.484 27.972 387.072 27.732C387.66 27.48 388.272 27.354 388.908 27.354C389.724 27.354 390.438 27.492 391.05 27.768C391.662 28.032 392.16 28.35 392.544 28.722L391.158 30.306C390.918 30.09 390.618 29.904 390.258 29.748C389.898 29.58 389.526 29.496 389.142 29.496C388.794 29.496 388.458 29.562 388.134 29.694C387.822 29.814 387.54 30.018 387.288 30.306C387.048 30.582 386.85 30.948 386.694 31.404C386.538 31.86 386.448 32.424 386.424 33.096C386.832 32.7 387.282 32.394 387.774 32.178C388.278 31.962 388.746 31.854 389.178 31.854C389.682 31.854 390.144 31.926 390.564 32.07C390.996 32.214 391.368 32.43 391.68 32.718C392.004 33.006 392.256 33.372 392.436 33.816C392.616 34.26 392.706 34.782 392.706 35.382C392.706 35.982 392.592 36.516 392.364 36.984C392.148 37.452 391.848 37.854 391.464 38.19C391.092 38.526 390.66 38.784 390.168 38.964C389.676 39.132 389.154 39.216 388.602 39.216ZM388.548 37.236C388.776 37.236 388.992 37.2 389.196 37.128C389.412 37.056 389.598 36.948 389.754 36.804C389.922 36.648 390.054 36.456 390.15 36.228C390.246 35.988 390.294 35.706 390.294 35.382C390.294 34.794 390.138 34.374 389.826 34.122C389.514 33.858 389.106 33.726 388.602 33.726C388.266 33.726 387.918 33.81 387.558 33.978C387.198 34.146 386.844 34.434 386.496 34.842C386.568 35.298 386.67 35.682 386.802 35.994C386.946 36.294 387.108 36.54 387.288 36.732C387.468 36.912 387.666 37.044 387.882 37.128C388.098 37.2 388.32 37.236 388.548 37.236ZM397.163 39C397.211 38.052 397.301 37.182 397.433 36.39C397.577 35.586 397.775 34.824 398.027 34.104C398.291 33.372 398.627 32.664 399.035 31.98C399.443 31.284 399.947 30.558 400.547 29.802H394.805V27.57H403.391V29.19C402.671 29.994 402.089 30.75 401.645 31.458C401.201 32.154 400.853 32.88 400.601 33.636C400.349 34.38 400.169 35.184 400.061 36.048C399.953 36.9 399.875 37.884 399.827 39H397.163ZM410.188 39.216C409.6 39.216 409.03 39.108 408.478 38.892C407.926 38.676 407.434 38.34 407.002 37.884C406.57 37.428 406.222 36.846 405.958 36.138C405.694 35.418 405.562 34.554 405.562 33.546C405.562 32.478 405.7 31.554 405.976 30.774C406.252 29.994 406.618 29.352 407.074 28.848C407.542 28.344 408.07 27.972 408.658 27.732C409.246 27.48 409.858 27.354 410.494 27.354C411.31 27.354 412.024 27.492 412.636 27.768C413.248 28.032 413.746 28.35 414.13 28.722L412.744 30.306C412.504 30.09 412.204 29.904 411.844 29.748C411.484 29.58 411.112 29.496 410.728 29.496C410.38 29.496 410.044 29.562 409.72 29.694C409.408 29.814 409.126 30.018 408.874 30.306C408.634 30.582 408.436 30.948 408.28 31.404C408.124 31.86 408.034 32.424 408.01 33.096C408.418 32.7 408.868 32.394 409.36 32.178C409.864 31.962 410.332 31.854 410.764 31.854C411.268 31.854 411.73 31.926 412.15 32.07C412.582 32.214 412.954 32.43 413.266 32.718C413.59 33.006 413.842 33.372 414.022 33.816C414.202 34.26 414.292 34.782 414.292 35.382C414.292 35.982 414.178 36.516 413.95 36.984C413.734 37.452 413.434 37.854 413.05 38.19C412.678 38.526 412.246 38.784 411.754 38.964C411.262 39.132 410.74 39.216 410.188 39.216ZM410.134 37.236C410.362 37.236 410.578 37.2 410.782 37.128C410.998 37.056 411.184 36.948 411.34 36.804C411.508 36.648 411.64 36.456 411.736 36.228C411.832 35.988 411.88 35.706 411.88 35.382C411.88 34.794 411.724 34.374 411.412 34.122C411.1 33.858 410.692 33.726 410.188 33.726C409.852 33.726 409.504 33.81 409.144 33.978C408.784 34.146 408.43 34.434 408.082 34.842C408.154 35.298 408.256 35.682 408.388 35.994C408.532 36.294 408.694 36.54 408.874 36.732C409.054 36.912 409.252 37.044 409.468 37.128C409.684 37.2 409.906 37.236 410.134 37.236Z" fill="#232A3D"/>
<path d="M439.333 39.216C438.349 39.216 437.503 39.072 436.795 38.784C436.087 38.484 435.511 38.088 435.067 37.596L436.291 35.922C436.675 36.258 437.101 36.534 437.569 36.75C438.049 36.966 438.553 37.074 439.081 37.074C439.705 37.074 440.215 36.96 440.611 36.732C441.019 36.492 441.223 36.156 441.223 35.724C441.223 35.472 441.169 35.244 441.061 35.04C440.953 34.836 440.767 34.668 440.503 34.536C440.239 34.392 439.885 34.284 439.441 34.212C438.997 34.128 438.439 34.086 437.767 34.086V32.214C438.895 32.214 439.687 32.076 440.143 31.8C440.611 31.512 440.845 31.14 440.845 30.684C440.845 30.288 440.695 29.982 440.395 29.766C440.095 29.538 439.681 29.424 439.153 29.424C438.697 29.424 438.277 29.514 437.893 29.694C437.509 29.874 437.119 30.12 436.723 30.432L435.391 28.812C435.955 28.356 436.555 28.002 437.191 27.75C437.839 27.486 438.535 27.354 439.279 27.354C439.903 27.354 440.473 27.426 440.989 27.57C441.505 27.702 441.949 27.906 442.321 28.182C442.693 28.446 442.981 28.77 443.185 29.154C443.389 29.538 443.491 29.982 443.491 30.486C443.491 31.086 443.299 31.596 442.915 32.016C442.531 32.424 441.997 32.76 441.313 33.024V33.096C442.033 33.288 442.639 33.618 443.131 34.086C443.623 34.542 443.869 35.142 443.869 35.886C443.869 36.414 443.743 36.888 443.491 37.308C443.251 37.716 442.921 38.064 442.501 38.352C442.093 38.628 441.613 38.844 441.061 39C440.509 39.144 439.933 39.216 439.333 39.216ZM450.504 39.216C449.88 39.216 449.376 39.018 448.992 38.622C448.608 38.214 448.416 37.71 448.416 37.11C448.416 36.81 448.464 36.534 448.56 36.282C448.668 36.018 448.812 35.79 448.992 35.598C449.172 35.406 449.388 35.256 449.64 35.148C449.904 35.04 450.192 34.986 450.504 34.986C450.816 34.986 451.098 35.04 451.35 35.148C451.614 35.256 451.836 35.406 452.016 35.598C452.196 35.79 452.334 36.018 452.43 36.282C452.538 36.534 452.592 36.81 452.592 37.11C452.592 37.71 452.4 38.214 452.016 38.622C451.632 39.018 451.128 39.216 450.504 39.216ZM460.99 39.216C459.994 39.216 459.148 39.066 458.452 38.766C457.768 38.454 457.192 38.07 456.724 37.614L457.912 35.94C458.296 36.252 458.704 36.522 459.136 36.75C459.58 36.966 460.072 37.074 460.612 37.074C461.26 37.074 461.788 36.924 462.196 36.624C462.616 36.324 462.826 35.88 462.826 35.292C462.826 34.716 462.628 34.278 462.232 33.978C461.848 33.678 461.35 33.528 460.738 33.528C460.546 33.528 460.372 33.54 460.216 33.564C460.072 33.576 459.928 33.606 459.784 33.654C459.64 33.702 459.49 33.762 459.334 33.834C459.178 33.906 459.004 33.996 458.812 34.104L457.642 33.348L457.948 27.57H464.95V29.802H460.234L460.036 31.944C460.3 31.848 460.546 31.782 460.774 31.746C461.002 31.698 461.26 31.674 461.548 31.674C462.076 31.674 462.574 31.746 463.042 31.89C463.522 32.034 463.942 32.25 464.302 32.538C464.662 32.826 464.944 33.192 465.148 33.636C465.364 34.08 465.472 34.608 465.472 35.22C465.472 35.856 465.346 36.42 465.094 36.912C464.854 37.404 464.524 37.824 464.104 38.172C463.696 38.508 463.222 38.766 462.682 38.946C462.142 39.126 461.578 39.216 460.99 39.216Z" fill="#232A3D"/>
<path d="M292.648 75V73.488C293.464 72.804 294.208 72.168 294.88 71.58C295.552 70.98 296.128 70.422 296.608 69.906C297.088 69.39 297.46 68.904 297.724 68.448C297.988 67.992 298.12 67.56 298.12 67.152C298.12 66.588 297.958 66.162 297.634 65.874C297.31 65.574 296.848 65.424 296.248 65.424C295.792 65.424 295.372 65.544 294.988 65.784C294.616 66.012 294.268 66.282 293.944 66.594L292.522 65.172C292.822 64.872 293.116 64.608 293.404 64.38C293.704 64.152 294.016 63.966 294.34 63.822C294.676 63.666 295.024 63.552 295.384 63.48C295.756 63.396 296.164 63.354 296.608 63.354C297.208 63.354 297.754 63.444 298.246 63.624C298.738 63.792 299.158 64.038 299.506 64.362C299.866 64.674 300.142 65.052 300.334 65.496C300.538 65.94 300.64 66.438 300.64 66.99C300.64 67.47 300.526 67.962 300.298 68.466C300.07 68.958 299.758 69.456 299.362 69.96C298.978 70.452 298.534 70.95 298.03 71.454C297.526 71.946 296.998 72.432 296.446 72.912C296.77 72.876 297.118 72.846 297.49 72.822C297.874 72.786 298.216 72.768 298.516 72.768H301.234V75H292.648Z" fill="#29A1F8"/>
<path d="M376.126 75.216C375.142 75.216 374.296 75.072 373.588 74.784C372.88 74.484 372.304 74.088 371.86 73.596L373.084 71.922C373.468 72.258 373.894 72.534 374.362 72.75C374.842 72.966 375.346 73.074 375.874 73.074C376.498 73.074 377.008 72.96 377.404 72.732C377.812 72.492 378.016 72.156 378.016 71.724C378.016 71.472 377.962 71.244 377.854 71.04C377.746 70.836 377.56 70.668 377.296 70.536C377.032 70.392 376.678 70.284 376.234 70.212C375.79 70.128 375.232 70.086 374.56 70.086V68.214C375.688 68.214 376.48 68.076 376.936 67.8C377.404 67.512 377.638 67.14 377.638 66.684C377.638 66.288 377.488 65.982 377.188 65.766C376.888 65.538 376.474 65.424 375.946 65.424C375.49 65.424 375.07 65.514 374.686 65.694C374.302 65.874 373.912 66.12 373.516 66.432L372.184 64.812C372.748 64.356 373.348 64.002 373.984 63.75C374.632 63.486 375.328 63.354 376.072 63.354C376.696 63.354 377.266 63.426 377.782 63.57C378.298 63.702 378.742 63.906 379.114 64.182C379.486 64.446 379.774 64.77 379.978 65.154C380.182 65.538 380.284 65.982 380.284 66.486C380.284 67.086 380.092 67.596 379.708 68.016C379.324 68.424 378.79 68.76 378.106 69.024V69.096C378.826 69.288 379.432 69.618 379.924 70.086C380.416 70.542 380.662 71.142 380.662 71.886C380.662 72.414 380.536 72.888 380.284 73.308C380.044 73.716 379.714 74.064 379.294 74.352C378.886 74.628 378.406 74.844 377.854 75C377.302 75.144 376.726 75.216 376.126 75.216Z" fill="#29A1F8"/>
<path d="M450.742 75V72.264H445.234V70.446L450.004 63.57H453.208V70.248H454.648V72.264H453.208V75H450.742ZM447.79 70.248H450.742V68.322C450.742 67.962 450.748 67.548 450.76 67.08C450.784 66.6 450.808 66.18 450.832 65.82H450.76C450.568 66.144 450.364 66.468 450.148 66.792C449.932 67.116 449.722 67.44 449.518 67.764L447.79 70.248Z" fill="#29A1F8"/>
<path opacity="0.25" d="M143.029 90C143.029 93.6125 142.261 95.162 148.605 94.9672C148.605 94.9672 282.372 94.9672 290.176 94.9672C297.981 94.9672 297.763 103.865 297.981 103.998C298.199 104.132 298.327 95.1393 305.785 94.9672C313.244 94.7952 435.798 94.9466 444.641 94.9672C453.484 94.9878 451.888 90 451.888 90" stroke="#29A1F8" stroke-width="2"/>
</svg>
