<svg width="487" height="102" viewBox="0 0 487 102" fill="none" xmlns="http://www.w3.org/2000/svg">
<rect width="487" height="102" fill="#E5E5E5"/>
<path d="M487 0H0V102H487V0Z" fill="white"/>
<path d="M24 11H229V86H24V11Z" fill="#F1F4F8"/>
<path d="M30.2356 29.0107C30.2356 28.5227 30.3076 28.0867 30.4516 27.7027C30.5956 27.3187 30.7836 26.9947 31.0156 26.7307C31.2556 26.4587 31.5276 26.2507 31.8316 26.1067C32.1356 25.9627 32.4516 25.8907 32.7796 25.8907C33.1236 25.8907 33.4116 25.9507 33.6436 26.0707C33.8756 26.1827 34.0956 26.3347 34.3036 26.5267L34.2436 25.6027V23.5747H36.0076V31.9867H34.5676L34.4356 31.3747H34.3996C34.1756 31.5907 33.9196 31.7707 33.6316 31.9147C33.3436 32.0587 33.0476 32.1307 32.7436 32.1307C32.3676 32.1307 32.0236 32.0587 31.7116 31.9147C31.4076 31.7707 31.1436 31.5667 30.9196 31.3027C30.7036 31.0307 30.5356 30.7027 30.4156 30.3187C30.2956 29.9347 30.2356 29.4987 30.2356 29.0107ZM32.0476 28.9867C32.0476 29.5787 32.1476 30.0107 32.3476 30.2827C32.5476 30.5547 32.8316 30.6907 33.1996 30.6907C33.3996 30.6907 33.5836 30.6507 33.7516 30.5707C33.9196 30.4827 34.0836 30.3387 34.2436 30.1387V27.7267C34.0836 27.5827 33.9196 27.4827 33.7516 27.4267C33.5916 27.3627 33.4236 27.3307 33.2476 27.3307C32.9196 27.3307 32.6356 27.4667 32.3956 27.7387C32.1636 28.0107 32.0476 28.4267 32.0476 28.9867ZM37.527 29.0107C37.527 28.5227 37.611 28.0867 37.779 27.7027C37.955 27.3187 38.187 26.9947 38.475 26.7307C38.763 26.4587 39.091 26.2507 39.459 26.1067C39.835 25.9627 40.223 25.8907 40.623 25.8907C41.079 25.8907 41.483 25.9627 41.835 26.1067C42.187 26.2507 42.479 26.4507 42.711 26.7067C42.943 26.9627 43.119 27.2667 43.239 27.6187C43.359 27.9627 43.419 28.3387 43.419 28.7467C43.419 28.9067 43.411 29.0587 43.395 29.2027C43.379 29.3467 43.363 29.4547 43.347 29.5267H39.339C39.403 29.9747 39.595 30.2987 39.915 30.4987C40.243 30.6907 40.627 30.7867 41.067 30.7867C41.339 30.7867 41.595 30.7547 41.835 30.6907C42.083 30.6187 42.339 30.5147 42.603 30.3787L43.179 31.4347C42.843 31.6507 42.467 31.8227 42.051 31.9507C41.635 32.0707 41.227 32.1307 40.827 32.1307C40.363 32.1307 39.931 32.0627 39.531 31.9267C39.131 31.7827 38.783 31.5787 38.487 31.3147C38.191 31.0427 37.955 30.7147 37.779 30.3307C37.611 29.9467 37.527 29.5067 37.527 29.0107ZM41.823 28.3627C41.823 28.0267 41.731 27.7547 41.547 27.5467C41.363 27.3387 41.067 27.2347 40.659 27.2347C40.339 27.2347 40.055 27.3267 39.807 27.5107C39.559 27.6947 39.395 27.9787 39.315 28.3627H41.823ZM50.7463 25.0507C50.3543 24.8987 49.9383 24.8227 49.4983 24.8227C49.1143 24.8227 48.8303 24.9067 48.6463 25.0747C48.4703 25.2427 48.3823 25.5067 48.3823 25.8667V26.0347H50.4343V27.4147H48.3823V31.9867H46.6183V27.4147H45.0463V26.1067L46.6183 26.0347V25.8787C46.6183 25.5347 46.6703 25.2147 46.7743 24.9187C46.8783 24.6227 47.0383 24.3667 47.2543 24.1507C47.4703 23.9267 47.7463 23.7507 48.0823 23.6227C48.4183 23.4947 48.8183 23.4307 49.2823 23.4307C49.6263 23.4307 49.9463 23.4627 50.2423 23.5267C50.5463 23.5907 50.8263 23.6667 51.0823 23.7547L50.7463 25.0507Z" fill="#0C570A"/>
<path d="M142.545 34.1107C141.737 33.4387 141.097 32.6467 140.625 31.7347C140.161 30.8227 139.929 29.7947 139.929 28.6507C139.929 27.5067 140.161 26.4787 140.625 25.5667C141.097 24.6547 141.737 23.8627 142.545 23.1907L143.313 23.8267C142.553 24.5147 141.997 25.2467 141.645 26.0227C141.293 26.7987 141.117 27.6747 141.117 28.6507C141.117 29.6267 141.293 30.5027 141.645 31.2787C141.997 32.0547 142.553 32.7867 143.313 33.4747L142.545 34.1107ZM146.285 33.4747C147.045 32.7867 147.601 32.0547 147.953 31.2787C148.305 30.5027 148.481 29.6267 148.481 28.6507C148.481 27.6747 148.305 26.7987 147.953 26.0227C147.601 25.2467 147.045 24.5147 146.285 23.8267L147.053 23.1907C147.861 23.8627 148.497 24.6547 148.961 25.5667C149.433 26.4787 149.669 27.5067 149.669 28.6507C149.669 29.7947 149.433 30.8227 148.961 31.7347C148.497 32.6467 147.861 33.4387 147.053 34.1107L146.285 33.4747ZM154.404 26.8387C154.404 26.4867 154.516 26.1987 154.74 25.9747C154.964 25.7427 155.248 25.6267 155.592 25.6267C155.936 25.6267 156.22 25.7427 156.444 25.9747C156.668 26.1987 156.78 26.4867 156.78 26.8387C156.78 27.1907 156.668 27.4827 156.444 27.7147C156.22 27.9387 155.936 28.0507 155.592 28.0507C155.248 28.0507 154.964 27.9387 154.74 27.7147C154.516 27.4827 154.404 27.1907 154.404 26.8387ZM154.404 30.9187C154.404 30.5667 154.516 30.2787 154.74 30.0547C154.964 29.8227 155.248 29.7067 155.592 29.7067C155.936 29.7067 156.22 29.8227 156.444 30.0547C156.668 30.2787 156.78 30.5667 156.78 30.9187C156.78 31.2707 156.668 31.5627 156.444 31.7947C156.22 32.0187 155.936 32.1307 155.592 32.1307C155.248 32.1307 154.964 32.0187 154.74 31.7947C154.516 31.5627 154.404 31.2707 154.404 30.9187Z" fill="#2E383C"/>
<path d="M59.0289 26.0947H60.0729L60.1809 26.8507H60.2169C60.3529 26.5947 60.5169 26.3827 60.7089 26.2147C60.9089 26.0387 61.1769 25.9507 61.5129 25.9507C62.0889 25.9507 62.4489 26.2787 62.5929 26.9347C62.7289 26.6547 62.9009 26.4227 63.1089 26.2387C63.3249 26.0467 63.5969 25.9507 63.9249 25.9507C64.3409 25.9507 64.6609 26.1147 64.8849 26.4427C65.1169 26.7627 65.2329 27.2187 65.2329 27.8107V31.9867H63.9249V27.9187C63.9249 27.3987 63.7609 27.1387 63.4329 27.1387C63.2729 27.1387 63.1329 27.1987 63.0129 27.3187C62.8929 27.4387 62.7769 27.6227 62.6649 27.8707V31.9867H61.5849V27.9187C61.5849 27.3987 61.4169 27.1387 61.0809 27.1387C60.9209 27.1387 60.7849 27.1987 60.6729 27.3187C60.5609 27.4387 60.4489 27.6227 60.3369 27.8707V31.9867H59.0289V26.0947ZM66.7162 33.2107C66.7962 33.2347 66.8762 33.2547 66.9562 33.2707C67.0362 33.2867 67.1202 33.2947 67.2082 33.2947C67.5842 33.2947 67.8842 33.1987 68.1082 33.0067C68.3322 32.8227 68.5042 32.5827 68.6242 32.2867L68.7682 31.9147L66.1282 26.0947H67.5082L68.7202 28.9867C68.8322 29.2507 68.9402 29.5307 69.0442 29.8267C69.1482 30.1227 69.2562 30.4187 69.3682 30.7147H69.4162C69.5042 30.4347 69.6002 30.1467 69.7042 29.8507C69.8082 29.5547 69.9082 29.2667 70.0042 28.9867L71.0722 26.0947H72.3802L69.9202 32.2507C69.7922 32.5867 69.6482 32.8867 69.4882 33.1507C69.3362 33.4147 69.1562 33.6387 68.9482 33.8227C68.7402 34.0147 68.5002 34.1587 68.2282 34.2547C67.9562 34.3587 67.6442 34.4107 67.2922 34.4107C67.1322 34.4107 66.9802 34.3987 66.8362 34.3747C66.6922 34.3587 66.5642 34.3307 66.4522 34.2907L66.7162 33.2107ZM79.3235 32.7307V33.8107H73.5635V32.7307H79.3235ZM86.7348 24.7147C86.5188 24.6267 86.3068 24.5627 86.0988 24.5227C85.8988 24.4827 85.6788 24.4627 85.4388 24.4627C84.9828 24.4627 84.6508 24.5747 84.4428 24.7987C84.2428 25.0147 84.1428 25.3307 84.1428 25.7467V26.0947H86.3868V27.1867H84.1428V31.9867H82.7748V27.1867H81.1428V26.1547L82.7748 26.0947V25.7707C82.7748 25.4267 82.8228 25.1067 82.9188 24.8107C83.0148 24.5147 83.1628 24.2627 83.3628 24.0547C83.5708 23.8387 83.8308 23.6707 84.1428 23.5507C84.4628 23.4307 84.8388 23.3707 85.2708 23.3707C85.5908 23.3707 85.8948 23.3987 86.1828 23.4547C86.4788 23.5107 86.7588 23.5907 87.0228 23.6947L86.7348 24.7147ZM93.4141 31.9867H92.2861L92.1781 31.0507H92.1301C91.8501 31.3787 91.5421 31.6427 91.2061 31.8427C90.8701 32.0347 90.4821 32.1307 90.0421 32.1307C89.3541 32.1307 88.8541 31.9267 88.5421 31.5187C88.2301 31.1027 88.0741 30.5107 88.0741 29.7427V26.0947H89.4541V29.5627C89.4541 30.0427 89.5341 30.3947 89.6941 30.6187C89.8621 30.8347 90.1501 30.9427 90.5581 30.9427C90.8381 30.9427 91.0861 30.8787 91.3021 30.7507C91.5261 30.6227 91.7701 30.3947 92.0341 30.0667V26.0947H93.4141V31.9867ZM95.4135 26.0947H96.5535L96.6615 26.9827H96.7095C96.9895 26.7027 97.2975 26.4627 97.6335 26.2627C97.9775 26.0547 98.3775 25.9507 98.8335 25.9507C99.5135 25.9507 100.013 26.1587 100.333 26.5747C100.653 26.9827 100.813 27.5707 100.813 28.3387V31.9867H99.4215V28.5187C99.4215 28.0387 99.3375 27.6907 99.1695 27.4747C99.0095 27.2507 98.7255 27.1387 98.3175 27.1387C98.0295 27.1387 97.7735 27.2067 97.5495 27.3427C97.3255 27.4787 97.0775 27.6867 96.8055 27.9667V31.9867H95.4135V26.0947ZM102.501 29.0467C102.501 28.5587 102.589 28.1227 102.765 27.7387C102.949 27.3547 103.193 27.0307 103.497 26.7667C103.801 26.5027 104.157 26.3027 104.565 26.1667C104.973 26.0227 105.401 25.9507 105.849 25.9507C106.329 25.9507 106.749 26.0307 107.109 26.1907C107.477 26.3507 107.785 26.5467 108.033 26.7787L107.373 27.6427C107.141 27.4587 106.905 27.3187 106.665 27.2227C106.433 27.1267 106.185 27.0787 105.921 27.0787C105.329 27.0787 104.849 27.2587 104.481 27.6187C104.113 27.9707 103.929 28.4467 103.929 29.0467C103.929 29.3427 103.977 29.6107 104.073 29.8507C104.169 30.0907 104.301 30.2987 104.469 30.4747C104.645 30.6427 104.853 30.7747 105.093 30.8707C105.333 30.9587 105.597 31.0027 105.885 31.0027C106.221 31.0027 106.525 30.9387 106.797 30.8107C107.077 30.6827 107.333 30.5307 107.565 30.3547L108.141 31.2427C107.805 31.5387 107.429 31.7627 107.013 31.9147C106.597 32.0587 106.177 32.1307 105.753 32.1307C105.289 32.1307 104.857 32.0627 104.457 31.9267C104.065 31.7907 103.721 31.5907 103.425 31.3267C103.137 31.0627 102.909 30.7387 102.741 30.3547C102.581 29.9707 102.501 29.5347 102.501 29.0467ZM111.1 27.1867H109.528V26.1547L111.16 26.0947L111.34 24.4867H112.48V26.0947H115.168V27.1867H112.48V29.6107C112.48 30.0987 112.58 30.4587 112.78 30.6907C112.98 30.9147 113.332 31.0267 113.836 31.0267C114.092 31.0267 114.324 31.0067 114.532 30.9667C114.74 30.9187 114.94 30.8587 115.132 30.7867L115.396 31.7947C115.132 31.8827 114.84 31.9587 114.52 32.0227C114.2 32.0947 113.86 32.1307 113.5 32.1307C113.052 32.1307 112.676 32.0707 112.372 31.9507C112.068 31.8307 111.82 31.6627 111.628 31.4467C111.444 31.2227 111.308 30.9547 111.22 30.6427C111.14 30.3307 111.1 29.9867 111.1 29.6107V27.1867ZM117.023 26.0947H120.959V31.9867H119.579V27.1867H117.023V26.0947ZM120.167 25.0627C119.887 25.0627 119.651 24.9787 119.459 24.8107C119.275 24.6427 119.183 24.4187 119.183 24.1387C119.183 23.8587 119.275 23.6347 119.459 23.4667C119.651 23.2907 119.887 23.2027 120.167 23.2027C120.455 23.2027 120.691 23.2907 120.875 23.4667C121.059 23.6347 121.151 23.8587 121.151 24.1387C121.151 24.4187 121.059 24.6427 120.875 24.8107C120.691 24.9787 120.455 25.0627 120.167 25.0627ZM123.847 29.0467C123.847 28.5587 123.927 28.1227 124.087 27.7387C124.255 27.3547 124.475 27.0307 124.747 26.7667C125.019 26.5027 125.335 26.3027 125.695 26.1667C126.055 26.0227 126.427 25.9507 126.811 25.9507C127.195 25.9507 127.567 26.0227 127.927 26.1667C128.287 26.3027 128.603 26.5027 128.875 26.7667C129.147 27.0307 129.363 27.3547 129.523 27.7387C129.691 28.1227 129.775 28.5587 129.775 29.0467C129.775 29.5347 129.691 29.9707 129.523 30.3547C129.363 30.7387 129.147 31.0627 128.875 31.3267C128.603 31.5907 128.287 31.7907 127.927 31.9267C127.567 32.0627 127.195 32.1307 126.811 32.1307C126.427 32.1307 126.055 32.0627 125.695 31.9267C125.335 31.7907 125.019 31.5907 124.747 31.3267C124.475 31.0627 124.255 30.7387 124.087 30.3547C123.927 29.9707 123.847 29.5347 123.847 29.0467ZM125.275 29.0467C125.275 29.6387 125.411 30.1147 125.683 30.4747C125.955 30.8267 126.331 31.0027 126.811 31.0027C127.291 31.0027 127.667 30.8267 127.939 30.4747C128.211 30.1147 128.347 29.6387 128.347 29.0467C128.347 28.4467 128.211 27.9707 127.939 27.6187C127.667 27.2587 127.291 27.0787 126.811 27.0787C126.331 27.0787 125.955 27.2587 125.683 27.6187C125.411 27.9707 125.275 28.4467 125.275 29.0467ZM131.39 26.0947H132.53L132.638 26.9827H132.686C132.966 26.7027 133.274 26.4627 133.61 26.2627C133.954 26.0547 134.354 25.9507 134.81 25.9507C135.49 25.9507 135.99 26.1587 136.31 26.5747C136.63 26.9827 136.79 27.5707 136.79 28.3387V31.9867H135.398V28.5187C135.398 28.0387 135.314 27.6907 135.146 27.4747C134.986 27.2507 134.702 27.1387 134.294 27.1387C134.006 27.1387 133.75 27.2067 133.526 27.3427C133.302 27.4787 133.054 27.6867 132.782 27.9667V31.9867H131.39V26.0947Z" fill="#0034F8"/>
<path d="M60.3129 44.6467H59.3889V43.7347H60.4209L60.6129 42.1867H59.6289V41.2747H60.7209L60.9969 39.1867H61.8129L61.5609 41.2747H62.9769L63.2409 39.1867H64.0689L63.8169 41.2747H64.7649V42.1867H63.7089L63.5169 43.7347H64.5249V44.6467H63.4089L63.1209 46.9867H62.2809L62.5689 44.6467H61.1529L60.8769 46.9867H60.0369L60.3129 44.6467ZM62.6769 43.7347L62.8689 42.1867H61.4529L61.2609 43.7347H62.6769ZM75.1235 42.1867H73.5515V41.1547L75.1835 41.0947L75.3635 39.4867H76.5035V41.0947H79.1915V42.1867H76.5035V44.6107C76.5035 45.0987 76.6035 45.4587 76.8035 45.6907C77.0035 45.9147 77.3555 46.0267 77.8595 46.0267C78.1155 46.0267 78.3475 46.0067 78.5555 45.9667C78.7635 45.9187 78.9635 45.8587 79.1555 45.7867L79.4195 46.7947C79.1555 46.8827 78.8635 46.9587 78.5435 47.0227C78.2235 47.0947 77.8835 47.1307 77.5235 47.1307C77.0755 47.1307 76.6995 47.0707 76.3955 46.9507C76.0915 46.8307 75.8435 46.6627 75.6515 46.4467C75.4675 46.2227 75.3315 45.9547 75.2435 45.6427C75.1635 45.3307 75.1235 44.9867 75.1235 44.6107V42.1867ZM81.0228 38.5147H82.4148V40.6987L82.3308 41.9587C82.6028 41.6867 82.9068 41.4507 83.2428 41.2507C83.5868 41.0507 83.9868 40.9507 84.4428 40.9507C85.1228 40.9507 85.6228 41.1587 85.9428 41.5747C86.2628 41.9827 86.4228 42.5707 86.4228 43.3387V46.9867H85.0308V43.5187C85.0308 43.0387 84.9468 42.6907 84.7788 42.4747C84.6188 42.2507 84.3348 42.1387 83.9268 42.1387C83.6388 42.1387 83.3828 42.2067 83.1588 42.3427C82.9348 42.4787 82.6868 42.6867 82.4148 42.9667V46.9867H81.0228V38.5147ZM87.9781 44.0467C87.9781 43.5667 88.0621 43.1347 88.2301 42.7507C88.4061 42.3667 88.6341 42.0427 88.9141 41.7787C89.1941 41.5067 89.5141 41.3027 89.8741 41.1667C90.2421 41.0227 90.6181 40.9507 91.0021 40.9507C91.4421 40.9507 91.8301 41.0227 92.1661 41.1667C92.5101 41.3027 92.7981 41.4947 93.0301 41.7427C93.2621 41.9827 93.4381 42.2747 93.5581 42.6187C93.6781 42.9627 93.7381 43.3387 93.7381 43.7467C93.7381 43.8827 93.7301 44.0107 93.7141 44.1307C93.7061 44.2507 93.6941 44.3467 93.6781 44.4187H89.3941C89.4421 44.9467 89.6501 45.3547 90.0181 45.6427C90.3861 45.9227 90.8381 46.0627 91.3741 46.0627C91.6781 46.0627 91.9621 46.0227 92.2261 45.9427C92.4901 45.8547 92.7581 45.7347 93.0301 45.5827L93.4981 46.4467C93.1781 46.6467 92.8221 46.8107 92.4301 46.9387C92.0381 47.0667 91.6261 47.1307 91.1941 47.1307C90.7461 47.1307 90.3261 47.0627 89.9341 46.9267C89.5421 46.7827 89.2021 46.5787 88.9141 46.3147C88.6261 46.0507 88.3981 45.7307 88.2301 45.3547C88.0621 44.9707 87.9781 44.5347 87.9781 44.0467ZM92.4661 43.4827C92.4661 43.0267 92.3461 42.6707 92.1061 42.4147C91.8661 42.1507 91.5101 42.0187 91.0381 42.0187C90.6381 42.0187 90.2821 42.1427 89.9701 42.3907C89.6581 42.6387 89.4621 43.0027 89.3821 43.4827H92.4661ZM102.261 44.0467C102.261 43.5667 102.333 43.1347 102.477 42.7507C102.621 42.3667 102.813 42.0427 103.053 41.7787C103.301 41.5147 103.581 41.3107 103.893 41.1667C104.205 41.0227 104.529 40.9507 104.865 40.9507C105.217 40.9507 105.517 41.0147 105.765 41.1427C106.021 41.2627 106.269 41.4307 106.509 41.6467L106.449 40.6507V38.5147H107.841V46.9867H106.701L106.593 46.3027H106.557C106.325 46.5347 106.053 46.7307 105.741 46.8907C105.437 47.0507 105.117 47.1307 104.781 47.1307C104.405 47.1307 104.061 47.0627 103.749 46.9267C103.437 46.7827 103.169 46.5787 102.945 46.3147C102.729 46.0507 102.561 45.7307 102.441 45.3547C102.321 44.9707 102.261 44.5347 102.261 44.0467ZM103.689 44.0347C103.689 44.6747 103.813 45.1627 104.061 45.4987C104.309 45.8267 104.661 45.9907 105.117 45.9907C105.605 45.9907 106.049 45.7547 106.449 45.2827V42.6307C106.241 42.4307 106.033 42.2907 105.825 42.2107C105.617 42.1307 105.405 42.0907 105.189 42.0907C104.981 42.0907 104.785 42.1347 104.601 42.2227C104.425 42.3107 104.269 42.4387 104.133 42.6067C103.997 42.7667 103.889 42.9667 103.809 43.2067C103.729 43.4467 103.689 43.7227 103.689 44.0347ZM109.564 44.0467C109.564 43.5667 109.648 43.1347 109.816 42.7507C109.992 42.3667 110.22 42.0427 110.5 41.7787C110.78 41.5067 111.1 41.3027 111.46 41.1667C111.828 41.0227 112.204 40.9507 112.588 40.9507C113.028 40.9507 113.416 41.0227 113.752 41.1667C114.096 41.3027 114.384 41.4947 114.616 41.7427C114.848 41.9827 115.024 42.2747 115.144 42.6187C115.264 42.9627 115.324 43.3387 115.324 43.7467C115.324 43.8827 115.316 44.0107 115.3 44.1307C115.292 44.2507 115.28 44.3467 115.264 44.4187H110.98C111.028 44.9467 111.236 45.3547 111.604 45.6427C111.972 45.9227 112.424 46.0627 112.96 46.0627C113.264 46.0627 113.548 46.0227 113.812 45.9427C114.076 45.8547 114.344 45.7347 114.616 45.5827L115.084 46.4467C114.764 46.6467 114.408 46.8107 114.016 46.9387C113.624 47.0667 113.212 47.1307 112.78 47.1307C112.332 47.1307 111.912 47.0627 111.52 46.9267C111.128 46.7827 110.788 46.5787 110.5 46.3147C110.212 46.0507 109.984 45.7307 109.816 45.3547C109.648 44.9707 109.564 44.5347 109.564 44.0467ZM114.052 43.4827C114.052 43.0267 113.932 42.6707 113.692 42.4147C113.452 42.1507 113.096 42.0187 112.624 42.0187C112.224 42.0187 111.868 42.1427 111.556 42.3907C111.244 42.6387 111.048 43.0027 110.968 43.4827H114.052ZM118.295 42.1867H116.723V41.1547L118.355 41.0947L118.535 39.4867H119.675V41.0947H122.363V42.1867H119.675V44.6107C119.675 45.0987 119.775 45.4587 119.975 45.6907C120.175 45.9147 120.527 46.0267 121.031 46.0267C121.287 46.0267 121.519 46.0067 121.727 45.9667C121.935 45.9187 122.135 45.8587 122.327 45.7867L122.591 46.7947C122.327 46.8827 122.035 46.9587 121.715 47.0227C121.395 47.0947 121.055 47.1307 120.695 47.1307C120.247 47.1307 119.871 47.0707 119.567 46.9507C119.263 46.8307 119.015 46.6627 118.823 46.4467C118.639 46.2227 118.503 45.9547 118.415 45.6427C118.335 45.3307 118.295 44.9867 118.295 44.6107V42.1867ZM124.063 45.4027C124.063 45.0747 124.139 44.7867 124.291 44.5387C124.443 44.2827 124.683 44.0667 125.011 43.8907C125.339 43.7147 125.759 43.5707 126.271 43.4587C126.783 43.3467 127.403 43.2667 128.131 43.2187C128.107 42.8827 127.987 42.6067 127.771 42.3907C127.555 42.1747 127.207 42.0667 126.727 42.0667C126.391 42.0667 126.059 42.1307 125.731 42.2587C125.411 42.3787 125.099 42.5227 124.795 42.6907L124.291 41.7667C124.651 41.5587 125.063 41.3707 125.527 41.2027C125.991 41.0347 126.475 40.9507 126.979 40.9507C127.803 40.9507 128.431 41.1707 128.863 41.6107C129.295 42.0427 129.511 42.6707 129.511 43.4947V46.9867H128.383L128.275 46.2547H128.239C127.927 46.4947 127.579 46.7027 127.195 46.8787C126.819 47.0467 126.431 47.1307 126.031 47.1307C125.743 47.1307 125.479 47.0867 125.239 46.9987C124.999 46.9187 124.791 46.8027 124.615 46.6507C124.439 46.4987 124.303 46.3187 124.207 46.1107C124.111 45.8947 124.063 45.6587 124.063 45.4027ZM125.395 45.2947C125.395 45.5587 125.495 45.7507 125.695 45.8707C125.903 45.9907 126.155 46.0507 126.451 46.0507C126.747 46.0507 127.031 45.9867 127.303 45.8587C127.583 45.7227 127.859 45.5467 128.131 45.3307V44.0827C127.603 44.1227 127.163 44.1787 126.811 44.2507C126.459 44.3147 126.179 44.3987 125.971 44.5027C125.763 44.6067 125.615 44.7267 125.527 44.8627C125.439 44.9907 125.395 45.1347 125.395 45.2947ZM131.414 41.0947H135.35V46.9867H133.97V42.1867H131.414V41.0947ZM134.558 40.0627C134.278 40.0627 134.042 39.9787 133.85 39.8107C133.666 39.6427 133.574 39.4187 133.574 39.1387C133.574 38.8587 133.666 38.6347 133.85 38.4667C134.042 38.2907 134.278 38.2027 134.558 38.2027C134.846 38.2027 135.082 38.2907 135.266 38.4667C135.45 38.6347 135.542 38.8587 135.542 39.1387C135.542 39.4187 135.45 39.6427 135.266 39.8107C135.082 39.9787 134.846 40.0627 134.558 40.0627ZM138.453 38.5147H141.693V44.9107C141.693 45.3107 141.793 45.5947 141.993 45.7627C142.193 45.9227 142.445 46.0027 142.749 46.0027C143.037 46.0027 143.373 45.9267 143.757 45.7747L144.081 46.7947C143.801 46.8907 143.537 46.9707 143.289 47.0347C143.049 47.0987 142.757 47.1307 142.413 47.1307C141.717 47.1307 141.193 46.9307 140.841 46.5307C140.489 46.1307 140.313 45.5667 140.313 44.8387V39.6067H138.453V38.5147ZM146.189 45.3427C146.525 45.5747 146.873 45.7587 147.233 45.8947C147.601 46.0227 148.013 46.0867 148.469 46.0867C148.933 46.0867 149.273 46.0227 149.489 45.8947C149.705 45.7587 149.813 45.5867 149.813 45.3787C149.813 45.1707 149.673 44.9987 149.393 44.8627C149.113 44.7187 148.673 44.5667 148.073 44.4067C147.793 44.3347 147.521 44.2467 147.257 44.1427C146.993 44.0387 146.761 43.9187 146.561 43.7827C146.361 43.6467 146.201 43.4907 146.081 43.3147C145.961 43.1387 145.901 42.9387 145.901 42.7147C145.901 42.1947 146.125 41.7707 146.573 41.4427C147.021 41.1147 147.665 40.9507 148.505 40.9507C148.985 40.9507 149.437 41.0307 149.861 41.1907C150.285 41.3507 150.649 41.5307 150.953 41.7307L150.317 42.5827C150.053 42.4067 149.769 42.2667 149.465 42.1627C149.169 42.0507 148.853 41.9947 148.517 41.9947C148.061 41.9947 147.741 42.0587 147.557 42.1867C147.373 42.3067 147.281 42.4587 147.281 42.6427C147.281 42.7467 147.321 42.8427 147.401 42.9307C147.489 43.0107 147.605 43.0867 147.749 43.1587C147.901 43.2227 148.077 43.2867 148.277 43.3507C148.477 43.4147 148.697 43.4747 148.937 43.5307C149.281 43.6187 149.589 43.7187 149.861 43.8307C150.141 43.9347 150.377 44.0547 150.569 44.1907C150.769 44.3267 150.921 44.4867 151.025 44.6707C151.137 44.8547 151.193 45.0667 151.193 45.3067C151.193 45.5627 151.133 45.8027 151.013 46.0267C150.893 46.2427 150.717 46.4347 150.485 46.6027C150.253 46.7627 149.965 46.8907 149.621 46.9867C149.277 47.0827 148.881 47.1307 148.433 47.1307C147.881 47.1307 147.353 47.0427 146.849 46.8667C146.345 46.6907 145.909 46.4747 145.541 46.2187L146.189 45.3427ZM159.823 44.0467C159.823 43.5587 159.903 43.1227 160.063 42.7387C160.231 42.3547 160.451 42.0307 160.723 41.7667C160.995 41.5027 161.311 41.3027 161.671 41.1667C162.031 41.0227 162.403 40.9507 162.787 40.9507C163.171 40.9507 163.543 41.0227 163.903 41.1667C164.263 41.3027 164.579 41.5027 164.851 41.7667C165.123 42.0307 165.339 42.3547 165.499 42.7387C165.667 43.1227 165.751 43.5587 165.751 44.0467C165.751 44.5347 165.667 44.9707 165.499 45.3547C165.339 45.7387 165.123 46.0627 164.851 46.3267C164.579 46.5907 164.263 46.7907 163.903 46.9267C163.543 47.0627 163.171 47.1307 162.787 47.1307C162.403 47.1307 162.031 47.0627 161.671 46.9267C161.311 46.7907 160.995 46.5907 160.723 46.3267C160.451 46.0627 160.231 45.7387 160.063 45.3547C159.903 44.9707 159.823 44.5347 159.823 44.0467ZM161.251 44.0467C161.251 44.6387 161.387 45.1147 161.659 45.4747C161.931 45.8267 162.307 46.0027 162.787 46.0027C163.267 46.0027 163.643 45.8267 163.915 45.4747C164.187 45.1147 164.323 44.6387 164.323 44.0467C164.323 43.4467 164.187 42.9707 163.915 42.6187C163.643 42.2587 163.267 42.0787 162.787 42.0787C162.307 42.0787 161.931 42.2587 161.659 42.6187C161.387 42.9707 161.251 43.4467 161.251 44.0467ZM173.079 39.7147C172.863 39.6267 172.651 39.5627 172.443 39.5227C172.243 39.4827 172.023 39.4627 171.783 39.4627C171.327 39.4627 170.995 39.5747 170.787 39.7987C170.587 40.0147 170.487 40.3307 170.487 40.7467V41.0947H172.731V42.1867H170.487V46.9867H169.119V42.1867H167.487V41.1547L169.119 41.0947V40.7707C169.119 40.4267 169.167 40.1067 169.263 39.8107C169.359 39.5147 169.507 39.2627 169.707 39.0547C169.915 38.8387 170.175 38.6707 170.487 38.5507C170.807 38.4307 171.183 38.3707 171.615 38.3707C171.935 38.3707 172.239 38.3987 172.527 38.4547C172.823 38.5107 173.103 38.5907 173.367 38.6947L173.079 39.7147ZM183.053 42.1867H181.481V41.1547L183.113 41.0947L183.293 39.4867H184.433V41.0947H187.121V42.1867H184.433V44.6107C184.433 45.0987 184.533 45.4587 184.733 45.6907C184.933 45.9147 185.285 46.0267 185.789 46.0267C186.045 46.0267 186.277 46.0067 186.485 45.9667C186.693 45.9187 186.893 45.8587 187.085 45.7867L187.349 46.7947C187.085 46.8827 186.793 46.9587 186.473 47.0227C186.153 47.0947 185.813 47.1307 185.453 47.1307C185.005 47.1307 184.629 47.0707 184.325 46.9507C184.021 46.8307 183.773 46.6627 183.581 46.4467C183.397 46.2227 183.261 45.9547 183.173 45.6427C183.093 45.3307 183.053 44.9867 183.053 44.6107V42.1867ZM188.953 38.5147H190.345V40.6987L190.261 41.9587C190.533 41.6867 190.837 41.4507 191.173 41.2507C191.517 41.0507 191.917 40.9507 192.373 40.9507C193.053 40.9507 193.553 41.1587 193.873 41.5747C194.193 41.9827 194.353 42.5707 194.353 43.3387V46.9867H192.961V43.5187C192.961 43.0387 192.877 42.6907 192.709 42.4747C192.549 42.2507 192.265 42.1387 191.857 42.1387C191.569 42.1387 191.313 42.2067 191.089 42.3427C190.865 42.4787 190.617 42.6867 190.345 42.9667V46.9867H188.953V38.5147ZM195.908 44.0467C195.908 43.5667 195.992 43.1347 196.16 42.7507C196.336 42.3667 196.564 42.0427 196.844 41.7787C197.124 41.5067 197.444 41.3027 197.804 41.1667C198.172 41.0227 198.548 40.9507 198.932 40.9507C199.372 40.9507 199.76 41.0227 200.096 41.1667C200.44 41.3027 200.728 41.4947 200.96 41.7427C201.192 41.9827 201.368 42.2747 201.488 42.6187C201.608 42.9627 201.668 43.3387 201.668 43.7467C201.668 43.8827 201.66 44.0107 201.644 44.1307C201.636 44.2507 201.624 44.3467 201.608 44.4187H197.324C197.372 44.9467 197.58 45.3547 197.948 45.6427C198.316 45.9227 198.768 46.0627 199.304 46.0627C199.608 46.0627 199.892 46.0227 200.156 45.9427C200.42 45.8547 200.688 45.7347 200.96 45.5827L201.428 46.4467C201.108 46.6467 200.752 46.8107 200.36 46.9387C199.968 47.0667 199.556 47.1307 199.124 47.1307C198.676 47.1307 198.256 47.0627 197.864 46.9267C197.472 46.7827 197.132 46.5787 196.844 46.3147C196.556 46.0507 196.328 45.7307 196.16 45.3547C195.992 44.9707 195.908 44.5347 195.908 44.0467ZM200.396 43.4827C200.396 43.0267 200.276 42.6707 200.036 42.4147C199.796 42.1507 199.44 42.0187 198.968 42.0187C198.568 42.0187 198.212 42.1427 197.9 42.3907C197.588 42.6387 197.392 43.0027 197.312 43.4827H200.396ZM60.3129 59.6467H59.3889V58.7347H60.4209L60.6129 57.1867H59.6289V56.2747H60.7209L60.9969 54.1867H61.8129L61.5609 56.2747H62.9769L63.2409 54.1867H64.0689L63.8169 56.2747H64.7649V57.1867H63.7089L63.5169 58.7347H64.5249V59.6467H63.4089L63.1209 61.9867H62.2809L62.5689 59.6467H61.1529L60.8769 61.9867H60.0369L60.3129 59.6467ZM62.6769 58.7347L62.8689 57.1867H61.4529L61.2609 58.7347H62.6769ZM79.5395 54.7147C79.3235 54.6267 79.1115 54.5627 78.9035 54.5227C78.7035 54.4827 78.4835 54.4627 78.2435 54.4627C77.7875 54.4627 77.4555 54.5747 77.2475 54.7987C77.0475 55.0147 76.9475 55.3307 76.9475 55.7467V56.0947H79.1915V57.1867H76.9475V61.9867H75.5795V57.1867H73.9475V56.1547L75.5795 56.0947V55.7707C75.5795 55.4267 75.6275 55.1067 75.7235 54.8107C75.8195 54.5147 75.9675 54.2627 76.1675 54.0547C76.3755 53.8387 76.6355 53.6707 76.9475 53.5507C77.2675 53.4307 77.6435 53.3707 78.0755 53.3707C78.3955 53.3707 78.6995 53.3987 78.9875 53.4547C79.2835 53.5107 79.5635 53.5907 79.8275 53.6947L79.5395 54.7147ZM86.2188 61.9867H85.0908L84.9828 61.0507H84.9348C84.6548 61.3787 84.3468 61.6427 84.0108 61.8427C83.6748 62.0347 83.2868 62.1307 82.8468 62.1307C82.1588 62.1307 81.6588 61.9267 81.3468 61.5187C81.0348 61.1027 80.8788 60.5107 80.8788 59.7427V56.0947H82.2588V59.5627C82.2588 60.0427 82.3388 60.3947 82.4988 60.6187C82.6668 60.8347 82.9548 60.9427 83.3628 60.9427C83.6428 60.9427 83.8908 60.8787 84.1068 60.7507C84.3308 60.6227 84.5748 60.3947 84.8388 60.0667V56.0947H86.2188V61.9867ZM88.2181 56.0947H89.3581L89.4661 56.9827H89.5141C89.7941 56.7027 90.1021 56.4627 90.4381 56.2627C90.7821 56.0547 91.1821 55.9507 91.6381 55.9507C92.3181 55.9507 92.8181 56.1587 93.1381 56.5747C93.4581 56.9827 93.6181 57.5707 93.6181 58.3387V61.9867H92.2261V58.5187C92.2261 58.0387 92.1421 57.6907 91.9741 57.4747C91.8141 57.2507 91.5301 57.1387 91.1221 57.1387C90.8341 57.1387 90.5781 57.2067 90.3541 57.3427C90.1301 57.4787 89.8821 57.6867 89.6101 57.9667V61.9867H88.2181V56.0947ZM95.3055 59.0467C95.3055 58.5587 95.3935 58.1227 95.5695 57.7387C95.7535 57.3547 95.9975 57.0307 96.3015 56.7667C96.6055 56.5027 96.9615 56.3027 97.3695 56.1667C97.7775 56.0227 98.2055 55.9507 98.6535 55.9507C99.1335 55.9507 99.5535 56.0307 99.9135 56.1907C100.281 56.3507 100.589 56.5467 100.837 56.7787L100.177 57.6427C99.9455 57.4587 99.7095 57.3187 99.4695 57.2227C99.2375 57.1267 98.9895 57.0787 98.7255 57.0787C98.1335 57.0787 97.6535 57.2587 97.2855 57.6187C96.9175 57.9707 96.7335 58.4467 96.7335 59.0467C96.7335 59.3427 96.7815 59.6107 96.8775 59.8507C96.9735 60.0907 97.1055 60.2987 97.2735 60.4747C97.4495 60.6427 97.6575 60.7747 97.8975 60.8707C98.1375 60.9587 98.4015 61.0027 98.6895 61.0027C99.0255 61.0027 99.3295 60.9387 99.6015 60.8107C99.8815 60.6827 100.137 60.5307 100.369 60.3547L100.945 61.2427C100.609 61.5387 100.233 61.7627 99.8175 61.9147C99.4015 62.0587 98.9815 62.1307 98.5575 62.1307C98.0935 62.1307 97.6615 62.0627 97.2615 61.9267C96.8695 61.7907 96.5255 61.5907 96.2295 61.3267C95.9415 61.0627 95.7135 60.7387 95.5455 60.3547C95.3855 59.9707 95.3055 59.5347 95.3055 59.0467ZM103.905 57.1867H102.333V56.1547L103.965 56.0947L104.145 54.4867H105.285V56.0947H107.973V57.1867H105.285V59.6107C105.285 60.0987 105.385 60.4587 105.585 60.6907C105.785 60.9147 106.137 61.0267 106.641 61.0267C106.897 61.0267 107.129 61.0067 107.337 60.9667C107.545 60.9187 107.745 60.8587 107.937 60.7867L108.201 61.7947C107.937 61.8827 107.645 61.9587 107.325 62.0227C107.005 62.0947 106.665 62.1307 106.305 62.1307C105.857 62.1307 105.481 62.0707 105.177 61.9507C104.873 61.8307 104.625 61.6627 104.433 61.4467C104.249 61.2227 104.113 60.9547 104.025 60.6427C103.945 60.3307 103.905 59.9867 103.905 59.6107V57.1867ZM109.828 56.0947H113.764V61.9867H112.384V57.1867H109.828V56.0947ZM112.972 55.0627C112.692 55.0627 112.456 54.9787 112.264 54.8107C112.08 54.6427 111.988 54.4187 111.988 54.1387C111.988 53.8587 112.08 53.6347 112.264 53.4667C112.456 53.2907 112.692 53.2027 112.972 53.2027C113.26 53.2027 113.496 53.2907 113.68 53.4667C113.864 53.6347 113.956 53.8587 113.956 54.1387C113.956 54.4187 113.864 54.6427 113.68 54.8107C113.496 54.9787 113.26 55.0627 112.972 55.0627ZM116.651 59.0467C116.651 58.5587 116.731 58.1227 116.891 57.7387C117.059 57.3547 117.279 57.0307 117.551 56.7667C117.823 56.5027 118.139 56.3027 118.499 56.1667C118.859 56.0227 119.231 55.9507 119.615 55.9507C119.999 55.9507 120.371 56.0227 120.731 56.1667C121.091 56.3027 121.407 56.5027 121.679 56.7667C121.951 57.0307 122.167 57.3547 122.327 57.7387C122.495 58.1227 122.579 58.5587 122.579 59.0467C122.579 59.5347 122.495 59.9707 122.327 60.3547C122.167 60.7387 121.951 61.0627 121.679 61.3267C121.407 61.5907 121.091 61.7907 120.731 61.9267C120.371 62.0627 119.999 62.1307 119.615 62.1307C119.231 62.1307 118.859 62.0627 118.499 61.9267C118.139 61.7907 117.823 61.5907 117.551 61.3267C117.279 61.0627 117.059 60.7387 116.891 60.3547C116.731 59.9707 116.651 59.5347 116.651 59.0467ZM118.079 59.0467C118.079 59.6387 118.215 60.1147 118.487 60.4747C118.759 60.8267 119.135 61.0027 119.615 61.0027C120.095 61.0027 120.471 60.8267 120.743 60.4747C121.015 60.1147 121.151 59.6387 121.151 59.0467C121.151 58.4467 121.015 57.9707 120.743 57.6187C120.471 57.2587 120.095 57.0787 119.615 57.0787C119.135 57.0787 118.759 57.2587 118.487 57.6187C118.215 57.9707 118.079 58.4467 118.079 59.0467ZM124.195 56.0947H125.335L125.443 56.9827H125.491C125.771 56.7027 126.079 56.4627 126.415 56.2627C126.759 56.0547 127.159 55.9507 127.615 55.9507C128.295 55.9507 128.795 56.1587 129.115 56.5747C129.435 56.9827 129.595 57.5707 129.595 58.3387V61.9867H128.203V58.5187C128.203 58.0387 128.119 57.6907 127.951 57.4747C127.791 57.2507 127.507 57.1387 127.099 57.1387C126.811 57.1387 126.555 57.2067 126.331 57.3427C126.107 57.4787 125.859 57.6867 125.587 57.9667V61.9867H124.195V56.0947ZM139.497 62.8387C139.497 63.1027 139.641 63.3107 139.929 63.4627C140.225 63.6147 140.649 63.6907 141.201 63.6907C141.489 63.6907 141.749 63.6627 141.981 63.6067C142.213 63.5587 142.413 63.4907 142.581 63.4027C142.749 63.3147 142.877 63.2107 142.965 63.0907C143.053 62.9787 143.097 62.8587 143.097 62.7307C143.097 62.4987 142.997 62.3427 142.797 62.2627C142.597 62.1907 142.301 62.1547 141.909 62.1547H140.973C140.781 62.1547 140.609 62.1467 140.457 62.1307C140.313 62.1227 140.185 62.0987 140.073 62.0587C139.865 62.1867 139.717 62.3147 139.629 62.4427C139.541 62.5707 139.497 62.7027 139.497 62.8387ZM138.345 63.0187C138.345 62.7867 138.425 62.5627 138.585 62.3467C138.745 62.1307 138.977 61.9427 139.281 61.7827V61.7347C139.121 61.6467 138.981 61.5227 138.861 61.3627C138.741 61.2027 138.681 60.9987 138.681 60.7507C138.681 60.5507 138.745 60.3547 138.873 60.1627C139.001 59.9627 139.173 59.7867 139.389 59.6347V59.5867C139.181 59.4427 139.001 59.2427 138.849 58.9867C138.705 58.7307 138.633 58.4267 138.633 58.0747C138.633 57.7387 138.697 57.4387 138.825 57.1747C138.961 56.9107 139.137 56.6907 139.353 56.5147C139.577 56.3307 139.833 56.1907 140.121 56.0947C140.417 55.9987 140.729 55.9507 141.057 55.9507C141.409 55.9507 141.717 55.9987 141.981 56.0947H144.393V57.1147H143.013C143.117 57.2347 143.209 57.3827 143.289 57.5587C143.369 57.7267 143.409 57.9147 143.409 58.1227C143.409 58.4507 143.349 58.7387 143.229 58.9867C143.109 59.2347 142.941 59.4427 142.725 59.6107C142.517 59.7787 142.269 59.9067 141.981 59.9947C141.693 60.0747 141.385 60.1147 141.057 60.1147C140.761 60.1147 140.461 60.0627 140.157 59.9587C139.917 60.1107 139.797 60.2907 139.797 60.4987C139.797 60.8747 140.169 61.0627 140.913 61.0627H142.113C142.881 61.0627 143.457 61.1747 143.841 61.3987C144.233 61.6227 144.429 61.9907 144.429 62.5027C144.429 62.7907 144.349 63.0627 144.189 63.3187C144.029 63.5747 143.801 63.7947 143.505 63.9787C143.217 64.1707 142.861 64.3187 142.437 64.4227C142.021 64.5347 141.553 64.5907 141.033 64.5907C140.625 64.5907 140.257 64.5587 139.929 64.4947C139.601 64.4307 139.317 64.3307 139.077 64.1947C138.845 64.0667 138.665 63.9027 138.537 63.7027C138.409 63.5107 138.345 63.2827 138.345 63.0187ZM141.057 59.2507C141.361 59.2507 141.625 59.1507 141.849 58.9507C142.073 58.7427 142.185 58.4507 142.185 58.0747C142.185 57.7147 142.073 57.4307 141.849 57.2227C141.625 57.0067 141.361 56.8987 141.057 56.8987C140.753 56.8987 140.489 57.0067 140.265 57.2227C140.049 57.4307 139.941 57.7147 139.941 58.0747C139.941 58.4507 140.049 58.7427 140.265 58.9507C140.489 59.1507 140.753 59.2507 141.057 59.2507ZM145.433 59.0467C145.433 58.5587 145.513 58.1227 145.673 57.7387C145.841 57.3547 146.061 57.0307 146.333 56.7667C146.605 56.5027 146.921 56.3027 147.281 56.1667C147.641 56.0227 148.013 55.9507 148.397 55.9507C148.781 55.9507 149.153 56.0227 149.513 56.1667C149.873 56.3027 150.189 56.5027 150.461 56.7667C150.733 57.0307 150.949 57.3547 151.109 57.7387C151.277 58.1227 151.361 58.5587 151.361 59.0467C151.361 59.5347 151.277 59.9707 151.109 60.3547C150.949 60.7387 150.733 61.0627 150.461 61.3267C150.189 61.5907 149.873 61.7907 149.513 61.9267C149.153 62.0627 148.781 62.1307 148.397 62.1307C148.013 62.1307 147.641 62.0627 147.281 61.9267C146.921 61.7907 146.605 61.5907 146.333 61.3267C146.061 61.0627 145.841 60.7387 145.673 60.3547C145.513 59.9707 145.433 59.5347 145.433 59.0467ZM146.861 59.0467C146.861 59.6387 146.997 60.1147 147.269 60.4747C147.541 60.8267 147.917 61.0027 148.397 61.0027C148.877 61.0027 149.253 60.8267 149.525 60.4747C149.797 60.1147 149.933 59.6387 149.933 59.0467C149.933 58.4467 149.797 57.9707 149.525 57.6187C149.253 57.2587 148.877 57.0787 148.397 57.0787C147.917 57.0787 147.541 57.2587 147.269 57.6187C146.997 57.9707 146.861 58.4467 146.861 59.0467ZM160.171 53.5147H161.563V55.6987L161.479 56.9587C161.751 56.6867 162.055 56.4507 162.391 56.2507C162.735 56.0507 163.135 55.9507 163.591 55.9507C164.271 55.9507 164.771 56.1587 165.091 56.5747C165.411 56.9827 165.571 57.5707 165.571 58.3387V61.9867H164.179V58.5187C164.179 58.0387 164.095 57.6907 163.927 57.4747C163.767 57.2507 163.483 57.1387 163.075 57.1387C162.787 57.1387 162.531 57.2067 162.307 57.3427C162.083 57.4787 161.835 57.6867 161.563 57.9667V61.9867H160.171V53.5147ZM167.127 59.0467C167.127 58.5667 167.211 58.1347 167.379 57.7507C167.555 57.3667 167.783 57.0427 168.063 56.7787C168.343 56.5067 168.663 56.3027 169.023 56.1667C169.391 56.0227 169.767 55.9507 170.151 55.9507C170.591 55.9507 170.979 56.0227 171.315 56.1667C171.659 56.3027 171.947 56.4947 172.179 56.7427C172.411 56.9827 172.587 57.2747 172.707 57.6187C172.827 57.9627 172.887 58.3387 172.887 58.7467C172.887 58.8827 172.879 59.0107 172.863 59.1307C172.855 59.2507 172.843 59.3467 172.827 59.4187H168.543C168.591 59.9467 168.799 60.3547 169.167 60.6427C169.535 60.9227 169.987 61.0627 170.523 61.0627C170.827 61.0627 171.111 61.0227 171.375 60.9427C171.639 60.8547 171.907 60.7347 172.179 60.5827L172.647 61.4467C172.327 61.6467 171.971 61.8107 171.579 61.9387C171.187 62.0667 170.775 62.1307 170.343 62.1307C169.895 62.1307 169.475 62.0627 169.083 61.9267C168.691 61.7827 168.351 61.5787 168.063 61.3147C167.775 61.0507 167.547 60.7307 167.379 60.3547C167.211 59.9707 167.127 59.5347 167.127 59.0467ZM171.615 58.4827C171.615 58.0267 171.495 57.6707 171.255 57.4147C171.015 57.1507 170.659 57.0187 170.187 57.0187C169.787 57.0187 169.431 57.1427 169.119 57.3907C168.807 57.6387 168.611 58.0027 168.531 58.4827H171.615ZM175.138 56.0947H176.278L176.398 57.4267H176.434C176.738 56.9467 177.102 56.5827 177.526 56.3347C177.958 56.0787 178.43 55.9507 178.942 55.9507C179.182 55.9507 179.386 55.9707 179.554 56.0107C179.73 56.0427 179.906 56.1027 180.082 56.1907L179.794 57.3547C179.602 57.2907 179.43 57.2467 179.278 57.2227C179.134 57.1907 178.95 57.1747 178.726 57.1747C178.318 57.1747 177.926 57.2907 177.55 57.5227C177.174 57.7547 176.834 58.1587 176.53 58.7347V61.9867H175.138V56.0947ZM181.517 59.0467C181.517 58.5667 181.601 58.1347 181.769 57.7507C181.945 57.3667 182.173 57.0427 182.453 56.7787C182.733 56.5067 183.053 56.3027 183.413 56.1667C183.781 56.0227 184.157 55.9507 184.541 55.9507C184.981 55.9507 185.369 56.0227 185.705 56.1667C186.049 56.3027 186.337 56.4947 186.569 56.7427C186.801 56.9827 186.977 57.2747 187.097 57.6187C187.217 57.9627 187.277 58.3387 187.277 58.7467C187.277 58.8827 187.269 59.0107 187.253 59.1307C187.245 59.2507 187.233 59.3467 187.217 59.4187H182.933C182.981 59.9467 183.189 60.3547 183.557 60.6427C183.925 60.9227 184.377 61.0627 184.913 61.0627C185.217 61.0627 185.501 61.0227 185.765 60.9427C186.029 60.8547 186.297 60.7347 186.569 60.5827L187.037 61.4467C186.717 61.6467 186.361 61.8107 185.969 61.9387C185.577 62.0667 185.165 62.1307 184.733 62.1307C184.285 62.1307 183.865 62.0627 183.473 61.9267C183.081 61.7827 182.741 61.5787 182.453 61.3147C182.165 61.0507 181.937 60.7307 181.769 60.3547C181.601 59.9707 181.517 59.5347 181.517 59.0467ZM186.005 58.4827C186.005 58.0267 185.885 57.6707 185.645 57.4147C185.405 57.1507 185.049 57.0187 184.577 57.0187C184.177 57.0187 183.821 57.1427 183.509 57.3907C183.197 57.6387 183.001 58.0027 182.921 58.4827H186.005Z" fill="#468281"/>
<path d="M259 11H464V86H259V11Z" fill="#F1F4F8"/>
<path d="M265.476 28.0107C265.476 27.5147 265.568 27.0747 265.752 26.6907C265.944 26.2987 266.196 25.9707 266.508 25.7067C266.828 25.4427 267.196 25.2427 267.612 25.1067C268.028 24.9627 268.464 24.8907 268.92 24.8907C269.392 24.8907 269.816 24.9667 270.192 25.1187C270.576 25.2707 270.896 25.4627 271.152 25.6947L270.336 26.7867C269.896 26.4747 269.456 26.3187 269.016 26.3187C268.504 26.3187 268.088 26.4707 267.768 26.7747C267.448 27.0787 267.288 27.4907 267.288 28.0107C267.288 28.5307 267.44 28.9427 267.744 29.2467C268.056 29.5507 268.46 29.7027 268.956 29.7027C269.268 29.7027 269.556 29.6467 269.82 29.5347C270.084 29.4227 270.32 29.2907 270.528 29.1387L271.248 30.2547C270.888 30.5587 270.488 30.7827 270.048 30.9267C269.616 31.0627 269.196 31.1307 268.788 31.1307C268.316 31.1307 267.88 31.0627 267.48 30.9267C267.08 30.7827 266.728 30.5787 266.424 30.3147C266.128 30.0507 265.896 29.7267 265.728 29.3427C265.56 28.9507 265.476 28.5067 265.476 28.0107ZM272.611 22.5747H276.103V28.7307C276.103 28.9147 276.127 29.0707 276.175 29.1987C276.231 29.3187 276.303 29.4187 276.391 29.4987C276.487 29.5707 276.591 29.6227 276.703 29.6547C276.823 29.6867 276.943 29.7027 277.063 29.7027C277.199 29.7027 277.343 29.6907 277.495 29.6667C277.647 29.6347 277.815 29.5827 277.999 29.5107L278.395 30.8067C278.235 30.8547 278.087 30.8987 277.951 30.9387C277.815 30.9787 277.679 31.0107 277.543 31.0347C277.407 31.0667 277.263 31.0907 277.111 31.1067C276.959 31.1227 276.791 31.1307 276.607 31.1307C275.855 31.1307 275.287 30.9107 274.903 30.4707C274.527 30.0227 274.339 29.4187 274.339 28.6587V23.9667H272.611V22.5747ZM279.794 29.3307C279.794 28.9947 279.866 28.7027 280.01 28.4547C280.154 28.1987 280.382 27.9827 280.694 27.8067C281.014 27.6307 281.422 27.4907 281.918 27.3867C282.414 27.2747 283.014 27.1987 283.718 27.1587C283.686 26.8867 283.566 26.6747 283.358 26.5227C283.158 26.3707 282.854 26.2947 282.446 26.2947C282.158 26.2947 281.866 26.3467 281.57 26.4507C281.282 26.5467 280.97 26.6787 280.634 26.8467L280.01 25.6947C280.418 25.4627 280.854 25.2707 281.318 25.1187C281.79 24.9667 282.282 24.8907 282.794 24.8907C283.626 24.8907 284.282 25.1107 284.762 25.5507C285.242 25.9907 285.482 26.6667 285.482 27.5787V30.9867H284.042L283.91 30.3147H283.862C283.558 30.5467 283.226 30.7427 282.866 30.9027C282.506 31.0547 282.134 31.1307 281.75 31.1307C281.446 31.1307 281.174 31.0827 280.934 30.9867C280.694 30.8987 280.49 30.7747 280.322 30.6147C280.154 30.4467 280.022 30.2547 279.926 30.0387C279.838 29.8227 279.794 29.5867 279.794 29.3307ZM281.486 29.1987C281.486 29.3907 281.558 29.5347 281.702 29.6307C281.854 29.7187 282.058 29.7627 282.314 29.7627C282.578 29.7627 282.826 29.7107 283.058 29.6067C283.29 29.4947 283.51 29.3587 283.718 29.1987V28.2147C283.278 28.2387 282.914 28.2787 282.626 28.3347C282.338 28.3907 282.11 28.4627 281.942 28.5507C281.774 28.6307 281.654 28.7267 281.582 28.8387C281.518 28.9507 281.486 29.0707 281.486 29.1987ZM287.686 29.1147C288.03 29.3307 288.374 29.5027 288.718 29.6307C289.07 29.7587 289.446 29.8227 289.846 29.8227C290.254 29.8227 290.546 29.7787 290.722 29.6907C290.898 29.6027 290.986 29.4787 290.986 29.3187C290.986 29.1347 290.838 28.9867 290.542 28.8747C290.254 28.7547 289.87 28.6267 289.39 28.4907C289.126 28.4187 288.866 28.3347 288.61 28.2387C288.362 28.1347 288.138 28.0147 287.938 27.8787C287.738 27.7347 287.574 27.5707 287.446 27.3867C287.326 27.2027 287.266 26.9907 287.266 26.7507C287.266 26.4787 287.33 26.2267 287.458 25.9947C287.586 25.7627 287.766 25.5667 287.998 25.4067C288.238 25.2467 288.526 25.1227 288.862 25.0347C289.206 24.9387 289.59 24.8907 290.014 24.8907C290.542 24.8907 291.022 24.9787 291.454 25.1547C291.894 25.3227 292.27 25.5067 292.582 25.7067L291.79 26.7627C291.518 26.6027 291.238 26.4707 290.95 26.3667C290.662 26.2547 290.362 26.1987 290.05 26.1987C289.674 26.1987 289.406 26.2387 289.246 26.3187C289.094 26.3987 289.018 26.5147 289.018 26.6667C289.018 26.7547 289.058 26.8347 289.138 26.9067C289.218 26.9787 289.326 27.0427 289.462 27.0987C289.598 27.1547 289.758 27.2107 289.942 27.2667C290.134 27.3147 290.334 27.3667 290.542 27.4227C290.838 27.5027 291.118 27.5947 291.382 27.6987C291.646 27.7947 291.878 27.9107 292.078 28.0467C292.278 28.1827 292.438 28.3467 292.558 28.5387C292.678 28.7307 292.738 28.9547 292.738 29.2107C292.738 29.4827 292.674 29.7347 292.546 29.9667C292.418 30.1987 292.23 30.4027 291.982 30.5787C291.742 30.7467 291.438 30.8827 291.07 30.9867C290.71 31.0827 290.29 31.1307 289.81 31.1307C289.274 31.1307 288.75 31.0427 288.238 30.8667C287.726 30.6907 287.278 30.4747 286.894 30.2187L287.686 29.1147ZM294.881 29.1147C295.225 29.3307 295.569 29.5027 295.913 29.6307C296.265 29.7587 296.641 29.8227 297.041 29.8227C297.449 29.8227 297.741 29.7787 297.917 29.6907C298.093 29.6027 298.181 29.4787 298.181 29.3187C298.181 29.1347 298.033 28.9867 297.737 28.8747C297.449 28.7547 297.065 28.6267 296.585 28.4907C296.321 28.4187 296.061 28.3347 295.805 28.2387C295.557 28.1347 295.333 28.0147 295.133 27.8787C294.933 27.7347 294.769 27.5707 294.641 27.3867C294.521 27.2027 294.461 26.9907 294.461 26.7507C294.461 26.4787 294.525 26.2267 294.653 25.9947C294.781 25.7627 294.961 25.5667 295.193 25.4067C295.433 25.2467 295.721 25.1227 296.057 25.0347C296.401 24.9387 296.785 24.8907 297.209 24.8907C297.737 24.8907 298.217 24.9787 298.649 25.1547C299.089 25.3227 299.465 25.5067 299.777 25.7067L298.985 26.7627C298.713 26.6027 298.433 26.4707 298.145 26.3667C297.857 26.2547 297.557 26.1987 297.245 26.1987C296.869 26.1987 296.601 26.2387 296.441 26.3187C296.289 26.3987 296.213 26.5147 296.213 26.6667C296.213 26.7547 296.253 26.8347 296.333 26.9067C296.413 26.9787 296.521 27.0427 296.657 27.0987C296.793 27.1547 296.953 27.2107 297.137 27.2667C297.329 27.3147 297.529 27.3667 297.737 27.4227C298.033 27.5027 298.313 27.5947 298.577 27.6987C298.841 27.7947 299.073 27.9107 299.273 28.0467C299.473 28.1827 299.633 28.3467 299.753 28.5387C299.873 28.7307 299.933 28.9547 299.933 29.2107C299.933 29.4827 299.869 29.7347 299.741 29.9667C299.613 30.1987 299.425 30.4027 299.177 30.5787C298.937 30.7467 298.633 30.8827 298.265 30.9867C297.905 31.0827 297.485 31.1307 297.005 31.1307C296.469 31.1307 295.945 31.0427 295.433 30.8667C294.921 30.6907 294.473 30.4747 294.089 30.2187L294.881 29.1147Z" fill="#0C570A"/>
<path d="M308.72 23.1387H310.16L311.108 26.1867L311.444 27.3747H311.48L311.804 26.1867L312.728 23.1387H314.168V30.9867H313.028V27.5067C313.028 27.3227 313.032 27.0987 313.04 26.8347C313.056 26.5707 313.072 26.2987 313.088 26.0187C313.104 25.7307 313.12 25.4547 313.136 25.1907C313.16 24.9267 313.18 24.7027 313.196 24.5187H313.16L312.596 26.4387L311.768 28.8747H311.096L310.256 26.4387L309.704 24.5187H309.668C309.684 24.7027 309.7 24.9267 309.716 25.1907C309.74 25.4547 309.76 25.7307 309.776 26.0187C309.8 26.2987 309.816 26.5707 309.824 26.8347C309.84 27.0987 309.848 27.3227 309.848 27.5067V30.9867H308.72V23.1387ZM316.107 32.2107C316.187 32.2347 316.267 32.2547 316.347 32.2707C316.427 32.2867 316.511 32.2947 316.599 32.2947C316.975 32.2947 317.275 32.1987 317.499 32.0067C317.723 31.8227 317.895 31.5827 318.015 31.2867L318.159 30.9147L315.519 25.0947H316.899L318.111 27.9867C318.223 28.2507 318.331 28.5307 318.435 28.8267C318.539 29.1227 318.647 29.4187 318.759 29.7147H318.807C318.895 29.4347 318.991 29.1467 319.095 28.8507C319.199 28.5547 319.299 28.2667 319.395 27.9867L320.463 25.0947H321.771L319.311 31.2507C319.183 31.5867 319.039 31.8867 318.879 32.1507C318.727 32.4147 318.547 32.6387 318.339 32.8227C318.131 33.0147 317.891 33.1587 317.619 33.2547C317.347 33.3587 317.035 33.4107 316.683 33.4107C316.523 33.4107 316.371 33.3987 316.227 33.3747C316.083 33.3587 315.955 33.3307 315.843 33.2907L316.107 32.2107ZM322.954 27.0867C322.954 26.4467 323.046 25.8747 323.23 25.3707C323.414 24.8587 323.666 24.4267 323.986 24.0747C324.314 23.7227 324.698 23.4547 325.138 23.2707C325.586 23.0867 326.07 22.9947 326.59 22.9947C327.07 22.9947 327.498 23.0947 327.874 23.2947C328.25 23.4947 328.566 23.7227 328.822 23.9787L328.042 24.8427C327.85 24.6507 327.634 24.4987 327.394 24.3867C327.162 24.2667 326.894 24.2067 326.59 24.2067C326.262 24.2067 325.962 24.2747 325.69 24.4107C325.418 24.5387 325.186 24.7267 324.994 24.9747C324.802 25.2147 324.65 25.5107 324.538 25.8627C324.434 26.2147 324.382 26.6107 324.382 27.0507C324.382 27.4987 324.434 27.9027 324.538 28.2627C324.65 28.6147 324.802 28.9147 324.994 29.1627C325.194 29.4027 325.43 29.5907 325.702 29.7267C325.982 29.8547 326.29 29.9187 326.626 29.9187C326.946 29.9187 327.23 29.8507 327.478 29.7147C327.734 29.5787 327.974 29.3867 328.198 29.1387L328.966 29.9907C328.646 30.3587 328.286 30.6427 327.886 30.8427C327.486 31.0347 327.038 31.1307 326.542 31.1307C326.038 31.1307 325.566 31.0427 325.126 30.8667C324.694 30.6907 324.314 30.4307 323.986 30.0867C323.666 29.7427 323.414 29.3187 323.23 28.8147C323.046 28.3107 322.954 27.7347 322.954 27.0867ZM330.281 22.5147H333.521V28.9107C333.521 29.3107 333.621 29.5947 333.821 29.7627C334.021 29.9227 334.273 30.0027 334.577 30.0027C334.865 30.0027 335.201 29.9267 335.585 29.7747L335.909 30.7947C335.629 30.8907 335.365 30.9707 335.117 31.0347C334.877 31.0987 334.585 31.1307 334.241 31.1307C333.545 31.1307 333.021 30.9307 332.669 30.5307C332.317 30.1307 332.141 29.5667 332.141 28.8387V23.6067H330.281V22.5147ZM337.477 29.4027C337.477 29.0747 337.553 28.7867 337.705 28.5387C337.857 28.2827 338.097 28.0667 338.425 27.8907C338.753 27.7147 339.173 27.5707 339.685 27.4587C340.197 27.3467 340.817 27.2667 341.545 27.2187C341.521 26.8827 341.401 26.6067 341.185 26.3907C340.969 26.1747 340.621 26.0667 340.141 26.0667C339.805 26.0667 339.473 26.1307 339.145 26.2587C338.825 26.3787 338.513 26.5227 338.209 26.6907L337.705 25.7667C338.065 25.5587 338.477 25.3707 338.941 25.2027C339.405 25.0347 339.889 24.9507 340.393 24.9507C341.217 24.9507 341.845 25.1707 342.277 25.6107C342.709 26.0427 342.925 26.6707 342.925 27.4947V30.9867H341.797L341.689 30.2547H341.653C341.341 30.4947 340.993 30.7027 340.609 30.8787C340.233 31.0467 339.845 31.1307 339.445 31.1307C339.157 31.1307 338.893 31.0867 338.653 30.9987C338.413 30.9187 338.205 30.8027 338.029 30.6507C337.853 30.4987 337.717 30.3187 337.621 30.1107C337.525 29.8947 337.477 29.6587 337.477 29.4027ZM338.809 29.2947C338.809 29.5587 338.909 29.7507 339.109 29.8707C339.317 29.9907 339.569 30.0507 339.865 30.0507C340.161 30.0507 340.445 29.9867 340.717 29.8587C340.997 29.7227 341.273 29.5467 341.545 29.3307V28.0827C341.017 28.1227 340.577 28.1787 340.225 28.2507C339.873 28.3147 339.593 28.3987 339.385 28.5027C339.177 28.6067 339.029 28.7267 338.941 28.8627C338.853 28.9907 338.809 29.1347 338.809 29.2947ZM345.212 29.3427C345.548 29.5747 345.896 29.7587 346.256 29.8947C346.624 30.0227 347.036 30.0867 347.492 30.0867C347.956 30.0867 348.296 30.0227 348.512 29.8947C348.728 29.7587 348.836 29.5867 348.836 29.3787C348.836 29.1707 348.696 28.9987 348.416 28.8627C348.136 28.7187 347.696 28.5667 347.096 28.4067C346.816 28.3347 346.544 28.2467 346.28 28.1427C346.016 28.0387 345.784 27.9187 345.584 27.7827C345.384 27.6467 345.224 27.4907 345.104 27.3147C344.984 27.1387 344.924 26.9387 344.924 26.7147C344.924 26.1947 345.148 25.7707 345.596 25.4427C346.044 25.1147 346.688 24.9507 347.528 24.9507C348.008 24.9507 348.46 25.0307 348.884 25.1907C349.308 25.3507 349.672 25.5307 349.976 25.7307L349.34 26.5827C349.076 26.4067 348.792 26.2667 348.488 26.1627C348.192 26.0507 347.876 25.9947 347.54 25.9947C347.084 25.9947 346.764 26.0587 346.58 26.1867C346.396 26.3067 346.304 26.4587 346.304 26.6427C346.304 26.7467 346.344 26.8427 346.424 26.9307C346.512 27.0107 346.628 27.0867 346.772 27.1587C346.924 27.2227 347.1 27.2867 347.3 27.3507C347.5 27.4147 347.72 27.4747 347.96 27.5307C348.304 27.6187 348.612 27.7187 348.884 27.8307C349.164 27.9347 349.4 28.0547 349.592 28.1907C349.792 28.3267 349.944 28.4867 350.048 28.6707C350.16 28.8547 350.216 29.0667 350.216 29.3067C350.216 29.5627 350.156 29.8027 350.036 30.0267C349.916 30.2427 349.74 30.4347 349.508 30.6027C349.276 30.7627 348.988 30.8907 348.644 30.9867C348.3 31.0827 347.904 31.1307 347.456 31.1307C346.904 31.1307 346.376 31.0427 345.872 30.8667C345.368 30.6907 344.932 30.4747 344.564 30.2187L345.212 29.3427ZM352.407 29.3427C352.743 29.5747 353.091 29.7587 353.451 29.8947C353.819 30.0227 354.231 30.0867 354.687 30.0867C355.151 30.0867 355.491 30.0227 355.707 29.8947C355.923 29.7587 356.031 29.5867 356.031 29.3787C356.031 29.1707 355.891 28.9987 355.611 28.8627C355.331 28.7187 354.891 28.5667 354.291 28.4067C354.011 28.3347 353.739 28.2467 353.475 28.1427C353.211 28.0387 352.979 27.9187 352.779 27.7827C352.579 27.6467 352.419 27.4907 352.299 27.3147C352.179 27.1387 352.119 26.9387 352.119 26.7147C352.119 26.1947 352.343 25.7707 352.791 25.4427C353.239 25.1147 353.883 24.9507 354.723 24.9507C355.203 24.9507 355.655 25.0307 356.079 25.1907C356.503 25.3507 356.867 25.5307 357.171 25.7307L356.535 26.5827C356.271 26.4067 355.987 26.2667 355.683 26.1627C355.387 26.0507 355.071 25.9947 354.735 25.9947C354.279 25.9947 353.959 26.0587 353.775 26.1867C353.591 26.3067 353.499 26.4587 353.499 26.6427C353.499 26.7467 353.539 26.8427 353.619 26.9307C353.707 27.0107 353.823 27.0867 353.967 27.1587C354.119 27.2227 354.295 27.2867 354.495 27.3507C354.695 27.4147 354.915 27.4747 355.155 27.5307C355.499 27.6187 355.807 27.7187 356.079 27.8307C356.359 27.9347 356.595 28.0547 356.787 28.1907C356.987 28.3267 357.139 28.4867 357.243 28.6707C357.355 28.8547 357.411 29.0667 357.411 29.3067C357.411 29.5627 357.351 29.8027 357.231 30.0267C357.111 30.2427 356.935 30.4347 356.703 30.6027C356.471 30.7627 356.183 30.8907 355.839 30.9867C355.495 31.0827 355.099 31.1307 354.651 31.1307C354.099 31.1307 353.571 31.0427 353.067 30.8667C352.563 30.6907 352.127 30.4747 351.759 30.2187L352.407 29.3427Z" fill="#0034F8"/>
<path d="M295.313 43.6467H294.389V42.7347H295.421L295.613 41.1867H294.629V40.2747H295.721L295.997 38.1867H296.813L296.561 40.2747H297.977L298.241 38.1867H299.069L298.817 40.2747H299.765V41.1867H298.709L298.517 42.7347H299.525V43.6467H298.409L298.121 45.9867H297.281L297.569 43.6467H296.153L295.877 45.9867H295.037L295.313 43.6467ZM297.677 42.7347L297.869 41.1867H296.453L296.261 42.7347H297.677ZM310.124 41.1867H308.552V40.1547L310.184 40.0947L310.364 38.4867H311.504V40.0947H314.192V41.1867H311.504V43.6107C311.504 44.0987 311.604 44.4587 311.804 44.6907C312.004 44.9147 312.356 45.0267 312.86 45.0267C313.116 45.0267 313.348 45.0067 313.556 44.9667C313.764 44.9187 313.964 44.8587 314.156 44.7867L314.42 45.7947C314.156 45.8827 313.864 45.9587 313.544 46.0227C313.224 46.0947 312.884 46.1307 312.524 46.1307C312.076 46.1307 311.7 46.0707 311.396 45.9507C311.092 45.8307 310.844 45.6627 310.652 45.4467C310.468 45.2227 310.332 44.9547 310.244 44.6427C310.164 44.3307 310.124 43.9867 310.124 43.6107V41.1867ZM316.023 37.5147H317.415V39.6987L317.331 40.9587C317.603 40.6867 317.907 40.4507 318.243 40.2507C318.587 40.0507 318.987 39.9507 319.443 39.9507C320.123 39.9507 320.623 40.1587 320.943 40.5747C321.263 40.9827 321.423 41.5707 321.423 42.3387V45.9867H320.031V42.5187C320.031 42.0387 319.947 41.6907 319.779 41.4747C319.619 41.2507 319.335 41.1387 318.927 41.1387C318.639 41.1387 318.383 41.2067 318.159 41.3427C317.935 41.4787 317.687 41.6867 317.415 41.9667V45.9867H316.023V37.5147ZM322.978 43.0467C322.978 42.5667 323.062 42.1347 323.23 41.7507C323.406 41.3667 323.634 41.0427 323.914 40.7787C324.194 40.5067 324.514 40.3027 324.874 40.1667C325.242 40.0227 325.618 39.9507 326.002 39.9507C326.442 39.9507 326.83 40.0227 327.166 40.1667C327.51 40.3027 327.798 40.4947 328.03 40.7427C328.262 40.9827 328.438 41.2747 328.558 41.6187C328.678 41.9627 328.738 42.3387 328.738 42.7467C328.738 42.8827 328.73 43.0107 328.714 43.1307C328.706 43.2507 328.694 43.3467 328.678 43.4187H324.394C324.442 43.9467 324.65 44.3547 325.018 44.6427C325.386 44.9227 325.838 45.0627 326.374 45.0627C326.678 45.0627 326.962 45.0227 327.226 44.9427C327.49 44.8547 327.758 44.7347 328.03 44.5827L328.498 45.4467C328.178 45.6467 327.822 45.8107 327.43 45.9387C327.038 46.0667 326.626 46.1307 326.194 46.1307C325.746 46.1307 325.326 46.0627 324.934 45.9267C324.542 45.7827 324.202 45.5787 323.914 45.3147C323.626 45.0507 323.398 44.7307 323.23 44.3547C323.062 43.9707 322.978 43.5347 322.978 43.0467ZM327.466 42.4827C327.466 42.0267 327.346 41.6707 327.106 41.4147C326.866 41.1507 326.51 41.0187 326.038 41.0187C325.638 41.0187 325.282 41.1427 324.97 41.3907C324.658 41.6387 324.462 42.0027 324.382 42.4827H327.466ZM337.261 43.0467C337.261 42.5667 337.333 42.1347 337.477 41.7507C337.621 41.3667 337.813 41.0427 338.053 40.7787C338.301 40.5147 338.581 40.3107 338.893 40.1667C339.205 40.0227 339.529 39.9507 339.865 39.9507C340.217 39.9507 340.517 40.0147 340.765 40.1427C341.021 40.2627 341.269 40.4307 341.509 40.6467L341.449 39.6507V37.5147H342.841V45.9867H341.701L341.593 45.3027H341.557C341.325 45.5347 341.053 45.7307 340.741 45.8907C340.437 46.0507 340.117 46.1307 339.781 46.1307C339.405 46.1307 339.061 46.0627 338.749 45.9267C338.437 45.7827 338.169 45.5787 337.945 45.3147C337.729 45.0507 337.561 44.7307 337.441 44.3547C337.321 43.9707 337.261 43.5347 337.261 43.0467ZM338.689 43.0347C338.689 43.6747 338.813 44.1627 339.061 44.4987C339.309 44.8267 339.661 44.9907 340.117 44.9907C340.605 44.9907 341.049 44.7547 341.449 44.2827V41.6307C341.241 41.4307 341.033 41.2907 340.825 41.2107C340.617 41.1307 340.405 41.0907 340.189 41.0907C339.981 41.0907 339.785 41.1347 339.601 41.2227C339.425 41.3107 339.269 41.4387 339.133 41.6067C338.997 41.7667 338.889 41.9667 338.809 42.2067C338.729 42.4467 338.689 42.7227 338.689 43.0347ZM344.564 43.0467C344.564 42.5667 344.648 42.1347 344.816 41.7507C344.992 41.3667 345.22 41.0427 345.5 40.7787C345.78 40.5067 346.1 40.3027 346.46 40.1667C346.828 40.0227 347.204 39.9507 347.588 39.9507C348.028 39.9507 348.416 40.0227 348.752 40.1667C349.096 40.3027 349.384 40.4947 349.616 40.7427C349.848 40.9827 350.024 41.2747 350.144 41.6187C350.264 41.9627 350.324 42.3387 350.324 42.7467C350.324 42.8827 350.316 43.0107 350.3 43.1307C350.292 43.2507 350.28 43.3467 350.264 43.4187H345.98C346.028 43.9467 346.236 44.3547 346.604 44.6427C346.972 44.9227 347.424 45.0627 347.96 45.0627C348.264 45.0627 348.548 45.0227 348.812 44.9427C349.076 44.8547 349.344 44.7347 349.616 44.5827L350.084 45.4467C349.764 45.6467 349.408 45.8107 349.016 45.9387C348.624 46.0667 348.212 46.1307 347.78 46.1307C347.332 46.1307 346.912 46.0627 346.52 45.9267C346.128 45.7827 345.788 45.5787 345.5 45.3147C345.212 45.0507 344.984 44.7307 344.816 44.3547C344.648 43.9707 344.564 43.5347 344.564 43.0467ZM349.052 42.4827C349.052 42.0267 348.932 41.6707 348.692 41.4147C348.452 41.1507 348.096 41.0187 347.624 41.0187C347.224 41.0187 346.868 41.1427 346.556 41.3907C346.244 41.6387 346.048 42.0027 345.968 42.4827H349.052ZM353.295 41.1867H351.723V40.1547L353.355 40.0947L353.535 38.4867H354.675V40.0947H357.363V41.1867H354.675V43.6107C354.675 44.0987 354.775 44.4587 354.975 44.6907C355.175 44.9147 355.527 45.0267 356.031 45.0267C356.287 45.0267 356.519 45.0067 356.727 44.9667C356.935 44.9187 357.135 44.8587 357.327 44.7867L357.591 45.7947C357.327 45.8827 357.035 45.9587 356.715 46.0227C356.395 46.0947 356.055 46.1307 355.695 46.1307C355.247 46.1307 354.871 46.0707 354.567 45.9507C354.263 45.8307 354.015 45.6627 353.823 45.4467C353.639 45.2227 353.503 44.9547 353.415 44.6427C353.335 44.3307 353.295 43.9867 353.295 43.6107V41.1867ZM359.063 44.4027C359.063 44.0747 359.139 43.7867 359.291 43.5387C359.443 43.2827 359.683 43.0667 360.011 42.8907C360.339 42.7147 360.759 42.5707 361.271 42.4587C361.783 42.3467 362.403 42.2667 363.131 42.2187C363.107 41.8827 362.987 41.6067 362.771 41.3907C362.555 41.1747 362.207 41.0667 361.727 41.0667C361.391 41.0667 361.059 41.1307 360.731 41.2587C360.411 41.3787 360.099 41.5227 359.795 41.6907L359.291 40.7667C359.651 40.5587 360.063 40.3707 360.527 40.2027C360.991 40.0347 361.475 39.9507 361.979 39.9507C362.803 39.9507 363.431 40.1707 363.863 40.6107C364.295 41.0427 364.511 41.6707 364.511 42.4947V45.9867H363.383L363.275 45.2547H363.239C362.927 45.4947 362.579 45.7027 362.195 45.8787C361.819 46.0467 361.431 46.1307 361.031 46.1307C360.743 46.1307 360.479 46.0867 360.239 45.9987C359.999 45.9187 359.791 45.8027 359.615 45.6507C359.439 45.4987 359.303 45.3187 359.207 45.1107C359.111 44.8947 359.063 44.6587 359.063 44.4027ZM360.395 44.2947C360.395 44.5587 360.495 44.7507 360.695 44.8707C360.903 44.9907 361.155 45.0507 361.451 45.0507C361.747 45.0507 362.031 44.9867 362.303 44.8587C362.583 44.7227 362.859 44.5467 363.131 44.3307V43.0827C362.603 43.1227 362.163 43.1787 361.811 43.2507C361.459 43.3147 361.179 43.3987 360.971 43.5027C360.763 43.6067 360.615 43.7267 360.527 43.8627C360.439 43.9907 360.395 44.1347 360.395 44.2947ZM366.414 40.0947H370.35V45.9867H368.97V41.1867H366.414V40.0947ZM369.558 39.0627C369.278 39.0627 369.042 38.9787 368.85 38.8107C368.666 38.6427 368.574 38.4187 368.574 38.1387C368.574 37.8587 368.666 37.6347 368.85 37.4667C369.042 37.2907 369.278 37.2027 369.558 37.2027C369.846 37.2027 370.082 37.2907 370.266 37.4667C370.45 37.6347 370.542 37.8587 370.542 38.1387C370.542 38.4187 370.45 38.6427 370.266 38.8107C370.082 38.9787 369.846 39.0627 369.558 39.0627ZM373.453 37.5147H376.693V43.9107C376.693 44.3107 376.793 44.5947 376.993 44.7627C377.193 44.9227 377.445 45.0027 377.749 45.0027C378.037 45.0027 378.373 44.9267 378.757 44.7747L379.081 45.7947C378.801 45.8907 378.537 45.9707 378.289 46.0347C378.049 46.0987 377.757 46.1307 377.413 46.1307C376.717 46.1307 376.193 45.9307 375.841 45.5307C375.489 45.1307 375.313 44.5667 375.313 43.8387V38.6067H373.453V37.5147ZM381.189 44.3427C381.525 44.5747 381.873 44.7587 382.233 44.8947C382.601 45.0227 383.013 45.0867 383.469 45.0867C383.933 45.0867 384.273 45.0227 384.489 44.8947C384.705 44.7587 384.813 44.5867 384.813 44.3787C384.813 44.1707 384.673 43.9987 384.393 43.8627C384.113 43.7187 383.673 43.5667 383.073 43.4067C382.793 43.3347 382.521 43.2467 382.257 43.1427C381.993 43.0387 381.761 42.9187 381.561 42.7827C381.361 42.6467 381.201 42.4907 381.081 42.3147C380.961 42.1387 380.901 41.9387 380.901 41.7147C380.901 41.1947 381.125 40.7707 381.573 40.4427C382.021 40.1147 382.665 39.9507 383.505 39.9507C383.985 39.9507 384.437 40.0307 384.861 40.1907C385.285 40.3507 385.649 40.5307 385.953 40.7307L385.317 41.5827C385.053 41.4067 384.769 41.2667 384.465 41.1627C384.169 41.0507 383.853 40.9947 383.517 40.9947C383.061 40.9947 382.741 41.0587 382.557 41.1867C382.373 41.3067 382.281 41.4587 382.281 41.6427C382.281 41.7467 382.321 41.8427 382.401 41.9307C382.489 42.0107 382.605 42.0867 382.749 42.1587C382.901 42.2227 383.077 42.2867 383.277 42.3507C383.477 42.4147 383.697 42.4747 383.937 42.5307C384.281 42.6187 384.589 42.7187 384.861 42.8307C385.141 42.9347 385.377 43.0547 385.569 43.1907C385.769 43.3267 385.921 43.4867 386.025 43.6707C386.137 43.8547 386.193 44.0667 386.193 44.3067C386.193 44.5627 386.133 44.8027 386.013 45.0267C385.893 45.2427 385.717 45.4347 385.485 45.6027C385.253 45.7627 384.965 45.8907 384.621 45.9867C384.277 46.0827 383.881 46.1307 383.433 46.1307C382.881 46.1307 382.353 46.0427 381.849 45.8667C381.345 45.6907 380.909 45.4747 380.541 45.2187L381.189 44.3427ZM394.823 43.0467C394.823 42.5587 394.903 42.1227 395.063 41.7387C395.231 41.3547 395.451 41.0307 395.723 40.7667C395.995 40.5027 396.311 40.3027 396.671 40.1667C397.031 40.0227 397.403 39.9507 397.787 39.9507C398.171 39.9507 398.543 40.0227 398.903 40.1667C399.263 40.3027 399.579 40.5027 399.851 40.7667C400.123 41.0307 400.339 41.3547 400.499 41.7387C400.667 42.1227 400.751 42.5587 400.751 43.0467C400.751 43.5347 400.667 43.9707 400.499 44.3547C400.339 44.7387 400.123 45.0627 399.851 45.3267C399.579 45.5907 399.263 45.7907 398.903 45.9267C398.543 46.0627 398.171 46.1307 397.787 46.1307C397.403 46.1307 397.031 46.0627 396.671 45.9267C396.311 45.7907 395.995 45.5907 395.723 45.3267C395.451 45.0627 395.231 44.7387 395.063 44.3547C394.903 43.9707 394.823 43.5347 394.823 43.0467ZM396.251 43.0467C396.251 43.6387 396.387 44.1147 396.659 44.4747C396.931 44.8267 397.307 45.0027 397.787 45.0027C398.267 45.0027 398.643 44.8267 398.915 44.4747C399.187 44.1147 399.323 43.6387 399.323 43.0467C399.323 42.4467 399.187 41.9707 398.915 41.6187C398.643 41.2587 398.267 41.0787 397.787 41.0787C397.307 41.0787 396.931 41.2587 396.659 41.6187C396.387 41.9707 396.251 42.4467 396.251 43.0467ZM408.079 38.7147C407.863 38.6267 407.651 38.5627 407.443 38.5227C407.243 38.4827 407.023 38.4627 406.783 38.4627C406.327 38.4627 405.995 38.5747 405.787 38.7987C405.587 39.0147 405.487 39.3307 405.487 39.7467V40.0947H407.731V41.1867H405.487V45.9867H404.119V41.1867H402.487V40.1547L404.119 40.0947V39.7707C404.119 39.4267 404.167 39.1067 404.263 38.8107C404.359 38.5147 404.507 38.2627 404.707 38.0547C404.915 37.8387 405.175 37.6707 405.487 37.5507C405.807 37.4307 406.183 37.3707 406.615 37.3707C406.935 37.3707 407.239 37.3987 407.527 37.4547C407.823 37.5107 408.103 37.5907 408.367 37.6947L408.079 38.7147ZM418.053 41.1867H416.481V40.1547L418.113 40.0947L418.293 38.4867H419.433V40.0947H422.121V41.1867H419.433V43.6107C419.433 44.0987 419.533 44.4587 419.733 44.6907C419.933 44.9147 420.285 45.0267 420.789 45.0267C421.045 45.0267 421.277 45.0067 421.485 44.9667C421.693 44.9187 421.893 44.8587 422.085 44.7867L422.349 45.7947C422.085 45.8827 421.793 45.9587 421.473 46.0227C421.153 46.0947 420.813 46.1307 420.453 46.1307C420.005 46.1307 419.629 46.0707 419.325 45.9507C419.021 45.8307 418.773 45.6627 418.581 45.4467C418.397 45.2227 418.261 44.9547 418.173 44.6427C418.093 44.3307 418.053 43.9867 418.053 43.6107V41.1867ZM423.953 37.5147H425.345V39.6987L425.261 40.9587C425.533 40.6867 425.837 40.4507 426.173 40.2507C426.517 40.0507 426.917 39.9507 427.373 39.9507C428.053 39.9507 428.553 40.1587 428.873 40.5747C429.193 40.9827 429.353 41.5707 429.353 42.3387V45.9867H427.961V42.5187C427.961 42.0387 427.877 41.6907 427.709 41.4747C427.549 41.2507 427.265 41.1387 426.857 41.1387C426.569 41.1387 426.313 41.2067 426.089 41.3427C425.865 41.4787 425.617 41.6867 425.345 41.9667V45.9867H423.953V37.5147ZM430.908 43.0467C430.908 42.5667 430.992 42.1347 431.16 41.7507C431.336 41.3667 431.564 41.0427 431.844 40.7787C432.124 40.5067 432.444 40.3027 432.804 40.1667C433.172 40.0227 433.548 39.9507 433.932 39.9507C434.372 39.9507 434.76 40.0227 435.096 40.1667C435.44 40.3027 435.728 40.4947 435.96 40.7427C436.192 40.9827 436.368 41.2747 436.488 41.6187C436.608 41.9627 436.668 42.3387 436.668 42.7467C436.668 42.8827 436.66 43.0107 436.644 43.1307C436.636 43.2507 436.624 43.3467 436.608 43.4187H432.324C432.372 43.9467 432.58 44.3547 432.948 44.6427C433.316 44.9227 433.768 45.0627 434.304 45.0627C434.608 45.0627 434.892 45.0227 435.156 44.9427C435.42 44.8547 435.688 44.7347 435.96 44.5827L436.428 45.4467C436.108 45.6467 435.752 45.8107 435.36 45.9387C434.968 46.0667 434.556 46.1307 434.124 46.1307C433.676 46.1307 433.256 46.0627 432.864 45.9267C432.472 45.7827 432.132 45.5787 431.844 45.3147C431.556 45.0507 431.328 44.7307 431.16 44.3547C430.992 43.9707 430.908 43.5347 430.908 43.0467ZM435.396 42.4827C435.396 42.0267 435.276 41.6707 435.036 41.4147C434.796 41.1507 434.44 41.0187 433.968 41.0187C433.568 41.0187 433.212 41.1427 432.9 41.3907C432.588 41.6387 432.392 42.0027 432.312 42.4827H435.396ZM295.313 58.6467H294.389V57.7347H295.421L295.613 56.1867H294.629V55.2747H295.721L295.997 53.1867H296.813L296.561 55.2747H297.977L298.241 53.1867H299.069L298.817 55.2747H299.765V56.1867H298.709L298.517 57.7347H299.525V58.6467H298.409L298.121 60.9867H297.281L297.569 58.6467H296.153L295.877 60.9867H295.037L295.313 58.6467ZM297.677 57.7347L297.869 56.1867H296.453L296.261 57.7347H297.677ZM308.72 58.0467C308.72 57.5587 308.808 57.1227 308.984 56.7387C309.168 56.3547 309.412 56.0307 309.716 55.7667C310.02 55.5027 310.376 55.3027 310.784 55.1667C311.192 55.0227 311.62 54.9507 312.068 54.9507C312.548 54.9507 312.968 55.0307 313.328 55.1907C313.696 55.3507 314.004 55.5467 314.252 55.7787L313.592 56.6427C313.36 56.4587 313.124 56.3187 312.884 56.2227C312.652 56.1267 312.404 56.0787 312.14 56.0787C311.548 56.0787 311.068 56.2587 310.7 56.6187C310.332 56.9707 310.148 57.4467 310.148 58.0467C310.148 58.3427 310.196 58.6107 310.292 58.8507C310.388 59.0907 310.52 59.2987 310.688 59.4747C310.864 59.6427 311.072 59.7747 311.312 59.8707C311.552 59.9587 311.816 60.0027 312.104 60.0027C312.44 60.0027 312.744 59.9387 313.016 59.8107C313.296 59.6827 313.552 59.5307 313.784 59.3547L314.36 60.2427C314.024 60.5387 313.648 60.7627 313.232 60.9147C312.816 61.0587 312.396 61.1307 311.972 61.1307C311.508 61.1307 311.076 61.0627 310.676 60.9267C310.284 60.7907 309.94 60.5907 309.644 60.3267C309.356 60.0627 309.128 59.7387 308.96 59.3547C308.8 58.9707 308.72 58.5347 308.72 58.0467ZM315.891 52.5147H319.131V58.9107C319.131 59.3107 319.231 59.5947 319.431 59.7627C319.631 59.9227 319.883 60.0027 320.187 60.0027C320.475 60.0027 320.811 59.9267 321.195 59.7747L321.519 60.7947C321.239 60.8907 320.975 60.9707 320.727 61.0347C320.487 61.0987 320.195 61.1307 319.851 61.1307C319.155 61.1307 318.631 60.9307 318.279 60.5307C317.927 60.1307 317.751 59.5667 317.751 58.8387V53.6067H315.891V52.5147ZM323.086 59.4027C323.086 59.0747 323.162 58.7867 323.314 58.5387C323.466 58.2827 323.706 58.0667 324.034 57.8907C324.362 57.7147 324.782 57.5707 325.294 57.4587C325.806 57.3467 326.426 57.2667 327.154 57.2187C327.13 56.8827 327.01 56.6067 326.794 56.3907C326.578 56.1747 326.23 56.0667 325.75 56.0667C325.414 56.0667 325.082 56.1307 324.754 56.2587C324.434 56.3787 324.122 56.5227 323.818 56.6907L323.314 55.7667C323.674 55.5587 324.086 55.3707 324.55 55.2027C325.014 55.0347 325.498 54.9507 326.002 54.9507C326.826 54.9507 327.454 55.1707 327.886 55.6107C328.318 56.0427 328.534 56.6707 328.534 57.4947V60.9867H327.406L327.298 60.2547H327.262C326.95 60.4947 326.602 60.7027 326.218 60.8787C325.842 61.0467 325.454 61.1307 325.054 61.1307C324.766 61.1307 324.502 61.0867 324.262 60.9987C324.022 60.9187 323.814 60.8027 323.638 60.6507C323.462 60.4987 323.326 60.3187 323.23 60.1107C323.134 59.8947 323.086 59.6587 323.086 59.4027ZM324.418 59.2947C324.418 59.5587 324.518 59.7507 324.718 59.8707C324.926 59.9907 325.178 60.0507 325.474 60.0507C325.77 60.0507 326.054 59.9867 326.326 59.8587C326.606 59.7227 326.882 59.5467 327.154 59.3307V58.0827C326.626 58.1227 326.186 58.1787 325.834 58.2507C325.482 58.3147 325.202 58.3987 324.994 58.5027C324.786 58.6067 324.638 58.7267 324.55 58.8627C324.462 58.9907 324.418 59.1347 324.418 59.2947ZM330.821 59.3427C331.157 59.5747 331.505 59.7587 331.865 59.8947C332.233 60.0227 332.645 60.0867 333.101 60.0867C333.565 60.0867 333.905 60.0227 334.121 59.8947C334.337 59.7587 334.445 59.5867 334.445 59.3787C334.445 59.1707 334.305 58.9987 334.025 58.8627C333.745 58.7187 333.305 58.5667 332.705 58.4067C332.425 58.3347 332.153 58.2467 331.889 58.1427C331.625 58.0387 331.393 57.9187 331.193 57.7827C330.993 57.6467 330.833 57.4907 330.713 57.3147C330.593 57.1387 330.533 56.9387 330.533 56.7147C330.533 56.1947 330.757 55.7707 331.205 55.4427C331.653 55.1147 332.297 54.9507 333.137 54.9507C333.617 54.9507 334.069 55.0307 334.493 55.1907C334.917 55.3507 335.281 55.5307 335.585 55.7307L334.949 56.5827C334.685 56.4067 334.401 56.2667 334.097 56.1627C333.801 56.0507 333.485 55.9947 333.149 55.9947C332.693 55.9947 332.373 56.0587 332.189 56.1867C332.005 56.3067 331.913 56.4587 331.913 56.6427C331.913 56.7467 331.953 56.8427 332.033 56.9307C332.121 57.0107 332.237 57.0867 332.381 57.1587C332.533 57.2227 332.709 57.2867 332.909 57.3507C333.109 57.4147 333.329 57.4747 333.569 57.5307C333.913 57.6187 334.221 57.7187 334.493 57.8307C334.773 57.9347 335.009 58.0547 335.201 58.1907C335.401 58.3267 335.553 58.4867 335.657 58.6707C335.769 58.8547 335.825 59.0667 335.825 59.3067C335.825 59.5627 335.765 59.8027 335.645 60.0267C335.525 60.2427 335.349 60.4347 335.117 60.6027C334.885 60.7627 334.597 60.8907 334.253 60.9867C333.909 61.0827 333.513 61.1307 333.065 61.1307C332.513 61.1307 331.985 61.0427 331.481 60.8667C330.977 60.6907 330.541 60.4747 330.173 60.2187L330.821 59.3427ZM338.017 59.3427C338.353 59.5747 338.701 59.7587 339.061 59.8947C339.429 60.0227 339.841 60.0867 340.297 60.0867C340.761 60.0867 341.101 60.0227 341.317 59.8947C341.533 59.7587 341.641 59.5867 341.641 59.3787C341.641 59.1707 341.501 58.9987 341.221 58.8627C340.941 58.7187 340.501 58.5667 339.901 58.4067C339.621 58.3347 339.349 58.2467 339.085 58.1427C338.821 58.0387 338.589 57.9187 338.389 57.7827C338.189 57.6467 338.029 57.4907 337.909 57.3147C337.789 57.1387 337.729 56.9387 337.729 56.7147C337.729 56.1947 337.953 55.7707 338.401 55.4427C338.849 55.1147 339.493 54.9507 340.333 54.9507C340.813 54.9507 341.265 55.0307 341.689 55.1907C342.113 55.3507 342.477 55.5307 342.781 55.7307L342.145 56.5827C341.881 56.4067 341.597 56.2667 341.293 56.1627C340.997 56.0507 340.681 55.9947 340.345 55.9947C339.889 55.9947 339.569 56.0587 339.385 56.1867C339.201 56.3067 339.109 56.4587 339.109 56.6427C339.109 56.7467 339.149 56.8427 339.229 56.9307C339.317 57.0107 339.433 57.0867 339.577 57.1587C339.729 57.2227 339.905 57.2867 340.105 57.3507C340.305 57.4147 340.525 57.4747 340.765 57.5307C341.109 57.6187 341.417 57.7187 341.689 57.8307C341.969 57.9347 342.205 58.0547 342.397 58.1907C342.597 58.3267 342.749 58.4867 342.853 58.6707C342.965 58.8547 343.021 59.0667 343.021 59.3067C343.021 59.5627 342.961 59.8027 342.841 60.0267C342.721 60.2427 342.545 60.4347 342.313 60.6027C342.081 60.7627 341.793 60.8907 341.449 60.9867C341.105 61.0827 340.709 61.1307 340.261 61.1307C339.709 61.1307 339.181 61.0427 338.677 60.8667C338.173 60.6907 337.737 60.4747 337.369 60.2187L338.017 59.3427ZM352.911 61.8387C352.911 62.1027 353.055 62.3107 353.343 62.4627C353.639 62.6147 354.063 62.6907 354.615 62.6907C354.903 62.6907 355.163 62.6627 355.395 62.6067C355.627 62.5587 355.827 62.4907 355.995 62.4027C356.163 62.3147 356.291 62.2107 356.379 62.0907C356.467 61.9787 356.511 61.8587 356.511 61.7307C356.511 61.4987 356.411 61.3427 356.211 61.2627C356.011 61.1907 355.715 61.1547 355.323 61.1547H354.387C354.195 61.1547 354.023 61.1467 353.871 61.1307C353.727 61.1227 353.599 61.0987 353.487 61.0587C353.279 61.1867 353.131 61.3147 353.043 61.4427C352.955 61.5707 352.911 61.7027 352.911 61.8387ZM351.759 62.0187C351.759 61.7867 351.839 61.5627 351.999 61.3467C352.159 61.1307 352.391 60.9427 352.695 60.7827V60.7347C352.535 60.6467 352.395 60.5227 352.275 60.3627C352.155 60.2027 352.095 59.9987 352.095 59.7507C352.095 59.5507 352.159 59.3547 352.287 59.1627C352.415 58.9627 352.587 58.7867 352.803 58.6347V58.5867C352.595 58.4427 352.415 58.2427 352.263 57.9867C352.119 57.7307 352.047 57.4267 352.047 57.0747C352.047 56.7387 352.111 56.4387 352.239 56.1747C352.375 55.9107 352.551 55.6907 352.767 55.5147C352.991 55.3307 353.247 55.1907 353.535 55.0947C353.831 54.9987 354.143 54.9507 354.471 54.9507C354.823 54.9507 355.131 54.9987 355.395 55.0947H357.807V56.1147H356.427C356.531 56.2347 356.623 56.3827 356.703 56.5587C356.783 56.7267 356.823 56.9147 356.823 57.1227C356.823 57.4507 356.763 57.7387 356.643 57.9867C356.523 58.2347 356.355 58.4427 356.139 58.6107C355.931 58.7787 355.683 58.9067 355.395 58.9947C355.107 59.0747 354.799 59.1147 354.471 59.1147C354.175 59.1147 353.875 59.0627 353.571 58.9587C353.331 59.1107 353.211 59.2907 353.211 59.4987C353.211 59.8747 353.583 60.0627 354.327 60.0627H355.527C356.295 60.0627 356.871 60.1747 357.255 60.3987C357.647 60.6227 357.843 60.9907 357.843 61.5027C357.843 61.7907 357.763 62.0627 357.603 62.3187C357.443 62.5747 357.215 62.7947 356.919 62.9787C356.631 63.1707 356.275 63.3187 355.851 63.4227C355.435 63.5347 354.967 63.5907 354.447 63.5907C354.039 63.5907 353.671 63.5587 353.343 63.4947C353.015 63.4307 352.731 63.3307 352.491 63.1947C352.259 63.0667 352.079 62.9027 351.951 62.7027C351.823 62.5107 351.759 62.2827 351.759 62.0187ZM354.471 58.2507C354.775 58.2507 355.039 58.1507 355.263 57.9507C355.487 57.7427 355.599 57.4507 355.599 57.0747C355.599 56.7147 355.487 56.4307 355.263 56.2227C355.039 56.0067 354.775 55.8987 354.471 55.8987C354.167 55.8987 353.903 56.0067 353.679 56.2227C353.463 56.4307 353.355 56.7147 353.355 57.0747C353.355 57.4507 353.463 57.7427 353.679 57.9507C353.903 58.1507 354.167 58.2507 354.471 58.2507ZM358.847 58.0467C358.847 57.5587 358.927 57.1227 359.087 56.7387C359.255 56.3547 359.475 56.0307 359.747 55.7667C360.019 55.5027 360.335 55.3027 360.695 55.1667C361.055 55.0227 361.427 54.9507 361.811 54.9507C362.195 54.9507 362.567 55.0227 362.927 55.1667C363.287 55.3027 363.603 55.5027 363.875 55.7667C364.147 56.0307 364.363 56.3547 364.523 56.7387C364.691 57.1227 364.775 57.5587 364.775 58.0467C364.775 58.5347 364.691 58.9707 364.523 59.3547C364.363 59.7387 364.147 60.0627 363.875 60.3267C363.603 60.5907 363.287 60.7907 362.927 60.9267C362.567 61.0627 362.195 61.1307 361.811 61.1307C361.427 61.1307 361.055 61.0627 360.695 60.9267C360.335 60.7907 360.019 60.5907 359.747 60.3267C359.475 60.0627 359.255 59.7387 359.087 59.3547C358.927 58.9707 358.847 58.5347 358.847 58.0467ZM360.275 58.0467C360.275 58.6387 360.411 59.1147 360.683 59.4747C360.955 59.8267 361.331 60.0027 361.811 60.0027C362.291 60.0027 362.667 59.8267 362.939 59.4747C363.211 59.1147 363.347 58.6387 363.347 58.0467C363.347 57.4467 363.211 56.9707 362.939 56.6187C362.667 56.2587 362.291 56.0787 361.811 56.0787C361.331 56.0787 360.955 56.2587 360.683 56.6187C360.411 56.9707 360.275 57.4467 360.275 58.0467ZM373.585 52.5147H374.977V54.6987L374.893 55.9587C375.165 55.6867 375.469 55.4507 375.805 55.2507C376.149 55.0507 376.549 54.9507 377.005 54.9507C377.685 54.9507 378.185 55.1587 378.505 55.5747C378.825 55.9827 378.985 56.5707 378.985 57.3387V60.9867H377.593V57.5187C377.593 57.0387 377.509 56.6907 377.341 56.4747C377.181 56.2507 376.897 56.1387 376.489 56.1387C376.201 56.1387 375.945 56.2067 375.721 56.3427C375.497 56.4787 375.249 56.6867 374.977 56.9667V60.9867H373.585V52.5147ZM380.541 58.0467C380.541 57.5667 380.625 57.1347 380.793 56.7507C380.969 56.3667 381.197 56.0427 381.477 55.7787C381.757 55.5067 382.077 55.3027 382.437 55.1667C382.805 55.0227 383.181 54.9507 383.565 54.9507C384.005 54.9507 384.393 55.0227 384.729 55.1667C385.073 55.3027 385.361 55.4947 385.593 55.7427C385.825 55.9827 386.001 56.2747 386.121 56.6187C386.241 56.9627 386.301 57.3387 386.301 57.7467C386.301 57.8827 386.293 58.0107 386.277 58.1307C386.269 58.2507 386.257 58.3467 386.241 58.4187H381.957C382.005 58.9467 382.213 59.3547 382.581 59.6427C382.949 59.9227 383.401 60.0627 383.937 60.0627C384.241 60.0627 384.525 60.0227 384.789 59.9427C385.053 59.8547 385.321 59.7347 385.593 59.5827L386.061 60.4467C385.741 60.6467 385.385 60.8107 384.993 60.9387C384.601 61.0667 384.189 61.1307 383.757 61.1307C383.309 61.1307 382.889 61.0627 382.497 60.9267C382.105 60.7827 381.765 60.5787 381.477 60.3147C381.189 60.0507 380.961 59.7307 380.793 59.3547C380.625 58.9707 380.541 58.5347 380.541 58.0467ZM385.029 57.4827C385.029 57.0267 384.909 56.6707 384.669 56.4147C384.429 56.1507 384.073 56.0187 383.601 56.0187C383.201 56.0187 382.845 56.1427 382.533 56.3907C382.221 56.6387 382.025 57.0027 381.945 57.4827H385.029ZM388.552 55.0947H389.692L389.812 56.4267H389.848C390.152 55.9467 390.516 55.5827 390.94 55.3347C391.372 55.0787 391.844 54.9507 392.356 54.9507C392.596 54.9507 392.8 54.9707 392.968 55.0107C393.144 55.0427 393.32 55.1027 393.496 55.1907L393.208 56.3547C393.016 56.2907 392.844 56.2467 392.692 56.2227C392.548 56.1907 392.364 56.1747 392.14 56.1747C391.732 56.1747 391.34 56.2907 390.964 56.5227C390.588 56.7547 390.248 57.1587 389.944 57.7347V60.9867H388.552V55.0947ZM394.931 58.0467C394.931 57.5667 395.015 57.1347 395.183 56.7507C395.359 56.3667 395.587 56.0427 395.867 55.7787C396.147 55.5067 396.467 55.3027 396.827 55.1667C397.195 55.0227 397.571 54.9507 397.955 54.9507C398.395 54.9507 398.783 55.0227 399.119 55.1667C399.463 55.3027 399.751 55.4947 399.983 55.7427C400.215 55.9827 400.391 56.2747 400.511 56.6187C400.631 56.9627 400.691 57.3387 400.691 57.7467C400.691 57.8827 400.683 58.0107 400.667 58.1307C400.659 58.2507 400.647 58.3467 400.631 58.4187H396.347C396.395 58.9467 396.603 59.3547 396.971 59.6427C397.339 59.9227 397.791 60.0627 398.327 60.0627C398.631 60.0627 398.915 60.0227 399.179 59.9427C399.443 59.8547 399.711 59.7347 399.983 59.5827L400.451 60.4467C400.131 60.6467 399.775 60.8107 399.383 60.9387C398.991 61.0667 398.579 61.1307 398.147 61.1307C397.699 61.1307 397.279 61.0627 396.887 60.9267C396.495 60.7827 396.155 60.5787 395.867 60.3147C395.579 60.0507 395.351 59.7307 395.183 59.3547C395.015 58.9707 394.931 58.5347 394.931 58.0467ZM399.419 57.4827C399.419 57.0267 399.299 56.6707 399.059 56.4147C398.819 56.1507 398.463 56.0187 397.991 56.0187C397.591 56.0187 397.235 56.1427 396.923 56.3907C396.611 56.6387 396.415 57.0027 396.335 57.4827H399.419Z" fill="#468281"/>
<path d="M361.6 27.064C361.256 27.064 360.972 26.952 360.748 26.728C360.524 26.496 360.412 26.204 360.412 25.852C360.412 25.5 360.524 25.212 360.748 24.988C360.972 24.756 361.256 24.64 361.6 24.64C361.944 24.64 362.228 24.756 362.452 24.988C362.676 25.212 362.788 25.5 362.788 25.852C362.788 26.204 362.676 26.496 362.452 26.728C362.228 26.952 361.944 27.064 361.6 27.064ZM361.6 31.144C361.256 31.144 360.972 31.032 360.748 30.808C360.524 30.576 360.412 30.284 360.412 29.932C360.412 29.58 360.524 29.292 360.748 29.068C360.972 28.836 361.256 28.72 361.6 28.72C361.944 28.72 362.228 28.836 362.452 29.068C362.676 29.292 362.788 29.58 362.788 29.932C362.788 30.284 362.676 30.576 362.452 30.808C362.228 31.032 361.944 31.144 361.6 31.144Z" fill="black"/>
</svg>
