<svg width="394" height="201" viewBox="0 0 394 201" fill="none" xmlns="http://www.w3.org/2000/svg">
<rect width="394" height="201" fill="white"/>
<path d="M55 18H350V59H55V18Z" fill="#F1F4F8"/>
<path d="M60.576 34.108H61.62L61.728 34.864H61.764C61.9 34.608 62.064 34.396 62.256 34.228C62.456 34.052 62.724 33.964 63.06 33.964C63.636 33.964 63.996 34.292 64.14 34.948C64.276 34.668 64.448 34.436 64.656 34.252C64.872 34.06 65.144 33.964 65.472 33.964C65.888 33.964 66.208 34.128 66.432 34.456C66.664 34.776 66.78 35.232 66.78 35.824V40H65.472V35.932C65.472 35.412 65.308 35.152 64.98 35.152C64.82 35.152 64.68 35.212 64.56 35.332C64.44 35.452 64.324 35.636 64.212 35.884V40H63.132V35.932C63.132 35.412 62.964 35.152 62.628 35.152C62.468 35.152 62.332 35.212 62.22 35.332C62.108 35.452 61.996 35.636 61.884 35.884V40H60.576V34.108ZM68.2633 41.224C68.3433 41.248 68.4233 41.268 68.5033 41.284C68.5833 41.3 68.6673 41.308 68.7553 41.308C69.1313 41.308 69.4313 41.212 69.6553 41.02C69.8793 40.836 70.0513 40.596 70.1713 40.3L70.3153 39.928L67.6753 34.108H69.0553L70.2673 37C70.3793 37.264 70.4873 37.544 70.5913 37.84C70.6953 38.136 70.8033 38.432 70.9153 38.728H70.9633C71.0513 38.448 71.1473 38.16 71.2513 37.864C71.3553 37.568 71.4553 37.28 71.5513 37L72.6193 34.108H73.9273L71.4673 40.264C71.3393 40.6 71.1953 40.9 71.0353 41.164C70.8833 41.428 70.7033 41.652 70.4953 41.836C70.2873 42.028 70.0473 42.172 69.7753 42.268C69.5033 42.372 69.1913 42.424 68.8393 42.424C68.6793 42.424 68.5273 42.412 68.3833 42.388C68.2393 42.372 68.1113 42.344 67.9993 42.304L68.2633 41.224ZM80.8706 40.744V41.824H75.1106V40.744H80.8706ZM82.5939 34.108H86.5299V40H85.1499V35.2H82.5939V34.108ZM85.7379 33.076C85.4579 33.076 85.2219 32.992 85.0299 32.824C84.8459 32.656 84.7539 32.432 84.7539 32.152C84.7539 31.872 84.8459 31.648 85.0299 31.48C85.2219 31.304 85.4579 31.216 85.7379 31.216C86.0259 31.216 86.2619 31.304 86.4459 31.48C86.6299 31.648 86.7219 31.872 86.7219 32.152C86.7219 32.432 86.6299 32.656 86.4459 32.824C86.2619 32.992 86.0259 33.076 85.7379 33.076ZM89.7653 34.108H90.9053L91.0133 34.996H91.0613C91.3413 34.716 91.6493 34.476 91.9853 34.276C92.3293 34.068 92.7293 33.964 93.1853 33.964C93.8653 33.964 94.3653 34.172 94.6853 34.588C95.0053 34.996 95.1653 35.584 95.1653 36.352V40H93.7733V36.532C93.7733 36.052 93.6893 35.704 93.5213 35.488C93.3613 35.264 93.0773 35.152 92.6693 35.152C92.3813 35.152 92.1253 35.22 91.9013 35.356C91.6773 35.492 91.4293 35.7 91.1573 35.98V40H89.7653V34.108ZM98.2566 35.2H96.6846V34.168L98.3166 34.108L98.4966 32.5H99.6366V34.108H102.325V35.2H99.6366V37.624C99.6366 38.112 99.7366 38.472 99.9366 38.704C100.137 38.928 100.489 39.04 100.993 39.04C101.249 39.04 101.481 39.02 101.689 38.98C101.897 38.932 102.097 38.872 102.289 38.8L102.553 39.808C102.289 39.896 101.997 39.972 101.677 40.036C101.357 40.108 101.017 40.144 100.657 40.144C100.209 40.144 99.8326 40.084 99.5286 39.964C99.2246 39.844 98.9766 39.676 98.7846 39.46C98.6006 39.236 98.4646 38.968 98.3766 38.656C98.2966 38.344 98.2566 38 98.2566 37.624V35.2ZM111.303 34.192H116.631V35.2H111.303V34.192ZM111.303 36.868H116.631V37.876H111.303V36.868ZM125.766 34.108H129.702V40H128.322V35.2H125.766V34.108ZM128.91 33.076C128.63 33.076 128.394 32.992 128.202 32.824C128.018 32.656 127.926 32.432 127.926 32.152C127.926 31.872 128.018 31.648 128.202 31.48C128.394 31.304 128.63 31.216 128.91 31.216C129.198 31.216 129.434 31.304 129.618 31.48C129.802 31.648 129.894 31.872 129.894 32.152C129.894 32.432 129.802 32.656 129.618 32.824C129.434 32.992 129.198 33.076 128.91 33.076ZM132.937 34.108H134.077L134.185 34.996H134.233C134.513 34.716 134.821 34.476 135.157 34.276C135.501 34.068 135.901 33.964 136.357 33.964C137.037 33.964 137.537 34.172 137.857 34.588C138.177 34.996 138.337 35.584 138.337 36.352V40H136.945V36.532C136.945 36.052 136.861 35.704 136.693 35.488C136.533 35.264 136.249 35.152 135.841 35.152C135.553 35.152 135.297 35.22 135.073 35.356C134.849 35.492 134.601 35.7 134.329 35.98V40H132.937V34.108ZM141.428 35.2H139.856V34.168L141.488 34.108L141.668 32.5H142.808V34.108H145.496V35.2H142.808V37.624C142.808 38.112 142.908 38.472 143.108 38.704C143.308 38.928 143.66 39.04 144.164 39.04C144.42 39.04 144.652 39.02 144.86 38.98C145.068 38.932 145.268 38.872 145.46 38.8L145.724 39.808C145.46 39.896 145.168 39.972 144.848 40.036C144.528 40.108 144.188 40.144 143.828 40.144C143.38 40.144 143.004 40.084 142.7 39.964C142.396 39.844 142.148 39.676 141.956 39.46C141.772 39.236 141.636 38.968 141.548 38.656C141.468 38.344 141.428 38 141.428 37.624V35.2ZM151.288 42.124C150.48 41.452 149.84 40.66 149.368 39.748C148.904 38.836 148.672 37.808 148.672 36.664C148.672 35.52 148.904 34.492 149.368 33.58C149.84 32.668 150.48 31.876 151.288 31.204L152.056 31.84C151.296 32.528 150.74 33.26 150.388 34.036C150.036 34.812 149.86 35.688 149.86 36.664C149.86 37.64 150.036 38.516 150.388 39.292C150.74 40.068 151.296 40.8 152.056 41.488L151.288 42.124ZM176.613 41.488C177.373 40.8 177.929 40.068 178.281 39.292C178.633 38.516 178.809 37.64 178.809 36.664C178.809 35.688 178.633 34.812 178.281 34.036C177.929 33.26 177.373 32.528 176.613 31.84L177.381 31.204C178.189 31.876 178.825 32.668 179.289 33.58C179.761 34.492 179.997 35.52 179.997 36.664C179.997 37.808 179.761 38.836 179.289 39.748C178.825 40.66 178.189 41.452 177.381 42.124L176.613 41.488Z" fill="#2E383C"/>
<path d="M154.859 33.304L154.823 31.768H156.503L156.467 33.304L156.107 36.076H155.219L154.859 33.304ZM157.823 33.304L157.787 31.768H159.467L159.431 33.304L159.071 36.076H158.183L157.823 33.304ZM161.982 38.176C162.238 38.408 162.534 38.608 162.87 38.776C163.214 38.936 163.594 39.016 164.01 39.016C164.482 39.016 164.87 38.916 165.174 38.716C165.486 38.508 165.642 38.224 165.642 37.864C165.642 37.664 165.598 37.484 165.51 37.324C165.422 37.164 165.278 37.028 165.078 36.916C164.886 36.804 164.626 36.72 164.298 36.664C163.978 36.6 163.582 36.568 163.11 36.568V35.56C163.518 35.56 163.866 35.532 164.154 35.476C164.442 35.412 164.674 35.328 164.85 35.224C165.034 35.112 165.166 34.98 165.246 34.828C165.334 34.676 165.378 34.512 165.378 34.336C165.378 34.016 165.254 33.768 165.006 33.592C164.766 33.408 164.442 33.316 164.034 33.316C163.698 33.316 163.386 33.384 163.098 33.52C162.818 33.648 162.55 33.82 162.294 34.036L161.574 33.184C161.926 32.896 162.31 32.664 162.726 32.488C163.142 32.312 163.598 32.224 164.094 32.224C164.486 32.224 164.846 32.268 165.174 32.356C165.502 32.444 165.782 32.576 166.014 32.752C166.254 32.92 166.438 33.132 166.566 33.388C166.702 33.636 166.77 33.92 166.77 34.24C166.77 34.672 166.63 35.032 166.35 35.32C166.07 35.608 165.694 35.832 165.222 35.992V36.04C165.47 36.104 165.702 36.192 165.918 36.304C166.142 36.408 166.334 36.54 166.494 36.7C166.662 36.86 166.794 37.044 166.89 37.252C166.986 37.46 167.034 37.688 167.034 37.936C167.034 38.288 166.954 38.6 166.794 38.872C166.642 39.144 166.434 39.376 166.17 39.568C165.906 39.752 165.598 39.896 165.246 40C164.894 40.096 164.522 40.144 164.13 40.144C163.474 40.144 162.914 40.04 162.45 39.832C161.986 39.624 161.614 39.368 161.334 39.064L161.982 38.176ZM169.25 33.304L169.214 31.768H170.894L170.858 33.304L170.498 36.076H169.61L169.25 33.304ZM172.214 33.304L172.178 31.768H173.858L173.822 33.304L173.462 36.076H172.574L172.214 33.304Z" fill="#B82629"/>
<line x1="126" y1="50" x2="175" y2="50" stroke="#D55E00" stroke-width="2"/>
<line y1="-1" x2="60.0083" y2="-1" transform="matrix(-0.0166644 -0.999861 1 0 151.5 111)" stroke="#D55E00" stroke-width="2"/>
<line x1="60" y1="50" x2="115" y2="50" stroke="#009E73" stroke-width="2"/>
<line y1="-1" x2="60.0083" y2="-1" transform="matrix(-0.0166644 -0.999861 1 0 88.5 111)" stroke="#009E73" stroke-width="2"/>
<path d="M146.693 125H145V118.473L142.979 119.1V117.723L146.512 116.457H146.693V125ZM149.629 124.168C149.629 123.898 149.719 123.68 149.898 123.512C150.082 123.344 150.311 123.26 150.584 123.26C150.861 123.26 151.09 123.344 151.27 123.512C151.453 123.68 151.545 123.898 151.545 124.168C151.545 124.434 151.455 124.65 151.275 124.818C151.096 124.982 150.865 125.064 150.584 125.064C150.307 125.064 150.078 124.982 149.898 124.818C149.719 124.65 149.629 124.434 149.629 124.168ZM154.58 125H153.455V116.469H154.58V125ZM157.498 118.66L157.533 119.457C158.018 118.848 158.65 118.543 159.432 118.543C160.771 118.543 161.447 119.299 161.459 120.811V125H160.375V120.805C160.371 120.348 160.266 120.01 160.059 119.791C159.855 119.572 159.537 119.463 159.104 119.463C158.752 119.463 158.443 119.557 158.178 119.744C157.912 119.932 157.705 120.178 157.557 120.482V125H156.473V118.66H157.498ZM166.785 123.318C166.785 123.025 166.674 122.799 166.451 122.639C166.232 122.475 165.848 122.334 165.297 122.217C164.75 122.1 164.314 121.959 163.99 121.795C163.67 121.631 163.432 121.436 163.275 121.209C163.123 120.982 163.047 120.713 163.047 120.4C163.047 119.881 163.266 119.441 163.703 119.082C164.145 118.723 164.707 118.543 165.391 118.543C166.109 118.543 166.691 118.729 167.137 119.1C167.586 119.471 167.811 119.945 167.811 120.523H166.721C166.721 120.227 166.594 119.971 166.34 119.756C166.09 119.541 165.773 119.434 165.391 119.434C164.996 119.434 164.688 119.52 164.465 119.691C164.242 119.863 164.131 120.088 164.131 120.365C164.131 120.627 164.234 120.824 164.441 120.957C164.648 121.09 165.021 121.217 165.561 121.338C166.104 121.459 166.543 121.604 166.879 121.771C167.215 121.939 167.463 122.143 167.623 122.381C167.787 122.615 167.869 122.902 167.869 123.242C167.869 123.809 167.643 124.264 167.189 124.607C166.736 124.947 166.148 125.117 165.426 125.117C164.918 125.117 164.469 125.027 164.078 124.848C163.688 124.668 163.381 124.418 163.158 124.098C162.939 123.773 162.83 123.424 162.83 123.049H163.914C163.934 123.412 164.078 123.701 164.348 123.916C164.621 124.127 164.98 124.232 165.426 124.232C165.836 124.232 166.164 124.15 166.41 123.986C166.66 123.818 166.785 123.596 166.785 123.318ZM170.752 117.125V118.66H171.936V119.498H170.752V123.43C170.752 123.684 170.805 123.875 170.91 124.004C171.016 124.129 171.195 124.191 171.449 124.191C171.574 124.191 171.746 124.168 171.965 124.121V125C171.68 125.078 171.402 125.117 171.133 125.117C170.648 125.117 170.283 124.971 170.037 124.678C169.791 124.385 169.668 123.969 169.668 123.43V119.498H168.514V118.66H169.668V117.125H170.752ZM177.121 125C177.059 124.875 177.008 124.652 176.969 124.332C176.465 124.855 175.863 125.117 175.164 125.117C174.539 125.117 174.025 124.941 173.623 124.59C173.225 124.234 173.025 123.785 173.025 123.242C173.025 122.582 173.275 122.07 173.775 121.707C174.279 121.34 174.986 121.156 175.896 121.156H176.951V120.658C176.951 120.279 176.838 119.979 176.611 119.756C176.385 119.529 176.051 119.416 175.609 119.416C175.223 119.416 174.898 119.514 174.637 119.709C174.375 119.904 174.244 120.141 174.244 120.418H173.154C173.154 120.102 173.266 119.797 173.488 119.504C173.715 119.207 174.02 118.973 174.402 118.801C174.789 118.629 175.213 118.543 175.674 118.543C176.404 118.543 176.977 118.727 177.391 119.094C177.805 119.457 178.02 119.959 178.035 120.6V123.518C178.035 124.1 178.109 124.562 178.258 124.906V125H177.121ZM175.322 124.174C175.662 124.174 175.984 124.086 176.289 123.91C176.594 123.734 176.814 123.506 176.951 123.225V121.924H176.102C174.773 121.924 174.109 122.312 174.109 123.09C174.109 123.43 174.223 123.695 174.449 123.887C174.676 124.078 174.967 124.174 175.322 124.174ZM180.76 118.66L180.795 119.457C181.279 118.848 181.912 118.543 182.693 118.543C184.033 118.543 184.709 119.299 184.721 120.811V125H183.637V120.805C183.633 120.348 183.527 120.01 183.32 119.791C183.117 119.572 182.799 119.463 182.365 119.463C182.014 119.463 181.705 119.557 181.439 119.744C181.174 119.932 180.967 120.178 180.818 120.482V125H179.734V118.66H180.76ZM187.826 117.125V118.66H189.01V119.498H187.826V123.43C187.826 123.684 187.879 123.875 187.984 124.004C188.09 124.129 188.27 124.191 188.523 124.191C188.648 124.191 188.82 124.168 189.039 124.121V125C188.754 125.078 188.477 125.117 188.207 125.117C187.723 125.117 187.357 124.971 187.111 124.678C186.865 124.385 186.742 123.969 186.742 123.43V119.498H185.588V118.66H186.742V117.125H187.826ZM191.459 125H190.375V118.66H191.459V125ZM190.287 116.979C190.287 116.803 190.34 116.654 190.445 116.533C190.555 116.412 190.715 116.352 190.926 116.352C191.137 116.352 191.297 116.412 191.406 116.533C191.516 116.654 191.57 116.803 191.57 116.979C191.57 117.154 191.516 117.301 191.406 117.418C191.297 117.535 191.137 117.594 190.926 117.594C190.715 117.594 190.555 117.535 190.445 117.418C190.34 117.301 190.287 117.154 190.287 116.979ZM197.113 125C197.051 124.875 197 124.652 196.961 124.332C196.457 124.855 195.855 125.117 195.156 125.117C194.531 125.117 194.018 124.941 193.615 124.59C193.217 124.234 193.018 123.785 193.018 123.242C193.018 122.582 193.268 122.07 193.768 121.707C194.271 121.34 194.979 121.156 195.889 121.156H196.943V120.658C196.943 120.279 196.83 119.979 196.604 119.756C196.377 119.529 196.043 119.416 195.602 119.416C195.215 119.416 194.891 119.514 194.629 119.709C194.367 119.904 194.236 120.141 194.236 120.418H193.146C193.146 120.102 193.258 119.797 193.48 119.504C193.707 119.207 194.012 118.973 194.395 118.801C194.781 118.629 195.205 118.543 195.666 118.543C196.396 118.543 196.969 118.727 197.383 119.094C197.797 119.457 198.012 119.959 198.027 120.6V123.518C198.027 124.1 198.102 124.562 198.25 124.906V125H197.113ZM195.314 124.174C195.654 124.174 195.977 124.086 196.281 123.91C196.586 123.734 196.807 123.506 196.943 123.225V121.924H196.094C194.766 121.924 194.102 122.312 194.102 123.09C194.102 123.43 194.215 123.695 194.441 123.887C194.668 124.078 194.959 124.174 195.314 124.174ZM201.197 117.125V118.66H202.381V119.498H201.197V123.43C201.197 123.684 201.25 123.875 201.355 124.004C201.461 124.129 201.641 124.191 201.895 124.191C202.02 124.191 202.191 124.168 202.41 124.121V125C202.125 125.078 201.848 125.117 201.578 125.117C201.094 125.117 200.729 124.971 200.482 124.678C200.236 124.385 200.113 123.969 200.113 123.43V119.498H198.959V118.66H200.113V117.125H201.197ZM206.283 125.117C205.424 125.117 204.725 124.836 204.186 124.273C203.646 123.707 203.377 122.951 203.377 122.006V121.807C203.377 121.178 203.496 120.617 203.734 120.125C203.977 119.629 204.312 119.242 204.742 118.965C205.176 118.684 205.645 118.543 206.148 118.543C206.973 118.543 207.613 118.814 208.07 119.357C208.527 119.9 208.756 120.678 208.756 121.689V122.141H204.461C204.477 122.766 204.658 123.271 205.006 123.658C205.357 124.041 205.803 124.232 206.342 124.232C206.725 124.232 207.049 124.154 207.314 123.998C207.58 123.842 207.812 123.635 208.012 123.377L208.674 123.893C208.143 124.709 207.346 125.117 206.283 125.117ZM206.148 119.434C205.711 119.434 205.344 119.594 205.047 119.914C204.75 120.23 204.566 120.676 204.496 121.25H207.672V121.168C207.641 120.617 207.492 120.191 207.227 119.891C206.961 119.586 206.602 119.434 206.148 119.434ZM146.734 139C146.672 138.875 146.621 138.652 146.582 138.332C146.078 138.855 145.477 139.117 144.777 139.117C144.152 139.117 143.639 138.941 143.236 138.59C142.838 138.234 142.639 137.785 142.639 137.242C142.639 136.582 142.889 136.07 143.389 135.707C143.893 135.34 144.6 135.156 145.51 135.156H146.564V134.658C146.564 134.279 146.451 133.979 146.225 133.756C145.998 133.529 145.664 133.416 145.223 133.416C144.836 133.416 144.512 133.514 144.25 133.709C143.988 133.904 143.857 134.141 143.857 134.418H142.768C142.768 134.102 142.879 133.797 143.102 133.504C143.328 133.207 143.633 132.973 144.016 132.801C144.402 132.629 144.826 132.543 145.287 132.543C146.018 132.543 146.59 132.727 147.004 133.094C147.418 133.457 147.633 133.959 147.648 134.6V137.518C147.648 138.1 147.723 138.562 147.871 138.906V139H146.734ZM144.936 138.174C145.275 138.174 145.598 138.086 145.902 137.91C146.207 137.734 146.428 137.506 146.564 137.225V135.924H145.715C144.387 135.924 143.723 136.312 143.723 137.09C143.723 137.43 143.836 137.695 144.062 137.887C144.289 138.078 144.58 138.174 144.936 138.174ZM150.373 132.66L150.408 133.457C150.893 132.848 151.525 132.543 152.307 132.543C153.646 132.543 154.322 133.299 154.334 134.811V139H153.25V134.805C153.246 134.348 153.141 134.01 152.934 133.791C152.73 133.572 152.412 133.463 151.979 133.463C151.627 133.463 151.318 133.557 151.053 133.744C150.787 133.932 150.58 134.178 150.432 134.482V139H149.348V132.66H150.373ZM158.658 135.771C158.658 135.15 158.779 134.592 159.021 134.096C159.268 133.6 159.607 133.217 160.041 132.947C160.479 132.678 160.977 132.543 161.535 132.543C162.398 132.543 163.096 132.842 163.627 133.439C164.162 134.037 164.43 134.832 164.43 135.824V135.9C164.43 136.518 164.311 137.072 164.072 137.564C163.838 138.053 163.5 138.434 163.059 138.707C162.621 138.98 162.117 139.117 161.547 139.117C160.688 139.117 159.99 138.818 159.455 138.221C158.924 137.623 158.658 136.832 158.658 135.848V135.771ZM159.748 135.9C159.748 136.604 159.91 137.168 160.234 137.594C160.562 138.02 161 138.232 161.547 138.232C162.098 138.232 162.535 138.018 162.859 137.588C163.184 137.154 163.346 136.549 163.346 135.771C163.346 135.076 163.18 134.514 162.848 134.084C162.52 133.65 162.082 133.434 161.535 133.434C161 133.434 160.568 133.646 160.24 134.072C159.912 134.498 159.748 135.107 159.748 135.9ZM171.156 135.9C171.156 136.869 170.934 137.648 170.488 138.238C170.043 138.824 169.445 139.117 168.695 139.117C167.895 139.117 167.275 138.834 166.838 138.268L166.785 139H165.789V130H166.873V133.357C167.311 132.814 167.914 132.543 168.684 132.543C169.453 132.543 170.057 132.834 170.494 133.416C170.936 133.998 171.156 134.795 171.156 135.807V135.9ZM170.072 135.777C170.072 135.039 169.93 134.469 169.645 134.066C169.359 133.664 168.949 133.463 168.414 133.463C167.699 133.463 167.186 133.795 166.873 134.459V137.201C167.205 137.865 167.723 138.197 168.426 138.197C168.945 138.197 169.35 137.996 169.639 137.594C169.928 137.191 170.072 136.586 170.072 135.777ZM173.646 132.66V139.732C173.646 140.951 173.094 141.561 171.988 141.561C171.75 141.561 171.529 141.525 171.326 141.455V140.588C171.451 140.619 171.615 140.635 171.818 140.635C172.061 140.635 172.244 140.568 172.369 140.436C172.498 140.307 172.562 140.08 172.562 139.756V132.66H173.646ZM172.451 130.979C172.451 130.807 172.504 130.66 172.609 130.539C172.719 130.414 172.877 130.352 173.084 130.352C173.295 130.352 173.455 130.412 173.564 130.533C173.674 130.654 173.729 130.803 173.729 130.979C173.729 131.154 173.674 131.301 173.564 131.418C173.455 131.535 173.295 131.594 173.084 131.594C172.873 131.594 172.715 131.535 172.609 131.418C172.504 131.301 172.451 131.154 172.451 130.979ZM178.029 139.117C177.17 139.117 176.471 138.836 175.932 138.273C175.393 137.707 175.123 136.951 175.123 136.006V135.807C175.123 135.178 175.242 134.617 175.48 134.125C175.723 133.629 176.059 133.242 176.488 132.965C176.922 132.684 177.391 132.543 177.895 132.543C178.719 132.543 179.359 132.814 179.816 133.357C180.273 133.9 180.502 134.678 180.502 135.689V136.141H176.207C176.223 136.766 176.404 137.271 176.752 137.658C177.104 138.041 177.549 138.232 178.088 138.232C178.471 138.232 178.795 138.154 179.061 137.998C179.326 137.842 179.559 137.635 179.758 137.377L180.42 137.893C179.889 138.709 179.092 139.117 178.029 139.117ZM177.895 133.434C177.457 133.434 177.09 133.594 176.793 133.914C176.496 134.23 176.312 134.676 176.242 135.25H179.418V135.168C179.387 134.617 179.238 134.191 178.973 133.891C178.707 133.586 178.348 133.434 177.895 133.434ZM184.305 138.232C184.691 138.232 185.029 138.115 185.318 137.881C185.607 137.646 185.768 137.354 185.799 137.002H186.824C186.805 137.365 186.68 137.711 186.449 138.039C186.219 138.367 185.91 138.629 185.523 138.824C185.141 139.02 184.734 139.117 184.305 139.117C183.441 139.117 182.754 138.83 182.242 138.256C181.734 137.678 181.48 136.889 181.48 135.889V135.707C181.48 135.09 181.594 134.541 181.82 134.061C182.047 133.58 182.371 133.207 182.793 132.941C183.219 132.676 183.721 132.543 184.299 132.543C185.01 132.543 185.6 132.756 186.068 133.182C186.541 133.607 186.793 134.16 186.824 134.84H185.799C185.768 134.43 185.611 134.094 185.33 133.832C185.053 133.566 184.709 133.434 184.299 133.434C183.748 133.434 183.32 133.633 183.016 134.031C182.715 134.426 182.564 134.998 182.564 135.748V135.953C182.564 136.684 182.715 137.246 183.016 137.641C183.316 138.035 183.746 138.232 184.305 138.232ZM189.514 131.125V132.66H190.697V133.498H189.514V137.43C189.514 137.684 189.566 137.875 189.672 138.004C189.777 138.129 189.957 138.191 190.211 138.191C190.336 138.191 190.508 138.168 190.727 138.121V139C190.441 139.078 190.164 139.117 189.895 139.117C189.41 139.117 189.045 138.971 188.799 138.678C188.553 138.385 188.43 137.969 188.43 137.43V133.498H187.275V132.66H188.43V131.125H189.514ZM194.658 135.771C194.658 135.15 194.779 134.592 195.021 134.096C195.268 133.6 195.607 133.217 196.041 132.947C196.479 132.678 196.977 132.543 197.535 132.543C198.398 132.543 199.096 132.842 199.627 133.439C200.162 134.037 200.43 134.832 200.43 135.824V135.9C200.43 136.518 200.311 137.072 200.072 137.564C199.838 138.053 199.5 138.434 199.059 138.707C198.621 138.98 198.117 139.117 197.547 139.117C196.688 139.117 195.99 138.818 195.455 138.221C194.924 137.623 194.658 136.832 194.658 135.848V135.771ZM195.748 135.9C195.748 136.604 195.91 137.168 196.234 137.594C196.562 138.02 197 138.232 197.547 138.232C198.098 138.232 198.535 138.018 198.859 137.588C199.184 137.154 199.346 136.549 199.346 135.771C199.346 135.076 199.18 134.514 198.848 134.084C198.52 133.65 198.082 133.434 197.535 133.434C197 133.434 196.568 133.646 196.24 134.072C195.912 134.498 195.748 135.107 195.748 135.9ZM202.322 139V133.498H201.32V132.66H202.322V132.01C202.322 131.33 202.504 130.805 202.867 130.434C203.23 130.062 203.744 129.877 204.408 129.877C204.658 129.877 204.906 129.91 205.152 129.977L205.094 130.855C204.91 130.82 204.715 130.803 204.508 130.803C204.156 130.803 203.885 130.906 203.693 131.113C203.502 131.316 203.406 131.609 203.406 131.992V132.66H204.76V133.498H203.406V139H202.322ZM144.291 145.125V146.66H145.475V147.498H144.291V151.43C144.291 151.684 144.344 151.875 144.449 152.004C144.555 152.129 144.734 152.191 144.988 152.191C145.113 152.191 145.285 152.168 145.504 152.121V153C145.219 153.078 144.941 153.117 144.672 153.117C144.188 153.117 143.822 152.971 143.576 152.678C143.33 152.385 143.207 151.969 143.207 151.43V147.498H142.053V146.66H143.207V145.125H144.291ZM147.83 147.428C148.311 146.838 148.936 146.543 149.705 146.543C151.045 146.543 151.721 147.299 151.732 148.811V153H150.648V148.805C150.645 148.348 150.539 148.01 150.332 147.791C150.129 147.572 149.811 147.463 149.377 147.463C149.025 147.463 148.717 147.557 148.451 147.744C148.186 147.932 147.979 148.178 147.83 148.482V153H146.746V144H147.83V147.428ZM155.986 153.117C155.127 153.117 154.428 152.836 153.889 152.273C153.35 151.707 153.08 150.951 153.08 150.006V149.807C153.08 149.178 153.199 148.617 153.438 148.125C153.68 147.629 154.016 147.242 154.445 146.965C154.879 146.684 155.348 146.543 155.852 146.543C156.676 146.543 157.316 146.814 157.773 147.357C158.23 147.9 158.459 148.678 158.459 149.689V150.141H154.164C154.18 150.766 154.361 151.271 154.709 151.658C155.061 152.041 155.506 152.232 156.045 152.232C156.428 152.232 156.752 152.154 157.018 151.998C157.283 151.842 157.516 151.635 157.715 151.377L158.377 151.893C157.846 152.709 157.049 153.117 155.986 153.117ZM155.852 147.434C155.414 147.434 155.047 147.594 154.75 147.914C154.453 148.23 154.27 148.676 154.199 149.25H157.375V149.168C157.344 148.617 157.195 148.191 156.93 147.891C156.664 147.586 156.305 147.434 155.852 147.434ZM165.238 152.232C165.625 152.232 165.963 152.115 166.252 151.881C166.541 151.646 166.701 151.354 166.732 151.002H167.758C167.738 151.365 167.613 151.711 167.383 152.039C167.152 152.367 166.844 152.629 166.457 152.824C166.074 153.02 165.668 153.117 165.238 153.117C164.375 153.117 163.688 152.83 163.176 152.256C162.668 151.678 162.414 150.889 162.414 149.889V149.707C162.414 149.09 162.527 148.541 162.754 148.061C162.98 147.58 163.305 147.207 163.727 146.941C164.152 146.676 164.654 146.543 165.232 146.543C165.943 146.543 166.533 146.756 167.002 147.182C167.475 147.607 167.727 148.16 167.758 148.84H166.732C166.701 148.43 166.545 148.094 166.264 147.832C165.986 147.566 165.643 147.434 165.232 147.434C164.682 147.434 164.254 147.633 163.949 148.031C163.648 148.426 163.498 148.998 163.498 149.748V149.953C163.498 150.684 163.648 151.246 163.949 151.641C164.25 152.035 164.68 152.232 165.238 152.232ZM170.154 153H169.07V144H170.154V153ZM175.809 153C175.746 152.875 175.695 152.652 175.656 152.332C175.152 152.855 174.551 153.117 173.852 153.117C173.227 153.117 172.713 152.941 172.311 152.59C171.912 152.234 171.713 151.785 171.713 151.242C171.713 150.582 171.963 150.07 172.463 149.707C172.967 149.34 173.674 149.156 174.584 149.156H175.639V148.658C175.639 148.279 175.525 147.979 175.299 147.756C175.072 147.529 174.738 147.416 174.297 147.416C173.91 147.416 173.586 147.514 173.324 147.709C173.062 147.904 172.932 148.141 172.932 148.418H171.842C171.842 148.102 171.953 147.797 172.176 147.504C172.402 147.207 172.707 146.973 173.09 146.801C173.477 146.629 173.9 146.543 174.361 146.543C175.092 146.543 175.664 146.727 176.078 147.094C176.492 147.457 176.707 147.959 176.723 148.6V151.518C176.723 152.1 176.797 152.562 176.945 152.906V153H175.809ZM174.01 152.174C174.35 152.174 174.672 152.086 174.977 151.91C175.281 151.734 175.502 151.506 175.639 151.225V149.924H174.789C173.461 149.924 172.797 150.312 172.797 151.09C172.797 151.43 172.91 151.695 173.137 151.887C173.363 152.078 173.654 152.174 174.01 152.174ZM182.113 151.318C182.113 151.025 182.002 150.799 181.779 150.639C181.561 150.475 181.176 150.334 180.625 150.217C180.078 150.1 179.643 149.959 179.318 149.795C178.998 149.631 178.76 149.436 178.604 149.209C178.451 148.982 178.375 148.713 178.375 148.4C178.375 147.881 178.594 147.441 179.031 147.082C179.473 146.723 180.035 146.543 180.719 146.543C181.438 146.543 182.02 146.729 182.465 147.1C182.914 147.471 183.139 147.945 183.139 148.523H182.049C182.049 148.227 181.922 147.971 181.668 147.756C181.418 147.541 181.102 147.434 180.719 147.434C180.324 147.434 180.016 147.52 179.793 147.691C179.57 147.863 179.459 148.088 179.459 148.365C179.459 148.627 179.562 148.824 179.77 148.957C179.977 149.09 180.35 149.217 180.889 149.338C181.432 149.459 181.871 149.604 182.207 149.771C182.543 149.939 182.791 150.143 182.951 150.381C183.115 150.615 183.197 150.902 183.197 151.242C183.197 151.809 182.971 152.264 182.518 152.607C182.064 152.947 181.477 153.117 180.754 153.117C180.246 153.117 179.797 153.027 179.406 152.848C179.016 152.668 178.709 152.418 178.486 152.098C178.268 151.773 178.158 151.424 178.158 151.049H179.242C179.262 151.412 179.406 151.701 179.676 151.916C179.949 152.127 180.309 152.232 180.754 152.232C181.164 152.232 181.492 152.15 181.738 151.986C181.988 151.818 182.113 151.596 182.113 151.318ZM188.301 151.318C188.301 151.025 188.189 150.799 187.967 150.639C187.748 150.475 187.363 150.334 186.812 150.217C186.266 150.1 185.83 149.959 185.506 149.795C185.186 149.631 184.947 149.436 184.791 149.209C184.639 148.982 184.562 148.713 184.562 148.4C184.562 147.881 184.781 147.441 185.219 147.082C185.66 146.723 186.223 146.543 186.906 146.543C187.625 146.543 188.207 146.729 188.652 147.1C189.102 147.471 189.326 147.945 189.326 148.523H188.236C188.236 148.227 188.109 147.971 187.855 147.756C187.605 147.541 187.289 147.434 186.906 147.434C186.512 147.434 186.203 147.52 185.98 147.691C185.758 147.863 185.646 148.088 185.646 148.365C185.646 148.627 185.75 148.824 185.957 148.957C186.164 149.09 186.537 149.217 187.076 149.338C187.619 149.459 188.059 149.604 188.395 149.771C188.73 149.939 188.979 150.143 189.139 150.381C189.303 150.615 189.385 150.902 189.385 151.242C189.385 151.809 189.158 152.264 188.705 152.607C188.252 152.947 187.664 153.117 186.941 153.117C186.434 153.117 185.984 153.027 185.594 152.848C185.203 152.668 184.896 152.418 184.674 152.098C184.455 151.773 184.346 151.424 184.346 151.049H185.43C185.449 151.412 185.594 151.701 185.863 151.916C186.137 152.127 186.496 152.232 186.941 152.232C187.352 152.232 187.68 152.15 187.926 151.986C188.176 151.818 188.301 151.596 188.301 151.318ZM143.08 162.168H146.776V168H145.792V162.972H143.08V162.168ZM146.176 160.968C145.944 160.968 145.752 160.9 145.6 160.764C145.456 160.628 145.384 160.444 145.384 160.212C145.384 159.98 145.456 159.796 145.6 159.66C145.752 159.516 145.944 159.444 146.176 159.444C146.4 159.444 146.588 159.516 146.74 159.66C146.892 159.796 146.968 159.98 146.968 160.212C146.968 160.444 146.892 160.628 146.74 160.764C146.588 160.9 146.4 160.968 146.176 160.968ZM150.311 162.168H151.127L151.211 163.164H151.259C151.563 162.836 151.891 162.564 152.243 162.348C152.595 162.132 152.999 162.024 153.455 162.024C154.151 162.024 154.659 162.224 154.979 162.624C155.307 163.016 155.471 163.6 155.471 164.376V168H154.487V164.508C154.487 163.956 154.383 163.548 154.175 163.284C153.967 163.012 153.623 162.876 153.143 162.876C152.967 162.876 152.803 162.9 152.651 162.948C152.507 162.988 152.363 163.052 152.219 163.14C152.075 163.228 151.927 163.34 151.775 163.476C151.623 163.604 151.463 163.756 151.295 163.932V168H150.311V162.168ZM158.863 162.972H157.219V162.228L158.899 162.168L159.031 160.536H159.847V162.168H162.715V162.972H159.847V165.744C159.847 166.008 159.871 166.24 159.919 166.44C159.967 166.632 160.047 166.796 160.159 166.932C160.271 167.068 160.423 167.172 160.615 167.244C160.807 167.308 161.043 167.34 161.323 167.34C161.603 167.34 161.855 167.316 162.079 167.268C162.303 167.22 162.519 167.156 162.727 167.076L162.943 167.796C162.679 167.892 162.387 167.972 162.067 168.036C161.747 168.108 161.427 168.144 161.107 168.144C160.683 168.144 160.327 168.088 160.039 167.976C159.751 167.856 159.519 167.692 159.343 167.484C159.175 167.268 159.051 167.012 158.971 166.716C158.899 166.42 158.863 166.092 158.863 165.732V162.972Z" fill="black"/>
<path d="M51.4277 126H45.5801V124.84L48.3398 121.898C48.7188 121.484 48.998 121.123 49.1777 120.814C49.3613 120.506 49.4531 120.213 49.4531 119.936C49.4531 119.557 49.3574 119.26 49.166 119.045C48.9746 118.826 48.7012 118.717 48.3457 118.717C47.9629 118.717 47.6602 118.85 47.4375 119.115C47.2188 119.377 47.1094 119.723 47.1094 120.152H45.4102C45.4102 119.633 45.5332 119.158 45.7793 118.729C46.0293 118.299 46.3809 117.963 46.834 117.721C47.2871 117.475 47.8008 117.352 48.375 117.352C49.2539 117.352 49.9355 117.562 50.4199 117.984C50.9082 118.406 51.1523 119.002 51.1523 119.771C51.1523 120.193 51.043 120.623 50.8242 121.061C50.6055 121.498 50.2305 122.008 49.6992 122.59L47.7598 124.635H51.4277V126ZM52.6289 125.168C52.6289 124.898 52.7188 124.68 52.8984 124.512C53.082 124.344 53.3105 124.26 53.584 124.26C53.8613 124.26 54.0898 124.344 54.2695 124.512C54.4531 124.68 54.5449 124.898 54.5449 125.168C54.5449 125.434 54.4551 125.65 54.2754 125.818C54.0957 125.982 53.8652 126.064 53.584 126.064C53.3066 126.064 53.0781 125.982 52.8984 125.818C52.7188 125.65 52.6289 125.434 52.6289 125.168ZM64.0605 123.773H60.4863L59.6836 126H58.5234L61.7812 117.469H62.7656L66.0293 126H64.875L64.0605 123.773ZM60.8262 122.848H63.7266L62.2734 118.857L60.8262 122.848ZM70.6992 124.318C70.6992 124.025 70.5879 123.799 70.3652 123.639C70.1465 123.475 69.7617 123.334 69.2109 123.217C68.6641 123.1 68.2285 122.959 67.9043 122.795C67.584 122.631 67.3457 122.436 67.1895 122.209C67.0371 121.982 66.9609 121.713 66.9609 121.4C66.9609 120.881 67.1797 120.441 67.6172 120.082C68.0586 119.723 68.6211 119.543 69.3047 119.543C70.0234 119.543 70.6055 119.729 71.0508 120.1C71.5 120.471 71.7246 120.945 71.7246 121.523H70.6348C70.6348 121.227 70.5078 120.971 70.2539 120.756C70.0039 120.541 69.6875 120.434 69.3047 120.434C68.9102 120.434 68.6016 120.52 68.3789 120.691C68.1562 120.863 68.0449 121.088 68.0449 121.365C68.0449 121.627 68.1484 121.824 68.3555 121.957C68.5625 122.09 68.9355 122.217 69.4746 122.338C70.0176 122.459 70.457 122.604 70.793 122.771C71.1289 122.939 71.377 123.143 71.5371 123.381C71.7012 123.615 71.7832 123.902 71.7832 124.242C71.7832 124.809 71.5566 125.264 71.1035 125.607C70.6504 125.947 70.0625 126.117 69.3398 126.117C68.832 126.117 68.3828 126.027 67.9922 125.848C67.6016 125.668 67.2949 125.418 67.0723 125.098C66.8535 124.773 66.7441 124.424 66.7441 124.049H67.8281C67.8477 124.412 67.9922 124.701 68.2617 124.916C68.5352 125.127 68.8945 125.232 69.3398 125.232C69.75 125.232 70.0781 125.15 70.3242 124.986C70.5742 124.818 70.6992 124.596 70.6992 124.318ZM76.8867 124.318C76.8867 124.025 76.7754 123.799 76.5527 123.639C76.334 123.475 75.9492 123.334 75.3984 123.217C74.8516 123.1 74.416 122.959 74.0918 122.795C73.7715 122.631 73.5332 122.436 73.377 122.209C73.2246 121.982 73.1484 121.713 73.1484 121.4C73.1484 120.881 73.3672 120.441 73.8047 120.082C74.2461 119.723 74.8086 119.543 75.4922 119.543C76.2109 119.543 76.793 119.729 77.2383 120.1C77.6875 120.471 77.9121 120.945 77.9121 121.523H76.8223C76.8223 121.227 76.6953 120.971 76.4414 120.756C76.1914 120.541 75.875 120.434 75.4922 120.434C75.0977 120.434 74.7891 120.52 74.5664 120.691C74.3438 120.863 74.2324 121.088 74.2324 121.365C74.2324 121.627 74.3359 121.824 74.543 121.957C74.75 122.09 75.123 122.217 75.6621 122.338C76.2051 122.459 76.6445 122.604 76.9805 122.771C77.3164 122.939 77.5645 123.143 77.7246 123.381C77.8887 123.615 77.9707 123.902 77.9707 124.242C77.9707 124.809 77.7441 125.264 77.291 125.607C76.8379 125.947 76.25 126.117 75.5273 126.117C75.0195 126.117 74.5703 126.027 74.1797 125.848C73.7891 125.668 73.4824 125.418 73.2598 125.098C73.041 124.773 72.9316 124.424 72.9316 124.049H74.0156C74.0352 124.412 74.1797 124.701 74.4492 124.916C74.7227 125.127 75.082 125.232 75.5273 125.232C75.9375 125.232 76.2656 125.15 76.5117 124.986C76.7617 124.818 76.8867 124.596 76.8867 124.318ZM80.5605 126H79.4766V119.66H80.5605V126ZM79.3887 117.979C79.3887 117.803 79.4414 117.654 79.5469 117.533C79.6562 117.412 79.8164 117.352 80.0273 117.352C80.2383 117.352 80.3984 117.412 80.5078 117.533C80.6172 117.654 80.6719 117.803 80.6719 117.979C80.6719 118.154 80.6172 118.301 80.5078 118.418C80.3984 118.535 80.2383 118.594 80.0273 118.594C79.8164 118.594 79.6562 118.535 79.5469 118.418C79.4414 118.301 79.3887 118.154 79.3887 117.979ZM82.043 122.777C82.043 121.789 82.2715 121.004 82.7285 120.422C83.1855 119.836 83.791 119.543 84.5449 119.543C85.3184 119.543 85.9219 119.816 86.3555 120.363L86.4082 119.66H87.3984V125.848C87.3984 126.668 87.1543 127.314 86.666 127.787C86.1816 128.26 85.5293 128.496 84.709 128.496C84.252 128.496 83.8047 128.398 83.3672 128.203C82.9297 128.008 82.5957 127.74 82.3652 127.4L82.9277 126.75C83.3926 127.324 83.9609 127.611 84.6328 127.611C85.1602 127.611 85.5703 127.463 85.8633 127.166C86.1602 126.869 86.3086 126.451 86.3086 125.912V125.367C85.875 125.867 85.2832 126.117 84.5332 126.117C83.791 126.117 83.1895 125.818 82.7285 125.221C82.2715 124.623 82.043 123.809 82.043 122.777ZM83.1328 122.9C83.1328 123.615 83.2793 124.178 83.5723 124.588C83.8652 124.994 84.2754 125.197 84.8027 125.197C85.4863 125.197 85.9883 124.887 86.3086 124.266V121.371C85.9766 120.766 85.4785 120.463 84.8145 120.463C84.2871 120.463 83.875 120.668 83.5781 121.078C83.2812 121.488 83.1328 122.096 83.1328 122.9ZM90.0645 119.66L90.0996 120.457C90.584 119.848 91.2168 119.543 91.998 119.543C93.3379 119.543 94.0137 120.299 94.0254 121.811V126H92.9414V121.805C92.9375 121.348 92.832 121.01 92.625 120.791C92.4219 120.572 92.1035 120.463 91.6699 120.463C91.3184 120.463 91.0098 120.557 90.7441 120.744C90.4785 120.932 90.2715 121.178 90.123 121.482V126H89.0391V119.66H90.0645ZM100.107 118.125V119.66H101.291V120.498H100.107V124.43C100.107 124.684 100.16 124.875 100.266 125.004C100.371 125.129 100.551 125.191 100.805 125.191C100.93 125.191 101.102 125.168 101.32 125.121V126C101.035 126.078 100.758 126.117 100.488 126.117C100.004 126.117 99.6387 125.971 99.3926 125.678C99.1465 125.385 99.0234 124.969 99.0234 124.43V120.498H97.8691V119.66H99.0234V118.125H100.107ZM103.646 120.428C104.127 119.838 104.752 119.543 105.521 119.543C106.861 119.543 107.537 120.299 107.549 121.811V126H106.465V121.805C106.461 121.348 106.355 121.01 106.148 120.791C105.945 120.572 105.627 120.463 105.193 120.463C104.842 120.463 104.533 120.557 104.268 120.744C104.002 120.932 103.795 121.178 103.646 121.482V126H102.562V117H103.646V120.428ZM111.803 126.117C110.943 126.117 110.244 125.836 109.705 125.273C109.166 124.707 108.896 123.951 108.896 123.006V122.807C108.896 122.178 109.016 121.617 109.254 121.125C109.496 120.629 109.832 120.242 110.262 119.965C110.695 119.684 111.164 119.543 111.668 119.543C112.492 119.543 113.133 119.814 113.59 120.357C114.047 120.9 114.275 121.678 114.275 122.689V123.141H109.98C109.996 123.766 110.178 124.271 110.525 124.658C110.877 125.041 111.322 125.232 111.861 125.232C112.244 125.232 112.568 125.154 112.834 124.998C113.1 124.842 113.332 124.635 113.531 124.377L114.193 124.893C113.662 125.709 112.865 126.117 111.803 126.117ZM111.668 120.434C111.23 120.434 110.863 120.594 110.566 120.914C110.27 121.23 110.086 121.676 110.016 122.25H113.191V122.168C113.16 121.617 113.012 121.191 112.746 120.891C112.48 120.586 112.121 120.434 111.668 120.434ZM45.5332 136.771C45.5332 136.15 45.6543 135.592 45.8965 135.096C46.1426 134.6 46.4824 134.217 46.916 133.947C47.3535 133.678 47.8516 133.543 48.4102 133.543C49.2734 133.543 49.9707 133.842 50.502 134.439C51.0371 135.037 51.3047 135.832 51.3047 136.824V136.9C51.3047 137.518 51.1855 138.072 50.9473 138.564C50.7129 139.053 50.375 139.434 49.9336 139.707C49.4961 139.98 48.9922 140.117 48.4219 140.117C47.5625 140.117 46.8652 139.818 46.3301 139.221C45.7988 138.623 45.5332 137.832 45.5332 136.848V136.771ZM46.623 136.9C46.623 137.604 46.7852 138.168 47.1094 138.594C47.4375 139.02 47.875 139.232 48.4219 139.232C48.9727 139.232 49.4102 139.018 49.7344 138.588C50.0586 138.154 50.2207 137.549 50.2207 136.771C50.2207 136.076 50.0547 135.514 49.7227 135.084C49.3945 134.65 48.957 134.434 48.4102 134.434C47.875 134.434 47.4434 134.646 47.1152 135.072C46.7871 135.498 46.623 136.107 46.623 136.9ZM58.0312 136.9C58.0312 137.869 57.8086 138.648 57.3633 139.238C56.918 139.824 56.3203 140.117 55.5703 140.117C54.7695 140.117 54.1504 139.834 53.7129 139.268L53.6602 140H52.6641V131H53.748V134.357C54.1855 133.814 54.7891 133.543 55.5586 133.543C56.3281 133.543 56.9316 133.834 57.3691 134.416C57.8105 134.998 58.0312 135.795 58.0312 136.807V136.9ZM56.9473 136.777C56.9473 136.039 56.8047 135.469 56.5195 135.066C56.2344 134.664 55.8242 134.463 55.2891 134.463C54.5742 134.463 54.0605 134.795 53.748 135.459V138.201C54.0801 138.865 54.5977 139.197 55.3008 139.197C55.8203 139.197 56.2246 138.996 56.5137 138.594C56.8027 138.191 56.9473 137.586 56.9473 136.777ZM60.5215 133.66V140.732C60.5215 141.951 59.9688 142.561 58.8633 142.561C58.625 142.561 58.4043 142.525 58.2012 142.455V141.588C58.3262 141.619 58.4902 141.635 58.6934 141.635C58.9355 141.635 59.1191 141.568 59.2441 141.436C59.373 141.307 59.4375 141.08 59.4375 140.756V133.66H60.5215ZM59.3262 131.979C59.3262 131.807 59.3789 131.66 59.4844 131.539C59.5938 131.414 59.752 131.352 59.959 131.352C60.1699 131.352 60.3301 131.412 60.4395 131.533C60.5488 131.654 60.6035 131.803 60.6035 131.979C60.6035 132.154 60.5488 132.301 60.4395 132.418C60.3301 132.535 60.1699 132.594 59.959 132.594C59.748 132.594 59.5898 132.535 59.4844 132.418C59.3789 132.301 59.3262 132.154 59.3262 131.979ZM64.9043 140.117C64.0449 140.117 63.3457 139.836 62.8066 139.273C62.2676 138.707 61.998 137.951 61.998 137.006V136.807C61.998 136.178 62.1172 135.617 62.3555 135.125C62.5977 134.629 62.9336 134.242 63.3633 133.965C63.7969 133.684 64.2656 133.543 64.7695 133.543C65.5938 133.543 66.2344 133.814 66.6914 134.357C67.1484 134.9 67.377 135.678 67.377 136.689V137.141H63.082C63.0977 137.766 63.2793 138.271 63.627 138.658C63.9785 139.041 64.4238 139.232 64.9629 139.232C65.3457 139.232 65.6699 139.154 65.9355 138.998C66.2012 138.842 66.4336 138.635 66.6328 138.377L67.2949 138.893C66.7637 139.709 65.9668 140.117 64.9043 140.117ZM64.7695 134.434C64.332 134.434 63.9648 134.594 63.668 134.914C63.3711 135.23 63.1875 135.676 63.1172 136.25H66.293V136.168C66.2617 135.617 66.1133 135.191 65.8477 134.891C65.582 134.586 65.2227 134.434 64.7695 134.434ZM71.1797 139.232C71.5664 139.232 71.9043 139.115 72.1934 138.881C72.4824 138.646 72.6426 138.354 72.6738 138.002H73.6992C73.6797 138.365 73.5547 138.711 73.3242 139.039C73.0938 139.367 72.7852 139.629 72.3984 139.824C72.0156 140.02 71.6094 140.117 71.1797 140.117C70.3164 140.117 69.6289 139.83 69.1172 139.256C68.6094 138.678 68.3555 137.889 68.3555 136.889V136.707C68.3555 136.09 68.4688 135.541 68.6953 135.061C68.9219 134.58 69.2461 134.207 69.668 133.941C70.0938 133.676 70.5957 133.543 71.1738 133.543C71.8848 133.543 72.4746 133.756 72.9434 134.182C73.416 134.607 73.668 135.16 73.6992 135.84H72.6738C72.6426 135.43 72.4863 135.094 72.2051 134.832C71.9277 134.566 71.584 134.434 71.1738 134.434C70.623 134.434 70.1953 134.633 69.8906 135.031C69.5898 135.426 69.4395 135.998 69.4395 136.748V136.953C69.4395 137.684 69.5898 138.246 69.8906 138.641C70.1914 139.035 70.6211 139.232 71.1797 139.232ZM76.3887 132.125V133.66H77.5723V134.498H76.3887V138.43C76.3887 138.684 76.4414 138.875 76.5469 139.004C76.6523 139.129 76.832 139.191 77.0859 139.191C77.2109 139.191 77.3828 139.168 77.6016 139.121V140C77.3164 140.078 77.0391 140.117 76.7695 140.117C76.2852 140.117 75.9199 139.971 75.6738 139.678C75.4277 139.385 75.3047 138.969 75.3047 138.43V134.498H74.1504V133.66H75.3047V132.125H76.3887ZM83.291 132.125V133.66H84.4746V134.498H83.291V138.43C83.291 138.684 83.3438 138.875 83.4492 139.004C83.5547 139.129 83.7344 139.191 83.9883 139.191C84.1133 139.191 84.2852 139.168 84.5039 139.121V140C84.2188 140.078 83.9414 140.117 83.6719 140.117C83.1875 140.117 82.8223 139.971 82.5762 139.678C82.3301 139.385 82.207 138.969 82.207 138.43V134.498H81.0527V133.66H82.207V132.125H83.291ZM85.3418 136.771C85.3418 136.15 85.4629 135.592 85.7051 135.096C85.9512 134.6 86.291 134.217 86.7246 133.947C87.1621 133.678 87.6602 133.543 88.2188 133.543C89.082 133.543 89.7793 133.842 90.3105 134.439C90.8457 135.037 91.1133 135.832 91.1133 136.824V136.9C91.1133 137.518 90.9941 138.072 90.7559 138.564C90.5215 139.053 90.1836 139.434 89.7422 139.707C89.3047 139.98 88.8008 140.117 88.2305 140.117C87.3711 140.117 86.6738 139.818 86.1387 139.221C85.6074 138.623 85.3418 137.832 85.3418 136.848V136.771ZM86.4316 136.9C86.4316 137.604 86.5938 138.168 86.918 138.594C87.2461 139.02 87.6836 139.232 88.2305 139.232C88.7812 139.232 89.2188 139.018 89.543 138.588C89.8672 138.154 90.0293 137.549 90.0293 136.771C90.0293 136.076 89.8633 135.514 89.5312 135.084C89.2031 134.65 88.7656 134.434 88.2188 134.434C87.6836 134.434 87.252 134.646 86.9238 135.072C86.5957 135.498 86.4316 136.107 86.4316 136.9ZM99.3633 140C99.3008 139.875 99.25 139.652 99.2109 139.332C98.707 139.855 98.1055 140.117 97.4062 140.117C96.7812 140.117 96.2676 139.941 95.8652 139.59C95.4668 139.234 95.2676 138.785 95.2676 138.242C95.2676 137.582 95.5176 137.07 96.0176 136.707C96.5215 136.34 97.2285 136.156 98.1387 136.156H99.1934V135.658C99.1934 135.279 99.0801 134.979 98.8535 134.756C98.627 134.529 98.293 134.416 97.8516 134.416C97.4648 134.416 97.1406 134.514 96.8789 134.709C96.6172 134.904 96.4863 135.141 96.4863 135.418H95.3965C95.3965 135.102 95.5078 134.797 95.7305 134.504C95.957 134.207 96.2617 133.973 96.6445 133.801C97.0312 133.629 97.4551 133.543 97.916 133.543C98.6465 133.543 99.2188 133.727 99.6328 134.094C100.047 134.457 100.262 134.959 100.277 135.6V138.518C100.277 139.1 100.352 139.562 100.5 139.906V140H99.3633ZM97.5645 139.174C97.9043 139.174 98.2266 139.086 98.5312 138.91C98.8359 138.734 99.0566 138.506 99.1934 138.225V136.924H98.3438C97.0156 136.924 96.3516 137.312 96.3516 138.09C96.3516 138.43 96.4648 138.695 96.6914 138.887C96.918 139.078 97.209 139.174 97.5645 139.174ZM47.9121 152.529L49.4824 147.66H50.5898L48.3164 154H47.4902L45.1934 147.66H46.3008L47.9121 152.529ZM55.4531 154C55.3906 153.875 55.3398 153.652 55.3008 153.332C54.7969 153.855 54.1953 154.117 53.4961 154.117C52.8711 154.117 52.3574 153.941 51.9551 153.59C51.5566 153.234 51.3574 152.785 51.3574 152.242C51.3574 151.582 51.6074 151.07 52.1074 150.707C52.6113 150.34 53.3184 150.156 54.2285 150.156H55.2832V149.658C55.2832 149.279 55.1699 148.979 54.9434 148.756C54.7168 148.529 54.3828 148.416 53.9414 148.416C53.5547 148.416 53.2305 148.514 52.9688 148.709C52.707 148.904 52.5762 149.141 52.5762 149.418H51.4863C51.4863 149.102 51.5977 148.797 51.8203 148.504C52.0469 148.207 52.3516 147.973 52.7344 147.801C53.1211 147.629 53.5449 147.543 54.0059 147.543C54.7363 147.543 55.3086 147.727 55.7227 148.094C56.1367 148.457 56.3516 148.959 56.3672 149.6V152.518C56.3672 153.1 56.4414 153.562 56.5898 153.906V154H55.4531ZM53.6543 153.174C53.9941 153.174 54.3164 153.086 54.6211 152.91C54.9258 152.734 55.1465 152.506 55.2832 152.225V150.924H54.4336C53.1055 150.924 52.4414 151.312 52.4414 152.09C52.4414 152.43 52.5547 152.695 52.7812 152.887C53.0078 153.078 53.2988 153.174 53.6543 153.174ZM61.1309 148.633C60.9668 148.605 60.7891 148.592 60.5977 148.592C59.8867 148.592 59.4043 148.895 59.1504 149.5V154H58.0664V147.66H59.1211L59.1387 148.393C59.4941 147.826 59.998 147.543 60.6504 147.543C60.8613 147.543 61.0215 147.57 61.1309 147.625V148.633ZM63.3105 154H62.2266V147.66H63.3105V154ZM62.1387 145.979C62.1387 145.803 62.1914 145.654 62.2969 145.533C62.4062 145.412 62.5664 145.352 62.7773 145.352C62.9883 145.352 63.1484 145.412 63.2578 145.533C63.3672 145.654 63.4219 145.803 63.4219 145.979C63.4219 146.154 63.3672 146.301 63.2578 146.418C63.1484 146.535 62.9883 146.594 62.7773 146.594C62.5664 146.594 62.4062 146.535 62.2969 146.418C62.1914 146.301 62.1387 146.154 62.1387 145.979ZM68.9648 154C68.9023 153.875 68.8516 153.652 68.8125 153.332C68.3086 153.855 67.707 154.117 67.0078 154.117C66.3828 154.117 65.8691 153.941 65.4668 153.59C65.0684 153.234 64.8691 152.785 64.8691 152.242C64.8691 151.582 65.1191 151.07 65.6191 150.707C66.123 150.34 66.8301 150.156 67.7402 150.156H68.7949V149.658C68.7949 149.279 68.6816 148.979 68.4551 148.756C68.2285 148.529 67.8945 148.416 67.4531 148.416C67.0664 148.416 66.7422 148.514 66.4805 148.709C66.2188 148.904 66.0879 149.141 66.0879 149.418H64.998C64.998 149.102 65.1094 148.797 65.332 148.504C65.5586 148.207 65.8633 147.973 66.2461 147.801C66.6328 147.629 67.0566 147.543 67.5176 147.543C68.248 147.543 68.8203 147.727 69.2344 148.094C69.6484 148.457 69.8633 148.959 69.8789 149.6V152.518C69.8789 153.1 69.9531 153.562 70.1016 153.906V154H68.9648ZM67.166 153.174C67.5059 153.174 67.8281 153.086 68.1328 152.91C68.4375 152.734 68.6582 152.506 68.7949 152.225V150.924H67.9453C66.6172 150.924 65.9531 151.312 65.9531 152.09C65.9531 152.43 66.0664 152.695 66.293 152.887C66.5195 153.078 66.8105 153.174 67.166 153.174ZM76.9453 150.9C76.9453 151.869 76.7227 152.648 76.2773 153.238C75.832 153.824 75.2344 154.117 74.4844 154.117C73.6836 154.117 73.0645 153.834 72.627 153.268L72.5742 154H71.5781V145H72.6621V148.357C73.0996 147.814 73.7031 147.543 74.4727 147.543C75.2422 147.543 75.8457 147.834 76.2832 148.416C76.7246 148.998 76.9453 149.795 76.9453 150.807V150.9ZM75.8613 150.777C75.8613 150.039 75.7188 149.469 75.4336 149.066C75.1484 148.664 74.7383 148.463 74.2031 148.463C73.4883 148.463 72.9746 148.795 72.6621 149.459V152.201C72.9941 152.865 73.5117 153.197 74.2148 153.197C74.7344 153.197 75.1387 152.996 75.4277 152.594C75.7168 152.191 75.8613 151.586 75.8613 150.777ZM79.4941 154H78.4102V145H79.4941V154ZM83.8652 154.117C83.0059 154.117 82.3066 153.836 81.7676 153.273C81.2285 152.707 80.959 151.951 80.959 151.006V150.807C80.959 150.178 81.0781 149.617 81.3164 149.125C81.5586 148.629 81.8945 148.242 82.3242 147.965C82.7578 147.684 83.2266 147.543 83.7305 147.543C84.5547 147.543 85.1953 147.814 85.6523 148.357C86.1094 148.9 86.3379 149.678 86.3379 150.689V151.141H82.043C82.0586 151.766 82.2402 152.271 82.5879 152.658C82.9395 153.041 83.3848 153.232 83.9238 153.232C84.3066 153.232 84.6309 153.154 84.8965 152.998C85.1621 152.842 85.3945 152.635 85.5938 152.377L86.2559 152.893C85.7246 153.709 84.9277 154.117 83.8652 154.117ZM83.7305 148.434C83.293 148.434 82.9258 148.594 82.6289 148.914C82.332 149.23 82.1484 149.676 82.0781 150.25H85.2539V150.168C85.2227 149.617 85.0742 149.191 84.8086 148.891C84.543 148.586 84.1836 148.434 83.7305 148.434ZM96.1875 152.506L97.4062 147.66H98.4902L96.6445 154H95.7656L94.2246 149.195L92.7246 154H91.8457L90.0059 147.66H91.084L92.332 152.406L93.8086 147.66H94.6816L96.1875 152.506ZM100.775 154H99.6914V147.66H100.775V154ZM99.6035 145.979C99.6035 145.803 99.6562 145.654 99.7617 145.533C99.8711 145.412 100.031 145.352 100.242 145.352C100.453 145.352 100.613 145.412 100.723 145.533C100.832 145.654 100.887 145.803 100.887 145.979C100.887 146.154 100.832 146.301 100.723 146.418C100.613 146.535 100.453 146.594 100.242 146.594C100.031 146.594 99.8711 146.535 99.7617 146.418C99.6562 146.301 99.6035 146.154 99.6035 145.979ZM103.986 146.125V147.66H105.17V148.498H103.986V152.43C103.986 152.684 104.039 152.875 104.145 153.004C104.25 153.129 104.43 153.191 104.684 153.191C104.809 153.191 104.98 153.168 105.199 153.121V154C104.914 154.078 104.637 154.117 104.367 154.117C103.883 154.117 103.518 153.971 103.271 153.678C103.025 153.385 102.902 152.969 102.902 152.43V148.498H101.748V147.66H102.902V146.125H103.986ZM107.525 148.428C108.006 147.838 108.631 147.543 109.4 147.543C110.74 147.543 111.416 148.299 111.428 149.811V154H110.344V149.805C110.34 149.348 110.234 149.01 110.027 148.791C109.824 148.572 109.506 148.463 109.072 148.463C108.721 148.463 108.412 148.557 108.146 148.744C107.881 148.932 107.674 149.178 107.525 149.482V154H106.441V145H107.525V148.428ZM47.291 160.125V161.66H48.4746V162.498H47.291V166.43C47.291 166.684 47.3438 166.875 47.4492 167.004C47.5547 167.129 47.7344 167.191 47.9883 167.191C48.1133 167.191 48.2852 167.168 48.5039 167.121V168C48.2188 168.078 47.9414 168.117 47.6719 168.117C47.1875 168.117 46.8223 167.971 46.5762 167.678C46.3301 167.385 46.207 166.969 46.207 166.43V162.498H45.0527V161.66H46.207V160.125H47.291ZM50.8301 162.428C51.3105 161.838 51.9355 161.543 52.7051 161.543C54.0449 161.543 54.7207 162.299 54.7324 163.811V168H53.6484V163.805C53.6445 163.348 53.5391 163.01 53.332 162.791C53.1289 162.572 52.8105 162.463 52.377 162.463C52.0254 162.463 51.7168 162.557 51.4512 162.744C51.1855 162.932 50.9785 163.178 50.8301 163.482V168H49.7461V159H50.8301V162.428ZM58.9863 168.117C58.127 168.117 57.4277 167.836 56.8887 167.273C56.3496 166.707 56.0801 165.951 56.0801 165.006V164.807C56.0801 164.178 56.1992 163.617 56.4375 163.125C56.6797 162.629 57.0156 162.242 57.4453 161.965C57.8789 161.684 58.3477 161.543 58.8516 161.543C59.6758 161.543 60.3164 161.814 60.7734 162.357C61.2305 162.9 61.459 163.678 61.459 164.689V165.141H57.1641C57.1797 165.766 57.3613 166.271 57.709 166.658C58.0605 167.041 58.5059 167.232 59.0449 167.232C59.4277 167.232 59.752 167.154 60.0176 166.998C60.2832 166.842 60.5156 166.635 60.7148 166.377L61.377 166.893C60.8457 167.709 60.0488 168.117 58.9863 168.117ZM58.8516 162.434C58.4141 162.434 58.0469 162.594 57.75 162.914C57.4531 163.23 57.2695 163.676 57.1992 164.25H60.375V164.168C60.3438 163.617 60.1953 163.191 59.9297 162.891C59.6641 162.586 59.3047 162.434 58.8516 162.434ZM66.7207 161.66L66.7559 162.457C67.2402 161.848 67.873 161.543 68.6543 161.543C69.9941 161.543 70.6699 162.299 70.6816 163.811V168H69.5977V163.805C69.5938 163.348 69.4883 163.01 69.2812 162.791C69.0781 162.572 68.7598 162.463 68.3262 162.463C67.9746 162.463 67.666 162.557 67.4004 162.744C67.1348 162.932 66.9277 163.178 66.7793 163.482V168H65.6953V161.66H66.7207ZM76.2305 168C76.168 167.875 76.1172 167.652 76.0781 167.332C75.5742 167.855 74.9727 168.117 74.2734 168.117C73.6484 168.117 73.1348 167.941 72.7324 167.59C72.334 167.234 72.1348 166.785 72.1348 166.242C72.1348 165.582 72.3848 165.07 72.8848 164.707C73.3887 164.34 74.0957 164.156 75.0059 164.156H76.0605V163.658C76.0605 163.279 75.9473 162.979 75.7207 162.756C75.4941 162.529 75.1602 162.416 74.7188 162.416C74.332 162.416 74.0078 162.514 73.7461 162.709C73.4844 162.904 73.3535 163.141 73.3535 163.418H72.2637C72.2637 163.102 72.375 162.797 72.5977 162.504C72.8242 162.207 73.1289 161.973 73.5117 161.801C73.8984 161.629 74.3223 161.543 74.7832 161.543C75.5137 161.543 76.0859 161.727 76.5 162.094C76.9141 162.457 77.1289 162.959 77.1445 163.6V166.518C77.1445 167.1 77.2188 167.562 77.3672 167.906V168H76.2305ZM74.4316 167.174C74.7715 167.174 75.0938 167.086 75.3984 166.91C75.7031 166.734 75.9238 166.506 76.0605 166.225V164.924H75.2109C73.8828 164.924 73.2188 165.312 73.2188 166.09C73.2188 166.43 73.332 166.695 73.5586 166.887C73.7852 167.078 74.0762 167.174 74.4316 167.174ZM79.8633 161.66L79.8926 162.363C80.3574 161.816 80.9844 161.543 81.7734 161.543C82.6602 161.543 83.2637 161.883 83.584 162.562C83.7949 162.258 84.0684 162.012 84.4043 161.824C84.7441 161.637 85.1445 161.543 85.6055 161.543C86.9961 161.543 87.7031 162.279 87.7266 163.752V168H86.6426V163.816C86.6426 163.363 86.5391 163.025 86.332 162.803C86.125 162.576 85.7773 162.463 85.2891 162.463C84.8867 162.463 84.5527 162.584 84.2871 162.826C84.0215 163.064 83.8672 163.387 83.8242 163.793V168H82.7344V163.846C82.7344 162.924 82.2832 162.463 81.3809 162.463C80.6699 162.463 80.1836 162.766 79.9219 163.371V168H78.8379V161.66H79.8633ZM91.998 168.117C91.1387 168.117 90.4395 167.836 89.9004 167.273C89.3613 166.707 89.0918 165.951 89.0918 165.006V164.807C89.0918 164.178 89.2109 163.617 89.4492 163.125C89.6914 162.629 90.0273 162.242 90.457 161.965C90.8906 161.684 91.3594 161.543 91.8633 161.543C92.6875 161.543 93.3281 161.814 93.7852 162.357C94.2422 162.9 94.4707 163.678 94.4707 164.689V165.141H90.1758C90.1914 165.766 90.373 166.271 90.7207 166.658C91.0723 167.041 91.5176 167.232 92.0566 167.232C92.4395 167.232 92.7637 167.154 93.0293 166.998C93.2949 166.842 93.5273 166.635 93.7266 166.377L94.3887 166.893C93.8574 167.709 93.0605 168.117 91.998 168.117ZM91.8633 162.434C91.4258 162.434 91.0586 162.594 90.7617 162.914C90.4648 163.23 90.2812 163.676 90.2109 164.25H93.3867V164.168C93.3555 163.617 93.207 163.191 92.9414 162.891C92.6758 162.586 92.3164 162.434 91.8633 162.434ZM45.72 177.168H46.488L46.572 177.936H46.608C46.752 177.664 46.92 177.444 47.112 177.276C47.312 177.108 47.58 177.024 47.916 177.024C48.508 177.024 48.876 177.36 49.02 178.032C49.196 177.728 49.388 177.484 49.596 177.3C49.804 177.116 50.072 177.024 50.4 177.024C50.808 177.024 51.12 177.18 51.336 177.492C51.56 177.796 51.672 178.24 51.672 178.824V183H50.724V178.908C50.724 178.22 50.512 177.876 50.088 177.876C49.88 177.876 49.7 177.952 49.548 178.104C49.396 178.248 49.244 178.472 49.092 178.776V183H48.3V178.908C48.3 178.22 48.08 177.876 47.64 177.876C47.432 177.876 47.256 177.952 47.112 178.104C46.968 178.248 46.82 178.472 46.668 178.776V183H45.72V177.168ZM53.2033 184.608C53.2833 184.632 53.3673 184.652 53.4553 184.668C53.5513 184.684 53.6433 184.692 53.7313 184.692C54.1393 184.692 54.4713 184.572 54.7273 184.332C54.9833 184.1 55.1833 183.804 55.3273 183.444L55.5073 183.012L52.7833 177.168H53.7793L55.2073 180.396C55.3193 180.652 55.4353 180.928 55.5553 181.224C55.6833 181.52 55.8073 181.808 55.9273 182.088H55.9753C56.0793 181.808 56.1833 181.524 56.2873 181.236C56.3993 180.94 56.5033 180.66 56.5993 180.396L57.8713 177.168H58.8073L56.2393 183.48C56.1273 183.768 55.9993 184.036 55.8553 184.284C55.7113 184.532 55.5393 184.744 55.3393 184.92C55.1393 185.104 54.9073 185.248 54.6433 185.352C54.3873 185.456 54.0953 185.508 53.7673 185.508C53.4793 185.508 53.2233 185.468 52.9993 185.388L53.2033 184.608ZM65.8706 183.828V184.68H60.1106V183.828H65.8706ZM67.6659 177.168H71.3619V183H70.3779V177.972H67.6659V177.168ZM70.7619 175.968C70.5299 175.968 70.3379 175.9 70.1859 175.764C70.0419 175.628 69.9699 175.444 69.9699 175.212C69.9699 174.98 70.0419 174.796 70.1859 174.66C70.3379 174.516 70.5299 174.444 70.7619 174.444C70.9859 174.444 71.1739 174.516 71.3259 174.66C71.4779 174.796 71.5539 174.98 71.5539 175.212C71.5539 175.444 71.4779 175.628 71.3259 175.764C71.1739 175.9 70.9859 175.968 70.7619 175.968ZM74.8973 177.168H75.7133L75.7973 178.164H75.8453C76.1493 177.836 76.4773 177.564 76.8293 177.348C77.1813 177.132 77.5853 177.024 78.0413 177.024C78.7373 177.024 79.2453 177.224 79.5653 177.624C79.8933 178.016 80.0573 178.6 80.0573 179.376V183H79.0733V179.508C79.0733 178.956 78.9693 178.548 78.7613 178.284C78.5533 178.012 78.2093 177.876 77.7293 177.876C77.5533 177.876 77.3893 177.9 77.2373 177.948C77.0933 177.988 76.9493 178.052 76.8053 178.14C76.6613 178.228 76.5133 178.34 76.3613 178.476C76.2093 178.604 76.0493 178.756 75.8813 178.932V183H74.8973V177.168ZM83.4486 177.972H81.8046V177.228L83.4846 177.168L83.6166 175.536H84.4326V177.168H87.3006V177.972H84.4326V180.744C84.4326 181.008 84.4566 181.24 84.5046 181.44C84.5526 181.632 84.6326 181.796 84.7446 181.932C84.8566 182.068 85.0086 182.172 85.2006 182.244C85.3926 182.308 85.6286 182.34 85.9086 182.34C86.1886 182.34 86.4406 182.316 86.6646 182.268C86.8886 182.22 87.1046 182.156 87.3126 182.076L87.5286 182.796C87.2646 182.892 86.9726 182.972 86.6526 183.036C86.3326 183.108 86.0126 183.144 85.6926 183.144C85.2686 183.144 84.9126 183.088 84.6246 182.976C84.3366 182.856 84.1046 182.692 83.9286 182.484C83.7606 182.268 83.6366 182.012 83.5566 181.716C83.4846 181.42 83.4486 181.092 83.4486 180.732V177.972Z" fill="black"/>
</svg>
