<svg width="400" height="168" viewBox="0 0 400 168" fill="none" xmlns="http://www.w3.org/2000/svg">
<rect width="400" height="168" fill="white"/>
<rect x="113.5" y="30.5" width="174" height="125" stroke="black"/>
<path d="M174.979 20H172.996V12.6035H174.979V20ZM172.88 10.6895C172.88 10.3932 172.978 10.1494 173.174 9.95801C173.374 9.7666 173.646 9.6709 173.987 9.6709C174.325 9.6709 174.593 9.7666 174.794 9.95801C174.994 10.1494 175.095 10.3932 175.095 10.6895C175.095 10.9902 174.992 11.2363 174.787 11.4277C174.587 11.6191 174.32 11.7148 173.987 11.7148C173.655 11.7148 173.386 11.6191 173.181 11.4277C172.98 11.2363 172.88 10.9902 172.88 10.6895ZM178.431 12.6035L178.492 13.458C179.021 12.7972 179.729 12.4668 180.618 12.4668C181.402 12.4668 181.985 12.6969 182.368 13.1572C182.751 13.6175 182.947 14.3057 182.956 15.2217V20H180.98V15.2695C180.98 14.8503 180.889 14.5472 180.707 14.3604C180.525 14.1689 180.222 14.0732 179.798 14.0732C179.242 14.0732 178.825 14.3102 178.547 14.7842V20H176.571V12.6035H178.431ZM188.466 17.9561C188.466 17.7145 188.345 17.5254 188.104 17.3887C187.867 17.2474 187.484 17.1221 186.955 17.0127C185.196 16.6436 184.316 15.8962 184.316 14.7705C184.316 14.1143 184.588 13.5674 185.13 13.1299C185.677 12.6878 186.39 12.4668 187.27 12.4668C188.208 12.4668 188.958 12.6878 189.519 13.1299C190.084 13.5719 190.366 14.1462 190.366 14.8525H188.391C188.391 14.57 188.299 14.3376 188.117 14.1553C187.935 13.9684 187.65 13.875 187.263 13.875C186.93 13.875 186.673 13.9502 186.49 14.1006C186.308 14.251 186.217 14.4424 186.217 14.6748C186.217 14.8936 186.319 15.0713 186.524 15.208C186.734 15.3402 187.085 15.4564 187.577 15.5566C188.069 15.6523 188.484 15.7617 188.821 15.8848C189.865 16.2676 190.387 16.9307 190.387 17.874C190.387 18.5485 190.097 19.0954 189.519 19.5146C188.94 19.9294 188.192 20.1367 187.276 20.1367C186.657 20.1367 186.105 20.0273 185.622 19.8086C185.144 19.5853 184.768 19.2822 184.494 18.8994C184.221 18.512 184.084 18.0951 184.084 17.6484H185.957C185.975 17.9993 186.105 18.2682 186.347 18.4551C186.588 18.6419 186.912 18.7354 187.317 18.7354C187.696 18.7354 187.98 18.6647 188.172 18.5234C188.368 18.3776 188.466 18.1885 188.466 17.9561ZM194.03 10.7852V12.6035H195.295V14.0527H194.03V17.7441C194.03 18.0176 194.083 18.2135 194.188 18.332C194.292 18.4505 194.493 18.5098 194.789 18.5098C195.008 18.5098 195.201 18.4938 195.37 18.4619V19.959C194.983 20.0775 194.584 20.1367 194.174 20.1367C192.788 20.1367 192.082 19.4372 192.055 18.0381V14.0527H190.975V12.6035H192.055V10.7852H194.03ZM200.682 20C200.59 19.8223 200.524 19.6012 200.483 19.3369C200.005 19.8701 199.383 20.1367 198.617 20.1367C197.893 20.1367 197.291 19.9271 196.812 19.5078C196.339 19.0885 196.102 18.5599 196.102 17.9219C196.102 17.138 196.391 16.5365 196.97 16.1172C197.553 15.6979 198.394 15.486 199.492 15.4814H200.401V15.0576C200.401 14.7158 200.312 14.4424 200.135 14.2373C199.962 14.0322 199.686 13.9297 199.308 13.9297C198.975 13.9297 198.713 14.0094 198.521 14.1689C198.335 14.3285 198.241 14.5472 198.241 14.8252H196.266C196.266 14.3968 196.398 14.0003 196.662 13.6357C196.926 13.2712 197.3 12.9863 197.783 12.7812C198.266 12.5716 198.809 12.4668 199.41 12.4668C200.322 12.4668 201.044 12.6969 201.577 13.1572C202.115 13.613 202.384 14.2555 202.384 15.085V18.291C202.388 18.9928 202.486 19.5238 202.678 19.8838V20H200.682ZM199.048 18.626C199.34 18.626 199.608 18.5622 199.854 18.4346C200.101 18.3024 200.283 18.127 200.401 17.9082V16.6367H199.663C198.674 16.6367 198.148 16.9785 198.084 17.6621L198.077 17.7783C198.077 18.0244 198.164 18.2272 198.337 18.3867C198.51 18.5462 198.747 18.626 199.048 18.626ZM205.72 12.6035L205.781 13.458C206.31 12.7972 207.019 12.4668 207.907 12.4668C208.691 12.4668 209.274 12.6969 209.657 13.1572C210.04 13.6175 210.236 14.3057 210.245 15.2217V20H208.27V15.2695C208.27 14.8503 208.178 14.5472 207.996 14.3604C207.814 14.1689 207.511 14.0732 207.087 14.0732C206.531 14.0732 206.114 14.3102 205.836 14.7842V20H203.86V12.6035H205.72ZM214.825 18.5439C215.19 18.5439 215.486 18.4437 215.714 18.2432C215.942 18.0426 216.06 17.776 216.069 17.4434H217.922C217.917 17.9447 217.781 18.4049 217.512 18.8242C217.243 19.2389 216.874 19.5625 216.404 19.7949C215.939 20.0228 215.424 20.1367 214.859 20.1367C213.802 20.1367 212.968 19.8018 212.357 19.1318C211.747 18.4574 211.441 17.5277 211.441 16.3428V16.2129C211.441 15.0736 211.744 14.1644 212.351 13.4854C212.957 12.8063 213.788 12.4668 214.846 12.4668C215.771 12.4668 216.511 12.7311 217.067 13.2598C217.628 13.7839 217.913 14.4834 217.922 15.3584H216.069C216.06 14.9756 215.942 14.6657 215.714 14.4287C215.486 14.1872 215.185 14.0664 214.812 14.0664C214.351 14.0664 214.003 14.235 213.766 14.5723C213.533 14.9049 213.417 15.4473 213.417 16.1992V16.4043C213.417 17.1654 213.533 17.7122 213.766 18.0449C213.998 18.3776 214.351 18.5439 214.825 18.5439ZM222.454 20.1367C221.369 20.1367 220.485 19.804 219.802 19.1387C219.123 18.4733 218.783 17.5869 218.783 16.4795V16.2881C218.783 15.5452 218.927 14.8822 219.214 14.2988C219.501 13.7109 219.907 13.2598 220.431 12.9453C220.959 12.6263 221.561 12.4668 222.235 12.4668C223.247 12.4668 224.042 12.7858 224.621 13.4238C225.204 14.0618 225.496 14.9665 225.496 16.1377V16.9443H220.786C220.85 17.4274 221.041 17.8148 221.36 18.1064C221.684 18.3981 222.092 18.5439 222.584 18.5439C223.345 18.5439 223.94 18.2682 224.368 17.7168L225.339 18.8037C225.043 19.223 224.642 19.5511 224.136 19.7881C223.63 20.0205 223.069 20.1367 222.454 20.1367ZM222.229 14.0664C221.837 14.0664 221.518 14.1986 221.271 14.4629C221.03 14.7272 220.875 15.1055 220.807 15.5977H223.555V15.4404C223.546 15.0029 223.427 14.6657 223.199 14.4287C222.971 14.1872 222.648 14.0664 222.229 14.0664Z" fill="black"/>
<path d="M157.31 66V59.5811H156.141V58.6035H157.31V57.9746C157.31 57.1497 157.544 56.5072 158.014 56.0469C158.488 55.5866 159.155 55.3564 160.017 55.3564C160.527 55.3564 161.172 55.4954 161.951 55.7734L161.739 56.8398C161.17 56.612 160.627 56.498 160.112 56.498C159.57 56.498 159.178 56.6211 158.937 56.8672C158.7 57.1087 158.581 57.4733 158.581 57.9609V58.6035H160.092V59.5811H158.581V66H157.31ZM162.58 66H161.309V58.6035H162.58V66ZM168.213 59.7383C168.021 59.7064 167.814 59.6904 167.591 59.6904C166.761 59.6904 166.199 60.0436 165.902 60.75V66H164.638V58.6035H165.868L165.889 59.458C166.303 58.7972 166.891 58.4668 167.652 58.4668C167.898 58.4668 168.085 58.4987 168.213 58.5625V59.7383ZM173.688 64.0381C173.688 63.6963 173.559 63.432 173.299 63.2451C173.044 63.0537 172.595 62.8896 171.952 62.7529C171.314 62.6162 170.806 62.4521 170.428 62.2607C170.054 62.0693 169.776 61.8415 169.594 61.5771C169.416 61.3128 169.327 60.9984 169.327 60.6338C169.327 60.0277 169.582 59.515 170.093 59.0957C170.608 58.6764 171.264 58.4668 172.062 58.4668C172.9 58.4668 173.579 58.6833 174.099 59.1162C174.623 59.5492 174.885 60.1029 174.885 60.7773H173.613C173.613 60.431 173.465 60.1325 173.169 59.8818C172.877 59.6312 172.508 59.5059 172.062 59.5059C171.601 59.5059 171.241 59.6061 170.981 59.8066C170.722 60.0072 170.592 60.2692 170.592 60.5928C170.592 60.8981 170.713 61.1283 170.954 61.2832C171.196 61.4382 171.631 61.5863 172.26 61.7275C172.893 61.8688 173.406 62.0374 173.798 62.2334C174.19 62.4294 174.479 62.6663 174.666 62.9443C174.857 63.2178 174.953 63.5527 174.953 63.9492C174.953 64.61 174.689 65.141 174.16 65.542C173.632 65.9385 172.946 66.1367 172.103 66.1367C171.51 66.1367 170.986 66.0319 170.53 65.8223C170.075 65.6126 169.717 65.321 169.457 64.9473C169.202 64.569 169.074 64.1611 169.074 63.7236H170.339C170.362 64.1475 170.53 64.4847 170.845 64.7354C171.164 64.9814 171.583 65.1045 172.103 65.1045C172.581 65.1045 172.964 65.0088 173.251 64.8174C173.543 64.6214 173.688 64.3617 173.688 64.0381ZM178.316 56.8125V58.6035H179.697V59.5811H178.316V64.168C178.316 64.4642 178.378 64.6875 178.501 64.8379C178.624 64.9837 178.834 65.0566 179.13 65.0566C179.276 65.0566 179.476 65.0293 179.731 64.9746V66C179.399 66.0911 179.075 66.1367 178.761 66.1367C178.196 66.1367 177.77 65.9658 177.482 65.624C177.195 65.2822 177.052 64.7969 177.052 64.168V59.5811H175.705V58.6035H177.052V56.8125H178.316ZM186.513 67.0322H180.251V66H186.513V67.0322ZM188.687 58.6035L188.721 59.4238C189.263 58.7858 189.994 58.4668 190.915 58.4668C191.95 58.4668 192.654 58.8633 193.027 59.6562C193.273 59.3008 193.592 59.0137 193.984 58.7949C194.381 58.5762 194.848 58.4668 195.386 58.4668C197.008 58.4668 197.833 59.3258 197.86 61.0439V66H196.596V61.1191C196.596 60.5905 196.475 60.1963 196.233 59.9365C195.992 59.6722 195.586 59.54 195.017 59.54C194.547 59.54 194.158 59.6813 193.848 59.9639C193.538 60.2419 193.358 60.6178 193.308 61.0918V66H192.036V61.1533C192.036 60.0778 191.51 59.54 190.457 59.54C189.628 59.54 189.06 59.8932 188.755 60.5996V66H187.49V58.6035H188.687ZM202.844 66.1367C201.841 66.1367 201.025 65.8086 200.396 65.1523C199.768 64.4915 199.453 63.6097 199.453 62.5068V62.2744C199.453 61.5407 199.592 60.8867 199.87 60.3125C200.153 59.7337 200.545 59.2826 201.046 58.959C201.552 58.6309 202.099 58.4668 202.687 58.4668C203.648 58.4668 204.396 58.7835 204.929 59.417C205.462 60.0505 205.729 60.9574 205.729 62.1377V62.6641H200.718C200.736 63.3932 200.948 63.9834 201.354 64.4346C201.764 64.8812 202.283 65.1045 202.912 65.1045C203.359 65.1045 203.737 65.0133 204.047 64.8311C204.357 64.6488 204.628 64.4072 204.86 64.1064L205.633 64.708C205.013 65.6605 204.083 66.1367 202.844 66.1367ZM202.687 59.5059C202.176 59.5059 201.748 59.6927 201.401 60.0664C201.055 60.4355 200.841 60.9551 200.759 61.625H204.464V61.5293C204.427 60.8867 204.254 60.39 203.944 60.0391C203.634 59.6836 203.215 59.5059 202.687 59.5059ZM208.914 56.8125V58.6035H210.295V59.5811H208.914V64.168C208.914 64.4642 208.976 64.6875 209.099 64.8379C209.222 64.9837 209.431 65.0566 209.728 65.0566C209.873 65.0566 210.074 65.0293 210.329 64.9746V66C209.996 66.0911 209.673 66.1367 209.358 66.1367C208.793 66.1367 208.367 65.9658 208.08 65.624C207.793 65.2822 207.649 64.7969 207.649 64.168V59.5811H206.303V58.6035H207.649V56.8125H208.914ZM213.043 59.499C213.604 58.8109 214.333 58.4668 215.23 58.4668C216.794 58.4668 217.582 59.3486 217.596 61.1123V66H216.331V61.1055C216.326 60.5723 216.203 60.1781 215.962 59.9229C215.725 59.6676 215.354 59.54 214.848 59.54C214.438 59.54 214.077 59.6494 213.768 59.8682C213.458 60.0869 213.216 60.374 213.043 60.7295V66H211.778V55.5H213.043V59.499ZM219.154 62.2334C219.154 61.5088 219.296 60.8571 219.578 60.2783C219.865 59.6995 220.262 59.2529 220.768 58.9385C221.278 58.624 221.859 58.4668 222.511 58.4668C223.518 58.4668 224.331 58.8154 224.951 59.5127C225.576 60.21 225.888 61.1374 225.888 62.2949V62.3838C225.888 63.1038 225.749 63.751 225.471 64.3252C225.197 64.8949 224.803 65.3392 224.288 65.6582C223.778 65.9772 223.19 66.1367 222.524 66.1367C221.522 66.1367 220.708 65.7881 220.084 65.0908C219.464 64.3936 219.154 63.4707 219.154 62.3223V62.2334ZM220.426 62.3838C220.426 63.2041 220.615 63.8626 220.993 64.3594C221.376 64.8561 221.886 65.1045 222.524 65.1045C223.167 65.1045 223.677 64.8538 224.056 64.3525C224.434 63.8467 224.623 63.1403 224.623 62.2334C224.623 61.4222 224.429 60.766 224.042 60.2646C223.659 59.7588 223.149 59.5059 222.511 59.5059C221.886 59.5059 221.383 59.7542 221 60.251C220.617 60.7477 220.426 61.4587 220.426 62.3838ZM227.166 62.2402C227.166 61.1055 227.435 60.194 227.973 59.5059C228.51 58.8132 229.215 58.4668 230.085 58.4668C230.951 58.4668 231.637 58.763 232.143 59.3555V55.5H233.407V66H232.245L232.184 65.207C231.678 65.8268 230.974 66.1367 230.071 66.1367C229.215 66.1367 228.515 65.7858 227.973 65.084C227.435 64.3822 227.166 63.4661 227.166 62.3359V62.2402ZM228.431 62.3838C228.431 63.2223 228.604 63.8786 228.95 64.3525C229.297 64.8265 229.775 65.0635 230.386 65.0635C231.188 65.0635 231.773 64.7035 232.143 63.9834V60.5859C231.764 59.8887 231.183 59.54 230.399 59.54C229.78 59.54 229.297 59.7793 228.95 60.2578C228.604 60.7363 228.431 61.445 228.431 62.3838ZM235.328 61.96C235.328 60.93 235.465 59.9411 235.738 58.9932C236.016 58.0452 236.429 57.1839 236.976 56.4092C237.522 55.6344 238.09 55.0876 238.678 54.7686L238.938 55.6025C238.272 56.113 237.725 56.8923 237.297 57.9404C236.873 58.9886 236.641 60.1621 236.6 61.4609L236.593 62.042C236.593 63.8011 236.914 65.3278 237.557 66.6221C237.944 67.3968 238.404 68.0029 238.938 68.4404L238.678 69.2129C238.072 68.8757 237.493 68.3105 236.941 67.5176C235.866 65.9681 235.328 64.1156 235.328 61.96ZM243.08 62.0283C243.08 63.0446 242.946 64.0199 242.677 64.9541C242.412 65.8838 242.005 66.7428 241.453 67.5312C240.906 68.3197 240.332 68.8802 239.73 69.2129L239.464 68.4404C240.166 67.9027 240.729 67.0687 241.152 65.9385C241.581 64.8037 241.799 63.5459 241.809 62.165V61.9463C241.809 60.9893 241.708 60.1006 241.508 59.2803C241.307 58.4554 241.027 57.7171 240.667 57.0654C240.312 56.4137 239.91 55.9056 239.464 55.541L239.73 54.7686C240.332 55.1012 240.904 55.6572 241.446 56.4365C241.993 57.2158 242.401 58.0749 242.67 59.0137C242.943 59.9525 243.08 60.9574 243.08 62.0283Z" fill="black"/>
<path d="M141 74H259V141H141V74Z" fill="#F1F4F8"/>
<path d="M150.376 102.48V104.328H148.984V96.108H150.124L150.232 96.78H150.268C150.524 96.548 150.816 96.356 151.144 96.204C151.48 96.044 151.816 95.964 152.152 95.964C152.536 95.964 152.876 96.036 153.172 96.18C153.476 96.316 153.728 96.516 153.928 96.78C154.136 97.044 154.292 97.36 154.396 97.728C154.508 98.096 154.564 98.508 154.564 98.964C154.564 99.468 154.492 99.92 154.348 100.32C154.204 100.712 154.008 101.044 153.76 101.316C153.52 101.58 153.24 101.784 152.92 101.928C152.608 102.072 152.284 102.144 151.948 102.144C151.676 102.144 151.396 102.084 151.108 101.964C150.828 101.844 150.568 101.672 150.328 101.448L150.376 102.48ZM150.376 100.464C150.592 100.664 150.812 100.804 151.036 100.884C151.268 100.964 151.476 101.004 151.66 101.004C152.084 101.004 152.436 100.836 152.716 100.5C152.996 100.156 153.136 99.648 153.136 98.976C153.136 98.384 153.028 97.924 152.812 97.596C152.596 97.268 152.248 97.104 151.768 97.104C151.544 97.104 151.316 97.16 151.084 97.272C150.852 97.384 150.616 97.564 150.376 97.812V100.464ZM156.755 96.108H157.895L158.015 97.44H158.051C158.355 96.96 158.719 96.596 159.143 96.348C159.575 96.092 160.047 95.964 160.559 95.964C160.799 95.964 161.003 95.984 161.171 96.024C161.347 96.056 161.523 96.116 161.699 96.204L161.411 97.368C161.219 97.304 161.047 97.26 160.895 97.236C160.751 97.204 160.567 97.188 160.343 97.188C159.935 97.188 159.543 97.304 159.167 97.536C158.791 97.768 158.451 98.172 158.147 98.748V102H156.755V96.108ZM163.399 96.108H167.335V102H165.955V97.2H163.399V96.108ZM166.543 95.076C166.263 95.076 166.027 94.992 165.835 94.824C165.651 94.656 165.559 94.432 165.559 94.152C165.559 93.872 165.651 93.648 165.835 93.48C166.027 93.304 166.263 93.216 166.543 93.216C166.831 93.216 167.067 93.304 167.251 93.48C167.435 93.648 167.527 93.872 167.527 94.152C167.527 94.432 167.435 94.656 167.251 94.824C167.067 94.992 166.831 95.076 166.543 95.076ZM170.57 96.108H171.71L171.818 96.996H171.866C172.146 96.716 172.454 96.476 172.79 96.276C173.134 96.068 173.534 95.964 173.99 95.964C174.67 95.964 175.17 96.172 175.49 96.588C175.81 96.996 175.97 97.584 175.97 98.352V102H174.578V98.532C174.578 98.052 174.494 97.704 174.326 97.488C174.166 97.264 173.882 97.152 173.474 97.152C173.186 97.152 172.93 97.22 172.706 97.356C172.482 97.492 172.234 97.7 171.962 97.98V102H170.57V96.108ZM179.061 97.2H177.489V96.168L179.121 96.108L179.301 94.5H180.441V96.108H183.129V97.2H180.441V99.624C180.441 100.112 180.541 100.472 180.741 100.704C180.941 100.928 181.293 101.04 181.797 101.04C182.053 101.04 182.285 101.02 182.493 100.98C182.701 100.932 182.901 100.872 183.093 100.8L183.357 101.808C183.093 101.896 182.801 101.972 182.481 102.036C182.161 102.108 181.821 102.144 181.461 102.144C181.013 102.144 180.637 102.084 180.333 101.964C180.029 101.844 179.781 101.676 179.589 101.46C179.405 101.236 179.269 100.968 179.181 100.656C179.101 100.344 179.061 100 179.061 99.624V97.2ZM188.921 104.124C188.113 103.452 187.473 102.66 187.001 101.748C186.537 100.836 186.305 99.808 186.305 98.664C186.305 97.52 186.537 96.492 187.001 95.58C187.473 94.668 188.113 93.876 188.921 93.204L189.689 93.84C188.929 94.528 188.373 95.26 188.021 96.036C187.669 96.812 187.493 97.688 187.493 98.664C187.493 99.64 187.669 100.516 188.021 101.292C188.373 102.068 188.929 102.8 189.689 103.488L188.921 104.124ZM243.027 103.488C243.787 102.8 244.343 102.068 244.695 101.292C245.047 100.516 245.223 99.64 245.223 98.664C245.223 97.688 245.047 96.812 244.695 96.036C244.343 95.26 243.787 94.528 243.027 93.84L243.795 93.204C244.603 93.876 245.239 94.668 245.703 95.58C246.175 96.492 246.411 97.52 246.411 98.664C246.411 99.808 246.175 100.836 245.703 101.748C245.239 102.66 244.603 103.452 243.795 104.124L243.027 103.488Z" fill="#2E383C"/>
<path d="M192.492 95.304L192.456 93.768H194.136L194.1 95.304L193.74 98.076H192.852L192.492 95.304ZM195.456 95.304L195.42 93.768H197.1L197.064 95.304L196.704 98.076H195.816L195.456 95.304ZM199.351 93.528H200.743V95.712L200.659 96.972C200.931 96.7 201.235 96.464 201.571 96.264C201.915 96.064 202.315 95.964 202.771 95.964C203.451 95.964 203.951 96.172 204.271 96.588C204.591 96.996 204.751 97.584 204.751 98.352V102H203.359V98.532C203.359 98.052 203.275 97.704 203.107 97.488C202.947 97.264 202.663 97.152 202.255 97.152C201.967 97.152 201.711 97.22 201.487 97.356C201.263 97.492 201.015 97.7 200.743 97.98V102H199.351V93.528ZM206.307 99.06C206.307 98.58 206.391 98.148 206.559 97.764C206.735 97.38 206.963 97.056 207.243 96.792C207.523 96.52 207.843 96.316 208.203 96.18C208.571 96.036 208.947 95.964 209.331 95.964C209.771 95.964 210.159 96.036 210.495 96.18C210.839 96.316 211.127 96.508 211.359 96.756C211.591 96.996 211.767 97.288 211.887 97.632C212.007 97.976 212.067 98.352 212.067 98.76C212.067 98.896 212.059 99.024 212.043 99.144C212.035 99.264 212.023 99.36 212.007 99.432H207.723C207.771 99.96 207.979 100.368 208.347 100.656C208.715 100.936 209.167 101.076 209.703 101.076C210.007 101.076 210.291 101.036 210.555 100.956C210.819 100.868 211.087 100.748 211.359 100.596L211.827 101.46C211.507 101.66 211.151 101.824 210.759 101.952C210.367 102.08 209.955 102.144 209.523 102.144C209.075 102.144 208.655 102.076 208.263 101.94C207.871 101.796 207.531 101.592 207.243 101.328C206.955 101.064 206.727 100.744 206.559 100.368C206.391 99.984 206.307 99.548 206.307 99.06ZM210.795 98.496C210.795 98.04 210.675 97.684 210.435 97.428C210.195 97.164 209.839 97.032 209.367 97.032C208.967 97.032 208.611 97.156 208.299 97.404C207.987 97.652 207.791 98.016 207.711 98.496H210.795ZM213.61 93.528H216.85V99.924C216.85 100.324 216.95 100.608 217.15 100.776C217.35 100.936 217.602 101.016 217.906 101.016C218.194 101.016 218.53 100.94 218.914 100.788L219.238 101.808C218.958 101.904 218.694 101.984 218.446 102.048C218.206 102.112 217.914 102.144 217.57 102.144C216.874 102.144 216.35 101.944 215.998 101.544C215.646 101.144 215.47 100.58 215.47 99.852V94.62H213.61V93.528ZM220.805 93.528H224.045V99.924C224.045 100.324 224.145 100.608 224.345 100.776C224.545 100.936 224.797 101.016 225.101 101.016C225.389 101.016 225.725 100.94 226.109 100.788L226.433 101.808C226.153 101.904 225.889 101.984 225.641 102.048C225.401 102.112 225.109 102.144 224.765 102.144C224.069 102.144 223.545 101.944 223.193 101.544C222.841 101.144 222.665 100.58 222.665 99.852V94.62H220.805V93.528ZM227.784 99.06C227.784 98.572 227.864 98.136 228.024 97.752C228.192 97.368 228.412 97.044 228.684 96.78C228.956 96.516 229.272 96.316 229.632 96.18C229.992 96.036 230.364 95.964 230.748 95.964C231.132 95.964 231.504 96.036 231.864 96.18C232.224 96.316 232.54 96.516 232.812 96.78C233.084 97.044 233.3 97.368 233.46 97.752C233.628 98.136 233.712 98.572 233.712 99.06C233.712 99.548 233.628 99.984 233.46 100.368C233.3 100.752 233.084 101.076 232.812 101.34C232.54 101.604 232.224 101.804 231.864 101.94C231.504 102.076 231.132 102.144 230.748 102.144C230.364 102.144 229.992 102.076 229.632 101.94C229.272 101.804 228.956 101.604 228.684 101.34C228.412 101.076 228.192 100.752 228.024 100.368C227.864 99.984 227.784 99.548 227.784 99.06ZM229.212 99.06C229.212 99.652 229.348 100.128 229.62 100.488C229.892 100.84 230.268 101.016 230.748 101.016C231.228 101.016 231.604 100.84 231.876 100.488C232.148 100.128 232.284 99.652 232.284 99.06C232.284 98.46 232.148 97.984 231.876 97.632C231.604 97.272 231.228 97.092 230.748 97.092C230.268 97.092 229.892 97.272 229.62 97.632C229.348 97.984 229.212 98.46 229.212 99.06ZM235.664 95.304L235.628 93.768H237.308L237.272 95.304L236.912 98.076H236.024L235.664 95.304ZM238.628 95.304L238.592 93.768H240.272L240.236 95.304L239.876 98.076H238.988L238.628 95.304Z" fill="#B82629"/>
<rect x="141.5" y="74.6964" width="117" height="65.8036" stroke="black"/>
</svg>
