<svg width="400" height="177" viewBox="0 0 400 177" fill="none" xmlns="http://www.w3.org/2000/svg">
<rect width="400" height="177" fill="white"/>
<path d="M176.96 113.06C177.557 113.646 178.507 113.646 179.081 113.06L188.44 103.516C189.015 102.931 188.996 101.981 188.399 101.395C187.801 100.81 186.852 100.81 186.277 101.395L177.958 109.879L169.307 101.395C168.71 100.81 167.76 100.81 167.185 101.395C166.611 101.981 166.63 102.931 167.227 103.516L176.96 113.06ZM175.5 61L176.5 112L179.5 112L178.5 61L175.5 61Z" fill="#0072B2"/>
<path d="M68 10H286.571V51H68V10Z" fill="#F1F4F8"/>
<path d="M75.1412 26.108H79.0772V32H77.6972V27.2H75.1412V26.108ZM78.2852 25.076C78.0052 25.076 77.7692 24.992 77.5772 24.824C77.3932 24.656 77.3012 24.432 77.3012 24.152C77.3012 23.872 77.3932 23.648 77.5772 23.48C77.7692 23.304 78.0052 23.216 78.2852 23.216C78.5732 23.216 78.8092 23.304 78.9932 23.48C79.1772 23.648 79.2692 23.872 79.2692 24.152C79.2692 24.432 79.1772 24.656 78.9932 24.824C78.8092 24.992 78.5732 25.076 78.2852 25.076ZM82.3125 26.108H83.4525L83.5605 26.996H83.6085C83.8885 26.716 84.1965 26.476 84.5325 26.276C84.8765 26.068 85.2765 25.964 85.7325 25.964C86.4125 25.964 86.9125 26.172 87.2325 26.588C87.5525 26.996 87.7125 27.584 87.7125 28.352V32H86.3205V28.532C86.3205 28.052 86.2365 27.704 86.0685 27.488C85.9085 27.264 85.6245 27.152 85.2165 27.152C84.9285 27.152 84.6725 27.22 84.4485 27.356C84.2245 27.492 83.9765 27.7 83.7045 27.98V32H82.3125V26.108ZM89.9158 30.356C90.2518 30.588 90.5998 30.772 90.9598 30.908C91.3278 31.036 91.7398 31.1 92.1958 31.1C92.6598 31.1 92.9998 31.036 93.2158 30.908C93.4318 30.772 93.5398 30.6 93.5398 30.392C93.5398 30.184 93.3998 30.012 93.1198 29.876C92.8398 29.732 92.3998 29.58 91.7998 29.42C91.5198 29.348 91.2478 29.26 90.9838 29.156C90.7198 29.052 90.4878 28.932 90.2878 28.796C90.0878 28.66 89.9278 28.504 89.8078 28.328C89.6878 28.152 89.6278 27.952 89.6278 27.728C89.6278 27.208 89.8518 26.784 90.2998 26.456C90.7478 26.128 91.3918 25.964 92.2318 25.964C92.7118 25.964 93.1638 26.044 93.5878 26.204C94.0118 26.364 94.3758 26.544 94.6798 26.744L94.0438 27.596C93.7798 27.42 93.4958 27.28 93.1918 27.176C92.8958 27.064 92.5798 27.008 92.2438 27.008C91.7878 27.008 91.4678 27.072 91.2838 27.2C91.0998 27.32 91.0078 27.472 91.0078 27.656C91.0078 27.76 91.0478 27.856 91.1278 27.944C91.2158 28.024 91.3318 28.1 91.4758 28.172C91.6278 28.236 91.8038 28.3 92.0038 28.364C92.2038 28.428 92.4238 28.488 92.6638 28.544C93.0078 28.632 93.3158 28.732 93.5878 28.844C93.8678 28.948 94.1038 29.068 94.2958 29.204C94.4958 29.34 94.6478 29.5 94.7518 29.684C94.8638 29.868 94.9198 30.08 94.9198 30.32C94.9198 30.576 94.8598 30.816 94.7398 31.04C94.6198 31.256 94.4438 31.448 94.2118 31.616C93.9798 31.776 93.6918 31.904 93.3478 32C93.0038 32.096 92.6078 32.144 92.1598 32.144C91.6078 32.144 91.0798 32.056 90.5758 31.88C90.0718 31.704 89.6358 31.488 89.2678 31.232L89.9158 30.356ZM97.9991 27.2H96.4271V26.168L98.0591 26.108L98.2391 24.5H99.3791V26.108H102.067V27.2H99.3791V29.624C99.3791 30.112 99.4791 30.472 99.6791 30.704C99.8791 30.928 100.231 31.04 100.735 31.04C100.991 31.04 101.223 31.02 101.431 30.98C101.639 30.932 101.839 30.872 102.031 30.8L102.295 31.808C102.031 31.896 101.739 31.972 101.419 32.036C101.099 32.108 100.759 32.144 100.399 32.144C99.9511 32.144 99.5751 32.084 99.2711 31.964C98.9671 31.844 98.7191 31.676 98.5271 31.46C98.3431 31.236 98.2071 30.968 98.1191 30.656C98.0391 30.344 97.9991 30 97.9991 29.624V27.2ZM103.766 30.416C103.766 30.088 103.842 29.8 103.994 29.552C104.146 29.296 104.386 29.08 104.714 28.904C105.042 28.728 105.462 28.584 105.974 28.472C106.486 28.36 107.106 28.28 107.834 28.232C107.81 27.896 107.69 27.62 107.474 27.404C107.258 27.188 106.91 27.08 106.43 27.08C106.094 27.08 105.762 27.144 105.434 27.272C105.114 27.392 104.802 27.536 104.498 27.704L103.994 26.78C104.354 26.572 104.766 26.384 105.23 26.216C105.694 26.048 106.178 25.964 106.682 25.964C107.506 25.964 108.134 26.184 108.566 26.624C108.998 27.056 109.214 27.684 109.214 28.508V32H108.086L107.978 31.268H107.942C107.63 31.508 107.282 31.716 106.898 31.892C106.522 32.06 106.134 32.144 105.734 32.144C105.446 32.144 105.182 32.1 104.942 32.012C104.702 31.932 104.494 31.816 104.318 31.664C104.142 31.512 104.006 31.332 103.91 31.124C103.814 30.908 103.766 30.672 103.766 30.416ZM105.098 30.308C105.098 30.572 105.198 30.764 105.398 30.884C105.606 31.004 105.858 31.064 106.154 31.064C106.45 31.064 106.734 31 107.006 30.872C107.286 30.736 107.562 30.56 107.834 30.344V29.096C107.306 29.136 106.866 29.192 106.514 29.264C106.162 29.328 105.882 29.412 105.674 29.516C105.466 29.62 105.318 29.74 105.23 29.876C105.142 30.004 105.098 30.148 105.098 30.308ZM111.094 26.108H112.234L112.342 26.996H112.39C112.67 26.716 112.978 26.476 113.314 26.276C113.658 26.068 114.058 25.964 114.514 25.964C115.194 25.964 115.694 26.172 116.014 26.588C116.334 26.996 116.494 27.584 116.494 28.352V32H115.102V28.532C115.102 28.052 115.018 27.704 114.85 27.488C114.69 27.264 114.406 27.152 113.998 27.152C113.71 27.152 113.454 27.22 113.23 27.356C113.006 27.492 112.758 27.7 112.486 27.98V32H111.094V26.108ZM118.181 29.06C118.181 28.572 118.269 28.136 118.445 27.752C118.629 27.368 118.873 27.044 119.177 26.78C119.481 26.516 119.837 26.316 120.245 26.18C120.653 26.036 121.081 25.964 121.529 25.964C122.009 25.964 122.429 26.044 122.789 26.204C123.157 26.364 123.465 26.56 123.713 26.792L123.053 27.656C122.821 27.472 122.585 27.332 122.345 27.236C122.113 27.14 121.865 27.092 121.601 27.092C121.009 27.092 120.529 27.272 120.161 27.632C119.793 27.984 119.609 28.46 119.609 29.06C119.609 29.356 119.657 29.624 119.753 29.864C119.849 30.104 119.981 30.312 120.149 30.488C120.325 30.656 120.533 30.788 120.773 30.884C121.013 30.972 121.277 31.016 121.565 31.016C121.901 31.016 122.205 30.952 122.477 30.824C122.757 30.696 123.013 30.544 123.245 30.368L123.821 31.256C123.485 31.552 123.109 31.776 122.693 31.928C122.277 32.072 121.857 32.144 121.433 32.144C120.969 32.144 120.537 32.076 120.137 31.94C119.745 31.804 119.401 31.604 119.105 31.34C118.817 31.076 118.589 30.752 118.421 30.368C118.261 29.984 118.181 29.548 118.181 29.06ZM125.244 29.06C125.244 28.58 125.328 28.148 125.496 27.764C125.672 27.38 125.9 27.056 126.18 26.792C126.46 26.52 126.78 26.316 127.14 26.18C127.508 26.036 127.884 25.964 128.268 25.964C128.708 25.964 129.096 26.036 129.432 26.18C129.776 26.316 130.064 26.508 130.296 26.756C130.528 26.996 130.704 27.288 130.824 27.632C130.944 27.976 131.004 28.352 131.004 28.76C131.004 28.896 130.996 29.024 130.98 29.144C130.972 29.264 130.96 29.36 130.944 29.432H126.66C126.708 29.96 126.916 30.368 127.284 30.656C127.652 30.936 128.104 31.076 128.64 31.076C128.944 31.076 129.228 31.036 129.492 30.956C129.756 30.868 130.024 30.748 130.296 30.596L130.764 31.46C130.444 31.66 130.088 31.824 129.696 31.952C129.304 32.08 128.892 32.144 128.46 32.144C128.012 32.144 127.592 32.076 127.2 31.94C126.808 31.796 126.468 31.592 126.18 31.328C125.892 31.064 125.664 30.744 125.496 30.368C125.328 29.984 125.244 29.548 125.244 29.06ZM129.732 28.496C129.732 28.04 129.612 27.684 129.372 27.428C129.132 27.164 128.776 27.032 128.304 27.032C127.904 27.032 127.548 27.156 127.236 27.404C126.924 27.652 126.728 28.016 126.648 28.496H129.732ZM134.108 30.932C134.108 30.58 134.22 30.292 134.444 30.068C134.668 29.836 134.952 29.72 135.296 29.72C135.64 29.72 135.924 29.836 136.148 30.068C136.372 30.292 136.484 30.58 136.484 30.932C136.484 31.284 136.372 31.576 136.148 31.808C135.924 32.032 135.64 32.144 135.296 32.144C134.952 32.144 134.668 32.032 134.444 31.808C134.22 31.576 134.108 31.284 134.108 30.932ZM145.587 24.728C145.371 24.64 145.159 24.576 144.951 24.536C144.751 24.496 144.531 24.476 144.291 24.476C143.835 24.476 143.503 24.588 143.295 24.812C143.095 25.028 142.995 25.344 142.995 25.76V26.108H145.239V27.2H142.995V32H141.627V27.2H139.995V26.168L141.627 26.108V25.784C141.627 25.44 141.675 25.12 141.771 24.824C141.867 24.528 142.015 24.276 142.215 24.068C142.423 23.852 142.683 23.684 142.995 23.564C143.315 23.444 143.691 23.384 144.123 23.384C144.443 23.384 144.747 23.412 145.035 23.468C145.331 23.524 145.611 23.604 145.875 23.708L145.587 24.728ZM147.094 26.108H151.03V32H149.65V27.2H147.094V26.108ZM150.238 25.076C149.958 25.076 149.722 24.992 149.53 24.824C149.346 24.656 149.254 24.432 149.254 24.152C149.254 23.872 149.346 23.648 149.53 23.48C149.722 23.304 149.958 23.216 150.238 23.216C150.526 23.216 150.762 23.304 150.946 23.48C151.13 23.648 151.222 23.872 151.222 24.152C151.222 24.432 151.13 24.656 150.946 24.824C150.762 24.992 150.526 25.076 150.238 25.076ZM154.842 26.108H155.982L156.102 27.44H156.138C156.442 26.96 156.806 26.596 157.23 26.348C157.662 26.092 158.134 25.964 158.646 25.964C158.886 25.964 159.09 25.984 159.258 26.024C159.434 26.056 159.61 26.116 159.786 26.204L159.498 27.368C159.306 27.304 159.134 27.26 158.982 27.236C158.838 27.204 158.654 27.188 158.43 27.188C158.022 27.188 157.63 27.304 157.254 27.536C156.878 27.768 156.538 28.172 156.234 28.748V32H154.842V26.108ZM161.869 30.356C162.205 30.588 162.553 30.772 162.913 30.908C163.281 31.036 163.693 31.1 164.149 31.1C164.613 31.1 164.953 31.036 165.169 30.908C165.385 30.772 165.493 30.6 165.493 30.392C165.493 30.184 165.353 30.012 165.073 29.876C164.793 29.732 164.353 29.58 163.753 29.42C163.473 29.348 163.201 29.26 162.937 29.156C162.673 29.052 162.441 28.932 162.241 28.796C162.041 28.66 161.881 28.504 161.761 28.328C161.641 28.152 161.581 27.952 161.581 27.728C161.581 27.208 161.805 26.784 162.253 26.456C162.701 26.128 163.345 25.964 164.185 25.964C164.665 25.964 165.117 26.044 165.541 26.204C165.965 26.364 166.329 26.544 166.633 26.744L165.997 27.596C165.733 27.42 165.449 27.28 165.145 27.176C164.849 27.064 164.533 27.008 164.197 27.008C163.741 27.008 163.421 27.072 163.237 27.2C163.053 27.32 162.961 27.472 162.961 27.656C162.961 27.76 163.001 27.856 163.081 27.944C163.169 28.024 163.285 28.1 163.429 28.172C163.581 28.236 163.757 28.3 163.957 28.364C164.157 28.428 164.377 28.488 164.617 28.544C164.961 28.632 165.269 28.732 165.541 28.844C165.821 28.948 166.057 29.068 166.249 29.204C166.449 29.34 166.601 29.5 166.705 29.684C166.817 29.868 166.873 30.08 166.873 30.32C166.873 30.576 166.813 30.816 166.693 31.04C166.573 31.256 166.397 31.448 166.165 31.616C165.933 31.776 165.645 31.904 165.301 32C164.957 32.096 164.561 32.144 164.113 32.144C163.561 32.144 163.033 32.056 162.529 31.88C162.025 31.704 161.589 31.488 161.221 31.232L161.869 30.356ZM169.952 27.2H168.38V26.168L170.012 26.108L170.192 24.5H171.332V26.108H174.02V27.2H171.332V29.624C171.332 30.112 171.432 30.472 171.632 30.704C171.832 30.928 172.184 31.04 172.688 31.04C172.944 31.04 173.176 31.02 173.384 30.98C173.592 30.932 173.792 30.872 173.984 30.8L174.248 31.808C173.984 31.896 173.692 31.972 173.372 32.036C173.052 32.108 172.712 32.144 172.352 32.144C171.904 32.144 171.528 32.084 171.224 31.964C170.92 31.844 170.672 31.676 170.48 31.46C170.296 31.236 170.16 30.968 170.072 30.656C169.992 30.344 169.952 30 169.952 29.624V27.2ZM181.348 32.744V33.824H175.588V32.744H181.348ZM182.639 26.108H183.683L183.791 26.864H183.827C183.963 26.608 184.127 26.396 184.319 26.228C184.519 26.052 184.787 25.964 185.123 25.964C185.699 25.964 186.059 26.292 186.203 26.948C186.339 26.668 186.511 26.436 186.719 26.252C186.935 26.06 187.207 25.964 187.535 25.964C187.951 25.964 188.271 26.128 188.495 26.456C188.727 26.776 188.843 27.232 188.843 27.824V32H187.535V27.932C187.535 27.412 187.371 27.152 187.043 27.152C186.883 27.152 186.743 27.212 186.623 27.332C186.503 27.452 186.387 27.636 186.275 27.884V32H185.195V27.932C185.195 27.412 185.027 27.152 184.691 27.152C184.531 27.152 184.395 27.212 184.283 27.332C184.171 27.452 184.059 27.636 183.947 27.884V32H182.639V26.108ZM190.002 29.06C190.002 28.58 190.086 28.148 190.254 27.764C190.43 27.38 190.658 27.056 190.938 26.792C191.218 26.52 191.538 26.316 191.898 26.18C192.266 26.036 192.642 25.964 193.026 25.964C193.466 25.964 193.854 26.036 194.19 26.18C194.534 26.316 194.822 26.508 195.054 26.756C195.286 26.996 195.462 27.288 195.582 27.632C195.702 27.976 195.762 28.352 195.762 28.76C195.762 28.896 195.754 29.024 195.738 29.144C195.73 29.264 195.718 29.36 195.702 29.432H191.418C191.466 29.96 191.674 30.368 192.042 30.656C192.41 30.936 192.862 31.076 193.398 31.076C193.702 31.076 193.986 31.036 194.25 30.956C194.514 30.868 194.782 30.748 195.054 30.596L195.522 31.46C195.202 31.66 194.846 31.824 194.454 31.952C194.062 32.08 193.65 32.144 193.218 32.144C192.77 32.144 192.35 32.076 191.958 31.94C191.566 31.796 191.226 31.592 190.938 31.328C190.65 31.064 190.422 30.744 190.254 30.368C190.086 29.984 190.002 29.548 190.002 29.06ZM194.49 28.496C194.49 28.04 194.37 27.684 194.13 27.428C193.89 27.164 193.534 27.032 193.062 27.032C192.662 27.032 192.306 27.156 191.994 27.404C191.682 27.652 191.486 28.016 191.406 28.496H194.49ZM198.733 27.2H197.161V26.168L198.793 26.108L198.973 24.5H200.113V26.108H202.801V27.2H200.113V29.624C200.113 30.112 200.213 30.472 200.413 30.704C200.613 30.928 200.965 31.04 201.469 31.04C201.725 31.04 201.957 31.02 202.165 30.98C202.373 30.932 202.573 30.872 202.765 30.8L203.029 31.808C202.765 31.896 202.473 31.972 202.153 32.036C201.833 32.108 201.493 32.144 201.133 32.144C200.685 32.144 200.309 32.084 200.005 31.964C199.701 31.844 199.453 31.676 199.261 31.46C199.077 31.236 198.941 30.968 198.853 30.656C198.773 30.344 198.733 30 198.733 29.624V27.2ZM204.633 23.528H206.025V25.712L205.941 26.972C206.213 26.7 206.517 26.464 206.853 26.264C207.197 26.064 207.597 25.964 208.053 25.964C208.733 25.964 209.233 26.172 209.553 26.588C209.873 26.996 210.033 27.584 210.033 28.352V32H208.641V28.532C208.641 28.052 208.557 27.704 208.389 27.488C208.229 27.264 207.945 27.152 207.537 27.152C207.249 27.152 206.993 27.22 206.769 27.356C206.545 27.492 206.297 27.7 206.025 27.98V32H204.633V23.528ZM211.48 29.06C211.48 28.572 211.56 28.136 211.72 27.752C211.888 27.368 212.108 27.044 212.38 26.78C212.652 26.516 212.968 26.316 213.328 26.18C213.688 26.036 214.06 25.964 214.444 25.964C214.828 25.964 215.2 26.036 215.56 26.18C215.92 26.316 216.236 26.516 216.508 26.78C216.78 27.044 216.996 27.368 217.156 27.752C217.324 28.136 217.408 28.572 217.408 29.06C217.408 29.548 217.324 29.984 217.156 30.368C216.996 30.752 216.78 31.076 216.508 31.34C216.236 31.604 215.92 31.804 215.56 31.94C215.2 32.076 214.828 32.144 214.444 32.144C214.06 32.144 213.688 32.076 213.328 31.94C212.968 31.804 212.652 31.604 212.38 31.34C212.108 31.076 211.888 30.752 211.72 30.368C211.56 29.984 211.48 29.548 211.48 29.06ZM212.908 29.06C212.908 29.652 213.044 30.128 213.316 30.488C213.588 30.84 213.964 31.016 214.444 31.016C214.924 31.016 215.3 30.84 215.572 30.488C215.844 30.128 215.98 29.652 215.98 29.06C215.98 28.46 215.844 27.984 215.572 27.632C215.3 27.272 214.924 27.092 214.444 27.092C213.964 27.092 213.588 27.272 213.316 27.632C213.044 27.984 212.908 28.46 212.908 29.06ZM218.675 29.06C218.675 28.58 218.747 28.148 218.891 27.764C219.035 27.38 219.227 27.056 219.467 26.792C219.715 26.528 219.995 26.324 220.307 26.18C220.619 26.036 220.943 25.964 221.279 25.964C221.631 25.964 221.931 26.028 222.179 26.156C222.435 26.276 222.683 26.444 222.923 26.66L222.863 25.664V23.528H224.255V32H223.115L223.007 31.316H222.971C222.739 31.548 222.467 31.744 222.155 31.904C221.851 32.064 221.531 32.144 221.195 32.144C220.819 32.144 220.475 32.076 220.163 31.94C219.851 31.796 219.583 31.592 219.359 31.328C219.143 31.064 218.975 30.744 218.855 30.368C218.735 29.984 218.675 29.548 218.675 29.06ZM220.103 29.048C220.103 29.688 220.227 30.176 220.475 30.512C220.723 30.84 221.075 31.004 221.531 31.004C222.019 31.004 222.463 30.768 222.863 30.296V27.644C222.655 27.444 222.447 27.304 222.239 27.224C222.031 27.144 221.819 27.104 221.603 27.104C221.395 27.104 221.199 27.148 221.015 27.236C220.839 27.324 220.683 27.452 220.547 27.62C220.411 27.78 220.303 27.98 220.223 28.22C220.143 28.46 220.103 28.736 220.103 29.048ZM230.179 34.124C229.371 33.452 228.731 32.66 228.259 31.748C227.795 30.836 227.563 29.808 227.563 28.664C227.563 27.52 227.795 26.492 228.259 25.58C228.731 24.668 229.371 23.876 230.179 23.204L230.947 23.84C230.187 24.528 229.631 25.26 229.279 26.036C228.927 26.812 228.751 27.688 228.751 28.664C228.751 29.64 228.927 30.516 229.279 31.292C229.631 32.068 230.187 32.8 230.947 33.488L230.179 34.124ZM233.918 33.488C234.678 32.8 235.234 32.068 235.586 31.292C235.938 30.516 236.114 29.64 236.114 28.664C236.114 27.688 235.938 26.812 235.586 26.036C235.234 25.26 234.678 24.528 233.918 23.84L234.686 23.204C235.494 23.876 236.13 24.668 236.594 25.58C237.066 26.492 237.302 27.52 237.302 28.664C237.302 29.808 237.066 30.836 236.594 31.748C236.13 32.66 235.494 33.452 234.686 34.124L233.918 33.488Z" fill="#2E383C"/>
<path d="M68 122H288.611V163H68V122Z" fill="#F1F4F8"/>
<path d="M72.0161 135.152H73.4321L75.5321 139.568L76.2641 141.236H76.3001C76.2681 140.828 76.2281 140.392 76.1801 139.928C76.1321 139.456 76.1081 139 76.1081 138.56V135.152H77.4401V143H76.0241L73.9241 138.572L73.1921 136.916H73.1561C73.1881 137.332 73.2281 137.768 73.2761 138.224C73.3241 138.68 73.3481 139.128 73.3481 139.568V143H72.0161V135.152ZM79.0674 140.06C79.0674 139.58 79.1514 139.148 79.3194 138.764C79.4954 138.38 79.7234 138.056 80.0034 137.792C80.2834 137.52 80.6034 137.316 80.9634 137.18C81.3314 137.036 81.7074 136.964 82.0914 136.964C82.5314 136.964 82.9194 137.036 83.2554 137.18C83.5994 137.316 83.8874 137.508 84.1194 137.756C84.3514 137.996 84.5274 138.288 84.6474 138.632C84.7674 138.976 84.8274 139.352 84.8274 139.76C84.8274 139.896 84.8194 140.024 84.8034 140.144C84.7954 140.264 84.7834 140.36 84.7674 140.432H80.4834C80.5314 140.96 80.7394 141.368 81.1074 141.656C81.4754 141.936 81.9274 142.076 82.4634 142.076C82.7674 142.076 83.0514 142.036 83.3154 141.956C83.5794 141.868 83.8474 141.748 84.1194 141.596L84.5874 142.46C84.2674 142.66 83.9114 142.824 83.5194 142.952C83.1274 143.08 82.7154 143.144 82.2834 143.144C81.8354 143.144 81.4154 143.076 81.0234 142.94C80.6314 142.796 80.2914 142.592 80.0034 142.328C79.7154 142.064 79.4874 141.744 79.3194 141.368C79.1514 140.984 79.0674 140.548 79.0674 140.06ZM83.5554 139.496C83.5554 139.04 83.4354 138.684 83.1954 138.428C82.9554 138.164 82.5994 138.032 82.1274 138.032C81.7274 138.032 81.3714 138.156 81.0594 138.404C80.7474 138.652 80.5514 139.016 80.4714 139.496H83.5554ZM85.5907 137.108H86.9587L87.4987 140.168C87.5467 140.448 87.5867 140.728 87.6187 141.008C87.6587 141.288 87.6987 141.572 87.7387 141.86H87.7867C87.8267 141.572 87.8707 141.288 87.9187 141.008C87.9667 140.728 88.0227 140.448 88.0867 140.168L88.6387 137.684H89.6707L90.2227 140.168C90.2867 140.448 90.3427 140.728 90.3907 141.008C90.4467 141.288 90.4987 141.572 90.5467 141.86H90.5947C90.6427 141.572 90.6827 141.288 90.7147 141.008C90.7547 140.728 90.7947 140.448 90.8347 140.168L91.3747 137.108H92.6467L91.5547 143H89.9347L89.4187 140.54C89.3707 140.26 89.3227 139.98 89.2747 139.7C89.2347 139.42 89.1907 139.128 89.1427 138.824H89.0947C89.0547 139.056 89.0147 139.308 88.9747 139.58C88.9427 139.844 88.8947 140.168 88.8307 140.552L88.3267 143H86.7307L85.5907 137.108ZM94.154 135.152H95.534V141.824H99.218V143H94.154V135.152ZM100.917 137.108H104.853V143H103.473V138.2H100.917V137.108ZM104.061 136.076C103.781 136.076 103.545 135.992 103.353 135.824C103.169 135.656 103.077 135.432 103.077 135.152C103.077 134.872 103.169 134.648 103.353 134.48C103.545 134.304 103.781 134.216 104.061 134.216C104.349 134.216 104.585 134.304 104.769 134.48C104.953 134.648 105.045 134.872 105.045 135.152C105.045 135.432 104.953 135.656 104.769 135.824C104.585 135.992 104.349 136.076 104.061 136.076ZM108.497 141.356C108.833 141.588 109.181 141.772 109.541 141.908C109.909 142.036 110.321 142.1 110.777 142.1C111.241 142.1 111.581 142.036 111.797 141.908C112.013 141.772 112.121 141.6 112.121 141.392C112.121 141.184 111.981 141.012 111.701 140.876C111.421 140.732 110.981 140.58 110.381 140.42C110.101 140.348 109.829 140.26 109.565 140.156C109.301 140.052 109.069 139.932 108.869 139.796C108.669 139.66 108.509 139.504 108.389 139.328C108.269 139.152 108.209 138.952 108.209 138.728C108.209 138.208 108.433 137.784 108.881 137.456C109.329 137.128 109.973 136.964 110.813 136.964C111.293 136.964 111.745 137.044 112.169 137.204C112.593 137.364 112.957 137.544 113.261 137.744L112.625 138.596C112.361 138.42 112.077 138.28 111.773 138.176C111.477 138.064 111.161 138.008 110.825 138.008C110.369 138.008 110.049 138.072 109.865 138.2C109.681 138.32 109.589 138.472 109.589 138.656C109.589 138.76 109.629 138.856 109.709 138.944C109.797 139.024 109.913 139.1 110.057 139.172C110.209 139.236 110.385 139.3 110.585 139.364C110.785 139.428 111.005 139.488 111.245 139.544C111.589 139.632 111.897 139.732 112.169 139.844C112.449 139.948 112.685 140.068 112.877 140.204C113.077 140.34 113.229 140.5 113.333 140.684C113.445 140.868 113.501 141.08 113.501 141.32C113.501 141.576 113.441 141.816 113.321 142.04C113.201 142.256 113.025 142.448 112.793 142.616C112.561 142.776 112.273 142.904 111.929 143C111.585 143.096 111.189 143.144 110.741 143.144C110.189 143.144 109.661 143.056 109.157 142.88C108.653 142.704 108.217 142.488 107.849 142.232L108.497 141.356ZM116.58 138.2H115.008V137.168L116.64 137.108L116.82 135.5H117.96V137.108H120.648V138.2H117.96V140.624C117.96 141.112 118.06 141.472 118.26 141.704C118.46 141.928 118.812 142.04 119.316 142.04C119.572 142.04 119.804 142.02 120.012 141.98C120.22 141.932 120.42 141.872 120.612 141.8L120.876 142.808C120.612 142.896 120.32 142.972 120 143.036C119.68 143.108 119.34 143.144 118.98 143.144C118.532 143.144 118.156 143.084 117.852 142.964C117.548 142.844 117.3 142.676 117.108 142.46C116.924 142.236 116.788 141.968 116.7 141.656C116.62 141.344 116.58 141 116.58 140.624V138.2ZM123.907 141.932C123.907 141.58 124.019 141.292 124.243 141.068C124.467 140.836 124.751 140.72 125.095 140.72C125.439 140.72 125.723 140.836 125.947 141.068C126.171 141.292 126.283 141.58 126.283 141.932C126.283 142.284 126.171 142.576 125.947 142.808C125.723 143.032 125.439 143.144 125.095 143.144C124.751 143.144 124.467 143.032 124.243 142.808C124.019 142.576 123.907 142.284 123.907 141.932ZM135.387 135.728C135.171 135.64 134.959 135.576 134.751 135.536C134.551 135.496 134.331 135.476 134.091 135.476C133.635 135.476 133.303 135.588 133.095 135.812C132.895 136.028 132.795 136.344 132.795 136.76V137.108H135.039V138.2H132.795V143H131.427V138.2H129.795V137.168L131.427 137.108V136.784C131.427 136.44 131.475 136.12 131.571 135.824C131.667 135.528 131.815 135.276 132.015 135.068C132.223 134.852 132.483 134.684 132.795 134.564C133.115 134.444 133.491 134.384 133.923 134.384C134.243 134.384 134.547 134.412 134.835 134.468C135.131 134.524 135.411 134.604 135.675 134.708L135.387 135.728ZM136.894 137.108H140.83V143H139.45V138.2H136.894V137.108ZM140.038 136.076C139.758 136.076 139.522 135.992 139.33 135.824C139.146 135.656 139.054 135.432 139.054 135.152C139.054 134.872 139.146 134.648 139.33 134.48C139.522 134.304 139.758 134.216 140.038 134.216C140.326 134.216 140.562 134.304 140.746 134.48C140.93 134.648 141.022 134.872 141.022 135.152C141.022 135.432 140.93 135.656 140.746 135.824C140.562 135.992 140.326 136.076 140.038 136.076ZM144.641 137.108H145.781L145.901 138.44H145.937C146.241 137.96 146.605 137.596 147.029 137.348C147.461 137.092 147.933 136.964 148.445 136.964C148.685 136.964 148.889 136.984 149.057 137.024C149.233 137.056 149.409 137.116 149.585 137.204L149.297 138.368C149.105 138.304 148.933 138.26 148.781 138.236C148.637 138.204 148.453 138.188 148.229 138.188C147.821 138.188 147.429 138.304 147.053 138.536C146.677 138.768 146.337 139.172 146.033 139.748V143H144.641V137.108ZM151.668 141.356C152.004 141.588 152.352 141.772 152.712 141.908C153.08 142.036 153.492 142.1 153.948 142.1C154.412 142.1 154.752 142.036 154.968 141.908C155.184 141.772 155.292 141.6 155.292 141.392C155.292 141.184 155.152 141.012 154.872 140.876C154.592 140.732 154.152 140.58 153.552 140.42C153.272 140.348 153 140.26 152.736 140.156C152.472 140.052 152.24 139.932 152.04 139.796C151.84 139.66 151.68 139.504 151.56 139.328C151.44 139.152 151.38 138.952 151.38 138.728C151.38 138.208 151.604 137.784 152.052 137.456C152.5 137.128 153.144 136.964 153.984 136.964C154.464 136.964 154.916 137.044 155.34 137.204C155.764 137.364 156.128 137.544 156.432 137.744L155.796 138.596C155.532 138.42 155.248 138.28 154.944 138.176C154.648 138.064 154.332 138.008 153.996 138.008C153.54 138.008 153.22 138.072 153.036 138.2C152.852 138.32 152.76 138.472 152.76 138.656C152.76 138.76 152.8 138.856 152.88 138.944C152.968 139.024 153.084 139.1 153.228 139.172C153.38 139.236 153.556 139.3 153.756 139.364C153.956 139.428 154.176 139.488 154.416 139.544C154.76 139.632 155.068 139.732 155.34 139.844C155.62 139.948 155.856 140.068 156.048 140.204C156.248 140.34 156.4 140.5 156.504 140.684C156.616 140.868 156.672 141.08 156.672 141.32C156.672 141.576 156.612 141.816 156.492 142.04C156.372 142.256 156.196 142.448 155.964 142.616C155.732 142.776 155.444 142.904 155.1 143C154.756 143.096 154.36 143.144 153.912 143.144C153.36 143.144 152.832 143.056 152.328 142.88C151.824 142.704 151.388 142.488 151.02 142.232L151.668 141.356ZM159.752 138.2H158.18V137.168L159.812 137.108L159.992 135.5H161.132V137.108H163.82V138.2H161.132V140.624C161.132 141.112 161.232 141.472 161.432 141.704C161.632 141.928 161.984 142.04 162.488 142.04C162.744 142.04 162.976 142.02 163.184 141.98C163.392 141.932 163.592 141.872 163.784 141.8L164.048 142.808C163.784 142.896 163.492 142.972 163.172 143.036C162.852 143.108 162.512 143.144 162.152 143.144C161.704 143.144 161.328 143.084 161.024 142.964C160.72 142.844 160.472 142.676 160.28 142.46C160.096 142.236 159.96 141.968 159.872 141.656C159.792 141.344 159.752 141 159.752 140.624V138.2ZM171.147 143.744V144.824H165.387V143.744H171.147ZM172.438 137.108H173.482L173.59 137.864H173.626C173.762 137.608 173.926 137.396 174.118 137.228C174.318 137.052 174.586 136.964 174.922 136.964C175.498 136.964 175.858 137.292 176.002 137.948C176.138 137.668 176.31 137.436 176.518 137.252C176.734 137.06 177.006 136.964 177.334 136.964C177.75 136.964 178.07 137.128 178.294 137.456C178.526 137.776 178.642 138.232 178.642 138.824V143H177.334V138.932C177.334 138.412 177.17 138.152 176.842 138.152C176.682 138.152 176.542 138.212 176.422 138.332C176.302 138.452 176.186 138.636 176.074 138.884V143H174.994V138.932C174.994 138.412 174.826 138.152 174.49 138.152C174.33 138.152 174.194 138.212 174.082 138.332C173.97 138.452 173.858 138.636 173.746 138.884V143H172.438V137.108ZM179.802 140.06C179.802 139.58 179.886 139.148 180.054 138.764C180.23 138.38 180.458 138.056 180.738 137.792C181.018 137.52 181.338 137.316 181.698 137.18C182.066 137.036 182.442 136.964 182.826 136.964C183.266 136.964 183.654 137.036 183.99 137.18C184.334 137.316 184.622 137.508 184.854 137.756C185.086 137.996 185.262 138.288 185.382 138.632C185.502 138.976 185.562 139.352 185.562 139.76C185.562 139.896 185.554 140.024 185.538 140.144C185.53 140.264 185.518 140.36 185.502 140.432H181.218C181.266 140.96 181.474 141.368 181.842 141.656C182.21 141.936 182.662 142.076 183.198 142.076C183.502 142.076 183.786 142.036 184.05 141.956C184.314 141.868 184.582 141.748 184.854 141.596L185.322 142.46C185.002 142.66 184.646 142.824 184.254 142.952C183.862 143.08 183.45 143.144 183.018 143.144C182.57 143.144 182.15 143.076 181.758 142.94C181.366 142.796 181.026 142.592 180.738 142.328C180.45 142.064 180.222 141.744 180.054 141.368C179.886 140.984 179.802 140.548 179.802 140.06ZM184.29 139.496C184.29 139.04 184.17 138.684 183.93 138.428C183.69 138.164 183.334 138.032 182.862 138.032C182.462 138.032 182.106 138.156 181.794 138.404C181.482 138.652 181.286 139.016 181.206 139.496H184.29ZM188.533 138.2H186.961V137.168L188.593 137.108L188.773 135.5H189.913V137.108H192.601V138.2H189.913V140.624C189.913 141.112 190.013 141.472 190.213 141.704C190.413 141.928 190.765 142.04 191.269 142.04C191.525 142.04 191.757 142.02 191.965 141.98C192.173 141.932 192.373 141.872 192.565 141.8L192.829 142.808C192.565 142.896 192.273 142.972 191.953 143.036C191.633 143.108 191.293 143.144 190.933 143.144C190.485 143.144 190.109 143.084 189.805 142.964C189.501 142.844 189.253 142.676 189.061 142.46C188.877 142.236 188.741 141.968 188.653 141.656C188.573 141.344 188.533 141 188.533 140.624V138.2ZM194.432 134.528H195.824V136.712L195.74 137.972C196.012 137.7 196.316 137.464 196.652 137.264C196.996 137.064 197.396 136.964 197.852 136.964C198.532 136.964 199.032 137.172 199.352 137.588C199.672 137.996 199.832 138.584 199.832 139.352V143H198.44V139.532C198.44 139.052 198.356 138.704 198.188 138.488C198.028 138.264 197.744 138.152 197.336 138.152C197.048 138.152 196.792 138.22 196.568 138.356C196.344 138.492 196.096 138.7 195.824 138.98V143H194.432V134.528ZM201.28 140.06C201.28 139.572 201.36 139.136 201.52 138.752C201.688 138.368 201.908 138.044 202.18 137.78C202.452 137.516 202.768 137.316 203.128 137.18C203.488 137.036 203.86 136.964 204.244 136.964C204.628 136.964 205 137.036 205.36 137.18C205.72 137.316 206.036 137.516 206.308 137.78C206.58 138.044 206.796 138.368 206.956 138.752C207.124 139.136 207.208 139.572 207.208 140.06C207.208 140.548 207.124 140.984 206.956 141.368C206.796 141.752 206.58 142.076 206.308 142.34C206.036 142.604 205.72 142.804 205.36 142.94C205 143.076 204.628 143.144 204.244 143.144C203.86 143.144 203.488 143.076 203.128 142.94C202.768 142.804 202.452 142.604 202.18 142.34C201.908 142.076 201.688 141.752 201.52 141.368C201.36 140.984 201.28 140.548 201.28 140.06ZM202.708 140.06C202.708 140.652 202.844 141.128 203.116 141.488C203.388 141.84 203.764 142.016 204.244 142.016C204.724 142.016 205.1 141.84 205.372 141.488C205.644 141.128 205.78 140.652 205.78 140.06C205.78 139.46 205.644 138.984 205.372 138.632C205.1 138.272 204.724 138.092 204.244 138.092C203.764 138.092 203.388 138.272 203.116 138.632C202.844 138.984 202.708 139.46 202.708 140.06ZM208.475 140.06C208.475 139.58 208.547 139.148 208.691 138.764C208.835 138.38 209.027 138.056 209.267 137.792C209.515 137.528 209.795 137.324 210.107 137.18C210.419 137.036 210.743 136.964 211.079 136.964C211.431 136.964 211.731 137.028 211.979 137.156C212.235 137.276 212.483 137.444 212.723 137.66L212.663 136.664V134.528H214.055V143H212.915L212.807 142.316H212.771C212.539 142.548 212.267 142.744 211.955 142.904C211.651 143.064 211.331 143.144 210.995 143.144C210.619 143.144 210.275 143.076 209.963 142.94C209.651 142.796 209.383 142.592 209.159 142.328C208.943 142.064 208.775 141.744 208.655 141.368C208.535 140.984 208.475 140.548 208.475 140.06ZM209.903 140.048C209.903 140.688 210.027 141.176 210.275 141.512C210.523 141.84 210.875 142.004 211.331 142.004C211.819 142.004 212.263 141.768 212.663 141.296V138.644C212.455 138.444 212.247 138.304 212.039 138.224C211.831 138.144 211.619 138.104 211.403 138.104C211.195 138.104 210.999 138.148 210.815 138.236C210.639 138.324 210.483 138.452 210.347 138.62C210.211 138.78 210.103 138.98 210.023 139.22C209.943 139.46 209.903 139.736 209.903 140.048ZM219.978 145.124C219.17 144.452 218.53 143.66 218.058 142.748C217.594 141.836 217.362 140.808 217.362 139.664C217.362 138.52 217.594 137.492 218.058 136.58C218.53 135.668 219.17 134.876 219.978 134.204L220.746 134.84C219.986 135.528 219.43 136.26 219.078 137.036C218.726 137.812 218.55 138.688 218.55 139.664C218.55 140.64 218.726 141.516 219.078 142.292C219.43 143.068 219.986 143.8 220.746 144.488L219.978 145.124ZM223.238 137.108H227.174V143H225.794V138.2H223.238V137.108ZM226.382 136.076C226.102 136.076 225.866 135.992 225.674 135.824C225.49 135.656 225.398 135.432 225.398 135.152C225.398 134.872 225.49 134.648 225.674 134.48C225.866 134.304 226.102 134.216 226.382 134.216C226.67 134.216 226.906 134.304 227.09 134.48C227.274 134.648 227.366 134.872 227.366 135.152C227.366 135.432 227.274 135.656 227.09 135.824C226.906 135.992 226.67 136.076 226.382 136.076ZM230.409 137.108H231.549L231.657 137.996H231.705C231.985 137.716 232.293 137.476 232.629 137.276C232.973 137.068 233.373 136.964 233.829 136.964C234.509 136.964 235.009 137.172 235.329 137.588C235.649 137.996 235.809 138.584 235.809 139.352V143H234.417V139.532C234.417 139.052 234.333 138.704 234.165 138.488C234.005 138.264 233.721 138.152 233.313 138.152C233.025 138.152 232.769 138.22 232.545 138.356C232.321 138.492 232.073 138.7 231.801 138.98V143H230.409V137.108ZM238.012 141.356C238.348 141.588 238.696 141.772 239.056 141.908C239.424 142.036 239.836 142.1 240.292 142.1C240.756 142.1 241.096 142.036 241.312 141.908C241.528 141.772 241.636 141.6 241.636 141.392C241.636 141.184 241.496 141.012 241.216 140.876C240.936 140.732 240.496 140.58 239.896 140.42C239.616 140.348 239.344 140.26 239.08 140.156C238.816 140.052 238.584 139.932 238.384 139.796C238.184 139.66 238.024 139.504 237.904 139.328C237.784 139.152 237.724 138.952 237.724 138.728C237.724 138.208 237.948 137.784 238.396 137.456C238.844 137.128 239.488 136.964 240.328 136.964C240.808 136.964 241.26 137.044 241.684 137.204C242.108 137.364 242.472 137.544 242.776 137.744L242.14 138.596C241.876 138.42 241.592 138.28 241.288 138.176C240.992 138.064 240.676 138.008 240.34 138.008C239.884 138.008 239.564 138.072 239.38 138.2C239.196 138.32 239.104 138.472 239.104 138.656C239.104 138.76 239.144 138.856 239.224 138.944C239.312 139.024 239.428 139.1 239.572 139.172C239.724 139.236 239.9 139.3 240.1 139.364C240.3 139.428 240.52 139.488 240.76 139.544C241.104 139.632 241.412 139.732 241.684 139.844C241.964 139.948 242.2 140.068 242.392 140.204C242.592 140.34 242.744 140.5 242.848 140.684C242.96 140.868 243.016 141.08 243.016 141.32C243.016 141.576 242.956 141.816 242.836 142.04C242.716 142.256 242.54 142.448 242.308 142.616C242.076 142.776 241.788 142.904 241.444 143C241.1 143.096 240.704 143.144 240.256 143.144C239.704 143.144 239.176 143.056 238.672 142.88C238.168 142.704 237.732 142.488 237.364 142.232L238.012 141.356ZM246.096 138.2H244.524V137.168L246.156 137.108L246.336 135.5H247.476V137.108H250.164V138.2H247.476V140.624C247.476 141.112 247.576 141.472 247.776 141.704C247.976 141.928 248.328 142.04 248.832 142.04C249.088 142.04 249.32 142.02 249.528 141.98C249.736 141.932 249.936 141.872 250.128 141.8L250.392 142.808C250.128 142.896 249.836 142.972 249.516 143.036C249.196 143.108 248.856 143.144 248.496 143.144C248.048 143.144 247.672 143.084 247.368 142.964C247.064 142.844 246.816 142.676 246.624 142.46C246.44 142.236 246.304 141.968 246.216 141.656C246.136 141.344 246.096 141 246.096 140.624V138.2ZM251.863 141.416C251.863 141.088 251.939 140.8 252.091 140.552C252.243 140.296 252.483 140.08 252.811 139.904C253.139 139.728 253.559 139.584 254.071 139.472C254.583 139.36 255.203 139.28 255.931 139.232C255.907 138.896 255.787 138.62 255.571 138.404C255.355 138.188 255.007 138.08 254.527 138.08C254.191 138.08 253.859 138.144 253.531 138.272C253.211 138.392 252.899 138.536 252.595 138.704L252.091 137.78C252.451 137.572 252.863 137.384 253.327 137.216C253.791 137.048 254.275 136.964 254.779 136.964C255.603 136.964 256.231 137.184 256.663 137.624C257.095 138.056 257.311 138.684 257.311 139.508V143H256.183L256.075 142.268H256.039C255.727 142.508 255.379 142.716 254.995 142.892C254.619 143.06 254.231 143.144 253.831 143.144C253.543 143.144 253.279 143.1 253.039 143.012C252.799 142.932 252.591 142.816 252.415 142.664C252.239 142.512 252.103 142.332 252.007 142.124C251.911 141.908 251.863 141.672 251.863 141.416ZM253.195 141.308C253.195 141.572 253.295 141.764 253.495 141.884C253.703 142.004 253.955 142.064 254.251 142.064C254.547 142.064 254.831 142 255.103 141.872C255.383 141.736 255.659 141.56 255.931 141.344V140.096C255.403 140.136 254.963 140.192 254.611 140.264C254.259 140.328 253.979 140.412 253.771 140.516C253.563 140.62 253.415 140.74 253.327 140.876C253.239 141.004 253.195 141.148 253.195 141.308ZM259.19 137.108H260.33L260.438 137.996H260.486C260.766 137.716 261.074 137.476 261.41 137.276C261.754 137.068 262.154 136.964 262.61 136.964C263.29 136.964 263.79 137.172 264.11 137.588C264.43 137.996 264.59 138.584 264.59 139.352V143H263.198V139.532C263.198 139.052 263.114 138.704 262.946 138.488C262.786 138.264 262.502 138.152 262.094 138.152C261.806 138.152 261.55 138.22 261.326 138.356C261.102 138.492 260.854 138.7 260.582 138.98V143H259.19V137.108ZM266.277 140.06C266.277 139.572 266.365 139.136 266.541 138.752C266.725 138.368 266.969 138.044 267.273 137.78C267.577 137.516 267.933 137.316 268.341 137.18C268.749 137.036 269.177 136.964 269.625 136.964C270.105 136.964 270.525 137.044 270.885 137.204C271.253 137.364 271.561 137.56 271.809 137.792L271.149 138.656C270.917 138.472 270.681 138.332 270.441 138.236C270.209 138.14 269.961 138.092 269.697 138.092C269.105 138.092 268.625 138.272 268.257 138.632C267.889 138.984 267.705 139.46 267.705 140.06C267.705 140.356 267.753 140.624 267.849 140.864C267.945 141.104 268.077 141.312 268.245 141.488C268.421 141.656 268.629 141.788 268.869 141.884C269.109 141.972 269.373 142.016 269.661 142.016C269.997 142.016 270.301 141.952 270.573 141.824C270.853 141.696 271.109 141.544 271.341 141.368L271.917 142.256C271.581 142.552 271.205 142.776 270.789 142.928C270.373 143.072 269.953 143.144 269.529 143.144C269.065 143.144 268.633 143.076 268.233 142.94C267.841 142.804 267.497 142.604 267.201 142.34C266.913 142.076 266.685 141.752 266.517 141.368C266.357 140.984 266.277 140.548 266.277 140.06ZM273.341 140.06C273.341 139.58 273.425 139.148 273.593 138.764C273.769 138.38 273.997 138.056 274.277 137.792C274.557 137.52 274.877 137.316 275.237 137.18C275.605 137.036 275.981 136.964 276.365 136.964C276.805 136.964 277.193 137.036 277.529 137.18C277.873 137.316 278.161 137.508 278.393 137.756C278.625 137.996 278.801 138.288 278.921 138.632C279.041 138.976 279.101 139.352 279.101 139.76C279.101 139.896 279.093 140.024 279.077 140.144C279.069 140.264 279.057 140.36 279.041 140.432H274.757C274.805 140.96 275.013 141.368 275.381 141.656C275.749 141.936 276.201 142.076 276.737 142.076C277.041 142.076 277.325 142.036 277.589 141.956C277.853 141.868 278.121 141.748 278.393 141.596L278.861 142.46C278.541 142.66 278.185 142.824 277.793 142.952C277.401 143.08 276.989 143.144 276.557 143.144C276.109 143.144 275.689 143.076 275.297 142.94C274.905 142.796 274.565 142.592 274.277 142.328C273.989 142.064 273.761 141.744 273.593 141.368C273.425 140.984 273.341 140.548 273.341 140.06ZM277.829 139.496C277.829 139.04 277.709 138.684 277.469 138.428C277.229 138.164 276.873 138.032 276.401 138.032C276.001 138.032 275.645 138.156 275.333 138.404C275.021 138.652 274.825 139.016 274.745 139.496H277.829ZM281.28 144.488C282.04 143.8 282.596 143.068 282.948 142.292C283.3 141.516 283.476 140.64 283.476 139.664C283.476 138.688 283.3 137.812 282.948 137.036C282.596 136.26 282.04 135.528 281.28 134.84L282.048 134.204C282.856 134.876 283.492 135.668 283.956 136.58C284.428 137.492 284.664 138.52 284.664 139.664C284.664 140.808 284.428 141.836 283.956 142.748C283.492 143.66 282.856 144.452 282.048 145.124L281.28 144.488Z" fill="#2E383C"/>
<line x1="275" y1="132.007" x2="226" y2="132.007" stroke="#D55E00" stroke-width="2"/>
<line x1="307" y1="116" x2="250" y2="116" stroke="#D55E00" stroke-width="2"/>
<line y1="-1" x2="16.0083" y2="-1" transform="matrix(-2.40288e-07 -1 0.99999 0.00444616 250 131.008)" stroke="#D55E00" stroke-width="2"/>
<path d="M315.719 102.057H312.133L311.605 105.08H315.777L315.613 106H310.346L311.828 97.4688H317.037L316.873 98.3945H312.766L312.291 101.137H315.877L315.719 102.057ZM319.586 101.969L321.309 99.6602H322.609L320.066 102.848L321.613 106H320.459L319.41 103.633L317.623 106H316.328L318.947 102.742L317.447 99.6602H318.607L319.586 101.969ZM325.498 98.125L325.229 99.6602H326.383L326.236 100.498H325.088L324.426 104.441C324.414 104.543 324.412 104.637 324.42 104.723C324.447 105.027 324.613 105.18 324.918 105.18C325.047 105.18 325.219 105.16 325.434 105.121L325.352 106.006C325.098 106.076 324.84 106.111 324.578 106.111C324.156 106.104 323.84 105.949 323.629 105.648C323.418 105.344 323.336 104.936 323.383 104.424L324.027 100.498H322.908L323.055 99.6602H324.174L324.443 98.125H325.498ZM330.508 100.627L330.01 100.574C329.33 100.574 328.795 100.881 328.404 101.494L327.625 106H326.564L327.666 99.6602L328.691 99.6543L328.533 100.393C328.982 99.8027 329.512 99.5156 330.121 99.5312C330.25 99.5312 330.418 99.5605 330.625 99.6191L330.508 100.627ZM334.205 106C334.178 105.887 334.164 105.775 334.164 105.666L334.182 105.332C333.6 105.871 332.982 106.133 332.33 106.117C331.771 106.109 331.316 105.934 330.965 105.59C330.617 105.242 330.459 104.809 330.49 104.289C330.529 103.617 330.822 103.094 331.369 102.719C331.92 102.34 332.643 102.15 333.537 102.15L334.645 102.156L334.715 101.652C334.754 101.273 334.68 100.975 334.492 100.756C334.309 100.533 334.031 100.418 333.66 100.41C333.297 100.402 332.975 100.492 332.693 100.68C332.416 100.863 332.246 101.107 332.184 101.412L331.117 101.418C331.152 101.047 331.297 100.719 331.551 100.434C331.805 100.145 332.131 99.9219 332.529 99.7656C332.928 99.6055 333.34 99.5293 333.766 99.5371C334.426 99.5527 334.939 99.7539 335.307 100.141C335.674 100.523 335.828 101.033 335.77 101.67L335.254 104.811L335.225 105.262C335.217 105.477 335.24 105.689 335.295 105.9L335.283 106H334.205ZM332.541 105.18C332.881 105.188 333.201 105.107 333.502 104.939C333.807 104.768 334.068 104.531 334.287 104.23L334.516 102.924L333.713 102.918C333.045 102.918 332.533 103.023 332.178 103.234C331.822 103.445 331.621 103.744 331.574 104.131C331.539 104.428 331.607 104.676 331.779 104.875C331.955 105.07 332.209 105.172 332.541 105.18ZM314.061 120C314.033 119.887 314.02 119.775 314.02 119.666L314.037 119.332C313.455 119.871 312.838 120.133 312.186 120.117C311.627 120.109 311.172 119.934 310.82 119.59C310.473 119.242 310.314 118.809 310.346 118.289C310.385 117.617 310.678 117.094 311.225 116.719C311.775 116.34 312.498 116.15 313.393 116.15L314.5 116.156L314.57 115.652C314.609 115.273 314.535 114.975 314.348 114.756C314.164 114.533 313.887 114.418 313.516 114.41C313.152 114.402 312.83 114.492 312.549 114.68C312.271 114.863 312.102 115.107 312.039 115.412L310.973 115.418C311.008 115.047 311.152 114.719 311.406 114.434C311.66 114.145 311.986 113.922 312.385 113.766C312.783 113.605 313.195 113.529 313.621 113.537C314.281 113.553 314.795 113.754 315.162 114.141C315.529 114.523 315.684 115.033 315.625 115.67L315.109 118.811L315.08 119.262C315.072 119.477 315.096 119.689 315.15 119.9L315.139 120H314.061ZM312.396 119.18C312.736 119.188 313.057 119.107 313.357 118.939C313.662 118.768 313.924 118.531 314.143 118.23L314.371 116.924L313.568 116.918C312.9 116.918 312.389 117.023 312.033 117.234C311.678 117.445 311.477 117.744 311.43 118.131C311.395 118.428 311.463 118.676 311.635 118.875C311.811 119.07 312.064 119.172 312.396 119.18ZM320.523 114.627L320.025 114.574C319.346 114.574 318.811 114.881 318.42 115.494L317.641 120H316.58L317.682 113.66L318.707 113.654L318.549 114.393C318.998 113.803 319.527 113.516 320.137 113.531C320.266 113.531 320.434 113.561 320.641 113.619L320.523 114.627ZM320.77 116.818C320.863 116.127 321.049 115.527 321.326 115.02C321.607 114.508 321.947 114.131 322.346 113.889C322.748 113.643 323.188 113.525 323.664 113.537C324.398 113.553 324.953 113.83 325.328 114.369L325.539 113.66H326.512L325.457 119.865C325.344 120.674 325.016 121.32 324.473 121.805C323.93 122.293 323.26 122.525 322.463 122.502C322.033 122.494 321.621 122.393 321.227 122.197C320.836 122.002 320.527 121.734 320.301 121.395L320.904 120.744C321.287 121.311 321.793 121.602 322.422 121.617C322.926 121.633 323.352 121.492 323.699 121.195C324.051 120.898 324.283 120.477 324.396 119.93L324.514 119.367C323.998 119.883 323.395 120.133 322.703 120.117C322.309 120.105 321.965 120 321.672 119.801C321.383 119.598 321.158 119.307 320.998 118.928C320.838 118.545 320.75 118.119 320.734 117.65C320.727 117.42 320.738 117.143 320.77 116.818ZM321.795 117.422C321.783 117.98 321.879 118.414 322.082 118.723C322.289 119.027 322.6 119.188 323.014 119.203C323.646 119.219 324.191 118.908 324.648 118.271L325.146 115.359C324.912 114.781 324.488 114.48 323.875 114.457C323.301 114.441 322.828 114.676 322.457 115.16C322.09 115.645 321.873 116.299 321.807 117.123L321.795 117.422ZM331.082 119.373C330.586 119.885 329.955 120.133 329.189 120.117C328.584 120.102 328.135 119.885 327.842 119.467C327.553 119.049 327.445 118.479 327.52 117.756L328.199 113.66H329.26L328.574 117.773C328.555 117.945 328.551 118.113 328.562 118.277C328.582 118.559 328.666 118.779 328.814 118.939C328.963 119.1 329.17 119.186 329.436 119.197C330.193 119.221 330.779 118.914 331.193 118.277L331.99 113.66H333.051L331.949 120H330.947L331.082 119.373ZM335.629 113.654L335.494 114.363C336.025 113.801 336.668 113.527 337.422 113.543C337.824 113.551 338.164 113.643 338.441 113.818C338.723 113.994 338.916 114.242 339.021 114.562C339.615 113.867 340.316 113.527 341.125 113.543C341.758 113.559 342.225 113.771 342.525 114.182C342.826 114.592 342.938 115.143 342.859 115.834L342.162 120H341.107L341.799 115.822C341.822 115.619 341.822 115.434 341.799 115.266C341.725 114.734 341.377 114.463 340.756 114.451C340.369 114.443 340.018 114.564 339.701 114.814C339.389 115.061 339.188 115.385 339.098 115.787L338.377 120H337.311L338.014 115.828C338.064 115.395 337.998 115.061 337.814 114.826C337.635 114.592 337.354 114.471 336.971 114.463C336.311 114.447 335.785 114.748 335.395 115.365L334.592 120H333.531L334.633 113.66L335.629 113.654ZM346.545 120.117C345.756 120.102 345.139 119.811 344.693 119.244C344.248 118.678 344.061 117.953 344.131 117.07L344.16 116.818C344.227 116.189 344.412 115.615 344.717 115.096C345.025 114.576 345.4 114.186 345.842 113.924C346.283 113.658 346.76 113.531 347.271 113.543C347.924 113.559 348.436 113.775 348.807 114.193C349.178 114.611 349.381 115.178 349.416 115.893C349.428 116.146 349.42 116.4 349.393 116.654L349.328 117.141H345.186C345.115 117.715 345.209 118.203 345.467 118.605C345.729 119.008 346.117 119.217 346.633 119.232C347.258 119.248 347.836 118.967 348.367 118.389L348.977 118.904C348.711 119.287 348.367 119.588 347.945 119.807C347.527 120.021 347.061 120.125 346.545 120.117ZM347.219 114.428C346.781 114.416 346.398 114.564 346.07 114.873C345.746 115.182 345.488 115.641 345.297 116.25L348.379 116.256L348.402 116.162C348.465 115.67 348.385 115.262 348.162 114.938C347.943 114.609 347.629 114.439 347.219 114.428ZM352.129 113.654L351.977 114.457C352.547 113.832 353.195 113.527 353.922 113.543C354.52 113.559 354.961 113.766 355.246 114.164C355.531 114.562 355.637 115.123 355.562 115.846L354.871 120H353.811L354.508 115.828C354.531 115.637 354.533 115.459 354.514 115.295C354.447 114.748 354.125 114.469 353.547 114.457C352.91 114.445 352.352 114.785 351.871 115.477L351.086 120H350.025L351.127 113.66L352.129 113.654ZM359.307 112.125L359.037 113.66H360.191L360.045 114.498H358.896L358.234 118.441C358.223 118.543 358.221 118.637 358.229 118.723C358.256 119.027 358.422 119.18 358.727 119.18C358.855 119.18 359.027 119.16 359.242 119.121L359.16 120.006C358.906 120.076 358.648 120.111 358.387 120.111C357.965 120.104 357.648 119.949 357.438 119.648C357.227 119.344 357.145 118.936 357.191 118.424L357.836 114.498H356.717L356.863 113.66H357.982L358.252 112.125H359.307ZM314.125 128.627L313.627 128.574C312.947 128.574 312.412 128.881 312.021 129.494L311.242 134H310.182L311.283 127.66L312.309 127.654L312.15 128.393C312.6 127.803 313.129 127.516 313.738 127.531C313.867 127.531 314.035 127.561 314.242 127.619L314.125 128.627ZM316.803 134.117C316.014 134.102 315.396 133.811 314.951 133.244C314.506 132.678 314.318 131.953 314.389 131.07L314.418 130.818C314.484 130.189 314.67 129.615 314.975 129.096C315.283 128.576 315.658 128.186 316.1 127.924C316.541 127.658 317.018 127.531 317.529 127.543C318.182 127.559 318.693 127.775 319.064 128.193C319.436 128.611 319.639 129.178 319.674 129.893C319.686 130.146 319.678 130.4 319.65 130.654L319.586 131.141H315.443C315.373 131.715 315.467 132.203 315.725 132.605C315.986 133.008 316.375 133.217 316.891 133.232C317.516 133.248 318.094 132.967 318.625 132.389L319.234 132.904C318.969 133.287 318.625 133.588 318.203 133.807C317.785 134.021 317.318 134.125 316.803 134.117ZM317.477 128.428C317.039 128.416 316.656 128.564 316.328 128.873C316.004 129.182 315.746 129.641 315.555 130.25L318.637 130.256L318.66 130.162C318.723 129.67 318.643 129.262 318.42 128.938C318.201 128.609 317.887 128.439 317.477 128.428ZM326.025 130.859C325.947 131.504 325.773 132.084 325.504 132.6C325.234 133.115 324.9 133.502 324.502 133.76C324.104 134.014 323.662 134.135 323.178 134.123C322.443 134.107 321.881 133.859 321.49 133.379L320.922 136.438H319.861L321.385 127.66L322.346 127.654L322.229 128.363C322.752 127.801 323.379 127.527 324.109 127.543C324.719 127.559 325.193 127.783 325.533 128.217C325.873 128.65 326.053 129.248 326.072 130.01C326.076 130.26 326.066 130.502 326.043 130.736L326.025 130.859ZM324.982 130.736L325.012 130.244C325.012 129.674 324.902 129.238 324.684 128.938C324.469 128.633 324.156 128.473 323.746 128.457C323.133 128.441 322.604 128.732 322.158 129.33L321.625 132.371C321.863 132.934 322.291 133.223 322.908 133.238C323.436 133.25 323.883 133.045 324.25 132.623C324.621 132.197 324.865 131.568 324.982 130.736ZM330.824 128.627L330.326 128.574C329.646 128.574 329.111 128.881 328.721 129.494L327.941 134H326.881L327.982 127.66L329.008 127.654L328.85 128.393C329.299 127.803 329.828 127.516 330.438 127.531C330.566 127.531 330.734 127.561 330.941 127.619L330.824 128.627ZM333.502 134.117C332.713 134.102 332.096 133.811 331.65 133.244C331.205 132.678 331.018 131.953 331.088 131.07L331.117 130.818C331.184 130.189 331.369 129.615 331.674 129.096C331.982 128.576 332.357 128.186 332.799 127.924C333.24 127.658 333.717 127.531 334.229 127.543C334.881 127.559 335.393 127.775 335.764 128.193C336.135 128.611 336.338 129.178 336.373 129.893C336.385 130.146 336.377 130.4 336.35 130.654L336.285 131.141H332.143C332.072 131.715 332.166 132.203 332.424 132.605C332.686 133.008 333.074 133.217 333.59 133.232C334.215 133.248 334.793 132.967 335.324 132.389L335.934 132.904C335.668 133.287 335.324 133.588 334.902 133.807C334.484 134.021 334.018 134.125 333.502 134.117ZM334.176 128.428C333.738 128.416 333.355 128.564 333.027 128.873C332.703 129.182 332.445 129.641 332.254 130.25L335.336 130.256L335.359 130.162C335.422 129.67 335.342 129.262 335.119 128.938C334.9 128.609 334.586 128.439 334.176 128.428ZM340.908 132.283C340.967 131.846 340.727 131.537 340.188 131.357L339.086 131.035C338.156 130.715 337.707 130.184 337.738 129.441C337.766 128.883 338.02 128.426 338.5 128.07C338.984 127.711 339.553 127.535 340.205 127.543C340.846 127.551 341.365 127.738 341.764 128.105C342.166 128.469 342.359 128.943 342.344 129.529L341.289 129.523C341.297 129.207 341.197 128.949 340.99 128.75C340.783 128.551 340.508 128.447 340.164 128.439C339.797 128.432 339.48 128.521 339.215 128.709C338.969 128.885 338.826 129.115 338.787 129.4C338.736 129.768 338.961 130.035 339.461 130.203L339.994 130.35C340.721 130.537 341.236 130.781 341.541 131.082C341.846 131.383 341.986 131.756 341.963 132.201C341.939 132.596 341.811 132.939 341.576 133.232C341.342 133.525 341.029 133.75 340.639 133.906C340.248 134.059 339.832 134.129 339.391 134.117C338.719 134.109 338.164 133.914 337.727 133.531C337.289 133.145 337.078 132.648 337.094 132.043L338.154 132.049C338.154 132.404 338.268 132.689 338.494 132.904C338.721 133.119 339.031 133.227 339.426 133.227C339.812 133.234 340.146 133.154 340.428 132.986C340.709 132.814 340.869 132.58 340.908 132.283ZM345.783 134.117C344.994 134.102 344.377 133.811 343.932 133.244C343.486 132.678 343.299 131.953 343.369 131.07L343.398 130.818C343.465 130.189 343.65 129.615 343.955 129.096C344.264 128.576 344.639 128.186 345.08 127.924C345.521 127.658 345.998 127.531 346.51 127.543C347.162 127.559 347.674 127.775 348.045 128.193C348.416 128.611 348.619 129.178 348.654 129.893C348.666 130.146 348.658 130.4 348.631 130.654L348.566 131.141H344.424C344.354 131.715 344.447 132.203 344.705 132.605C344.967 133.008 345.355 133.217 345.871 133.232C346.496 133.248 347.074 132.967 347.605 132.389L348.215 132.904C347.949 133.287 347.605 133.588 347.184 133.807C346.766 134.021 346.299 134.125 345.783 134.117ZM346.457 128.428C346.02 128.416 345.637 128.564 345.309 128.873C344.984 129.182 344.727 129.641 344.535 130.25L347.617 130.256L347.641 130.162C347.703 129.67 347.623 129.262 347.4 128.938C347.182 128.609 346.867 128.439 346.457 128.428ZM351.367 127.654L351.215 128.457C351.785 127.832 352.434 127.527 353.16 127.543C353.758 127.559 354.199 127.766 354.484 128.164C354.77 128.562 354.875 129.123 354.801 129.846L354.109 134H353.049L353.746 129.828C353.77 129.637 353.771 129.459 353.752 129.295C353.686 128.748 353.363 128.469 352.785 128.457C352.148 128.445 351.59 128.785 351.109 129.477L350.324 134H349.264L350.365 127.66L351.367 127.654ZM358.545 126.125L358.275 127.66H359.43L359.283 128.498H358.135L357.473 132.441C357.461 132.543 357.459 132.637 357.467 132.723C357.494 133.027 357.66 133.18 357.965 133.18C358.094 133.18 358.266 133.16 358.48 133.121L358.398 134.006C358.145 134.076 357.887 134.111 357.625 134.111C357.203 134.104 356.887 133.949 356.676 133.648C356.465 133.344 356.383 132.936 356.43 132.424L357.074 128.498H355.955L356.102 127.66H357.221L357.49 126.125H358.545ZM360.76 134H359.705L360.807 127.66H361.861L360.76 134ZM361.633 125.346C361.812 125.338 361.961 125.393 362.078 125.51C362.199 125.623 362.26 125.773 362.26 125.961C362.256 126.145 362.195 126.295 362.078 126.412C361.965 126.529 361.816 126.592 361.633 126.6C361.449 126.607 361.299 126.555 361.182 126.441C361.064 126.328 361.008 126.18 361.012 125.996C361.016 125.812 361.074 125.66 361.188 125.539C361.301 125.418 361.449 125.354 361.633 125.346ZM364.598 127.654L364.445 128.457C365.016 127.832 365.664 127.527 366.391 127.543C366.988 127.559 367.43 127.766 367.715 128.164C368 128.562 368.105 129.123 368.031 129.846L367.34 134H366.279L366.977 129.828C367 129.637 367.002 129.459 366.982 129.295C366.916 128.748 366.594 128.469 366.016 128.457C365.379 128.445 364.82 128.785 364.34 129.477L363.555 134H362.494L363.596 127.66L364.598 127.654ZM369.285 130.818C369.379 130.127 369.564 129.527 369.842 129.02C370.123 128.508 370.463 128.131 370.861 127.889C371.264 127.643 371.703 127.525 372.18 127.537C372.914 127.553 373.469 127.83 373.844 128.369L374.055 127.66H375.027L373.973 133.865C373.859 134.674 373.531 135.32 372.988 135.805C372.445 136.293 371.775 136.525 370.979 136.502C370.549 136.494 370.137 136.393 369.742 136.197C369.352 136.002 369.043 135.734 368.816 135.395L369.42 134.744C369.803 135.311 370.309 135.602 370.938 135.617C371.441 135.633 371.867 135.492 372.215 135.195C372.566 134.898 372.799 134.477 372.912 133.93L373.029 133.367C372.514 133.883 371.91 134.133 371.219 134.117C370.824 134.105 370.48 134 370.188 133.801C369.898 133.598 369.674 133.307 369.514 132.928C369.354 132.545 369.266 132.119 369.25 131.65C369.242 131.42 369.254 131.143 369.285 130.818ZM370.311 131.422C370.299 131.98 370.395 132.414 370.598 132.723C370.805 133.027 371.115 133.188 371.529 133.203C372.162 133.219 372.707 132.908 373.164 132.271L373.662 129.359C373.428 128.781 373.004 128.48 372.391 128.457C371.816 128.441 371.344 128.676 370.973 129.16C370.605 129.645 370.389 130.299 370.322 131.123L370.311 131.422ZM312.982 140.125L312.713 141.66H313.867L313.721 142.498H312.572L311.91 146.441C311.898 146.543 311.896 146.637 311.904 146.723C311.932 147.027 312.098 147.18 312.402 147.18C312.531 147.18 312.703 147.16 312.918 147.121L312.836 148.006C312.582 148.076 312.324 148.111 312.062 148.111C311.641 148.104 311.324 147.949 311.113 147.648C310.902 147.344 310.82 146.936 310.867 146.424L311.512 142.498H310.393L310.539 141.66H311.658L311.928 140.125H312.982ZM316.029 142.434C316.584 141.828 317.223 141.533 317.945 141.549C318.539 141.557 318.979 141.762 319.264 142.164C319.553 142.562 319.66 143.123 319.586 143.846L318.895 148H317.834L318.531 143.828C318.555 143.637 318.557 143.459 318.537 143.295C318.471 142.748 318.148 142.469 317.57 142.457C316.922 142.441 316.363 142.781 315.895 143.477L315.109 148H314.049L315.613 139H316.674L316.029 142.434ZM323.26 148.117C322.471 148.102 321.854 147.811 321.408 147.244C320.963 146.678 320.775 145.953 320.846 145.07L320.875 144.818C320.941 144.189 321.127 143.615 321.432 143.096C321.74 142.576 322.115 142.186 322.557 141.924C322.998 141.658 323.475 141.531 323.986 141.543C324.639 141.559 325.15 141.775 325.521 142.193C325.893 142.611 326.096 143.178 326.131 143.893C326.143 144.146 326.135 144.4 326.107 144.654L326.043 145.141H321.9C321.83 145.715 321.924 146.203 322.182 146.605C322.443 147.008 322.832 147.217 323.348 147.232C323.973 147.248 324.551 146.967 325.082 146.389L325.691 146.904C325.426 147.287 325.082 147.588 324.66 147.807C324.242 148.021 323.775 148.125 323.26 148.117ZM323.934 142.428C323.496 142.416 323.113 142.564 322.785 142.873C322.461 143.182 322.203 143.641 322.012 144.25L325.094 144.256L325.117 144.162C325.18 143.67 325.1 143.262 324.877 142.938C324.658 142.609 324.344 142.439 323.934 142.428ZM330.83 148H329.775L330.877 141.66H331.932L330.83 148ZM331.703 139.346C331.883 139.338 332.031 139.393 332.148 139.51C332.27 139.623 332.33 139.773 332.33 139.961C332.326 140.145 332.266 140.295 332.148 140.412C332.035 140.529 331.887 140.592 331.703 140.6C331.52 140.607 331.369 140.555 331.252 140.441C331.135 140.328 331.078 140.18 331.082 139.996C331.086 139.812 331.145 139.66 331.258 139.539C331.371 139.418 331.52 139.354 331.703 139.346ZM334.668 141.654L334.516 142.457C335.086 141.832 335.734 141.527 336.461 141.543C337.059 141.559 337.5 141.766 337.785 142.164C338.07 142.562 338.176 143.123 338.102 143.846L337.41 148H336.35L337.047 143.828C337.07 143.637 337.072 143.459 337.053 143.295C336.986 142.748 336.664 142.469 336.086 142.457C335.449 142.445 334.891 142.785 334.41 143.477L333.625 148H332.564L333.666 141.66L334.668 141.654ZM342.971 146.283C343.029 145.846 342.789 145.537 342.25 145.357L341.148 145.035C340.219 144.715 339.77 144.184 339.801 143.441C339.828 142.883 340.082 142.426 340.562 142.07C341.047 141.711 341.615 141.535 342.268 141.543C342.908 141.551 343.428 141.738 343.826 142.105C344.229 142.469 344.422 142.943 344.406 143.529L343.352 143.523C343.359 143.207 343.26 142.949 343.053 142.75C342.846 142.551 342.57 142.447 342.227 142.439C341.859 142.432 341.543 142.521 341.277 142.709C341.031 142.885 340.889 143.115 340.85 143.4C340.799 143.768 341.023 144.035 341.523 144.203L342.057 144.35C342.783 144.537 343.299 144.781 343.604 145.082C343.908 145.383 344.049 145.756 344.025 146.201C344.002 146.596 343.873 146.939 343.639 147.232C343.404 147.525 343.092 147.75 342.701 147.906C342.311 148.059 341.895 148.129 341.453 148.117C340.781 148.109 340.227 147.914 339.789 147.531C339.352 147.145 339.141 146.648 339.156 146.043L340.217 146.049C340.217 146.404 340.33 146.689 340.557 146.904C340.783 147.119 341.094 147.227 341.488 147.227C341.875 147.234 342.209 147.154 342.49 146.986C342.771 146.814 342.932 146.58 342.971 146.283ZM347.904 140.125L347.635 141.66H348.789L348.643 142.498H347.494L346.832 146.441C346.82 146.543 346.818 146.637 346.826 146.723C346.854 147.027 347.02 147.18 347.324 147.18C347.453 147.18 347.625 147.16 347.84 147.121L347.758 148.006C347.504 148.076 347.246 148.111 346.984 148.111C346.562 148.104 346.246 147.949 346.035 147.648C345.824 147.344 345.742 146.936 345.789 146.424L346.434 142.498H345.314L345.461 141.66H346.58L346.85 140.125H347.904ZM352.85 148C352.822 147.887 352.809 147.775 352.809 147.666L352.826 147.332C352.244 147.871 351.627 148.133 350.975 148.117C350.416 148.109 349.961 147.934 349.609 147.59C349.262 147.242 349.104 146.809 349.135 146.289C349.174 145.617 349.467 145.094 350.014 144.719C350.564 144.34 351.287 144.15 352.182 144.15L353.289 144.156L353.359 143.652C353.398 143.273 353.324 142.975 353.137 142.756C352.953 142.533 352.676 142.418 352.305 142.41C351.941 142.402 351.619 142.492 351.338 142.68C351.061 142.863 350.891 143.107 350.828 143.412L349.762 143.418C349.797 143.047 349.941 142.719 350.195 142.434C350.449 142.145 350.775 141.922 351.174 141.766C351.572 141.605 351.984 141.529 352.41 141.537C353.07 141.553 353.584 141.754 353.951 142.141C354.318 142.523 354.473 143.033 354.414 143.67L353.898 146.811L353.869 147.262C353.861 147.477 353.885 147.689 353.939 147.9L353.928 148H352.85ZM351.186 147.18C351.525 147.188 351.846 147.107 352.146 146.939C352.451 146.768 352.713 146.531 352.932 146.23L353.16 144.924L352.357 144.918C351.689 144.918 351.178 145.023 350.822 145.234C350.467 145.445 350.266 145.744 350.219 146.131C350.184 146.428 350.252 146.676 350.424 146.875C350.6 147.07 350.854 147.172 351.186 147.18ZM357.473 141.654L357.32 142.457C357.891 141.832 358.539 141.527 359.266 141.543C359.863 141.559 360.305 141.766 360.59 142.164C360.875 142.562 360.98 143.123 360.906 143.846L360.215 148H359.154L359.852 143.828C359.875 143.637 359.877 143.459 359.857 143.295C359.791 142.748 359.469 142.469 358.891 142.457C358.254 142.445 357.695 142.785 357.215 143.477L356.43 148H355.369L356.471 141.66L357.473 141.654ZM364.527 147.238C364.906 147.246 365.248 147.137 365.553 146.91C365.857 146.68 366.057 146.379 366.15 146.008L367.152 146.002C367.094 146.4 366.934 146.764 366.672 147.092C366.414 147.42 366.088 147.676 365.693 147.859C365.299 148.043 364.895 148.129 364.48 148.117C363.953 148.109 363.506 147.973 363.139 147.707C362.775 147.438 362.508 147.064 362.336 146.588C362.164 146.107 362.105 145.568 362.16 144.971L362.189 144.678C362.264 144.068 362.441 143.523 362.723 143.043C363.004 142.562 363.371 142.189 363.824 141.924C364.277 141.654 364.777 141.527 365.324 141.543C365.988 141.559 366.52 141.781 366.918 142.211C367.316 142.641 367.516 143.186 367.516 143.846L366.525 143.84C366.518 143.426 366.402 143.092 366.18 142.838C365.957 142.58 365.656 142.443 365.277 142.428C364.727 142.416 364.268 142.621 363.9 143.043C363.537 143.465 363.311 144.055 363.221 144.812L363.203 144.965C363.18 145.215 363.176 145.473 363.191 145.738C363.219 146.195 363.348 146.557 363.578 146.822C363.809 147.088 364.125 147.227 364.527 147.238ZM370.744 148.117C369.955 148.102 369.338 147.811 368.893 147.244C368.447 146.678 368.26 145.953 368.33 145.07L368.359 144.818C368.426 144.189 368.611 143.615 368.916 143.096C369.225 142.576 369.6 142.186 370.041 141.924C370.482 141.658 370.959 141.531 371.471 141.543C372.123 141.559 372.635 141.775 373.006 142.193C373.377 142.611 373.58 143.178 373.615 143.893C373.627 144.146 373.619 144.4 373.592 144.654L373.527 145.141H369.385C369.314 145.715 369.408 146.203 369.666 146.605C369.928 147.008 370.316 147.217 370.832 147.232C371.457 147.248 372.035 146.967 372.566 146.389L373.176 146.904C372.91 147.287 372.566 147.588 372.145 147.807C371.727 148.021 371.26 148.125 370.744 148.117ZM371.418 142.428C370.98 142.416 370.598 142.564 370.27 142.873C369.945 143.182 369.688 143.641 369.496 144.25L372.578 144.256L372.602 144.162C372.664 143.67 372.584 143.262 372.361 142.938C372.143 142.609 371.828 142.439 371.418 142.428Z" fill="black"/>
</svg>
