<svg width="400" height="177" viewBox="0 0 400 177" fill="none" xmlns="http://www.w3.org/2000/svg">
<rect width="400" height="177" fill="white"/>
<path d="M201.961 114.06C202.559 114.646 203.508 114.646 204.082 114.06L213.433 104.516C214.007 103.931 213.988 102.981 213.39 102.396C212.792 101.81 211.843 101.81 211.269 102.396L202.957 110.879L194.298 102.396C193.701 101.81 192.751 101.81 192.177 102.396C191.603 102.981 191.623 103.931 192.22 104.516L201.961 114.06ZM200.5 64L201.5 113L204.5 113L203.5 64L200.5 64Z" fill="#0072B2"/>
<path d="M215.679 77.8364H213.875L213.327 81H212.312L213.67 73.1797L216.023 73.1851C216.843 73.1886 217.468 73.3963 217.897 73.8081C218.327 74.2199 218.508 74.7803 218.44 75.4893C218.401 75.9798 218.222 76.4113 217.903 76.7837C217.588 77.1561 217.167 77.4372 216.641 77.627L217.854 80.9302L217.849 81H216.775L215.679 77.8364ZM214.02 76.9932L215.502 76.9985C216.018 76.9985 216.453 76.8625 216.807 76.5903C217.162 76.3146 217.369 75.9476 217.43 75.4893C217.484 75.0417 217.394 74.6908 217.162 74.4365C216.929 74.1823 216.574 74.048 216.098 74.0337L214.535 74.0283L214.02 76.9932ZM222.484 80.4253C222.03 80.8944 221.451 81.1217 220.75 81.1074C220.194 81.0931 219.783 80.8944 219.514 80.5112C219.249 80.1281 219.151 79.6053 219.219 78.9429L219.842 75.1885H220.814L220.186 78.959C220.168 79.1165 220.164 79.2705 220.175 79.4209C220.193 79.6787 220.27 79.881 220.406 80.0278C220.542 80.1746 220.732 80.2534 220.975 80.2642C221.67 80.2856 222.207 80.0046 222.586 79.4209L223.317 75.1885H224.289L223.279 81H222.361L222.484 80.4253ZM226.663 75.1831L226.523 75.9189C227.046 75.346 227.641 75.0667 228.307 75.0811C228.854 75.0954 229.259 75.2852 229.521 75.6504C229.782 76.0156 229.879 76.5295 229.811 77.1919L229.177 81H228.205L228.844 77.1758C228.865 77.0003 228.867 76.8374 228.849 76.687C228.788 76.1857 228.493 75.9297 227.963 75.9189C227.379 75.9082 226.867 76.2197 226.427 76.8535L225.707 81H224.735L225.745 75.1885L226.663 75.1831ZM234.274 79.4263C234.328 79.0252 234.107 78.7424 233.613 78.5776L232.604 78.2822C231.751 77.9886 231.34 77.5016 231.368 76.8213C231.393 76.3092 231.626 75.8903 232.066 75.5645C232.51 75.235 233.031 75.0739 233.629 75.0811C234.217 75.0882 234.693 75.2601 235.058 75.5967C235.427 75.9297 235.604 76.3647 235.59 76.9019L234.623 76.8965C234.63 76.6064 234.539 76.3701 234.349 76.1875C234.159 76.0049 233.907 75.91 233.592 75.9028C233.255 75.8957 232.965 75.978 232.722 76.1499C232.496 76.311 232.365 76.5223 232.33 76.7837C232.283 77.1203 232.489 77.3656 232.947 77.5195L233.436 77.6538C234.102 77.8257 234.575 78.0495 234.854 78.3252C235.133 78.6009 235.262 78.9429 235.241 79.3511C235.219 79.7127 235.101 80.0278 234.886 80.2964C234.671 80.5649 234.385 80.7708 234.027 80.9141C233.669 81.0537 233.287 81.1182 232.883 81.1074C232.267 81.1003 231.758 80.9212 231.357 80.5703C230.956 80.2158 230.763 79.7611 230.777 79.2061L231.75 79.2114C231.75 79.5373 231.853 79.7987 232.061 79.9956C232.269 80.1925 232.553 80.291 232.915 80.291C233.27 80.2982 233.576 80.2248 233.833 80.0708C234.091 79.9132 234.238 79.6984 234.274 79.4263ZM241.493 73.7812L241.246 75.1885H242.304L242.169 75.9565H241.117L240.51 79.5713C240.499 79.6644 240.497 79.7503 240.504 79.8291C240.529 80.1084 240.682 80.248 240.961 80.248C241.079 80.248 241.237 80.2301 241.434 80.1943L241.358 81.0054C241.126 81.0698 240.889 81.1021 240.649 81.1021C240.263 81.0949 239.973 80.9535 239.779 80.6777C239.586 80.3984 239.511 80.0243 239.554 79.5552L240.145 75.9565H239.119L239.253 75.1885H240.279L240.526 73.7812H241.493ZM244.286 75.8975C244.794 75.3424 245.38 75.0721 246.042 75.0864C246.586 75.0936 246.989 75.2816 247.25 75.6504C247.515 76.0156 247.614 76.5295 247.546 77.1919L246.912 81H245.94L246.579 77.1758C246.601 77.0003 246.602 76.8374 246.584 76.687C246.524 76.1857 246.228 75.9297 245.698 75.9189C245.104 75.9046 244.592 76.2161 244.162 76.8535L243.442 81H242.47L243.904 72.75H244.876L244.286 75.8975ZM250.914 81.1074C250.19 81.0931 249.625 80.8263 249.216 80.3071C248.808 79.7879 248.636 79.1237 248.701 78.3145L248.728 78.0835C248.788 77.507 248.958 76.9806 249.238 76.5044C249.521 76.0282 249.864 75.6701 250.269 75.4302C250.674 75.1867 251.111 75.0703 251.58 75.0811C252.178 75.0954 252.647 75.2941 252.987 75.6772C253.327 76.0604 253.513 76.5796 253.545 77.2349C253.556 77.4676 253.549 77.7004 253.524 77.9331L253.465 78.3789H249.667C249.603 78.9053 249.689 79.3529 249.925 79.7217C250.165 80.0905 250.521 80.2821 250.994 80.2964C251.567 80.3107 252.097 80.0529 252.584 79.5229L253.143 79.9956C252.899 80.3465 252.584 80.6222 252.197 80.8228C251.814 81.0197 251.386 81.1146 250.914 81.1074ZM251.531 75.8921C251.13 75.8813 250.779 76.0174 250.479 76.3003C250.181 76.5832 249.945 77.0039 249.77 77.5625L252.595 77.5679L252.616 77.4819C252.674 77.0308 252.6 76.6566 252.396 76.3594C252.195 76.0586 251.907 75.9028 251.531 75.8921ZM257.853 81H256.886L257.896 75.1885H258.863L257.853 81ZM258.653 73.0669C258.818 73.0597 258.954 73.1099 259.062 73.2173C259.173 73.3211 259.228 73.459 259.228 73.6309C259.224 73.7992 259.169 73.937 259.062 74.0444C258.958 74.1519 258.822 74.2091 258.653 74.2163C258.485 74.2235 258.347 74.1751 258.24 74.0713C258.132 73.9674 258.08 73.8314 258.084 73.6631C258.088 73.4948 258.141 73.3551 258.245 73.2441C258.349 73.1331 258.485 73.0741 258.653 73.0669ZM261.371 75.1831L261.231 75.9189C261.754 75.346 262.349 75.0667 263.015 75.0811C263.562 75.0954 263.967 75.2852 264.229 75.6504C264.49 76.0156 264.587 76.5295 264.519 77.1919L263.885 81H262.913L263.552 77.1758C263.573 77.0003 263.575 76.8374 263.557 76.687C263.496 76.1857 263.201 75.9297 262.671 75.9189C262.087 75.9082 261.575 76.2197 261.135 76.8535L260.415 81H259.443L260.453 75.1885L261.371 75.1831ZM266.436 81H265.469L266.479 75.1885H267.446L266.436 81ZM267.236 73.0669C267.401 73.0597 267.537 73.1099 267.645 73.2173C267.756 73.3211 267.811 73.459 267.811 73.6309C267.807 73.7992 267.752 73.937 267.645 74.0444C267.541 74.1519 267.405 74.2091 267.236 74.2163C267.068 74.2235 266.93 74.1751 266.823 74.0713C266.715 73.9674 266.663 73.8314 266.667 73.6631C266.671 73.4948 266.724 73.3551 266.828 73.2441C266.932 73.1331 267.068 73.0741 267.236 73.0669ZM270.593 73.7812L270.346 75.1885H271.404L271.27 75.9565H270.217L269.61 79.5713C269.6 79.6644 269.598 79.7503 269.605 79.8291C269.63 80.1084 269.782 80.248 270.062 80.248C270.18 80.248 270.337 80.2301 270.534 80.1943L270.459 81.0054C270.226 81.0698 269.99 81.1021 269.75 81.1021C269.363 81.0949 269.073 80.9535 268.88 80.6777C268.687 80.3984 268.611 80.0243 268.654 79.5552L269.245 75.9565H268.219L268.354 75.1885H269.379L269.626 73.7812H270.593ZM276.185 75.1831L276.061 75.833C276.548 75.3174 277.137 75.0667 277.828 75.0811C278.197 75.0882 278.508 75.1724 278.763 75.3335C279.021 75.4946 279.198 75.722 279.294 76.0156C279.839 75.3783 280.481 75.0667 281.223 75.0811C281.803 75.0954 282.231 75.2905 282.506 75.6665C282.782 76.0425 282.884 76.5474 282.812 77.1812L282.173 81H281.207L281.84 77.1704C281.862 76.9842 281.862 76.8141 281.84 76.6602C281.772 76.1732 281.454 75.9243 280.884 75.9136C280.53 75.9064 280.208 76.0174 279.917 76.2466C279.631 76.4722 279.447 76.7694 279.364 77.1382L278.704 81H277.726L278.371 77.1758C278.417 76.7783 278.356 76.4722 278.188 76.2573C278.023 76.0425 277.765 75.9315 277.415 75.9243C276.809 75.91 276.328 76.1857 275.97 76.7515L275.234 81H274.262L275.271 75.1885L276.185 75.1831ZM286.191 81.1074C285.468 81.0931 284.902 80.8263 284.494 80.3071C284.085 79.7879 283.914 79.1237 283.978 78.3145L284.005 78.0835C284.066 77.507 284.236 76.9806 284.515 76.5044C284.798 76.0282 285.142 75.6701 285.546 75.4302C285.951 75.1867 286.388 75.0703 286.857 75.0811C287.455 75.0954 287.924 75.2941 288.264 75.6772C288.604 76.0604 288.791 76.5796 288.823 77.2349C288.833 77.4676 288.826 77.7004 288.801 77.9331L288.742 78.3789H284.945C284.88 78.9053 284.966 79.3529 285.203 79.7217C285.443 80.0905 285.799 80.2821 286.271 80.2964C286.844 80.3107 287.374 80.0529 287.861 79.5229L288.42 79.9956C288.176 80.3465 287.861 80.6222 287.475 80.8228C287.091 81.0197 286.664 81.1146 286.191 81.1074ZM286.809 75.8921C286.408 75.8813 286.057 76.0174 285.756 76.3003C285.459 76.5832 285.222 77.0039 285.047 77.5625L287.872 77.5679L287.894 77.4819C287.951 77.0308 287.877 76.6566 287.673 76.3594C287.473 76.0586 287.185 75.9028 286.809 75.8921ZM291.949 73.7812L291.702 75.1885H292.76L292.625 75.9565H291.573L290.966 79.5713C290.955 79.6644 290.953 79.7503 290.96 79.8291C290.986 80.1084 291.138 80.248 291.417 80.248C291.535 80.248 291.693 80.2301 291.89 80.1943L291.814 81.0054C291.582 81.0698 291.345 81.1021 291.105 81.1021C290.719 81.0949 290.429 80.9535 290.235 80.6777C290.042 80.3984 289.967 80.0243 290.01 79.5552L290.601 75.9565H289.575L289.709 75.1885H290.735L290.982 73.7812H291.949ZM294.742 75.8975C295.25 75.3424 295.836 75.0721 296.498 75.0864C297.042 75.0936 297.445 75.2816 297.707 75.6504C297.972 76.0156 298.07 76.5295 298.002 77.1919L297.368 81H296.396L297.035 77.1758C297.057 77.0003 297.058 76.8374 297.041 76.687C296.98 76.1857 296.684 75.9297 296.154 75.9189C295.56 75.9046 295.048 76.2161 294.618 76.8535L293.898 81H292.926L294.36 72.75H295.333L294.742 75.8975ZM302.084 75.0811C302.571 75.0882 302.988 75.2207 303.335 75.4785C303.683 75.7363 303.939 76.0926 304.104 76.5474C304.272 76.9985 304.329 77.4927 304.275 78.0298L304.265 78.1479C304.197 78.7137 304.028 79.2257 303.76 79.6841C303.491 80.1388 303.144 80.4933 302.718 80.7476C302.292 81.0018 301.824 81.1217 301.316 81.1074C300.833 81.1003 300.415 80.9678 300.064 80.71C299.717 80.4521 299.463 80.1012 299.302 79.6572C299.141 79.2132 299.083 78.7244 299.13 78.1909C299.184 77.5894 299.347 77.0487 299.619 76.5688C299.891 76.089 300.24 75.7184 300.666 75.457C301.096 75.1921 301.568 75.0667 302.084 75.0811ZM300.107 78.1963C300.082 78.4219 300.082 78.6564 300.107 78.8999C300.143 79.3224 300.269 79.659 300.483 79.9097C300.702 80.1603 300.992 80.291 301.354 80.3018C301.676 80.3125 301.973 80.2337 302.245 80.0654C302.517 79.8936 302.746 79.6357 302.933 79.292C303.119 78.9482 303.239 78.5669 303.292 78.1479C303.321 77.8185 303.326 77.541 303.309 77.3154C303.266 76.8822 303.135 76.5402 302.917 76.2896C302.698 76.0389 302.408 75.9064 302.046 75.8921C301.545 75.8813 301.119 76.0783 300.768 76.4829C300.417 76.8875 300.201 77.4175 300.118 78.0728L300.107 78.1963ZM305.28 78.0835C305.351 77.4927 305.514 76.9591 305.769 76.4829C306.023 76.0067 306.336 75.6504 306.708 75.4141C307.081 75.1777 307.491 75.0649 307.938 75.0757C308.587 75.09 309.084 75.3263 309.432 75.7847L309.99 72.75H310.962L309.534 81H308.647L308.75 80.377C308.291 80.8783 307.725 81.1217 307.052 81.1074C306.515 81.0931 306.087 80.8836 305.769 80.479C305.45 80.0708 305.278 79.5247 305.253 78.8408C305.242 78.6296 305.251 78.3771 305.28 78.0835ZM306.214 78.6421C306.204 79.1541 306.295 79.5516 306.488 79.8345C306.682 80.1174 306.965 80.2624 307.337 80.2695C307.899 80.2946 308.399 80.0117 308.835 79.4209L309.297 76.7354C309.083 76.2054 308.692 75.9333 308.126 75.9189C307.743 75.9082 307.405 76.0246 307.111 76.2681C306.821 76.508 306.599 76.8464 306.445 77.2832C306.295 77.7165 306.218 78.1694 306.214 78.6421ZM217.382 92.625L219.235 88.1885H220.239L217.591 94H216.802L216.2 89.6064L214.105 94H213.316L212.688 88.1885H213.617L213.971 92.5176L216.034 88.1885H216.818L217.382 92.625ZM221.297 94H220.331L221.34 88.1885H222.307L221.297 94ZM222.098 86.0669C222.262 86.0597 222.398 86.1099 222.506 86.2173C222.617 86.3211 222.672 86.459 222.672 86.6309C222.669 86.7992 222.613 86.937 222.506 87.0444C222.402 87.1519 222.266 87.2091 222.098 87.2163C221.929 87.2235 221.792 87.1751 221.684 87.0713C221.577 86.9674 221.525 86.8314 221.528 86.6631C221.532 86.4948 221.586 86.3551 221.689 86.2441C221.793 86.1331 221.929 86.0741 222.098 86.0669ZM225.455 86.7812L225.208 88.1885H226.266L226.131 88.9565H225.079L224.472 92.5713C224.461 92.6644 224.459 92.7503 224.466 92.8291C224.491 93.1084 224.644 93.248 224.923 93.248C225.041 93.248 225.199 93.2301 225.396 93.1943L225.32 94.0054C225.088 94.0698 224.851 94.1021 224.611 94.1021C224.225 94.0949 223.935 93.9535 223.741 93.6777C223.548 93.3984 223.473 93.0243 223.516 92.5552L224.106 88.9565H223.081L223.215 88.1885H224.241L224.488 86.7812H225.455ZM228.248 88.8975C228.756 88.3424 229.341 88.0721 230.004 88.0864C230.548 88.0936 230.951 88.2816 231.212 88.6504C231.477 89.0156 231.576 89.5295 231.508 90.1919L230.874 94H229.902L230.541 90.1758C230.562 90.0003 230.564 89.8374 230.546 89.687C230.486 89.1857 230.19 88.9297 229.66 88.9189C229.066 88.9046 228.554 89.2161 228.124 89.8535L227.404 94H226.432L227.866 85.75H228.838L228.248 88.8975ZM237.625 86.7812L237.378 88.1885H238.437L238.302 88.9565H237.25L236.643 92.5713C236.632 92.6644 236.63 92.7503 236.637 92.8291C236.662 93.1084 236.814 93.248 237.094 93.248C237.212 93.248 237.369 93.2301 237.566 93.1943L237.491 94.0054C237.258 94.0698 237.022 94.1021 236.782 94.1021C236.396 94.0949 236.105 93.9535 235.912 93.6777C235.719 93.3984 235.644 93.0243 235.687 92.5552L236.277 88.9565H235.251L235.386 88.1885H236.412L236.659 86.7812H237.625ZM240.418 88.8975C240.927 88.3424 241.512 88.0721 242.175 88.0864C242.719 88.0936 243.122 88.2816 243.383 88.6504C243.648 89.0156 243.747 89.5295 243.679 90.1919L243.045 94H242.073L242.712 90.1758C242.733 90.0003 242.735 89.8374 242.717 89.687C242.656 89.1857 242.361 88.9297 241.831 88.9189C241.237 88.9046 240.725 89.2161 240.295 89.8535L239.575 94H238.603L240.037 85.75H241.009L240.418 88.8975ZM247.046 94.1074C246.323 94.0931 245.757 93.8263 245.349 93.3071C244.941 92.7879 244.769 92.1237 244.833 91.3145L244.86 91.0835C244.921 90.507 245.091 89.9806 245.371 89.5044C245.653 89.0282 245.997 88.6701 246.402 88.4302C246.806 88.1867 247.243 88.0703 247.712 88.0811C248.31 88.0954 248.779 88.2941 249.12 88.6772C249.46 89.0604 249.646 89.5796 249.678 90.2349C249.689 90.4676 249.682 90.7004 249.657 90.9331L249.598 91.3789H245.8C245.736 91.9053 245.822 92.3529 246.058 92.7217C246.298 93.0905 246.654 93.2821 247.127 93.2964C247.7 93.3107 248.23 93.0529 248.717 92.5229L249.275 92.9956C249.032 93.3465 248.717 93.6222 248.33 93.8228C247.947 94.0197 247.519 94.1146 247.046 94.1074ZM247.664 88.8921C247.263 88.8813 246.912 89.0174 246.611 89.3003C246.314 89.5832 246.078 90.0039 245.902 90.5625L248.728 90.5679L248.749 90.4819C248.806 90.0308 248.733 89.6566 248.529 89.3594C248.328 89.0586 248.04 88.9028 247.664 88.8921ZM256.532 92.4263C256.585 92.0252 256.365 91.7424 255.871 91.5776L254.861 91.2822C254.009 90.9886 253.597 90.5016 253.626 89.8213C253.651 89.3092 253.884 88.8903 254.324 88.5645C254.768 88.235 255.289 88.0739 255.887 88.0811C256.474 88.0882 256.951 88.2601 257.316 88.5967C257.685 88.9297 257.862 89.3647 257.848 89.9019L256.881 89.8965C256.888 89.6064 256.797 89.3701 256.607 89.1875C256.417 89.0049 256.165 88.91 255.85 88.9028C255.513 88.8957 255.223 88.978 254.979 89.1499C254.754 89.311 254.623 89.5223 254.587 89.7837C254.541 90.1203 254.747 90.3656 255.205 90.5195L255.694 90.6538C256.36 90.8257 256.833 91.0495 257.112 91.3252C257.391 91.6009 257.52 91.9429 257.499 92.3511C257.477 92.7127 257.359 93.0278 257.144 93.2964C256.929 93.5649 256.643 93.7708 256.285 93.9141C255.927 94.0537 255.545 94.1182 255.141 94.1074C254.525 94.1003 254.016 93.9212 253.615 93.5703C253.214 93.2158 253.021 92.7611 253.035 92.2061L254.007 92.2114C254.007 92.5373 254.111 92.7987 254.319 92.9956C254.527 93.1925 254.811 93.291 255.173 93.291C255.527 93.2982 255.833 93.2248 256.091 93.0708C256.349 92.9132 256.496 92.6984 256.532 92.4263ZM260.571 92.5337L262.639 88.1885H263.713L260.265 94.9668C259.785 95.9085 259.169 96.374 258.417 96.3633C258.285 96.3597 258.089 96.3275 257.832 96.2666L257.917 95.4609L258.17 95.4878C258.478 95.5021 258.743 95.4323 258.965 95.2783C259.19 95.1279 259.389 94.8826 259.561 94.5425L259.91 93.8765L258.906 88.1885H259.921L260.571 92.5337ZM265.518 88.1831L265.378 88.9189C265.901 88.346 266.495 88.0667 267.161 88.0811C267.709 88.0954 268.114 88.2852 268.375 88.6504C268.636 89.0156 268.733 89.5295 268.665 90.1919L268.031 94H267.059L267.698 90.1758C267.72 90.0003 267.722 89.8374 267.704 89.687C267.643 89.1857 267.347 88.9297 266.817 88.9189C266.234 88.9082 265.722 89.2197 265.281 89.8535L264.562 94H263.589L264.599 88.1885L265.518 88.1831ZM272.097 86.7812L271.85 88.1885H272.908L272.774 88.9565H271.721L271.114 92.5713C271.104 92.6644 271.102 92.7503 271.109 92.8291C271.134 93.1084 271.286 93.248 271.565 93.248C271.684 93.248 271.841 93.2301 272.038 93.1943L271.963 94.0054C271.73 94.0698 271.494 94.1021 271.254 94.1021C270.867 94.0949 270.577 93.9535 270.384 93.6777C270.19 93.3984 270.115 93.0243 270.158 92.5552L270.749 88.9565H269.723L269.857 88.1885H270.883L271.13 86.7812H272.097ZM276.63 94C276.605 93.8962 276.593 93.7941 276.593 93.6938L276.609 93.3877C276.075 93.8818 275.51 94.1217 274.912 94.1074C274.4 94.1003 273.982 93.9391 273.66 93.624C273.341 93.3053 273.196 92.9079 273.225 92.4316C273.261 91.8158 273.529 91.3359 274.031 90.9922C274.536 90.6449 275.198 90.4712 276.018 90.4712L277.033 90.4766L277.098 90.0146C277.133 89.6673 277.065 89.3934 276.894 89.1929C276.725 88.9888 276.471 88.8831 276.131 88.876C275.798 88.8688 275.502 88.9512 275.245 89.123C274.99 89.2913 274.835 89.5151 274.777 89.7944L273.8 89.7998C273.832 89.4596 273.965 89.1589 274.197 88.8975C274.43 88.6325 274.729 88.4284 275.094 88.2852C275.459 88.1383 275.837 88.0685 276.228 88.0757C276.833 88.09 277.304 88.2744 277.64 88.6289C277.977 88.9798 278.118 89.4471 278.064 90.0308L277.592 92.9097L277.565 93.3232C277.558 93.5202 277.579 93.7153 277.629 93.9087L277.619 94H276.63ZM275.105 93.248C275.417 93.2552 275.71 93.1818 275.986 93.0278C276.265 92.8703 276.505 92.6536 276.706 92.3779L276.915 91.1802L276.179 91.1748C275.567 91.1748 275.098 91.2715 274.772 91.4648C274.446 91.6582 274.262 91.9321 274.219 92.2866C274.187 92.5588 274.249 92.7861 274.407 92.9688C274.568 93.1478 274.801 93.2409 275.105 93.248ZM281.438 90.3047L283.017 88.1885H284.209L281.878 91.1104L283.296 94H282.238L281.276 91.8301L279.638 94H278.451L280.852 91.0137L279.477 88.1885H280.541L281.438 90.3047Z" fill="#0072B2"/>
<path d="M89 10H313.505V51H89V10Z" fill="#F1F4F8"/>
<path d="M95.8757 26.108H96.9197L97.0277 26.864H97.0637C97.1997 26.608 97.3637 26.396 97.5557 26.228C97.7557 26.052 98.0237 25.964 98.3597 25.964C98.9357 25.964 99.2957 26.292 99.4397 26.948C99.5757 26.668 99.7477 26.436 99.9557 26.252C100.172 26.06 100.444 25.964 100.772 25.964C101.188 25.964 101.508 26.128 101.732 26.456C101.964 26.776 102.08 27.232 102.08 27.824V32H100.772V27.932C100.772 27.412 100.608 27.152 100.28 27.152C100.12 27.152 99.9797 27.212 99.8597 27.332C99.7397 27.452 99.6237 27.636 99.5117 27.884V32H98.4317V27.932C98.4317 27.412 98.2637 27.152 97.9277 27.152C97.7677 27.152 97.6317 27.212 97.5197 27.332C97.4077 27.452 97.2957 27.636 97.1837 27.884V32H95.8757V26.108ZM103.371 29.06C103.371 28.572 103.459 28.136 103.635 27.752C103.819 27.368 104.063 27.044 104.367 26.78C104.671 26.516 105.027 26.316 105.435 26.18C105.843 26.036 106.271 25.964 106.719 25.964C107.199 25.964 107.619 26.044 107.979 26.204C108.347 26.364 108.655 26.56 108.903 26.792L108.243 27.656C108.011 27.472 107.775 27.332 107.535 27.236C107.303 27.14 107.055 27.092 106.791 27.092C106.199 27.092 105.719 27.272 105.351 27.632C104.983 27.984 104.799 28.46 104.799 29.06C104.799 29.356 104.847 29.624 104.943 29.864C105.039 30.104 105.171 30.312 105.339 30.488C105.515 30.656 105.723 30.788 105.963 30.884C106.203 30.972 106.467 31.016 106.755 31.016C107.091 31.016 107.395 30.952 107.667 30.824C107.947 30.696 108.203 30.544 108.435 30.368L109.011 31.256C108.675 31.552 108.299 31.776 107.883 31.928C107.467 32.072 107.047 32.144 106.623 32.144C106.159 32.144 105.727 32.076 105.327 31.94C104.935 31.804 104.591 31.604 104.295 31.34C104.007 31.076 103.779 30.752 103.611 30.368C103.451 29.984 103.371 29.548 103.371 29.06ZM117.822 26.192H123.15V27.2H117.822V26.192ZM117.822 28.868H123.15V29.876H117.822V28.868ZM132.152 24.152H133.592L134.54 27.2L134.876 28.388H134.912L135.236 27.2L136.16 24.152H137.6V32H136.46V28.52C136.46 28.336 136.464 28.112 136.472 27.848C136.488 27.584 136.504 27.312 136.52 27.032C136.536 26.744 136.552 26.468 136.568 26.204C136.592 25.94 136.612 25.716 136.628 25.532H136.592L136.028 27.452L135.2 29.888H134.528L133.688 27.452L133.136 25.532H133.1C133.116 25.716 133.132 25.94 133.148 26.204C133.172 26.468 133.192 26.744 133.208 27.032C133.232 27.312 133.248 27.584 133.256 27.848C133.272 28.112 133.28 28.336 133.28 28.52V32H132.152V24.152ZM139.54 33.224C139.62 33.248 139.7 33.268 139.78 33.284C139.86 33.3 139.944 33.308 140.032 33.308C140.408 33.308 140.708 33.212 140.932 33.02C141.156 32.836 141.328 32.596 141.448 32.3L141.592 31.928L138.952 26.108H140.332L141.544 29C141.656 29.264 141.764 29.544 141.868 29.84C141.972 30.136 142.08 30.432 142.192 30.728H142.24C142.328 30.448 142.424 30.16 142.528 29.864C142.632 29.568 142.732 29.28 142.828 29L143.896 26.108H145.204L142.744 32.264C142.616 32.6 142.472 32.9 142.312 33.164C142.16 33.428 141.98 33.652 141.772 33.836C141.564 34.028 141.324 34.172 141.052 34.268C140.78 34.372 140.468 34.424 140.116 34.424C139.956 34.424 139.804 34.412 139.66 34.388C139.516 34.372 139.388 34.344 139.276 34.304L139.54 33.224ZM146.387 28.1C146.387 27.46 146.479 26.888 146.663 26.384C146.847 25.872 147.099 25.44 147.419 25.088C147.747 24.736 148.131 24.468 148.571 24.284C149.019 24.1 149.503 24.008 150.023 24.008C150.503 24.008 150.931 24.108 151.307 24.308C151.683 24.508 151.999 24.736 152.255 24.992L151.475 25.856C151.283 25.664 151.067 25.512 150.827 25.4C150.595 25.28 150.327 25.22 150.023 25.22C149.695 25.22 149.395 25.288 149.123 25.424C148.851 25.552 148.619 25.74 148.427 25.988C148.235 26.228 148.083 26.524 147.971 26.876C147.867 27.228 147.815 27.624 147.815 28.064C147.815 28.512 147.867 28.916 147.971 29.276C148.083 29.628 148.235 29.928 148.427 30.176C148.627 30.416 148.863 30.604 149.135 30.74C149.415 30.868 149.723 30.932 150.059 30.932C150.379 30.932 150.663 30.864 150.911 30.728C151.167 30.592 151.407 30.4 151.631 30.152L152.399 31.004C152.079 31.372 151.719 31.656 151.319 31.856C150.919 32.048 150.471 32.144 149.975 32.144C149.471 32.144 148.999 32.056 148.559 31.88C148.127 31.704 147.747 31.444 147.419 31.1C147.099 30.756 146.847 30.332 146.663 29.828C146.479 29.324 146.387 28.748 146.387 28.1ZM153.714 23.528H156.954V29.924C156.954 30.324 157.054 30.608 157.254 30.776C157.454 30.936 157.706 31.016 158.01 31.016C158.298 31.016 158.634 30.94 159.018 30.788L159.342 31.808C159.062 31.904 158.798 31.984 158.55 32.048C158.31 32.112 158.018 32.144 157.674 32.144C156.978 32.144 156.454 31.944 156.102 31.544C155.75 31.144 155.574 30.58 155.574 29.852V24.62H153.714V23.528ZM160.909 30.416C160.909 30.088 160.985 29.8 161.137 29.552C161.289 29.296 161.529 29.08 161.857 28.904C162.185 28.728 162.605 28.584 163.117 28.472C163.629 28.36 164.249 28.28 164.977 28.232C164.953 27.896 164.833 27.62 164.617 27.404C164.401 27.188 164.053 27.08 163.573 27.08C163.237 27.08 162.905 27.144 162.577 27.272C162.257 27.392 161.945 27.536 161.641 27.704L161.137 26.78C161.497 26.572 161.909 26.384 162.373 26.216C162.837 26.048 163.321 25.964 163.825 25.964C164.649 25.964 165.277 26.184 165.709 26.624C166.141 27.056 166.357 27.684 166.357 28.508V32H165.229L165.121 31.268H165.085C164.773 31.508 164.425 31.716 164.041 31.892C163.665 32.06 163.277 32.144 162.877 32.144C162.589 32.144 162.325 32.1 162.085 32.012C161.845 31.932 161.637 31.816 161.461 31.664C161.285 31.512 161.149 31.332 161.053 31.124C160.957 30.908 160.909 30.672 160.909 30.416ZM162.241 30.308C162.241 30.572 162.341 30.764 162.541 30.884C162.749 31.004 163.001 31.064 163.297 31.064C163.593 31.064 163.877 31 164.149 30.872C164.429 30.736 164.705 30.56 164.977 30.344V29.096C164.449 29.136 164.009 29.192 163.657 29.264C163.305 29.328 163.025 29.412 162.817 29.516C162.609 29.62 162.461 29.74 162.373 29.876C162.285 30.004 162.241 30.148 162.241 30.308ZM168.645 30.356C168.981 30.588 169.329 30.772 169.689 30.908C170.057 31.036 170.469 31.1 170.925 31.1C171.389 31.1 171.729 31.036 171.945 30.908C172.161 30.772 172.269 30.6 172.269 30.392C172.269 30.184 172.129 30.012 171.849 29.876C171.569 29.732 171.129 29.58 170.529 29.42C170.249 29.348 169.977 29.26 169.713 29.156C169.449 29.052 169.217 28.932 169.017 28.796C168.817 28.66 168.657 28.504 168.537 28.328C168.417 28.152 168.357 27.952 168.357 27.728C168.357 27.208 168.581 26.784 169.029 26.456C169.477 26.128 170.121 25.964 170.961 25.964C171.441 25.964 171.893 26.044 172.317 26.204C172.741 26.364 173.105 26.544 173.409 26.744L172.773 27.596C172.509 27.42 172.225 27.28 171.921 27.176C171.625 27.064 171.309 27.008 170.973 27.008C170.517 27.008 170.197 27.072 170.013 27.2C169.829 27.32 169.737 27.472 169.737 27.656C169.737 27.76 169.777 27.856 169.857 27.944C169.945 28.024 170.061 28.1 170.205 28.172C170.357 28.236 170.533 28.3 170.733 28.364C170.933 28.428 171.153 28.488 171.393 28.544C171.737 28.632 172.045 28.732 172.317 28.844C172.597 28.948 172.833 29.068 173.025 29.204C173.225 29.34 173.377 29.5 173.481 29.684C173.593 29.868 173.649 30.08 173.649 30.32C173.649 30.576 173.589 30.816 173.469 31.04C173.349 31.256 173.173 31.448 172.941 31.616C172.709 31.776 172.421 31.904 172.077 32C171.733 32.096 171.337 32.144 170.889 32.144C170.337 32.144 169.809 32.056 169.305 31.88C168.801 31.704 168.365 31.488 167.997 31.232L168.645 30.356ZM175.84 30.356C176.176 30.588 176.524 30.772 176.884 30.908C177.252 31.036 177.664 31.1 178.12 31.1C178.584 31.1 178.924 31.036 179.14 30.908C179.356 30.772 179.464 30.6 179.464 30.392C179.464 30.184 179.324 30.012 179.044 29.876C178.764 29.732 178.324 29.58 177.724 29.42C177.444 29.348 177.172 29.26 176.908 29.156C176.644 29.052 176.412 28.932 176.212 28.796C176.012 28.66 175.852 28.504 175.732 28.328C175.612 28.152 175.552 27.952 175.552 27.728C175.552 27.208 175.776 26.784 176.224 26.456C176.672 26.128 177.316 25.964 178.156 25.964C178.636 25.964 179.088 26.044 179.512 26.204C179.936 26.364 180.3 26.544 180.604 26.744L179.968 27.596C179.704 27.42 179.42 27.28 179.116 27.176C178.82 27.064 178.504 27.008 178.168 27.008C177.712 27.008 177.392 27.072 177.208 27.2C177.024 27.32 176.932 27.472 176.932 27.656C176.932 27.76 176.972 27.856 177.052 27.944C177.14 28.024 177.256 28.1 177.4 28.172C177.552 28.236 177.728 28.3 177.928 28.364C178.128 28.428 178.348 28.488 178.588 28.544C178.932 28.632 179.24 28.732 179.512 28.844C179.792 28.948 180.028 29.068 180.22 29.204C180.42 29.34 180.572 29.5 180.676 29.684C180.788 29.868 180.844 30.08 180.844 30.32C180.844 30.576 180.784 30.816 180.664 31.04C180.544 31.256 180.368 31.448 180.136 31.616C179.904 31.776 179.616 31.904 179.272 32C178.928 32.096 178.532 32.144 178.084 32.144C177.532 32.144 177.004 32.056 176.5 31.88C175.996 31.704 175.56 31.488 175.192 31.232L175.84 30.356ZM186.587 34.124C185.779 33.452 185.139 32.66 184.667 31.748C184.203 30.836 183.971 29.808 183.971 28.664C183.971 27.52 184.203 26.492 184.667 25.58C185.139 24.668 185.779 23.876 186.587 23.204L187.355 23.84C186.595 24.528 186.039 25.26 185.687 26.036C185.335 26.812 185.159 27.688 185.159 28.664C185.159 29.64 185.335 30.516 185.687 31.292C186.039 32.068 186.595 32.8 187.355 33.488L186.587 34.124ZM240.694 33.488C241.454 32.8 242.01 32.068 242.362 31.292C242.714 30.516 242.89 29.64 242.89 28.664C242.89 27.688 242.714 26.812 242.362 26.036C242.01 25.26 241.454 24.528 240.694 23.84L241.462 23.204C242.27 23.876 242.906 24.668 243.37 25.58C243.842 26.492 244.078 27.52 244.078 28.664C244.078 29.808 243.842 30.836 243.37 31.748C242.906 32.66 242.27 33.452 241.462 34.124L240.694 33.488Z" fill="#2E383C"/>
<path d="M190.159 25.304L190.123 23.768H191.803L191.767 25.304L191.407 28.076H190.519L190.159 25.304ZM193.123 25.304L193.087 23.768H194.767L194.731 25.304L194.371 28.076H193.483L193.123 25.304ZM196.898 24.152H198.29V27.308H200.978V24.152H202.37V32H200.978V28.52H198.29V32H196.898V24.152ZM203.865 29.06C203.865 28.572 203.945 28.136 204.105 27.752C204.273 27.368 204.493 27.044 204.765 26.78C205.037 26.516 205.353 26.316 205.713 26.18C206.073 26.036 206.445 25.964 206.829 25.964C207.213 25.964 207.585 26.036 207.945 26.18C208.305 26.316 208.621 26.516 208.893 26.78C209.165 27.044 209.381 27.368 209.541 27.752C209.709 28.136 209.793 28.572 209.793 29.06C209.793 29.548 209.709 29.984 209.541 30.368C209.381 30.752 209.165 31.076 208.893 31.34C208.621 31.604 208.305 31.804 207.945 31.94C207.585 32.076 207.213 32.144 206.829 32.144C206.445 32.144 206.073 32.076 205.713 31.94C205.353 31.804 205.037 31.604 204.765 31.34C204.493 31.076 204.273 30.752 204.105 30.368C203.945 29.984 203.865 29.548 203.865 29.06ZM205.293 29.06C205.293 29.652 205.429 30.128 205.701 30.488C205.973 30.84 206.349 31.016 206.829 31.016C207.309 31.016 207.685 30.84 207.957 30.488C208.229 30.128 208.365 29.652 208.365 29.06C208.365 28.46 208.229 27.984 207.957 27.632C207.685 27.272 207.309 27.092 206.829 27.092C206.349 27.092 205.973 27.272 205.701 27.632C205.429 27.984 205.293 28.46 205.293 29.06ZM211.277 23.528H214.517V29.924C214.517 30.324 214.617 30.608 214.817 30.776C215.017 30.936 215.269 31.016 215.573 31.016C215.861 31.016 216.197 30.94 216.581 30.788L216.905 31.808C216.625 31.904 216.361 31.984 216.113 32.048C215.873 32.112 215.581 32.144 215.237 32.144C214.541 32.144 214.017 31.944 213.665 31.544C213.313 31.144 213.137 30.58 213.137 29.852V24.62H211.277V23.528ZM218.472 30.416C218.472 30.088 218.548 29.8 218.7 29.552C218.852 29.296 219.092 29.08 219.42 28.904C219.748 28.728 220.168 28.584 220.68 28.472C221.192 28.36 221.812 28.28 222.54 28.232C222.516 27.896 222.396 27.62 222.18 27.404C221.964 27.188 221.616 27.08 221.136 27.08C220.8 27.08 220.468 27.144 220.14 27.272C219.82 27.392 219.508 27.536 219.204 27.704L218.7 26.78C219.06 26.572 219.472 26.384 219.936 26.216C220.4 26.048 220.884 25.964 221.388 25.964C222.212 25.964 222.84 26.184 223.272 26.624C223.704 27.056 223.92 27.684 223.92 28.508V32H222.792L222.684 31.268H222.648C222.336 31.508 221.988 31.716 221.604 31.892C221.228 32.06 220.84 32.144 220.44 32.144C220.152 32.144 219.888 32.1 219.648 32.012C219.408 31.932 219.2 31.816 219.024 31.664C218.848 31.512 218.712 31.332 218.616 31.124C218.52 30.908 218.472 30.672 218.472 30.416ZM219.804 30.308C219.804 30.572 219.904 30.764 220.104 30.884C220.312 31.004 220.564 31.064 220.86 31.064C221.156 31.064 221.44 31 221.712 30.872C221.992 30.736 222.268 30.56 222.54 30.344V29.096C222.012 29.136 221.572 29.192 221.22 29.264C220.868 29.328 220.588 29.412 220.38 29.516C220.172 29.62 220.024 29.74 219.936 29.876C219.848 30.004 219.804 30.148 219.804 30.308ZM227.767 25.328L227.731 23.96H229.099L229.063 25.328L228.871 29.072H227.959L227.767 25.328ZM227.371 31.064C227.371 30.744 227.471 30.488 227.671 30.296C227.871 30.104 228.119 30.008 228.415 30.008C228.711 30.008 228.959 30.104 229.159 30.296C229.359 30.488 229.459 30.744 229.459 31.064C229.459 31.392 229.359 31.656 229.159 31.856C228.959 32.048 228.711 32.144 228.415 32.144C228.119 32.144 227.871 32.048 227.671 31.856C227.471 31.656 227.371 31.392 227.371 31.064ZM233.331 25.304L233.295 23.768H234.975L234.939 25.304L234.579 28.076H233.691L233.331 25.304ZM236.295 25.304L236.259 23.768H237.939L237.903 25.304L237.543 28.076H236.655L236.295 25.304Z" fill="#B82629"/>
<path d="M89 126H313.505V167H89V126Z" fill="#F1F4F8"/>
<path d="M96.1123 139.152H97.5523L98.5003 142.2L98.8363 143.388H98.8723L99.1963 142.2L100.12 139.152H101.56V147H100.42V143.52C100.42 143.336 100.424 143.112 100.432 142.848C100.448 142.584 100.464 142.312 100.48 142.032C100.496 141.744 100.512 141.468 100.528 141.204C100.552 140.94 100.572 140.716 100.588 140.532H100.552L99.9883 142.452L99.1603 144.888H98.4883L97.6483 142.452L97.0963 140.532H97.0603C97.0763 140.716 97.0923 140.94 97.1083 141.204C97.1323 141.468 97.1523 141.744 97.1683 142.032C97.1923 142.312 97.2083 142.584 97.2163 142.848C97.2323 143.112 97.2403 143.336 97.2403 143.52V147H96.1123V139.152ZM103.5 148.224C103.58 148.248 103.66 148.268 103.74 148.284C103.82 148.3 103.904 148.308 103.992 148.308C104.368 148.308 104.668 148.212 104.892 148.02C105.116 147.836 105.288 147.596 105.408 147.3L105.552 146.928L102.912 141.108H104.292L105.504 144C105.616 144.264 105.724 144.544 105.828 144.84C105.932 145.136 106.04 145.432 106.152 145.728H106.2C106.288 145.448 106.384 145.16 106.488 144.864C106.592 144.568 106.692 144.28 106.788 144L107.856 141.108H109.164L106.704 147.264C106.576 147.6 106.432 147.9 106.272 148.164C106.12 148.428 105.94 148.652 105.732 148.836C105.524 149.028 105.284 149.172 105.012 149.268C104.74 149.372 104.428 149.424 104.076 149.424C103.916 149.424 103.764 149.412 103.62 149.388C103.476 149.372 103.348 149.344 103.236 149.304L103.5 148.224ZM110.347 143.1C110.347 142.46 110.439 141.888 110.623 141.384C110.807 140.872 111.059 140.44 111.379 140.088C111.707 139.736 112.091 139.468 112.531 139.284C112.979 139.1 113.463 139.008 113.983 139.008C114.463 139.008 114.891 139.108 115.267 139.308C115.643 139.508 115.959 139.736 116.215 139.992L115.435 140.856C115.243 140.664 115.027 140.512 114.787 140.4C114.555 140.28 114.287 140.22 113.983 140.22C113.655 140.22 113.355 140.288 113.083 140.424C112.811 140.552 112.579 140.74 112.387 140.988C112.195 141.228 112.043 141.524 111.931 141.876C111.827 142.228 111.775 142.624 111.775 143.064C111.775 143.512 111.827 143.916 111.931 144.276C112.043 144.628 112.195 144.928 112.387 145.176C112.587 145.416 112.823 145.604 113.095 145.74C113.375 145.868 113.683 145.932 114.019 145.932C114.339 145.932 114.623 145.864 114.871 145.728C115.127 145.592 115.367 145.4 115.591 145.152L116.359 146.004C116.039 146.372 115.679 146.656 115.279 146.856C114.879 147.048 114.431 147.144 113.935 147.144C113.431 147.144 112.959 147.056 112.519 146.88C112.087 146.704 111.707 146.444 111.379 146.1C111.059 145.756 110.807 145.332 110.623 144.828C110.439 144.324 110.347 143.748 110.347 143.1ZM117.674 138.528H120.914V144.924C120.914 145.324 121.014 145.608 121.214 145.776C121.414 145.936 121.666 146.016 121.97 146.016C122.258 146.016 122.594 145.94 122.978 145.788L123.302 146.808C123.022 146.904 122.758 146.984 122.51 147.048C122.27 147.112 121.978 147.144 121.634 147.144C120.938 147.144 120.414 146.944 120.062 146.544C119.71 146.144 119.534 145.58 119.534 144.852V139.62H117.674V138.528ZM124.87 145.416C124.87 145.088 124.946 144.8 125.098 144.552C125.25 144.296 125.49 144.08 125.818 143.904C126.146 143.728 126.566 143.584 127.078 143.472C127.59 143.36 128.21 143.28 128.938 143.232C128.914 142.896 128.794 142.62 128.578 142.404C128.362 142.188 128.014 142.08 127.534 142.08C127.198 142.08 126.866 142.144 126.538 142.272C126.218 142.392 125.906 142.536 125.602 142.704L125.098 141.78C125.458 141.572 125.87 141.384 126.334 141.216C126.798 141.048 127.282 140.964 127.786 140.964C128.61 140.964 129.238 141.184 129.67 141.624C130.102 142.056 130.318 142.684 130.318 143.508V147H129.19L129.082 146.268H129.046C128.734 146.508 128.386 146.716 128.002 146.892C127.626 147.06 127.238 147.144 126.838 147.144C126.55 147.144 126.286 147.1 126.046 147.012C125.806 146.932 125.598 146.816 125.422 146.664C125.246 146.512 125.11 146.332 125.014 146.124C124.918 145.908 124.87 145.672 124.87 145.416ZM126.202 145.308C126.202 145.572 126.302 145.764 126.502 145.884C126.71 146.004 126.962 146.064 127.258 146.064C127.554 146.064 127.838 146 128.11 145.872C128.39 145.736 128.666 145.56 128.938 145.344V144.096C128.41 144.136 127.97 144.192 127.618 144.264C127.266 144.328 126.986 144.412 126.778 144.516C126.57 144.62 126.422 144.74 126.334 144.876C126.246 145.004 126.202 145.148 126.202 145.308ZM132.605 145.356C132.941 145.588 133.289 145.772 133.649 145.908C134.017 146.036 134.429 146.1 134.885 146.1C135.349 146.1 135.689 146.036 135.905 145.908C136.121 145.772 136.229 145.6 136.229 145.392C136.229 145.184 136.089 145.012 135.809 144.876C135.529 144.732 135.089 144.58 134.489 144.42C134.209 144.348 133.937 144.26 133.673 144.156C133.409 144.052 133.177 143.932 132.977 143.796C132.777 143.66 132.617 143.504 132.497 143.328C132.377 143.152 132.317 142.952 132.317 142.728C132.317 142.208 132.541 141.784 132.989 141.456C133.437 141.128 134.081 140.964 134.921 140.964C135.401 140.964 135.853 141.044 136.277 141.204C136.701 141.364 137.065 141.544 137.369 141.744L136.733 142.596C136.469 142.42 136.185 142.28 135.881 142.176C135.585 142.064 135.269 142.008 134.933 142.008C134.477 142.008 134.157 142.072 133.973 142.2C133.789 142.32 133.697 142.472 133.697 142.656C133.697 142.76 133.737 142.856 133.817 142.944C133.905 143.024 134.021 143.1 134.165 143.172C134.317 143.236 134.493 143.3 134.693 143.364C134.893 143.428 135.113 143.488 135.353 143.544C135.697 143.632 136.005 143.732 136.277 143.844C136.557 143.948 136.793 144.068 136.985 144.204C137.185 144.34 137.337 144.5 137.441 144.684C137.553 144.868 137.609 145.08 137.609 145.32C137.609 145.576 137.549 145.816 137.429 146.04C137.309 146.256 137.133 146.448 136.901 146.616C136.669 146.776 136.381 146.904 136.037 147C135.693 147.096 135.297 147.144 134.849 147.144C134.297 147.144 133.769 147.056 133.265 146.88C132.761 146.704 132.325 146.488 131.957 146.232L132.605 145.356ZM139.8 145.356C140.136 145.588 140.484 145.772 140.844 145.908C141.212 146.036 141.624 146.1 142.08 146.1C142.544 146.1 142.884 146.036 143.1 145.908C143.316 145.772 143.424 145.6 143.424 145.392C143.424 145.184 143.284 145.012 143.004 144.876C142.724 144.732 142.284 144.58 141.684 144.42C141.404 144.348 141.132 144.26 140.868 144.156C140.604 144.052 140.372 143.932 140.172 143.796C139.972 143.66 139.812 143.504 139.692 143.328C139.572 143.152 139.512 142.952 139.512 142.728C139.512 142.208 139.736 141.784 140.184 141.456C140.632 141.128 141.276 140.964 142.116 140.964C142.596 140.964 143.048 141.044 143.472 141.204C143.896 141.364 144.26 141.544 144.564 141.744L143.928 142.596C143.664 142.42 143.38 142.28 143.076 142.176C142.78 142.064 142.464 142.008 142.128 142.008C141.672 142.008 141.352 142.072 141.168 142.2C140.984 142.32 140.892 142.472 140.892 142.656C140.892 142.76 140.932 142.856 141.012 142.944C141.1 143.024 141.216 143.1 141.36 143.172C141.512 143.236 141.688 143.3 141.888 143.364C142.088 143.428 142.308 143.488 142.548 143.544C142.892 143.632 143.2 143.732 143.472 143.844C143.752 143.948 143.988 144.068 144.18 144.204C144.38 144.34 144.532 144.5 144.636 144.684C144.748 144.868 144.804 145.08 144.804 145.32C144.804 145.576 144.744 145.816 144.624 146.04C144.504 146.256 144.328 146.448 144.096 146.616C143.864 146.776 143.576 146.904 143.232 147C142.888 147.096 142.492 147.144 142.044 147.144C141.492 147.144 140.964 147.056 140.46 146.88C139.956 146.704 139.52 146.488 139.152 146.232L139.8 145.356ZM148.015 145.932C148.015 145.58 148.127 145.292 148.351 145.068C148.575 144.836 148.859 144.72 149.203 144.72C149.547 144.72 149.831 144.836 150.055 145.068C150.279 145.292 150.391 145.58 150.391 145.932C150.391 146.284 150.279 146.576 150.055 146.808C149.831 147.032 149.547 147.144 149.203 147.144C148.859 147.144 148.575 147.032 148.351 146.808C148.127 146.576 148.015 146.284 148.015 145.932ZM159.279 147.744V148.824H153.519V147.744H159.279ZM166.474 147.744V148.824H160.714V147.744H166.474ZM168.197 141.108H172.133V147H170.753V142.2H168.197V141.108ZM171.341 140.076C171.061 140.076 170.825 139.992 170.633 139.824C170.449 139.656 170.357 139.432 170.357 139.152C170.357 138.872 170.449 138.648 170.633 138.48C170.825 138.304 171.061 138.216 171.341 138.216C171.629 138.216 171.865 138.304 172.049 138.48C172.233 138.648 172.325 138.872 172.325 139.152C172.325 139.432 172.233 139.656 172.049 139.824C171.865 139.992 171.629 140.076 171.341 140.076ZM175.369 141.108H176.509L176.617 141.996H176.665C176.945 141.716 177.253 141.476 177.589 141.276C177.933 141.068 178.333 140.964 178.789 140.964C179.469 140.964 179.969 141.172 180.289 141.588C180.609 141.996 180.769 142.584 180.769 143.352V147H179.377V143.532C179.377 143.052 179.293 142.704 179.125 142.488C178.965 142.264 178.681 142.152 178.273 142.152C177.985 142.152 177.729 142.22 177.505 142.356C177.281 142.492 177.033 142.7 176.761 142.98V147H175.369V141.108ZM182.588 141.108H186.524V147H185.144V142.2H182.588V141.108ZM185.732 140.076C185.452 140.076 185.216 139.992 185.024 139.824C184.84 139.656 184.748 139.432 184.748 139.152C184.748 138.872 184.84 138.648 185.024 138.48C185.216 138.304 185.452 138.216 185.732 138.216C186.02 138.216 186.256 138.304 186.44 138.48C186.624 138.648 186.716 138.872 186.716 139.152C186.716 139.432 186.624 139.656 186.44 139.824C186.256 139.992 186.02 140.076 185.732 140.076ZM191.055 142.2H189.483V141.168L191.115 141.108L191.295 139.5H192.435V141.108H195.123V142.2H192.435V144.624C192.435 145.112 192.535 145.472 192.735 145.704C192.935 145.928 193.287 146.04 193.791 146.04C194.047 146.04 194.279 146.02 194.487 145.98C194.695 145.932 194.895 145.872 195.087 145.8L195.351 146.808C195.087 146.896 194.795 146.972 194.475 147.036C194.155 147.108 193.815 147.144 193.455 147.144C193.007 147.144 192.631 147.084 192.327 146.964C192.023 146.844 191.775 146.676 191.583 146.46C191.399 146.236 191.263 145.968 191.175 145.656C191.095 145.344 191.055 145 191.055 144.624V142.2ZM202.451 147.744V148.824H196.691V147.744H202.451ZM209.646 147.744V148.824H203.886V147.744H209.646ZM215.305 149.124C214.497 148.452 213.857 147.66 213.385 146.748C212.921 145.836 212.689 144.808 212.689 143.664C212.689 142.52 212.921 141.492 213.385 140.58C213.857 139.668 214.497 138.876 215.305 138.204L216.073 138.84C215.313 139.528 214.757 140.26 214.405 141.036C214.053 141.812 213.877 142.688 213.877 143.664C213.877 144.64 214.053 145.516 214.405 146.292C214.757 147.068 215.313 147.8 216.073 148.488L215.305 149.124ZM218.133 141.108H219.177L219.285 141.864H219.321C219.457 141.608 219.621 141.396 219.813 141.228C220.013 141.052 220.281 140.964 220.617 140.964C221.193 140.964 221.553 141.292 221.697 141.948C221.833 141.668 222.005 141.436 222.213 141.252C222.429 141.06 222.701 140.964 223.029 140.964C223.445 140.964 223.765 141.128 223.989 141.456C224.221 141.776 224.337 142.232 224.337 142.824V147H223.029V142.932C223.029 142.412 222.865 142.152 222.537 142.152C222.377 142.152 222.237 142.212 222.117 142.332C221.997 142.452 221.881 142.636 221.769 142.884V147H220.689V142.932C220.689 142.412 220.521 142.152 220.185 142.152C220.025 142.152 219.889 142.212 219.777 142.332C219.665 142.452 219.553 142.636 219.441 142.884V147H218.133V141.108ZM225.628 144.06C225.628 143.572 225.716 143.136 225.892 142.752C226.076 142.368 226.32 142.044 226.624 141.78C226.928 141.516 227.284 141.316 227.692 141.18C228.1 141.036 228.528 140.964 228.976 140.964C229.456 140.964 229.876 141.044 230.236 141.204C230.604 141.364 230.912 141.56 231.16 141.792L230.5 142.656C230.268 142.472 230.032 142.332 229.792 142.236C229.56 142.14 229.312 142.092 229.048 142.092C228.456 142.092 227.976 142.272 227.608 142.632C227.24 142.984 227.056 143.46 227.056 144.06C227.056 144.356 227.104 144.624 227.2 144.864C227.296 145.104 227.428 145.312 227.596 145.488C227.772 145.656 227.98 145.788 228.22 145.884C228.46 145.972 228.724 146.016 229.012 146.016C229.348 146.016 229.652 145.952 229.924 145.824C230.204 145.696 230.46 145.544 230.692 145.368L231.268 146.256C230.932 146.552 230.556 146.776 230.14 146.928C229.724 147.072 229.304 147.144 228.88 147.144C228.416 147.144 227.984 147.076 227.584 146.94C227.192 146.804 226.848 146.604 226.552 146.34C226.264 146.076 226.036 145.752 225.868 145.368C225.708 144.984 225.628 144.548 225.628 144.06ZM234.215 148.752C235.231 148.344 235.743 147.728 235.751 146.904C235.711 146.912 235.655 146.916 235.583 146.916C235.279 146.916 235.015 146.828 234.791 146.652C234.567 146.468 234.455 146.2 234.455 145.848C234.455 145.512 234.567 145.252 234.791 145.068C235.023 144.876 235.295 144.78 235.607 144.78C236.039 144.78 236.363 144.94 236.579 145.26C236.795 145.58 236.903 146.02 236.903 146.58C236.903 147.316 236.703 147.936 236.303 148.44C235.903 148.952 235.327 149.332 234.575 149.58L234.215 148.752ZM298.193 148.488C298.953 147.8 299.509 147.068 299.861 146.292C300.213 145.516 300.389 144.64 300.389 143.664C300.389 142.688 300.213 141.812 299.861 141.036C299.509 140.26 298.953 139.528 298.193 138.84L298.961 138.204C299.769 138.876 300.405 139.668 300.869 140.58C301.341 141.492 301.577 142.52 301.577 143.664C301.577 144.808 301.341 145.836 300.869 146.748C300.405 147.66 299.769 148.452 298.961 149.124L298.193 148.488Z" fill="#2E383C"/>
<path d="M247.658 140.304L247.622 138.768H249.302L249.266 140.304L248.906 143.076H248.018L247.658 140.304ZM250.622 140.304L250.586 138.768H252.266L252.23 140.304L251.87 143.076H250.982L250.622 140.304ZM254.397 139.152H255.789V142.308H258.477V139.152H259.869V147H258.477V143.52H255.789V147H254.397V139.152ZM261.364 144.06C261.364 143.572 261.444 143.136 261.604 142.752C261.772 142.368 261.992 142.044 262.264 141.78C262.536 141.516 262.852 141.316 263.212 141.18C263.572 141.036 263.944 140.964 264.328 140.964C264.712 140.964 265.084 141.036 265.444 141.18C265.804 141.316 266.12 141.516 266.392 141.78C266.664 142.044 266.88 142.368 267.04 142.752C267.208 143.136 267.292 143.572 267.292 144.06C267.292 144.548 267.208 144.984 267.04 145.368C266.88 145.752 266.664 146.076 266.392 146.34C266.12 146.604 265.804 146.804 265.444 146.94C265.084 147.076 264.712 147.144 264.328 147.144C263.944 147.144 263.572 147.076 263.212 146.94C262.852 146.804 262.536 146.604 262.264 146.34C261.992 146.076 261.772 145.752 261.604 145.368C261.444 144.984 261.364 144.548 261.364 144.06ZM262.792 144.06C262.792 144.652 262.928 145.128 263.2 145.488C263.472 145.84 263.848 146.016 264.328 146.016C264.808 146.016 265.184 145.84 265.456 145.488C265.728 145.128 265.864 144.652 265.864 144.06C265.864 143.46 265.728 142.984 265.456 142.632C265.184 142.272 264.808 142.092 264.328 142.092C263.848 142.092 263.472 142.272 263.2 142.632C262.928 142.984 262.792 143.46 262.792 144.06ZM268.776 138.528H272.016V144.924C272.016 145.324 272.116 145.608 272.316 145.776C272.516 145.936 272.768 146.016 273.072 146.016C273.36 146.016 273.696 145.94 274.08 145.788L274.404 146.808C274.124 146.904 273.86 146.984 273.612 147.048C273.372 147.112 273.08 147.144 272.736 147.144C272.04 147.144 271.516 146.944 271.164 146.544C270.812 146.144 270.636 145.58 270.636 144.852V139.62H268.776V138.528ZM275.971 145.416C275.971 145.088 276.047 144.8 276.199 144.552C276.351 144.296 276.591 144.08 276.919 143.904C277.247 143.728 277.667 143.584 278.179 143.472C278.691 143.36 279.311 143.28 280.039 143.232C280.015 142.896 279.895 142.62 279.679 142.404C279.463 142.188 279.115 142.08 278.635 142.08C278.299 142.08 277.967 142.144 277.639 142.272C277.319 142.392 277.007 142.536 276.703 142.704L276.199 141.78C276.559 141.572 276.971 141.384 277.435 141.216C277.899 141.048 278.383 140.964 278.887 140.964C279.711 140.964 280.339 141.184 280.771 141.624C281.203 142.056 281.419 142.684 281.419 143.508V147H280.291L280.183 146.268H280.147C279.835 146.508 279.487 146.716 279.103 146.892C278.727 147.06 278.339 147.144 277.939 147.144C277.651 147.144 277.387 147.1 277.147 147.012C276.907 146.932 276.699 146.816 276.523 146.664C276.347 146.512 276.211 146.332 276.115 146.124C276.019 145.908 275.971 145.672 275.971 145.416ZM277.303 145.308C277.303 145.572 277.403 145.764 277.603 145.884C277.811 146.004 278.063 146.064 278.359 146.064C278.655 146.064 278.939 146 279.211 145.872C279.491 145.736 279.767 145.56 280.039 145.344V144.096C279.511 144.136 279.071 144.192 278.719 144.264C278.367 144.328 278.087 144.412 277.879 144.516C277.671 144.62 277.523 144.74 277.435 144.876C277.347 145.004 277.303 145.148 277.303 145.308ZM285.266 140.328L285.23 138.96H286.598L286.562 140.328L286.37 144.072H285.458L285.266 140.328ZM284.87 146.064C284.87 145.744 284.97 145.488 285.17 145.296C285.37 145.104 285.618 145.008 285.914 145.008C286.21 145.008 286.458 145.104 286.658 145.296C286.858 145.488 286.958 145.744 286.958 146.064C286.958 146.392 286.858 146.656 286.658 146.856C286.458 147.048 286.21 147.144 285.914 147.144C285.618 147.144 285.37 147.048 285.17 146.856C284.97 146.656 284.87 146.392 284.87 146.064ZM290.83 140.304L290.794 138.768H292.474L292.438 140.304L292.078 143.076H291.19L290.83 140.304ZM293.794 140.304L293.758 138.768H295.438L295.402 140.304L295.042 143.076H294.154L293.794 140.304Z" fill="#B82629"/>
</svg>
