<svg width="460" height="300" viewBox="0 0 460 300" fill="none" xmlns="http://www.w3.org/2000/svg">
<rect width="460" height="300" fill="white"/>
<path d="M150.5 82.18C149.95 82.18 149.45 82.075 149 81.865C148.55 81.645 148.165 81.325 147.845 80.905C147.525 80.485 147.275 79.965 147.095 79.345C146.925 78.725 146.84 78.01 146.84 77.2C146.84 76.39 146.925 75.68 147.095 75.07C147.275 74.46 147.525 73.95 147.845 73.54C148.165 73.12 148.55 72.81 149 72.61C149.45 72.4 149.95 72.295 150.5 72.295C151.05 72.295 151.55 72.4 152 72.61C152.45 72.81 152.835 73.12 153.155 73.54C153.475 73.95 153.72 74.46 153.89 75.07C154.07 75.68 154.16 76.39 154.16 77.2C154.16 78.01 154.07 78.725 153.89 79.345C153.72 79.965 153.475 80.485 153.155 80.905C152.835 81.325 152.45 81.645 152 81.865C151.55 82.075 151.05 82.18 150.5 82.18ZM150.5 74.005C150.26 74.005 150.035 74.055 149.825 74.155C149.625 74.255 149.45 74.43 149.3 74.68C149.15 74.92 149.03 75.245 148.94 75.655C148.85 76.065 148.805 76.58 148.805 77.2C148.805 77.82 148.85 78.34 148.94 78.76C149.03 79.17 149.15 79.505 149.3 79.765C149.45 80.015 149.625 80.195 149.825 80.305C150.035 80.415 150.26 80.47 150.5 80.47C150.74 80.47 150.96 80.415 151.16 80.305C151.37 80.195 151.55 80.015 151.7 79.765C151.85 79.505 151.97 79.17 152.06 78.76C152.15 78.34 152.195 77.82 152.195 77.2C152.195 76.58 152.15 76.065 152.06 75.655C151.97 75.245 151.85 74.92 151.7 74.68C151.55 74.43 151.37 74.255 151.16 74.155C150.96 74.055 150.74 74.005 150.5 74.005ZM150.5 78.31C150.18 78.31 149.91 78.21 149.69 78.01C149.48 77.8 149.375 77.52 149.375 77.17C149.375 76.82 149.48 76.545 149.69 76.345C149.91 76.135 150.18 76.03 150.5 76.03C150.82 76.03 151.085 76.135 151.295 76.345C151.515 76.545 151.625 76.82 151.625 77.17C151.625 77.52 151.515 77.8 151.295 78.01C151.085 78.21 150.82 78.31 150.5 78.31Z" fill="#29A1F8"/>
<path d="M229.055 80.215V82H222.23V80.215H224.69V74.71H222.725V73.345C223.285 73.245 223.76 73.125 224.15 72.985C224.55 72.845 224.925 72.675 225.275 72.475H226.895V80.215H229.055Z" fill="#29A1F8"/>
<path d="M277.87 80.74C278.55 80.17 279.17 79.64 279.73 79.15C280.29 78.65 280.77 78.185 281.17 77.755C281.57 77.325 281.88 76.92 282.1 76.54C282.32 76.16 282.43 75.8 282.43 75.46C282.43 74.99 282.295 74.635 282.025 74.395C281.755 74.145 281.37 74.02 280.87 74.02C280.49 74.02 280.14 74.12 279.82 74.32C279.51 74.51 279.22 74.735 278.95 74.995L277.765 73.81C278.015 73.56 278.26 73.34 278.5 73.15C278.75 72.96 279.01 72.805 279.28 72.685C279.56 72.555 279.85 72.46 280.15 72.4C280.46 72.33 280.8 72.295 281.17 72.295C281.67 72.295 282.125 72.37 282.535 72.52C282.945 72.66 283.295 72.865 283.585 73.135C283.885 73.395 284.115 73.71 284.275 74.08C284.445 74.45 284.53 74.865 284.53 75.325C284.53 75.725 284.435 76.135 284.245 76.555C284.055 76.965 283.795 77.38 283.465 77.8C283.145 78.21 282.775 78.625 282.355 79.045C281.935 79.455 281.495 79.86 281.035 80.26C281.305 80.23 281.595 80.205 281.905 80.185C282.225 80.155 282.51 80.14 282.76 80.14H285.025V82H277.87V80.74Z" fill="#29A1F8"/>
<path d="M348.65 79.435C348.97 79.715 349.325 79.945 349.715 80.125C350.115 80.305 350.535 80.395 350.975 80.395C351.495 80.395 351.92 80.3 352.25 80.11C352.59 79.91 352.76 79.63 352.76 79.27C352.76 79.06 352.715 78.87 352.625 78.7C352.535 78.53 352.38 78.39 352.16 78.28C351.94 78.16 351.645 78.07 351.275 78.01C350.905 77.94 350.44 77.905 349.88 77.905V76.345C350.82 76.345 351.48 76.23 351.86 76C352.25 75.76 352.445 75.45 352.445 75.07C352.445 74.74 352.32 74.485 352.07 74.305C351.82 74.115 351.475 74.02 351.035 74.02C350.655 74.02 350.305 74.095 349.985 74.245C349.665 74.395 349.34 74.6 349.01 74.86L347.9 73.51C348.37 73.13 348.87 72.835 349.4 72.625C349.94 72.405 350.52 72.295 351.14 72.295C351.66 72.295 352.135 72.355 352.565 72.475C352.995 72.585 353.365 72.755 353.675 72.985C353.985 73.205 354.225 73.475 354.395 73.795C354.565 74.115 354.65 74.485 354.65 74.905C354.65 75.405 354.49 75.83 354.17 76.18C353.85 76.52 353.405 76.8 352.835 77.02V77.08C353.435 77.24 353.94 77.515 354.35 77.905C354.76 78.285 354.965 78.785 354.965 79.405C354.965 79.845 354.86 80.24 354.65 80.59C354.45 80.93 354.175 81.22 353.825 81.46C353.485 81.69 353.085 81.87 352.625 82C352.165 82.12 351.685 82.18 351.185 82.18C350.365 82.18 349.66 82.06 349.07 81.82C348.48 81.57 348 81.24 347.63 80.83L348.65 79.435Z" fill="#29A1F8"/>
<path d="M416.115 78.04V76.435C416.115 76.135 416.12 75.79 416.13 75.4C416.15 75 416.17 74.65 416.19 74.35H416.13C415.97 74.62 415.8 74.89 415.62 75.16C415.44 75.43 415.265 75.7 415.095 75.97L413.655 78.04H416.115ZM419.37 79.72H418.17V82H416.115V79.72H411.525V78.205L415.5 72.475H418.17V78.04H419.37V79.72Z" fill="#29A1F8"/>
<path d="M66.74 199.56H68.54L68.72 201.18H68.765C69.135 200.57 69.58 200.12 70.1 199.83C70.62 199.53 71.18 199.38 71.78 199.38C72.11 199.38 72.375 199.405 72.575 199.455C72.785 199.505 73 199.58 73.22 199.68L72.77 201.525C72.54 201.455 72.33 201.405 72.14 201.375C71.96 201.335 71.73 201.315 71.45 201.315C70.99 201.315 70.535 201.45 70.085 201.72C69.645 201.99 69.265 202.46 68.945 203.13V207H66.74V199.56ZM74.6991 203.28C74.6991 202.66 74.8041 202.11 75.0141 201.63C75.2241 201.14 75.5041 200.73 75.8541 200.4C76.2141 200.07 76.6191 199.82 77.0691 199.65C77.5291 199.47 78.0041 199.38 78.4941 199.38C78.9841 199.38 79.4541 199.47 79.9041 199.65C80.3641 199.82 80.7691 200.07 81.1191 200.4C81.4791 200.73 81.7641 201.14 81.9741 201.63C82.1841 202.11 82.2891 202.66 82.2891 203.28C82.2891 203.9 82.1841 204.455 81.9741 204.945C81.7641 205.425 81.4791 205.83 81.1191 206.16C80.7691 206.49 80.3641 206.745 79.9041 206.925C79.4541 207.095 78.9841 207.18 78.4941 207.18C78.0041 207.18 77.5291 207.095 77.0691 206.925C76.6191 206.745 76.2141 206.49 75.8541 206.16C75.5041 205.83 75.2241 205.425 75.0141 204.945C74.8041 204.455 74.6991 203.9 74.6991 203.28ZM76.9641 203.28C76.9641 203.93 77.0891 204.445 77.3391 204.825C77.5991 205.205 77.9841 205.395 78.4941 205.395C79.0041 205.395 79.3841 205.205 79.6341 204.825C79.8941 204.445 80.0241 203.93 80.0241 203.28C80.0241 202.63 79.8941 202.115 79.6341 201.735C79.3841 201.355 79.0041 201.165 78.4941 201.165C77.9841 201.165 77.5991 201.355 77.3391 201.735C77.0891 202.115 76.9641 202.63 76.9641 203.28ZM83.0483 199.56H85.2083L85.6583 203.01C85.7083 203.38 85.7483 203.745 85.7783 204.105C85.8183 204.465 85.8633 204.835 85.9133 205.215H85.9583C86.0083 204.835 86.0583 204.46 86.1083 204.09C86.1583 203.72 86.2233 203.36 86.3033 203.01L86.7683 200.55H88.3133L88.8083 203.01C88.8783 203.38 88.9433 203.745 89.0033 204.105C89.0633 204.465 89.1183 204.835 89.1683 205.215H89.2283C89.2783 204.835 89.3183 204.465 89.3483 204.105C89.3783 203.745 89.4183 203.38 89.4683 203.01L89.9183 199.56H91.9283L90.7733 207H88.2233L87.8033 204.525C87.7533 204.175 87.7033 203.825 87.6533 203.475C87.6133 203.115 87.5683 202.735 87.5183 202.335H87.4583C87.4283 202.605 87.3933 202.91 87.3533 203.25C87.3233 203.59 87.2683 204.015 87.1883 204.525L86.7833 207H84.2783L83.0483 199.56ZM100.082 207.81V209.46H92.8824V207.81H100.082ZM109.032 205.215V207H102.207V205.215H104.667V199.71H102.702V198.345C103.262 198.245 103.737 198.125 104.127 197.985C104.527 197.845 104.902 197.675 105.252 197.475H106.872V205.215H109.032Z" fill="#232A3D"/>
<path d="M112.986 196.38H117.411V197.55H114.666V208.11H117.411V209.28H112.986V196.38ZM123.465 207.18C122.915 207.18 122.415 207.075 121.965 206.865C121.515 206.645 121.13 206.325 120.81 205.905C120.49 205.485 120.24 204.965 120.06 204.345C119.89 203.725 119.805 203.01 119.805 202.2C119.805 201.39 119.89 200.68 120.06 200.07C120.24 199.46 120.49 198.95 120.81 198.54C121.13 198.12 121.515 197.81 121.965 197.61C122.415 197.4 122.915 197.295 123.465 197.295C124.015 197.295 124.515 197.4 124.965 197.61C125.415 197.81 125.8 198.12 126.12 198.54C126.44 198.95 126.685 199.46 126.855 200.07C127.035 200.68 127.125 201.39 127.125 202.2C127.125 203.01 127.035 203.725 126.855 204.345C126.685 204.965 126.44 205.485 126.12 205.905C125.8 206.325 125.415 206.645 124.965 206.865C124.515 207.075 124.015 207.18 123.465 207.18ZM123.465 199.005C123.225 199.005 123 199.055 122.79 199.155C122.59 199.255 122.415 199.43 122.265 199.68C122.115 199.92 121.995 200.245 121.905 200.655C121.815 201.065 121.77 201.58 121.77 202.2C121.77 202.82 121.815 203.34 121.905 203.76C121.995 204.17 122.115 204.505 122.265 204.765C122.415 205.015 122.59 205.195 122.79 205.305C123 205.415 123.225 205.47 123.465 205.47C123.705 205.47 123.925 205.415 124.125 205.305C124.335 205.195 124.515 205.015 124.665 204.765C124.815 204.505 124.935 204.17 125.025 203.76C125.115 203.34 125.16 202.82 125.16 202.2C125.16 201.58 125.115 201.065 125.025 200.655C124.935 200.245 124.815 199.92 124.665 199.68C124.515 199.43 124.335 199.255 124.125 199.155C123.925 199.055 123.705 199.005 123.465 199.005ZM123.465 203.31C123.145 203.31 122.875 203.21 122.655 203.01C122.445 202.8 122.34 202.52 122.34 202.17C122.34 201.82 122.445 201.545 122.655 201.345C122.875 201.135 123.145 201.03 123.465 201.03C123.785 201.03 124.05 201.135 124.26 201.345C124.48 201.545 124.59 201.82 124.59 202.17C124.59 202.52 124.48 202.8 124.26 203.01C124.05 203.21 123.785 203.31 123.465 203.31ZM132.264 208.11V197.55H129.534V196.38H133.959V209.28H129.534V208.11H132.264Z" fill="#29A1F8"/>
<path d="M14.93 134.485H19.295V142.18C19.295 142.41 19.325 142.605 19.385 142.765C19.455 142.915 19.545 143.04 19.655 143.14C19.775 143.23 19.905 143.295 20.045 143.335C20.195 143.375 20.345 143.395 20.495 143.395C20.665 143.395 20.845 143.38 21.035 143.35C21.225 143.31 21.435 143.245 21.665 143.155L22.16 144.775C21.96 144.835 21.775 144.89 21.605 144.94C21.435 144.99 21.265 145.03 21.095 145.06C20.925 145.1 20.745 145.13 20.555 145.15C20.365 145.17 20.155 145.18 19.925 145.18C18.985 145.18 18.275 144.905 17.795 144.355C17.325 143.795 17.09 143.04 17.09 142.09V136.225H14.93V134.485ZM24.1791 137.56H29.3691V145H27.1641V139.285H24.1791V137.56ZM28.1691 136.465C27.7391 136.465 27.3841 136.345 27.1041 136.105C26.8341 135.865 26.6991 135.54 26.6991 135.13C26.6991 134.72 26.8341 134.39 27.1041 134.14C27.3841 133.88 27.7391 133.75 28.1691 133.75C28.5991 133.75 28.9491 133.88 29.2191 134.14C29.4991 134.39 29.6391 134.72 29.6391 135.13C29.6391 135.54 29.4991 135.865 29.2191 136.105C28.9491 136.345 28.5991 136.465 28.1691 136.465ZM33.7733 142.66C34.2033 142.93 34.6333 143.145 35.0633 143.305C35.5033 143.465 35.9733 143.545 36.4733 143.545C36.9833 143.545 37.3483 143.49 37.5683 143.38C37.7883 143.27 37.8983 143.115 37.8983 142.915C37.8983 142.685 37.7133 142.5 37.3433 142.36C36.9833 142.21 36.5033 142.05 35.9033 141.88C35.5733 141.79 35.2483 141.685 34.9283 141.565C34.6183 141.435 34.3383 141.285 34.0883 141.115C33.8383 140.935 33.6333 140.73 33.4733 140.5C33.3233 140.27 33.2483 140.005 33.2483 139.705C33.2483 139.365 33.3283 139.05 33.4883 138.76C33.6483 138.47 33.8733 138.225 34.1633 138.025C34.4633 137.825 34.8233 137.67 35.2433 137.56C35.6733 137.44 36.1533 137.38 36.6833 137.38C37.3433 137.38 37.9433 137.49 38.4833 137.71C39.0333 137.92 39.5033 138.15 39.8933 138.4L38.9033 139.72C38.5633 139.52 38.2133 139.355 37.8533 139.225C37.4933 139.085 37.1183 139.015 36.7283 139.015C36.2583 139.015 35.9233 139.065 35.7233 139.165C35.5333 139.265 35.4383 139.41 35.4383 139.6C35.4383 139.71 35.4883 139.81 35.5883 139.9C35.6883 139.99 35.8233 140.07 35.9933 140.14C36.1633 140.21 36.3633 140.28 36.5933 140.35C36.8333 140.41 37.0833 140.475 37.3433 140.545C37.7133 140.645 38.0633 140.76 38.3933 140.89C38.7233 141.01 39.0133 141.155 39.2633 141.325C39.5133 141.495 39.7133 141.7 39.8633 141.94C40.0133 142.18 40.0883 142.46 40.0883 142.78C40.0883 143.12 40.0083 143.435 39.8483 143.725C39.6883 144.015 39.4533 144.27 39.1433 144.49C38.8433 144.7 38.4633 144.87 38.0033 145C37.5533 145.12 37.0283 145.18 36.4283 145.18C35.7583 145.18 35.1033 145.07 34.4633 144.85C33.8233 144.63 33.2633 144.36 32.7833 144.04L33.7733 142.66ZM43.5924 139.285H41.7174V137.65L43.6974 137.56L43.9824 135.58H45.7974V137.56H48.9474V139.285H45.7974V141.895C45.7974 142.465 45.9224 142.87 46.1724 143.11C46.4224 143.34 46.8174 143.455 47.3574 143.455C47.6474 143.455 47.9124 143.43 48.1524 143.38C48.3924 143.33 48.6224 143.265 48.8424 143.185L49.2324 144.775C48.9024 144.875 48.5324 144.965 48.1224 145.045C47.7224 145.135 47.2824 145.18 46.8024 145.18C46.2124 145.18 45.7124 145.1 45.3024 144.94C44.8924 144.78 44.5574 144.56 44.2974 144.28C44.0474 143.99 43.8674 143.645 43.7574 143.245C43.6474 142.845 43.5924 142.4 43.5924 141.91V139.285ZM58.0766 145.81V147.46H50.8766V145.81H58.0766ZM60.0507 137.56H61.8507L62.0157 138.55H62.0757C62.3957 138.23 62.7607 137.955 63.1707 137.725C63.5907 137.495 64.0807 137.38 64.6407 137.38C65.4807 137.38 66.0957 137.65 66.4857 138.19C66.8757 138.73 67.0707 139.47 67.0707 140.41V145H64.8657V140.695C64.8657 140.195 64.7857 139.83 64.6257 139.6C64.4657 139.37 64.1807 139.255 63.7707 139.255C63.4707 139.255 63.2057 139.32 62.9757 139.45C62.7557 139.58 62.5157 139.775 62.2557 140.035V145H60.0507V137.56ZM68.8798 142.93C68.8798 142.51 68.9698 142.145 69.1498 141.835C69.3298 141.515 69.6148 141.245 70.0048 141.025C70.4048 140.805 70.9148 140.63 71.5348 140.5C72.1548 140.36 72.9048 140.265 73.7848 140.215C73.7448 139.875 73.5948 139.61 73.3348 139.42C73.0848 139.23 72.7048 139.135 72.1948 139.135C71.8348 139.135 71.4698 139.2 71.0998 139.33C70.7398 139.45 70.3498 139.615 69.9298 139.825L69.1498 138.385C69.6598 138.095 70.2048 137.855 70.7848 137.665C71.3748 137.475 71.9898 137.38 72.6298 137.38C73.6698 137.38 74.4898 137.655 75.0898 138.205C75.6898 138.755 75.9898 139.6 75.9898 140.74V145H74.1898L74.0248 144.16H73.9648C73.5848 144.45 73.1698 144.695 72.7198 144.895C72.2698 145.085 71.8048 145.18 71.3248 145.18C70.9448 145.18 70.6048 145.12 70.3048 145C70.0048 144.89 69.7498 144.735 69.5398 144.535C69.3298 144.325 69.1648 144.085 69.0448 143.815C68.9348 143.545 68.8798 143.25 68.8798 142.93ZM70.9948 142.765C70.9948 143.005 71.0848 143.185 71.2648 143.305C71.4548 143.415 71.7098 143.47 72.0298 143.47C72.3598 143.47 72.6698 143.405 72.9598 143.275C73.2498 143.135 73.5248 142.965 73.7848 142.765V141.535C73.2348 141.565 72.7798 141.615 72.4198 141.685C72.0598 141.755 71.7748 141.845 71.5648 141.955C71.3548 142.055 71.2048 142.175 71.1148 142.315C71.0348 142.455 70.9948 142.605 70.9948 142.765ZM77.499 137.56H79.149L79.314 138.49H79.374C79.514 138.18 79.704 137.92 79.944 137.71C80.194 137.49 80.534 137.38 80.964 137.38C81.294 137.38 81.569 137.485 81.789 137.695C82.019 137.895 82.179 138.195 82.269 138.595C82.409 138.255 82.609 137.97 82.869 137.74C83.139 137.5 83.484 137.38 83.904 137.38C84.424 137.38 84.829 137.595 85.119 138.025C85.409 138.445 85.554 139.03 85.554 139.78V145H83.484V139.945C83.484 139.485 83.344 139.255 83.064 139.255C82.794 139.255 82.564 139.495 82.374 139.975V145H80.679V139.945C80.679 139.485 80.534 139.255 80.244 139.255C80.104 139.255 79.984 139.315 79.884 139.435C79.784 139.555 79.679 139.735 79.569 139.975V145H77.499V137.56ZM86.7781 141.28C86.7781 140.67 86.8831 140.125 87.0931 139.645C87.3131 139.165 87.6031 138.76 87.9631 138.43C88.3231 138.09 88.7331 137.83 89.1931 137.65C89.6631 137.47 90.1481 137.38 90.6481 137.38C91.2181 137.38 91.7231 137.47 92.1631 137.65C92.6031 137.83 92.9681 138.08 93.2581 138.4C93.5481 138.72 93.7681 139.1 93.9181 139.54C94.0681 139.97 94.1431 140.44 94.1431 140.95C94.1431 141.15 94.1331 141.34 94.1131 141.52C94.0931 141.7 94.0731 141.835 94.0531 141.925H89.0431C89.1231 142.485 89.3631 142.89 89.7631 143.14C90.1731 143.38 90.6531 143.5 91.2031 143.5C91.5431 143.5 91.8631 143.46 92.1631 143.38C92.4731 143.29 92.7931 143.16 93.1231 142.99L93.8431 144.31C93.4231 144.58 92.9531 144.795 92.4331 144.955C91.9131 145.105 91.4031 145.18 90.9031 145.18C90.3231 145.18 89.7831 145.095 89.2831 144.925C88.7831 144.745 88.3481 144.49 87.9781 144.16C87.6081 143.82 87.3131 143.41 87.0931 142.93C86.8831 142.45 86.7781 141.9 86.7781 141.28ZM92.1481 140.47C92.1481 140.05 92.0331 139.71 91.8031 139.45C91.5731 139.19 91.2031 139.06 90.6931 139.06C90.2931 139.06 89.9381 139.175 89.6281 139.405C89.3181 139.635 89.1131 139.99 89.0131 140.47H92.1481Z" fill="#232A3D"/>
<path d="M97.9623 134.38H102.387V135.55H99.6423V146.11H102.387V147.28H97.9623V134.38ZM105.126 137.56H110.316V145H108.111V139.285H105.126V137.56ZM109.116 136.465C108.686 136.465 108.331 136.345 108.051 136.105C107.781 135.865 107.646 135.54 107.646 135.13C107.646 134.72 107.781 134.39 108.051 134.14C108.331 133.88 108.686 133.75 109.116 133.75C109.546 133.75 109.896 133.88 110.166 134.14C110.446 134.39 110.586 134.72 110.586 135.13C110.586 135.54 110.446 135.865 110.166 136.105C109.896 136.345 109.546 136.465 109.116 136.465ZM114.016 137.56H115.816L115.981 138.55H116.041C116.361 138.23 116.726 137.955 117.136 137.725C117.556 137.495 118.046 137.38 118.606 137.38C119.446 137.38 120.061 137.65 120.451 138.19C120.841 138.73 121.036 139.47 121.036 140.41V145H118.831V140.695C118.831 140.195 118.751 139.83 118.591 139.6C118.431 139.37 118.146 139.255 117.736 139.255C117.436 139.255 117.171 139.32 116.941 139.45C116.721 139.58 116.481 139.775 116.221 140.035V145H114.016V137.56ZM122.635 141.28C122.635 140.67 122.725 140.125 122.905 139.645C123.085 139.165 123.32 138.76 123.61 138.43C123.91 138.09 124.25 137.83 124.63 137.65C125.01 137.47 125.405 137.38 125.815 137.38C126.245 137.38 126.605 137.455 126.895 137.605C127.185 137.745 127.46 137.935 127.72 138.175L127.645 137.02V134.485H129.85V145H128.05L127.885 144.235H127.84C127.56 144.505 127.24 144.73 126.88 144.91C126.52 145.09 126.15 145.18 125.77 145.18C125.3 145.18 124.87 145.09 124.48 144.91C124.1 144.73 123.77 144.475 123.49 144.145C123.22 143.805 123.01 143.395 122.86 142.915C122.71 142.435 122.635 141.89 122.635 141.28ZM124.9 141.25C124.9 141.99 125.025 142.53 125.275 142.87C125.525 143.21 125.88 143.38 126.34 143.38C126.59 143.38 126.82 143.33 127.03 143.23C127.24 143.12 127.445 142.94 127.645 142.69V139.675C127.445 139.495 127.24 139.37 127.03 139.3C126.83 139.22 126.62 139.18 126.4 139.18C125.99 139.18 125.635 139.35 125.335 139.69C125.045 140.03 124.9 140.55 124.9 141.25ZM131.749 141.28C131.749 140.67 131.854 140.125 132.064 139.645C132.284 139.165 132.574 138.76 132.934 138.43C133.294 138.09 133.704 137.83 134.164 137.65C134.634 137.47 135.119 137.38 135.619 137.38C136.189 137.38 136.694 137.47 137.134 137.65C137.574 137.83 137.939 138.08 138.229 138.4C138.519 138.72 138.739 139.1 138.889 139.54C139.039 139.97 139.114 140.44 139.114 140.95C139.114 141.15 139.104 141.34 139.084 141.52C139.064 141.7 139.044 141.835 139.024 141.925H134.014C134.094 142.485 134.334 142.89 134.734 143.14C135.144 143.38 135.624 143.5 136.174 143.5C136.514 143.5 136.834 143.46 137.134 143.38C137.444 143.29 137.764 143.16 138.094 142.99L138.814 144.31C138.394 144.58 137.924 144.795 137.404 144.955C136.884 145.105 136.374 145.18 135.874 145.18C135.294 145.18 134.754 145.095 134.254 144.925C133.754 144.745 133.319 144.49 132.949 144.16C132.579 143.82 132.284 143.41 132.064 142.93C131.854 142.45 131.749 141.9 131.749 141.28ZM137.119 140.47C137.119 140.05 137.004 139.71 136.774 139.45C136.544 139.19 136.174 139.06 135.664 139.06C135.264 139.06 134.909 139.175 134.599 139.405C134.289 139.635 134.084 139.99 133.984 140.47H137.119ZM143.053 141.13L140.638 137.56H143.008L143.773 138.76C143.883 138.97 144.008 139.185 144.148 139.405C144.288 139.615 144.423 139.825 144.553 140.035H144.613C144.713 139.825 144.813 139.61 144.913 139.39C145.023 139.17 145.128 138.96 145.228 138.76L145.888 137.56H148.198L145.768 141.385L148.348 145H145.978L145.123 143.77C144.983 143.56 144.838 143.345 144.688 143.125C144.548 142.905 144.408 142.69 144.268 142.48H144.208C144.098 142.69 143.983 142.905 143.863 143.125C143.743 143.335 143.628 143.55 143.518 143.77L142.783 145H140.473L143.053 141.13ZM157.012 145.81V147.46H149.812V145.81H157.012ZM158.986 137.56H160.786L160.951 138.55H161.011C161.331 138.23 161.696 137.955 162.106 137.725C162.526 137.495 163.016 137.38 163.576 137.38C164.416 137.38 165.031 137.65 165.421 138.19C165.811 138.73 166.006 139.47 166.006 140.41V145H163.801V140.695C163.801 140.195 163.721 139.83 163.561 139.6C163.401 139.37 163.116 139.255 162.706 139.255C162.406 139.255 162.141 139.32 161.911 139.45C161.691 139.58 161.451 139.775 161.191 140.035V145H158.986V137.56ZM174.775 145H172.975L172.81 143.935H172.75C172.42 144.315 172.055 144.62 171.655 144.85C171.255 145.07 170.785 145.18 170.245 145.18C169.395 145.18 168.78 144.91 168.4 144.37C168.02 143.83 167.83 143.09 167.83 142.15V137.56H170.035V141.865C170.035 142.365 170.11 142.73 170.26 142.96C170.41 143.19 170.695 143.305 171.115 143.305C171.395 143.305 171.64 143.245 171.85 143.125C172.07 143.005 172.31 142.78 172.57 142.45V137.56H174.775V145ZM176.435 137.56H178.085L178.25 138.49H178.31C178.45 138.18 178.64 137.92 178.88 137.71C179.13 137.49 179.47 137.38 179.9 137.38C180.23 137.38 180.505 137.485 180.725 137.695C180.955 137.895 181.115 138.195 181.205 138.595C181.345 138.255 181.545 137.97 181.805 137.74C182.075 137.5 182.42 137.38 182.84 137.38C183.36 137.38 183.765 137.595 184.055 138.025C184.345 138.445 184.49 139.03 184.49 139.78V145H182.42V139.945C182.42 139.485 182.28 139.255 182 139.255C181.73 139.255 181.5 139.495 181.31 139.975V145H179.615V139.945C179.615 139.485 179.47 139.255 179.18 139.255C179.04 139.255 178.92 139.315 178.82 139.435C178.72 139.555 178.615 139.735 178.505 139.975V145H176.435V137.56ZM185.969 134.485H188.174V137.065L188.114 138.235C188.404 137.965 188.729 137.755 189.089 137.605C189.459 137.455 189.824 137.38 190.184 137.38C190.644 137.38 191.059 137.47 191.429 137.65C191.809 137.83 192.124 138.085 192.374 138.415C192.634 138.735 192.834 139.13 192.974 139.6C193.114 140.06 193.184 140.575 193.184 141.145C193.184 141.785 193.094 142.355 192.914 142.855C192.734 143.355 192.494 143.78 192.194 144.13C191.894 144.47 191.549 144.73 191.159 144.91C190.779 145.09 190.379 145.18 189.959 145.18C189.609 145.18 189.259 145.095 188.909 144.925C188.569 144.755 188.244 144.51 187.934 144.19H187.874L187.694 145H185.969V134.485ZM188.174 142.885C188.384 143.065 188.599 143.195 188.819 143.275C189.049 143.345 189.264 143.38 189.464 143.38C189.874 143.38 190.219 143.21 190.499 142.87C190.779 142.52 190.919 141.96 190.919 141.19C190.919 139.85 190.464 139.18 189.554 139.18C189.084 139.18 188.624 139.41 188.174 139.87V142.885ZM194.708 141.28C194.708 140.67 194.813 140.125 195.023 139.645C195.243 139.165 195.533 138.76 195.893 138.43C196.253 138.09 196.663 137.83 197.123 137.65C197.593 137.47 198.078 137.38 198.578 137.38C199.148 137.38 199.653 137.47 200.093 137.65C200.533 137.83 200.898 138.08 201.188 138.4C201.478 138.72 201.698 139.1 201.848 139.54C201.998 139.97 202.073 140.44 202.073 140.95C202.073 141.15 202.063 141.34 202.043 141.52C202.023 141.7 202.003 141.835 201.983 141.925H196.973C197.053 142.485 197.293 142.89 197.693 143.14C198.103 143.38 198.583 143.5 199.133 143.5C199.473 143.5 199.793 143.46 200.093 143.38C200.403 143.29 200.723 143.16 201.053 142.99L201.773 144.31C201.353 144.58 200.883 144.795 200.363 144.955C199.843 145.105 199.333 145.18 198.833 145.18C198.253 145.18 197.713 145.095 197.213 144.925C196.713 144.745 196.278 144.49 195.908 144.16C195.538 143.82 195.243 143.41 195.023 142.93C194.813 142.45 194.708 141.9 194.708 141.28ZM200.078 140.47C200.078 140.05 199.963 139.71 199.733 139.45C199.503 139.19 199.133 139.06 198.623 139.06C198.223 139.06 197.868 139.175 197.558 139.405C197.248 139.635 197.043 139.99 196.943 140.47H200.078ZM204.617 137.56H206.417L206.597 139.18H206.642C207.012 138.57 207.457 138.12 207.977 137.83C208.497 137.53 209.057 137.38 209.657 137.38C209.987 137.38 210.252 137.405 210.452 137.455C210.662 137.505 210.877 137.58 211.097 137.68L210.647 139.525C210.417 139.455 210.207 139.405 210.017 139.375C209.837 139.335 209.607 139.315 209.327 139.315C208.867 139.315 208.412 139.45 207.962 139.72C207.522 139.99 207.142 140.46 206.822 141.13V145H204.617V137.56ZM216.176 146.11V135.55H213.446V134.38H217.871V147.28H213.446V146.11H216.176Z" fill="#29A1F8"/>
<path d="M25.74 23.56H27.54L27.72 25.18H27.765C28.135 24.57 28.58 24.12 29.1 23.83C29.62 23.53 30.18 23.38 30.78 23.38C31.11 23.38 31.375 23.405 31.575 23.455C31.785 23.505 32 23.58 32.22 23.68L31.77 25.525C31.54 25.455 31.33 25.405 31.14 25.375C30.96 25.335 30.73 25.315 30.45 25.315C29.99 25.315 29.535 25.45 29.085 25.72C28.645 25.99 28.265 26.46 27.945 27.13V31H25.74V23.56ZM33.6991 27.28C33.6991 26.66 33.8041 26.11 34.0141 25.63C34.2241 25.14 34.5041 24.73 34.8541 24.4C35.2141 24.07 35.6191 23.82 36.0691 23.65C36.5291 23.47 37.0041 23.38 37.4941 23.38C37.9841 23.38 38.4541 23.47 38.9041 23.65C39.3641 23.82 39.7691 24.07 40.1191 24.4C40.4791 24.73 40.7641 25.14 40.9741 25.63C41.1841 26.11 41.2891 26.66 41.2891 27.28C41.2891 27.9 41.1841 28.455 40.9741 28.945C40.7641 29.425 40.4791 29.83 40.1191 30.16C39.7691 30.49 39.3641 30.745 38.9041 30.925C38.4541 31.095 37.9841 31.18 37.4941 31.18C37.0041 31.18 36.5291 31.095 36.0691 30.925C35.6191 30.745 35.2141 30.49 34.8541 30.16C34.5041 29.83 34.2241 29.425 34.0141 28.945C33.8041 28.455 33.6991 27.9 33.6991 27.28ZM35.9641 27.28C35.9641 27.93 36.0891 28.445 36.3391 28.825C36.5991 29.205 36.9841 29.395 37.4941 29.395C38.0041 29.395 38.3841 29.205 38.6341 28.825C38.8941 28.445 39.0241 27.93 39.0241 27.28C39.0241 26.63 38.8941 26.115 38.6341 25.735C38.3841 25.355 38.0041 25.165 37.4941 25.165C36.9841 25.165 36.5991 25.355 36.3391 25.735C36.0891 26.115 35.9641 26.63 35.9641 27.28ZM42.0483 23.56H44.2083L44.6583 27.01C44.7083 27.38 44.7483 27.745 44.7783 28.105C44.8183 28.465 44.8633 28.835 44.9133 29.215H44.9583C45.0083 28.835 45.0583 28.46 45.1083 28.09C45.1583 27.72 45.2233 27.36 45.3033 27.01L45.7683 24.55H47.3133L47.8083 27.01C47.8783 27.38 47.9433 27.745 48.0033 28.105C48.0633 28.465 48.1183 28.835 48.1683 29.215H48.2283C48.2783 28.835 48.3183 28.465 48.3483 28.105C48.3783 27.745 48.4183 27.38 48.4683 27.01L48.9183 23.56H50.9283L49.7733 31H47.2233L46.8033 28.525C46.7533 28.175 46.7033 27.825 46.6533 27.475C46.6133 27.115 46.5683 26.735 46.5183 26.335H46.4583C46.4283 26.605 46.3933 26.91 46.3533 27.25C46.3233 27.59 46.2683 28.015 46.1883 28.525L45.7833 31H43.2783L42.0483 23.56ZM59.0824 31.81V33.46H51.8824V31.81H59.0824ZM68.0316 29.215V31H61.2066V29.215H63.6666V23.71H61.7016V22.345C62.2616 22.245 62.7366 22.125 63.1266 21.985C63.5266 21.845 63.9016 21.675 64.2516 21.475H65.8716V29.215H68.0316ZM98.9681 20.38H103.393V21.55H100.648V32.11H103.393V33.28H98.9681V20.38ZM197.619 32.965C198.919 32.515 199.569 31.805 199.569 30.835C199.529 30.845 199.474 30.85 199.404 30.85C199.194 30.85 198.989 30.82 198.789 30.76C198.599 30.69 198.429 30.59 198.279 30.46C198.129 30.33 198.009 30.17 197.919 29.98C197.829 29.79 197.784 29.57 197.784 29.32C197.784 28.85 197.944 28.475 198.264 28.195C198.594 27.915 198.994 27.775 199.464 27.775C200.084 27.775 200.549 28.005 200.859 28.465C201.169 28.915 201.324 29.545 201.324 30.355C201.324 31.315 201.059 32.125 200.529 32.785C199.999 33.445 199.214 33.935 198.174 34.255L197.619 32.965ZM242.589 32.965C243.889 32.515 244.539 31.805 244.539 30.835C244.499 30.845 244.444 30.85 244.374 30.85C244.164 30.85 243.959 30.82 243.759 30.76C243.569 30.69 243.399 30.59 243.249 30.46C243.099 30.33 242.979 30.17 242.889 29.98C242.799 29.79 242.754 29.57 242.754 29.32C242.754 28.85 242.914 28.475 243.234 28.195C243.564 27.915 243.964 27.775 244.434 27.775C245.054 27.775 245.519 28.005 245.829 28.465C246.139 28.915 246.294 29.545 246.294 30.355C246.294 31.315 246.029 32.125 245.499 32.785C244.969 33.445 244.184 33.935 243.144 34.255L242.589 32.965ZM305.548 32.965C306.848 32.515 307.498 31.805 307.498 30.835C307.458 30.845 307.403 30.85 307.333 30.85C307.123 30.85 306.918 30.82 306.718 30.76C306.528 30.69 306.358 30.59 306.208 30.46C306.058 30.33 305.938 30.17 305.848 29.98C305.758 29.79 305.713 29.57 305.713 29.32C305.713 28.85 305.873 28.475 306.193 28.195C306.523 27.915 306.923 27.775 307.393 27.775C308.013 27.775 308.478 28.005 308.788 28.465C309.098 28.915 309.253 29.545 309.253 30.355C309.253 31.315 308.988 32.125 308.458 32.785C307.928 33.445 307.143 33.935 306.103 34.255L305.548 32.965ZM386.496 32.965C387.796 32.515 388.446 31.805 388.446 30.835C388.406 30.845 388.351 30.85 388.281 30.85C388.071 30.85 387.866 30.82 387.666 30.76C387.476 30.69 387.306 30.59 387.156 30.46C387.006 30.33 386.886 30.17 386.796 29.98C386.706 29.79 386.661 29.57 386.661 29.32C386.661 28.85 386.821 28.475 387.141 28.195C387.471 27.915 387.871 27.775 388.341 27.775C388.961 27.775 389.426 28.005 389.736 28.465C390.046 28.915 390.201 29.545 390.201 30.355C390.201 31.315 389.936 32.125 389.406 32.785C388.876 33.445 388.091 33.935 387.051 34.255L386.496 32.965ZM433.041 32.11V21.55H430.311V20.38H434.736V33.28H430.311V32.11H433.041Z" fill="#232A3D"/>
<path d="M79.0148 23.53H85.9148V25.09H79.0148V23.53ZM79.0148 26.995H85.9148V28.555H79.0148V26.995Z" fill="#BDBDBD"/>
<path d="M261.148 22.9L261.073 20.725H263.623L263.548 22.9L263.023 26.455H261.673L261.148 22.9ZM267.802 21.22H270.007V27.46C270.007 28.05 270.117 28.5 270.337 28.81C270.557 29.12 270.902 29.275 271.372 29.275C271.842 29.275 272.187 29.12 272.407 28.81C272.637 28.5 272.752 28.05 272.752 27.46V21.22H274.882V27.235C274.882 28.515 274.592 29.495 274.012 30.175C273.442 30.845 272.562 31.18 271.372 31.18C270.172 31.18 269.277 30.845 268.687 30.175C268.097 29.495 267.802 28.515 267.802 27.235V21.22ZM277.861 28.255C278.231 28.555 278.631 28.8 279.061 28.99C279.501 29.18 279.936 29.275 280.366 29.275C280.876 29.275 281.246 29.19 281.476 29.02C281.716 28.85 281.836 28.62 281.836 28.33C281.836 28.18 281.801 28.05 281.731 27.94C281.661 27.83 281.561 27.735 281.431 27.655C281.301 27.565 281.141 27.485 280.951 27.415C280.771 27.335 280.561 27.25 280.321 27.16L279.061 26.62C278.791 26.52 278.526 26.39 278.266 26.23C278.016 26.07 277.796 25.885 277.606 25.675C277.416 25.455 277.261 25.205 277.141 24.925C277.031 24.635 276.976 24.31 276.976 23.95C276.976 23.55 277.061 23.175 277.231 22.825C277.411 22.465 277.656 22.155 277.966 21.895C278.286 21.625 278.666 21.415 279.106 21.265C279.546 21.115 280.031 21.04 280.561 21.04C281.161 21.04 281.741 21.15 282.301 21.37C282.861 21.59 283.366 21.91 283.816 22.33L282.691 23.725C282.351 23.475 282.016 23.285 281.686 23.155C281.356 23.015 280.981 22.945 280.561 22.945C280.131 22.945 279.796 23.025 279.556 23.185C279.326 23.335 279.211 23.55 279.211 23.83C279.211 24.13 279.361 24.355 279.661 24.505C279.961 24.655 280.346 24.815 280.816 24.985L282.001 25.495C282.651 25.735 283.161 26.065 283.531 26.485C283.911 26.905 284.101 27.46 284.101 28.15C284.101 28.56 284.016 28.95 283.846 29.32C283.676 29.68 283.431 30 283.111 30.28C282.791 30.55 282.396 30.77 281.926 30.94C281.456 31.1 280.916 31.18 280.306 31.18C279.646 31.18 278.991 31.065 278.341 30.835C277.701 30.595 277.116 30.24 276.586 29.77L277.861 28.255ZM285.805 21.22H288.46C289.17 21.22 289.815 21.315 290.395 21.505C290.975 21.695 291.47 21.99 291.88 22.39C292.29 22.78 292.605 23.28 292.825 23.89C293.055 24.5 293.17 25.225 293.17 26.065C293.17 26.905 293.055 27.635 292.825 28.255C292.605 28.875 292.29 29.39 291.88 29.8C291.48 30.2 291 30.5 290.44 30.7C289.88 30.9 289.26 31 288.58 31H285.805V21.22ZM288.34 29.215C288.72 29.215 289.065 29.16 289.375 29.05C289.695 28.94 289.965 28.765 290.185 28.525C290.415 28.275 290.59 27.95 290.71 27.55C290.84 27.15 290.905 26.655 290.905 26.065C290.905 25.485 290.84 25 290.71 24.61C290.59 24.21 290.415 23.895 290.185 23.665C289.965 23.425 289.695 23.255 289.375 23.155C289.065 23.055 288.72 23.005 288.34 23.005H288.025V29.215H288.34ZM297.124 22.9L297.049 20.725H299.599L299.524 22.9L298.999 26.455H297.649L297.124 22.9Z" fill="#232A3D"/>
<path d="M108.247 22.9L108.172 20.725H110.722L110.647 22.9L110.122 26.455H108.772L108.247 22.9ZM115.561 21.22H122.011V23.08H117.766V25.345H121.381V27.205H117.766V31H115.561V21.22ZM123.851 28.93C123.851 28.51 123.941 28.145 124.121 27.835C124.301 27.515 124.586 27.245 124.976 27.025C125.376 26.805 125.886 26.63 126.506 26.5C127.126 26.36 127.876 26.265 128.756 26.215C128.716 25.875 128.566 25.61 128.306 25.42C128.056 25.23 127.676 25.135 127.166 25.135C126.806 25.135 126.441 25.2 126.071 25.33C125.711 25.45 125.321 25.615 124.901 25.825L124.121 24.385C124.631 24.095 125.176 23.855 125.756 23.665C126.346 23.475 126.961 23.38 127.601 23.38C128.641 23.38 129.461 23.655 130.061 24.205C130.661 24.755 130.961 25.6 130.961 26.74V31H129.161L128.996 30.16H128.936C128.556 30.45 128.141 30.695 127.691 30.895C127.241 31.085 126.776 31.18 126.296 31.18C125.916 31.18 125.576 31.12 125.276 31C124.976 30.89 124.721 30.735 124.511 30.535C124.301 30.325 124.136 30.085 124.016 29.815C123.906 29.545 123.851 29.25 123.851 28.93ZM125.966 28.765C125.966 29.005 126.056 29.185 126.236 29.305C126.426 29.415 126.681 29.47 127.001 29.47C127.331 29.47 127.641 29.405 127.931 29.275C128.221 29.135 128.496 28.965 128.756 28.765V27.535C128.206 27.565 127.751 27.615 127.391 27.685C127.031 27.755 126.746 27.845 126.536 27.955C126.326 28.055 126.176 28.175 126.086 28.315C126.006 28.455 125.966 28.605 125.966 28.765ZM132.935 27.28C132.935 26.66 133.05 26.11 133.28 25.63C133.52 25.14 133.835 24.73 134.225 24.4C134.625 24.07 135.085 23.82 135.605 23.65C136.125 23.47 136.67 23.38 137.24 23.38C137.83 23.38 138.36 23.475 138.83 23.665C139.31 23.855 139.71 24.095 140.03 24.385L139.01 25.75C138.46 25.36 137.91 25.165 137.36 25.165C136.72 25.165 136.2 25.355 135.8 25.735C135.4 26.115 135.2 26.63 135.2 27.28C135.2 27.93 135.39 28.445 135.77 28.825C136.16 29.205 136.665 29.395 137.285 29.395C137.675 29.395 138.035 29.325 138.365 29.185C138.695 29.045 138.99 28.88 139.25 28.69L140.15 30.085C139.7 30.465 139.2 30.745 138.65 30.925C138.11 31.095 137.585 31.18 137.075 31.18C136.485 31.18 135.94 31.095 135.44 30.925C134.94 30.745 134.5 30.49 134.12 30.16C133.75 29.83 133.46 29.425 133.25 28.945C133.04 28.455 132.935 27.9 132.935 27.28ZM141.749 27.28C141.749 26.67 141.854 26.125 142.064 25.645C142.284 25.165 142.574 24.76 142.934 24.43C143.294 24.09 143.704 23.83 144.164 23.65C144.634 23.47 145.119 23.38 145.619 23.38C146.189 23.38 146.694 23.47 147.134 23.65C147.574 23.83 147.939 24.08 148.229 24.4C148.519 24.72 148.739 25.1 148.889 25.54C149.039 25.97 149.114 26.44 149.114 26.95C149.114 27.15 149.104 27.34 149.084 27.52C149.064 27.7 149.044 27.835 149.024 27.925H144.014C144.094 28.485 144.334 28.89 144.734 29.14C145.144 29.38 145.624 29.5 146.174 29.5C146.514 29.5 146.834 29.46 147.134 29.38C147.444 29.29 147.764 29.16 148.094 28.99L148.814 30.31C148.394 30.58 147.924 30.795 147.404 30.955C146.884 31.105 146.374 31.18 145.874 31.18C145.294 31.18 144.754 31.095 144.254 30.925C143.754 30.745 143.319 30.49 142.949 30.16C142.579 29.82 142.284 29.41 142.064 28.93C141.854 28.45 141.749 27.9 141.749 27.28ZM147.119 26.47C147.119 26.05 147.004 25.71 146.774 25.45C146.544 25.19 146.174 25.06 145.664 25.06C145.264 25.06 144.909 25.175 144.599 25.405C144.289 25.635 144.084 25.99 143.984 26.47H147.119ZM150.998 20.485H153.203V23.065L153.143 24.235C153.433 23.965 153.758 23.755 154.118 23.605C154.488 23.455 154.853 23.38 155.213 23.38C155.673 23.38 156.088 23.47 156.458 23.65C156.838 23.83 157.153 24.085 157.403 24.415C157.663 24.735 157.863 25.13 158.003 25.6C158.143 26.06 158.213 26.575 158.213 27.145C158.213 27.785 158.123 28.355 157.943 28.855C157.763 29.355 157.523 29.78 157.223 30.13C156.923 30.47 156.578 30.73 156.188 30.91C155.808 31.09 155.408 31.18 154.988 31.18C154.638 31.18 154.288 31.095 153.938 30.925C153.598 30.755 153.273 30.51 152.963 30.19H152.903L152.723 31H150.998V20.485ZM153.203 28.885C153.413 29.065 153.628 29.195 153.848 29.275C154.078 29.345 154.293 29.38 154.493 29.38C154.903 29.38 155.248 29.21 155.528 28.87C155.808 28.52 155.948 27.96 155.948 27.19C155.948 25.85 155.493 25.18 154.583 25.18C154.113 25.18 153.653 25.41 153.203 25.87V28.885ZM159.617 27.28C159.617 26.66 159.722 26.11 159.932 25.63C160.142 25.14 160.422 24.73 160.772 24.4C161.132 24.07 161.537 23.82 161.987 23.65C162.447 23.47 162.922 23.38 163.412 23.38C163.902 23.38 164.372 23.47 164.822 23.65C165.282 23.82 165.687 24.07 166.037 24.4C166.397 24.73 166.682 25.14 166.892 25.63C167.102 26.11 167.207 26.66 167.207 27.28C167.207 27.9 167.102 28.455 166.892 28.945C166.682 29.425 166.397 29.83 166.037 30.16C165.687 30.49 165.282 30.745 164.822 30.925C164.372 31.095 163.902 31.18 163.412 31.18C162.922 31.18 162.447 31.095 161.987 30.925C161.537 30.745 161.132 30.49 160.772 30.16C160.422 29.83 160.142 29.425 159.932 28.945C159.722 28.455 159.617 27.9 159.617 27.28ZM161.882 27.28C161.882 27.93 162.007 28.445 162.257 28.825C162.517 29.205 162.902 29.395 163.412 29.395C163.922 29.395 164.302 29.205 164.552 28.825C164.812 28.445 164.942 27.93 164.942 27.28C164.942 26.63 164.812 26.115 164.552 25.735C164.302 25.355 163.922 25.165 163.412 25.165C162.902 25.165 162.517 25.355 162.257 25.735C162.007 26.115 161.882 26.63 161.882 27.28ZM168.611 27.28C168.611 26.66 168.716 26.11 168.926 25.63C169.136 25.14 169.416 24.73 169.766 24.4C170.126 24.07 170.531 23.82 170.981 23.65C171.441 23.47 171.916 23.38 172.406 23.38C172.896 23.38 173.366 23.47 173.816 23.65C174.276 23.82 174.681 24.07 175.031 24.4C175.391 24.73 175.676 25.14 175.886 25.63C176.096 26.11 176.201 26.66 176.201 27.28C176.201 27.9 176.096 28.455 175.886 28.945C175.676 29.425 175.391 29.83 175.031 30.16C174.681 30.49 174.276 30.745 173.816 30.925C173.366 31.095 172.896 31.18 172.406 31.18C171.916 31.18 171.441 31.095 170.981 30.925C170.531 30.745 170.126 30.49 169.766 30.16C169.416 29.83 169.136 29.425 168.926 28.945C168.716 28.455 168.611 27.9 168.611 27.28ZM170.876 27.28C170.876 27.93 171.001 28.445 171.251 28.825C171.511 29.205 171.896 29.395 172.406 29.395C172.916 29.395 173.296 29.205 173.546 28.825C173.806 28.445 173.936 27.93 173.936 27.28C173.936 26.63 173.806 26.115 173.546 25.735C173.296 25.355 172.916 25.165 172.406 25.165C171.896 25.165 171.511 25.355 171.251 25.735C171.001 26.115 170.876 26.63 170.876 27.28ZM178.04 20.485H180.245V26.56H180.305L183.035 23.56H185.45L182.63 26.62L185.675 31H183.29L181.34 27.97L180.245 29.125V31H178.04V20.485ZM189.195 22.9L189.12 20.725H191.67L191.595 22.9L191.07 26.455H189.72L189.195 22.9Z" fill="#24A871"/>
<path d="M217.377 31.18C216.827 31.18 216.327 31.075 215.877 30.865C215.427 30.645 215.042 30.325 214.722 29.905C214.402 29.485 214.152 28.965 213.972 28.345C213.802 27.725 213.717 27.01 213.717 26.2C213.717 25.39 213.802 24.68 213.972 24.07C214.152 23.46 214.402 22.95 214.722 22.54C215.042 22.12 215.427 21.81 215.877 21.61C216.327 21.4 216.827 21.295 217.377 21.295C217.927 21.295 218.427 21.4 218.877 21.61C219.327 21.81 219.712 22.12 220.032 22.54C220.352 22.95 220.597 23.46 220.767 24.07C220.947 24.68 221.037 25.39 221.037 26.2C221.037 27.01 220.947 27.725 220.767 28.345C220.597 28.965 220.352 29.485 220.032 29.905C219.712 30.325 219.327 30.645 218.877 30.865C218.427 31.075 217.927 31.18 217.377 31.18ZM217.377 23.005C217.137 23.005 216.912 23.055 216.702 23.155C216.502 23.255 216.327 23.43 216.177 23.68C216.027 23.92 215.907 24.245 215.817 24.655C215.727 25.065 215.682 25.58 215.682 26.2C215.682 26.82 215.727 27.34 215.817 27.76C215.907 28.17 216.027 28.505 216.177 28.765C216.327 29.015 216.502 29.195 216.702 29.305C216.912 29.415 217.137 29.47 217.377 29.47C217.617 29.47 217.837 29.415 218.037 29.305C218.247 29.195 218.427 29.015 218.577 28.765C218.727 28.505 218.847 28.17 218.937 27.76C219.027 27.34 219.072 26.82 219.072 26.2C219.072 25.58 219.027 25.065 218.937 24.655C218.847 24.245 218.727 23.92 218.577 23.68C218.427 23.43 218.247 23.255 218.037 23.155C217.837 23.055 217.617 23.005 217.377 23.005ZM217.377 27.31C217.057 27.31 216.787 27.21 216.567 27.01C216.357 26.8 216.252 26.52 216.252 26.17C216.252 25.82 216.357 25.545 216.567 25.345C216.787 25.135 217.057 25.03 217.377 25.03C217.697 25.03 217.962 25.135 218.172 25.345C218.392 25.545 218.502 25.82 218.502 26.17C218.502 26.52 218.392 26.8 218.172 27.01C217.962 27.21 217.697 27.31 217.377 27.31ZM224.631 29.425C224.631 29.175 224.671 28.945 224.751 28.735C224.841 28.515 224.961 28.325 225.111 28.165C225.261 28.005 225.441 27.88 225.651 27.79C225.871 27.7 226.111 27.655 226.371 27.655C226.631 27.655 226.866 27.7 227.076 27.79C227.296 27.88 227.481 28.005 227.631 28.165C227.781 28.325 227.896 28.515 227.976 28.735C228.066 28.945 228.111 29.175 228.111 29.425C228.111 29.925 227.951 30.345 227.631 30.685C227.311 31.015 226.891 31.18 226.371 31.18C225.851 31.18 225.431 31.015 225.111 30.685C224.791 30.345 224.631 29.925 224.631 29.425ZM235.365 31.18C234.815 31.18 234.315 31.075 233.865 30.865C233.415 30.645 233.03 30.325 232.71 29.905C232.39 29.485 232.14 28.965 231.96 28.345C231.79 27.725 231.705 27.01 231.705 26.2C231.705 25.39 231.79 24.68 231.96 24.07C232.14 23.46 232.39 22.95 232.71 22.54C233.03 22.12 233.415 21.81 233.865 21.61C234.315 21.4 234.815 21.295 235.365 21.295C235.915 21.295 236.415 21.4 236.865 21.61C237.315 21.81 237.7 22.12 238.02 22.54C238.34 22.95 238.585 23.46 238.755 24.07C238.935 24.68 239.025 25.39 239.025 26.2C239.025 27.01 238.935 27.725 238.755 28.345C238.585 28.965 238.34 29.485 238.02 29.905C237.7 30.325 237.315 30.645 236.865 30.865C236.415 31.075 235.915 31.18 235.365 31.18ZM235.365 23.005C235.125 23.005 234.9 23.055 234.69 23.155C234.49 23.255 234.315 23.43 234.165 23.68C234.015 23.92 233.895 24.245 233.805 24.655C233.715 25.065 233.67 25.58 233.67 26.2C233.67 26.82 233.715 27.34 233.805 27.76C233.895 28.17 234.015 28.505 234.165 28.765C234.315 29.015 234.49 29.195 234.69 29.305C234.9 29.415 235.125 29.47 235.365 29.47C235.605 29.47 235.825 29.415 236.025 29.305C236.235 29.195 236.415 29.015 236.565 28.765C236.715 28.505 236.835 28.17 236.925 27.76C237.015 27.34 237.06 26.82 237.06 26.2C237.06 25.58 237.015 25.065 236.925 24.655C236.835 24.245 236.715 23.92 236.565 23.68C236.415 23.43 236.235 23.255 236.025 23.155C235.825 23.055 235.605 23.005 235.365 23.005ZM235.365 27.31C235.045 27.31 234.775 27.21 234.555 27.01C234.345 26.8 234.24 26.52 234.24 26.17C234.24 25.82 234.345 25.545 234.555 25.345C234.775 25.135 235.045 25.03 235.365 25.03C235.685 25.03 235.95 25.135 236.16 25.345C236.38 25.545 236.49 25.82 236.49 26.17C236.49 26.52 236.38 26.8 236.16 27.01C235.95 27.21 235.685 27.31 235.365 27.31ZM321.677 29.74C322.357 29.17 322.977 28.64 323.537 28.15C324.097 27.65 324.577 27.185 324.977 26.755C325.377 26.325 325.687 25.92 325.907 25.54C326.127 25.16 326.237 24.8 326.237 24.46C326.237 23.99 326.102 23.635 325.832 23.395C325.562 23.145 325.177 23.02 324.677 23.02C324.297 23.02 323.947 23.12 323.627 23.32C323.317 23.51 323.027 23.735 322.757 23.995L321.572 22.81C321.822 22.56 322.067 22.34 322.307 22.15C322.557 21.96 322.817 21.805 323.087 21.685C323.367 21.555 323.657 21.46 323.957 21.4C324.267 21.33 324.607 21.295 324.977 21.295C325.477 21.295 325.932 21.37 326.342 21.52C326.752 21.66 327.102 21.865 327.392 22.135C327.692 22.395 327.922 22.71 328.082 23.08C328.252 23.45 328.337 23.865 328.337 24.325C328.337 24.725 328.242 25.135 328.052 25.555C327.862 25.965 327.602 26.38 327.272 26.8C326.952 27.21 326.582 27.625 326.162 28.045C325.742 28.455 325.302 28.86 324.842 29.26C325.112 29.23 325.402 29.205 325.712 29.185C326.032 29.155 326.317 29.14 326.567 29.14H328.832V31H321.677V29.74ZM334.031 25.87C334.311 25.87 334.601 25.8 334.901 25.66C335.201 25.52 335.496 25.275 335.786 24.925C335.726 24.555 335.636 24.245 335.516 23.995C335.406 23.735 335.271 23.53 335.111 23.38C334.961 23.22 334.796 23.11 334.616 23.05C334.436 22.98 334.251 22.945 334.061 22.945C333.871 22.945 333.686 22.975 333.506 23.035C333.336 23.095 333.181 23.19 333.041 23.32C332.911 23.44 332.806 23.6 332.726 23.8C332.646 23.99 332.606 24.22 332.606 24.49C332.606 24.98 332.736 25.335 332.996 25.555C333.256 25.765 333.601 25.87 334.031 25.87ZM331.901 28.72C332.101 28.9 332.351 29.06 332.651 29.2C332.951 29.33 333.261 29.395 333.581 29.395C333.871 29.395 334.146 29.345 334.406 29.245C334.676 29.135 334.911 28.965 335.111 28.735C335.321 28.495 335.491 28.185 335.621 27.805C335.751 27.415 335.826 26.94 335.846 26.38C335.496 26.71 335.111 26.97 334.691 27.16C334.281 27.34 333.901 27.43 333.551 27.43C333.131 27.43 332.741 27.37 332.381 27.25C332.021 27.13 331.706 26.95 331.436 26.71C331.176 26.47 330.971 26.165 330.821 25.795C330.671 25.425 330.596 24.99 330.596 24.49C330.596 24 330.686 23.56 330.866 23.17C331.056 22.77 331.306 22.43 331.616 22.15C331.936 21.87 332.301 21.66 332.711 21.52C333.121 21.37 333.556 21.295 334.016 21.295C334.506 21.295 334.981 21.385 335.441 21.565C335.911 21.745 336.326 22.025 336.686 22.405C337.046 22.785 337.331 23.275 337.541 23.875C337.761 24.465 337.871 25.18 337.871 26.02C337.871 26.91 337.756 27.68 337.526 28.33C337.296 28.98 336.991 29.515 336.611 29.935C336.231 30.355 335.791 30.67 335.291 30.88C334.801 31.08 334.296 31.18 333.776 31.18C333.096 31.18 332.501 31.065 331.991 30.835C331.481 30.605 331.061 30.34 330.731 30.04L331.901 28.72ZM341.69 31C341.73 30.21 341.805 29.485 341.915 28.825C342.035 28.155 342.2 27.52 342.41 26.92C342.63 26.31 342.91 25.72 343.25 25.15C343.59 24.57 344.01 23.965 344.51 23.335H339.725V21.475H346.88V22.825C346.28 23.495 345.795 24.125 345.425 24.715C345.055 25.295 344.765 25.9 344.555 26.53C344.345 27.15 344.195 27.82 344.105 28.54C344.015 29.25 343.95 30.07 343.91 31H341.69ZM352.904 27.04V25.435C352.904 25.135 352.909 24.79 352.919 24.4C352.939 24 352.959 23.65 352.979 23.35H352.919C352.759 23.62 352.589 23.89 352.409 24.16C352.229 24.43 352.054 24.7 351.884 24.97L350.444 27.04H352.904ZM356.159 28.72H354.959V31H352.904V28.72H348.314V27.205L352.289 21.475H354.959V27.04H356.159V28.72ZM361.493 29.53C361.683 29.53 361.863 29.5 362.033 29.44C362.213 29.38 362.368 29.29 362.498 29.17C362.638 29.04 362.748 28.88 362.828 28.69C362.908 28.49 362.948 28.255 362.948 27.985C362.948 27.495 362.818 27.145 362.558 26.935C362.298 26.715 361.958 26.605 361.538 26.605C361.258 26.605 360.968 26.675 360.668 26.815C360.368 26.955 360.073 27.195 359.783 27.535C359.843 27.915 359.928 28.235 360.038 28.495C360.158 28.745 360.293 28.95 360.443 29.11C360.593 29.26 360.758 29.37 360.938 29.44C361.118 29.5 361.303 29.53 361.493 29.53ZM363.668 23.755C363.468 23.575 363.218 23.42 362.918 23.29C362.618 23.15 362.308 23.08 361.988 23.08C361.698 23.08 361.418 23.135 361.148 23.245C360.888 23.345 360.653 23.515 360.443 23.755C360.243 23.985 360.078 24.29 359.948 24.67C359.818 25.05 359.743 25.52 359.723 26.08C360.063 25.75 360.438 25.495 360.848 25.315C361.268 25.135 361.658 25.045 362.018 25.045C362.438 25.045 362.823 25.105 363.173 25.225C363.533 25.345 363.843 25.525 364.103 25.765C364.373 26.005 364.583 26.31 364.733 26.68C364.883 27.05 364.958 27.485 364.958 27.985C364.958 28.485 364.863 28.93 364.673 29.32C364.493 29.71 364.243 30.045 363.923 30.325C363.613 30.605 363.253 30.82 362.843 30.97C362.433 31.11 361.998 31.18 361.538 31.18C361.048 31.18 360.573 31.09 360.113 30.91C359.653 30.73 359.243 30.45 358.883 30.07C358.523 29.69 358.233 29.205 358.013 28.615C357.793 28.015 357.683 27.295 357.683 26.455C357.683 25.565 357.798 24.795 358.028 24.145C358.258 23.495 358.563 22.96 358.943 22.54C359.333 22.12 359.773 21.81 360.263 21.61C360.753 21.4 361.263 21.295 361.793 21.295C362.473 21.295 363.068 21.41 363.578 21.64C364.088 21.86 364.503 22.125 364.823 22.435L363.668 23.755ZM368.672 31C368.712 30.21 368.787 29.485 368.897 28.825C369.017 28.155 369.182 27.52 369.392 26.92C369.612 26.31 369.892 25.72 370.232 25.15C370.572 24.57 370.992 23.965 371.492 23.335H366.707V21.475H373.862V22.825C373.262 23.495 372.777 24.125 372.407 24.715C372.037 25.295 371.747 25.9 371.537 26.53C371.327 27.15 371.177 27.82 371.087 28.54C370.997 29.25 370.932 30.07 370.892 31H368.672ZM379.481 29.53C379.671 29.53 379.851 29.5 380.021 29.44C380.201 29.38 380.356 29.29 380.486 29.17C380.626 29.04 380.736 28.88 380.816 28.69C380.896 28.49 380.936 28.255 380.936 27.985C380.936 27.495 380.806 27.145 380.546 26.935C380.286 26.715 379.946 26.605 379.526 26.605C379.246 26.605 378.956 26.675 378.656 26.815C378.356 26.955 378.061 27.195 377.771 27.535C377.831 27.915 377.916 28.235 378.026 28.495C378.146 28.745 378.281 28.95 378.431 29.11C378.581 29.26 378.746 29.37 378.926 29.44C379.106 29.5 379.291 29.53 379.481 29.53ZM381.656 23.755C381.456 23.575 381.206 23.42 380.906 23.29C380.606 23.15 380.296 23.08 379.976 23.08C379.686 23.08 379.406 23.135 379.136 23.245C378.876 23.345 378.641 23.515 378.431 23.755C378.231 23.985 378.066 24.29 377.936 24.67C377.806 25.05 377.731 25.52 377.711 26.08C378.051 25.75 378.426 25.495 378.836 25.315C379.256 25.135 379.646 25.045 380.006 25.045C380.426 25.045 380.811 25.105 381.161 25.225C381.521 25.345 381.831 25.525 382.091 25.765C382.361 26.005 382.571 26.31 382.721 26.68C382.871 27.05 382.946 27.485 382.946 27.985C382.946 28.485 382.851 28.93 382.661 29.32C382.481 29.71 382.231 30.045 381.911 30.325C381.601 30.605 381.241 30.82 380.831 30.97C380.421 31.11 379.986 31.18 379.526 31.18C379.036 31.18 378.561 31.09 378.101 30.91C377.641 30.73 377.231 30.45 376.871 30.07C376.511 29.69 376.221 29.205 376.001 28.615C375.781 28.015 375.671 27.295 375.671 26.455C375.671 25.565 375.786 24.795 376.016 24.145C376.246 23.495 376.551 22.96 376.931 22.54C377.321 22.12 377.761 21.81 378.251 21.61C378.741 21.4 379.251 21.295 379.781 21.295C380.461 21.295 381.056 21.41 381.566 21.64C382.076 21.86 382.491 22.125 382.811 22.435L381.656 23.755ZM403.404 28.435C403.724 28.715 404.079 28.945 404.469 29.125C404.869 29.305 405.289 29.395 405.729 29.395C406.249 29.395 406.674 29.3 407.004 29.11C407.344 28.91 407.514 28.63 407.514 28.27C407.514 28.06 407.469 27.87 407.379 27.7C407.289 27.53 407.134 27.39 406.914 27.28C406.694 27.16 406.399 27.07 406.029 27.01C405.659 26.94 405.194 26.905 404.634 26.905V25.345C405.574 25.345 406.234 25.23 406.614 25C407.004 24.76 407.199 24.45 407.199 24.07C407.199 23.74 407.074 23.485 406.824 23.305C406.574 23.115 406.229 23.02 405.789 23.02C405.409 23.02 405.059 23.095 404.739 23.245C404.419 23.395 404.094 23.6 403.764 23.86L402.654 22.51C403.124 22.13 403.624 21.835 404.154 21.625C404.694 21.405 405.274 21.295 405.894 21.295C406.414 21.295 406.889 21.355 407.319 21.475C407.749 21.585 408.119 21.755 408.429 21.985C408.739 22.205 408.979 22.475 409.149 22.795C409.319 23.115 409.404 23.485 409.404 23.905C409.404 24.405 409.244 24.83 408.924 25.18C408.604 25.52 408.159 25.8 407.589 26.02V26.08C408.189 26.24 408.694 26.515 409.104 26.905C409.514 27.285 409.719 27.785 409.719 28.405C409.719 28.845 409.614 29.24 409.404 29.59C409.204 29.93 408.929 30.22 408.579 30.46C408.239 30.69 407.839 30.87 407.379 31C406.919 31.12 406.439 31.18 405.939 31.18C405.119 31.18 404.414 31.06 403.824 30.82C403.234 30.57 402.754 30.24 402.384 29.83L403.404 28.435ZM413.508 29.425C413.508 29.175 413.548 28.945 413.628 28.735C413.718 28.515 413.838 28.325 413.988 28.165C414.138 28.005 414.318 27.88 414.528 27.79C414.748 27.7 414.988 27.655 415.248 27.655C415.508 27.655 415.743 27.7 415.953 27.79C416.173 27.88 416.358 28.005 416.508 28.165C416.658 28.325 416.773 28.515 416.853 28.735C416.943 28.945 416.988 29.175 416.988 29.425C416.988 29.925 416.828 30.345 416.508 30.685C416.188 31.015 415.768 31.18 415.248 31.18C414.728 31.18 414.308 31.015 413.988 30.685C413.668 30.345 413.508 29.925 413.508 29.425ZM421.422 28.45C421.742 28.71 422.082 28.935 422.442 29.125C422.812 29.305 423.222 29.395 423.672 29.395C424.212 29.395 424.652 29.27 424.992 29.02C425.342 28.77 425.517 28.4 425.517 27.91C425.517 27.43 425.352 27.065 425.022 26.815C424.702 26.565 424.287 26.44 423.777 26.44C423.617 26.44 423.472 26.45 423.342 26.47C423.222 26.48 423.102 26.505 422.982 26.545C422.862 26.585 422.737 26.635 422.607 26.695C422.477 26.755 422.332 26.83 422.172 26.92L421.197 26.29L421.452 21.475H427.287V23.335H423.357L423.192 25.12C423.412 25.04 423.617 24.985 423.807 24.955C423.997 24.915 424.212 24.895 424.452 24.895C424.892 24.895 425.307 24.955 425.697 25.075C426.097 25.195 426.447 25.375 426.747 25.615C427.047 25.855 427.282 26.16 427.452 26.53C427.632 26.9 427.722 27.34 427.722 27.85C427.722 28.38 427.617 28.85 427.407 29.26C427.207 29.67 426.932 30.02 426.582 30.31C426.242 30.59 425.847 30.805 425.397 30.955C424.947 31.105 424.477 31.18 423.987 31.18C423.157 31.18 422.452 31.055 421.872 30.805C421.302 30.545 420.822 30.225 420.432 29.845L421.422 28.45Z" fill="#232A3D"/>
<path d="M58.3 269.9L58.225 267.725H60.775L60.7 269.9L60.175 273.455H58.825L58.3 269.9ZM65.6141 268.22H72.0641V270.08H67.8191V272.345H71.4341V274.205H67.8191V278H65.6141V268.22ZM73.9033 275.93C73.9033 275.51 73.9933 275.145 74.1733 274.835C74.3533 274.515 74.6383 274.245 75.0283 274.025C75.4283 273.805 75.9383 273.63 76.5583 273.5C77.1783 273.36 77.9283 273.265 78.8083 273.215C78.7683 272.875 78.6183 272.61 78.3583 272.42C78.1083 272.23 77.7283 272.135 77.2183 272.135C76.8583 272.135 76.4933 272.2 76.1233 272.33C75.7633 272.45 75.3733 272.615 74.9533 272.825L74.1733 271.385C74.6833 271.095 75.2283 270.855 75.8083 270.665C76.3983 270.475 77.0133 270.38 77.6533 270.38C78.6933 270.38 79.5133 270.655 80.1133 271.205C80.7133 271.755 81.0133 272.6 81.0133 273.74V278H79.2133L79.0483 277.16H78.9883C78.6083 277.45 78.1933 277.695 77.7433 277.895C77.2933 278.085 76.8283 278.18 76.3483 278.18C75.9683 278.18 75.6283 278.12 75.3283 278C75.0283 277.89 74.7733 277.735 74.5633 277.535C74.3533 277.325 74.1883 277.085 74.0683 276.815C73.9583 276.545 73.9033 276.25 73.9033 275.93ZM76.0183 275.765C76.0183 276.005 76.1083 276.185 76.2883 276.305C76.4783 276.415 76.7333 276.47 77.0533 276.47C77.3833 276.47 77.6933 276.405 77.9833 276.275C78.2733 276.135 78.5483 275.965 78.8083 275.765V274.535C78.2583 274.565 77.8033 274.615 77.4433 274.685C77.0833 274.755 76.7983 274.845 76.5883 274.955C76.3783 275.055 76.2283 275.175 76.1383 275.315C76.0583 275.455 76.0183 275.605 76.0183 275.765ZM82.9874 274.28C82.9874 273.66 83.1024 273.11 83.3324 272.63C83.5724 272.14 83.8874 271.73 84.2774 271.4C84.6774 271.07 85.1374 270.82 85.6574 270.65C86.1774 270.47 86.7224 270.38 87.2924 270.38C87.8824 270.38 88.4124 270.475 88.8824 270.665C89.3624 270.855 89.7624 271.095 90.0824 271.385L89.0624 272.75C88.5124 272.36 87.9624 272.165 87.4124 272.165C86.7724 272.165 86.2524 272.355 85.8524 272.735C85.4524 273.115 85.2524 273.63 85.2524 274.28C85.2524 274.93 85.4424 275.445 85.8224 275.825C86.2124 276.205 86.7174 276.395 87.3374 276.395C87.7274 276.395 88.0874 276.325 88.4174 276.185C88.7474 276.045 89.0424 275.88 89.3024 275.69L90.2024 277.085C89.7524 277.465 89.2524 277.745 88.7024 277.925C88.1624 278.095 87.6374 278.18 87.1274 278.18C86.5374 278.18 85.9924 278.095 85.4924 277.925C84.9924 277.745 84.5524 277.49 84.1724 277.16C83.8024 276.83 83.5124 276.425 83.3024 275.945C83.0924 275.455 82.9874 274.9 82.9874 274.28ZM91.8016 274.28C91.8016 273.67 91.9066 273.125 92.1166 272.645C92.3366 272.165 92.6266 271.76 92.9866 271.43C93.3466 271.09 93.7566 270.83 94.2166 270.65C94.6866 270.47 95.1716 270.38 95.6716 270.38C96.2416 270.38 96.7466 270.47 97.1866 270.65C97.6266 270.83 97.9916 271.08 98.2816 271.4C98.5716 271.72 98.7916 272.1 98.9416 272.54C99.0916 272.97 99.1666 273.44 99.1666 273.95C99.1666 274.15 99.1566 274.34 99.1366 274.52C99.1166 274.7 99.0966 274.835 99.0766 274.925H94.0666C94.1466 275.485 94.3866 275.89 94.7866 276.14C95.1966 276.38 95.6766 276.5 96.2266 276.5C96.5666 276.5 96.8866 276.46 97.1866 276.38C97.4966 276.29 97.8166 276.16 98.1466 275.99L98.8666 277.31C98.4466 277.58 97.9766 277.795 97.4566 277.955C96.9366 278.105 96.4266 278.18 95.9266 278.18C95.3466 278.18 94.8066 278.095 94.3066 277.925C93.8066 277.745 93.3716 277.49 93.0016 277.16C92.6316 276.82 92.3366 276.41 92.1166 275.93C91.9066 275.45 91.8016 274.9 91.8016 274.28ZM97.1716 273.47C97.1716 273.05 97.0566 272.71 96.8266 272.45C96.5966 272.19 96.2266 272.06 95.7166 272.06C95.3166 272.06 94.9616 272.175 94.6516 272.405C94.3416 272.635 94.1366 272.99 94.0366 273.47H97.1716ZM101.051 267.485H103.256V270.065L103.196 271.235C103.486 270.965 103.811 270.755 104.171 270.605C104.541 270.455 104.906 270.38 105.266 270.38C105.726 270.38 106.141 270.47 106.511 270.65C106.891 270.83 107.206 271.085 107.456 271.415C107.716 271.735 107.916 272.13 108.056 272.6C108.196 273.06 108.266 273.575 108.266 274.145C108.266 274.785 108.176 275.355 107.996 275.855C107.816 276.355 107.576 276.78 107.276 277.13C106.976 277.47 106.631 277.73 106.241 277.91C105.861 278.09 105.461 278.18 105.041 278.18C104.691 278.18 104.341 278.095 103.991 277.925C103.651 277.755 103.326 277.51 103.016 277.19H102.956L102.776 278H101.051V267.485ZM103.256 275.885C103.466 276.065 103.681 276.195 103.901 276.275C104.131 276.345 104.346 276.38 104.546 276.38C104.956 276.38 105.301 276.21 105.581 275.87C105.861 275.52 106.001 274.96 106.001 274.19C106.001 272.85 105.546 272.18 104.636 272.18C104.166 272.18 103.706 272.41 103.256 272.87V275.885ZM109.67 274.28C109.67 273.66 109.775 273.11 109.985 272.63C110.195 272.14 110.475 271.73 110.825 271.4C111.185 271.07 111.59 270.82 112.04 270.65C112.5 270.47 112.975 270.38 113.465 270.38C113.955 270.38 114.425 270.47 114.875 270.65C115.335 270.82 115.74 271.07 116.09 271.4C116.45 271.73 116.735 272.14 116.945 272.63C117.155 273.11 117.26 273.66 117.26 274.28C117.26 274.9 117.155 275.455 116.945 275.945C116.735 276.425 116.45 276.83 116.09 277.16C115.74 277.49 115.335 277.745 114.875 277.925C114.425 278.095 113.955 278.18 113.465 278.18C112.975 278.18 112.5 278.095 112.04 277.925C111.59 277.745 111.185 277.49 110.825 277.16C110.475 276.83 110.195 276.425 109.985 275.945C109.775 275.455 109.67 274.9 109.67 274.28ZM111.935 274.28C111.935 274.93 112.06 275.445 112.31 275.825C112.57 276.205 112.955 276.395 113.465 276.395C113.975 276.395 114.355 276.205 114.605 275.825C114.865 275.445 114.995 274.93 114.995 274.28C114.995 273.63 114.865 273.115 114.605 272.735C114.355 272.355 113.975 272.165 113.465 272.165C112.955 272.165 112.57 272.355 112.31 272.735C112.06 273.115 111.935 273.63 111.935 274.28ZM118.664 274.28C118.664 273.66 118.769 273.11 118.979 272.63C119.189 272.14 119.469 271.73 119.819 271.4C120.179 271.07 120.584 270.82 121.034 270.65C121.494 270.47 121.969 270.38 122.459 270.38C122.949 270.38 123.419 270.47 123.869 270.65C124.329 270.82 124.734 271.07 125.084 271.4C125.444 271.73 125.729 272.14 125.939 272.63C126.149 273.11 126.254 273.66 126.254 274.28C126.254 274.9 126.149 275.455 125.939 275.945C125.729 276.425 125.444 276.83 125.084 277.16C124.734 277.49 124.329 277.745 123.869 277.925C123.419 278.095 122.949 278.18 122.459 278.18C121.969 278.18 121.494 278.095 121.034 277.925C120.584 277.745 120.179 277.49 119.819 277.16C119.469 276.83 119.189 276.425 118.979 275.945C118.769 275.455 118.664 274.9 118.664 274.28ZM120.929 274.28C120.929 274.93 121.054 275.445 121.304 275.825C121.564 276.205 121.949 276.395 122.459 276.395C122.969 276.395 123.349 276.205 123.599 275.825C123.859 275.445 123.989 274.93 123.989 274.28C123.989 273.63 123.859 273.115 123.599 272.735C123.349 272.355 122.969 272.165 122.459 272.165C121.949 272.165 121.564 272.355 121.304 272.735C121.054 273.115 120.929 273.63 120.929 274.28ZM128.093 267.485H130.298V273.56H130.358L133.088 270.56H135.503L132.683 273.62L135.728 278H133.343L131.393 274.97L130.298 276.125V278H128.093V267.485ZM139.247 269.9L139.172 267.725H141.722L141.647 269.9L141.122 273.455H139.772L139.247 269.9Z" fill="#24A871"/>
<path d="M149.47 63.5303C149.763 63.8232 150.237 63.8232 150.53 63.5303L155.303 58.7574C155.596 58.4645 155.596 57.9896 155.303 57.6967C155.01 57.4038 154.536 57.4038 154.243 57.6967L150 61.9393L145.757 57.6967C145.464 57.4038 144.99 57.4038 144.697 57.6967C144.404 57.9896 144.404 58.4645 144.697 58.7574L149.47 63.5303ZM149.25 42V63H150.75V42H149.25Z" fill="#ABB3C9"/>
<path d="M149.47 122.53C149.763 122.823 150.237 122.823 150.53 122.53L155.303 117.757C155.596 117.464 155.596 116.99 155.303 116.697C155.01 116.404 154.536 116.404 154.243 116.697L150 120.939L145.757 116.697C145.464 116.404 144.99 116.404 144.697 116.697C144.404 116.99 144.404 117.464 144.697 117.757L149.47 122.53ZM149.25 90V122H150.75V90H149.25Z" fill="#ABB3C9"/>
<path d="M87.0317 192.749C87.4455 192.732 87.7668 192.382 87.7493 191.968L87.4644 185.224C87.4469 184.811 87.0972 184.489 86.6834 184.507C86.2695 184.524 85.9482 184.874 85.9657 185.288L86.219 191.282L80.2244 191.536C79.8105 191.553 79.4892 191.903 79.5067 192.317C79.5242 192.73 79.8738 193.052 80.2877 193.034L87.0317 192.749ZM49.4925 158.552L86.4925 192.552L87.5075 191.448L50.5075 157.448L49.4925 158.552Z" fill="#BAC4D1"/>
<path d="M122.251 192.039C122.273 192.453 122.626 192.771 123.039 192.749L129.78 192.394C130.194 192.372 130.511 192.019 130.49 191.606C130.468 191.192 130.115 190.874 129.701 190.896L123.71 191.212L123.394 185.22C123.372 184.806 123.019 184.489 122.606 184.51C122.192 184.532 121.874 184.885 121.896 185.299L122.251 192.039ZM149.443 161.498L122.443 191.498L123.557 192.502L150.557 162.502L149.443 161.498Z" fill="#BAC4D1"/>
<path d="M49.4697 122.53C49.7626 122.823 50.2374 122.823 50.5303 122.53L55.3033 117.757C55.5962 117.464 55.5962 116.99 55.3033 116.697C55.0104 116.404 54.5355 116.404 54.2426 116.697L50 120.939L45.7574 116.697C45.4645 116.404 44.9896 116.404 44.6967 116.697C44.4038 116.99 44.4038 117.464 44.6967 117.757L49.4697 122.53ZM49.25 42V122H50.75V42H49.25Z" fill="#ABB3C9"/>
<path d="M224.47 63.5303C224.763 63.8232 225.237 63.8232 225.53 63.5303L230.303 58.7574C230.596 58.4645 230.596 57.9896 230.303 57.6967C230.01 57.4038 229.536 57.4038 229.243 57.6967L225 61.9393L220.757 57.6967C220.464 57.4038 219.99 57.4038 219.697 57.6967C219.404 57.9896 219.404 58.4645 219.697 58.7574L224.47 63.5303ZM224.25 42V63H225.75V42H224.25Z" fill="#BAC4D1"/>
<path d="M99.4697 258.53C99.7626 258.823 100.237 258.823 100.53 258.53L105.303 253.757C105.596 253.464 105.596 252.99 105.303 252.697C105.01 252.404 104.536 252.404 104.243 252.697L100 256.939L95.7574 252.697C95.4645 252.404 94.9896 252.404 94.6967 252.697C94.4038 252.99 94.4038 253.464 94.6967 253.757L99.4697 258.53ZM99.25 221V258H100.75V221H99.25Z" fill="#BAC4D1"/>
<path d="M280.47 63.5303C280.763 63.8232 281.237 63.8232 281.53 63.5303L286.303 58.7574C286.596 58.4645 286.596 57.9896 286.303 57.6967C286.01 57.4038 285.536 57.4038 285.243 57.6967L281 61.9393L276.757 57.6967C276.464 57.4038 275.99 57.4038 275.697 57.6967C275.404 57.9896 275.404 58.4645 275.697 58.7574L280.47 63.5303ZM280.25 42V63H281.75V42H280.25Z" fill="#BAC4D1"/>
<path d="M350.47 63.5303C350.763 63.8232 351.237 63.8232 351.53 63.5303L356.303 58.7574C356.596 58.4645 356.596 57.9896 356.303 57.6967C356.01 57.4038 355.536 57.4038 355.243 57.6967L351 61.9393L346.757 57.6967C346.464 57.4038 345.99 57.4038 345.697 57.6967C345.404 57.9896 345.404 58.4645 345.697 58.7574L350.47 63.5303ZM350.25 42V63H351.75V42H350.25Z" fill="#BAC4D1"/>
<path d="M414.47 63.5303C414.763 63.8232 415.237 63.8232 415.53 63.5303L420.303 58.7574C420.596 58.4645 420.596 57.9896 420.303 57.6967C420.01 57.4038 419.536 57.4038 419.243 57.6967L415 61.9393L410.757 57.6967C410.464 57.4038 409.99 57.4038 409.697 57.6967C409.404 57.9896 409.404 58.4645 409.697 58.7574L414.47 63.5303ZM414.25 42V63H415.75V42H414.25Z" fill="#BAC4D1"/>
</svg>
