<svg width="491" height="271" viewBox="0 0 491 271" fill="none" xmlns="http://www.w3.org/2000/svg">
<rect width="491" height="271" fill="white"/>
<path d="M15.1056 137V128.072H17.2656L17.4816 130.016H17.5356C17.9796 129.284 18.5136 128.744 19.1376 128.396C19.7616 128.036 20.4336 127.856 21.1536 127.856C21.5496 127.856 21.8676 127.886 22.1076 127.946C22.3596 128.006 22.6176 128.096 22.8816 128.216L22.3416 130.43C22.0656 130.346 21.8136 130.286 21.5856 130.25C21.3696 130.202 21.0936 130.178 20.7576 130.178C20.2056 130.178 19.6596 130.34 19.1196 130.664C18.5916 130.988 18.1356 131.552 17.7516 132.356V137H15.1056ZM29.2105 137.216C28.6225 137.216 28.0525 137.114 27.5005 136.91C26.9605 136.694 26.4745 136.388 26.0425 135.992C25.6225 135.596 25.2865 135.11 25.0345 134.534C24.7825 133.946 24.6565 133.28 24.6565 132.536C24.6565 131.792 24.7825 131.132 25.0345 130.556C25.2865 129.968 25.6225 129.476 26.0425 129.08C26.4745 128.684 26.9605 128.384 27.5005 128.18C28.0525 127.964 28.6225 127.856 29.2105 127.856C29.7985 127.856 30.3625 127.964 30.9025 128.18C31.4545 128.384 31.9405 128.684 32.3605 129.08C32.7925 129.476 33.1345 129.968 33.3865 130.556C33.6385 131.132 33.7645 131.792 33.7645 132.536C33.7645 133.28 33.6385 133.946 33.3865 134.534C33.1345 135.11 32.7925 135.596 32.3605 135.992C31.9405 136.388 31.4545 136.694 30.9025 136.91C30.3625 137.114 29.7985 137.216 29.2105 137.216ZM29.2105 135.074C29.8225 135.074 30.2785 134.846 30.5785 134.39C30.8905 133.934 31.0465 133.316 31.0465 132.536C31.0465 131.756 30.8905 131.138 30.5785 130.682C30.2785 130.226 29.8225 129.998 29.2105 129.998C28.5985 129.998 28.1365 130.226 27.8245 130.682C27.5245 131.138 27.3745 131.756 27.3745 132.536C27.3745 133.316 27.5245 133.934 27.8245 134.39C28.1365 134.846 28.5985 135.074 29.2105 135.074ZM36.1335 137L34.6755 128.072H37.2315L37.7895 132.212C37.8495 132.656 37.8975 133.094 37.9335 133.526C37.9695 133.958 38.0175 134.402 38.0775 134.858H38.1315C38.1915 134.402 38.2515 133.952 38.3115 133.508C38.3715 133.064 38.4495 132.632 38.5455 132.212L39.1035 129.26H41.0295L41.6055 132.212C41.7015 132.656 41.7855 133.094 41.8575 133.526C41.9295 133.958 41.9955 134.402 42.0555 134.858H42.1275C42.1875 134.402 42.2295 133.958 42.2535 133.526C42.2895 133.094 42.3315 132.656 42.3795 132.212L42.8835 128.072H45.3315L43.9635 137H40.8495L40.3635 134.102C40.3035 133.718 40.2495 133.31 40.2015 132.878C40.1535 132.446 40.0995 131.972 40.0395 131.456H39.9675C39.9315 131.84 39.8895 132.236 39.8415 132.644C39.7935 133.052 39.7335 133.538 39.6615 134.102L39.1935 137H36.1335ZM46.4765 139.952V137.972H55.1165V139.952H46.4765ZM57.6115 137V134.858H60.6895V128.252H58.1515V126.614C58.5355 126.554 58.8775 126.494 59.1775 126.434C59.4895 126.362 59.7715 126.284 60.0235 126.2C60.2755 126.116 60.5095 126.026 60.7255 125.93C60.9535 125.822 61.1755 125.702 61.3915 125.57H63.3355V134.858H65.9275V137H57.6115Z" fill="#232A3D"/>
<path d="M205.61 228V216.264H209.768C210.404 216.264 210.998 216.33 211.55 216.462C212.114 216.582 212.6 216.792 213.008 217.092C213.428 217.38 213.758 217.77 213.998 218.262C214.238 218.742 214.358 219.336 214.358 220.044C214.358 220.728 214.232 221.322 213.98 221.826C213.74 222.33 213.41 222.744 212.99 223.068C212.57 223.392 212.084 223.632 211.532 223.788C210.98 223.944 210.392 224.022 209.768 224.022H208.256V228H205.61ZM208.256 221.916H209.606C211.046 221.916 211.766 221.292 211.766 220.044C211.766 219.432 211.58 219 211.208 218.748C210.848 218.496 210.314 218.37 209.606 218.37H208.256V221.916ZM220.453 228.216C219.865 228.216 219.295 228.114 218.743 227.91C218.203 227.694 217.717 227.388 217.285 226.992C216.865 226.596 216.529 226.11 216.277 225.534C216.025 224.946 215.899 224.28 215.899 223.536C215.899 222.792 216.025 222.132 216.277 221.556C216.529 220.968 216.865 220.476 217.285 220.08C217.717 219.684 218.203 219.384 218.743 219.18C219.295 218.964 219.865 218.856 220.453 218.856C221.041 218.856 221.605 218.964 222.145 219.18C222.697 219.384 223.183 219.684 223.603 220.08C224.035 220.476 224.377 220.968 224.629 221.556C224.881 222.132 225.007 222.792 225.007 223.536C225.007 224.28 224.881 224.946 224.629 225.534C224.377 226.11 224.035 226.596 223.603 226.992C223.183 227.388 222.697 227.694 222.145 227.91C221.605 228.114 221.041 228.216 220.453 228.216ZM220.453 226.074C221.065 226.074 221.521 225.846 221.821 225.39C222.133 224.934 222.289 224.316 222.289 223.536C222.289 222.756 222.133 222.138 221.821 221.682C221.521 221.226 221.065 220.998 220.453 220.998C219.841 220.998 219.379 221.226 219.067 221.682C218.767 222.138 218.617 222.756 218.617 223.536C218.617 224.316 218.767 224.934 219.067 225.39C219.379 225.846 219.841 226.074 220.453 226.074ZM231.174 228.216C230.37 228.216 229.584 228.084 228.816 227.82C228.048 227.556 227.376 227.232 226.8 226.848L227.934 225.192C228.486 225.54 229.062 225.804 229.662 225.984C230.262 226.164 230.886 226.254 231.534 226.254C232.026 226.254 232.386 226.182 232.614 226.038C232.842 225.894 232.956 225.714 232.956 225.498C232.956 225.378 232.92 225.27 232.848 225.174C232.788 225.078 232.674 224.994 232.506 224.922C232.35 224.838 232.128 224.76 231.84 224.688C231.552 224.616 231.192 224.532 230.76 224.436C229.548 224.172 228.678 223.818 228.15 223.374C227.622 222.918 227.358 222.342 227.358 221.646C227.358 221.238 227.454 220.86 227.646 220.512C227.838 220.164 228.108 219.87 228.456 219.63C228.816 219.39 229.248 219.204 229.752 219.072C230.256 218.928 230.826 218.856 231.462 218.856C232.266 218.856 232.992 218.988 233.64 219.252C234.3 219.504 234.864 219.78 235.332 220.08L234.144 221.664C233.688 221.388 233.214 221.178 232.722 221.034C232.23 220.89 231.732 220.818 231.228 220.818C230.808 220.818 230.496 220.884 230.292 221.016C230.088 221.148 229.986 221.316 229.986 221.52C229.986 221.772 230.142 221.952 230.454 222.06C230.766 222.168 231.3 222.306 232.056 222.474C232.74 222.63 233.31 222.798 233.766 222.978C234.222 223.158 234.582 223.362 234.846 223.59C235.11 223.818 235.296 224.076 235.404 224.364C235.512 224.652 235.566 224.976 235.566 225.336C235.566 225.744 235.47 226.122 235.278 226.47C235.086 226.818 234.804 227.124 234.432 227.388C234.072 227.64 233.616 227.844 233.064 228C232.524 228.144 231.894 228.216 231.174 228.216ZM241.643 228V221.142H238.061V219.072H244.289V228H241.643ZM242.849 217.668C242.333 217.668 241.907 217.524 241.571 217.236C241.247 216.948 241.085 216.558 241.085 216.066C241.085 215.574 241.247 215.178 241.571 214.878C241.907 214.566 242.333 214.41 242.849 214.41C243.365 214.41 243.785 214.566 244.109 214.878C244.445 215.178 244.613 215.574 244.613 216.066C244.613 216.558 244.445 216.948 244.109 217.236C243.785 217.524 243.365 217.668 242.849 217.668ZM254.416 228.216C253.708 228.216 253.108 228.12 252.616 227.928C252.124 227.736 251.722 227.472 251.41 227.136C251.11 226.788 250.894 226.374 250.762 225.894C250.63 225.414 250.564 224.88 250.564 224.292V221.142H248.314V219.18L250.69 219.072L251.032 216.336H253.21V219.072H256.99V221.142H253.21V224.274C253.21 224.958 253.36 225.444 253.66 225.732C253.96 226.008 254.44 226.146 255.1 226.146C255.436 226.146 255.742 226.116 256.018 226.056C256.306 225.996 256.588 225.918 256.864 225.822L257.332 227.73C256.936 227.85 256.498 227.958 256.018 228.054C255.55 228.162 255.016 228.216 254.416 228.216ZM263.229 228V221.142H259.647V219.072H265.875V228H263.229ZM264.435 217.668C263.919 217.668 263.493 217.524 263.157 217.236C262.833 216.948 262.671 216.558 262.671 216.066C262.671 215.574 262.833 215.178 263.157 214.878C263.493 214.566 263.919 214.41 264.435 214.41C264.951 214.41 265.371 214.566 265.695 214.878C266.031 215.178 266.199 215.574 266.199 216.066C266.199 216.558 266.031 216.948 265.695 217.236C265.371 217.524 264.951 217.668 264.435 217.668ZM272.942 228L269.576 219.072H272.24L273.644 223.284C273.788 223.74 273.926 224.196 274.058 224.652C274.19 225.108 274.322 225.57 274.454 226.038H274.526C274.658 225.57 274.784 225.108 274.904 224.652C275.036 224.196 275.174 223.74 275.318 223.284L276.722 219.072H279.26L275.984 228H272.942ZM285.751 228.216C285.055 228.216 284.401 228.114 283.789 227.91C283.189 227.694 282.667 227.388 282.223 226.992C281.779 226.596 281.431 226.11 281.179 225.534C280.927 224.946 280.801 224.28 280.801 223.536C280.801 222.804 280.927 222.15 281.179 221.574C281.443 220.986 281.791 220.494 282.223 220.098C282.655 219.69 283.147 219.384 283.699 219.18C284.263 218.964 284.845 218.856 285.445 218.856C286.129 218.856 286.735 218.964 287.263 219.18C287.791 219.396 288.229 219.696 288.577 220.08C288.937 220.464 289.207 220.92 289.387 221.448C289.567 221.964 289.657 222.528 289.657 223.14C289.657 223.38 289.639 223.614 289.603 223.842C289.579 224.058 289.555 224.22 289.531 224.328H283.447C283.579 224.976 283.873 225.45 284.329 225.75C284.785 226.05 285.379 226.2 286.111 226.2C286.519 226.2 286.903 226.146 287.263 226.038C287.635 225.93 288.019 225.774 288.415 225.57L289.297 227.172C288.781 227.496 288.211 227.754 287.587 227.946C286.963 228.126 286.351 228.216 285.751 228.216ZM285.535 220.872C285.007 220.872 284.563 221.01 284.203 221.286C283.855 221.562 283.615 221.982 283.483 222.546H287.299C287.167 221.43 286.579 220.872 285.535 220.872ZM302.728 228V225.768H305.464V218.496H302.728V216.264H310.864V218.496H308.128V225.768H310.864V228H302.728ZM313.485 228V219.072H315.645L315.843 220.26H315.915C316.299 219.876 316.737 219.546 317.229 219.27C317.733 218.994 318.321 218.856 318.993 218.856C320.001 218.856 320.739 219.18 321.207 219.828C321.675 220.476 321.909 221.364 321.909 222.492V228H319.263V222.834C319.263 222.234 319.167 221.796 318.975 221.52C318.783 221.244 318.441 221.106 317.949 221.106C317.589 221.106 317.271 221.184 316.995 221.34C316.731 221.496 316.443 221.73 316.131 222.042V228H313.485ZM327.59 228.216C327.026 228.216 326.51 228.108 326.042 227.892C325.586 227.676 325.19 227.37 324.854 226.974C324.53 226.566 324.278 226.074 324.098 225.498C323.918 224.922 323.828 224.268 323.828 223.536C323.828 222.804 323.936 222.15 324.152 221.574C324.368 220.998 324.65 220.512 324.998 220.116C325.358 219.708 325.766 219.396 326.222 219.18C326.678 218.964 327.152 218.856 327.644 218.856C328.148 218.856 328.574 218.94 328.922 219.108C329.27 219.264 329.594 219.498 329.894 219.81H329.966L329.84 218.424V215.382H332.486V228H330.326L330.128 227.082H330.074C329.738 227.406 329.354 227.676 328.922 227.892C328.49 228.108 328.046 228.216 327.59 228.216ZM328.274 226.056C328.574 226.056 328.85 225.996 329.102 225.876C329.354 225.744 329.6 225.528 329.84 225.228V221.61C329.6 221.394 329.354 221.244 329.102 221.16C328.862 221.064 328.61 221.016 328.346 221.016C327.854 221.016 327.428 221.22 327.068 221.628C326.72 222.036 326.546 222.66 326.546 223.5C326.546 224.388 326.696 225.036 326.996 225.444C327.296 225.852 327.722 226.056 328.274 226.056ZM339.715 228.216C339.019 228.216 338.365 228.114 337.753 227.91C337.153 227.694 336.631 227.388 336.187 226.992C335.743 226.596 335.395 226.11 335.143 225.534C334.891 224.946 334.765 224.28 334.765 223.536C334.765 222.804 334.891 222.15 335.143 221.574C335.407 220.986 335.755 220.494 336.187 220.098C336.619 219.69 337.111 219.384 337.663 219.18C338.227 218.964 338.809 218.856 339.409 218.856C340.093 218.856 340.699 218.964 341.227 219.18C341.755 219.396 342.193 219.696 342.541 220.08C342.901 220.464 343.171 220.92 343.351 221.448C343.531 221.964 343.621 222.528 343.621 223.14C343.621 223.38 343.603 223.614 343.567 223.842C343.543 224.058 343.519 224.22 343.495 224.328H337.411C337.543 224.976 337.837 225.45 338.293 225.75C338.749 226.05 339.343 226.2 340.075 226.2C340.483 226.2 340.867 226.146 341.227 226.038C341.599 225.93 341.983 225.774 342.379 225.57L343.261 227.172C342.745 227.496 342.175 227.754 341.551 227.946C340.927 228.126 340.315 228.216 339.715 228.216ZM339.499 220.872C338.971 220.872 338.527 221.01 338.167 221.286C337.819 221.562 337.579 221.982 337.447 222.546H341.263C341.131 221.43 340.543 220.872 339.499 220.872ZM345.234 228L348.33 223.356L345.432 219.072H348.276L349.194 220.512C349.326 220.764 349.476 221.022 349.644 221.286C349.812 221.538 349.974 221.79 350.13 222.042H350.202C350.322 221.79 350.442 221.532 350.562 221.268C350.694 221.004 350.82 220.752 350.94 220.512L351.732 219.072H354.504L351.588 223.662L354.684 228H351.84L350.814 226.524C350.646 226.272 350.472 226.014 350.292 225.75C350.124 225.486 349.956 225.228 349.788 224.976H349.716C349.584 225.228 349.446 225.486 349.302 225.75C349.158 226.002 349.02 226.26 348.888 226.524L348.006 228H345.234ZM360.365 228V221.142H356.783V219.072H363.011V228H360.365ZM361.571 217.668C361.055 217.668 360.629 217.524 360.293 217.236C359.969 216.948 359.807 216.558 359.807 216.066C359.807 215.574 359.969 215.178 360.293 214.878C360.629 214.566 361.055 214.41 361.571 214.41C362.087 214.41 362.507 214.566 362.831 214.878C363.167 215.178 363.335 215.574 363.335 216.066C363.335 216.558 363.167 216.948 362.831 217.236C362.507 217.524 362.087 217.668 361.571 217.668ZM367.45 228V219.072H369.61L369.808 220.26H369.88C370.264 219.876 370.702 219.546 371.194 219.27C371.698 218.994 372.286 218.856 372.958 218.856C373.966 218.856 374.704 219.18 375.172 219.828C375.64 220.476 375.874 221.364 375.874 222.492V228H373.228V222.834C373.228 222.234 373.132 221.796 372.94 221.52C372.748 221.244 372.406 221.106 371.914 221.106C371.554 221.106 371.236 221.184 370.96 221.34C370.696 221.496 370.408 221.73 370.096 222.042V228H367.45ZM381.933 231.798C381.357 231.798 380.817 231.75 380.313 231.654C379.821 231.57 379.395 231.432 379.035 231.24C378.675 231.06 378.393 230.826 378.189 230.538C377.985 230.25 377.883 229.908 377.883 229.512C377.883 228.78 378.345 228.186 379.269 227.73V227.658C379.017 227.502 378.801 227.304 378.621 227.064C378.453 226.824 378.369 226.512 378.369 226.128C378.369 225.828 378.465 225.528 378.657 225.228C378.861 224.928 379.119 224.67 379.431 224.454V224.382C379.107 224.166 378.831 223.866 378.603 223.482C378.375 223.086 378.261 222.624 378.261 222.096C378.261 221.556 378.363 221.088 378.567 220.692C378.783 220.284 379.065 219.948 379.413 219.684C379.761 219.408 380.163 219.204 380.619 219.072C381.087 218.928 381.573 218.856 382.077 218.856C382.629 218.856 383.121 218.928 383.553 219.072H387.171V221.016H385.371C385.467 221.148 385.557 221.322 385.641 221.538C385.725 221.742 385.767 221.958 385.767 222.186C385.767 222.702 385.671 223.146 385.479 223.518C385.287 223.89 385.023 224.202 384.687 224.454C384.363 224.694 383.973 224.874 383.517 224.994C383.073 225.114 382.593 225.174 382.077 225.174C381.693 225.174 381.285 225.114 380.853 224.994C380.721 225.09 380.619 225.186 380.547 225.282C380.487 225.378 380.457 225.504 380.457 225.66C380.457 225.9 380.577 226.074 380.817 226.182C381.057 226.278 381.441 226.326 381.969 226.326H383.625C384.801 226.326 385.695 226.5 386.307 226.848C386.931 227.196 387.243 227.772 387.243 228.576C387.243 229.044 387.117 229.476 386.865 229.872C386.613 230.268 386.259 230.604 385.803 230.88C385.347 231.168 384.789 231.39 384.129 231.546C383.469 231.714 382.737 231.798 381.933 231.798ZM382.077 223.572C382.449 223.572 382.767 223.452 383.031 223.212C383.295 222.96 383.427 222.588 383.427 222.096C383.427 221.628 383.295 221.268 383.031 221.016C382.767 220.764 382.449 220.638 382.077 220.638C381.705 220.638 381.387 220.764 381.123 221.016C380.871 221.268 380.745 221.628 380.745 222.096C380.745 222.588 380.871 222.96 381.123 223.212C381.387 223.452 381.705 223.572 382.077 223.572ZM382.311 230.124C383.031 230.124 383.613 230.022 384.057 229.818C384.501 229.614 384.723 229.356 384.723 229.044C384.723 228.756 384.591 228.57 384.327 228.486C384.063 228.402 383.673 228.36 383.157 228.36H382.041C381.717 228.36 381.447 228.348 381.231 228.324C381.027 228.312 380.841 228.282 380.673 228.234C380.445 228.378 380.283 228.516 380.187 228.648C380.091 228.792 380.043 228.948 380.043 229.116C380.043 229.452 380.241 229.704 380.637 229.872C381.045 230.04 381.603 230.124 382.311 230.124Z" fill="#29A1F8"/>
<path d="M205.448 38V26.264H208.166L210.632 32.096L211.64 34.688H211.712C211.652 34.064 211.574 33.374 211.478 32.618C211.382 31.85 211.334 31.118 211.334 30.422V26.264H213.872V38H211.154L208.688 32.15L207.68 29.594H207.608C207.668 30.242 207.746 30.938 207.842 31.682C207.938 32.426 207.986 33.146 207.986 33.842V38H205.448ZM220.993 38.216C220.297 38.216 219.643 38.114 219.031 37.91C218.431 37.694 217.909 37.388 217.465 36.992C217.021 36.596 216.673 36.11 216.421 35.534C216.169 34.946 216.043 34.28 216.043 33.536C216.043 32.804 216.169 32.15 216.421 31.574C216.685 30.986 217.033 30.494 217.465 30.098C217.897 29.69 218.389 29.384 218.941 29.18C219.505 28.964 220.087 28.856 220.687 28.856C221.371 28.856 221.977 28.964 222.505 29.18C223.033 29.396 223.471 29.696 223.819 30.08C224.179 30.464 224.449 30.92 224.629 31.448C224.809 31.964 224.899 32.528 224.899 33.14C224.899 33.38 224.881 33.614 224.845 33.842C224.821 34.058 224.797 34.22 224.773 34.328H218.689C218.821 34.976 219.115 35.45 219.571 35.75C220.027 36.05 220.621 36.2 221.353 36.2C221.761 36.2 222.145 36.146 222.505 36.038C222.877 35.93 223.261 35.774 223.657 35.57L224.539 37.172C224.023 37.496 223.453 37.754 222.829 37.946C222.205 38.126 221.593 38.216 220.993 38.216ZM220.777 30.872C220.249 30.872 219.805 31.01 219.445 31.286C219.097 31.562 218.857 31.982 218.725 32.546H222.541C222.409 31.43 221.821 30.872 220.777 30.872ZM230.832 41.798C230.256 41.798 229.716 41.75 229.212 41.654C228.72 41.57 228.294 41.432 227.934 41.24C227.574 41.06 227.292 40.826 227.088 40.538C226.884 40.25 226.782 39.908 226.782 39.512C226.782 38.78 227.244 38.186 228.168 37.73V37.658C227.916 37.502 227.7 37.304 227.52 37.064C227.352 36.824 227.268 36.512 227.268 36.128C227.268 35.828 227.364 35.528 227.556 35.228C227.76 34.928 228.018 34.67 228.33 34.454V34.382C228.006 34.166 227.73 33.866 227.502 33.482C227.274 33.086 227.16 32.624 227.16 32.096C227.16 31.556 227.262 31.088 227.466 30.692C227.682 30.284 227.964 29.948 228.312 29.684C228.66 29.408 229.062 29.204 229.518 29.072C229.986 28.928 230.472 28.856 230.976 28.856C231.528 28.856 232.02 28.928 232.452 29.072H236.07V31.016H234.27C234.366 31.148 234.456 31.322 234.54 31.538C234.624 31.742 234.666 31.958 234.666 32.186C234.666 32.702 234.57 33.146 234.378 33.518C234.186 33.89 233.922 34.202 233.586 34.454C233.262 34.694 232.872 34.874 232.416 34.994C231.972 35.114 231.492 35.174 230.976 35.174C230.592 35.174 230.184 35.114 229.752 34.994C229.62 35.09 229.518 35.186 229.446 35.282C229.386 35.378 229.356 35.504 229.356 35.66C229.356 35.9 229.476 36.074 229.716 36.182C229.956 36.278 230.34 36.326 230.868 36.326H232.524C233.7 36.326 234.594 36.5 235.206 36.848C235.83 37.196 236.142 37.772 236.142 38.576C236.142 39.044 236.016 39.476 235.764 39.872C235.512 40.268 235.158 40.604 234.702 40.88C234.246 41.168 233.688 41.39 233.028 41.546C232.368 41.714 231.636 41.798 230.832 41.798ZM230.976 33.572C231.348 33.572 231.666 33.452 231.93 33.212C232.194 32.96 232.326 32.588 232.326 32.096C232.326 31.628 232.194 31.268 231.93 31.016C231.666 30.764 231.348 30.638 230.976 30.638C230.604 30.638 230.286 30.764 230.022 31.016C229.77 31.268 229.644 31.628 229.644 32.096C229.644 32.588 229.77 32.96 230.022 33.212C230.286 33.452 230.604 33.572 230.976 33.572ZM231.21 40.124C231.93 40.124 232.512 40.022 232.956 39.818C233.4 39.614 233.622 39.356 233.622 39.044C233.622 38.756 233.49 38.57 233.226 38.486C232.962 38.402 232.572 38.36 232.056 38.36H230.94C230.616 38.36 230.346 38.348 230.13 38.324C229.926 38.312 229.74 38.282 229.572 38.234C229.344 38.378 229.182 38.516 229.086 38.648C228.99 38.792 228.942 38.948 228.942 39.116C228.942 39.452 229.14 39.704 229.536 39.872C229.944 40.04 230.502 40.124 231.21 40.124ZM240.671 38.216C240.215 38.216 239.807 38.144 239.447 38C239.087 37.868 238.781 37.682 238.529 37.442C238.277 37.19 238.079 36.902 237.935 36.578C237.803 36.254 237.737 35.9 237.737 35.516C237.737 35.012 237.845 34.574 238.061 34.202C238.277 33.818 238.619 33.494 239.087 33.23C239.567 32.966 240.179 32.756 240.923 32.6C241.667 32.432 242.567 32.318 243.623 32.258C243.575 31.85 243.395 31.532 243.083 31.304C242.783 31.076 242.327 30.962 241.715 30.962C241.283 30.962 240.845 31.04 240.401 31.196C239.969 31.34 239.501 31.538 238.997 31.79L238.061 30.062C238.673 29.714 239.327 29.426 240.023 29.198C240.731 28.97 241.469 28.856 242.237 28.856C243.485 28.856 244.469 29.186 245.189 29.846C245.909 30.506 246.269 31.52 246.269 32.888V38H244.109L243.911 36.992H243.839C243.383 37.34 242.885 37.634 242.345 37.874C241.805 38.102 241.247 38.216 240.671 38.216ZM241.517 36.164C241.913 36.164 242.285 36.086 242.633 35.93C242.981 35.762 243.311 35.558 243.623 35.318V33.842C242.963 33.878 242.417 33.938 241.985 34.022C241.553 34.106 241.211 34.214 240.959 34.346C240.707 34.466 240.527 34.61 240.419 34.778C240.323 34.946 240.275 35.126 240.275 35.318C240.275 35.606 240.383 35.822 240.599 35.966C240.827 36.098 241.133 36.164 241.517 36.164ZM254.416 38.216C253.708 38.216 253.108 38.12 252.616 37.928C252.124 37.736 251.722 37.472 251.41 37.136C251.11 36.788 250.894 36.374 250.762 35.894C250.63 35.414 250.564 34.88 250.564 34.292V31.142H248.314V29.18L250.69 29.072L251.032 26.336H253.21V29.072H256.99V31.142H253.21V34.274C253.21 34.958 253.36 35.444 253.66 35.732C253.96 36.008 254.44 36.146 255.1 36.146C255.436 36.146 255.742 36.116 256.018 36.056C256.306 35.996 256.588 35.918 256.864 35.822L257.332 37.73C256.936 37.85 256.498 37.958 256.018 38.054C255.55 38.162 255.016 38.216 254.416 38.216ZM263.229 38V31.142H259.647V29.072H265.875V38H263.229ZM264.435 27.668C263.919 27.668 263.493 27.524 263.157 27.236C262.833 26.948 262.671 26.558 262.671 26.066C262.671 25.574 262.833 25.178 263.157 24.878C263.493 24.566 263.919 24.41 264.435 24.41C264.951 24.41 265.371 24.566 265.695 24.878C266.031 25.178 266.199 25.574 266.199 26.066C266.199 26.558 266.031 26.948 265.695 27.236C265.371 27.524 264.951 27.668 264.435 27.668ZM272.942 38L269.576 29.072H272.24L273.644 33.284C273.788 33.74 273.926 34.196 274.058 34.652C274.19 35.108 274.322 35.57 274.454 36.038H274.526C274.658 35.57 274.784 35.108 274.904 34.652C275.036 34.196 275.174 33.74 275.318 33.284L276.722 29.072H279.26L275.984 38H272.942ZM285.751 38.216C285.055 38.216 284.401 38.114 283.789 37.91C283.189 37.694 282.667 37.388 282.223 36.992C281.779 36.596 281.431 36.11 281.179 35.534C280.927 34.946 280.801 34.28 280.801 33.536C280.801 32.804 280.927 32.15 281.179 31.574C281.443 30.986 281.791 30.494 282.223 30.098C282.655 29.69 283.147 29.384 283.699 29.18C284.263 28.964 284.845 28.856 285.445 28.856C286.129 28.856 286.735 28.964 287.263 29.18C287.791 29.396 288.229 29.696 288.577 30.08C288.937 30.464 289.207 30.92 289.387 31.448C289.567 31.964 289.657 32.528 289.657 33.14C289.657 33.38 289.639 33.614 289.603 33.842C289.579 34.058 289.555 34.22 289.531 34.328H283.447C283.579 34.976 283.873 35.45 284.329 35.75C284.785 36.05 285.379 36.2 286.111 36.2C286.519 36.2 286.903 36.146 287.263 36.038C287.635 35.93 288.019 35.774 288.415 35.57L289.297 37.172C288.781 37.496 288.211 37.754 287.587 37.946C286.963 38.126 286.351 38.216 285.751 38.216ZM285.535 30.872C285.007 30.872 284.563 31.01 284.203 31.286C283.855 31.562 283.615 31.982 283.483 32.546H287.299C287.167 31.43 286.579 30.872 285.535 30.872ZM302.728 38V35.768H305.464V28.496H302.728V26.264H310.864V28.496H308.128V35.768H310.864V38H302.728ZM313.485 38V29.072H315.645L315.843 30.26H315.915C316.299 29.876 316.737 29.546 317.229 29.27C317.733 28.994 318.321 28.856 318.993 28.856C320.001 28.856 320.739 29.18 321.207 29.828C321.675 30.476 321.909 31.364 321.909 32.492V38H319.263V32.834C319.263 32.234 319.167 31.796 318.975 31.52C318.783 31.244 318.441 31.106 317.949 31.106C317.589 31.106 317.271 31.184 316.995 31.34C316.731 31.496 316.443 31.73 316.131 32.042V38H313.485ZM327.59 38.216C327.026 38.216 326.51 38.108 326.042 37.892C325.586 37.676 325.19 37.37 324.854 36.974C324.53 36.566 324.278 36.074 324.098 35.498C323.918 34.922 323.828 34.268 323.828 33.536C323.828 32.804 323.936 32.15 324.152 31.574C324.368 30.998 324.65 30.512 324.998 30.116C325.358 29.708 325.766 29.396 326.222 29.18C326.678 28.964 327.152 28.856 327.644 28.856C328.148 28.856 328.574 28.94 328.922 29.108C329.27 29.264 329.594 29.498 329.894 29.81H329.966L329.84 28.424V25.382H332.486V38H330.326L330.128 37.082H330.074C329.738 37.406 329.354 37.676 328.922 37.892C328.49 38.108 328.046 38.216 327.59 38.216ZM328.274 36.056C328.574 36.056 328.85 35.996 329.102 35.876C329.354 35.744 329.6 35.528 329.84 35.228V31.61C329.6 31.394 329.354 31.244 329.102 31.16C328.862 31.064 328.61 31.016 328.346 31.016C327.854 31.016 327.428 31.22 327.068 31.628C326.72 32.036 326.546 32.66 326.546 33.5C326.546 34.388 326.696 35.036 326.996 35.444C327.296 35.852 327.722 36.056 328.274 36.056ZM339.715 38.216C339.019 38.216 338.365 38.114 337.753 37.91C337.153 37.694 336.631 37.388 336.187 36.992C335.743 36.596 335.395 36.11 335.143 35.534C334.891 34.946 334.765 34.28 334.765 33.536C334.765 32.804 334.891 32.15 335.143 31.574C335.407 30.986 335.755 30.494 336.187 30.098C336.619 29.69 337.111 29.384 337.663 29.18C338.227 28.964 338.809 28.856 339.409 28.856C340.093 28.856 340.699 28.964 341.227 29.18C341.755 29.396 342.193 29.696 342.541 30.08C342.901 30.464 343.171 30.92 343.351 31.448C343.531 31.964 343.621 32.528 343.621 33.14C343.621 33.38 343.603 33.614 343.567 33.842C343.543 34.058 343.519 34.22 343.495 34.328H337.411C337.543 34.976 337.837 35.45 338.293 35.75C338.749 36.05 339.343 36.2 340.075 36.2C340.483 36.2 340.867 36.146 341.227 36.038C341.599 35.93 341.983 35.774 342.379 35.57L343.261 37.172C342.745 37.496 342.175 37.754 341.551 37.946C340.927 38.126 340.315 38.216 339.715 38.216ZM339.499 30.872C338.971 30.872 338.527 31.01 338.167 31.286C337.819 31.562 337.579 31.982 337.447 32.546H341.263C341.131 31.43 340.543 30.872 339.499 30.872ZM345.234 38L348.33 33.356L345.432 29.072H348.276L349.194 30.512C349.326 30.764 349.476 31.022 349.644 31.286C349.812 31.538 349.974 31.79 350.13 32.042H350.202C350.322 31.79 350.442 31.532 350.562 31.268C350.694 31.004 350.82 30.752 350.94 30.512L351.732 29.072H354.504L351.588 33.662L354.684 38H351.84L350.814 36.524C350.646 36.272 350.472 36.014 350.292 35.75C350.124 35.486 349.956 35.228 349.788 34.976H349.716C349.584 35.228 349.446 35.486 349.302 35.75C349.158 36.002 349.02 36.26 348.888 36.524L348.006 38H345.234ZM360.365 38V31.142H356.783V29.072H363.011V38H360.365ZM361.571 27.668C361.055 27.668 360.629 27.524 360.293 27.236C359.969 26.948 359.807 26.558 359.807 26.066C359.807 25.574 359.969 25.178 360.293 24.878C360.629 24.566 361.055 24.41 361.571 24.41C362.087 24.41 362.507 24.566 362.831 24.878C363.167 25.178 363.335 25.574 363.335 26.066C363.335 26.558 363.167 26.948 362.831 27.236C362.507 27.524 362.087 27.668 361.571 27.668ZM367.45 38V29.072H369.61L369.808 30.26H369.88C370.264 29.876 370.702 29.546 371.194 29.27C371.698 28.994 372.286 28.856 372.958 28.856C373.966 28.856 374.704 29.18 375.172 29.828C375.64 30.476 375.874 31.364 375.874 32.492V38H373.228V32.834C373.228 32.234 373.132 31.796 372.94 31.52C372.748 31.244 372.406 31.106 371.914 31.106C371.554 31.106 371.236 31.184 370.96 31.34C370.696 31.496 370.408 31.73 370.096 32.042V38H367.45ZM381.933 41.798C381.357 41.798 380.817 41.75 380.313 41.654C379.821 41.57 379.395 41.432 379.035 41.24C378.675 41.06 378.393 40.826 378.189 40.538C377.985 40.25 377.883 39.908 377.883 39.512C377.883 38.78 378.345 38.186 379.269 37.73V37.658C379.017 37.502 378.801 37.304 378.621 37.064C378.453 36.824 378.369 36.512 378.369 36.128C378.369 35.828 378.465 35.528 378.657 35.228C378.861 34.928 379.119 34.67 379.431 34.454V34.382C379.107 34.166 378.831 33.866 378.603 33.482C378.375 33.086 378.261 32.624 378.261 32.096C378.261 31.556 378.363 31.088 378.567 30.692C378.783 30.284 379.065 29.948 379.413 29.684C379.761 29.408 380.163 29.204 380.619 29.072C381.087 28.928 381.573 28.856 382.077 28.856C382.629 28.856 383.121 28.928 383.553 29.072H387.171V31.016H385.371C385.467 31.148 385.557 31.322 385.641 31.538C385.725 31.742 385.767 31.958 385.767 32.186C385.767 32.702 385.671 33.146 385.479 33.518C385.287 33.89 385.023 34.202 384.687 34.454C384.363 34.694 383.973 34.874 383.517 34.994C383.073 35.114 382.593 35.174 382.077 35.174C381.693 35.174 381.285 35.114 380.853 34.994C380.721 35.09 380.619 35.186 380.547 35.282C380.487 35.378 380.457 35.504 380.457 35.66C380.457 35.9 380.577 36.074 380.817 36.182C381.057 36.278 381.441 36.326 381.969 36.326H383.625C384.801 36.326 385.695 36.5 386.307 36.848C386.931 37.196 387.243 37.772 387.243 38.576C387.243 39.044 387.117 39.476 386.865 39.872C386.613 40.268 386.259 40.604 385.803 40.88C385.347 41.168 384.789 41.39 384.129 41.546C383.469 41.714 382.737 41.798 381.933 41.798ZM382.077 33.572C382.449 33.572 382.767 33.452 383.031 33.212C383.295 32.96 383.427 32.588 383.427 32.096C383.427 31.628 383.295 31.268 383.031 31.016C382.767 30.764 382.449 30.638 382.077 30.638C381.705 30.638 381.387 30.764 381.123 31.016C380.871 31.268 380.745 31.628 380.745 32.096C380.745 32.588 380.871 32.96 381.123 33.212C381.387 33.452 381.705 33.572 382.077 33.572ZM382.311 40.124C383.031 40.124 383.613 40.022 384.057 39.818C384.501 39.614 384.723 39.356 384.723 39.044C384.723 38.756 384.591 38.57 384.327 38.486C384.063 38.402 383.673 38.36 383.157 38.36H382.041C381.717 38.36 381.447 38.348 381.231 38.324C381.027 38.312 380.841 38.282 380.673 38.234C380.445 38.378 380.283 38.516 380.187 38.648C380.091 38.792 380.043 38.948 380.043 39.116C380.043 39.452 380.241 39.704 380.637 39.872C381.045 40.04 381.603 40.124 382.311 40.124Z" fill="#C74E4E"/>
<path d="M81.5 114.5H204.5V151.5H81.5V114.5Z" stroke="#30394B" stroke-width="3"/>
<path d="M94.4532 132.78C93.7812 132.78 93.2592 132.528 92.8872 132.024C92.5272 131.52 92.3472 130.812 92.3472 129.9C92.3472 128.916 92.6052 128.052 93.1212 127.308C93.6492 126.552 94.4412 125.934 95.4972 125.454L96.1812 126.858C95.5572 127.146 95.0772 127.494 94.7412 127.902C94.4052 128.31 94.2132 128.802 94.1652 129.378C94.2852 129.342 94.4112 129.324 94.5432 129.324C95.0232 129.324 95.4132 129.474 95.7132 129.774C96.0252 130.062 96.1812 130.458 96.1812 130.962C96.1812 131.514 96.0192 131.958 95.6952 132.294C95.3712 132.618 94.9572 132.78 94.4532 132.78ZM101.718 138V126.264H109.512V128.496H104.364V131.214H108.756V133.446H104.364V138H101.718ZM114.653 138.216C114.197 138.216 113.789 138.144 113.429 138C113.069 137.868 112.763 137.682 112.511 137.442C112.259 137.19 112.061 136.902 111.917 136.578C111.785 136.254 111.719 135.9 111.719 135.516C111.719 135.012 111.827 134.574 112.043 134.202C112.259 133.818 112.601 133.494 113.069 133.23C113.549 132.966 114.161 132.756 114.905 132.6C115.649 132.432 116.549 132.318 117.605 132.258C117.557 131.85 117.377 131.532 117.065 131.304C116.765 131.076 116.309 130.962 115.697 130.962C115.265 130.962 114.827 131.04 114.383 131.196C113.951 131.34 113.483 131.538 112.979 131.79L112.043 130.062C112.655 129.714 113.309 129.426 114.005 129.198C114.713 128.97 115.451 128.856 116.219 128.856C117.467 128.856 118.451 129.186 119.171 129.846C119.891 130.506 120.251 131.52 120.251 132.888V138H118.091L117.893 136.992H117.821C117.365 137.34 116.867 137.634 116.327 137.874C115.787 138.102 115.229 138.216 114.653 138.216ZM115.499 136.164C115.895 136.164 116.267 136.086 116.615 135.93C116.963 135.762 117.293 135.558 117.605 135.318V133.842C116.945 133.878 116.399 133.938 115.967 134.022C115.535 134.106 115.193 134.214 114.941 134.346C114.689 134.466 114.509 134.61 114.401 134.778C114.305 134.946 114.257 135.126 114.257 135.318C114.257 135.606 114.365 135.822 114.581 135.966C114.809 136.098 115.115 136.164 115.499 136.164ZM127.588 138.216C126.88 138.216 126.226 138.114 125.626 137.91C125.026 137.694 124.498 137.388 124.042 136.992C123.598 136.596 123.25 136.11 122.998 135.534C122.746 134.946 122.62 134.28 122.62 133.536C122.62 132.792 122.758 132.132 123.034 131.556C123.322 130.968 123.7 130.476 124.168 130.08C124.648 129.684 125.2 129.384 125.824 129.18C126.448 128.964 127.102 128.856 127.786 128.856C128.494 128.856 129.13 128.97 129.694 129.198C130.27 129.426 130.75 129.714 131.134 130.062L129.91 131.7C129.25 131.232 128.59 130.998 127.93 130.998C127.162 130.998 126.538 131.226 126.058 131.682C125.578 132.138 125.338 132.756 125.338 133.536C125.338 134.316 125.566 134.934 126.022 135.39C126.49 135.846 127.096 136.074 127.84 136.074C128.308 136.074 128.734 135.99 129.118 135.822C129.514 135.654 129.874 135.456 130.198 135.228L131.26 136.902C130.72 137.358 130.126 137.694 129.478 137.91C128.83 138.114 128.2 138.216 127.588 138.216ZM138.147 138.216C137.451 138.216 136.797 138.114 136.185 137.91C135.585 137.694 135.063 137.388 134.619 136.992C134.175 136.596 133.827 136.11 133.575 135.534C133.323 134.946 133.197 134.28 133.197 133.536C133.197 132.804 133.323 132.15 133.575 131.574C133.839 130.986 134.187 130.494 134.619 130.098C135.051 129.69 135.543 129.384 136.095 129.18C136.659 128.964 137.241 128.856 137.841 128.856C138.525 128.856 139.131 128.964 139.659 129.18C140.187 129.396 140.625 129.696 140.973 130.08C141.333 130.464 141.603 130.92 141.783 131.448C141.963 131.964 142.053 132.528 142.053 133.14C142.053 133.38 142.035 133.614 141.999 133.842C141.975 134.058 141.951 134.22 141.927 134.328H135.843C135.975 134.976 136.269 135.45 136.725 135.75C137.181 136.05 137.775 136.2 138.507 136.2C138.915 136.2 139.299 136.146 139.659 136.038C140.031 135.93 140.415 135.774 140.811 135.57L141.693 137.172C141.177 137.496 140.607 137.754 139.983 137.946C139.359 138.126 138.747 138.216 138.147 138.216ZM137.931 130.872C137.403 130.872 136.959 131.01 136.599 131.286C136.251 131.562 136.011 131.982 135.879 132.546H139.695C139.563 131.43 138.975 130.872 137.931 130.872ZM149.084 138.216C148.664 138.216 148.244 138.114 147.824 137.91C147.416 137.706 147.026 137.412 146.654 137.028H146.582L146.366 138H144.296V125.382H146.942V128.478L146.852 129.882H146.906C147.242 129.558 147.626 129.306 148.058 129.126C148.49 128.946 148.922 128.856 149.354 128.856C149.906 128.856 150.404 128.964 150.848 129.18C151.304 129.396 151.682 129.702 151.982 130.098C152.294 130.482 152.534 130.956 152.702 131.52C152.87 132.072 152.954 132.69 152.954 133.374C152.954 134.142 152.846 134.826 152.63 135.426C152.414 136.026 152.126 136.536 151.766 136.956C151.406 137.364 150.992 137.676 150.524 137.892C150.068 138.108 149.588 138.216 149.084 138.216ZM148.49 136.056C148.982 136.056 149.396 135.852 149.732 135.444C150.068 135.024 150.236 134.352 150.236 133.428C150.236 131.82 149.69 131.016 148.598 131.016C148.034 131.016 147.482 131.292 146.942 131.844V135.462C147.194 135.678 147.452 135.834 147.716 135.93C147.992 136.014 148.25 136.056 148.49 136.056ZM159.193 138.216C158.605 138.216 158.035 138.114 157.483 137.91C156.943 137.694 156.457 137.388 156.025 136.992C155.605 136.596 155.269 136.11 155.017 135.534C154.765 134.946 154.639 134.28 154.639 133.536C154.639 132.792 154.765 132.132 155.017 131.556C155.269 130.968 155.605 130.476 156.025 130.08C156.457 129.684 156.943 129.384 157.483 129.18C158.035 128.964 158.605 128.856 159.193 128.856C159.781 128.856 160.345 128.964 160.885 129.18C161.437 129.384 161.923 129.684 162.343 130.08C162.775 130.476 163.117 130.968 163.369 131.556C163.621 132.132 163.747 132.792 163.747 133.536C163.747 134.28 163.621 134.946 163.369 135.534C163.117 136.11 162.775 136.596 162.343 136.992C161.923 137.388 161.437 137.694 160.885 137.91C160.345 138.114 159.781 138.216 159.193 138.216ZM159.193 136.074C159.805 136.074 160.261 135.846 160.561 135.39C160.873 134.934 161.029 134.316 161.029 133.536C161.029 132.756 160.873 132.138 160.561 131.682C160.261 131.226 159.805 130.998 159.193 130.998C158.581 130.998 158.119 131.226 157.807 131.682C157.507 132.138 157.357 132.756 157.357 133.536C157.357 134.316 157.507 134.934 157.807 135.39C158.119 135.846 158.581 136.074 159.193 136.074ZM169.986 138.216C169.398 138.216 168.828 138.114 168.276 137.91C167.736 137.694 167.25 137.388 166.818 136.992C166.398 136.596 166.062 136.11 165.81 135.534C165.558 134.946 165.432 134.28 165.432 133.536C165.432 132.792 165.558 132.132 165.81 131.556C166.062 130.968 166.398 130.476 166.818 130.08C167.25 129.684 167.736 129.384 168.276 129.18C168.828 128.964 169.398 128.856 169.986 128.856C170.574 128.856 171.138 128.964 171.678 129.18C172.23 129.384 172.716 129.684 173.136 130.08C173.568 130.476 173.91 130.968 174.162 131.556C174.414 132.132 174.54 132.792 174.54 133.536C174.54 134.28 174.414 134.946 174.162 135.534C173.91 136.11 173.568 136.596 173.136 136.992C172.716 137.388 172.23 137.694 171.678 137.91C171.138 138.114 170.574 138.216 169.986 138.216ZM169.986 136.074C170.598 136.074 171.054 135.846 171.354 135.39C171.666 134.934 171.822 134.316 171.822 133.536C171.822 132.756 171.666 132.138 171.354 131.682C171.054 131.226 170.598 130.998 169.986 130.998C169.374 130.998 168.912 131.226 168.6 131.682C168.3 132.138 168.15 132.756 168.15 133.536C168.15 134.316 168.3 134.934 168.6 135.39C168.912 135.846 169.374 136.074 169.986 136.074ZM176.747 138V125.382H179.393V132.672H179.465L182.741 129.072H185.639L182.237 132.708L185.909 138H183.047L180.707 134.346L179.393 135.75V138H176.747ZM190.51 132.78L189.808 131.376C191.068 130.812 191.734 129.978 191.806 128.874C191.698 128.91 191.584 128.928 191.464 128.928C190.972 128.928 190.57 128.778 190.258 128.478C189.958 128.178 189.808 127.776 189.808 127.272C189.808 126.72 189.97 126.282 190.294 125.958C190.618 125.622 191.032 125.454 191.536 125.454C192.22 125.454 192.742 125.712 193.102 126.228C193.462 126.732 193.642 127.434 193.642 128.334C193.642 129.318 193.384 130.188 192.868 130.944C192.352 131.688 191.566 132.3 190.51 132.78Z" fill="#232A3D"/>
<path d="M143.004 175.216C142.344 175.216 141.744 175.09 141.204 174.838C140.664 174.574 140.202 174.19 139.818 173.686C139.434 173.182 139.134 172.558 138.918 171.814C138.714 171.07 138.612 170.212 138.612 169.24C138.612 168.268 138.714 167.416 138.918 166.684C139.134 165.952 139.434 165.34 139.818 164.848C140.202 164.344 140.664 163.972 141.204 163.732C141.744 163.48 142.344 163.354 143.004 163.354C143.664 163.354 144.264 163.48 144.804 163.732C145.344 163.972 145.806 164.344 146.19 164.848C146.574 165.34 146.868 165.952 147.072 166.684C147.288 167.416 147.396 168.268 147.396 169.24C147.396 170.212 147.288 171.07 147.072 171.814C146.868 172.558 146.574 173.182 146.19 173.686C145.806 174.19 145.344 174.574 144.804 174.838C144.264 175.09 143.664 175.216 143.004 175.216ZM143.004 173.164C143.292 173.164 143.556 173.098 143.796 172.966C144.048 172.834 144.264 172.618 144.444 172.318C144.624 172.006 144.768 171.604 144.876 171.112C144.984 170.608 145.038 169.984 145.038 169.24C145.038 168.496 144.984 167.878 144.876 167.386C144.768 166.894 144.624 166.504 144.444 166.216C144.264 165.916 144.048 165.706 143.796 165.586C143.556 165.466 143.292 165.406 143.004 165.406C142.716 165.406 142.446 165.466 142.194 165.586C141.954 165.706 141.744 165.916 141.564 166.216C141.384 166.504 141.24 166.894 141.132 167.386C141.024 167.878 140.97 168.496 140.97 169.24C140.97 169.984 141.024 170.608 141.132 171.112C141.24 171.604 141.384 172.006 141.564 172.318C141.744 172.618 141.954 172.834 142.194 172.966C142.446 173.098 142.716 173.164 143.004 173.164ZM143.004 170.572C142.62 170.572 142.296 170.452 142.032 170.212C141.78 169.96 141.654 169.624 141.654 169.204C141.654 168.784 141.78 168.454 142.032 168.214C142.296 167.962 142.62 167.836 143.004 167.836C143.388 167.836 143.706 167.962 143.958 168.214C144.222 168.454 144.354 168.784 144.354 169.204C144.354 169.624 144.222 169.96 143.958 170.212C143.706 170.452 143.388 170.572 143.004 170.572Z" fill="#29A1F8"/>
<path d="M204.5 114.5H263.5V151.5H204.5V114.5Z" stroke="#30394B" stroke-width="3"/>
<path d="M223.211 139.216C222.551 139.216 221.951 139.09 221.411 138.838C220.871 138.574 220.409 138.19 220.025 137.686C219.641 137.182 219.341 136.558 219.125 135.814C218.921 135.07 218.819 134.212 218.819 133.24C218.819 132.268 218.921 131.416 219.125 130.684C219.341 129.952 219.641 129.34 220.025 128.848C220.409 128.344 220.871 127.972 221.411 127.732C221.951 127.48 222.551 127.354 223.211 127.354C223.871 127.354 224.471 127.48 225.011 127.732C225.551 127.972 226.013 128.344 226.397 128.848C226.781 129.34 227.075 129.952 227.279 130.684C227.495 131.416 227.603 132.268 227.603 133.24C227.603 134.212 227.495 135.07 227.279 135.814C227.075 136.558 226.781 137.182 226.397 137.686C226.013 138.19 225.551 138.574 225.011 138.838C224.471 139.09 223.871 139.216 223.211 139.216ZM223.211 137.164C223.499 137.164 223.763 137.098 224.003 136.966C224.255 136.834 224.471 136.618 224.651 136.318C224.831 136.006 224.975 135.604 225.083 135.112C225.191 134.608 225.245 133.984 225.245 133.24C225.245 132.496 225.191 131.878 225.083 131.386C224.975 130.894 224.831 130.504 224.651 130.216C224.471 129.916 224.255 129.706 224.003 129.586C223.763 129.466 223.499 129.406 223.211 129.406C222.923 129.406 222.653 129.466 222.401 129.586C222.161 129.706 221.951 129.916 221.771 130.216C221.591 130.504 221.447 130.894 221.339 131.386C221.231 131.878 221.177 132.496 221.177 133.24C221.177 133.984 221.231 134.608 221.339 135.112C221.447 135.604 221.591 136.006 221.771 136.318C221.951 136.618 222.161 136.834 222.401 136.966C222.653 137.098 222.923 137.164 223.211 137.164ZM223.211 134.572C222.827 134.572 222.503 134.452 222.239 134.212C221.987 133.96 221.861 133.624 221.861 133.204C221.861 132.784 221.987 132.454 222.239 132.214C222.503 131.962 222.827 131.836 223.211 131.836C223.595 131.836 223.913 131.962 224.165 132.214C224.429 132.454 224.561 132.784 224.561 133.204C224.561 133.624 224.429 133.96 224.165 134.212C223.913 134.452 223.595 134.572 223.211 134.572ZM234.004 139.216C233.38 139.216 232.876 139.018 232.492 138.622C232.108 138.214 231.916 137.71 231.916 137.11C231.916 136.81 231.964 136.534 232.06 136.282C232.168 136.018 232.312 135.79 232.492 135.598C232.672 135.406 232.888 135.256 233.14 135.148C233.404 135.04 233.692 134.986 234.004 134.986C234.316 134.986 234.598 135.04 234.85 135.148C235.114 135.256 235.336 135.406 235.516 135.598C235.696 135.79 235.834 136.018 235.93 136.282C236.038 136.534 236.092 136.81 236.092 137.11C236.092 137.71 235.9 138.214 235.516 138.622C235.132 139.018 234.628 139.216 234.004 139.216ZM244.796 139.216C244.136 139.216 243.536 139.09 242.996 138.838C242.456 138.574 241.994 138.19 241.61 137.686C241.226 137.182 240.926 136.558 240.71 135.814C240.506 135.07 240.404 134.212 240.404 133.24C240.404 132.268 240.506 131.416 240.71 130.684C240.926 129.952 241.226 129.34 241.61 128.848C241.994 128.344 242.456 127.972 242.996 127.732C243.536 127.48 244.136 127.354 244.796 127.354C245.456 127.354 246.056 127.48 246.596 127.732C247.136 127.972 247.598 128.344 247.982 128.848C248.366 129.34 248.66 129.952 248.864 130.684C249.08 131.416 249.188 132.268 249.188 133.24C249.188 134.212 249.08 135.07 248.864 135.814C248.66 136.558 248.366 137.182 247.982 137.686C247.598 138.19 247.136 138.574 246.596 138.838C246.056 139.09 245.456 139.216 244.796 139.216ZM244.796 137.164C245.084 137.164 245.348 137.098 245.588 136.966C245.84 136.834 246.056 136.618 246.236 136.318C246.416 136.006 246.56 135.604 246.668 135.112C246.776 134.608 246.83 133.984 246.83 133.24C246.83 132.496 246.776 131.878 246.668 131.386C246.56 130.894 246.416 130.504 246.236 130.216C246.056 129.916 245.84 129.706 245.588 129.586C245.348 129.466 245.084 129.406 244.796 129.406C244.508 129.406 244.238 129.466 243.986 129.586C243.746 129.706 243.536 129.916 243.356 130.216C243.176 130.504 243.032 130.894 242.924 131.386C242.816 131.878 242.762 132.496 242.762 133.24C242.762 133.984 242.816 134.608 242.924 135.112C243.032 135.604 243.176 136.006 243.356 136.318C243.536 136.618 243.746 136.834 243.986 136.966C244.238 137.098 244.508 137.164 244.796 137.164ZM244.796 134.572C244.412 134.572 244.088 134.452 243.824 134.212C243.572 133.96 243.446 133.624 243.446 133.204C243.446 132.784 243.572 132.454 243.824 132.214C244.088 131.962 244.412 131.836 244.796 131.836C245.18 131.836 245.498 131.962 245.75 132.214C246.014 132.454 246.146 132.784 246.146 133.204C246.146 133.624 246.014 133.96 245.75 134.212C245.498 134.452 245.18 134.572 244.796 134.572Z" fill="#232A3D"/>
<path d="M230.476 175V172.858H233.554V166.252H231.016V164.614C231.4 164.554 231.742 164.494 232.042 164.434C232.354 164.362 232.636 164.284 232.888 164.2C233.14 164.116 233.374 164.026 233.59 163.93C233.818 163.822 234.04 163.702 234.256 163.57H236.2V172.858H238.792V175H230.476Z" fill="#29A1F8"/>
<path d="M263.5 114.5H331.5V151.5H263.5V114.5Z" stroke="#30394B" stroke-width="3"/>
<path d="M331.5 114.5H423.5V151.5H331.5V114.5Z" stroke="#30394B" stroke-width="3"/>
<path d="M423.5 114.5H477.5V151.5H423.5V114.5Z" stroke="#30394B" stroke-width="3"/>
<path d="M275.936 133.78C275.264 133.78 274.742 133.528 274.37 133.024C274.01 132.52 273.83 131.812 273.83 130.9C273.83 129.916 274.088 129.052 274.604 128.308C275.132 127.552 275.924 126.934 276.98 126.454L277.664 127.858C277.04 128.146 276.56 128.494 276.224 128.902C275.888 129.31 275.696 129.802 275.648 130.378C275.768 130.342 275.894 130.324 276.026 130.324C276.506 130.324 276.896 130.474 277.196 130.774C277.508 131.062 277.664 131.458 277.664 131.962C277.664 132.514 277.502 132.958 277.178 133.294C276.854 133.618 276.44 133.78 275.936 133.78ZM286.747 139.216C285.307 139.216 284.233 138.814 283.525 138.01C282.817 137.194 282.463 136.018 282.463 134.482V127.264H285.109V134.752C285.109 135.46 285.241 136 285.505 136.372C285.769 136.744 286.183 136.93 286.747 136.93C287.311 136.93 287.725 136.744 287.989 136.372C288.265 136 288.403 135.46 288.403 134.752V127.264H290.959V134.482C290.959 136.018 290.611 137.194 289.915 138.01C289.231 138.814 288.175 139.216 286.747 139.216ZM297.468 139.216C296.676 139.216 295.89 139.078 295.11 138.802C294.342 138.514 293.64 138.088 293.004 137.524L294.534 135.706C294.978 136.066 295.464 136.36 295.992 136.588C296.52 136.816 297.072 136.93 297.648 136.93C298.224 136.93 298.644 136.834 298.908 136.642C299.172 136.45 299.304 136.204 299.304 135.904C299.304 135.7 299.262 135.532 299.178 135.4C299.094 135.256 298.974 135.13 298.818 135.022C298.662 134.914 298.47 134.812 298.242 134.716C298.014 134.62 297.762 134.512 297.486 134.392L295.974 133.744C295.65 133.624 295.332 133.468 295.02 133.276C294.72 133.084 294.456 132.862 294.228 132.61C294 132.346 293.814 132.046 293.67 131.71C293.538 131.362 293.472 130.972 293.472 130.54C293.472 130.06 293.574 129.61 293.778 129.19C293.994 128.758 294.288 128.386 294.66 128.074C295.044 127.75 295.5 127.498 296.028 127.318C296.556 127.138 297.138 127.048 297.774 127.048C298.494 127.048 299.19 127.18 299.862 127.444C300.534 127.708 301.14 128.092 301.68 128.596L300.33 130.27C299.922 129.97 299.514 129.742 299.106 129.586C298.698 129.418 298.206 129.334 297.63 129.334C297.186 129.334 296.826 129.424 296.55 129.604C296.286 129.784 296.154 130.048 296.154 130.396C296.154 130.744 296.328 131.014 296.676 131.206C297.036 131.386 297.504 131.578 298.08 131.782L299.502 132.394C300.282 132.682 300.894 133.078 301.338 133.582C301.794 134.086 302.022 134.752 302.022 135.58C302.022 136.072 301.92 136.54 301.716 136.984C301.512 137.416 301.218 137.8 300.834 138.136C300.45 138.46 299.976 138.724 299.412 138.928C298.848 139.12 298.2 139.216 297.468 139.216ZM304.156 139V127.264H307.396C308.248 127.264 309.022 127.378 309.718 127.606C310.414 127.834 311.008 128.188 311.5 128.668C311.992 129.136 312.37 129.736 312.634 130.468C312.91 131.2 313.048 132.07 313.048 133.078C313.048 134.086 312.916 134.962 312.652 135.706C312.388 136.45 312.01 137.068 311.518 137.56C311.038 138.04 310.462 138.4 309.79 138.64C309.118 138.88 308.374 139 307.558 139H304.156ZM306.82 136.858H307.252C307.708 136.858 308.122 136.792 308.494 136.66C308.878 136.528 309.202 136.318 309.466 136.03C309.742 135.73 309.952 135.34 310.096 134.86C310.252 134.38 310.33 133.786 310.33 133.078C310.33 132.382 310.252 131.8 310.096 131.332C309.952 130.852 309.742 130.474 309.466 130.198C309.202 129.91 308.878 129.706 308.494 129.586C308.122 129.466 307.708 129.406 307.252 129.406H306.82V136.858ZM318.027 133.78L317.325 132.376C318.585 131.812 319.251 130.978 319.323 129.874C319.215 129.91 319.101 129.928 318.981 129.928C318.489 129.928 318.087 129.778 317.775 129.478C317.475 129.178 317.325 128.776 317.325 128.272C317.325 127.72 317.487 127.282 317.811 126.958C318.135 126.622 318.549 126.454 319.053 126.454C319.737 126.454 320.259 126.712 320.619 127.228C320.979 127.732 321.159 128.434 321.159 129.334C321.159 130.318 320.901 131.188 320.385 131.944C319.869 132.688 319.083 133.3 318.027 133.78Z" fill="#232A3D"/>
<path d="M340.769 139V137.488C341.585 136.804 342.329 136.168 343.001 135.58C343.673 134.98 344.249 134.422 344.729 133.906C345.209 133.39 345.581 132.904 345.845 132.448C346.109 131.992 346.241 131.56 346.241 131.152C346.241 130.588 346.079 130.162 345.755 129.874C345.431 129.574 344.969 129.424 344.369 129.424C343.913 129.424 343.493 129.544 343.109 129.784C342.737 130.012 342.389 130.282 342.065 130.594L340.643 129.172C340.943 128.872 341.237 128.608 341.525 128.38C341.825 128.152 342.137 127.966 342.461 127.822C342.797 127.666 343.145 127.552 343.505 127.48C343.877 127.396 344.285 127.354 344.729 127.354C345.329 127.354 345.875 127.444 346.367 127.624C346.859 127.792 347.279 128.038 347.627 128.362C347.987 128.674 348.263 129.052 348.455 129.496C348.659 129.94 348.761 130.438 348.761 130.99C348.761 131.47 348.647 131.962 348.419 132.466C348.191 132.958 347.879 133.456 347.483 133.96C347.099 134.452 346.655 134.95 346.151 135.454C345.647 135.946 345.119 136.432 344.567 136.912C344.891 136.876 345.239 136.846 345.611 136.822C345.995 136.786 346.337 136.768 346.637 136.768H349.355V139H340.769ZM355.594 132.844C355.942 132.844 356.296 132.76 356.656 132.592C357.028 132.412 357.376 132.118 357.7 131.71C357.628 131.266 357.52 130.894 357.376 130.594C357.244 130.282 357.082 130.036 356.89 129.856C356.71 129.664 356.512 129.532 356.296 129.46C356.08 129.376 355.858 129.334 355.63 129.334C355.402 129.334 355.18 129.37 354.964 129.442C354.76 129.514 354.574 129.628 354.406 129.784C354.25 129.928 354.124 130.12 354.028 130.36C353.932 130.588 353.884 130.864 353.884 131.188C353.884 131.776 354.04 132.202 354.352 132.466C354.664 132.718 355.078 132.844 355.594 132.844ZM355.288 139.216C354.472 139.216 353.758 139.078 353.146 138.802C352.534 138.526 352.03 138.208 351.634 137.848L353.038 136.264C353.278 136.48 353.578 136.672 353.938 136.84C354.298 136.996 354.67 137.074 355.054 137.074C355.402 137.074 355.732 137.014 356.044 136.894C356.368 136.762 356.65 136.558 356.89 136.282C357.142 135.994 357.346 135.622 357.502 135.166C357.658 134.698 357.748 134.128 357.772 133.456C357.352 133.852 356.89 134.164 356.386 134.392C355.894 134.608 355.438 134.716 355.018 134.716C354.514 134.716 354.046 134.644 353.614 134.5C353.182 134.356 352.804 134.14 352.48 133.852C352.168 133.564 351.922 133.198 351.742 132.754C351.562 132.31 351.472 131.788 351.472 131.188C351.472 130.6 351.58 130.072 351.796 129.604C352.024 129.124 352.324 128.716 352.696 128.38C353.08 128.044 353.518 127.792 354.01 127.624C354.502 127.444 355.024 127.354 355.576 127.354C356.164 127.354 356.734 127.462 357.286 127.678C357.85 127.894 358.348 128.23 358.78 128.686C359.212 129.142 359.554 129.73 359.806 130.45C360.07 131.158 360.202 132.016 360.202 133.024C360.202 134.092 360.064 135.016 359.788 135.796C359.512 136.576 359.146 137.218 358.69 137.722C358.234 138.226 357.706 138.604 357.106 138.856C356.518 139.096 355.912 139.216 355.288 139.216ZM364.785 139C364.833 138.052 364.923 137.182 365.055 136.39C365.199 135.586 365.397 134.824 365.649 134.104C365.913 133.372 366.249 132.664 366.657 131.98C367.065 131.284 367.569 130.558 368.169 129.802H362.427V127.57H371.013V129.19C370.293 129.994 369.711 130.75 369.267 131.458C368.823 132.154 368.475 132.88 368.223 133.636C367.971 134.38 367.791 135.184 367.683 136.048C367.575 136.9 367.497 137.884 367.449 139H364.785ZM378.242 139V136.264H372.734V134.446L377.504 127.57H380.708V134.248H382.148V136.264H380.708V139H378.242ZM375.29 134.248H378.242V132.322C378.242 131.962 378.248 131.548 378.26 131.08C378.284 130.6 378.308 130.18 378.332 129.82H378.26C378.068 130.144 377.864 130.468 377.648 130.792C377.432 131.116 377.222 131.44 377.018 131.764L375.29 134.248ZM388.602 139.216C388.014 139.216 387.444 139.108 386.892 138.892C386.34 138.676 385.848 138.34 385.416 137.884C384.984 137.428 384.636 136.846 384.372 136.138C384.108 135.418 383.976 134.554 383.976 133.546C383.976 132.478 384.114 131.554 384.39 130.774C384.666 129.994 385.032 129.352 385.488 128.848C385.956 128.344 386.484 127.972 387.072 127.732C387.66 127.48 388.272 127.354 388.908 127.354C389.724 127.354 390.438 127.492 391.05 127.768C391.662 128.032 392.16 128.35 392.544 128.722L391.158 130.306C390.918 130.09 390.618 129.904 390.258 129.748C389.898 129.58 389.526 129.496 389.142 129.496C388.794 129.496 388.458 129.562 388.134 129.694C387.822 129.814 387.54 130.018 387.288 130.306C387.048 130.582 386.85 130.948 386.694 131.404C386.538 131.86 386.448 132.424 386.424 133.096C386.832 132.7 387.282 132.394 387.774 132.178C388.278 131.962 388.746 131.854 389.178 131.854C389.682 131.854 390.144 131.926 390.564 132.07C390.996 132.214 391.368 132.43 391.68 132.718C392.004 133.006 392.256 133.372 392.436 133.816C392.616 134.26 392.706 134.782 392.706 135.382C392.706 135.982 392.592 136.516 392.364 136.984C392.148 137.452 391.848 137.854 391.464 138.19C391.092 138.526 390.66 138.784 390.168 138.964C389.676 139.132 389.154 139.216 388.602 139.216ZM388.548 137.236C388.776 137.236 388.992 137.2 389.196 137.128C389.412 137.056 389.598 136.948 389.754 136.804C389.922 136.648 390.054 136.456 390.15 136.228C390.246 135.988 390.294 135.706 390.294 135.382C390.294 134.794 390.138 134.374 389.826 134.122C389.514 133.858 389.106 133.726 388.602 133.726C388.266 133.726 387.918 133.81 387.558 133.978C387.198 134.146 386.844 134.434 386.496 134.842C386.568 135.298 386.67 135.682 386.802 135.994C386.946 136.294 387.108 136.54 387.288 136.732C387.468 136.912 387.666 137.044 387.882 137.128C388.098 137.2 388.32 137.236 388.548 137.236ZM397.163 139C397.211 138.052 397.301 137.182 397.433 136.39C397.577 135.586 397.775 134.824 398.027 134.104C398.291 133.372 398.627 132.664 399.035 131.98C399.443 131.284 399.947 130.558 400.547 129.802H394.805V127.57H403.391V129.19C402.671 129.994 402.089 130.75 401.645 131.458C401.201 132.154 400.853 132.88 400.601 133.636C400.349 134.38 400.169 135.184 400.061 136.048C399.953 136.9 399.875 137.884 399.827 139H397.163ZM410.188 139.216C409.6 139.216 409.03 139.108 408.478 138.892C407.926 138.676 407.434 138.34 407.002 137.884C406.57 137.428 406.222 136.846 405.958 136.138C405.694 135.418 405.562 134.554 405.562 133.546C405.562 132.478 405.7 131.554 405.976 130.774C406.252 129.994 406.618 129.352 407.074 128.848C407.542 128.344 408.07 127.972 408.658 127.732C409.246 127.48 409.858 127.354 410.494 127.354C411.31 127.354 412.024 127.492 412.636 127.768C413.248 128.032 413.746 128.35 414.13 128.722L412.744 130.306C412.504 130.09 412.204 129.904 411.844 129.748C411.484 129.58 411.112 129.496 410.728 129.496C410.38 129.496 410.044 129.562 409.72 129.694C409.408 129.814 409.126 130.018 408.874 130.306C408.634 130.582 408.436 130.948 408.28 131.404C408.124 131.86 408.034 132.424 408.01 133.096C408.418 132.7 408.868 132.394 409.36 132.178C409.864 131.962 410.332 131.854 410.764 131.854C411.268 131.854 411.73 131.926 412.15 132.07C412.582 132.214 412.954 132.43 413.266 132.718C413.59 133.006 413.842 133.372 414.022 133.816C414.202 134.26 414.292 134.782 414.292 135.382C414.292 135.982 414.178 136.516 413.95 136.984C413.734 137.452 413.434 137.854 413.05 138.19C412.678 138.526 412.246 138.784 411.754 138.964C411.262 139.132 410.74 139.216 410.188 139.216ZM410.134 137.236C410.362 137.236 410.578 137.2 410.782 137.128C410.998 137.056 411.184 136.948 411.34 136.804C411.508 136.648 411.64 136.456 411.736 136.228C411.832 135.988 411.88 135.706 411.88 135.382C411.88 134.794 411.724 134.374 411.412 134.122C411.1 133.858 410.692 133.726 410.188 133.726C409.852 133.726 409.504 133.81 409.144 133.978C408.784 134.146 408.43 134.434 408.082 134.842C408.154 135.298 408.256 135.682 408.388 135.994C408.532 136.294 408.694 136.54 408.874 136.732C409.054 136.912 409.252 137.044 409.468 137.128C409.684 137.2 409.906 137.236 410.134 137.236Z" fill="#232A3D"/>
<path d="M439.333 139.216C438.349 139.216 437.503 139.072 436.795 138.784C436.087 138.484 435.511 138.088 435.067 137.596L436.291 135.922C436.675 136.258 437.101 136.534 437.569 136.75C438.049 136.966 438.553 137.074 439.081 137.074C439.705 137.074 440.215 136.96 440.611 136.732C441.019 136.492 441.223 136.156 441.223 135.724C441.223 135.472 441.169 135.244 441.061 135.04C440.953 134.836 440.767 134.668 440.503 134.536C440.239 134.392 439.885 134.284 439.441 134.212C438.997 134.128 438.439 134.086 437.767 134.086V132.214C438.895 132.214 439.687 132.076 440.143 131.8C440.611 131.512 440.845 131.14 440.845 130.684C440.845 130.288 440.695 129.982 440.395 129.766C440.095 129.538 439.681 129.424 439.153 129.424C438.697 129.424 438.277 129.514 437.893 129.694C437.509 129.874 437.119 130.12 436.723 130.432L435.391 128.812C435.955 128.356 436.555 128.002 437.191 127.75C437.839 127.486 438.535 127.354 439.279 127.354C439.903 127.354 440.473 127.426 440.989 127.57C441.505 127.702 441.949 127.906 442.321 128.182C442.693 128.446 442.981 128.77 443.185 129.154C443.389 129.538 443.491 129.982 443.491 130.486C443.491 131.086 443.299 131.596 442.915 132.016C442.531 132.424 441.997 132.76 441.313 133.024V133.096C442.033 133.288 442.639 133.618 443.131 134.086C443.623 134.542 443.869 135.142 443.869 135.886C443.869 136.414 443.743 136.888 443.491 137.308C443.251 137.716 442.921 138.064 442.501 138.352C442.093 138.628 441.613 138.844 441.061 139C440.509 139.144 439.933 139.216 439.333 139.216ZM450.504 139.216C449.88 139.216 449.376 139.018 448.992 138.622C448.608 138.214 448.416 137.71 448.416 137.11C448.416 136.81 448.464 136.534 448.56 136.282C448.668 136.018 448.812 135.79 448.992 135.598C449.172 135.406 449.388 135.256 449.64 135.148C449.904 135.04 450.192 134.986 450.504 134.986C450.816 134.986 451.098 135.04 451.35 135.148C451.614 135.256 451.836 135.406 452.016 135.598C452.196 135.79 452.334 136.018 452.43 136.282C452.538 136.534 452.592 136.81 452.592 137.11C452.592 137.71 452.4 138.214 452.016 138.622C451.632 139.018 451.128 139.216 450.504 139.216ZM460.99 139.216C459.994 139.216 459.148 139.066 458.452 138.766C457.768 138.454 457.192 138.07 456.724 137.614L457.912 135.94C458.296 136.252 458.704 136.522 459.136 136.75C459.58 136.966 460.072 137.074 460.612 137.074C461.26 137.074 461.788 136.924 462.196 136.624C462.616 136.324 462.826 135.88 462.826 135.292C462.826 134.716 462.628 134.278 462.232 133.978C461.848 133.678 461.35 133.528 460.738 133.528C460.546 133.528 460.372 133.54 460.216 133.564C460.072 133.576 459.928 133.606 459.784 133.654C459.64 133.702 459.49 133.762 459.334 133.834C459.178 133.906 459.004 133.996 458.812 134.104L457.642 133.348L457.948 127.57H464.95V129.802H460.234L460.036 131.944C460.3 131.848 460.546 131.782 460.774 131.746C461.002 131.698 461.26 131.674 461.548 131.674C462.076 131.674 462.574 131.746 463.042 131.89C463.522 132.034 463.942 132.25 464.302 132.538C464.662 132.826 464.944 133.192 465.148 133.636C465.364 134.08 465.472 134.608 465.472 135.22C465.472 135.856 465.346 136.42 465.094 136.912C464.854 137.404 464.524 137.824 464.104 138.172C463.696 138.508 463.222 138.766 462.682 138.946C462.142 139.126 461.578 139.216 460.99 139.216Z" fill="#232A3D"/>
<path d="M292.648 175V173.488C293.464 172.804 294.208 172.168 294.88 171.58C295.552 170.98 296.128 170.422 296.608 169.906C297.088 169.39 297.46 168.904 297.724 168.448C297.988 167.992 298.12 167.56 298.12 167.152C298.12 166.588 297.958 166.162 297.634 165.874C297.31 165.574 296.848 165.424 296.248 165.424C295.792 165.424 295.372 165.544 294.988 165.784C294.616 166.012 294.268 166.282 293.944 166.594L292.522 165.172C292.822 164.872 293.116 164.608 293.404 164.38C293.704 164.152 294.016 163.966 294.34 163.822C294.676 163.666 295.024 163.552 295.384 163.48C295.756 163.396 296.164 163.354 296.608 163.354C297.208 163.354 297.754 163.444 298.246 163.624C298.738 163.792 299.158 164.038 299.506 164.362C299.866 164.674 300.142 165.052 300.334 165.496C300.538 165.94 300.64 166.438 300.64 166.99C300.64 167.47 300.526 167.962 300.298 168.466C300.07 168.958 299.758 169.456 299.362 169.96C298.978 170.452 298.534 170.95 298.03 171.454C297.526 171.946 296.998 172.432 296.446 172.912C296.77 172.876 297.118 172.846 297.49 172.822C297.874 172.786 298.216 172.768 298.516 172.768H301.234V175H292.648Z" fill="#29A1F8"/>
<path d="M376.126 175.216C375.142 175.216 374.296 175.072 373.588 174.784C372.88 174.484 372.304 174.088 371.86 173.596L373.084 171.922C373.468 172.258 373.894 172.534 374.362 172.75C374.842 172.966 375.346 173.074 375.874 173.074C376.498 173.074 377.008 172.96 377.404 172.732C377.812 172.492 378.016 172.156 378.016 171.724C378.016 171.472 377.962 171.244 377.854 171.04C377.746 170.836 377.56 170.668 377.296 170.536C377.032 170.392 376.678 170.284 376.234 170.212C375.79 170.128 375.232 170.086 374.56 170.086V168.214C375.688 168.214 376.48 168.076 376.936 167.8C377.404 167.512 377.638 167.14 377.638 166.684C377.638 166.288 377.488 165.982 377.188 165.766C376.888 165.538 376.474 165.424 375.946 165.424C375.49 165.424 375.07 165.514 374.686 165.694C374.302 165.874 373.912 166.12 373.516 166.432L372.184 164.812C372.748 164.356 373.348 164.002 373.984 163.75C374.632 163.486 375.328 163.354 376.072 163.354C376.696 163.354 377.266 163.426 377.782 163.57C378.298 163.702 378.742 163.906 379.114 164.182C379.486 164.446 379.774 164.77 379.978 165.154C380.182 165.538 380.284 165.982 380.284 166.486C380.284 167.086 380.092 167.596 379.708 168.016C379.324 168.424 378.79 168.76 378.106 169.024V169.096C378.826 169.288 379.432 169.618 379.924 170.086C380.416 170.542 380.662 171.142 380.662 171.886C380.662 172.414 380.536 172.888 380.284 173.308C380.044 173.716 379.714 174.064 379.294 174.352C378.886 174.628 378.406 174.844 377.854 175C377.302 175.144 376.726 175.216 376.126 175.216Z" fill="#29A1F8"/>
<path d="M450.742 175V172.264H445.234V170.446L450.004 163.57H453.208V170.248H454.648V172.264H453.208V175H450.742ZM447.79 170.248H450.742V168.322C450.742 167.962 450.748 167.548 450.76 167.08C450.784 166.6 450.808 166.18 450.832 165.82H450.76C450.568 166.144 450.364 166.468 450.148 166.792C449.932 167.116 449.722 167.44 449.518 167.764L447.79 170.248Z" fill="#29A1F8"/>
<path d="M133.467 92.996V91.124H141.747V92.996H133.467ZM148.094 98.216C147.098 98.216 146.252 98.066 145.556 97.766C144.872 97.454 144.296 97.07 143.828 96.614L145.016 94.94C145.4 95.252 145.808 95.522 146.24 95.75C146.684 95.966 147.176 96.074 147.716 96.074C148.364 96.074 148.892 95.924 149.3 95.624C149.72 95.324 149.93 94.88 149.93 94.292C149.93 93.716 149.732 93.278 149.336 92.978C148.952 92.678 148.454 92.528 147.842 92.528C147.65 92.528 147.476 92.54 147.32 92.564C147.176 92.576 147.032 92.606 146.888 92.654C146.744 92.702 146.594 92.762 146.438 92.834C146.282 92.906 146.108 92.996 145.916 93.104L144.746 92.348L145.052 86.57H152.054V88.802H147.338L147.14 90.944C147.404 90.848 147.65 90.782 147.878 90.746C148.106 90.698 148.364 90.674 148.652 90.674C149.18 90.674 149.678 90.746 150.146 90.89C150.626 91.034 151.046 91.25 151.406 91.538C151.766 91.826 152.048 92.192 152.252 92.636C152.468 93.08 152.576 93.608 152.576 94.22C152.576 94.856 152.45 95.42 152.198 95.912C151.958 96.404 151.628 96.824 151.208 97.172C150.8 97.508 150.326 97.766 149.786 97.946C149.246 98.126 148.682 98.216 148.094 98.216Z" fill="#C74E4E"/>
<path d="M224.417 92.996V91.124H232.697V92.996H224.417ZM240.088 98V95.264H234.58V93.446L239.35 86.57H242.554V93.248H243.994V95.264H242.554V98H240.088ZM237.136 93.248H240.088V91.322C240.088 90.962 240.094 90.548 240.106 90.08C240.13 89.6 240.154 89.18 240.178 88.82H240.106C239.914 89.144 239.71 89.468 239.494 89.792C239.278 90.116 239.068 90.44 238.864 90.764L237.136 93.248Z" fill="#C74E4E"/>
<path d="M287.467 92.996V91.124H295.747V92.996H287.467ZM302.022 98.216C301.038 98.216 300.192 98.072 299.484 97.784C298.776 97.484 298.2 97.088 297.756 96.596L298.98 94.922C299.364 95.258 299.79 95.534 300.258 95.75C300.738 95.966 301.242 96.074 301.77 96.074C302.394 96.074 302.904 95.96 303.3 95.732C303.708 95.492 303.912 95.156 303.912 94.724C303.912 94.472 303.858 94.244 303.75 94.04C303.642 93.836 303.456 93.668 303.192 93.536C302.928 93.392 302.574 93.284 302.13 93.212C301.686 93.128 301.128 93.086 300.456 93.086V91.214C301.584 91.214 302.376 91.076 302.832 90.8C303.3 90.512 303.534 90.14 303.534 89.684C303.534 89.288 303.384 88.982 303.084 88.766C302.784 88.538 302.37 88.424 301.842 88.424C301.386 88.424 300.966 88.514 300.582 88.694C300.198 88.874 299.808 89.12 299.412 89.432L298.08 87.812C298.644 87.356 299.244 87.002 299.88 86.75C300.528 86.486 301.224 86.354 301.968 86.354C302.592 86.354 303.162 86.426 303.678 86.57C304.194 86.702 304.638 86.906 305.01 87.182C305.382 87.446 305.67 87.77 305.874 88.154C306.078 88.538 306.18 88.982 306.18 89.486C306.18 90.086 305.988 90.596 305.604 91.016C305.22 91.424 304.686 91.76 304.002 92.024V92.096C304.722 92.288 305.328 92.618 305.82 93.086C306.312 93.542 306.558 94.142 306.558 94.886C306.558 95.414 306.432 95.888 306.18 96.308C305.94 96.716 305.61 97.064 305.19 97.352C304.782 97.628 304.302 97.844 303.75 98C303.198 98.144 302.622 98.216 302.022 98.216Z" fill="#C74E4E"/>
<path d="M366.967 92.996V91.124H375.247V92.996H366.967ZM377.544 98V96.488C378.36 95.804 379.104 95.168 379.776 94.58C380.448 93.98 381.024 93.422 381.504 92.906C381.984 92.39 382.356 91.904 382.62 91.448C382.884 90.992 383.016 90.56 383.016 90.152C383.016 89.588 382.854 89.162 382.53 88.874C382.206 88.574 381.744 88.424 381.144 88.424C380.688 88.424 380.268 88.544 379.884 88.784C379.512 89.012 379.164 89.282 378.84 89.594L377.418 88.172C377.718 87.872 378.012 87.608 378.3 87.38C378.6 87.152 378.912 86.966 379.236 86.822C379.572 86.666 379.92 86.552 380.28 86.48C380.652 86.396 381.06 86.354 381.504 86.354C382.104 86.354 382.65 86.444 383.142 86.624C383.634 86.792 384.054 87.038 384.402 87.362C384.762 87.674 385.038 88.052 385.23 88.496C385.434 88.94 385.536 89.438 385.536 89.99C385.536 90.47 385.422 90.962 385.194 91.466C384.966 91.958 384.654 92.456 384.258 92.96C383.874 93.452 383.43 93.95 382.926 94.454C382.422 94.946 381.894 95.432 381.342 95.912C381.666 95.876 382.014 95.846 382.386 95.822C382.77 95.786 383.112 95.768 383.412 95.768H386.13V98H377.544Z" fill="#C74E4E"/>
<path d="M440.467 92.996V91.124H448.747V92.996H440.467ZM451.422 98V95.858H454.5V89.252H451.962V87.614C452.346 87.554 452.688 87.494 452.988 87.434C453.3 87.362 453.582 87.284 453.834 87.2C454.086 87.116 454.32 87.026 454.536 86.93C454.764 86.822 454.986 86.702 455.202 86.57H457.146V95.858H459.738V98H451.422Z" fill="#C74E4E"/>
<path opacity="0.25" d="M143.029 190C143.029 193.613 142.261 195.162 148.605 194.967C148.605 194.967 282.372 194.967 290.176 194.967C297.981 194.967 297.763 203.865 297.981 203.998C298.199 204.132 298.327 195.139 305.785 194.967C313.244 194.795 435.798 194.947 444.641 194.967C453.484 194.988 451.888 190 451.888 190" stroke="#29A1F8" stroke-width="2"/>
<path opacity="0.25" d="M143.029 70C143.029 66.3875 142.261 64.838 148.605 65.0328C148.605 65.0328 282.372 65.0328 290.176 65.0328C297.981 65.0328 297.763 56.1351 297.981 56.0015C298.199 55.8678 298.327 64.8607 305.785 65.0328C313.244 65.2048 435.798 65.0534 444.641 65.0328C453.484 65.0122 451.888 70 451.888 70" stroke="#C74E4E" stroke-width="2"/>
</svg>
